<?xml version="1.0" encoding="utf-8"?>
<!-- Generator: Adobe Illustrator 23.0.1, SVG Export Plug-In . SVG Version: 6.00 Build 0)  -->
<svg version="1.1" id="Layer_1" xmlns="http://www.w3.org/2000/svg" xmlns:xlink="http://www.w3.org/1999/xlink" x="0px" y="0px"
	 viewBox="0 0 54.6 54.6" style="enable-background:new 0 0 54.6 54.6;" xml:space="preserve">
<style type="text/css">
	.st0{opacity:0.8;clip-path:url(#SVGID_2_);fill-rule:evenodd;clip-rule:evenodd;fill:#FFFFFF;}
</style>
<g>
	<g>
		<g>
			<g>
				<defs>
					<path id="SVGID_1_" d="M54.6,27.3c0,15.1-12.2,27.3-27.3,27.3C12.2,54.6,0,42.4,0,27.3C0,12.2,12.2,0,27.3,0
						C42.4,0,54.6,12.2,54.6,27.3z"/>
				</defs>
				<use xlink:href="#SVGID_1_"  style="overflow:visible;opacity:0.3;fill:#707070;"/>
				<clipPath id="SVGID_2_">
					<use xlink:href="#SVGID_1_"  style="overflow:visible;opacity:0.3;"/>
				</clipPath>
				<path class="st0" d="M57.9,55.1c-0.4-1-0.9-1.9-1.6-2.8c-1-1.3-2.4-2.3-4-3c-0.4-0.2-0.9-0.5-1.4-0.6c-1.5-0.3-3-0.8-4.5-1.2
					c-0.5,0-1-0.2-1.4-0.5c-1.1-0.5-2.3-0.8-3.3-1.4c-0.4-0.1-0.7-0.1-1-0.4c-0.2-0.1-0.3-0.2-0.5-0.2c-0.5-0.1-1-0.4-1.3-0.8
					c-0.2-0.1-0.4-0.3-0.6-0.4c-0.2-0.1-0.4-0.3-0.5-0.6c-0.1-0.4-0.2-0.8-0.3-1.2c-0.1-0.4-0.1-0.8-0.2-1.2c0-0.2-0.1-0.4-0.4-0.5
					c-0.2-0.1-0.5,0-0.7,0c-0.5,0.1-0.7,0-0.8-0.5c-0.1-0.3-0.1-0.7-0.2-1.1c0-0.8-0.2-1.6,0.6-2.2c0.9-1.8,1.5-3.6,2-5.5
					c0.1-0.4,0.3-0.8,0.9-0.8c0.3,0,0.6-0.2,0.7-0.6c0.3-1.1,0.7-2.2,1.2-3.3c0.2-0.8,0.5-1.5,0.6-2.3c0-0.2,0-0.3,0-0.5
					c0-0.1,0-0.1-0.1-0.2c0,0-0.1,0-0.1-0.1c0-0.3,0-0.7,0-1c0-0.5-0.2-0.9-0.7-1c-0.4-0.1-0.5-0.3-0.5-0.7c0.1-1.5,0.2-3,0.3-4.5
					c0,0,0-0.1,0-0.1c0,0,0-0.1,0-0.1c0-0.5-0.1-0.9-0.1-1.4c-0.1-1.1-0.2-2.2-0.8-3.1c-1.1-1.8-2.6-3.3-4.5-4.2
					c-1.6-0.8-3.4-1.2-5.1-1.6C26,5,22.7,5.8,19.8,8.2c0,0,0,0,0,0.1l0,0l0,0c-0.3,0.2-0.6,0.5-0.8,0.8c-0.3,0.6-0.8,1.2-1.4,1.6
					c-1,0.9-1.5,1.9-1.3,3.2c0,0-0.1,0-0.1,0.1c0,0-0.1,0.1-0.1,0.2c-0.2,1.1,0.1,2.1,0.1,3.2c0.3,0.9,0.3,1.8,0.3,2.7
					c0,0.5-0.1,0.8-0.6,1c-0.6,0.2-0.9,0.7-1,1.3c-0.1,0.6-0.1,1.3,0.1,1.9c0.2,0.9,0.5,1.7,0.8,2.6c0.4,0.7,0.7,1.5,0.9,2.4
					c0.1,0.5,0.3,0.9,0.8,1c0.4,0.1,0.6,0.4,0.7,0.8c0.1,0.6,0.4,1.2,0.6,1.9c0.2,0.5,0.6,1,0.6,1.5c0,0.1,0,0.1,0,0.2
					c1.1,1.7,1.7,3.5,0.9,5.5c-0.4,0.4-0.7,0-1.1,0c-0.4,0-0.7,0-0.8,0.4c-0.3,0.9-0.4,1.8-0.7,2.7c-0.2,0.5-0.4,0.8-0.9,1.1
					c-1,0.5-2,1-3.1,1.3c-0.7,0.5-1.6,0.7-2.4,1C10,47.2,8.4,47.6,6.7,48c-2,0.5-3.9,1.2-5.5,2.4c-0.8,1-1.9,1.9-2.4,3.2
					c0,0.6,0,1.1,0,1.7c0,0.4,0.1,0.5,0.5,0.5c19.5,0,38.9,0,58.4,0C58.1,55.7,58,55.4,57.9,55.1z"/>
			</g>
		</g>
	</g>
</g>
</svg>
