<svg class="fill-current stroke-current w-full h-full" style="color: inherit" stroke-width="0.2" width="24" height="24" viewBox="0 0 24 24" stroke="none" xmlns="http://www.w3.org/2000/svg">
<path d="M17 6.111C18.1 6.111 19 5.18602 19 4.0555C19 2.92497 18.1 2 17 2C15.9 2 15 2.92497 15 4.0555C15 5.18602 15.9 6.111 17 6.111ZM14 16.8613H12C12 18.557 10.65 19.9445 9 19.9445C7.35 19.9445 6 18.557 6 16.8613C6 15.1655 7.35 13.778 9 13.778V11.7225C6.24 11.7225 4 14.0247 4 16.8613C4 19.6978 6.24 22 9 22C11.76 22 14 19.6978 14 16.8613ZM17 13.2641H15.14L16.81 9.49229C17.42 8.12539 16.44 6.58376 14.96 6.58376H9.76C8.95 6.58376 8.22 7.0668 7.89 7.81706L7.61 8.59815C7.4 9.17369 7.72 9.80062 8.29 9.96506C8.78 10.1089 9.29 9.852 9.49 9.36896L9.79 8.63926H12L10.17 12.853C9.57 14.2199 10.56 15.8335 12.02 15.8335H17V19.9445C17 20.5098 17.45 20.9723 18 20.9723C18.55 20.9723 19 20.5098 19 19.9445V15.3196C19 14.1891 18.1 13.2641 17 13.2641Z" />
</svg>
