<svg class="fill-current stroke-current w-full h-full" style="color: inherit" stroke-width="0.2" width="24" height="24" viewBox="0 0 24 24" stroke="none" xmlns="http://www.w3.org/2000/svg">
<path d="M20.9677 6.99C20.8242 6.44 20.2606 6.12 19.6969 6.24C17.2577 6.77 14.5417 7 12 7C9.45831 7 6.74237 6.77 4.30316 6.24C3.73947 6.12 3.17579 6.44 3.0323 6.99C2.88882 7.55 3.23728 8.12 3.80096 8.25C5.45102 8.61 7.23432 8.86 8.92537 9V21C8.92537 21.55 9.38657 22 9.95025 22C10.5139 22 10.9751 21.55 10.9751 21V16H13.0249V21C13.0249 21.55 13.4861 22 14.0498 22C14.6135 22 15.0747 21.55 15.0747 21V9C16.7657 8.86 18.549 8.61 20.1888 8.25C20.7628 8.12 21.1112 7.55 20.9677 6.99ZM12 6C13.1274 6 14.0498 5.1 14.0498 4C14.0498 2.9 13.1274 2 12 2C10.8726 2 9.95025 2.9 9.95025 4C9.95025 5.1 10.8726 6 12 6Z" />
</svg>
