<svg class="fill-current stroke-current w-full h-full" style="color: inherit" stroke-width="0.2" width="24" height="24" viewBox="0 0 24 24" stroke="none" xmlns="http://www.w3.org/2000/svg">
<path d="M12 5.998C13.1 5.998 14 5.09845 14 3.999C14 2.89955 13.1 2 12 2C10.9 2 10 2.89955 10 3.999C10 5.09845 10.9 5.998 12 5.998ZM19 11.8951C19 11.4053 18.64 11.0055 18.16 10.9255C16.91 10.7156 15.73 10.046 14.93 9.16642L13.64 7.73713C13.47 7.54723 13.26 7.3973 13.03 7.28736C13.03 7.28736 13.03 7.28736 13.01 7.28736H13C12.63 7.07746 12.22 6.97751 11.75 7.03748C10.73 7.15742 10 8.07696 10 9.10645V15.0035C10 16.1029 10.9 17.0025 12 17.0025H17V21.0005C17 21.5502 17.45 22 18 22C18.55 22 19 21.5502 19 21.0005V16.5027C19 15.4033 18.1 14.5037 17 14.5037H14V11.0555C15 11.8851 16.4 12.5947 17.8 12.8746C18.42 13.0045 19 12.5347 19 11.905V11.8951ZM12.83 17.992C12.42 19.1514 11.31 19.991 10 19.991C8.34 19.991 7 18.6517 7 16.9925C7 15.6832 7.84 14.5837 9 14.1639V12.095C6.72 12.5547 5 14.5737 5 16.9925C5 19.7511 7.24 21.99 10 21.99C12.42 21.99 14.44 20.2709 14.9 17.992H12.83Z" />
</svg>
