<svg class="fill-current stroke-current w-full h-full" style="color: inherit" stroke-width="0.2" width="24" height="24" viewBox="0 0 24 24" stroke="none" xmlns="http://www.w3.org/2000/svg">
<path fill-rule="evenodd" clip-rule="evenodd" d="M17 9H20V5H17V9ZM7.01 6H7V9H4V5H7.01V6ZM17 19H20V15H17V19ZM9 9C9 10.1 8.11 11 7 11H4C2.9 11 2 10.11 2 9V5C2 3.9 2.9 3 4 3H7.01C8.11 3 9.01 3.89 9.01 5V6H15V5C15 3.9 15.89 3 17 3H20C21.1 3 22 3.89 22 5V9C22 10.1 21.11 11 20 11H17C15.9 11 15 10.1 15 9V8H13V15.01C13 15.55 13.45 16 13.99 16H15V15C15 13.9 15.89 13 17 13H20C21.1 13 22 13.89 22 15V19C22 20.1 21.11 21 20 21H17C15.9 21 15 20.11 15 19V18H13.99C12.34 18 11 16.66 11 15.01V8H9V9Z" />
</svg>
