<svg class="fill-current stroke-current w-full h-full" style="color: inherit" stroke-width="0.2" width="24" height="24" viewBox="0 0 24 24" stroke="none" xmlns="http://www.w3.org/2000/svg">
<path d="M20.5 23H4.5C3.67 23 3 22.3217 3 21.4814C3 20.6411 3.67 19.9628 4.5 19.9628H20.5C21.33 19.9628 22 20.6411 22 21.4814C22 22.3217 21.33 23 20.5 23ZM18.5 17.9379C17.67 17.9379 17 17.2596 17 16.4193V12.3697C17 11.5293 17.67 10.851 18.5 10.851C19.33 10.851 20 11.5293 20 12.3697V16.4193C20 17.2596 19.33 17.9379 18.5 17.9379ZM12.5 17.9379C11.67 17.9379 11 17.2596 11 16.4193V12.3697C11 11.5293 11.67 10.851 12.5 10.851C13.33 10.851 14 11.5293 14 12.3697V16.4193C14 17.2596 13.33 17.9379 12.5 17.9379ZM6.5 17.9379C5.67 17.9379 5 17.2596 5 16.4193V12.3697C5 11.5293 5.67 10.851 6.5 10.851C7.33 10.851 8 11.5293 8 12.3697V16.4193C8 17.2596 7.33 17.9379 6.5 17.9379ZM20.76 8.8262H4.25C3.56 8.8262 3 8.25925 3 7.56068C3 7.09497 3.26 6.65964 3.67 6.44703L11.57 2.23539C12.16 1.92154 12.85 1.92154 13.43 2.23539L21.33 6.44703C21.74 6.65964 22 7.09497 22 7.56068C22 8.25925 21.44 8.8262 20.76 8.8262ZM20.4 8.239C20.4 8.239 20.4 8.239 20.41 8.239H20.4ZM4.62 8.21875H4.6C4.6 8.21875 4.61 8.21875 4.62 8.21875ZM7.3 6.79125H17.7L12.5 4.01724L7.3 6.79125Z" />
</svg>
