<svg class="fill-current stroke-current w-full h-full" style="color: inherit" stroke-width="0.2" width="24" height="24" viewBox="0 0 24 24" stroke="none" xmlns="http://www.w3.org/2000/svg">
<path fill-rule="evenodd" clip-rule="evenodd" d="M9.3 3C9.73 3 10.11 3.27 10.25 3.68L14.7 16.87L16.45 11.68C16.59 11.27 16.97 11 17.4 11H21C21.55 11 22 11.45 22 12C22 12.55 21.55 13 21 13H18.12L15.65 20.32C15.51 20.73 15.13 21 14.7 21C14.27 21 13.89 20.73 13.75 20.32L9.3 7.13L7.55 12.32C7.41 12.73 7.03 13 6.6 13H3C2.45 13 2 12.55 2 12C2 11.45 2.45 11 3 11H5.88L8.35 3.68C8.49 3.27 8.87 3 9.3 3Z" />
</svg>
