<svg class="fill-current stroke-current w-full h-full" style="color: inherit" stroke-width="0.2" width="24" height="24" viewBox="0 0 24 24" stroke="none" xmlns="http://www.w3.org/2000/svg">
<path d="M5 15.8571C5 19.8061 8.13 23 12 23C15.87 23 19 19.8061 19 15.8571V11.7755H5V15.8571ZM16.12 3.9898L18.22 1.84694L17.4 1L15.1 3.35714C14.16 2.87755 13.12 2.59184 12 2.59184C10.88 2.59184 9.84 2.87755 8.91 3.35714L6.6 1L5.78 1.84694L7.88 3.9898C6.14 5.28571 5 7.36735 5 9.73469V10.7551H19V9.73469C19 7.36735 17.86 5.28571 16.12 3.9898ZM9 8.71429C8.45 8.71429 8 8.2551 8 7.69388C8 7.13265 8.45 6.67347 9 6.67347C9.55 6.67347 10 7.13265 10 7.69388C10 8.2551 9.55 8.71429 9 8.71429ZM15 8.71429C14.45 8.71429 14 8.2551 14 7.69388C14 7.13265 14.45 6.67347 15 6.67347C15.55 6.67347 16 7.13265 16 7.69388C16 8.2551 15.55 8.71429 15 8.71429Z" />
</svg>
