<svg class="fill-current stroke-current w-full h-full" style="color: inherit" stroke-width="0.2" width="24" height="24" viewBox="0 0 24 24" stroke="none" xmlns="http://www.w3.org/2000/svg">
<path d="M11.2026 23C9.78795 23 8.46275 22.7344 7.227 22.2032C5.99126 21.6719 4.9103 20.9436 3.98411 20.0181C3.05793 19.0926 2.32904 18.013 1.79742 16.7795C1.26581 15.5459 1 14.2223 1 12.8087C1 11.3951 1.26662 10.069 1.79986 8.8303C2.33312 7.59163 3.05957 6.5134 3.97921 5.59561C4.89883 4.67782 5.98026 3.95124 7.22348 3.41587C8.4667 2.88049 9.79024 2.6128 11.1941 2.6128C11.969 2.6128 12.7207 2.69679 13.4493 2.86478C14.1779 3.03277 14.8646 3.27103 15.5093 3.57959C15.3788 3.77352 15.2849 3.98236 15.2279 4.20611C15.1708 4.42987 15.1422 4.6752 15.1422 4.9421C15.1422 5.05056 15.1461 5.15735 15.1539 5.26248C15.1617 5.3676 15.1731 5.47755 15.1882 5.59234C14.5935 5.26134 13.9636 5.00907 13.2986 4.83554C12.6335 4.66203 11.932 4.57528 11.1941 4.57528C8.90282 4.57528 6.95598 5.37229 5.3536 6.96631C3.7512 8.56034 2.95 10.5046 2.95 12.799C2.95 15.0934 3.75235 17.0424 5.35705 18.646C6.96174 20.2496 8.90905 21.0514 11.199 21.0514C13.4889 21.0514 15.4346 20.2514 17.036 18.6512C18.6375 17.0511 19.4382 15.1051 19.4382 12.8133C19.4382 12.2455 19.3818 11.6879 19.2691 11.1405C19.1564 10.5931 18.9955 10.0755 18.7864 9.58786C18.9756 9.67197 19.1793 9.73702 19.3976 9.78302C19.6159 9.82901 19.8353 9.85201 20.0557 9.85201C20.212 9.85201 20.3577 9.84275 20.4929 9.82422C20.6282 9.80567 20.7646 9.76503 20.9023 9.70229C21.056 10.1957 21.1777 10.7007 21.2675 11.2175C21.3572 11.7342 21.4021 12.2662 21.4021 12.8133C21.4021 14.2162 21.1342 15.5388 20.5985 16.7811C20.0627 18.0234 19.3356 19.104 18.4171 20.023C17.4987 20.9419 16.4203 21.6679 15.182 22.2007C13.9437 22.7336 12.6172 23 11.2026 23ZM14.7029 11.5931C15.1065 11.5931 15.4432 11.4599 15.7128 11.1935C15.9824 10.9271 16.1172 10.5901 16.1172 10.1827C16.1172 9.77525 15.9839 9.43789 15.7173 9.17061C15.4507 8.90335 15.1136 8.76972 14.7058 8.76972C14.3021 8.76972 13.9678 8.90291 13.703 9.16931C13.4381 9.43573 13.3057 9.77266 13.3057 10.1801C13.3057 10.5875 13.4376 10.9249 13.7016 11.1922C13.9655 11.4595 14.2993 11.5931 14.7029 11.5931ZM7.68241 11.5931C8.08614 11.5931 8.42042 11.4599 8.68526 11.1935C8.9501 10.9271 9.08253 10.5901 9.08253 10.1827C9.08253 9.77525 8.95057 9.43789 8.68666 9.17061C8.42273 8.90335 8.08895 8.76972 7.68532 8.76972C7.28169 8.76972 6.94505 8.90291 6.67541 9.16931C6.40579 9.43573 6.27098 9.77266 6.27098 10.1801C6.27098 10.5875 6.40428 10.9249 6.67088 11.1922C6.93749 11.4595 7.27466 11.5931 7.68241 11.5931ZM11.1941 18.2002C12.305 18.2002 13.3228 17.8976 14.2475 17.2923C15.1722 16.6869 15.8304 15.8656 16.2221 14.8282H6.16609C6.57422 15.8533 7.23652 16.6715 8.15299 17.283C9.06948 17.8945 10.0832 18.2002 11.1941 18.2002ZM19.0807 5.91639H18.0865C17.8123 5.91639 17.5813 5.82209 17.3934 5.63349C17.2054 5.44488 17.1115 5.21298 17.1115 4.9378C17.1115 4.6626 17.2054 4.43213 17.3934 4.2464C17.5813 4.06068 17.8123 3.96781 18.0865 3.96781H19.0807V2.97429C19.0807 2.70032 19.1751 2.46945 19.3638 2.28167C19.5526 2.09389 19.7847 2 20.0601 2C20.3355 2 20.5661 2.09389 20.752 2.28167C20.9378 2.46945 21.0307 2.70032 21.0307 2.97429V3.96781H22.025C22.2992 3.96781 22.5302 4.06211 22.7181 4.25071C22.906 4.43932 23 4.67122 23 4.9464C23 5.2216 22.906 5.45207 22.7181 5.6378C22.5302 5.82352 22.2992 5.91639 22.025 5.91639H21.0307V6.90991C21.0307 7.18388 20.9364 7.41475 20.7476 7.60253C20.5589 7.79031 20.3268 7.8842 20.0514 7.8842C19.776 7.8842 19.5454 7.79031 19.3595 7.60253C19.1737 7.41475 19.0807 7.18388 19.0807 6.90991V5.91639Z" />
</svg>
