<svg class="fill-current stroke-current w-full h-full" style="color: inherit" stroke-width="0.2" width="24" height="24" viewBox="0 0 24 24" stroke="none" xmlns="http://www.w3.org/2000/svg">
<path d="M13.1078 10C13.6632 10 14.1176 9.55 14.1176 9V7H16.1372C16.6926 7 17.147 6.55 17.147 6C17.147 5.45 16.6926 5 16.1372 5H14.1176V3C14.1176 2.45 13.6632 2 13.1078 2C12.5524 2 12.098 2.45 12.098 3V5H10.0784C9.52302 5 9.0686 5.45 9.0686 6C9.0686 6.55 9.52302 7 10.0784 7H12.098V9C12.098 9.55 12.5524 10 13.1078 10ZM8.0588 19C6.94802 19 6.0493 19.9 6.0493 21C6.0493 22.1 6.94802 23 8.0588 23C9.16958 23 10.0784 22.1 10.0784 21C10.0784 19.9 9.16958 19 8.0588 19ZM18.1568 19C17.046 19 16.1473 19.9 16.1473 21C16.1473 22.1 17.046 23 18.1568 23C19.2676 23 20.1764 22.1 20.1764 21C20.1764 19.9 19.2676 19 18.1568 19ZM9.16959 14H16.6926C17.45 14 18.1164 13.59 18.4598 12.97L21.8729 6.84C22.1455 6.36 21.9638 5.75 21.4791 5.48C20.9944 5.22 20.3784 5.39 20.1158 5.87L16.6926 12H9.6038L5.57469 3.57C5.41313 3.22 5.0496 3 4.66587 3H3.0098C2.45441 3 2 3.45 2 4C2 4.55 2.45441 5 3.0098 5H4.0196L7.65488 12.59L6.29165 15.03C5.5545 16.37 6.52391 18 8.0588 18H19.1666C19.722 18 20.1764 17.55 20.1764 17C20.1764 16.45 19.722 16 19.1666 16H8.0588L9.16959 14Z" />
</svg>
