<svg class="fill-current stroke-current w-full h-full" style="color: inherit" stroke-width="0.2" width="24" height="24" viewBox="0 0 24 24" stroke="none" xmlns="http://www.w3.org/2000/svg">
<path d="M18.9509 1.01L8.70529 1C7.57827 1 6.65617 1.9 6.65617 3V6C6.65617 6.55 7.11722 7 7.68073 7C8.24424 7 8.70529 6.55 8.70529 6V5H18.9509V19H8.70529V18C8.70529 17.45 8.24424 17 7.68073 17C7.11722 17 6.65617 17.45 6.65617 18V21C6.65617 22.1 7.57827 23 8.70529 23H18.9509C20.0779 23 21 22.1 21 21V3C21 1.9 20.0779 1.01 18.9509 1.01ZM11.779 15C12.3425 15 12.8035 14.55 12.8035 14V9C12.8035 8.45 12.3425 8 11.779 8H6.65617C6.09266 8 5.63161 8.45 5.63161 9C5.63161 9.55 6.09266 10 6.65617 10H9.30978L4.29968 14.89C3.90011 15.28 3.90011 15.91 4.29968 16.3C4.69926 16.69 5.34473 16.69 5.74431 16.3L10.7544 11.41V14C10.7544 14.55 11.2155 15 11.779 15Z" />
</svg>
