<svg class="fill-current stroke-current w-full h-full" style="color: inherit" stroke-width="0.2" width="24" height="24" viewBox="0 0 24 24" stroke="none" xmlns="http://www.w3.org/2000/svg">
<path d="M21 3H3C1.89 3 1 3.89 1 5V17C1 18.1 1.89 19 3 19H8V21H16V19H21C22.1 19 23 18.1 23 17V5C23 3.89 22.1 3 21 3ZM21 17H3V5H21V17ZM16 11C16 11.55 15.55 12 15 12H13V14C13 14.55 12.55 15 12 15C11.45 15 11 14.55 11 14V12H9C8.45 12 8 11.55 8 11C8 10.45 8.45 10 9 10H11V8C11 7.45 11.45 7 12 7C12.55 7 13 7.45 13 8V10H15C15.55 10 16 10.45 16 11Z" />
</svg>
