<svg class="fill-current stroke-current w-full h-full" style="color: inherit" stroke-width="0.2" width="24" height="24" viewBox="0 0 24 24" stroke="none" xmlns="http://www.w3.org/2000/svg">
<path d="M20 2H8C6.9 2 6 2.9 6 4V16C6 17.1 6.9 18 8 18H20C21.1 18 22 17.1 22 16V4C22 2.9 21.1 2 20 2ZM20 16H8V4H20V16ZM9 10C9 9.45 9.45 9 10 9H13V6C13 5.45 13.45 5 14 5C14.55 5 15 5.45 15 6V9H18C18.55 9 19 9.45 19 10C19 10.55 18.55 11 18 11H15V14C15 14.55 14.55 15 14 15C13.45 15 13 14.55 13 14V11H10C9.45 11 9 10.55 9 10ZM18 21C18 21.55 17.55 22 17 22H3C2.45 22 2 21.55 2 21V7C2 6.45 2.45 6 3 6C3.55 6 4 6.45 4 7V20H17C17.55 20 18 20.45 18 21Z" />
</svg>
