<svg class="fill-current stroke-current w-full h-full" style="color: inherit" stroke-width="0.2" width="24" height="24" viewBox="0 0 24 24" stroke="none" xmlns="http://www.w3.org/2000/svg">
<path d="M22 14.4799C22 15.1732 21.3364 15.6684 20.6728 15.4803L17.5528 14.5591L10.6096 7.61595V3.4857C10.6096 2.66361 11.2732 2 12.0953 2C12.9174 2 13.581 2.66361 13.581 3.4857V8.93327L21.485 13.5885C21.8019 13.7667 22 14.1134 22 14.4799ZM13.581 13.3904L9.67859 9.48793L3.68627 3.4956C3.29999 3.10932 2.67599 3.10932 2.28971 3.4956C1.90343 3.88189 1.90343 4.50588 2.28971 4.89216L7.90566 10.5081L2.70571 13.5885C2.38876 13.7667 2.19066 14.1134 2.19066 14.4799C2.19066 15.1732 2.85428 15.6684 3.51789 15.4803L10.6096 13.4003V18.8379L8.37118 20.1751C8.22261 20.2642 8.13347 20.4326 8.13347 20.601V21.0962V21.1754C8.13347 21.5023 8.44051 21.74 8.74755 21.6608L11.6397 20.9377L12.0953 20.8189L12.4717 20.908L12.8877 21.017L14.7696 21.4924L15.4332 21.6608C15.7502 21.74 16.0473 21.5023 16.0473 21.1754V20.809V20.601C16.0473 20.4227 15.9582 20.2642 15.8096 20.1751L13.581 18.8379V16.1934L19.0979 21.7103C19.4842 22.0966 20.1082 22.0966 20.4945 21.7103C20.8808 21.324 20.8808 20.7 20.4945 20.3137L13.581 13.3904Z" />
</svg>
