<svg class="fill-current stroke-current w-full h-full" style="color: inherit" stroke-width="0.2" width="24" height="24" viewBox="0 0 24 24" stroke="none" xmlns="http://www.w3.org/2000/svg">
<path d="M21.48 13.7792L13.5 9.0474V3.51016C13.5 2.67454 12.83 2 12 2C11.17 2 10.5 2.67454 10.5 3.51016V9.0474L2.52 13.7792C2.2 13.9604 2 14.3128 2 14.6853C2 15.3901 2.67 15.8934 3.34 15.7022L10.5 13.5879V19.1151L8.24 20.4743C8.09 20.5649 8 20.736 8 20.9072V21.4106V21.4911C8 21.8233 8.31 22.065 8.62 21.9844L11.54 21.2495L12 21.1287L12.38 21.2193L12.8 21.33L14.7 21.8133L15.37 21.9844C15.69 22.065 15.99 21.8233 15.99 21.4911V21.1186V20.9072C15.99 20.726 15.9 20.5649 15.75 20.4743L13.5 19.1151V13.5779L20.66 15.6921C21.33 15.8934 22 15.3901 22 14.6853C22 14.3128 21.8 13.9604 21.48 13.7792Z" />
</svg>
