<svg class="fill-current stroke-current w-full h-full" style="color: inherit" stroke-width="0.2" width="24" height="24" viewBox="0 0 24 24" stroke="none" xmlns="http://www.w3.org/2000/svg">
<path d="M10.1125 11.2875H12.5946L9.0838 15.3928C8.56473 16.0062 8.99886 16.95 9.80105 16.95H13.8875C14.4066 16.95 14.8313 16.5253 14.8313 16.0062C14.8313 15.4872 14.4066 15.0625 13.8875 15.0625H11.4054L14.9162 10.9572C15.4353 10.3437 15.0011 9.39996 14.1989 9.39996H10.1125C9.59343 9.39996 9.16874 9.82465 9.16874 10.3437C9.16874 10.8628 9.59343 11.2875 10.1125 11.2875ZM20.7769 6.96508C20.4466 7.36146 19.852 7.41808 19.4462 7.08777L16.5489 4.67176C16.1525 4.33201 16.0959 3.73744 16.4356 3.34106C16.766 2.94469 17.3605 2.88806 17.7663 3.21838L20.6637 5.63439C21.06 5.97414 21.1167 6.5687 20.7769 6.96508ZM3.22309 6.96508C3.5534 7.37089 4.14797 7.41808 4.54434 7.08777L7.44167 4.67176C7.84748 4.33201 7.90411 3.73744 7.56436 3.34106C7.23404 2.93525 6.63948 2.88806 6.2431 3.21838L3.33634 5.63439C2.93996 5.97414 2.88334 6.5687 3.22309 6.96508ZM12 6.5687C15.6429 6.5687 18.6063 9.53209 18.6063 13.175C18.6063 16.8179 15.6429 19.7813 12 19.7813C8.35711 19.7813 5.39372 16.8179 5.39372 13.175C5.39372 9.53209 8.35711 6.5687 12 6.5687ZM12 4.68119C7.30954 4.68119 3.50621 8.48452 3.50621 13.175C3.50621 17.8654 7.30954 21.6688 12 21.6688C16.6905 21.6688 20.4938 17.8654 20.4938 13.175C20.4938 8.48452 16.6905 4.68119 12 4.68119Z" />
</svg>
