<svg class="fill-current stroke-current w-full h-full" style="color: inherit" stroke-width="0.2" width="24" height="24" viewBox="0 0 24 24" stroke="none" xmlns="http://www.w3.org/2000/svg">
<path d="M20.6637 5.63439L17.7569 3.21838C17.3605 2.88806 16.766 2.93525 16.4262 3.34106C16.0959 3.73744 16.1525 4.33201 16.5489 4.67176L19.4462 7.08777C19.8426 7.41808 20.4372 7.37089 20.7769 6.96508C21.1167 6.5687 21.06 5.97414 20.6637 5.63439ZM4.54434 7.08777L7.44167 4.67176C7.84748 4.33201 7.90411 3.73744 7.56436 3.34106C7.23404 2.93525 6.63948 2.88806 6.2431 3.21838L3.33634 5.63439C2.93996 5.97414 2.88334 6.5687 3.22309 6.96508C3.5534 7.37089 4.14797 7.41808 4.54434 7.08777ZM12 4.68119C7.30954 4.68119 3.50621 8.48452 3.50621 13.175C3.50621 17.8654 7.30954 21.6688 12 21.6688C16.6905 21.6688 20.4938 17.8654 20.4938 13.175C20.4938 8.48452 16.6905 4.68119 12 4.68119ZM12 19.7813C8.35711 19.7813 5.39372 16.8179 5.39372 13.175C5.39372 9.53209 8.35711 6.5687 12 6.5687C15.6429 6.5687 18.6063 9.53209 18.6063 13.175C18.6063 16.8179 15.6429 19.7813 12 19.7813ZM14.8313 12.2312H12.9438V10.3437C12.9438 9.82465 12.5191 9.39996 12 9.39996C11.4809 9.39996 11.0562 9.82465 11.0562 10.3437V12.2312H9.16874C8.64967 12.2312 8.22498 12.6559 8.22498 13.175C8.22498 13.694 8.64967 14.1187 9.16874 14.1187H11.0562V16.0062C11.0562 16.5253 11.4809 16.95 12 16.95C12.5191 16.95 12.9438 16.5253 12.9438 16.0062V14.1187H14.8313C15.3503 14.1187 15.775 13.694 15.775 13.175C15.775 12.6559 15.3503 12.2312 14.8313 12.2312Z" />
</svg>
