<svg class="fill-current stroke-current w-full h-full" style="color: inherit" stroke-width="0.2" width="24" height="24" viewBox="0 0 24 24" stroke="none" xmlns="http://www.w3.org/2000/svg">
<path d="M10.3989 6.75722C10.97 6.59142 11.5779 6.4901 12.2043 6.4901C15.7598 6.4901 18.6521 9.38241 18.6521 12.9379C18.6521 13.5643 18.5508 14.1722 18.385 14.7433L19.8219 16.1803C20.2548 15.1854 20.4943 14.0893 20.4943 12.9379C20.4943 8.35997 16.7822 4.64786 12.2043 4.64786C11.0529 4.64786 9.95674 4.88735 8.95272 5.31107L10.3989 6.75722ZM4.5682 3.53331C4.21818 3.18329 3.64708 3.18329 3.28785 3.53331L3.26943 3.56095C2.91019 3.92018 2.91019 4.49127 3.26943 4.8413L3.89579 5.46766L3.7392 5.59662C3.35233 5.9098 3.30627 6.48089 3.61945 6.86776L3.64709 6.89539C3.96948 7.28226 4.53136 7.32832 4.91823 7.00592L5.20377 6.77565L5.94067 7.51254C4.67874 8.9679 3.91421 10.8654 3.91421 12.9379C3.91421 17.5159 7.62631 21.228 12.2043 21.228C14.2768 21.228 16.1743 20.4634 17.6296 19.2015L18.9284 20.5003C19.2784 20.8503 19.8495 20.8503 20.2088 20.5003L20.2364 20.4727C20.5864 20.1226 20.5864 19.5515 20.2364 19.1923L4.5682 3.53331ZM12.2043 19.3857C8.64875 19.3857 5.75644 16.4934 5.75644 12.9379C5.75644 11.372 6.31832 9.93508 7.24865 8.82053L16.3217 17.8935C15.2071 18.8239 13.7702 19.3857 12.2043 19.3857ZM19.4903 7.00592C19.8772 7.32832 20.4391 7.27305 20.7614 6.89539L20.7891 6.86776C21.1115 6.48089 21.0562 5.91901 20.6785 5.59662L17.8231 3.21092C17.4362 2.88853 16.8743 2.9438 16.5519 3.32146L16.5243 3.34909C16.2019 3.73596 16.2572 4.29784 16.6348 4.62023L19.4903 7.00592ZM7.99476 4.35311C8.16056 4.03993 8.13293 3.64385 7.89344 3.34909L7.8658 3.32146C7.58947 2.98985 7.12891 2.92537 6.76046 3.11881L7.99476 4.35311Z" />
</svg>
