<svg class="fill-current stroke-current w-full h-full" style="color: inherit" stroke-width="0.2" width="24" height="24" viewBox="0 0 24 24" stroke="none" xmlns="http://www.w3.org/2000/svg">
<path d="M21.0079 11H17.0397V7.5C17.0397 6.67 16.375 6 15.5516 6C14.7282 6 14.0635 6.67 14.0635 7.5V11H10.0952V4.5C10.0952 3.67 9.43056 3 8.60714 3C7.78373 3 7.11905 3.67 7.11905 4.5V11H2.99206C2.44643 11 2 11.45 2 12C2 12.55 2.44643 13 2.99206 13H7.11905V19.5C7.11905 20.33 7.78373 21 8.60714 21C9.43056 21 10.0952 20.33 10.0952 19.5V13H14.0635V16.5C14.0635 17.33 14.7282 18 15.5516 18C16.375 18 17.0397 17.33 17.0397 16.5V13H21.0079C21.5536 13 22 12.55 22 12C22 11.45 21.5536 11 21.0079 11Z" />
</svg>
