<svg class="fill-current stroke-current w-full h-full" style="color: inherit" stroke-width="0.2" width="24" height="24" viewBox="0 0 24 24" stroke="none" xmlns="http://www.w3.org/2000/svg">
<path d="M19 17H11C10.45 17 10 17.45 10 18C10 18.55 10.45 19 11 19H19C19.55 19 20 18.55 20 18C20 17.45 19.55 17 19 17ZM19 9H5C4.45 9 4 9.45 4 10C4 10.55 4.45 11 5 11H19C19.55 11 20 10.55 20 10C20 9.45 19.55 9 19 9ZM5 15H19C19.55 15 20 14.55 20 14C20 13.45 19.55 13 19 13H5C4.45 13 4 13.45 4 14C4 14.55 4.45 15 5 15ZM4 6C4 6.55 4.45 7 5 7H19C19.55 7 20 6.55 20 6C20 5.45 19.55 5 19 5H5C4.45 5 4 5.45 4 6Z" />
</svg>
