<svg class="fill-current stroke-current w-full h-full" style="color: inherit" stroke-width="0.2" width="24" height="24" viewBox="0 0 24 24" stroke="none" xmlns="http://www.w3.org/2000/svg">
<path d="M20.2292 7.24535C18.2283 6.63197 16.1673 7.20446 14.8367 8.56413L12.0055 11.1301L10.4848 12.5H10.4948L7.80354 14.9433C6.99318 15.7714 5.85266 16.119 4.68213 15.8838C3.43156 15.6283 2.40109 14.6059 2.11096 13.3383C1.59072 11.0586 3.27149 9.04461 5.40245 9.04461C6.31287 9.04461 7.16325 9.40242 7.84356 10.0976L8.31378 10.5167C8.69395 10.8643 9.26421 10.8643 9.64438 10.5167C10.0946 10.1078 10.0946 9.39219 9.64438 8.98327L9.22419 8.61524C8.20373 7.57249 6.84311 7 5.40245 7C2.4211 7 0 9.47398 0 12.5C0 15.526 2.4211 18 5.40245 18C6.84311 18 8.20373 17.4275 9.17417 16.4359L12.0055 13.8801L12.0155 13.8903L13.5261 12.5H13.5161L16.2074 10.0567C17.0177 9.22862 18.1582 8.88104 19.3288 9.11617C20.5793 9.37175 21.6098 10.3941 21.8999 11.6617C22.4202 13.9415 20.7394 15.9554 18.6085 15.9554C17.708 15.9554 16.8477 15.5976 16.1673 14.9024L15.6871 14.473C15.307 14.1255 14.7367 14.1255 14.3565 14.473C13.9063 14.882 13.9063 15.5976 14.3565 16.0065L14.7767 16.3848C15.7972 17.4173 17.1478 17.9898 18.5984 17.9898C21.8699 17.9898 24.4611 15.0251 23.9309 11.6004C23.6307 9.56599 22.1601 7.82807 20.2292 7.24535V7.24535Z" />
</svg>
