<svg class="fill-current stroke-current w-full h-full" style="color: inherit" stroke-width="0.2" width="24" height="24" viewBox="0 0 24 24" stroke="none" xmlns="http://www.w3.org/2000/svg">
<path d="M11 8C12.1 8 13 7.1 13 6C13 4.9 12.1 4 11 4C9.9 4 9 4.9 9 6C9 7.1 9.9 8 11 8ZM5 20C6.1 20 7 19.1 7 18C7 16.9 6.1 16 5 16C3.9 16 3 16.9 3 18C3 19.1 3.9 20 5 20ZM5 14C6.1 14 7 13.1 7 12C7 10.9 6.1 10 5 10C3.9 10 3 10.9 3 12C3 13.1 3.9 14 5 14ZM5 8C6.1 8 7 7.1 7 6C7 4.9 6.1 4 5 4C3.9 4 3 4.9 3 6C3 7.1 3.9 8 5 8ZM17 8C18.1 8 19 7.1 19 6C19 4.9 18.1 4 17 4C15.9 4 15 4.9 15 6C15 7.1 15.9 8 17 8ZM10 18.07V19.5C10 19.78 10.22 20 10.5 20H11.9C12.03 20 12.16 19.95 12.25 19.85L18.08 14.02L15.96 11.9L10.15 17.71C10.05 17.81 10 17.94 10 18.07V18.07ZM11.03 14L13 12.03V12C13 10.9 12.1 10 11 10C9.9 10 9 10.9 9 12C9 13.1 9.9 14 11 14H11.03ZM19.85 11.56L18.44 10.15C18.24 9.95 17.93 9.95 17.73 10.15L16.67 11.21L18.79 13.33L19.85 12.27C20.05 12.07 20.05 11.76 19.85 11.56V11.56Z" />
</svg>
