<svg class="fill-current stroke-current w-full h-full" style="color: inherit" stroke-width="0.2" width="24" height="24" viewBox="0 0 24 24" stroke="none" xmlns="http://www.w3.org/2000/svg">
<path d="M5 4H7C7.55 4 8 4.45 8 5V7C8 7.55 7.55 8 7 8H5C4.45 8 4 7.55 4 7V5C4 4.45 4.45 4 5 4ZM11 4H13C13.55 4 14 4.45 14 5V7C14 7.55 13.55 8 13 8H11C10.45 8 10 7.55 10 7V5C10 4.45 10.45 4 11 4ZM17 4H19C19.55 4 20 4.45 20 5V7C20 7.55 19.55 8 19 8H17C16.45 8 16 7.55 16 7V5C16 4.45 16.45 4 17 4ZM5 10H7C7.55 10 8 10.45 8 11V13C8 13.55 7.55 14 7 14H5C4.45 14 4 13.55 4 13V11C4 10.45 4.45 10 5 10ZM11 10H13C13.55 10 14 10.45 14 11V13C14 13.55 13.55 14 13 14H11C10.45 14 10 13.55 10 13V11C10 10.45 10.45 10 11 10ZM17 10H19C19.55 10 20 10.45 20 11V13C20 13.55 19.55 14 19 14H17C16.45 14 16 13.55 16 13V11C16 10.45 16.45 10 17 10ZM5 16H7C7.55 16 8 16.45 8 17V19C8 19.55 7.55 20 7 20H5C4.45 20 4 19.55 4 19V17C4 16.45 4.45 16 5 16ZM11 16H13C13.55 16 14 16.45 14 17V19C14 19.55 13.55 20 13 20H11C10.45 20 10 19.55 10 19V17C10 16.45 10.45 16 11 16ZM17 16H19C19.55 16 20 16.45 20 17V19C20 19.55 19.55 20 19 20H17C16.45 20 16 19.55 16 19V17C16 16.45 16.45 16 17 16Z" />
</svg>
