<svg class="fill-current stroke-current w-full h-full" style="color: inherit" stroke-width="0.2" width="24" height="24" viewBox="0 0 24 24" stroke="none" xmlns="http://www.w3.org/2000/svg">
<path d="M20.8452 12.74L20.0234 12.11V11.89L20.8251 11.26C20.9855 11.14 21.0255 10.92 20.9253 10.75L20.0735 9.27C20.0034 9.14 19.8631 9.07 19.7228 9.07C19.6727 9.07 19.6226 9.08 19.5725 9.1L18.6205 9.48C18.5403 9.43 18.5103 9.41 18.4301 9.37L18.2798 8.36C18.2497 8.15 18.0794 8 17.879 8H16.1654C15.965 8 15.7946 8.15 15.7646 8.34L15.6243 9.35C15.6243 9.35 15.5541 9.38 15.5241 9.4C15.494 9.42 15.4639 9.44 15.4339 9.46L14.4819 9.08C14.4318 9.06 14.3817 9.05 14.3316 9.05C14.1913 9.05 14.061 9.12 13.9808 9.25L13.1291 10.73C13.0288 10.9 13.0689 11.12 13.2293 11.24L14.0309 11.87V12.1L13.2293 12.73C13.0689 12.85 13.0288 13.07 13.1291 13.24L13.9808 14.72C14.051 14.85 14.1913 14.92 14.3316 14.92C14.3817 14.92 14.4318 14.91 14.4819 14.89L15.4339 14.52C15.514 14.57 15.5541 14.59 15.6343 14.63L15.7846 15.64C15.8147 15.84 15.985 15.98 16.1854 15.98H17.899C18.0994 15.98 18.2698 15.83 18.2998 15.64L18.4502 14.63C18.4502 14.63 18.5203 14.6 18.5504 14.58C18.5804 14.56 18.6105 14.54 18.6406 14.52L19.5925 14.9C19.6426 14.92 19.6928 14.93 19.7429 14.93C19.8831 14.93 20.0134 14.86 20.0936 14.73L20.9454 13.25C21.0456 13.08 21.0055 12.86 20.8452 12.74ZM17.0272 13.5C16.1955 13.5 15.5241 12.83 15.5241 12C15.5241 11.17 16.1955 10.5 17.0272 10.5C17.8589 10.5 18.5303 11.17 18.5303 12C18.5303 12.83 17.8589 13.5 17.0272 13.5ZM16.0251 18H6.00418V6H16.0251V7H18.0293V3C18.0293 1.9 17.1274 1 16.0251 1H6.00418C4.90188 1 4 1.9 4 3V21C4 22.1 4.90188 23 6.00418 23H16.0251C17.1274 23 18.0293 22.1 18.0293 21V17H16.0251V18ZM6.00418 3H16.0251V4H6.00418V3ZM16.0251 21H6.00418V20H16.0251V21Z" />
</svg>
