<svg class="fill-current stroke-current w-full h-full" style="color: inherit" stroke-width="0.2" width="24" height="24" viewBox="0 0 24 24" stroke="none" xmlns="http://www.w3.org/2000/svg">
<path d="M6 18.78L6.26572 21L7.9876 19.46L10.9318 11.86C10.209 11.69 9.5713 11.35 9.05049 10.88L6 18.78ZM14.9389 10.88C14.4181 11.35 13.7697 11.69 13.0576 11.86L16.0018 19.46L17.7236 21L18 18.78L14.9389 10.88ZM15.1196 8.6C15.4384 7.04 14.4818 5.66 13.0576 5.18V4C13.0576 3.45 12.5793 3 11.9947 3C11.4101 3 10.9318 3.45 10.9318 4V5.18C9.69885 5.6 8.80602 6.7 8.80602 8C8.80602 9.84 10.5704 11.3 12.5899 10.95C13.8441 10.73 14.8751 9.78 15.1196 8.6ZM11.9947 9C11.4101 9 10.9318 8.55 10.9318 8C10.9318 7.45 11.4101 7 11.9947 7C12.5793 7 13.0576 7.45 13.0576 8C13.0576 8.55 12.5793 9 11.9947 9Z" />
</svg>
