<svg class="fill-current stroke-current w-full h-full" style="color: inherit" stroke-width="0.2" width="24" height="24" viewBox="0 0 24 24" stroke="none" xmlns="http://www.w3.org/2000/svg">
<path d="M19.005 10.9958H7.415L12.715 5.7033C13.105 5.31312 13.105 4.68282 12.715 4.29264C12.325 3.90245 11.695 3.90245 11.305 4.29264L4.295 11.2859C4.205 11.376 4.125 11.486 4.075 11.6161C3.975 11.8562 3.975 12.1363 4.075 12.3764C4.125 12.4965 4.195 12.6065 4.295 12.7066L11.295 19.7099C11.495 19.91 11.745 20 12.005 20C12.265 20 12.515 19.9 12.715 19.7099C13.105 19.3197 13.105 18.6894 12.715 18.2992L7.415 12.9967H19.005C19.555 12.9967 20.005 12.5465 20.005 11.9962C20.005 11.446 19.555 10.9958 19.005 10.9958Z" />
</svg>
