<svg class="fill-current stroke-current w-full h-full" style="color: inherit" stroke-width="0.2" width="24" height="24" viewBox="0 0 24 24" stroke="none" xmlns="http://www.w3.org/2000/svg">
<path d="M4.30241 12.71C4.69228 13.1 5.32209 13.1 5.71197 12.71L11.0003 7.42L11.0003 19C11.0003 19.55 11.4502 20 12 20C12.5498 20 12.9997 19.55 12.9997 19L12.9997 7.41L18.298 12.71C18.6879 13.1 19.3177 13.1 19.7076 12.71C20.0975 12.32 20.0975 11.69 19.7076 11.3L12.7098 4.3C12.6198 4.21 12.5098 4.13 12.3799 4.08C12.2599 4.03 12.13 4 12 4C11.87 4 11.7401 4.03 11.6201 4.08C11.5002 4.13 11.3902 4.2 11.2902 4.3L4.29241 11.3C3.90253 11.69 3.90253 12.32 4.29241 12.71L4.30241 12.71Z" />
</svg>
