<svg class="fill-current stroke-current w-full h-full" style="color: inherit" stroke-width="0.2" width="24" height="24" viewBox="0 0 24 24" stroke="none" xmlns="http://www.w3.org/2000/svg">
<path d="M9.41 8H17C17.55 8 18 7.55 18 7C18 6.45 17.55 6 17 6H7C6.87 6 6.74 6.03 6.62 6.08C6.37 6.18 6.18 6.37 6.08 6.62C6.03 6.74 6 6.87 6 7V17C6 17.55 6.45 18 7 18C7.55 18 8 17.55 8 17V9.41L16.29 17.71C16.49 17.91 16.74 18 17 18C17.26 18 17.51 17.9 17.71 17.71C18.1 17.32 18.1 16.69 17.71 16.3L9.41 8Z" />
</svg>
