<svg class="fill-current stroke-current w-full h-full" style="color: inherit" stroke-width="0.2" width="24" height="24" viewBox="0 0 24 24" stroke="none" xmlns="http://www.w3.org/2000/svg">
<path d="M18.0025 7.0025C18.0025 6.4525 17.5525 6.0025 17.0025 6.0025C16.4525 6.0025 16.0025 6.4525 16.0025 7.0025V14.5925L7.7125 6.2925C7.3225 5.9025 6.6825 5.9025 6.2925 6.2925C5.9025 6.6825 5.9025 7.3225 6.2925 7.7125L14.5925 16.0025H7.0025C6.4525 16.0025 6.0025 16.4525 6.0025 17.0025C6.0025 17.5525 6.4525 18.0025 7.0025 18.0025H17.0025C17.1325 18.0025 17.2625 17.9725 17.3825 17.9225C17.6225 17.8225 17.8225 17.6225 17.9225 17.3825C17.9725 17.2625 18.0025 17.1325 18.0025 17.0025V7.0025Z" />
</svg>
