<svg class="fill-current stroke-current w-full h-full" style="color: inherit" stroke-width="0.2" width="24" height="24" viewBox="0 0 24 24" stroke="none" xmlns="http://www.w3.org/2000/svg">
<path d="M19.6976 11.29C19.3077 10.9 18.6779 10.9 18.288 11.29L12.9997 16.58V5C12.9997 4.45 12.5498 4 12 4C11.4502 4 11.0003 4.45 11.0003 5V16.59L5.70197 11.29C5.31209 10.9 4.68229 10.9 4.29241 11.29C3.90253 11.68 3.90253 12.31 4.29241 12.7L11.2902 19.7C11.3802 19.79 11.4902 19.87 11.6201 19.92C11.7401 19.97 11.87 20 12 20C12.13 20 12.2599 19.97 12.3799 19.92C12.4998 19.87 12.6098 19.8 12.7098 19.7L19.7076 12.7C20.0975 12.31 20.0975 11.68 19.7076 11.29H19.6976Z" />
</svg>
