<svg class="fill-current stroke-current w-full h-full" style="color: inherit" stroke-width="0.2" width="24" height="24" viewBox="0 0 24 24" stroke="none" xmlns="http://www.w3.org/2000/svg">
<path d="M16.3112 14.2645L12.969 18.2376V5.74918L16.3112 9.7223C16.5049 9.95416 16.7665 10.0595 17.0281 10.0595C17.2606 10.0595 17.4931 9.96469 17.6868 9.78554C18.084 9.3956 18.1034 8.72112 17.745 8.29957L12.7171 2.32407C12.349 1.89198 11.6515 1.89198 11.293 2.32407L6.25546 8.29957C5.89702 8.73166 5.9164 9.3956 6.31359 9.78554C6.71078 10.1755 7.3211 10.1544 7.67954 9.7223L11.0218 5.74918V18.2376L7.67954 14.2645C7.3211 13.8324 6.70109 13.8114 6.31359 14.2013C5.92608 14.5912 5.88733 15.2552 6.25546 15.6873L11.2833 21.6628C11.4674 21.8841 11.729 22 12.0002 22C12.2715 22 12.533 21.8735 12.7171 21.6628L17.745 15.6873C18.1034 15.2552 18.084 14.5912 17.6868 14.2013C17.2896 13.8114 16.6793 13.843 16.3209 14.2645H16.3112Z" />
</svg>
