<svg class="fill-current stroke-current w-full h-full" style="color: inherit" stroke-width="0.2" width="24" height="24" viewBox="0 0 24 24" stroke="none" xmlns="http://www.w3.org/2000/svg">
<path d="M19.925 12.3917C20.025 12.1514 20.025 11.8711 19.925 11.6308C19.875 11.5107 19.8049 11.4006 19.7049 11.3005L12.7127 4.29282C12.3226 3.90239 11.6924 3.90239 11.3023 4.29282C10.9122 4.68325 10.9122 5.31394 11.3023 5.70436L16.5939 11.0002H5.00031C4.45014 11.0002 4 11.4506 4 12.0013C4 12.5519 4.45014 13.0023 5.00031 13.0023H16.5939L11.3023 18.2981C10.9122 18.6886 10.9122 19.3193 11.3023 19.7097C11.5023 19.9099 11.7524 20 12.0125 20C12.2726 20 12.5227 19.8999 12.7227 19.7097L19.7249 12.702C19.8149 12.6119 19.895 12.5018 19.945 12.3717L19.925 12.3917Z" />
</svg>
