<svg class="fill-current stroke-current w-full h-full" style="color: inherit" stroke-width="0.2" width="24" height="24" viewBox="0 0 24 24" stroke="none" xmlns="http://www.w3.org/2000/svg">
<path d="M11.995 16H2.99098V6L10.9946 11L18.9982 6V8C18.9982 8.55 19.4484 9 19.9986 9C20.5489 9 20.9991 8.55 20.9991 8V4C20.9991 2.9 20.0987 2 18.9982 2H2.99098C1.89048 2 1.00008 2.9 1.00008 4V16C0.990078 17.1 1.89048 18 2.99098 18H11.995C12.5453 18 12.9955 17.55 12.9955 17C12.9955 16.45 12.5453 16 11.995 16ZM18.9982 4L10.9946 9L2.99098 4H18.9982ZM23 15V18C23 20.21 21.2092 22 18.9982 22C16.7872 22 14.9964 20.21 14.9964 18V13.5C14.9964 12.12 16.1169 11 17.4975 11C18.8781 11 19.9986 12.12 19.9986 13.5V17C19.9986 17.55 19.5484 18 18.9982 18C18.4479 18 17.9977 17.55 17.9977 17V13.5C17.9977 13.22 17.7776 13 17.4975 13C17.2174 13 16.9973 13.22 16.9973 13.5V18C16.9973 19.1 17.8977 20 18.9982 20C20.0987 20 20.9991 19.1 20.9991 18V15C20.9991 14.45 21.4493 14 21.9995 14C22.5498 14 23 14.45 23 15Z" />
</svg>
