<svg class="fill-current stroke-current w-full h-full" style="color: inherit" stroke-width="0.2" width="24" height="24" viewBox="0 0 24 24" stroke="none" xmlns="http://www.w3.org/2000/svg">
<path d="M20.7125 19.2909L16.2125 14.7933C16.1525 14.7033 16.0725 14.6433 15.9925 14.5734L13.8525 12.4345L9.8925 8.47659L3.7125 2.29984C3.3225 1.90005 2.6825 1.90005 2.2925 2.29984C1.9025 2.69963 1.9025 3.31931 2.2925 3.7091L8.1825 9.596V10.0058L6.5925 9.08627C6.2825 8.90636 5.9025 8.90636 5.5925 9.08627C5.2825 9.26618 5.0925 9.596 5.0925 9.95581V11.495C5.0925 12.7743 5.4525 14.0137 6.1625 15.0831C6.8725 16.1526 7.8725 16.9721 9.0625 17.4619C9.5325 17.6518 10.0125 17.7817 10.5025 17.8617V19.0011H8.4125C7.8625 19.0011 7.4125 19.4508 7.4125 20.0005C7.4125 20.5502 7.8625 21 8.4125 21H14.5925C15.1425 21 15.5925 20.5502 15.5925 20.0005C15.5925 19.4508 15.1425 19.0011 14.5925 19.0011H12.5025V17.8617C12.6025 17.8417 12.6925 17.8417 12.7925 17.8217C13.7025 17.6318 14.5525 17.252 15.2925 16.7123L19.2925 20.7102C19.4925 20.91 19.7425 21 20.0025 21C20.2625 21 20.5125 20.9001 20.7125 20.7102C21.1025 20.3204 21.1025 19.6907 20.7125 19.3009V19.2909ZM12.3925 15.8627C12.1525 15.9127 11.9025 15.9327 11.6625 15.9427C11.6125 15.9427 11.5625 15.9127 11.5125 15.9127C11.4725 15.9127 11.4325 15.9327 11.3825 15.9427C10.8525 15.9327 10.3225 15.8327 9.8225 15.6228C9.0125 15.283 8.3225 14.7233 7.8325 13.9837C7.3825 13.304 7.1325 12.5145 7.1025 11.6949L8.3225 12.3945C8.4125 12.7244 8.5625 13.0542 8.7525 13.344C9.1225 13.8937 9.6325 14.3135 10.2425 14.5634C10.6525 14.7333 11.0725 14.8133 11.5125 14.8133C11.7325 14.8133 11.9425 14.7933 12.1625 14.7533C12.2125 14.7433 12.2625 14.7233 12.3225 14.7133L13.5825 15.4429C13.2125 15.6428 12.8225 15.7827 12.4025 15.8627H12.3925ZM8.2525 4.6586C8.4125 3.84903 8.8725 3.1394 9.5325 2.64966C10.2025 2.15992 11.0225 1.94003 11.8325 2.01999C12.6525 2.09995 13.4125 2.48974 13.9625 3.09942C14.5125 3.7091 14.8225 4.49868 14.8225 5.32825V9.44608C14.8225 9.99579 14.3725 10.4456 13.8225 10.4456C13.2725 10.4456 12.8225 9.99579 12.8225 9.44608V5.31825C12.8225 4.98843 12.7025 4.67859 12.4825 4.42872C12.2625 4.18885 11.9625 4.02893 11.6325 3.99895C11.3125 3.96896 10.9825 4.05892 10.7125 4.24882C10.4525 4.43872 10.2725 4.72856 10.2025 5.0484C10.0925 5.58811 9.5725 5.93793 9.0225 5.82799C8.4825 5.71804 8.1325 5.18832 8.2425 4.64861L8.2525 4.6586ZM15.8425 12.2746C15.8925 12.0247 15.9125 11.7649 15.9125 11.505V9.95581C15.9125 9.4061 16.3625 8.95634 16.9125 8.95634C17.4625 8.95634 17.9125 9.4061 17.9125 9.95581V11.505C17.9125 11.8848 17.8825 12.2646 17.8125 12.6344C17.7225 13.1142 17.3025 13.454 16.8325 13.454C16.7725 13.454 16.7125 13.454 16.6525 13.434C16.1125 13.334 15.7525 12.8143 15.8425 12.2746Z" />
</svg>
