<svg class="fill-current stroke-current w-full h-full" style="color: inherit" stroke-width="0.2" width="24" height="24" viewBox="0 0 24 24" stroke="none" xmlns="http://www.w3.org/2000/svg">
<path d="M12.5 14.8024C13.4 14.8024 14.24 14.457 14.87 13.8352C15.49 13.2135 15.85 12.3648 15.85 11.4963V5.27892C15.85 4.41047 15.49 3.55188 14.87 2.94001C13.6 1.68666 11.39 1.68666 10.12 2.94001C9.49 3.56175 9.14 4.4006 9.14 5.27892V11.4864C9.14 12.3746 9.49 13.2036 10.12 13.8253C10.75 14.4471 11.6 14.7925 12.49 14.7925L12.5 14.8024ZM11.14 5.27892C11.14 4.92365 11.29 4.57824 11.54 4.33152C11.8 4.07493 12.14 3.93676 12.5 3.93676C12.86 3.93676 13.2 4.07493 13.46 4.33152C13.71 4.57824 13.86 4.92365 13.86 5.27892V11.4864C13.86 11.8417 13.71 12.1871 13.46 12.4338C12.95 12.9372 12.05 12.9372 11.54 12.4338C11.29 12.1871 11.14 11.8417 11.14 11.4864V5.27892ZM19 9.92715V11.4766C19 13.1937 18.32 14.8024 17.1 16.0162C16.11 16.9932 14.86 17.6051 13.5 17.8124V19.0262H15.64C16.19 19.0262 16.64 19.4703 16.64 20.0131C16.64 20.5559 16.19 21 15.64 21H9.36C8.81 21 8.36 20.5559 8.36 20.0131C8.36 19.4703 8.81 19.0262 9.36 19.0262H11.5V17.8124C10.14 17.6051 8.89 16.9932 7.9 16.0162C6.67 14.8024 6 13.1937 6 11.4766V9.92715C6 9.38436 6.45 8.94027 7 8.94027C7.55 8.94027 8 9.38436 8 9.92715V11.4766C8 12.6608 8.47 13.776 9.32 14.6149C10.17 15.4537 11.3 15.9175 12.5 15.9175C13.7 15.9175 14.83 15.4537 15.68 14.6149C16.53 13.776 17 12.6608 17 11.4766V9.92715C17 9.38436 17.45 8.94027 18 8.94027C18.55 8.94027 19 9.38436 19 9.92715Z" />
</svg>
