<svg class="fill-current stroke-current w-full h-full" style="color: inherit" stroke-width="0.2" width="24" height="24" viewBox="0 0 24 24" stroke="none" xmlns="http://www.w3.org/2000/svg">
<path d="M22.47 7.57949C22 7.34564 21.51 7.15077 21 6.98513V18.7067C19.86 18.3072 18.69 18.1026 17.5 18.1026C15.6 18.1026 13.72 18.6287 12 19.6421V7.85231C10.38 6.94615 8.51 6.41026 6.5 6.41026C4.71 6.41026 3.02 6.83897 1.53 7.57949C1.2 7.73538 1 8.07641 1 8.43692V20.2072C1 20.7723 1.47 21.1718 2 21.1718C2.16 21.1718 2.32 21.1328 2.48 21.0549C3.69 20.441 5.05 20.0513 6.5 20.0513C8.57 20.0513 10.48 20.8503 12 22C13.52 20.8503 15.43 20.0513 17.5 20.0513C18.95 20.0513 20.31 20.441 21.52 21.0646C21.68 21.1426 21.84 21.1815 22 21.1815C22.52 21.1815 23 20.7821 23 20.2169V8.43692C23 8.07641 22.8 7.73538 22.47 7.57949ZM10 18.7067C8.86 18.3072 7.69 18.1026 6.5 18.1026C5.31 18.1026 4.14 18.3072 3 18.7067V9.05077C4.11 8.59282 5.28 8.35897 6.5 8.35897C7.7 8.35897 8.89 8.60256 10 9.06051V18.7067ZM19 3L14 7.87179V17.1282L19 12.7436V3Z" />
</svg>
