<svg class="fill-current stroke-current w-full h-full" style="color: inherit" stroke-width="0.2" width="24" height="24" viewBox="0 0 24 24" stroke="none" xmlns="http://www.w3.org/2000/svg">
<path d="M20 10H12C10.9 10 10 10.9 10 12V20C10 21.1 10.9 22 12 22H20C21.1 22 22 21.1 22 20V12C22 10.9 21.1 10 20 10ZM20 20H12V12H20V20ZM4 4V13C4 13.55 3.55 14 3 14C2.45 14 2 13.55 2 13V3C2 2.45 2.45 2 3 2H13C13.55 2 14 2.45 14 3C14 3.55 13.55 4 13 4H4ZM8 8V17C8 17.55 7.55 18 7 18C6.45 18 6 17.55 6 17V7C6 6.45 6.45 6 7 6H17C17.55 6 18 6.45 18 7C18 7.55 17.55 8 17 8H8Z" />
</svg>
