<svg class="fill-current stroke-current w-full h-full" style="color: inherit" stroke-width="0.2" width="24" height="24" viewBox="0 0 24 24" stroke="none" xmlns="http://www.w3.org/2000/svg">
<path d="M14.1055 9.80266L13.0416 9.32199C12.6502 9.14542 12.6502 8.60589 13.0416 8.42932L14.1055 7.94865L14.5973 6.91864C14.778 6.53607 15.33 6.53607 15.5107 6.91864L16.0025 7.95846L17.0563 8.43913C17.4478 8.6157 17.4478 9.15523 17.0563 9.3318L15.9924 9.81247L15.5006 10.8425C15.32 11.225 14.7679 11.225 14.5873 10.8425L14.1055 9.80266ZM4.46012 12.8044L4.95192 11.7646L6.01582 11.2839C6.40726 11.1073 6.40726 10.5678 6.01582 10.3912L4.95192 9.91056L4.46012 8.88056C4.28949 8.49799 3.72743 8.49799 3.5568 8.88056L3.065 9.92037L2.0011 10.401C1.60966 10.5776 1.60966 11.1171 2.0011 11.2937L3.065 11.7744L3.5568 12.8044C3.72743 13.187 4.28949 13.187 4.46012 12.8044ZM8.98672 7.88979L9.61904 6.51645L11.0242 5.89845C11.4156 5.72187 11.4156 5.18235 11.0242 5.00578L9.61904 4.38777L8.98672 3.01443C8.80606 2.63186 8.25403 2.63186 8.07337 3.01443L7.44105 4.38777L6.0359 5.00578C5.64446 5.18235 5.64446 5.72187 6.0359 5.89845L7.44105 6.51645L8.07337 7.88979C8.244 8.27237 8.80606 8.27237 8.98672 7.88979ZM22.416 8.16446C22.0145 7.77208 21.342 7.78189 20.9606 8.2037L14.5471 15.247L11.245 12.0196C10.8536 11.6371 10.2212 11.6371 9.82981 12.0196L3.76758 17.9544C3.35607 18.3566 3.35607 19.0237 3.76758 19.4259C4.17909 19.828 4.86159 19.828 5.2731 19.4259L10.5424 14.266L13.8044 17.4541C14.2159 17.8563 14.8783 17.8367 15.2597 17.4149L22.4561 9.49856C22.8074 9.11599 22.7873 8.52741 22.416 8.16446Z" />
</svg>
