<svg class="fill-current stroke-current w-full h-full" style="color: inherit" stroke-width="0.2" width="24" height="24" viewBox="0 0 24 24" stroke="none" xmlns="http://www.w3.org/2000/svg">
<path d="M12 18C12.55 18 13 17.55 13 17C13 16.45 12.55 16 12 16C11.45 16 11 16.45 11 17C11 17.55 11.45 18 12 18ZM7 13C7.55 13 8 12.55 8 12C8 11.45 7.55 11 7 11C6.45 11 6 11.45 6 12C6 12.55 6.45 13 7 13ZM17 13C17.55 13 18 12.55 18 12C18 11.45 17.55 11 17 11C16.45 11 16 11.45 16 12C16 12.55 16.45 13 17 13ZM12 3C11.45 3 11 3.45 11 4V6C11 6.55 11.45 7 12 7C12.55 7 13 6.55 13 6V5.08C16.31 5.56 18.87 8.33 19 11.74C19.14 15.59 15.97 18.94 12.12 19C8.19 19.06 5 15.91 5 12C5 10.32 5.59 8.78 6.58 7.58L11.29 12.3C11.68 12.69 12.31 12.69 12.7 12.3C13.09 11.91 13.09 11.28 12.7 10.89L7.26 5.46C6.88 5.08 6.26 5.07 5.86 5.44C4.1 7.07 3 9.4 3 12C3 17.04 7.14 21.12 12.21 21C16.91 20.89 20.84 16.99 20.99 12.29C21.16 7.19 17.07 3 12 3V3Z" />
</svg>
