<svg class="fill-current stroke-current w-full h-full" style="color: inherit" stroke-width="0.2" width="24" height="24" viewBox="0 0 24 24" stroke="none" xmlns="http://www.w3.org/2000/svg">
<path d="M19 8.70983C19 5.01704 16.0865 2 12.5 2C8.91348 2 6 5.00753 6 8.70983C6 10.8513 6.97731 12.7548 8.48936 13.9825L7.59504 20.9208C7.54894 21.2824 7.70567 21.6441 8.00071 21.844C8.29574 22.0438 8.67376 22.0533 8.97801 21.863L12.4816 19.693L15.9851 21.863C16.1326 21.9486 16.2986 21.9962 16.4553 21.9962C16.6305 21.9962 16.8057 21.9486 16.9624 21.844C17.2574 21.6441 17.4142 21.2824 17.3681 20.9208L16.4738 13.9825C17.9858 12.7548 18.9631 10.8513 18.9631 8.70983H19ZM7.85319 8.70983C7.85319 6.06397 9.93688 3.9035 12.5092 3.9035C15.0816 3.9035 17.1652 6.05445 17.1652 8.70983C17.1652 11.3652 15.0816 13.5162 12.5092 13.5162C9.93688 13.5162 7.85319 11.3652 7.85319 8.70983ZM15.3213 19.2076L12.9794 17.761C12.6844 17.5801 12.3248 17.5801 12.0298 17.761L9.68794 19.2076L10.2319 14.9818C10.9418 15.2579 11.7071 15.4101 12.5 15.4101C13.2929 15.4101 14.0674 15.2483 14.7773 14.9818L15.3213 19.2076Z" />
</svg>
