<svg width="23" height="18" viewBox="0 0 23 18" fill="none" xmlns="http://www.w3.org/2000/svg">
<path d="M10.6399 16.5912L16.0645 15.6768L16.1147 15.6656L13.3253 12.4987C12.3904 11.4423 11.4606 10.3818 10.5359 9.31725C10.5359 9.30164 13.4165 1.73221 13.4328 1.70544C13.4375 1.69652 15.3984 4.92591 18.1843 9.53358L22.9638 17.4398L23 17.5L14.134 17.4989L5.26796 17.4978L10.6399 16.5923V16.5912ZM0 15.6277C0 15.6233 1.31465 13.4454 2.92145 10.7881L5.8429 5.95628L9.24698 3.22981C11.119 1.73109 12.6557 0.50223 12.6627 0.5C12.6502 0.545867 12.6318 0.590068 12.6078 0.631584L8.91043 8.19767L5.27965 15.6277L2.63982 15.6311C1.18845 15.6333 0 15.6311 0 15.6266V15.6277Z" fill="white"/>
</svg>
