<svg class="fill-current stroke-current w-full h-full" style="color: inherit" stroke-width="0.2" width="24" height="24" viewBox="0 0 24 24" stroke="none" xmlns="http://www.w3.org/2000/svg">
<path d="M20.4911 10.94C20.6211 10.62 20.5911 10.71 20.6411 10.55C20.9409 9.34 20.3012 8.08 19.1418 7.62L17.1327 6.82C16.6729 6.64 16.1831 6.61 15.7233 6.7C15.6134 6.37 15.4334 6.07 15.2035 5.81C14.7238 5.29 14.0541 5 13.3544 5H10.6456C9.93594 5 9.26624 5.29 8.79646 5.81C8.55657 6.07 8.37665 6.37 8.2667 6.69C7.80691 6.6 7.31713 6.63 6.85734 6.81L4.84825 7.61C3.68878 8.07 3.04907 9.33 3.34893 10.54L3.49886 10.92C1.09995 15.55 1 15.55 1 16.38C1 17.29 1.45979 18.12 2.23944 18.6C3.65879 19.48 4.72831 18.74 6.23762 17.99H17.7624C19.2817 18.75 19.6215 19 20.3912 19C21.3907 19 23 18.23 23 16.39C22.99 15.54 22.8701 15.51 20.4911 10.94ZM20.1113 16.93L18.4321 16.09L19.5116 13.39L20.9209 16.1C21.2008 16.63 20.6311 17.19 20.1113 16.93ZM15.0836 15.99L15.7033 9.09C15.7333 8.76 16.0731 8.55 16.383 8.67L18.3921 9.47C18.612 9.56 18.7319 9.78 18.702 10.01L16.303 15.99H15.0836ZM7.67696 15.99L5.27806 10.01C5.24807 9.78 5.36801 9.56 5.58791 9.47L7.597 8.67C7.90686 8.55 8.24671 8.75 8.27669 9.09L8.89641 15.99H7.67696ZM3.06906 16.1L4.47842 13.38L5.55793 16.09L3.87869 16.93C3.35893 17.19 2.78919 16.63 3.06906 16.1ZM10.1458 7.54C10.1159 7.23 10.3757 7 10.6456 7H13.3544C13.6243 7 13.8841 7.23 13.8542 7.54L13.0845 15.99H10.9155L10.1458 7.54Z" />
</svg>
