<svg class="fill-current stroke-current w-full h-full" style="color: inherit" stroke-width="0.2" width="24" height="24" viewBox="0 0 24 24" stroke="none" xmlns="http://www.w3.org/2000/svg">
<path d="M16.55 18H3.82C2.27 18 1 16.73 1 15.17V7.83C1 6.27 2.26 5 3.82 5H16.55C18.1 5 19.37 6.27 19.37 7.83V15.16C19.37 16.72 18.11 17.99 16.55 17.99V18ZM3.82 7C3.37 7 3 7.37 3 7.83V15.16C3 15.62 3.37 15.99 3.82 15.99H16.55C17 15.99 17.37 15.62 17.37 15.16V7.83C17.37 7.37 17 7 16.55 7H3.82ZM23 12.42V10.59C23 10.04 22.55 9.59 22 9.59C21.45 9.59 21 10.04 21 10.59V12.42C21 12.97 21.45 13.42 22 13.42C22.55 13.42 23 12.97 23 12.42Z" />
</svg>
