<svg class="fill-current stroke-current w-full h-full" style="color: inherit" stroke-width="0.2" width="24" height="24" viewBox="0 0 24 24" stroke="none" xmlns="http://www.w3.org/2000/svg">
<path d="M19.36 7.83218V15.1678C19.36 16.729 18.1 18 16.54 18H3.82C2.27 18 1 16.729 1 15.1678V7.83218C1 6.27098 2.26 5 3.82 5H16.55C18.1 5 19.37 6.27098 19.37 7.83218H19.36ZM22 9.58353C21.45 9.58353 21 10.0339 21 10.5843V12.4157C21 12.9661 21.45 13.4165 22 13.4165C22.55 13.4165 23 12.9661 23 12.4157V10.5843C23 10.0339 22.55 9.58353 22 9.58353Z" />
</svg>
