<svg class="fill-current stroke-current w-full h-full" style="color: inherit" stroke-width="0.2" width="24" height="24" viewBox="0 0 24 24" stroke="none" xmlns="http://www.w3.org/2000/svg">
<path d="M18.54 5.83C19.07 6.36 19.36 7.08 19.36 7.83V15.16C19.36 15.91 19.07 16.62 18.54 17.16C18.02 17.69 17.29 17.99 16.54 17.99H13.64C13.09 17.99 12.64 17.54 12.64 16.99C12.64 16.44 13.09 15.99 13.64 15.99H16.54C16.75 15.99 16.96 15.9 17.12 15.75C17.28 15.59 17.36 15.38 17.36 15.16V7.83C17.36 7.61 17.27 7.39 17.12 7.24C16.97 7.09 16.76 7 16.54 7H14.72C14.17 7 13.72 6.55 13.72 6C13.72 5.45 14.17 5 14.73 5H16.55C17.29 5 18.02 5.3 18.54 5.83ZM22 9.58C21.45 9.58 21 10.03 21 10.58V12.41C21 12.96 21.45 13.41 22 13.41C22.55 13.41 23 12.96 23 12.41V10.58C23 10.03 22.55 9.58 22 9.58ZM13.74 12.05L10.1 17.55C9.91 17.84 9.59 18 9.27 18C9.08 18 8.89 17.95 8.72 17.83C8.26 17.53 8.13 16.91 8.44 16.44L11.05 12.49H7.46C7.33 12.49 7.21 12.46 7.1 12.41L6.64 17.09C6.59 17.6 6.16 17.99 5.64 17.99H3.82C3.08 17.99 2.35 17.69 1.82 17.16C1.29 16.63 1 15.92 1 15.16V7.83C1 7.08 1.29 6.37 1.82 5.83C2.35 5.3 3.07 5 3.82 5H6.72C7 5 7.27 5.12 7.46 5.33C7.65 5.54 7.74 5.82 7.71 6.1L7.34 9.86L10.26 5.45C10.56 4.99 11.19 4.86 11.65 5.17C12.11 5.47 12.24 6.09 11.93 6.56L9.32 10.51H12.91C13.28 10.51 13.62 10.71 13.79 11.04C13.96 11.36 13.95 11.76 13.74 12.06V12.05ZM5.62 7H3.82C3.6 7 3.4 7.09 3.24 7.24C3.08 7.39 3 7.61 3 7.83V15.16C3 15.38 3.09 15.59 3.24 15.75C3.39 15.91 3.6 15.99 3.82 15.99H4.73L5.62 6.99V7Z" />
</svg>
