<svg class="fill-current stroke-current w-full h-full" style="color: inherit" stroke-width="0.2" width="24" height="24" viewBox="0 0 24 24" stroke="none" xmlns="http://www.w3.org/2000/svg">
<path fill-rule="evenodd" clip-rule="evenodd" d="M14.836 13.371L13.3724 14.8349L19.237 20.7006C19.6464 21.0998 20.3015 21.0998 20.7006 20.7006C21.0998 20.2911 21.0998 19.6359 20.7006 19.2367L14.836 13.371V13.371ZM10.4349 16.2987C10.1381 16.0019 9.86175 15.705 9.59564 15.3979C9.41141 15.1931 9.23742 14.9782 9.07366 14.7734C7.62029 12.941 6.6582 10.9653 6.22833 9.10222C6.0441 8.31398 5.96222 7.53598 5.98269 6.80916C5.98269 6.56348 6.00316 6.31779 6.03386 6.07211C6.03386 6.07211 6.03386 6.07211 6.03386 6.06187H6.0441C6.0441 6.06187 6.0441 6.05163 6.05433 6.05163C6.28974 6.02092 6.54561 6.00045 6.79125 6.00045C7.52817 5.97997 8.2958 6.07211 9.09413 6.24613C10.9569 6.67608 12.9425 7.63834 14.7643 9.09198C15.0202 9.28648 15.2658 9.50145 15.5115 9.71643C15.7776 9.95187 16.0437 10.1976 16.2996 10.4535L10.4349 16.3192V16.2987ZM10.527 13.3096L13.311 10.5251C11.5403 9.16364 9.70823 8.3754 8.1218 8.11948C8.37768 9.70619 9.16577 11.5386 10.527 13.3096V13.3096ZM8.00922 16.698C6.57632 14.886 5.72681 12.767 5.51188 10.607C5.37882 9.27624 5.49141 7.91474 5.84963 6.60442C5.90081 6.42016 5.95198 6.2359 6.01339 6.05163C5.91104 6.154 5.80869 6.26661 5.70634 6.36898C5.03083 7.10603 4.48838 7.9045 4.06874 8.7644C3.81287 9.27624 3.59793 9.8188 3.43417 10.3613C2.60514 13.1355 2.96336 16.2066 4.50885 18.7453C5.14342 19.7895 6.58655 19.9635 7.5077 19.206C7.52817 19.1855 7.54864 19.1753 7.56911 19.1548C7.59982 19.1241 7.63052 19.0934 7.66123 19.0627L8.96107 17.7626C8.62332 17.4248 8.30603 17.0665 8.00922 16.698V16.698ZM6.05433 6.02092C6.23856 5.9595 6.42279 5.90832 6.60702 5.85713C7.9171 5.49884 9.27836 5.38624 10.6089 5.51932C12.8299 5.73429 14.9997 6.6249 16.842 8.12971C17.1593 8.39587 17.4664 8.67227 17.7734 8.96914L19.0733 7.66906C19.1244 7.61787 19.1654 7.56669 19.2165 7.5155C19.9739 6.59419 19.7999 5.15079 18.756 4.5161C16.2075 2.9601 13.1472 2.60181 10.3633 3.44123C9.82081 3.60502 9.28859 3.82 8.76661 4.07592C7.9171 4.49563 7.10854 5.04842 6.37162 5.71382C6.25903 5.81619 6.15668 5.91855 6.05433 6.02092V6.02092Z" />
</svg>
