<svg class="fill-current stroke-current w-full h-full" style="color: inherit" stroke-width="0.2" width="24" height="24" viewBox="0 0 24 24" stroke="none" xmlns="http://www.w3.org/2000/svg">
<path d="M10.4025 4.48124C8.74277 12.025 14.2208 16.8974 18.202 18.2881C16.7867 19.3787 15.0252 19.999 13.1822 19.999C8.69185 19.999 5.03644 16.4072 5.03644 11.995C5.03644 8.54327 7.27653 5.5918 10.4025 4.48124ZM13.172 2C7.48017 2 3 6.53227 3 11.995C3 17.5178 7.56163 22 13.1822 22C16.9598 22 20.2385 19.979 22 16.9775C14.3532 16.7274 9.68971 8.54327 13.5284 2C13.4062 2 13.2942 2 13.172 2Z" />
</svg>
