<svg class="fill-current stroke-current w-full h-full" style="color: inherit" stroke-width="0.2" width="24" height="24" viewBox="0 0 24 24" stroke="none" xmlns="http://www.w3.org/2000/svg">
<path fill-rule="evenodd" clip-rule="evenodd" d="M16.0552 16.6872V10.7179C16.0552 8.28718 14.8291 6.65641 13.0559 6.2359L12.0021 5.97949L10.9483 6.2359C9.16493 6.66667 7.94901 8.27692 7.94901 10.7179V16.6974L7.77675 16.8718H16.2376L16.0653 16.6872H16.0552ZM4.6052 17.1692L5.92246 15.8462V10.7179C5.92246 10.4718 5.92246 10.2256 5.95286 9.98974C5.95286 9.88718 5.97312 9.78462 5.98325 9.68205V9.66154C6.18591 8.05128 6.8344 6.62564 7.89834 5.62051C8.14153 5.39487 8.40498 5.17949 8.6887 4.99487C9.2156 4.65641 9.81343 4.38974 10.4721 4.2359V3.53846C10.4721 2.68718 11.1408 2 11.9818 2C12.8229 2 13.5119 2.68718 13.5119 3.53846V4.2359C14.1806 4.4 14.7886 4.66667 15.3155 5.01538C15.5891 5.18974 15.8323 5.39487 16.0653 5.61026C17.1293 6.61539 17.7879 8.02051 17.9906 9.63077C17.9906 9.63077 17.9906 9.64103 17.9906 9.65128C18.0007 9.7641 18.021 9.87692 18.021 9.97949C18.0412 10.2154 18.0513 10.4615 18.0513 10.7077V15.8359L19.3483 17.159C19.9867 17.8051 19.5307 18.9128 18.6289 18.9128H5.31449C4.41268 18.9128 3.96684 17.8051 4.6052 17.159V17.1692ZM13.7449 20.9744C13.3903 21.5897 12.7418 22 11.992 22C11.2421 22 10.5835 21.5897 10.239 20.9744C10.0667 20.6769 9.96542 20.3179 9.96542 19.9487H14.0185C14.0185 20.3179 13.9172 20.6769 13.7449 20.9744ZM2.85224 6.21538C2.45706 7.08718 2.16321 8.03077 2.01122 9.01539C1.92002 9.64103 2.39626 10.2051 3.02449 10.2051C3.43993 10.2051 3.80471 9.94872 3.9567 9.56923C3.9871 9.49744 4.00737 9.42564 4.0175 9.35385C4.13909 8.55385 4.37215 7.78462 4.69639 7.07692C5.15237 6.06154 5.80086 5.15897 6.59122 4.4C6.62162 4.36923 6.65201 4.33846 6.68241 4.30769C6.68241 4.30769 6.69254 4.29744 6.70268 4.28718C6.87493 4.12308 6.98639 3.90769 7.01679 3.69231C7.05732 3.38462 6.96613 3.06667 6.73308 2.83077C6.35816 2.45128 5.7502 2.43077 5.35502 2.78974C5.35502 2.78974 5.34489 2.8 5.33476 2.81026C5.30436 2.84103 5.26383 2.87179 5.23343 2.90256C4.24042 3.8359 3.43993 4.9641 2.86237 6.22564L2.85224 6.21538ZM16.9874 3.69231C17.0178 3.90769 17.1293 4.11282 17.3015 4.27692C17.3015 4.27692 17.3117 4.28718 17.3218 4.29744C17.3218 4.29744 17.3927 4.36923 17.4333 4.4C18.7404 5.67179 19.6625 7.3641 19.9766 9.26154C19.9766 9.28205 19.9766 9.31282 19.9867 9.33333C19.9968 9.41539 20.0171 9.48718 20.0475 9.55897C20.1995 9.93846 20.5643 10.1846 20.9797 10.1846C21.5877 10.1846 22.0639 9.64103 21.993 9.0359C21.993 9.0359 21.993 9.02564 21.993 9.01539V8.99487C21.993 8.97436 21.993 8.9641 21.993 8.94359C21.6079 6.58462 20.4629 4.4718 18.8113 2.88205C18.7809 2.85128 18.7404 2.82051 18.71 2.78974C18.71 2.78974 18.6998 2.77949 18.6897 2.76923C18.2844 2.41026 17.6764 2.43077 17.2914 2.81026C17.0583 3.04615 16.9671 3.37436 17.0077 3.68205L16.9874 3.69231Z" />
</svg>
