<svg class="fill-current stroke-current w-full h-full" style="color: inherit" stroke-width="0.2" width="24" height="24" viewBox="0 0 24 24" stroke="none" xmlns="http://www.w3.org/2000/svg">
<path fill-rule="evenodd" clip-rule="evenodd" d="M16.4889 15.9528V10.2821C16.4889 7.97282 15.2901 6.42359 13.5563 6.0241L12.526 5.78051L11.4956 6.0241C9.75197 6.43333 8.56311 7.96308 8.56311 10.2821V15.9626L8.39468 16.1282H16.6573L16.4889 15.9528ZM5.29373 16.4108L6.58166 15.1538V10.2821C6.58166 10.0482 6.58166 9.81436 6.61138 9.59026C6.61138 9.49282 6.6312 9.39538 6.64111 9.29795V9.27846C6.83925 7.74872 7.47331 6.39436 8.51357 5.43949C8.75134 5.22513 9.00893 5.02051 9.28633 4.84513C9.80151 4.52359 10.386 4.27026 11.03 4.1241V3.46154C11.03 2.65282 11.6839 2 12.5062 2C13.3285 2 14.0022 2.65282 14.0022 3.46154V4.1241C14.656 4.28 15.2505 4.53333 15.7656 4.86462C16.0331 5.03026 16.2709 5.22513 16.4988 5.42974C17.539 6.38462 18.183 7.71949 18.3811 9.24923C18.3811 9.24923 18.3811 9.25897 18.3811 9.26872C18.3911 9.3759 18.4109 9.48308 18.4109 9.58051C18.4307 9.80462 18.4406 10.0385 18.4406 10.2723V15.1441L19.7087 16.401C20.3329 17.0149 19.887 18.0672 19.0053 18.0672H5.98723C5.10549 18.0672 4.66957 17.0149 5.29373 16.401V16.4108ZM14.23 20.0256C13.8833 20.6103 13.2492 21 12.5161 21C11.7829 21 11.139 20.6103 10.8021 20.0256C10.6337 19.7431 10.5346 19.4021 10.5346 19.0513H14.4975C14.4975 19.4021 14.3985 19.7431 14.23 20.0256Z" />
</svg>
