<svg class="fill-current stroke-current w-full h-full" style="color: inherit" stroke-width="0.2" width="24" height="24" viewBox="0 0 24 24" stroke="none" xmlns="http://www.w3.org/2000/svg">
<path d="M20 18.2025V4.02532C20 2.91139 19.1 2 18 2H6C4.9 2 4 2.91139 4 4.02532V18.2025H3C2.45 18.2025 2 18.6582 2 19.2152C2 19.7722 2.45 20.2278 3 20.2278H13.25C13.25 21.2101 14.03 22 15 22C15.97 22 16.75 21.2101 16.75 20.2278H21C21.55 20.2278 22 19.7722 22 19.2152C22 18.6582 21.55 18.2025 21 18.2025H20ZM18 10.1013H16V8.07595H18V10.1013ZM14 10.1013H6V8.07595H14V10.1013ZM14 12.1266V14.1519H6V12.1266H14ZM16 12.1266H18V14.1519H16V12.1266ZM18 6.05063H16V4.02532H18V6.05063ZM14 4.02532V6.05063H6V4.02532H14ZM6 18.2025V16.1772H14V18.2025H6ZM16 18.2025V16.1772H18V18.2025H16Z" />
</svg>
