<svg class="fill-current stroke-current w-full h-full" style="color: inherit" stroke-width="0.2" width="24" height="24" viewBox="0 0 24 24" stroke="none" xmlns="http://www.w3.org/2000/svg">
<path d="M19.7096 17.3308L6.68273 4.26496C6.29726 3.87863 5.67457 3.87863 5.2891 4.26496C4.90363 4.65129 4.90363 5.27536 5.2891 5.66169L11.1107 11.4963L6.27749 16.3403C5.89202 16.7266 5.89202 17.3507 6.27749 17.737C6.66296 18.1233 7.28564 18.1233 7.67111 17.737L11.5159 13.8836V20.0054C11.5159 20.8871 12.5834 21.3328 13.2061 20.7088L16.7544 17.1525L18.3259 18.7276C18.7114 19.1139 19.3341 19.1139 19.7195 18.7276C20.0951 18.3412 20.0951 17.7073 19.7096 17.3308ZM13.4927 17.6082V13.8836L15.3509 15.7459L13.4927 17.6082ZM13.4927 5.38433L15.3509 7.24664L13.8979 8.7028L15.2916 10.0995L17.4462 7.94996C17.8317 7.56363 17.8317 6.93955 17.4462 6.54332L13.2061 2.29369C12.5834 1.66962 11.5159 2.10548 11.5159 2.9871V6.31548L13.4927 8.29666V5.38433V5.38433Z" />
</svg>
