<svg class="fill-current stroke-current w-full h-full" style="color: inherit" stroke-width="0.2" width="24" height="24" viewBox="0 0 24 24" stroke="none" xmlns="http://www.w3.org/2000/svg">
<path d="M6.43759 12.4869C6.99331 11.942 6.99331 11.0604 6.43759 10.5156V10.5057C5.88187 9.96085 4.97251 9.96085 4.41679 10.5057C3.86107 11.0505 3.86107 11.942 4.41679 12.4869C4.97251 13.0317 5.88187 13.0317 6.43759 12.4869ZM20.5832 10.5057C20.0174 9.95095 19.1181 9.95095 18.5624 10.4958V10.5057C18.0067 11.0505 18.0067 11.9321 18.5624 12.477V12.4869C19.1181 13.0317 20.0174 13.0317 20.5731 12.4869H20.5832C21.1389 11.942 21.1389 11.0505 20.5832 10.5057ZM17.552 6.54332L13.2174 2.29369C12.5808 1.66962 11.4896 2.10548 11.4896 2.9871V9.10895L7.55914 5.25555C7.16508 4.86922 6.52853 4.86922 6.13447 5.25555C5.74042 5.64188 5.74042 6.26595 6.13447 6.65228L11.0753 11.4963L6.13447 16.3403C5.74042 16.7266 5.74042 17.3507 6.13447 17.737C6.52853 18.1233 7.16508 18.1233 7.55914 17.737L11.4896 13.8836V20.0054C11.4896 20.8871 12.5808 21.3328 13.2174 20.7088L17.552 16.4492C17.9461 16.0629 17.9461 15.4388 17.552 15.0426L13.9247 11.4963L17.552 7.94996C17.9461 7.56363 17.9461 6.92965 17.552 6.54332ZM15.41 15.7459L13.5104 17.6082V13.8836L15.41 15.7459V15.7459ZM13.5104 9.10895V5.38433L15.41 7.24664L13.5104 9.10895Z" />
</svg>
