<svg class="fill-current stroke-current w-full h-full" style="color: inherit" stroke-width="0.2" width="24" height="24" viewBox="0 0 24 24" stroke="none" xmlns="http://www.w3.org/2000/svg">
<path d="M17.7047 6.54332L13.3732 2.29369C12.7371 1.66962 11.6466 2.10548 11.6466 2.9871V9.10895L7.71897 5.25555C7.3252 4.86922 6.6891 4.86922 6.29533 5.25555C5.90156 5.64188 5.90156 6.26595 6.29533 6.65228L11.2326 11.4963L6.29533 16.3403C5.90156 16.7266 5.90156 17.3507 6.29533 17.737C6.6891 18.1233 7.3252 18.1233 7.71897 17.737L11.6466 13.8836V20.0054C11.6466 20.8871 12.7371 21.3328 13.3732 20.7088L17.7047 16.4492C18.0984 16.0629 18.0984 15.4388 17.7047 15.0525L14.0799 11.4963L17.7047 7.94996C18.0984 7.56363 18.0984 6.92965 17.7047 6.54332ZM13.666 5.38433L15.5642 7.24664L13.666 9.10895V5.38433ZM15.5642 15.7459L13.666 17.6082V13.8836L15.5642 15.7459V15.7459Z" />
</svg>
