<svg class="fill-current stroke-current w-full h-full" style="color: inherit" stroke-width="0.2" width="24" height="24" viewBox="0 0 24 24" stroke="none" xmlns="http://www.w3.org/2000/svg">
<path d="M15.8623 9.79101L14.4527 11.1582C14.2484 11.3563 14.2484 11.6635 14.4527 11.8616L15.8623 13.2288C16.1482 13.5062 16.6283 13.3774 16.7305 13.0009C16.8428 12.5056 16.9041 12.0102 16.9041 11.495C16.9041 10.9898 16.8428 10.4944 16.7202 10.0288C16.6283 9.65231 16.1482 9.51361 15.8623 9.79101V9.79101ZM20.0705 7.31422C19.8152 6.76932 19.0695 6.65044 18.6405 7.07645C18.3749 7.33403 18.3239 7.71051 18.4669 8.04735C18.9367 9.10742 19.2023 10.2666 19.2023 11.4851C19.2023 12.7136 18.9367 13.8827 18.4567 14.9427C18.3137 15.2598 18.3647 15.6263 18.6201 15.874C19.0389 16.2802 19.7437 16.1613 19.999 15.6462C20.6425 14.3582 21 12.9118 21 11.3861C20.9898 9.94953 20.6629 8.56252 20.0705 7.31422V7.31422ZM11.1739 11.495L14.8408 7.94828C15.2392 7.5619 15.2392 6.93775 14.8408 6.54146L10.4589 2.29128C9.81543 1.66713 8.7123 2.11295 8.7123 2.99469V9.11733L4.73897 5.25353C4.34062 4.86715 3.69712 4.86715 3.29877 5.25353C2.90041 5.63991 2.90041 6.26406 3.29877 6.65044L8.29352 11.495L3.29877 16.3397C2.90041 16.726 2.90041 17.3502 3.29877 17.7366C3.69712 18.1229 4.34062 18.1229 4.73897 17.7366L8.7123 13.8827V20.0053C8.7123 20.887 9.81543 21.3329 10.4589 20.7087L14.851 16.4486C15.2494 16.0623 15.2494 15.4381 14.851 15.0418L11.1739 11.495ZM10.7551 5.38232L12.6754 7.24487L10.7551 9.10742V5.38232ZM10.7551 17.6078V13.8827L12.6754 15.7452L10.7551 17.6078Z" />
</svg>
