<svg class="fill-current stroke-current w-full h-full" style="color: inherit" stroke-width="0.2" width="24" height="24" viewBox="0 0 24 24" stroke="none" xmlns="http://www.w3.org/2000/svg">
<path d="M17.9993 21C17.7891 21 17.579 20.93 17.3989 20.8L11.995 16.8L6.59114 20.8C6.29092 21.02 5.88063 21.06 5.55039 20.89C5.21015 20.72 5 20.37 5 20V5.78C5 5.05 5.2802 4.35 5.78056 3.83C6.29092 3.3 6.99142 3 7.71194 3H16.2881C17.0086 3 17.7191 3.3 18.2194 3.83C18.7198 4.35 19 5.05 19 5.78V20C19 20.38 18.7898 20.72 18.4496 20.89C18.3095 20.96 18.1494 21 17.9993 21ZM11.995 14.56C12.2051 14.56 12.4153 14.63 12.5954 14.76L16.9986 18.02V5.78C16.9986 5.57 16.9185 5.36 16.7784 5.22C16.6483 5.08 16.4682 5.01 16.2881 5.01H7.70193C7.5218 5.01 7.34167 5.09 7.21158 5.22C7.07148 5.37 6.99142 5.57 6.99142 5.78V18.01L11.3946 14.75C11.5747 14.62 11.7848 14.55 11.995 14.55V14.56Z" />
</svg>
