<svg class="fill-current stroke-current w-full h-full" style="color: inherit" stroke-width="0.2" width="24" height="24" viewBox="0 0 24 24" stroke="none" xmlns="http://www.w3.org/2000/svg">
<path d="M18.2294 3.83C17.7191 3.3 17.0186 3 16.2981 3H7.71194C6.99142 3 6.29092 3.3 5.78056 3.83C5.2802 4.35 5 5.05 5 5.78V20C5 20.38 5.21015 20.72 5.55039 20.89C5.89064 21.06 6.29092 21.02 6.59114 20.8L11.995 16.8L17.3989 20.8C17.579 20.93 17.7891 21 17.9993 21C18.1494 21 18.3095 20.96 18.4496 20.89C18.7898 20.72 19 20.37 19 20V5.78C19 5.05 18.7198 4.35 18.2194 3.83H18.2294Z" />
</svg>
