<svg class="fill-current stroke-current w-full h-full" style="color: inherit" stroke-width="0.2" width="24" height="24" viewBox="0 0 24 24" stroke="none" xmlns="http://www.w3.org/2000/svg">
<path d="M21 3H15.6C14.37 3 13.22 3.47026 12.35 4.33074C12.22 4.46081 12.11 4.61089 12 4.76098C11.89 4.6209 11.78 4.47082 11.65 4.34074C10.78 3.48027 9.63 3.01001 8.4 3.01001H3C2.45 3 2 3.45025 2 4.00056V17.338C2 17.8883 2.45 18.3385 3 18.3385H9.3C9.75 18.3385 10.19 18.5186 10.51 18.8288C10.83 19.139 11 19.5592 11 19.9994C11 20.5497 11.45 21 12 21C12.55 21 13 20.5497 13 19.9994C13 19.5592 13.18 19.139 13.49 18.8288C13.81 18.5186 14.25 18.3385 14.7 18.3385H21C21.55 18.3385 22 17.8883 22 17.338V4.00056C22 3.45025 21.55 3 21 3ZM11 16.7476C10.48 16.4775 9.9 16.3374 9.3 16.3374H4V5.00111H8.4C9.1 5.00111 9.75 5.27126 10.24 5.75153C10.73 6.2318 11 6.87215 11 7.55253V16.7476ZM20 16.3374H14.7C14.11 16.3374 13.52 16.4775 13 16.7476V7.56253C13 6.88216 13.27 6.2418 13.76 5.76153C14.24 5.28127 14.92 5.01112 15.6 5.01112H20V16.3374Z" />
</svg>
