<svg class="fill-current stroke-current w-full h-full" style="color: inherit" stroke-width="0.2" width="24" height="24" viewBox="0 0 24 24" stroke="none" xmlns="http://www.w3.org/2000/svg">
<path d="M19.0244 2H7.17073C6.32195 2 5.52195 2.34 4.92683 2.95C4.33171 3.56 4 4.38 4 5.25V18.75C4 19.62 4.33171 20.43 4.92683 21.05C5.52195 21.66 6.32195 22 7.17073 22H19.0244C19.561 22 20 21.55 20 21V3C20 2.45 19.561 2 19.0244 2ZM6.3122 4.37C6.54634 4.13 6.84878 4 7.17073 4H18.0488V15.5H7.17073C6.74146 15.5 6.33171 15.59 5.95122 15.75V5.25C5.95122 4.92 6.07805 4.6 6.3122 4.37ZM7.17073 20C6.84878 20 6.53659 19.87 6.3122 19.63C6.07805 19.39 5.95122 19.08 5.95122 18.75C5.95122 18.42 6.07805 18.1 6.3122 17.87C6.53659 17.64 6.85854 17.5 7.17073 17.5H18.0488V20H7.17073Z" />
</svg>
