<svg class="fill-current stroke-current w-full h-full" style="color: inherit" stroke-width="0.2" width="24" height="24" viewBox="0 0 24 24" stroke="none" xmlns="http://www.w3.org/2000/svg">
<path d="M16.21 5.83C16.71 6.35 16.99 7.05 16.99 7.78V22C16.99 22.38 16.78 22.72 16.44 22.89C16.3 22.96 16.14 23 15.99 23C15.78 23 15.57 22.93 15.39 22.8L9.99 18.8L4.59 22.8C4.29 23.03 3.88 23.06 3.55 22.89C3.21 22.72 3 22.37 3 22V7.78C3 7.05 3.28 6.35 3.78 5.83C4.29 5.3 4.99 5 5.71 5H14.28C15 5 15.71 5.3 16.21 5.83ZM19 1H8.99C7.89 1 7 1.9 7 3H17C18.1 3 19 3.9 19 5V18L21 19V3C21 1.9 20.1 1 19 1Z" />
</svg>
