<svg class="fill-current stroke-current w-full h-full" style="color: inherit" stroke-width="0.2" width="24" height="24" viewBox="0 0 24 24" stroke="none" xmlns="http://www.w3.org/2000/svg">
<path d="M20.6898 7.11069C20.6698 7.05066 20.6598 6.99062 20.6298 6.94059C20.5798 6.85053 20.5097 6.79049 20.4397 6.73046C20.2196 6.43027 19.9494 6.1601 19.6192 5.95998L13.3958 2.36773C12.5553 1.87742 11.4547 1.87742 10.6142 2.36773L4.38077 5.95998C4.05058 6.15009 3.79044 6.42026 3.56031 6.72045C3.49027 6.78049 3.42023 6.85053 3.37021 6.93058C3.34019 6.99062 3.33018 7.05066 3.31017 7.11069C3.12007 7.50094 3 7.93121 3 8.37148V15.546C3 16.0363 3.13007 16.5166 3.37021 16.9368C3.61034 17.3571 3.96053 17.7173 4.39077 17.9675L10.6142 21.5497C10.8944 21.7098 11.2146 21.8099 11.5347 21.8599C11.6748 21.94 11.8349 22 12.005 22C12.1751 22 12.3352 21.94 12.4753 21.8599C12.7954 21.7999 13.1056 21.7098 13.3858 21.5497L19.6192 17.9575C20.0395 17.7073 20.3897 17.3571 20.6298 16.9368C20.8699 16.5166 21 16.0363 21 15.546V8.37148C21 7.93121 20.8799 7.50094 20.6798 7.11069H20.6898ZM11.6148 4.09881C11.7349 4.02877 11.8649 3.99875 12.005 3.99875C12.1451 3.99875 12.2752 4.03877 12.3952 4.10882L17.9883 7.33083L12.005 10.823L6.02168 7.32083L11.6148 4.09881ZM5.39133 16.2364C5.27126 16.1664 5.17121 16.0663 5.10117 15.9462C5.03113 15.8261 4.99111 15.6861 4.99111 15.546V9.0419L10.9944 12.5441V19.4684L5.38132 16.2364H5.39133ZM18.8988 15.9462C18.8288 16.0663 18.7287 16.1664 18.6187 16.2364L13.0056 19.4684V12.5441L19.0089 9.0419V15.546C19.0089 15.6861 18.9689 15.8261 18.8988 15.9462Z" />
</svg>
