<svg class="fill-current stroke-current w-full h-full" style="color: inherit" stroke-width="0.2" width="24" height="24" viewBox="0 0 24 24" stroke="none" xmlns="http://www.w3.org/2000/svg">
<path d="M15.0065 3C15.5568 3 16.007 3.45 16.007 4V10H17.5978C18.4882 10 18.9385 11.08 18.3082 11.71L15.7169 14.3C15.3267 14.69 14.6963 14.69 14.3062 14.3L11.7149 11.71C11.0845 11.08 11.5248 10 12.4152 10H14.006V4C14.006 3.45 14.4562 3 15.0065 3ZM6.002 19.59C6.002 20.37 6.63232 21 7.41271 21H16.5873C17.3677 21 17.998 20.37 17.998 19.59C17.998 18.87 17.5578 18.56 16.9975 18H19.999C21.0995 18 22 17.1 22 16V14C22 13.45 21.5498 13 20.9995 13C20.4492 13 19.999 13.45 19.999 14V16H4.001V5H11.0045C11.5548 5 12.005 4.55 12.005 4C12.005 3.45 11.5548 3 11.0045 3H4.001C2.90045 3 2 3.9 2 5V16C2 17.1 2.90045 18 4.001 18H7.0025C6.45223 18.55 6.002 18.87 6.002 19.59Z" />
</svg>
