<svg class="fill-current stroke-current w-full h-full" style="color: inherit" stroke-width="0.2" width="24" height="24" viewBox="0 0 24 24" stroke="none" xmlns="http://www.w3.org/2000/svg">
<path d="M19.8578 4.57016V16.2401L21.9464 18.4073C21.9786 18.2406 22 18.0739 22 17.9072V4.57016C22 3.3476 21.036 2.34732 19.8578 2.34732H6.46914L8.61133 4.57016H19.8578ZM3.64145 2.29175C3.26657 1.90275 2.65604 1.90275 2.28116 2.29175C1.90628 2.68074 1.90628 3.31425 2.28116 3.70325L2.72031 4.17005V17.9072C2.72031 19.1298 3.6843 20.13 4.8625 20.13H18.1012L19.6222 21.7083C19.9971 22.0972 20.6076 22.0972 20.9825 21.7083C21.3573 21.3193 21.3573 20.6857 20.9825 20.2967L3.64145 2.29175ZM4.8625 17.9072V6.39289L15.959 17.9072H4.8625Z" />
</svg>
