<svg class="fill-current stroke-current w-full h-full" style="color: inherit" stroke-width="0.2" width="24" height="24" viewBox="0 0 24 24" stroke="none" xmlns="http://www.w3.org/2000/svg">
<path d="M4.9361 4.55C5.45145 3.62 6.42269 3 7.54259 3C7.91919 3 8.25615 2.78 8.42463 2.47C8.57329 2.16 8.92016 2 9.25712 2C9.9905 2 10.5059 2.8 10.1491 3.45C9.63372 4.38 8.66248 5 7.54259 5C7.16599 5 6.82903 5.22 6.66055 5.53C6.51189 5.84 6.16502 6 5.82806 6C5.09467 6 4.57932 5.2 4.9361 4.55ZM22.795 13.19C22.458 13.63 21.8436 13.71 21.4075 13.38L20.4264 12.62V21C20.4264 21.55 19.9804 22 19.4353 22H5.56047C5.01539 22 4.56941 21.55 4.56941 21V12.62L3.58826 13.38C3.1522 13.72 2.52783 13.63 2.20078 13.19C1.87373 12.75 1.95302 12.12 2.38908 11.79L4.56941 10.11V8C4.56941 7.45 5.01539 7 5.56047 7C6.10555 7 6.55153 7.45 6.55153 8V8.58L11.8933 4.46C12.2501 4.19 12.7456 4.19 13.0925 4.46L22.6067 11.79C23.0427 12.13 23.1319 12.76 22.795 13.19ZM10.5752 8H14.4304L12.4979 6.52L10.5752 8ZM6.55153 11.1V12H18.4442V11.1L17.0171 10H7.97865L6.55153 11.1ZM6.55153 14V16H18.4442V14H6.55153ZM18.4442 20V18H6.55153V20H18.4442Z" />
</svg>
