<svg class="fill-current stroke-current w-full h-full" style="color: inherit" stroke-width="0.2" width="24" height="24" viewBox="0 0 24 24" stroke="none" xmlns="http://www.w3.org/2000/svg">
<path d="M18.4616 8.35L15.7507 11.14C15.4397 11.46 15.6535 12 16.0907 12H17.83C17.83 15.31 15.2162 18 12 18C11.2324 18 10.4842 17.85 9.81374 17.56C9.46394 17.41 9.06555 17.52 8.8032 17.79C8.30764 18.3 8.48255 19.16 9.13357 19.43C10.0178 19.8 10.9895 20 12 20C16.2948 20 19.7734 16.42 19.7734 12H21.5127C21.9499 12 22.1637 11.46 21.8528 11.15L19.1418 8.36C18.9572 8.16 18.6462 8.16 18.4616 8.35ZM6.16997 12C6.16997 8.69 8.78376 6 12 6C12.7676 6 13.5158 6.15 14.1863 6.44C14.5361 6.59 14.9345 6.48 15.1968 6.21C15.6924 5.7 15.5175 4.84 14.8664 4.57C13.9822 4.2 13.0105 4 12 4C7.70521 4 4.22662 7.58 4.22662 12H2.48733C2.05007 12 1.83631 12.54 2.14724 12.85L4.85821 15.64C5.05254 15.84 5.35376 15.84 5.5481 15.64L8.25906 12.85C8.56028 12.54 8.34651 12 7.90926 12H6.16997Z" />
</svg>
