<svg class="fill-current stroke-current w-full h-full" style="color: inherit" stroke-width="0.2" width="24" height="24" viewBox="0 0 24 24" stroke="none" xmlns="http://www.w3.org/2000/svg">
<path d="M10.9408 21H3.98684C2.88414 21 2 20.1 2 19L2.00993 5C2.00993 3.9 2.88414 3 3.98684 3H4.98026V2C4.98026 1.45 5.42729 1 5.97367 1C6.52005 1 6.96709 1.45 6.96709 2V3H14.9144V2C14.9144 1.45 15.3615 1 15.9079 1C16.4542 1 16.9013 1.45 16.9013 2V3H17.8947C18.9875 3 19.8815 3.9 19.8815 5V11H17.8947V9H3.98684V19H10.9408V21ZM21.0041 15.99L21.7094 15.28C22.0969 14.89 22.0969 14.26 21.7094 13.87L21.0041 13.16C20.6167 12.77 19.9908 12.77 19.6034 13.16L18.8981 13.87L21.0041 15.99ZM20.2988 16.7L15.3217 21.71C15.1429 21.89 14.8846 22 14.6264 22H13.4243C13.1462 22 12.9276 21.78 12.9276 21.5V20.29C12.9276 20.02 13.0369 19.77 13.2157 19.58L18.1927 14.57L20.2988 16.7Z" />
</svg>
