<svg class="fill-current stroke-current w-full h-full" style="color: inherit" stroke-width="0.2" width="24" height="24" viewBox="0 0 24 24" stroke="none" xmlns="http://www.w3.org/2000/svg">
<path d="M21.7172 2.71148L17.0522 7.35872H20.0954C20.646 7.35872 21.0965 7.80845 21.0965 8.35812C21.0965 8.90779 20.646 9.35752 20.0954 9.35752H14.6295C14.4994 9.35752 14.3693 9.32754 14.2491 9.27757C14.129 9.2276 14.0189 9.15764 13.9288 9.0577C13.9288 9.0577 13.9188 9.03771 13.9088 9.02772C13.8287 8.93777 13.7586 8.84783 13.7086 8.7279C13.6585 8.61796 13.6385 8.49804 13.6385 8.36811C13.6385 8.36811 13.6385 8.34813 13.6385 8.33813V2.91136C13.6385 2.36169 14.089 1.91196 14.6396 1.91196C15.1902 1.91196 15.6406 2.36169 15.6406 2.91136V5.94955L20.2957 1.29233C20.6861 0.902558 21.3168 0.902558 21.7072 1.29233C22.0976 1.68209 22.0976 2.31172 21.7072 2.70149L21.7172 2.71148ZM20.4358 14.5844C20.8863 15.1041 21.1165 15.7737 21.1065 16.4633V19.1717C21.1065 19.5615 21.0264 19.9512 20.8663 20.311C20.7061 20.6708 20.4759 20.9906 20.1855 21.2604C19.8952 21.5303 19.5549 21.7302 19.1845 21.8501C18.8941 21.95 18.5838 22 18.2835 22C18.2034 22 18.1133 22 18.0332 21.99C15.07 21.6702 12.2069 20.6508 9.72426 19.0518C7.42177 17.5926 5.42963 15.6038 3.95804 13.3052C2.3463 10.8267 1.3252 7.95836 1.01486 5.01011C0.97482 4.60036 1.01486 4.21059 1.145 3.84081C1.27514 3.47103 1.46535 3.13123 1.73564 2.8414C2.00593 2.55158 2.31627 2.32171 2.67666 2.16181C3.03704 2.0019 3.41745 1.92195 3.81789 1.92195H6.55083C7.24158 1.92195 7.89228 2.15181 8.41284 2.60155C8.9334 3.05128 9.27377 3.66092 9.36387 4.34051C9.47399 5.15003 9.66419 5.92957 9.94449 6.67912C10.1347 7.17882 10.1747 7.7285 10.0646 8.25818C9.9545 8.78786 9.69422 9.26758 9.31381 9.64735L8.71317 10.247C9.75429 11.866 11.1358 13.2352 12.7575 14.2746L13.3582 13.675C13.7486 13.2952 14.2291 13.0353 14.7597 12.9254C15.2903 12.8155 15.8308 12.8554 16.3414 13.0453C17.0922 13.3252 17.8831 13.525 18.6839 13.625C19.3747 13.7249 20.0053 14.0647 20.4458 14.5944L20.4358 14.5844ZM19.1044 16.4233C19.1044 16.2234 19.0443 16.0336 18.9142 15.8736C18.784 15.7237 18.6038 15.6238 18.4036 15.5938C17.4626 15.4739 16.5216 15.234 15.6306 14.9042C15.4805 14.8443 15.3203 14.8343 15.1701 14.8642C15.02 14.8942 14.8798 14.9742 14.7697 15.0841L13.6185 16.2334C13.2981 16.5532 12.8076 16.6132 12.4172 16.3933C9.98454 15.0142 7.96236 13.0054 6.58087 10.5768C6.36063 10.187 6.42069 9.69732 6.74104 9.37751L7.89228 8.2282C8.0024 8.11826 8.07248 7.97835 8.10251 7.82844C8.13254 7.67852 8.12253 7.51862 8.07248 7.36871C7.74212 6.47924 7.50186 5.5398 7.38173 4.60036C7.3517 4.41047 7.2616 4.23058 7.10143 4.11065C6.95127 3.98073 6.76106 3.91077 6.57086 3.91077H3.81789C3.70777 3.91077 3.58764 3.93076 3.48753 3.98073C3.38742 4.0307 3.28731 4.09066 3.21724 4.18061C3.13715 4.26056 3.0871 4.3605 3.04706 4.47043C3.00701 4.58037 2.997 4.6903 3.00701 4.80024C3.28731 7.41868 4.1983 9.98715 5.64986 12.2158C6.96128 14.2746 8.7432 16.0535 10.8054 17.3628C13.0378 18.8019 15.6006 19.7114 18.2334 20.0012C18.3335 20.0112 18.4437 20.0012 18.5538 19.9612C18.6639 19.9212 18.764 19.8713 18.8441 19.7913C18.9242 19.7114 18.9943 19.6214 19.0443 19.5215C19.0944 19.4115 19.1144 19.3016 19.1144 19.1917V16.4433L19.1044 16.4233Z" />
</svg>
