<svg class="fill-current stroke-current w-full h-full" style="color: inherit" stroke-width="0.2" width="24" height="24" viewBox="0 0 24 24" stroke="none" xmlns="http://www.w3.org/2000/svg">
<path d="M22 6.8301C22 7.37672 21.5527 7.82395 21.0059 7.82395H18.1628V10.6564C18.1628 11.203 17.7155 11.6503 17.1687 11.6503C16.622 11.6503 16.1746 11.203 16.1746 10.6564V7.81401H13.3315C12.7848 7.81401 12.3374 7.36678 12.3374 6.82016C12.3374 6.27354 12.7848 5.82631 13.3315 5.82631H16.1647V2.99385C16.1647 2.44723 16.612 2 17.1588 2C17.7055 2 18.1529 2.44723 18.1529 2.99385V5.83625H20.996C21.5427 5.83625 21.9901 6.28348 21.9901 6.8301H22ZM20.3001 15.6356C20.7474 16.1623 20.9761 16.8183 20.9661 17.504V20.1973C20.9661 20.575 20.8866 20.9626 20.7375 21.3204C20.5785 21.6782 20.3498 21.9962 20.0615 22.2646C19.7732 22.5329 19.4352 22.7317 19.0674 22.8509C18.7792 22.9503 18.471 23 18.1728 23C18.0833 23 18.0038 23 17.9143 22.9901C14.9718 22.672 12.1287 21.6583 9.66334 20.0681C7.37694 18.6171 5.3987 16.6394 3.93738 14.3535C2.3369 11.8888 1.32293 9.03644 1.01476 6.10459C0.974996 5.69711 1.01476 5.30951 1.14399 4.94179C1.27322 4.57407 1.4621 4.23616 1.7305 3.94794C1.99891 3.65973 2.30708 3.43114 2.66495 3.27213C3.02282 3.11311 3.40058 3.0336 3.79821 3.0336H6.51208C7.21788 3.0336 7.84416 3.27212 8.35114 3.70942C8.86807 4.15665 9.20606 4.7629 9.29553 5.43871C9.40488 6.23379 9.59376 7.01893 9.8721 7.76432C10.061 8.26124 10.1007 8.80786 9.99139 9.3346C9.88204 9.86134 9.62358 10.3384 9.24582 10.716L8.64937 11.3124C9.68322 12.9224 11.0551 14.284 12.6655 15.3176L13.2619 14.7213C13.6496 14.3436 14.1268 14.0852 14.6537 13.9759C15.1805 13.8665 15.7174 13.9063 16.2243 14.0951C16.9699 14.3734 17.7552 14.5722 18.5406 14.6716C19.2265 14.7709 19.8528 15.1089 20.3001 15.6356ZM18.978 17.4643C18.978 17.2655 18.9183 17.0767 18.7891 16.9177C18.6599 16.7686 18.4809 16.6692 18.2821 16.6394C17.3477 16.5201 16.4232 16.2816 15.5285 15.9536C15.3794 15.894 15.2203 15.8841 15.0712 15.9139C14.9221 15.9437 14.7829 16.0232 14.6736 16.1325L13.5304 17.2754C13.2122 17.5935 12.7251 17.6531 12.3374 17.4345C9.92181 16.0629 7.91374 14.0653 6.5419 11.6503C6.3232 11.2627 6.38285 10.7757 6.70095 10.4576L7.8541 9.31472C7.96345 9.2054 8.03303 9.06626 8.06286 8.91718C8.09268 8.7681 8.08274 8.60909 8.03303 8.46001C7.70499 7.56555 7.4664 6.64127 7.34711 5.70705C7.31729 5.51822 7.22782 5.33933 7.06877 5.22007C6.91965 5.09087 6.73078 5.0213 6.5419 5.0213H3.80815C3.6988 5.0213 3.57951 5.04117 3.4801 5.09087C3.38069 5.14056 3.28128 5.20019 3.2117 5.28964C3.13217 5.36914 3.08247 5.46853 3.0427 5.57785C3.00294 5.68717 2.993 5.7965 3.00294 5.90582C3.28128 8.5097 4.18591 11.0639 5.62734 13.2802C6.92959 15.3275 8.69908 17.0965 10.7469 18.3985C12.9637 19.8296 15.5086 20.734 18.123 21.0222C18.2225 21.0222 18.3318 21.0222 18.4412 20.9825C18.5505 20.9427 18.6499 20.893 18.7294 20.8135C18.809 20.734 18.8786 20.6446 18.9283 20.5452C18.968 20.4458 18.9979 20.3365 18.9979 20.2172V17.4742L18.978 17.4643Z" />
</svg>
