<svg class="fill-current stroke-current w-full h-full" style="color: inherit" stroke-width="0.2" width="24" height="24" viewBox="0 0 24 24" stroke="none" xmlns="http://www.w3.org/2000/svg">
<path d="M4.7752 12.7425C3.2441 10.3825 2.27341 7.6525 1.96319 4.8525C1.92316 4.4525 1.96319 4.0825 2.09328 3.7225C2.21337 3.3625 2.4035 3.0325 2.66369 2.7525C2.92387 2.4725 3.22409 2.2525 3.57434 2.0925C3.92459 1.9425 4.28485 1.8625 4.67512 1.8625H7.26698C7.93746 1.8925 8.5579 2.0925 9.06826 2.5225C9.56862 2.9525 9.89886 3.5525 9.98892 4.2125C10.089 4.9725 10.2791 5.7125 10.5393 6.4325C10.7194 6.9225 10.7595 7.4525 10.6494 7.9625C10.5393 8.4725 10.2891 8.9425 9.91887 9.3125L8.81808 10.4125C8.4278 10.8025 7.79735 10.8025 7.40708 10.4125C7.0168 10.0225 7.0168 9.3925 7.40708 9.0025L8.50786 7.9025C8.59793 7.8025 8.66798 7.6825 8.698 7.5425C8.72802 7.4025 8.71801 7.2625 8.66798 7.1325C8.34775 6.2725 8.12759 5.3825 8.00751 4.4825C7.98749 4.3125 7.89743 4.1625 7.76733 4.0425C7.62723 3.9225 7.45711 3.8625 7.28699 3.8625H4.68513C4.58506 3.8625 4.48499 3.8825 4.39493 3.9225C4.30486 3.9625 4.2148 4.0225 4.15475 4.1025C4.0847 4.1825 4.03467 4.2625 4.00465 4.3625C3.97462 4.4625 3.96462 4.5625 3.96462 4.6625C4.23481 7.1325 5.09543 9.5625 6.4564 11.6625C6.75661 12.1225 6.62652 12.7425 6.16619 13.0425C5.99607 13.1525 5.80593 13.2025 5.6258 13.2025C5.29557 13.2025 4.97534 13.0425 4.7852 12.7425H4.7752ZM21.7173 2.7125L11.8202 12.6025C12.2505 12.9625 12.6909 13.3125 13.1612 13.6225L13.7016 13.0825C14.0818 12.7125 14.5422 12.4625 15.0525 12.3525C15.5629 12.2425 16.0933 12.2825 16.5836 12.4625C17.2941 12.7325 18.0347 12.9125 18.7952 13.0125C19.4657 13.1025 20.0561 13.4325 20.4964 13.9325C20.9267 14.4325 21.1669 15.0725 21.1569 15.7325V18.3125C21.1569 18.6925 21.0768 19.0625 20.9267 19.4125C20.7766 19.7625 20.5565 20.0725 20.2763 20.3325C19.9861 20.5925 19.6658 20.7825 19.3056 20.9125C19.0254 21.0125 18.7352 21.0525 18.435 21.0525C18.3549 21.0525 18.2648 21.0525 18.1848 21.0425C15.3628 20.7325 12.6308 19.7625 10.2691 18.2325C9.45854 17.7125 8.698 17.1125 7.96748 16.4625L2.71372 21.7125C2.51358 21.9125 2.2634 22.0025 2.00322 22.0025C1.74303 22.0025 1.49285 21.9025 1.29271 21.7125C0.90243 21.3225 0.90243 20.6925 1.29271 20.3025L8.36776 13.2325L9.65868 11.9325C9.65868 11.9325 9.6787 11.9225 9.68871 11.9125L20.2963 1.2925C20.6866 0.9025 21.317 0.9025 21.7073 1.2925C22.0976 1.6825 22.0976 2.3125 21.7073 2.7025L21.7173 2.7125ZM10.3892 14.0325L9.83881 14.5825L9.35847 15.0625C9.97891 15.6125 10.6394 16.1025 11.3399 16.5525C13.4514 17.9225 15.8731 18.7825 18.3749 19.0525C18.455 19.0525 18.555 19.0525 18.6551 19.0125C18.7552 18.9825 18.8452 18.9325 18.9153 18.8525C18.9853 18.7825 19.0454 18.7025 19.0854 18.6125C19.1254 18.5225 19.1455 18.4225 19.1455 18.3225V15.7325C19.1455 15.5425 19.0854 15.3725 18.9653 15.2425C18.8452 15.1125 18.6951 15.0225 18.515 14.9925C17.6244 14.8725 16.7337 14.6525 15.8731 14.3325C15.743 14.2825 15.5929 14.2725 15.4628 14.3025C15.3327 14.3325 15.2026 14.4025 15.1026 14.5025L14.0118 15.5925C13.6916 15.9125 13.2012 15.9725 12.8109 15.7525C11.9503 15.2625 11.1297 14.6825 10.3892 14.0325Z" />
</svg>
