<svg class="fill-current stroke-current w-full h-full" style="color: inherit" stroke-width="0.2" width="24" height="24" viewBox="0 0 24 24" stroke="none" xmlns="http://www.w3.org/2000/svg">
<path d="M22 3V8.45C22 9 21.5499 9.45 20.9998 9.45C20.4496 9.45 19.9995 9 19.9995 8.45V5.41L15.3384 10.06C15.1483 10.25 14.8883 10.35 14.6282 10.35C14.3681 10.35 14.1181 10.25 13.918 10.06C13.5279 9.67 13.5279 9.04 13.918 8.65L18.5792 4H15.5384C14.9883 4 14.5382 3.55 14.5382 3C14.5382 2.45 14.9883 2 15.5384 2H20.9998C21.1298 2 21.2598 2.03 21.3798 2.08C21.4999 2.13 21.6099 2.2 21.6999 2.3C21.6999 2.3 21.7099 2.32 21.7199 2.33C21.7999 2.42 21.87 2.51 21.92 2.63C21.97 2.74 21.99 2.86 21.99 2.99C21.99 2.99 21.99 3.01 21.99 3.02L22 3ZM20.4196 15.59C20.8697 16.12 21.0998 16.78 21.0898 17.47V20.18C21.0898 20.56 21.0098 20.95 20.8597 21.31C20.6997 21.67 20.4696 21.99 20.1796 22.26C19.8895 22.53 19.5494 22.73 19.1793 22.85C18.8892 22.95 18.5792 23 18.2791 23C18.1891 23 18.109 23 18.019 22.99C15.0583 22.67 12.1976 21.65 9.71699 20.05C7.41642 18.59 5.42593 16.6 3.95557 14.3C2.34518 11.82 1.32493 8.95 1.01485 6C0.974841 5.59 1.01485 5.2 1.14488 4.83C1.27491 4.46 1.46496 4.12 1.73503 3.83C2.00509 3.54 2.31517 3.31 2.67526 3.15C3.03535 2.99 3.41544 2.91 3.81554 2.91H6.54621C7.25638 2.91 7.88654 3.15 8.39666 3.59C8.91679 4.04 9.25687 4.65 9.3469 5.33C9.45692 6.13 9.64697 6.92 9.92704 7.67C10.1171 8.17 10.1571 8.72 10.0471 9.25C9.93704 9.78 9.67698 10.26 9.29688 10.64L8.69673 11.24C9.73699 12.86 11.1173 14.23 12.7377 15.27L13.3379 14.67C13.728 14.29 14.2081 14.03 14.7382 13.92C15.2683 13.81 15.8085 13.85 16.3186 14.04C17.0688 14.32 17.859 14.52 18.6492 14.62C19.3393 14.72 19.9695 15.06 20.4196 15.59ZM19.0893 17.43C19.0893 17.23 19.0293 17.04 18.8992 16.88C18.7692 16.73 18.5892 16.63 18.3891 16.6C17.4489 16.48 16.5187 16.24 15.6184 15.91C15.4684 15.85 15.3084 15.84 15.1583 15.87C15.0083 15.9 14.8682 15.98 14.7582 16.09L13.6079 17.24C13.2879 17.56 12.7977 17.62 12.4076 17.4C9.97705 16.02 7.95655 14.01 6.57621 11.58C6.35616 11.19 6.41618 10.7 6.73625 10.38L7.89654 9.23C8.00657 9.12 8.07658 8.98 8.10659 8.83C8.1366 8.68 8.1266 8.52 8.07658 8.37C7.7465 7.47 7.50644 6.54 7.38641 5.6C7.35641 5.41 7.26638 5.23 7.10634 5.11C6.95631 4.98 6.76626 4.91 6.57621 4.91H3.82554C3.71551 4.91 3.59548 4.93 3.49546 4.98C3.39543 5.03 3.29541 5.09 3.22539 5.18C3.14537 5.26 3.09536 5.36 3.05535 5.47C3.01534 5.58 3.00534 5.69 3.01534 5.8C3.29541 8.42 4.20563 10.99 5.65599 13.22C6.96631 15.28 8.74675 17.06 10.8073 18.37C13.0378 19.81 15.5984 20.72 18.2291 21.01C18.3291 21.01 18.4391 21.01 18.5492 20.97C18.6592 20.93 18.7592 20.88 18.8392 20.8C18.9192 20.72 18.9893 20.63 19.0393 20.53C19.0793 20.43 19.1093 20.32 19.1093 20.2V17.44L19.0893 17.43Z" />
</svg>
