<svg class="fill-current stroke-current w-full h-full" style="color: inherit" stroke-width="0.2" width="24" height="24" viewBox="0 0 24 24" stroke="none" xmlns="http://www.w3.org/2000/svg">
<path d="M5.09165 16C5.02583 16 4.96 16 4.89417 16C4.30174 15.9557 3.73751 15.7073 3.32374 15.2993L1.7251 13.7916C1.4806 13.5698 1.29252 13.2949 1.17028 12.9933C1.04803 12.6918 0.991604 12.3725 1.00101 12.0443C1.01982 11.7162 1.10445 11.4058 1.25491 11.1131C1.40537 10.8204 1.62166 10.5721 1.88496 10.3592C3.84095 8.87805 6.14488 7.84035 8.57105 7.35255C10.8092 6.88248 13.1789 6.88248 15.417 7.35255C17.8526 7.84035 20.1659 8.87805 22.1031 10.3592C22.3758 10.5721 22.5921 10.8293 22.7426 11.1131C22.893 11.4058 22.9776 11.7162 22.9965 12.0355C23.0153 12.3548 22.9588 12.6741 22.8366 12.9756C22.7143 13.2772 22.5263 13.5521 22.2818 13.7738L20.6737 15.2905C20.26 15.6896 19.7051 15.929 19.1127 15.9734C18.5203 16.0177 17.9278 15.8581 17.4482 15.5122C16.9122 15.122 16.348 14.8027 15.7367 14.5455C15.3042 14.3592 14.9468 14.0665 14.6929 13.694C14.439 13.3215 14.298 12.8869 14.298 12.4435V11.8492C12.7934 11.5565 11.2417 11.5565 9.73712 11.8492V12.4346C9.73712 12.8869 9.59607 13.3126 9.34216 13.6851C9.08826 14.0576 8.72151 14.3503 8.28894 14.5366C7.6871 14.7938 7.11347 15.122 6.58685 15.5033C6.15428 15.8137 5.62767 15.9734 5.10106 15.9734L5.09165 16ZM12.0034 8.76275C10.9878 8.76275 9.96281 8.86918 8.97542 9.07317C6.82195 9.50776 4.78133 10.4213 3.07924 11.7162C3.03222 11.7517 2.9758 11.8137 2.93819 11.8847C2.90057 11.9557 2.88176 12.0266 2.88176 12.1064C2.88176 12.1774 2.89117 12.2572 2.91938 12.3282C2.94759 12.3991 2.99461 12.4612 3.05103 12.5144L4.65908 14.031C4.65908 14.031 4.66848 14.0399 4.67789 14.0488C4.77192 14.1463 4.90358 14.2084 5.04463 14.2173C5.18569 14.235 5.32675 14.1907 5.43959 14.1109C6.06965 13.6585 6.76553 13.2594 7.49902 12.9401C7.60246 12.8958 7.6871 12.8248 7.75292 12.7361C7.81875 12.6475 7.84696 12.5499 7.84696 12.4435V11.1663C7.84696 10.7672 8.12908 10.4213 8.54284 10.3149C10.8186 9.72062 13.2071 9.72062 15.4828 10.3149C15.8872 10.4213 16.1787 10.7672 16.1787 11.1752V12.4612C16.1787 12.5588 16.2069 12.6652 16.2728 12.7539C16.3292 12.8426 16.4138 12.9047 16.5173 12.949C17.2507 13.2594 17.9466 13.6585 18.5861 14.1197C18.6895 14.1907 18.84 14.2262 18.9716 14.2173C19.1127 14.2084 19.2443 14.1463 19.3384 14.0576L20.9558 12.5322C21.0123 12.4789 21.0593 12.4169 21.0875 12.3459C21.1157 12.2749 21.1345 12.1951 21.1251 12.1242C21.1251 12.0532 21.1063 11.9734 21.0687 11.9113C21.0311 11.8404 20.984 11.7871 20.9182 11.7339C19.2161 10.439 17.1755 9.5255 15.022 9.09091C14.0347 8.88692 13.019 8.78049 12.0128 8.78049L12.0034 8.76275Z" />
</svg>
