<svg class="fill-current stroke-current w-full h-full" style="color: inherit" stroke-width="0.2" width="24" height="24" viewBox="0 0 24 24" stroke="none" xmlns="http://www.w3.org/2000/svg">
<path d="M21.7099 7.3244L18.069 10.9557C17.869 11.1458 17.6189 11.2458 17.3589 11.2458C17.0988 11.2458 16.8487 11.1458 16.6487 10.9557C16.2586 10.5656 16.2586 9.93533 16.6487 9.5452L18.5792 7.62451H13.718C13.1678 7.62451 12.7177 7.17435 12.7177 6.62415C12.7177 6.07396 13.1678 5.62379 13.718 5.62379H18.5792L16.6487 3.70311C16.2586 3.31297 16.2586 2.68274 16.6487 2.2926C17.0388 1.90247 17.6689 1.90247 18.059 2.2926L21.6999 5.9239C21.7899 6.01393 21.87 6.12397 21.92 6.24402C21.97 6.36406 22 6.49411 22 6.63416C22 6.77421 21.97 6.89425 21.92 7.02429C21.87 7.14434 21.8 7.25438 21.6999 7.34441L21.7099 7.3244ZM20.4296 15.5773C20.8797 16.1075 21.1098 16.7678 21.0998 17.458V20.169C21.0998 20.5591 21.0198 20.9493 20.8597 21.3094C20.6997 21.6695 20.4696 21.9896 20.1796 22.2597C19.8895 22.5298 19.5494 22.7299 19.1793 22.8499C18.8892 22.95 18.5792 23 18.2791 23C18.1891 23 18.109 23 18.019 22.99C15.0583 22.6699 12.1976 21.6495 9.71699 20.0489C7.41642 18.5884 5.42593 16.5977 3.95557 14.2969C2.34518 11.816 1.32493 8.94498 1.01485 5.99393C0.974841 5.58378 1.01485 5.19364 1.14488 4.82351C1.27491 4.45338 1.46496 4.11325 1.73503 3.82315C2.00509 3.53305 2.31517 3.30297 2.67526 3.14291C3.03535 2.98285 3.41544 2.90282 3.81554 2.90282H6.54621C7.25638 2.90282 7.88654 3.14291 8.39666 3.58307C8.91679 4.03323 9.25687 4.64344 9.3469 5.32369C9.45692 6.13398 9.64697 6.91426 9.92704 7.66452C10.1171 8.1647 10.1571 8.7149 10.0471 9.24509C9.93704 9.77528 9.67698 10.2554 9.29688 10.6356L8.69673 11.2358C9.73699 12.8564 11.1173 14.2269 12.7377 15.2672L13.3379 14.667C13.728 14.2869 14.2081 14.0268 14.7382 13.9168C15.2683 13.8067 15.8085 13.8467 16.3186 14.0368C17.0688 14.3169 17.859 14.517 18.6592 14.617C19.3493 14.717 19.9795 15.0572 20.4196 15.5874L20.4296 15.5773ZM19.0993 17.418C19.0993 17.2179 19.0393 17.0279 18.9092 16.8678C18.7792 16.7178 18.5992 16.6177 18.3991 16.5877C17.4589 16.4677 16.5187 16.2276 15.6284 15.8975C15.4784 15.8374 15.3184 15.8274 15.1683 15.8574C15.0183 15.8875 14.8783 15.9675 14.7682 16.0775L13.6179 17.2279C13.2979 17.5481 12.8077 17.6081 12.4176 17.388C9.98705 16.0075 7.96656 13.9968 6.58622 11.5659C6.36616 11.1758 6.42618 10.6856 6.74626 10.3655L7.89654 9.21508C8.00657 9.10504 8.07658 8.96499 8.10659 8.81493C8.1366 8.66488 8.1266 8.50482 8.07658 8.35477C7.7465 7.46445 7.50644 6.52412 7.38641 5.58378C7.35641 5.39371 7.26638 5.21365 7.10634 5.09361C6.95631 4.96356 6.76626 4.89353 6.57621 4.89353H3.82554C3.71551 4.89353 3.59548 4.91354 3.49546 4.96356C3.39543 5.01358 3.29541 5.0736 3.22539 5.16363C3.14537 5.24366 3.09536 5.34369 3.05535 5.45373C3.01534 5.56377 3.00534 5.67381 3.01534 5.78385C3.29541 8.40479 4.20563 10.9757 5.65599 13.2065C6.96631 15.2672 8.74675 17.0479 10.8073 18.3583C13.0378 19.7989 15.5984 20.7092 18.2291 20.9993C18.3291 20.9993 18.4391 20.9993 18.5492 20.9593C18.6592 20.9193 18.7592 20.8692 18.8392 20.7892C18.9192 20.7092 18.9893 20.6192 19.0393 20.5191C19.0893 20.4091 19.1093 20.299 19.1093 20.189V17.438L19.0993 17.418Z" />
</svg>
