<svg class="fill-current stroke-current w-full h-full" style="color: inherit" stroke-width="0.2" width="24" height="24" viewBox="0 0 24 24" stroke="none" xmlns="http://www.w3.org/2000/svg">
<path d="M19.3513 20H4.63868C3.94903 20 3.28936 19.74 2.78961 19.27C2.28986 18.79 2 18.13 2 17.45V8.89C2 8.21 2.28986 7.54 2.78961 7.07C3.27936 6.6 3.93903 6.34 4.63868 6.34H7.38731L8.72664 4.43C8.91654 4.16 9.21639 4 9.54623 4H14.4538C14.7836 4 15.0835 4.16 15.2734 4.43L16.6127 6.34H19.3613C20.061 6.34 20.7106 6.6 21.2104 7.07C21.7101 7.55 22 8.21 22 8.89V17.44C22 18.12 21.7101 18.79 21.2104 19.27C20.7206 19.74 20.061 20 19.3613 20H19.3513ZM4.63868 8.33C4.45877 8.33 4.28886 8.4 4.16892 8.51C4.05897 8.61 3.999 8.75 3.999 8.89V17.44C3.999 17.58 4.05897 17.71 4.16892 17.81C4.28886 17.93 4.45877 17.99 4.63868 17.99H19.3613C19.5412 17.99 19.7111 17.92 19.8311 17.81C19.941 17.71 20.001 17.57 20.001 17.43V8.89C20.001 8.75 19.941 8.62 19.8311 8.51C19.7111 8.4 19.5412 8.33 19.3613 8.33H16.093C15.7631 8.33 15.4633 8.17 15.2734 7.9L13.934 5.99H10.066L8.72664 7.9C8.53673 8.17 8.23688 8.33 7.90705 8.33H4.63868ZM11.995 16.89C9.63618 16.89 7.72714 15.05 7.72714 12.78C7.72714 10.51 9.64618 8.67 11.995 8.67C14.3438 8.67 16.2629 10.51 16.2629 12.78C16.2629 15.05 14.3438 16.89 11.995 16.89ZM11.995 10.67C10.7456 10.67 9.72614 11.62 9.72614 12.78C9.72614 13.94 10.7456 14.89 11.995 14.89C13.2444 14.89 14.2639 13.94 14.2639 12.78C14.2639 11.62 13.2444 10.67 11.995 10.67V10.67Z" />
</svg>
