<svg class="fill-current stroke-current w-full h-full" style="color: inherit" stroke-width="0.2" width="24" height="24" viewBox="0 0 24 24" stroke="none" xmlns="http://www.w3.org/2000/svg">
<path d="M20.1512 17.7525L15.7441 13.3425C15.7441 13.3425 15.7241 13.3225 15.7141 13.3125L11.4469 9.0425L11.417 9.0125L8.55884 6.1525L4.71137 2.2925C4.32163 1.9025 3.68205 1.9025 3.29231 2.2925C2.90256 2.6825 2.90256 3.3225 3.29231 3.7125L5.46088 5.8725C4.81131 5.8925 4.2117 6.1525 3.75201 6.6125C3.27232 7.0925 3.0025 7.7325 3.0025 8.4125V16.9125C3.0025 17.5925 3.26233 18.2325 3.75201 18.7125C4.23169 19.1925 4.87127 19.4625 5.55082 19.4625H19.032L20.2811 20.7125C20.481 20.9125 20.7308 21.0025 20.9907 21.0025C21.2505 21.0025 21.5003 20.9025 21.7002 20.7125C22.0899 20.3225 22.0899 19.6925 21.7002 19.3025L20.1512 17.7525ZM13.6155 14.0425C13.6155 14.0425 13.5655 14.0825 13.5356 14.0925C13.2757 14.2525 12.9759 14.3425 12.6661 14.3725C12.3563 14.4025 12.0465 14.3625 11.7667 14.2525C11.4769 14.1525 11.2171 13.9825 10.9972 13.7625C10.7774 13.5425 10.6075 13.2825 10.5076 12.9925C10.4076 12.7025 10.3677 12.3925 10.3876 12.0925C10.4176 11.7925 10.5176 11.4925 10.6675 11.2225C10.6874 11.1925 10.6974 11.1625 10.7174 11.1425L13.6055 14.0325L13.6155 14.0425ZM5.55082 17.4525C5.40092 17.4525 5.27101 17.3925 5.16108 17.2925C5.06114 17.1925 5.00118 17.0525 5.00118 16.9025V8.4125C5.00118 8.2625 5.06114 8.1325 5.16108 8.0225C5.26101 7.9125 5.40092 7.8625 5.55082 7.8625H7.44957L9.29836 9.7125C9.16844 9.8725 9.05851 10.0325 8.94859 10.2125C8.64878 10.7225 8.45891 11.3125 8.39895 11.9125C8.33899 12.5025 8.41893 13.1125 8.6288 13.6825C8.82867 14.2425 9.15845 14.7625 9.58817 15.1825C10.0079 15.6025 10.5275 15.9325 11.0872 16.1425C11.6468 16.3425 12.2664 16.4225 12.856 16.3725C13.4556 16.3125 14.0352 16.1225 14.5449 15.8225C14.7148 15.7225 14.8847 15.6025 15.0446 15.4725L17.0233 17.4525H5.55082V17.4525ZM21.2405 6.6125C20.7708 6.1425 20.1112 5.8625 19.4417 5.8625H16.8834L15.6342 3.9925C15.4443 3.7125 15.1345 3.5425 14.8047 3.5425H10.1778C9.77804 3.5425 9.40828 3.7825 9.25838 4.1525C9.09849 4.5225 9.17843 4.9525 9.46824 5.2425L20.2811 16.3225C20.471 16.5225 20.7308 16.6225 21.0007 16.6225C21.1306 16.6225 21.2505 16.6025 21.3804 16.5525C21.7602 16.4025 22 16.0325 22 15.6225V8.4125C22 7.7325 21.7302 7.0925 21.2505 6.6125H21.2405ZM19.9913 13.1725L12.5562 5.5525H14.2851L15.5343 7.4225C15.7241 7.7025 16.0339 7.8725 16.3637 7.8725H19.4517C19.5916 7.8725 19.7315 7.9325 19.8414 8.0325C19.9414 8.1325 20.0013 8.2725 20.0013 8.4225V13.1825L19.9913 13.1725Z" />
</svg>
