<svg class="fill-current stroke-current w-full h-full" style="color: inherit" stroke-width="0.2" width="24" height="24" viewBox="0 0 24 24" stroke="none" xmlns="http://www.w3.org/2000/svg">
<path d="M18.22 3H5.78C4.25 3 3 4.25 3 5.78V18.22C3 19.75 4.25 21 5.78 21H18.22C19.75 21 21 19.75 21 18.22V5.78C21 4.25 19.75 3 18.22 3ZM19 18.22C19 18.65 18.65 19 18.22 19H5.78C5.35 19 5 18.65 5 18.22V5.78C5 5.35 5.35 5 5.78 5H18.22C18.65 5 19 5.35 19 5.78V18.22ZM15.37 10.04L13.41 12L15.37 13.96C15.76 14.35 15.76 14.98 15.37 15.37C15.17 15.57 14.92 15.66 14.66 15.66C14.4 15.66 14.15 15.56 13.95 15.37L11.99 13.41L10.03 15.37C9.83 15.57 9.58 15.66 9.32 15.66C9.06 15.66 8.81 15.56 8.61 15.37C8.22 14.98 8.22 14.35 8.61 13.96L10.57 12L8.61 10.04C8.22 9.65 8.22 9.02 8.61 8.63C9 8.24 9.63 8.24 10.02 8.63L11.98 10.59L13.94 8.63C14.33 8.24 14.96 8.24 15.35 8.63C15.74 9.02 15.74 9.65 15.35 10.04H15.37Z" />
</svg>
