<svg class="fill-current stroke-current w-full h-full" style="color: inherit" stroke-width="0.2" width="24" height="24" viewBox="0 0 24 24" stroke="none" xmlns="http://www.w3.org/2000/svg">
<path fill-rule="evenodd" clip-rule="evenodd" d="M7.62318 4.41664L6.3153 5.70886L13.3275 15.726L16.1546 12.9112L7.62318 4.41664ZM20.4706 14.3837C20.4706 14.3837 20.4404 14.3537 20.4203 14.3337L8.32742 2.293C7.93506 1.90233 7.30124 1.90233 6.90888 2.293L4.29313 4.88745C3.95107 5.22804 3.90076 5.76896 4.18246 6.16965L11.8788 17.1685C11.8788 17.1685 11.8486 17.1986 11.8285 17.2186C11.1343 17.9599 11.1041 19.1018 11.748 19.8732C11.7883 19.9232 11.8285 19.9633 11.8688 20.0034L13.2873 21.4158C13.2873 21.4158 13.3778 21.4959 13.4181 21.536C14.1927 22.1771 15.3397 22.1571 16.0841 21.4559C16.1043 21.4358 16.1143 21.4258 16.1344 21.4058L20.4001 17.1585C20.4001 17.1585 20.4404 17.1184 20.4605 17.0984C21.1849 16.3271 21.1748 15.135 20.4605 14.3737L20.4706 14.3837ZM18.9916 15.7461L17.5731 14.3337L13.3074 18.5809L14.726 19.9934L18.9916 15.7461V15.7461Z" />
</svg>
