<svg class="fill-current stroke-current w-full h-full" style="color: inherit" stroke-width="0.2" width="24" height="24" viewBox="0 0 24 24" stroke="none" xmlns="http://www.w3.org/2000/svg">
<path d="M19 3H5C3.9 3 3 3.9 3 5V19C3 20.1 3.9 21 5 21H19C20.1 21 21 20.1 21 19V5C21 3.9 20.1 3 19 3ZM19 19H5V5H19V19ZM7.5 18C8.33 18 9 17.33 9 16.5C9 15.67 8.33 15 7.5 15C6.67 15 6 15.67 6 16.5C6 17.33 6.67 18 7.5 18ZM7.5 9C8.33 9 9 8.33 9 7.5C9 6.67 8.33 6 7.5 6C6.67 6 6 6.67 6 7.5C6 8.33 6.67 9 7.5 9ZM12 13.5C12.83 13.5 13.5 12.83 13.5 12C13.5 11.17 12.83 10.5 12 10.5C11.17 10.5 10.5 11.17 10.5 12C10.5 12.83 11.17 13.5 12 13.5ZM16.5 18C17.33 18 18 17.33 18 16.5C18 15.67 17.33 15 16.5 15C15.67 15 15 15.67 15 16.5C15 17.33 15.67 18 16.5 18ZM16.5 9C17.33 9 18 8.33 18 7.5C18 6.67 17.33 6 16.5 6C15.67 6 15 6.67 15 7.5C15 8.33 15.67 9 16.5 9Z" />
</svg>
