<svg class="fill-current stroke-current w-full h-full" style="color: inherit" stroke-width="0.2" width="24" height="24" viewBox="0 0 24 24" stroke="none" xmlns="http://www.w3.org/2000/svg">
<path d="M14.75 11.75C14.8 11.75 14.8584 11.7333 14.925 11.7L18.175 9.825C18.2417 9.79167 18.2917 9.74583 18.325 9.6875C18.3584 9.62917 18.375 9.56667 18.375 9.5C18.375 9.43333 18.3584 9.37083 18.325 9.3125C18.2917 9.25417 18.2417 9.20833 18.175 9.175L14.925 7.3C14.925 7.3 14.8667 7.28333 14.75 7.25C14.7 7.25 14.6417 7.26667 14.575 7.3L11.325 9.175C11.2584 9.20833 11.2084 9.25417 11.175 9.3125C11.1417 9.37083 11.125 9.43333 11.125 9.5C11.125 9.56667 11.1417 9.62917 11.175 9.6875C11.2084 9.74583 11.2584 9.79167 11.325 9.825L14.575 11.7C14.575 11.7 14.6334 11.7167 14.75 11.75ZM14.75 14.725C14.8167 14.725 14.8792 14.7167 14.9375 14.7C14.9959 14.6833 15.0584 14.6583 15.125 14.625L17.125 13.475C17.2417 13.4083 17.3334 13.3167 17.4 13.2C17.4667 13.0833 17.5 12.9583 17.5 12.825V11.15L14.75 12.75L12 11.15V12.825C12 12.9583 12.0334 13.0833 12.1 13.2C12.1667 13.3167 12.2584 13.4083 12.375 13.475L14.375 14.625C14.4417 14.6583 14.5042 14.6833 14.5625 14.7C14.6209 14.7167 14.6834 14.725 14.75 14.725ZM3.52502 4H20.525C20.9084 4 21.2542 4.15417 21.5625 4.4625C21.8709 4.77083 22.025 5.11667 22.025 5.5V18.5C22.025 18.8833 21.8709 19.2292 21.5625 19.5375C21.2542 19.8458 20.9084 20 20.525 20H12.775C12.5584 20 12.3792 19.9292 12.2375 19.7875C12.0959 19.6458 12.025 19.4667 12.025 19.25C12.025 19.0333 12.0959 18.8542 12.2375 18.7125C12.3792 18.5708 12.5584 18.5 12.775 18.5H20.525V5.5H3.52502V9.15C3.52502 9.35 3.45002 9.525 3.30002 9.675C3.15002 9.825 2.97502 9.9 2.77502 9.9C2.55836 9.9 2.37919 9.82917 2.23752 9.6875C2.09586 9.54583 2.02502 9.36667 2.02502 9.15V5.5C2.02502 5.11667 2.17502 4.77083 2.47502 4.4625C2.77502 4.15417 3.12502 4 3.52502 4ZM2.40002 20H4.12502C4.24169 20 4.33752 19.9583 4.41252 19.875C4.48752 19.7917 4.51669 19.7 4.50002 19.6C4.41669 19.05 4.18336 18.5708 3.80002 18.1625C3.41669 17.7542 2.95836 17.5083 2.42502 17.425C2.32502 17.4083 2.23336 17.4375 2.15002 17.5125C2.06669 17.5875 2.02502 17.6833 2.02502 17.8V19.625C2.02502 19.725 2.06252 19.8125 2.13752 19.8875C2.21252 19.9625 2.30002 20 2.40002 20ZM6.77502 20C6.99169 20 7.17086 19.925 7.31252 19.775C7.45419 19.625 7.50836 19.45 7.47502 19.25C7.30836 18 6.79169 16.9292 5.92502 16.0375C5.05836 15.1458 4.00836 14.6167 2.77502 14.45C2.57502 14.4167 2.40002 14.4708 2.25002 14.6125C2.10002 14.7542 2.02502 14.9333 2.02502 15.15C2.02502 15.3333 2.09586 15.5083 2.23752 15.675C2.37919 15.8417 2.55836 15.9417 2.77502 15.975C3.59169 16.125 4.28752 16.5 4.86252 17.1C5.43752 17.7 5.80002 18.4167 5.95002 19.25C5.98336 19.4667 6.07919 19.6458 6.23752 19.7875C6.39586 19.9292 6.57502 20 6.77502 20ZM9.80002 20C10 20 10.1709 19.925 10.3125 19.775C10.4542 19.625 10.5167 19.45 10.5 19.25C10.4167 18.2167 10.1584 17.2458 9.72502 16.3375C9.29169 15.4292 8.73336 14.625 8.05002 13.925C7.36669 13.225 6.57502 12.6542 5.67502 12.2125C4.77502 11.7708 3.80836 11.5083 2.77502 11.425C2.57502 11.4083 2.40002 11.4708 2.25002 11.6125C2.10002 11.7542 2.02502 11.9333 2.02502 12.15C2.02502 12.35 2.09586 12.525 2.23752 12.675C2.37919 12.825 2.55836 12.9167 2.77502 12.95C4.44169 13.1333 5.84586 13.8125 6.98752 14.9875C8.12919 16.1625 8.79169 17.5833 8.97502 19.25C9.00836 19.4667 9.10002 19.6458 9.25002 19.7875C9.40002 19.9292 9.58336 20 9.80002 20Z" />
</svg>
