<svg class="fill-current stroke-current w-full h-full" style="color: inherit" stroke-width="0.2" width="24" height="24" viewBox="0 0 24 24" stroke="none" xmlns="http://www.w3.org/2000/svg">
<path d="M8.54 11.0025H15.47C16.24 11.0025 16.72 10.1725 16.34 9.5025L12.88 3.5025C12.5 2.8325 11.53 2.8325 11.15 3.5025L7.69 9.5025C7.31 10.1725 7.79 11.0025 8.56 11.0025H8.54ZM12 6.0025L13.73 9.0025H10.27L12 6.0025ZM9 13.0025H5C3.9 13.0025 3 13.9025 3 15.0025V19.0025C3 20.1025 3.9 21.0025 5 21.0025H9C10.1 21.0025 11 20.1025 11 19.0025V15.0025C11 13.9025 10.1 13.0025 9 13.0025ZM9 19.0025H5V15.0025H9V19.0025ZM17 13.0025C14.79 13.0025 13 14.7925 13 17.0025C13 19.2125 14.79 21.0025 17 21.0025C19.21 21.0025 21 19.2125 21 17.0025C21 14.7925 19.21 13.0025 17 13.0025ZM17 19.0025C15.9 19.0025 15 18.1025 15 17.0025C15 15.9025 15.9 15.0025 17 15.0025C18.1 15.0025 19 15.9025 19 17.0025C19 18.1025 18.1 19.0025 17 19.0025Z" />
</svg>
