<svg class="fill-current stroke-current w-full h-full" style="color: inherit" stroke-width="0.2" width="24" height="24" viewBox="0 0 24 24" stroke="none" xmlns="http://www.w3.org/2000/svg">
<path d="M9.56165 7.21792C10.0515 6.72755 10.0515 5.91025 9.56165 5.41987L9.50042 5.35858C9.20445 5.06231 9.20445 4.57193 9.50042 4.27566C9.79638 3.96917 10.2863 3.96917 10.5924 4.27566L10.6435 4.32674C11.7355 5.41987 11.7355 7.20771 10.6435 8.30084L10.5822 8.36214C10.2863 8.65841 9.79638 8.65841 9.50042 8.36214C9.20445 8.06587 9.20445 7.57549 9.50042 7.27922L9.56165 7.21792ZM11.5416 9.32246C11.2456 9.61873 11.2456 10.1091 11.5416 10.4054C11.8375 10.7016 12.3274 10.7016 12.6234 10.4054L15.7463 7.27922C16.8383 6.18609 16.8383 4.39825 15.7463 3.30512L14.6645 2.2222C14.3685 1.92593 13.8787 1.92593 13.5827 2.2222C13.2867 2.51847 13.2867 3.00885 13.5827 3.30512L14.6645 4.38804C15.1544 4.88863 15.1544 5.70593 14.6645 6.1963L11.5416 9.32246ZM13.348 15.2683C14.4094 16.3308 14.0011 18.139 12.5927 18.6396L3.3668 21.9395C2.55034 22.2255 1.77471 21.4491 2.06047 20.6318L5.35691 11.3963C5.86719 9.98651 7.66339 9.57787 8.72479 10.6404L13.348 15.2683ZM11.909 16.719L7.28578 12.0911L4.71395 19.2935L11.909 16.719ZM22.778 6.2576L22.7168 6.1963C21.6248 5.10317 19.8388 5.10317 18.7468 6.1963L13.5827 11.3657C13.2867 11.662 13.2867 12.1523 13.5827 12.4486C13.8787 12.7449 14.3685 12.7449 14.6645 12.4486L19.8286 7.27922C20.3287 6.77863 21.1349 6.77863 21.635 7.27922L21.6962 7.34052C21.9922 7.63679 22.4821 7.63679 22.778 7.34052C23.074 7.04425 23.074 6.55387 22.778 6.2576ZM20.6757 12.326C19.5734 11.2329 17.7976 11.2329 16.7056 12.326L15.6238 13.4089C15.3279 13.7052 15.3279 14.1956 15.6238 14.4919C15.9198 14.7881 16.4097 14.7881 16.7056 14.4919L17.7874 13.4089C18.2875 12.9083 19.0938 12.9083 19.5938 13.4089L20.6961 14.5123C20.992 14.8086 21.4819 14.8086 21.7779 14.5123C22.0738 14.216 22.0738 13.7256 21.7779 13.4294L20.6757 12.326Z" />
</svg>
