<svg class="fill-current stroke-current w-full h-full" style="color: inherit" stroke-width="0.2" width="24" height="24" viewBox="0 0 24 24" stroke="none" xmlns="http://www.w3.org/2000/svg">
<path d="M7.9 13.988L7.99 13.8967C8.26 13.6229 8.31 13.1767 8.07 12.8724C7.36 11.9495 7 10.8542 7 9.82989C7 8.73458 7.35 7.63927 8.04 6.77722C8.29 6.47297 8.25 6.01659 7.97 5.74276L7.9 5.67177C7.56 5.32695 7 5.36752 6.7 5.7529C5.79 6.94963 5.3 8.38976 5.3 9.82989C5.3 11.27 5.79 12.7102 6.7 13.9069C7 14.2923 7.56 14.3328 7.9 13.988ZM18.51 3.22761L18.43 3.30874C18.13 3.61299 18.14 4.07951 18.4 4.40405C19.66 5.95574 20.3 7.93338 20.3 9.82989C20.3 11.7264 19.67 13.6939 18.4 15.2557C18.12 15.5904 18.17 16.0975 18.48 16.4119C18.83 16.7669 19.41 16.7263 19.72 16.3409C21.29 14.4342 22 12.1726 22 9.82989C22 7.48715 21.21 5.21539 19.69 3.30874C19.39 2.9335 18.84 2.89293 18.51 3.22761ZM5.57 3.30874L5.49 3.22761C5.16 2.89293 4.61 2.9335 4.31 3.30874C2.79 5.21539 2 7.477 2 9.82989C2 12.1828 2.79 14.4444 4.31 16.351C4.61 16.7263 5.16 16.777 5.49 16.4322L5.57 16.351C5.87 16.0468 5.86 15.5803 5.6 15.2557C4.33 13.6939 3.7 11.7264 3.7 9.82989C3.7 7.93338 4.33 5.96588 5.6 4.40405C5.86 4.07951 5.87 3.61299 5.57 3.30874ZM16.07 13.9576C16.43 14.3227 17.02 14.2821 17.33 13.8663C18.23 12.6696 18.7 11.2497 18.7 9.82989C18.62 8.3999 18.19 6.95977 17.3 5.76305C17.01 5.36752 16.44 5.32695 16.1 5.67177L16.02 5.7529C15.75 6.02673 15.7 6.47297 15.94 6.77722C16.64 7.71026 17 8.80557 17 9.82989C17 10.9151 16.66 11.9901 15.99 12.8521C15.73 13.1767 15.77 13.6533 16.07 13.9576ZM14.5 9.82989C14.5 8.20721 12.99 6.93949 11.32 7.38573C10.52 7.5987 9.86 8.24778 9.62 9.05912C9.3 10.1341 9.68 11.128 10.38 11.7365L7.42 20.7323C7.21 21.3611 7.67 22 8.32 22C8.73 22 9.09 21.7363 9.22 21.3408L9.67 19.9716H14.34L14.79 21.3408C14.92 21.7363 15.28 22 15.69 22C16.34 22 16.79 21.3611 16.59 20.7323L13.63 11.7365C14.16 11.27 14.5 10.6007 14.5 9.82989ZM10.33 17.9433L12 12.8724L13.67 17.9433H10.33Z" />
</svg>
