<svg class="fill-current stroke-current w-full h-full" style="color: inherit" stroke-width="0.2" width="24" height="24" viewBox="0 0 24 24" stroke="none" xmlns="http://www.w3.org/2000/svg">
<path d="M10.5546 13.5394L8.698 11.6827C8.49432 11.479 8.24277 11.3772 7.94334 11.3772C7.64391 11.3772 7.37843 11.4869 7.14689 11.7062C6.9432 11.9256 6.84136 12.1841 6.84136 12.4818C6.84136 12.7795 6.95104 13.0302 7.17039 13.2338L9.75558 15.8425C9.98206 16.0619 10.2463 16.1716 10.5482 16.1716C10.8502 16.1716 11.1187 16.0619 11.3537 15.8425L17.6216 9.55112C17.8566 9.33177 17.9741 9.07629 17.9741 8.7847C17.9741 8.49311 17.8566 8.23154 17.6216 8C17.4023 7.79632 17.139 7.69839 16.8317 7.70623C16.5244 7.71406 16.2629 7.81982 16.047 8.0235L10.5546 13.5394ZM11.9915 22C10.6106 22 9.31307 21.7408 8.09901 21.2225C6.88494 20.7041 5.8241 19.9911 4.91647 19.0835C4.00885 18.1759 3.29587 17.1161 2.77753 15.9042C2.25918 14.6923 2 13.3959 2 12.015C2 10.6184 2.25918 9.31307 2.77753 8.09901C3.29587 6.88494 4.00762 5.82761 4.91278 4.927C5.81795 4.02638 6.87705 3.3134 8.09011 2.78804C9.30316 2.26268 10.6008 2 11.9831 2C13.381 2 14.6879 2.26208 15.9038 2.78623C17.1197 3.31036 18.1774 4.0217 19.0768 4.92024C19.9762 5.81877 20.6883 6.87539 21.213 8.09008C21.7377 9.30476 22 10.612 22 12.0118C22 13.3948 21.7373 14.6933 21.212 15.9071C20.6866 17.1209 19.9736 18.1807 19.073 19.0864C18.1724 19.9921 17.1161 20.7041 15.9042 21.2225C14.6923 21.7408 13.3881 22 11.9915 22Z" />
</svg>
