<svg class="fill-current stroke-current w-full h-full" style="color: inherit" stroke-width="0.2" width="24" height="24" viewBox="0 0 24 24" stroke="none" xmlns="http://www.w3.org/2000/svg">
<path d="M21.5998 18.2L12.9998 11.75V10.84C14.6498 10.35 15.7998 8.67 15.4298 6.79C15.1698 5.48 14.1298 4.39 12.8198 4.09C11.0598 3.69 9.44977 4.62 8.79977 6.07C8.49977 6.74 8.97977 7.5 9.70977 7.5C10.0998 7.5 10.4598 7.28 10.6098 6.93C10.8398 6.38 11.3698 6 11.9998 6C12.8298 6 13.4998 6.67 13.4998 7.5C13.4998 8.34 12.8098 9.02 11.9698 9C11.4298 8.99 10.9998 9.45 10.9998 9.99V11.75L2.39977 18.2C1.62977 18.78 2.03977 20 2.99977 20H11.9998H20.9998C21.9598 20 22.3698 18.78 21.5998 18.2ZM5.99977 18L11.9998 13.5L17.9998 18H5.99977Z" />
</svg>
