<svg class="fill-current stroke-current w-full h-full" style="color: inherit" stroke-width="0.2" width="24" height="24" viewBox="0 0 24 24" stroke="none" xmlns="http://www.w3.org/2000/svg">
<path d="M22 8.59151C22 8.05106 21.5406 7.60888 20.9792 7.60888H13.8336C13.2722 7.60888 12.8128 8.05106 12.8128 8.59151C12.8128 9.13195 13.2722 9.57414 13.8336 9.57414H20.9792C21.5406 9.57414 22 9.13195 22 8.59151ZM12.8128 16.4525C12.8128 16.993 13.2722 17.4352 13.8336 17.4352H20.9792C21.5406 17.4352 22 16.993 22 16.4525C22 15.9121 21.5406 15.4699 20.9792 15.4699H13.8336C13.2722 15.4699 12.8128 15.9121 12.8128 16.4525ZM10.2302 5.28005C10.6283 5.66327 10.6283 6.28233 10.2302 6.66556L5.91221 10.8417C5.5141 11.225 4.871 11.225 4.46268 10.8417L2.29858 8.74873C1.90047 8.3655 1.90047 7.74645 2.29858 7.36322C2.6967 6.98 3.3398 6.98 3.73791 7.36322L5.18744 8.75855L8.80107 5.28005C9.18897 4.90665 9.84229 4.90665 10.2302 5.28005ZM10.2404 13.1509C10.6385 13.5341 10.6385 14.1532 10.2404 14.5364L5.92242 18.7126C5.52431 19.0958 4.8812 19.0958 4.47288 18.7126L2.29858 16.6098C1.90047 16.2265 1.90047 15.6075 2.29858 15.2242C2.6967 14.841 3.3398 14.841 3.73791 15.2242L5.18744 16.6196L8.80107 13.1411C9.18897 12.7677 9.84229 12.7677 10.2404 13.1509Z" />
</svg>
