<svg class="fill-current stroke-current w-full h-full" style="color: inherit" stroke-width="0.2" width="24" height="24" viewBox="0 0 24 24" stroke="none" xmlns="http://www.w3.org/2000/svg">
<path d="M13.0011 17.99C12.7408 17.99 12.4905 17.8901 12.2903 17.7003C11.8999 17.3107 11.8999 16.6814 12.2903 16.2918L16.5849 12.0062L12.2903 7.72071C11.8999 7.33111 11.8999 6.70177 12.2903 6.31217C12.6807 5.92258 13.3114 5.92258 13.7018 6.31217L18.7072 11.307C19.0976 11.6966 19.0976 12.3259 18.7072 12.7155L13.7018 17.7103C13.5016 17.9101 13.2513 18 12.9911 18L13.0011 17.99ZM6.70433 17.7003L11.7097 12.7055C12.1001 12.3159 12.1001 11.6866 11.7097 11.297L6.70433 6.2922C6.31391 5.9026 5.68323 5.9026 5.29281 6.2922C4.9024 6.68179 4.9024 7.31113 5.29281 7.70073L9.58741 11.9863L5.29281 16.2718C4.9024 16.6614 4.9024 17.2907 5.29281 17.6803C5.49303 17.8801 5.7433 17.97 6.00358 17.97C6.26385 17.97 6.51412 17.8701 6.71434 17.6803L6.70433 17.7003Z" />
</svg>
