<svg class="fill-current stroke-current w-full h-full" style="color: inherit" stroke-width="0.2" width="24" height="24" viewBox="0 0 24 24" stroke="none" xmlns="http://www.w3.org/2000/svg">
<path d="M17.7074 17.2957C18.0975 17.6861 18.0975 18.3168 17.7074 18.7072C17.5073 18.9074 17.2572 18.9975 16.9971 18.9975C16.737 18.9975 16.4869 18.8974 16.2868 18.7072L11.995 14.4126L7.70321 18.7072C7.31305 19.0976 6.68278 19.0976 6.29262 18.7072C5.90246 18.3168 5.90246 17.6861 6.29262 17.2957L11.2947 12.2903C11.6849 11.8999 12.3151 11.8999 12.7053 12.2903L17.7074 17.2957ZM7.70321 11.7097L11.995 7.41509L16.2868 11.7097C16.4869 11.9099 16.737 12 16.9971 12C17.2572 12 17.5073 11.8999 17.7074 11.7097C18.0975 11.3193 18.0975 10.6886 17.7074 10.2982L12.7053 5.29281C12.3151 4.9024 11.6849 4.9024 11.2947 5.29281L6.29262 10.2982C5.90246 10.6886 5.90246 11.3193 6.29262 11.7097C6.68278 12.1001 7.31305 12.1001 7.70321 11.7097Z" />
</svg>
