<svg class="fill-current stroke-current w-full h-full" style="color: inherit" stroke-width="0.2" width="24" height="24" viewBox="0 0 24 24" stroke="none" xmlns="http://www.w3.org/2000/svg">
<path d="M10.0025 17.9925C9.7425 17.9925 9.4925 17.8925 9.2925 17.7025L4.2925 12.7025C3.9025 12.3125 3.9025 11.6825 4.2925 11.2925L9.2925 6.2925C9.6825 5.9025 10.3125 5.9025 10.7025 6.2925C11.0925 6.6825 11.0925 7.3125 10.7025 7.7025L6.4125 11.9925L10.7025 16.2825C11.0925 16.6725 11.0925 17.3025 10.7025 17.6925C10.5025 17.8925 10.2525 17.9825 9.9925 17.9825L10.0025 17.9925ZM17.7125 17.7025C18.1025 17.3125 18.1025 16.6825 17.7125 16.2925L13.4225 12.0025L17.7125 7.7125C18.1025 7.3225 18.1025 6.6925 17.7125 6.3025C17.3225 5.9125 16.6925 5.9125 16.3025 6.3025L11.3025 11.3025C10.9125 11.6925 10.9125 12.3225 11.3025 12.7125L16.3025 17.7125C16.5025 17.9125 16.7525 18.0025 17.0125 18.0025C17.2725 18.0025 17.5225 17.9025 17.7225 17.7125L17.7125 17.7025Z" />
</svg>
