<svg class="fill-current stroke-current w-full h-full" style="color: inherit" stroke-width="0.2" width="24" height="24" viewBox="0 0 24 24" stroke="none" xmlns="http://www.w3.org/2000/svg">
<path d="M12.0025 19.0025C11.7425 19.0025 11.4925 18.9025 11.2925 18.7125L6.2925 13.7125C5.9025 13.3225 5.9025 12.6925 6.2925 12.3025C6.6825 11.9125 7.3125 11.9125 7.7025 12.3025L11.9925 16.5925L16.2825 12.3025C16.6725 11.9125 17.3025 11.9125 17.6925 12.3025C18.0825 12.6925 18.0825 13.3225 17.6925 13.7125L12.6925 18.7125C12.4925 18.9125 12.2425 19.0025 11.9825 19.0025H12.0025ZM12.7125 11.7125L17.7125 6.7125C18.1025 6.3225 18.1025 5.6925 17.7125 5.3025C17.3225 4.9125 16.6925 4.9125 16.3025 5.3025L12.0125 9.5925L7.7125 5.2925C7.3225 4.9025 6.6925 4.9025 6.3025 5.2925C5.9125 5.6825 5.9125 6.3125 6.3025 6.7025L11.3025 11.7025C11.5025 11.9025 11.7525 11.9925 12.0125 11.9925C12.2725 11.9925 12.5225 11.8925 12.7225 11.7025L12.7125 11.7125Z" />
</svg>
