<svg class="fill-current stroke-current w-full h-full" style="color: inherit" stroke-width="0.2" width="24" height="24" viewBox="0 0 24 24" stroke="none" xmlns="http://www.w3.org/2000/svg">
<path fill-rule="evenodd" clip-rule="evenodd" d="M16 13.52V10.23L14.36 9.41C15.06 10.05 15.5 10.97 15.5 12C15.5 13.46 14.61 14.7 13.35 15.23C14.9 15.78 16 17.27 16 19V20H20V15.3L16 13.52ZM14 22V19C14 17.79 12.92 16.82 11.66 17.03C10.68 17.19 10 18.11 10 19.11V22H4C2.9 22 2 21.1 2 20V15.3C2 14.51 2.47 13.79 3.19 13.48L6 12.23V10.24C6 9.48 6.43 8.79 7.11 8.45L11 6.5V5H10C9.88 5 9.76 4.98 9.65 4.94C9.27 4.8 9 4.43 9 4C9 3.45 9.45 3 10 3H11V2C11 1.45 11.45 1 12 1C12.55 1 13 1.45 13 2V3H14C14.55 3 15 3.45 15 4C15 4.43 14.73 4.8 14.35 4.94C14.24 4.98 14.12 5 14 5H13V6.5L16.89 8.44C17.57 8.78 18 9.47 18 10.23V12.22L20.81 13.47C21.53 13.79 22 14.51 22 15.3V20C22 21.1 21.1 22 20 22H14ZM12 8.24L11.36 8.56C11.57 8.52 11.78 8.5 12 8.5C12.22 8.5 12.44 8.52 12.65 8.56L12 8.24ZM9.63 9.43C8.94 10.07 8.5 10.99 8.5 12.01C8.5 13.47 9.39 14.71 10.65 15.24C8.98 15.84 8 17.5 8 19.12V20.01H4V15.32L8 13.54V10.25L9.62 9.44L9.63 9.43ZM10.5 12.01C10.5 12.84 11.17 13.51 12 13.51C12.83 13.51 13.5 12.84 13.5 12.01C13.5 11.18 12.83 10.51 12 10.51C11.17 10.51 10.5 11.18 10.5 12.01Z" />
</svg>
