<svg class="fill-current stroke-current w-full h-full" style="color: inherit" stroke-width="0.2" width="24" height="24" viewBox="0 0 24 24" stroke="none" xmlns="http://www.w3.org/2000/svg">
<path d="M17.2683 22H6.73171C6 22 5.31707 21.71 4.8 21.18C4.28293 20.65 4 19.95 4 19.2V6.6C4 5.85 4.28293 5.15 4.8 4.62C5.30732 4.1 6.00976 3.8 6.73171 3.8H7.5122C7.56098 2.8 8.37073 2 9.36585 2H14.6341C15.6195 2 16.4293 2.8 16.4878 3.8H17.2683C18 3.8 18.6829 4.09 19.2 4.62C19.7073 5.14 20 5.86 20 6.6V19.2C20 19.95 19.7171 20.65 19.2 21.18C18.6829 21.71 18 22 17.2683 22ZM6.73171 5.8C6.52683 5.8 6.32195 5.89 6.17561 6.03C6.02927 6.17 5.95122 6.38 5.95122 6.6V19.2C5.95122 19.41 6.02927 19.61 6.17561 19.77C6.32195 19.92 6.51707 20 6.73171 20H17.2683C17.4732 20 17.678 19.92 17.8244 19.77C17.9707 19.62 18.0488 19.42 18.0488 19.2V6.6C18.0488 6.39 17.961 6.18 17.8146 6.03C17.6683 5.88 17.4732 5.8 17.2585 5.8H16.478C16.4293 6.8 15.6195 7.6 14.6244 7.6H9.36585C8.38049 7.6 7.56098 6.8 7.5122 5.8H6.73171ZM9.46341 5.6H14.5366V4H9.46341V5.6Z" />
</svg>
