<svg class="fill-current stroke-current w-full h-full" style="color: inherit" stroke-width="0.2" width="24" height="24" viewBox="0 0 24 24" stroke="none" xmlns="http://www.w3.org/2000/svg">
<path d="M12.7332 10.2626C12.7332 9.70707 13.188 9.25252 13.7438 9.25252H16.7756C17.3315 9.25252 17.7863 9.70707 17.7863 10.2626V11.2727H16.2703V10.7677H14.2491V11.7778L12.7332 10.2626ZM16.2703 13.798L17.4932 15.0202C17.6751 14.8283 17.7863 14.5758 17.7863 14.303V13.2929H16.2703V13.798ZM8.51895 6.22222H18.7969V16.4949L20.7979 18.4949C20.7979 18.4444 20.8181 18.3939 20.8181 18.3333V6.22222C20.8181 5.11111 19.9085 4.20202 18.7969 4.20202H6.49773L8.51895 6.22222ZM19.5851 23L16.9474 20.3636H4.64831C3.52653 20.3636 2.62708 19.4545 2.62708 18.3434V6.22222C2.62708 6.17172 2.6473 6.12121 2.6473 6.07071L1 4.42424L2.42496 3L21 21.5657L19.5851 23ZM7.17484 13.798H9.19606V13.2929H9.87317L7.34664 10.7677H7.17484V13.798ZM14.9262 18.3434L10.712 14.1313V14.303C10.712 14.8586 10.2572 15.3131 9.70136 15.3131H6.66953C6.11369 15.3131 5.65892 14.8586 5.65892 14.303V10.2626C5.65892 9.93939 5.82062 9.66667 6.06316 9.47475L4.64831 8.07071V18.3434H14.9262Z" />
</svg>
