<svg class="fill-current stroke-current w-full h-full" style="color: inherit" stroke-width="0.2" width="24" height="24" viewBox="0 0 24 24" stroke="none" xmlns="http://www.w3.org/2000/svg">
<path d="M10.9745 13.5906C11.0271 13.7169 11.0586 13.8537 11.0586 13.9905V19.9582C11.0586 20.537 10.5853 21.0107 10.0068 21.0107C9.42835 21.0107 8.95504 20.537 8.95504 19.9582V16.5376L3.80121 21.6948C3.59085 21.9053 3.3279 22 3.05443 22C2.78096 22 2.51801 21.8948 2.30765 21.6948C1.89745 21.2843 1.89745 20.6212 2.30765 20.2108L7.46148 15.0535H4.04312C3.46463 15.0535 2.99132 14.5799 2.99132 14.0011C2.99132 13.4222 3.46463 12.9486 4.04312 12.9486H10.0068C10.1541 12.9486 10.2803 12.9801 10.4065 13.0328C10.5327 13.0854 10.6484 13.1591 10.7431 13.2643C10.8378 13.3696 10.9219 13.4853 10.9745 13.6011V13.5906ZM21.6818 2.30785C21.2716 1.89738 20.609 1.89738 20.1988 2.30785L15.045 7.46507V4.04447C15.045 3.4656 14.5717 2.99197 13.9932 2.99197C13.4147 2.99197 12.9414 3.4656 12.9414 4.04447V10.0121C12.9414 10.1595 12.9729 10.2858 13.0255 10.4121C13.0781 10.5384 13.1517 10.6541 13.2569 10.7488C13.3621 10.8436 13.4778 10.9278 13.5935 10.9804C13.7197 11.033 13.8564 11.0646 13.9932 11.0646H19.9569C20.5354 11.0646 21.0087 10.591 21.0087 10.0121C21.0087 9.43323 20.5354 8.95961 19.9569 8.95961H16.5385L21.6923 3.80239C22.1026 3.39192 22.1026 2.72885 21.6923 2.31838L21.6818 2.30785Z" />
</svg>
