<svg class="fill-current stroke-current w-full h-full" style="color: inherit" stroke-width="0.2" width="24" height="24" viewBox="0 0 24 24" stroke="none" xmlns="http://www.w3.org/2000/svg">
<path d="M13.0945 16.9964C13.0545 17.0864 13.0045 17.1564 12.9445 17.2264C12.9245 17.2564 12.9145 17.2864 12.8846 17.3164V17.3264L8.96652 21.3464C8.76662 21.5464 8.50675 21.6464 8.24688 21.6464C7.98701 21.6464 7.74713 21.5564 7.54723 21.3664C7.14743 20.9764 7.14743 20.3464 7.52724 19.9564L9.8061 17.6164H2.9995C2.44978 17.6164 2 17.1664 2 16.6164C2 16.0664 2.44978 15.6164 2.9995 15.6164H9.7961L7.51724 13.2764C7.12744 12.8764 7.13743 12.2464 7.53723 11.8664C7.93703 11.4864 8.56672 11.4864 8.94653 11.8864L12.8646 15.9064C12.8646 15.9064 12.9045 15.9764 12.9245 16.0064C12.9845 16.0764 13.0345 16.1464 13.0745 16.2364C13.1144 16.3364 13.1344 16.4364 13.1344 16.5464C13.1344 16.5664 13.1444 16.5864 13.1444 16.6164C13.1444 16.6464 13.1344 16.6564 13.1344 16.6864C13.1344 16.7964 13.1144 16.8964 13.0745 16.9964H13.0945ZM20.9905 7.03636H14.1939L16.4728 4.69636C16.8526 4.29636 16.8526 3.66636 16.4528 3.28636C16.053 2.89636 15.4233 2.90636 15.0435 3.30636L11.1154 7.34636C11.1154 7.34636 11.0655 7.42636 11.0355 7.46636C10.9855 7.52636 10.9355 7.58636 10.9055 7.66636C10.8056 7.90636 10.8056 8.18636 10.9055 8.42636C10.9355 8.49636 10.9855 8.55636 11.0355 8.62636C11.0655 8.66636 11.0755 8.71636 11.1154 8.74636L15.0435 12.7864C15.2434 12.9864 15.5032 13.0864 15.7631 13.0864C16.023 13.0864 16.2629 12.9964 16.4628 12.8064C16.8626 12.4164 16.8626 11.7864 16.4828 11.3964L14.2039 9.05636H21.0005C21.5502 9.05636 22 8.60636 22 8.05636C22 7.50636 21.5502 7.05636 21.0005 7.05636L20.9905 7.03636Z" />
</svg>
