<svg class="fill-current stroke-current w-full h-full" style="color: inherit" stroke-width="0.2" width="24" height="24" viewBox="0 0 24 24" stroke="none" xmlns="http://www.w3.org/2000/svg">
<path d="M9.7599 5.45645V11.7409C9.7599 12.2984 9.30377 12.7545 8.74628 12.7545C8.18879 12.7545 7.73266 12.2984 7.73266 11.7409V5.45645L5.72569 7.46341C5.33038 7.85873 4.6918 7.85873 4.29648 7.46341C3.90117 7.0681 3.90117 6.42952 4.29648 6.03421L8.03674 2.29395C8.2192 2.1115 8.4726 2 8.74628 2C9.01996 2 9.27336 2.1115 9.45581 2.29395L13.1961 6.03421C13.5914 6.42952 13.5914 7.0681 13.1961 7.46341C12.9933 7.656 12.7399 7.75736 12.4764 7.75736C12.2129 7.75736 11.9595 7.656 11.7567 7.46341L9.74976 5.45645H9.7599ZM19.6832 16.7989C19.2879 16.4035 18.6494 16.4035 18.254 16.7989L16.2471 18.8058V12.5214C16.2471 11.9639 15.7909 11.5078 15.2334 11.5078C14.676 11.5078 14.2198 11.9639 14.2198 12.5214V18.8058L12.2129 16.7989C11.8175 16.4035 11.179 16.4035 10.7837 16.7989C10.3883 17.1942 10.3883 17.8328 10.7837 18.2281L14.5239 21.9683C14.6151 22.0595 14.7266 22.1406 14.8483 22.1913C14.9699 22.242 15.1017 22.2724 15.2436 22.2724C15.3855 22.2724 15.5071 22.242 15.6389 22.1913C15.7605 22.1406 15.872 22.0697 15.9633 21.9683L19.7035 18.2281C20.0988 17.8328 20.0988 17.1942 19.7035 16.7989H19.6832Z" />
</svg>
