<svg class="fill-current stroke-current w-full h-full" style="color: inherit" stroke-width="0.2" width="24" height="24" viewBox="0 0 24 24" stroke="none" xmlns="http://www.w3.org/2000/svg">
<path d="M12.0193 20.9988C11.4693 20.9988 11.0193 20.5488 11.0193 19.9988C11.0193 19.4488 11.4593 18.9988 12.0193 18.9988C12.5693 18.9988 13.0193 19.4488 13.0193 19.9988C13.0193 20.5488 12.5693 20.9988 12.0193 20.9988ZM16.2893 18.3988C16.2893 17.8488 15.8393 17.3988 15.2893 17.3988C14.7393 17.3988 14.2893 17.8488 14.2893 18.3988C14.2893 18.9488 14.7393 19.3988 15.2893 19.3988C15.8393 19.3988 16.2893 18.9488 16.2893 18.3988V18.3988ZM9.74934 18.3988C9.74934 17.8488 9.29934 17.3988 8.74934 17.3988C8.19934 17.3988 7.74934 17.8488 7.74934 18.3988C7.74934 18.9488 8.19934 19.3988 8.74934 19.3988C9.29934 19.3988 9.74934 18.9488 9.74934 18.3988V18.3988ZM13.0193 16.7988C13.0193 16.2488 12.5693 15.7988 12.0193 15.7988C11.4693 15.7988 11.0193 16.2488 11.0193 16.7988C11.0193 17.3488 11.4693 17.7988 12.0193 17.7988C12.5693 17.7988 13.0193 17.3488 13.0193 16.7988ZM18.9493 17.3788C20.0193 16.9188 20.8993 16.1088 21.4293 15.0988C21.9693 14.0788 22.1293 12.8988 21.8893 11.7688C21.6493 10.6488 21.0193 9.62877 20.1093 8.90877C19.2093 8.18877 18.0693 7.79877 16.9093 7.79877H16.6093C16.2793 6.94877 15.7993 6.15877 15.1793 5.47877C14.3893 4.60877 13.3893 3.92877 12.2793 3.49877C11.1793 3.07877 9.96934 2.91877 8.78934 3.03877C7.60934 3.15877 6.45934 3.54877 5.45934 4.18877C4.45934 4.81877 3.61934 5.68877 3.01934 6.69877C2.42934 7.70877 2.07934 8.85877 2.00934 10.0288C1.94934 11.1988 2.17934 12.3788 2.66934 13.4488C3.15934 14.5088 3.90934 15.4588 4.83934 16.1888C5.27934 16.5288 5.89934 16.4488 6.23934 16.0188C6.57934 15.5788 6.49934 14.9588 6.06934 14.6188C5.38934 14.0888 4.83934 13.3988 4.47934 12.6188C4.11934 11.8488 3.95934 10.9888 3.99934 10.1388C4.03934 9.28877 4.29934 8.45877 4.72934 7.71877C5.16934 6.97877 5.77934 6.34877 6.51934 5.87877C7.24934 5.40877 8.10934 5.11877 8.97934 5.03877C9.84934 4.94877 10.7493 5.06877 11.5593 5.37877C12.3793 5.68877 13.1093 6.18877 13.6893 6.82877C14.2693 7.46877 14.6893 8.23877 14.9093 9.05877C15.0293 9.49877 15.4193 9.80877 15.8793 9.80877H16.9093C17.6193 9.80877 18.3193 10.0488 18.8693 10.4888C19.4193 10.9188 19.7893 11.5288 19.9393 12.1988C20.0793 12.8688 19.9793 13.5688 19.6593 14.1788C19.3393 14.7888 18.7993 15.2788 18.1593 15.5588C17.6493 15.7788 17.4193 16.3588 17.6293 16.8688C17.7893 17.2488 18.1593 17.4788 18.5493 17.4788C18.6793 17.4788 18.8193 17.4488 18.9393 17.3988L18.9493 17.3788ZM16.2893 15.1988C16.2893 14.6488 15.8393 14.1988 15.2893 14.1988C14.7393 14.1988 14.2893 14.6488 14.2893 15.1988C14.2893 15.7488 14.7393 16.1988 15.2893 16.1988C15.8393 16.1988 16.2893 15.7488 16.2893 15.1988ZM9.74934 15.1988C9.74934 14.6488 9.29934 14.1988 8.74934 14.1988C8.19934 14.1988 7.74934 14.6488 7.74934 15.1988C7.74934 15.7488 8.19934 16.1988 8.74934 16.1988C9.29934 16.1988 9.74934 15.7488 9.74934 15.1988Z" />
</svg>
