<svg class="fill-current stroke-current w-full h-full" style="color: inherit" stroke-width="0.2" width="24" height="24" viewBox="0 0 24 24" stroke="none" xmlns="http://www.w3.org/2000/svg">
<path d="M19.35 10.04C18.67 6.59 15.64 4 12 4C9.11 4 6.6 5.64 5.35 8.04C2.34 8.36 0 10.91 0 14C0 17.31 2.69 20 6 20H19C21.76 20 24 17.76 24 15C24 12.24 21.95 10.22 19.35 10.04ZM19 18H6C3.79 18 2 16.21 2 14C2 11.95 3.53 10.24 5.56 10.03L6.63 9.92L7.13 8.97C8.08 7.14 9.94 6 12 6C14.62 6 16.88 7.86 17.39 10.43L17.69 11.93L19.22 12.04C20.78 12.14 22 13.45 22 15C22 16.65 20.65 18 19 18ZM15.71 13.71C15.51 13.91 15.26 14 15 14C14.74 14 14.49 13.9 14.29 13.71L13 12.42V16.01C13 16.56 12.55 17.01 12 17.01C11.45 17.01 11 16.56 11 16.01V12.42L9.71 13.71C9.32 14.1 8.69 14.1 8.3 13.71C7.91 13.32 7.91 12.69 8.3 12.3L12.01 8.59L15.72 12.3C16.11 12.69 16.11 13.32 15.72 13.71H15.71Z" />
</svg>
