<svg class="fill-current stroke-current w-full h-full" style="color: inherit" stroke-width="0.2" width="24" height="24" viewBox="0 0 24 24" stroke="none" xmlns="http://www.w3.org/2000/svg">
<path d="M17.7313 17.0024C17.2611 17.0024 16.8509 16.6726 16.7508 16.2028C16.6408 15.6631 16.9909 15.1333 17.5312 15.0234C18.2816 14.8734 18.9519 14.4436 19.4021 13.8239C19.8623 13.2042 20.0624 12.4446 19.9924 11.685C19.9124 10.9253 19.5622 10.2157 18.9919 9.70592C18.4216 9.19617 17.6913 8.90631 16.9209 8.90631H15.8904C15.4302 8.90631 15.04 8.59646 14.9199 8.15667C14.6898 7.2671 14.2396 6.44749 13.6193 5.77781C12.999 5.10814 12.2086 4.59838 11.3482 4.29853C10.4777 3.99867 9.54727 3.9287 8.64682 4.07863C7.74638 4.22856 6.88596 4.60838 6.1556 5.16811C5.43524 5.72784 4.85496 6.46748 4.48478 7.30708C4.11459 8.14667 3.95451 9.06623 4.02455 9.97579C4.09458 10.8854 4.39473 11.7749 4.88497 12.5446C5.38522 13.3142 6.06555 13.9539 6.86595 14.3937C7.34618 14.6635 7.52627 15.2732 7.25614 15.753C6.98601 16.2328 6.38571 16.4127 5.89547 16.1428C4.80493 15.5431 3.87448 14.6635 3.20415 13.624C2.52381 12.5745 2.12361 11.3651 2.02356 10.1157C1.92352 8.87632 2.14362 7.61693 2.65387 6.47748C3.15412 5.33803 3.94451 4.33851 4.935 3.56888C5.91548 2.81924 7.08606 2.30948 8.31666 2.09958C9.53726 1.89968 10.8079 1.99963 11.9885 2.40944C13.169 2.80924 14.2396 3.50891 15.08 4.41847C15.7503 5.13812 16.2706 5.98771 16.6107 6.90727H16.9109C18.1715 6.90727 19.3821 7.37704 20.3226 8.21664C21.263 9.06623 21.8433 10.2257 21.9734 11.4851C22.1034 12.7445 21.7533 13.9939 21.0029 15.0134C20.2525 16.0329 19.162 16.7325 17.9214 16.9824C17.8514 16.9924 17.7913 17.0024 17.7213 17.0024H17.7313ZM12.0185 21.5502L15.2901 16.6426C15.5002 16.3327 15.5102 15.9429 15.3401 15.6131C15.17 15.2832 14.8299 15.0833 14.4597 15.0833H11.4182L13.6593 11.7349C13.9694 11.2752 13.8394 10.6555 13.3792 10.3456C12.9189 10.0358 12.2986 10.1657 11.9885 10.6255L8.71686 15.5331C8.51676 15.843 8.49675 16.2328 8.66683 16.5626C8.83692 16.8925 9.17708 17.0924 9.54727 17.0924H12.5888L10.3577 20.4408C10.0475 20.9005 10.1776 21.5202 10.6378 21.8301C10.8079 21.94 10.998 22 11.1881 22C11.5082 22 11.8284 21.8401 12.0185 21.5502V21.5502Z" />
</svg>
