<svg class="fill-current stroke-current w-full h-full" style="color: inherit" stroke-width="0.2" width="24" height="24" viewBox="0 0 24 24" stroke="none" xmlns="http://www.w3.org/2000/svg">
<path d="M12.0063 21.9986C11.4565 21.9986 11.0066 21.5486 11.0066 20.9986V19.3586C11.0066 18.8086 11.4565 18.3586 12.0063 18.3586C12.5562 18.3586 13.006 18.8086 13.006 19.3586V20.9986C13.006 21.5486 12.5562 21.9986 12.0063 21.9986ZM16.2751 19.3586V17.7186C16.2751 17.1686 15.8252 16.7186 15.2754 16.7186C14.7255 16.7186 14.2757 17.1686 14.2757 17.7186V19.3586C14.2757 19.9086 14.7255 20.3586 15.2754 20.3586C15.8252 20.3586 16.2751 19.9086 16.2751 19.3586ZM9.73702 19.3586V17.7186C9.73702 17.1686 9.28716 16.7186 8.73732 16.7186C8.18749 16.7186 7.73762 17.1686 7.73762 17.7186V19.3586C7.73762 19.9086 8.18749 20.3586 8.73732 20.3586C9.28716 20.3586 9.73702 19.9086 9.73702 19.3586ZM13.006 16.0886V14.4486C13.006 13.8986 12.5562 13.4486 12.0063 13.4486C11.4565 13.4486 11.0066 13.8986 11.0066 14.4486V16.0886C11.0066 16.6386 11.4565 17.0886 12.0063 17.0886C12.5562 17.0886 13.006 16.6386 13.006 16.0886ZM16.2751 14.4486V12.8086C16.2751 12.2586 15.8252 11.8086 15.2754 11.8086C14.7255 11.8086 14.2757 12.2586 14.2757 12.8086V14.4486C14.2757 14.9986 14.7255 15.4486 15.2754 15.4486C15.8252 15.4486 16.2751 14.9986 16.2751 14.4486ZM9.73702 14.4486V12.8086C9.73702 12.2586 9.28716 11.8086 8.73732 11.8086C8.18749 11.8086 7.73762 12.2586 7.73762 12.8086V14.4486C7.73762 14.9986 8.18749 15.4486 8.73732 15.4486C9.28716 15.4486 9.73702 14.9986 9.73702 14.4486ZM18.9543 16.6586C20.0239 16.1886 20.9037 15.3686 21.4335 14.3286C21.9634 13.2986 22.1333 12.0986 21.8934 10.9586C21.6534 9.81857 21.0236 8.78857 20.1239 8.04857C19.2242 7.31857 18.0845 6.90857 16.9149 6.90857H16.615C16.2851 6.03857 15.8052 5.22857 15.1854 4.53857C14.3956 3.64857 13.3959 2.94857 12.2863 2.51857C11.1866 2.07857 9.96695 1.91857 8.78731 2.03857C7.60766 2.15857 6.44801 2.56857 5.44831 3.20857C4.44861 3.85857 3.60886 4.73857 3.00904 5.76857C2.41922 6.80857 2.07932 7.97857 2.00934 9.16857C1.94936 10.3586 2.17929 11.5586 2.66914 12.6486C3.159 13.7386 3.90877 14.6986 4.83849 15.4386C5.26836 15.7786 5.89817 15.7086 6.24807 15.2786C6.58797 14.8486 6.51799 14.2186 6.08812 13.8686C5.40832 13.3186 4.85849 12.6086 4.49859 11.8186C4.1387 11.0186 3.96875 10.1386 4.01874 9.26857C4.05873 8.39857 4.31865 7.53857 4.74852 6.77857C5.18839 6.01857 5.8082 5.36857 6.53798 4.88857C7.26776 4.40857 8.11751 4.11857 8.98725 4.02857C9.85699 3.93857 10.7467 4.05857 11.5665 4.37857C12.3762 4.69857 13.116 5.20857 13.6958 5.86857C14.2757 6.51857 14.6955 7.31857 14.9155 8.15857C15.0254 8.59857 15.4253 8.90857 15.8852 8.90857H16.9149C17.6247 8.90857 18.3145 9.15857 18.8643 9.59857C19.4141 10.0486 19.794 10.6686 19.934 11.3586C20.0739 12.0486 19.984 12.7786 19.654 13.4086C19.3341 14.0386 18.7943 14.5386 18.1445 14.8286C17.6347 15.0486 17.4047 15.6386 17.6347 16.1486C17.8046 16.5286 18.1645 16.7486 18.5544 16.7486C18.6843 16.7486 18.8243 16.7186 18.9543 16.6686V16.6586Z" />
</svg>
