<svg class="fill-current stroke-current w-full h-full" style="color: inherit" stroke-width="0.2" width="24" height="24" viewBox="0 0 24 24" stroke="none" xmlns="http://www.w3.org/2000/svg">
<path d="M19.35 10.04C18.67 6.59 15.64 4 12 4C9.11 4 6.6 5.64 5.35 8.04C2.34 8.36 0 10.91 0 14C0 17.31 2.69 20 6 20H19C21.76 20 24 17.76 24 15C24 12.24 21.95 10.22 19.35 10.04ZM19 18H6C3.79 18 2 16.21 2 14C2 11.95 3.53 10.24 5.56 10.03L6.63 9.92L7.13 8.97C8.08 7.14 9.94 6 12 6C14.62 6 16.88 7.86 17.39 10.43L17.69 11.93L19.22 12.04C20.78 12.14 22 13.45 22 15C22 16.65 20.65 18 19 18ZM15.71 12.29C16.1 12.68 16.1 13.31 15.71 13.7L12 17.41L8.29 13.7C7.9 13.31 7.9 12.68 8.29 12.29C8.68 11.9 9.31 11.9 9.7 12.29L10.99 13.58V9.99C10.99 9.44 11.44 8.99 11.99 8.99C12.54 8.99 12.99 9.44 12.99 9.99V13.58L14.28 12.29C14.67 11.9 15.3 11.9 15.69 12.29H15.71Z" />
</svg>
