<svg class="fill-current stroke-current w-full h-full" style="color: inherit" stroke-width="0.2" width="24" height="24" viewBox="0 0 24 24" stroke="none" xmlns="http://www.w3.org/2000/svg">
<path d="M24 14.054C24 11.4344 21.95 9.31092 19.35 9.1323C18.67 5.70893 15.64 3.13892 12 3.13892C10.67 3.13892 9.43 3.49614 8.35 4.10143L9.84 5.57993C10.51 5.29217 11.23 5.12348 12 5.12348C15.04 5.12348 17.5 7.5645 17.5 10.581V11.0772H19C20.66 11.0772 22 12.4068 22 14.054C22 15.0364 21.52 15.8897 20.79 16.4355L22.2 17.8346C23.29 16.9217 24 15.5821 24 14.054ZM4.41 3L3 4.39912L5.77 7.14774H5.35C2.34 7.46527 0 9.99559 0 13.0617C0 16.3462 2.69 19.0154 6 19.0154H17.73L19.73 21L21.14 19.6009L4.41 3ZM6 17.0309C3.79 17.0309 2 15.2547 2 13.0617C2 10.8688 3.79 9.09261 6 9.09261H7.73L15.73 17.0309H6Z" />
</svg>
