<svg class="fill-current stroke-current w-full h-full" style="color: inherit" stroke-width="0.2" width="24" height="24" viewBox="0 0 24 24" stroke="none" xmlns="http://www.w3.org/2000/svg">
<path d="M15.2787 20.3586C14.7292 20.3586 14.2795 19.9086 14.2795 19.3586V12.8086C14.2795 12.2586 14.7292 11.8086 15.2787 11.8086C15.8283 11.8086 16.2779 12.2586 16.2779 12.8086V19.3586C16.2779 19.9086 15.8283 20.3586 15.2787 20.3586ZM9.74315 19.3586V12.8086C9.74315 12.2586 9.29351 11.8086 8.74395 11.8086C8.19439 11.8086 7.74475 12.2586 7.74475 12.8086V19.3586C7.74475 19.9086 8.19439 20.3586 8.74395 20.3586C9.29351 20.3586 9.74315 19.9086 9.74315 19.3586ZM13.0105 20.9986V14.4486C13.0105 13.8986 12.5609 13.4486 12.0113 13.4486C11.4618 13.4486 11.0121 13.8986 11.0121 14.4486V20.9986C11.0121 21.5486 11.4618 21.9986 12.0113 21.9986C12.5609 21.9986 13.0105 21.5486 13.0105 20.9986ZM18.9558 16.6586C20.0249 16.1886 20.9042 15.3686 21.4338 14.3286C21.9634 13.2986 22.1332 12.0986 21.8934 10.9586C21.6536 9.81857 21.0241 8.78857 20.1248 8.04857C19.2256 7.31857 18.0865 6.90857 16.9174 6.90857H16.6177C16.2879 6.03857 15.8083 5.22857 15.1888 4.53857C14.3994 3.64857 13.4002 2.94857 12.2911 2.51857C11.182 2.07857 9.96297 1.91857 8.78392 2.03857C7.60486 2.15857 6.44579 2.56857 5.44659 3.20857C4.44739 3.85857 3.60806 4.73857 3.00854 5.76857C2.41901 6.80857 2.07928 7.97857 2.00934 9.16857C1.94938 10.3586 2.1792 11.5586 2.66881 12.6486C3.15842 13.7386 3.90782 14.6986 4.83707 15.4386C5.26673 15.7786 5.89623 15.7086 6.24595 15.2786C6.58568 14.8486 6.51573 14.2186 6.08607 13.8686C5.40662 13.3186 4.85706 12.6086 4.49735 11.8186C4.13763 11.0186 3.96777 10.1386 4.01773 9.26857C4.0577 8.39857 4.31749 7.53857 4.74715 6.77857C5.18679 6.01857 5.8063 5.36857 6.53572 4.88857C7.26513 4.40857 8.11445 4.11857 8.98376 4.02857C9.85306 3.93857 10.7424 4.05857 11.5617 4.37857C12.371 4.69857 13.1105 5.20857 13.69 5.86857C14.2695 6.51857 14.6892 7.31857 14.909 8.15857C15.0189 8.59857 15.4186 8.90857 15.8782 8.90857H16.9074C17.6169 8.90857 18.3063 9.15857 18.8559 9.59857C19.4054 10.0486 19.7851 10.6686 19.925 11.3586C20.0649 12.0486 19.975 12.7786 19.6452 13.4086C19.3255 14.0386 18.7859 14.5386 18.1364 14.8286C17.6268 15.0486 17.397 15.6386 17.6268 16.1486C17.7967 16.5286 18.1564 16.7486 18.5461 16.7486C18.676 16.7486 18.8159 16.7186 18.9458 16.6686L18.9558 16.6586Z" />
</svg>
