<svg class="fill-current stroke-current w-full h-full" style="color: inherit" stroke-width="0.2" width="24" height="24" viewBox="0 0 24 24" stroke="none" xmlns="http://www.w3.org/2000/svg">
<path d="M8.55622 15.9061L4.4863 11.8362L8.55622 7.76624C8.96321 7.35925 8.96321 6.71224 8.55622 6.30524C8.14923 5.89825 7.50222 5.89825 7.09523 6.30524L2.30524 11.0952C1.89825 11.5022 1.89825 12.1597 2.30524 12.5667L7.09523 17.3671C7.50222 17.7741 8.14923 17.7741 8.55622 17.3671C8.96321 16.9601 8.96321 16.3131 8.55622 15.9061ZM15.4438 15.9061L19.5137 11.8362L15.4438 7.76624C15.0368 7.35925 15.0368 6.71224 15.4438 6.30524C15.8508 5.89825 16.4978 5.89825 16.9048 6.30524L21.6948 11.0952C22.1017 11.5022 22.1017 12.1597 21.6948 12.5667L16.9048 17.3671C16.4978 17.7741 15.8508 17.7741 15.4438 17.3671C15.0368 16.9601 15.0368 16.3131 15.4438 15.9061Z" />
</svg>
