<svg class="fill-current stroke-current w-full h-full" style="color: inherit" stroke-width="0.2" width="24" height="24" viewBox="0 0 24 24" stroke="none" xmlns="http://www.w3.org/2000/svg">
<path fill-rule="evenodd" clip-rule="evenodd" d="M9.84 16C12.67 16.09 15 13.81 15 11V10H5V10.71C5 13.57 7.2 15.93 9.84 16ZM3 5C3 3.9 3.9 3 5 3H17.5C19.43 3 21 4.57 21 6.5C21 8.43 19.43 10 17.5 10H17V11C17 13.55 15.64 15.77 13.61 17C12.5 17.67 11.18 18.04 9.78 18C8.56 17.97 7.43 17.6 6.46 17C4.37 15.71 3 13.32 3 10.71V5ZM4 19C3.45 19 3 19.45 3 20C3 20.55 3.45 21 4 21H18C18.55 21 19 20.55 19 20C19 19.45 18.55 19 18 19H4ZM17 8H17.5C18.33 8 19 7.33 19 6.5C19 5.67 18.33 5 17.5 5H17V8ZM15 5H5V8H15V5Z" />
</svg>
