<svg class="fill-current stroke-current w-full h-full" style="color: inherit" stroke-width="0.2" width="24" height="24" viewBox="0 0 24 24" stroke="none" xmlns="http://www.w3.org/2000/svg">
<path d="M18.2269 21H5.77308C5.03226 21 4.33148 20.7098 3.8109 20.1896C3.28031 19.6593 3 18.9689 3 18.2285V5.77154C3 5.03113 3.29032 4.33074 3.8109 3.81045C4.34149 3.28016 5.03226 3 5.77308 3H18.2269C18.9677 3 19.6685 3.29016 20.1891 3.81045C20.7197 4.34074 21 5.03113 21 5.78155V18.2185C21 18.9589 20.7097 19.6593 20.1891 20.1795C19.6585 20.7098 18.9677 20.99 18.2269 20.99V21ZM13.0011 18.9989H18.2269C18.4271 18.9989 18.6374 18.9188 18.7775 18.7688C18.9177 18.6187 19.0078 18.4286 19.0078 18.2185V5.77154C19.0078 5.56142 18.9277 5.37132 18.7775 5.22123C18.6274 5.07115 18.4372 4.99111 18.2269 4.99111H13.0011V18.9989ZM5.77308 4.99111C5.56285 4.99111 5.37264 5.07115 5.22247 5.22123C5.0723 5.37132 4.99221 5.56142 4.99221 5.77154V18.2185C4.99221 18.4186 5.0723 18.6287 5.22247 18.7688C5.37264 18.9188 5.56285 18.9989 5.77308 18.9989H10.9989V4.99111H5.77308Z" />
</svg>
