<svg class="fill-current stroke-current w-full h-full" style="color: inherit" stroke-width="0.2" width="24" height="24" viewBox="0 0 24 24" stroke="none" xmlns="http://www.w3.org/2000/svg">
<path d="M20 4V17.17L18.83 16H4V4H20ZM20 2H4C2.9 2 2 2.9 2 4V16C2 17.1 2.9 18 4 18H18L22 22V4C22 2.9 21.1 2 20 2ZM18 7C18 6.45 17.55 6 17 6H7C6.45 6 6 6.45 6 7C6 7.55 6.45 8 7 8H17C17.55 8 18 7.55 18 7ZM18 10C18 9.45 17.55 9 17 9H7C6.45 9 6 9.45 6 10C6 10.55 6.45 11 7 11H17C17.55 11 18 10.55 18 10ZM18 13C18 12.45 17.55 12 17 12H7C6.45 12 6 12.45 6 13C6 13.55 6.45 14 7 14H17C17.55 14 18 13.55 18 13Z" />
</svg>
