<svg class="fill-current stroke-current w-full h-full" style="color: inherit" stroke-width="0.2" width="24" height="24" viewBox="0 0 24 24" stroke="none" xmlns="http://www.w3.org/2000/svg">
<path d="M12 22C6.49 22 2 17.51 2 12C2 6.49 6.49 2 12 2C17.51 2 22 6.49 22 12C22 17.51 17.51 22 12 22ZM12 4C7.59 4 4 7.59 4 12C4 16.41 7.59 20 12 20C16.41 20 20 16.41 20 12C20 7.59 16.41 4 12 4ZM8.18 16.82C7.92 16.82 7.66 16.72 7.47 16.53C7.2 16.26 7.11 15.87 7.23 15.51L9.14 9.79C9.24 9.49 9.47 9.26 9.77 9.16L15.49 7.25C15.85 7.13 16.25 7.22 16.51 7.49C16.78 7.76 16.87 8.15 16.75 8.51L14.84 14.23C14.74 14.53 14.51 14.76 14.21 14.86L8.49 16.77C8.39 16.81 8.28 16.82 8.17 16.82H8.18ZM10.88 10.89L9.76 14.24L13.11 13.12L14.23 9.77L10.88 10.89V10.89Z" />
</svg>
