<svg class="fill-current stroke-current w-full h-full" style="color: inherit" stroke-width="0.2" width="24" height="24" viewBox="0 0 24 24" stroke="none" xmlns="http://www.w3.org/2000/svg">
<path d="M4 11C4 11.55 4.45 12 5 12H19C19.55 12 20 11.55 20 11C20 10.45 19.55 10 19 10H5C4.45 10 4 10.45 4 11ZM14.79 5H13V3C13 2.45 12.55 2 12 2C11.45 2 11 2.45 11 3V5H9.21C8.76 5 8.54 5.54 8.85 5.85L11.64 8.64C11.84 8.84 12.15 8.84 12.35 8.64L15.14 5.85C15.46 5.54 15.24 5 14.79 5ZM9.21 20H11V22C11 22.55 11.45 23 12 23C12.55 23 13 22.55 13 22V20H14.79C15.24 20 15.46 19.46 15.14 19.15L12.35 16.36C12.15 16.16 11.84 16.16 11.64 16.36L8.85 19.15C8.54 19.46 8.76 20 9.21 20ZM5 15H19C19.55 15 20 14.55 20 14C20 13.45 19.55 13 19 13H5C4.45 13 4 13.45 4 14C4 14.55 4.45 15 5 15Z" />
</svg>
