<svg class="fill-current stroke-current w-full h-full" style="color: inherit" stroke-width="0.2" width="24" height="24" viewBox="0 0 24 24" stroke="none" xmlns="http://www.w3.org/2000/svg">
<path d="M20.0089 3H4.00099C2.90045 3 2 3.9 2 5V17C2 18.1 2.90045 19 4.00099 19H8.00298V20C8.00298 20.55 8.4532 21 9.00347 21H15.0064C15.5567 21 16.0069 20.55 16.0069 20V19H20.0089C21.1095 19 21.9999 18.1 21.9999 17V5C22.0099 3.9 21.1095 3 20.0089 3ZM20.0089 17H4.00099V5H20.0089V17ZM7.00248 15.97C6.98247 14.89 6.11204 14.02 5.0315 14H5.00149V16H7.00248V15.97ZM5.6218 12.55C7.06251 12.81 8.20308 13.95 8.4532 15.39C8.51323 15.75 8.82338 16 9.18356 16C9.64379 16 10.004 15.59 9.93393 15.14C9.57376 13.07 7.94295 11.44 5.87192 11.08C5.41169 11 5.00149 11.36 5.00149 11.82C5.00149 12.19 5.26162 12.49 5.6218 12.55ZM5.64181 9.53C8.71333 9.83 11.1645 12.28 11.4747 15.35C11.5147 15.72 11.8449 16 12.2151 16C12.6653 16 13.0055 15.6 12.9654 15.15C12.5652 11.41 9.59377 8.44 5.85191 8.05C5.40169 8 5.00149 8.34 5.00149 8.79C5.00149 9.16 5.27162 9.5 5.64181 9.53Z" />
</svg>
