<svg class="fill-current stroke-current w-full h-full" style="color: inherit" stroke-width="0.2" width="24" height="24" viewBox="0 0 24 24" stroke="none" xmlns="http://www.w3.org/2000/svg">
<path d="M21.4951 21.2326L4.68542 3.60564C4.29934 3.20078 3.67565 3.20078 3.28957 3.60564C2.90348 4.0105 2.90348 4.6645 3.28957 5.06936L4.18054 6.01404V19.6859C4.18054 20.8278 5.07151 21.7621 6.16048 21.7621H19.1984L20.0894 22.6964C20.4754 23.1012 21.0991 23.1012 21.4852 22.6964C21.8812 22.2915 21.8812 21.6375 21.4951 21.2326ZM6.16048 19.6859V8.09024L17.2184 19.6859H6.16048ZM18.0401 8.26672V5.15241H20.0201V16.748L22 18.8242V5.15241C22 4.0105 21.109 3.07621 20.0201 3.07621H15.882C15.4662 1.87201 14.3772 1 13.0903 1C11.8033 1 10.7143 1.87201 10.2986 3.07621H6.98215L11.932 8.26672H18.0401ZM13.0903 3.07621C13.6348 3.07621 14.0802 3.54335 14.0802 4.11431C14.0802 4.68527 13.6348 5.15241 13.0903 5.15241C12.5458 5.15241 12.1003 4.68527 12.1003 4.11431C12.1003 3.54335 12.5458 3.07621 13.0903 3.07621Z" />
</svg>
