<svg class="fill-current stroke-current w-full h-full" style="color: inherit" stroke-width="0.2" width="24" height="24" viewBox="0 0 24 24" stroke="none" xmlns="http://www.w3.org/2000/svg">
<path d="M20.71 4.71C21.1 4.32 21.1 3.69 20.71 3.3C20.32 2.91 19.69 2.91 19.3 3.3L12.01 10.59L9.44 8.02C9.79 7.43 10.01 6.74 10.01 6C10 3.79 8.21 2 6 2C3.79 2 2 3.79 2 6C2 8.21 3.79 10 6 10C6.74 10 7.42 9.78 8.02 9.43L10.59 12L8.02 14.57C7.43 14.22 6.74 14 6 14C3.79 14 2 15.79 2 18C2 20.21 3.79 22 6 22C8.21 22 10 20.21 10 18C10 17.26 9.78 16.58 9.43 15.98L20.71 4.71ZM4 6C4 4.9 4.9 4 6 4C7.1 4 8 4.9 8 6C8 6.55 7.78 7.05 7.42 7.41C7.06 7.77 6.56 7.99 6.01 7.99C4.91 7.99 4.01 7.09 4.01 5.99L4 6ZM6 20C4.9 20 4 19.1 4 18C4 16.9 4.9 16 6 16C6.55 16 7.05 16.22 7.41 16.59C7.77 16.95 8 17.45 8 18C8 19.1 7.1 20 6 20ZM20.71 19.29C21.1 19.68 21.1 20.31 20.71 20.7C20.51 20.9 20.26 20.99 20 20.99C19.74 20.99 19.49 20.89 19.29 20.7L13.76 15.18C13.37 14.79 13.37 14.16 13.76 13.77C14.15 13.38 14.78 13.38 15.17 13.77L20.7 19.29H20.71Z" />
</svg>
