<svg class="fill-current stroke-current w-full h-full" style="color: inherit" stroke-width="0.2" width="24" height="24" viewBox="0 0 24 24" stroke="none" xmlns="http://www.w3.org/2000/svg">
<path d="M19 5.33333H5.66667C4.75 5.33333 4 6.08333 4 7V17C4 17.9167 4.75 18.6667 5.66667 18.6667H19C19.9167 18.6667 20.6667 17.9167 20.6667 17V7C20.6667 6.08333 19.9167 5.33333 19 5.33333ZM19 17H5.66667V7H19V17ZM12.3333 12C13.4833 12 14.4167 11.0667 14.4167 9.91667C14.4167 8.76667 13.4833 7.83333 12.3333 7.83333C11.1833 7.83333 10.25 8.76667 10.25 9.91667C10.25 11.0667 11.1833 12 12.3333 12ZM12.3333 9.08333C12.7917 9.08333 13.1667 9.45833 13.1667 9.91667C13.1667 10.375 12.7917 10.75 12.3333 10.75C11.875 10.75 11.5 10.375 11.5 9.91667C11.5 9.45833 11.875 9.08333 12.3333 9.08333ZM16.5 15.325C16.5 13.5833 13.7417 12.8333 12.3333 12.8333C10.925 12.8333 8.16667 13.5833 8.16667 15.325V16.1667H16.5V15.325ZM9.675 14.9167C10.1833 14.4833 11.3667 14.0833 12.3333 14.0833C13.3 14.0833 14.4917 14.4833 15 14.9167H9.675ZM18.1667 3.66667H6.5C6.04167 3.66667 5.66667 3.29167 5.66667 2.83333C5.66667 2.375 6.04167 2 6.5 2H18.1667C18.625 2 19 2.375 19 2.83333C19 3.29167 18.625 3.66667 18.1667 3.66667ZM18.1667 22H6.5C6.04167 22 5.66667 21.625 5.66667 21.1667C5.66667 20.7083 6.04167 20.3333 6.5 20.3333H18.1667C18.625 20.3333 19 20.7083 19 21.1667C19 21.625 18.625 22 18.1667 22Z" />
</svg>
