<svg class="fill-current stroke-current w-full h-full" style="color: inherit" stroke-width="0.2" width="24" height="24" viewBox="0 0 24 24" stroke="none" xmlns="http://www.w3.org/2000/svg">
<path d="M4.94014 5.0736H6.88027V6.092C6.88027 7.21224 7.75333 8.1288 8.82041 8.1288H14.6408C15.7079 8.1288 16.5809 7.21224 16.5809 6.092V5.0736H18.5211V10.1656H20.4612V5.0736C20.4612 3.95336 19.5882 3.0368 18.5211 3.0368H14.4662C14.0588 1.85546 12.9917 1 11.7306 1C10.4695 1 9.40245 1.85546 8.99502 3.0368H4.94014C3.87306 3.0368 3 3.95336 3 5.0736V19.3312C3 20.4515 3.87306 21.368 4.94014 21.368H9.79047V19.3312H4.94014V5.0736ZM11.7306 3.0368C12.2641 3.0368 12.7007 3.49508 12.7007 4.0552C12.7007 4.61532 12.2641 5.0736 11.7306 5.0736C11.1971 5.0736 10.7605 4.61532 10.7605 4.0552C10.7605 3.49508 11.1971 3.0368 11.7306 3.0368ZM21.7223 21.2662L19.7822 19.2294C20.3448 18.2008 20.7037 16.9583 20.2769 15.5122C19.7628 13.7606 18.298 12.4061 16.5518 12.233C13.7677 11.9478 11.4784 14.341 11.75 17.274C11.9246 19.097 13.2051 20.6449 14.8736 21.1847C16.2608 21.6328 17.4346 21.256 18.4144 20.6653L20.3545 22.7021C20.7328 23.0993 21.3343 23.0993 21.7126 22.7021C22.0909 22.3049 22.1006 21.6633 21.7126 21.2662H21.7223ZM16.0959 19.3312C14.7378 19.3312 13.6707 18.211 13.6707 16.7852C13.6707 15.3594 14.7378 14.2392 16.0959 14.2392C17.454 14.2392 18.5211 15.3594 18.5211 16.7852C18.5211 18.211 17.454 19.3312 16.0959 19.3312Z" />
</svg>
