<svg class="fill-current stroke-current w-full h-full" style="color: inherit" stroke-width="0.2" width="24" height="24" viewBox="0 0 24 24" stroke="none" xmlns="http://www.w3.org/2000/svg">
<path d="M5.04493 5.2H7.08987V6.25C7.08987 7.405 8.01009 8.35 9.1348 8.35H15.2696C16.3943 8.35 17.3145 7.405 17.3145 6.25V5.2H19.3595V11.5H21.4044V5.2C21.4044 4.045 20.4842 3.1 19.3595 3.1H15.0856C14.6561 1.882 13.5314 1 12.2022 1C10.873 1 9.74828 1.882 9.31885 3.1H5.04493C3.92022 3.1 3 4.045 3 5.2V19.9C3 21.055 3.92022 22 5.04493 22H10.1573V19.9H5.04493V5.2ZM12.2022 3.1C12.7646 3.1 13.2247 3.5725 13.2247 4.15C13.2247 4.7275 12.7646 5.2 12.2022 5.2C11.6398 5.2 11.1797 4.7275 11.1797 4.15C11.1797 3.5725 11.6398 3.1 12.2022 3.1ZM21.7009 17.0545L19.063 14.3455C18.6642 13.936 18.02 13.936 17.6213 14.3455C17.2225 14.755 17.2225 15.4165 17.6213 15.826L18.5108 16.75H13.2247C12.6623 16.75 12.2022 17.2225 12.2022 17.8C12.2022 18.3775 12.6623 18.85 13.2247 18.85H18.5108L17.6213 19.774C17.2225 20.1835 17.2225 20.845 17.6213 21.2545C18.02 21.664 18.6642 21.664 19.063 21.2545L21.7009 18.5455C22.0997 18.1255 22.0997 17.464 21.7009 17.0545Z" />
</svg>
