<svg class="fill-current stroke-current w-full h-full" style="color: inherit" stroke-width="0.2" width="24" height="24" viewBox="0 0 24 24" stroke="none" xmlns="http://www.w3.org/2000/svg">
<path d="M10.5 10.0153C11.33 10.0153 12 9.34616 12 8.51722C12 7.68828 11.33 7.01914 10.5 7.01914C9.67 7.01914 9 7.68828 9 8.51722C9 9.34616 9.67 10.0153 10.5 10.0153ZM8.5 15.0089C9.33 15.0089 10 14.3398 10 13.5108C10 12.6819 9.33 12.0128 8.5 12.0128C7.67 12.0128 7 12.6819 7 13.5108C7 14.3398 7.67 15.0089 8.5 15.0089ZM15 16.0077C15.55 16.0077 16 15.5582 16 15.0089C16 14.4596 15.55 14.0102 15 14.0102C14.45 14.0102 14 14.4596 14 15.0089C14 15.5582 14.45 16.0077 15 16.0077ZM21.95 11.004C20.16 10.9741 18.25 9.05653 19.27 6.78943C16.3 7.78815 13.49 5.20146 14.08 2.23525C7.11 0.767124 2 6.42989 2 12.0128C2 17.5956 6.48 22 12 22C17.89 22 22.54 16.9265 21.95 11.004ZM12 20.0026C7.59 20.0026 4 16.4171 4 12.0128C4 8.70698 6.73 3.84319 12.08 4.00299C12.5 6.53975 14.52 8.55717 17.07 8.93669C17.14 9.29623 17.59 11.4834 19.99 12.5621C19.7 16.8666 16.06 20.0026 12 20.0026Z" />
</svg>
