<svg class="fill-current stroke-current w-full h-full" style="color: inherit" stroke-width="0.2" width="24" height="24" viewBox="0 0 24 24" stroke="none" xmlns="http://www.w3.org/2000/svg">
<path d="M19.2 22H11.1C9.56 22 8.3 20.7406 8.3 19.2014V11.1054C8.3 9.56622 9.56 8.30685 11.1 8.30685H19.2C20.74 8.30685 22 9.56622 22 11.1054V19.2014C22 20.7406 20.74 22 19.2 22ZM11.1 10.3058C10.66 10.3058 10.3 10.6657 10.3 11.1054V19.2014C10.3 19.6412 10.66 20.001 11.1 20.001H19.2C19.64 20.001 20 19.6412 20 19.2014V11.1054C20 10.6657 19.64 10.3058 19.2 10.3058H11.1ZM6.7 14.7036C6.7 14.1539 6.25 13.7041 5.7 13.7041H4.8C4.59 13.7041 4.38 13.6242 4.23 13.4743C4.08 13.3243 4 13.1244 4 12.9045V4.8086C4 4.5987 4.09 4.38881 4.23 4.23888C4.37 4.08896 4.58 4.009 4.79 4.009H12.9C13.11 4.009 13.31 4.08896 13.47 4.23888C13.62 4.38881 13.7 4.58871 13.7 4.7986V5.69815C13.7 6.24788 14.15 6.69765 14.7 6.69765C15.25 6.69765 15.7 6.24788 15.7 5.69815V4.7986C15.7 4.04898 15.41 3.34933 14.88 2.81959C14.35 2.28986 13.65 2 12.9 2H4.8C4.05 2 3.35 2.28986 2.82 2.81959C2.29 3.34933 2 4.04898 2 4.7986V12.9045C2 13.6542 2.29 14.3538 2.82 14.8836C3.35 15.4133 4.05 15.7031 4.8 15.7031H5.7C6.25 15.7031 6.7 15.2534 6.7 14.7036Z" />
</svg>
