<svg class="fill-current stroke-current w-full h-full" style="color: inherit" stroke-width="0.2" width="24" height="24" viewBox="0 0 24 24" stroke="none" xmlns="http://www.w3.org/2000/svg">
<path d="M20.6977 14.2837C20.308 13.8939 19.6784 13.8939 19.2887 14.2837L16.001 17.5719V7.99722C16.001 6.65797 15.4813 5.40866 14.542 4.45919C13.6026 3.50972 12.3435 3 11.0044 3H3.99931C3.44969 3 3 3.44975 3 3.99944C3 4.54914 3.44969 4.99889 3.99931 4.99889H10.9944C11.7939 4.99889 12.5434 5.30872 13.113 5.8784C13.6826 6.44808 13.9924 7.19767 13.9924 7.99722V17.5819L10.7046 14.2937C10.3149 13.9039 9.68536 13.9039 9.29563 14.2937C8.9059 14.6835 8.9059 15.3132 9.29563 15.7029L14.2922 20.7002C14.3821 20.7901 14.492 20.8701 14.6219 20.92C14.7418 20.97 14.8718 21 15.0017 21C15.1316 21 15.2615 20.97 15.3814 20.92C15.5013 20.8701 15.6112 20.8001 15.7112 20.7002L20.7077 15.7029C21.0974 15.3132 21.0974 14.6835 20.7077 14.2937L20.6977 14.2837Z" />
</svg>
