<svg class="fill-current stroke-current w-full h-full" style="color: inherit" stroke-width="0.2" width="24" height="24" viewBox="0 0 24 24" stroke="none" xmlns="http://www.w3.org/2000/svg">
<path d="M19.9807 3H12.9856C11.6565 3 10.3974 3.51971 9.44802 4.45919C8.50867 5.39867 7.98904 6.65797 7.98904 7.99722V17.5819L4.70132 14.2937C4.31159 13.9039 3.68203 13.9039 3.2923 14.2937C2.90257 14.6835 2.90257 15.3132 3.2923 15.7029L8.28883 20.7002C8.37876 20.7901 8.48869 20.8701 8.6186 20.92C8.73851 20.97 8.86842 21 8.99833 21C9.12824 21 9.25815 20.97 9.37807 20.92C9.49799 20.8701 9.60791 20.8001 9.70784 20.7002L14.7044 15.7029C15.0941 15.3132 15.0941 14.6835 14.7044 14.2937C14.3146 13.9039 13.6851 13.9039 13.2954 14.2937L10.0076 17.5819V7.99722C10.0076 7.19767 10.3174 6.43809 10.887 5.8784C11.4566 5.30872 12.2061 4.99889 13.0056 4.99889H20.0007C20.5503 4.99889 21 4.54914 21 3.99944C21 3.44975 20.5503 3 20.0007 3H19.9807Z" />
</svg>
