<svg class="fill-current stroke-current w-full h-full" style="color: inherit" stroke-width="0.2" width="24" height="24" viewBox="0 0 24 24" stroke="none" xmlns="http://www.w3.org/2000/svg">
<path d="M20.0096 19.005H13.0067C12.2063 19.005 11.456 18.695 10.8858 18.125C10.3256 17.565 10.0054 16.795 10.0054 16.005V6.415L13.2968 9.705C13.4969 9.905 13.747 9.995 14.0071 9.995C14.2672 9.995 14.5173 9.895 14.7174 9.705C15.1075 9.315 15.1075 8.685 14.7174 8.295L9.7153 3.295C9.62526 3.205 9.51521 3.125 9.38516 3.075C9.14506 2.975 8.86494 2.975 8.62484 3.075C8.50479 3.125 8.39475 3.195 8.29471 3.295L3.29262 8.295C2.90246 8.685 2.90246 9.315 3.29262 9.705C3.68278 10.095 4.31305 10.095 4.70321 9.705L7.99458 6.415V16.005C7.99458 17.345 8.5148 18.595 9.45519 19.545C10.4056 20.485 11.6561 21.005 12.9967 21.005H19.9996C20.5498 21.005 21 20.555 21 20.005C21 19.455 20.5498 19.005 19.9996 19.005H20.0096Z" />
</svg>
