<svg class="fill-current stroke-current w-full h-full" style="color: inherit" stroke-width="0.2" width="24" height="24" viewBox="0 0 24 24" stroke="none" xmlns="http://www.w3.org/2000/svg">
<path d="M20.92 9.38516C21.02 9.14506 21.02 8.86494 20.92 8.62484C20.87 8.50479 20.8 8.39475 20.7 8.29471L15.71 3.29262C15.32 2.90246 14.69 2.90246 14.3 3.29262C13.91 3.68278 13.91 4.31305 14.3 4.70321L17.59 7.99458H8C6.67 7.99458 5.41 8.5148 4.46 9.45519C3.52 10.3956 3 11.6561 3 12.9967V19.9996C3 20.5498 3.45 21 4 21C4.55 21 5 20.5498 5 19.9996V12.9967C5 12.1963 5.31 11.436 5.88 10.8758C6.45 10.3055 7.2 9.99541 8 9.99541H17.59L14.3 13.2868C13.91 13.6769 13.91 14.3072 14.3 14.6974C14.5 14.8975 14.75 14.9875 15.01 14.9875C15.27 14.9875 15.52 14.8875 15.72 14.6974L20.72 9.69529C20.81 9.60525 20.89 9.49521 20.94 9.36515L20.92 9.38516Z" />
</svg>
