<svg class="fill-current stroke-current w-full h-full" style="color: inherit" stroke-width="0.2" width="24" height="24" viewBox="0 0 24 24" stroke="none" xmlns="http://www.w3.org/2000/svg">
<path d="M20.92 15.3869C21.02 15.1467 21.02 14.8666 20.92 14.6265C20.87 14.5064 20.8 14.3963 20.7 14.2963L15.7 9.2935C15.31 8.90328 14.68 8.90328 14.29 9.2935C13.9 9.68371 13.9 10.3141 14.29 10.7043L17.58 13.9961H8C7.2 13.9961 6.45 13.6859 5.88 13.1156C5.32 12.5553 5 11.7849 5 10.9944V4.00056C5 3.45025 4.55 3 4 3C3.45 3 3 3.45025 3 4.00056V11.0044C3 12.3452 3.52 13.5959 4.46 14.5464C5.41 15.4869 6.66 16.0072 8 16.0072H17.59L14.3 19.2991C13.91 19.6893 13.91 20.3196 14.3 20.7098C14.5 20.91 14.75 21 15.01 21C15.27 21 15.52 20.8999 15.72 20.7098L20.72 15.7071C20.81 15.617 20.89 15.5069 20.94 15.3769L20.92 15.3869Z" />
</svg>
