<svg class="fill-current stroke-current w-full h-full" style="color: inherit" stroke-width="0.2" width="24" height="24" viewBox="0 0 24 24" stroke="none" xmlns="http://www.w3.org/2000/svg">
<path d="M19.535 9.4525C18.595 8.5125 17.335 7.9925 15.995 7.9925H6.415L9.715 4.7025C10.105 4.3125 10.105 3.6825 9.715 3.2925C9.325 2.9025 8.695 2.9025 8.305 3.2925L3.295 8.2825C3.205 8.3725 3.125 8.4825 3.075 8.6125C2.975 8.8525 2.975 9.1325 3.075 9.3725C3.125 9.4925 3.195 9.6025 3.295 9.7025L8.295 14.7025C8.495 14.9025 8.745 14.9925 9.005 14.9925C9.265 14.9925 9.515 14.8925 9.715 14.7025C10.105 14.3125 10.105 13.6825 9.715 13.2925L6.425 10.0025H16.005C16.795 10.0025 17.565 10.3225 18.125 10.8825C18.695 11.4525 19.005 12.2025 19.005 13.0025V20.0025C19.005 20.5525 19.455 21.0025 20.005 21.0025C20.555 21.0025 21.005 20.5525 21.005 20.0025V13.0025C21.005 11.6625 20.485 10.4125 19.545 9.4625L19.535 9.4525Z" />
</svg>
