<svg class="fill-current stroke-current w-full h-full" style="color: inherit" stroke-width="0.2" width="24" height="24" viewBox="0 0 24 24" stroke="none" xmlns="http://www.w3.org/2000/svg">
<path d="M20.71 8.295L15.71 3.295C15.62 3.205 15.51 3.125 15.38 3.075C15.14 2.975 14.86 2.975 14.62 3.075C14.5 3.125 14.39 3.195 14.29 3.295L9.29 8.295C8.9 8.685 8.9 9.315 9.29 9.705C9.68 10.095 10.31 10.095 10.7 9.705L13.99 6.415V16.005C13.99 16.795 13.67 17.565 13.11 18.125C12.54 18.695 11.79 19.005 10.99 19.005H4C3.45 19.005 3 19.455 3 20.005C3 20.555 3.45 21.005 4 21.005H11C12.33 21.005 13.59 20.485 14.54 19.545C15.49 18.605 16 17.345 16 16.005V6.415L19.29 9.705C19.49 9.905 19.74 9.995 20 9.995C20.26 9.995 20.51 9.895 20.71 9.705C21.1 9.315 21.1 8.685 20.71 8.295Z" />
</svg>
