<svg class="fill-current stroke-current w-full h-full" style="color: inherit" stroke-width="0.2" width="24" height="24" viewBox="0 0 24 24" stroke="none" xmlns="http://www.w3.org/2000/svg">
<path fill-rule="evenodd" clip-rule="evenodd" d="M18.4536 11.1V20H15.4805V17C15.4805 15.35 14.1426 14 12.5074 14C10.8723 14 9.53437 15.35 9.53437 17V20H6.56129V11.1L12.5074 6.52L18.4536 11.1ZM22.6159 11.79C23.0421 12.12 23.1312 12.74 22.7943 13.18C22.6952 13.32 22.5565 13.42 22.4078 13.49C22.0907 13.63 21.7141 13.6 21.4168 13.38C21.4168 13.38 21.4168 13.38 21.4069 13.38L20.4257 12.62V21C20.4257 21.55 19.9798 22 19.4347 22H13.4886V17C13.4886 16.45 13.0426 16 12.4975 16C11.9525 16 11.5065 16.45 11.5065 17V22H5.57026C5.0252 22 4.57924 21.55 4.57924 21V12.62L3.58821 13.38C3.58821 13.38 3.58821 13.38 3.5783 13.38C3.28099 13.6 2.91431 13.63 2.59718 13.49C2.44853 13.42 2.30979 13.32 2.20077 13.18C1.87374 12.74 1.95302 12.11 2.38907 11.78L4.57924 10.1V7.99C4.57924 7.9 4.58915 7.8 4.61888 7.72C4.71798 7.36 5.01529 7.08 5.38197 7.01C5.44143 7 5.5108 6.99 5.57026 6.99C5.65946 6.99 5.74865 7 5.83784 7.03C6.22434 7.14 6.52165 7.49 6.56129 7.9C6.56129 7.93 6.56129 7.96 6.56129 7.99V8.57L11.9029 4.46C12.2498 4.19 12.7453 4.19 13.1021 4.46L22.6159 11.79V11.79ZM10.2479 3.22C10.3866 2.63 9.91096 2 9.26679 2C8.92984 2 8.58298 2.16 8.43433 2.47C8.43433 2.48 8.41451 2.5 8.4046 2.51C8.35505 2.59 8.29559 2.66 8.23612 2.72C8.05774 2.88 7.81989 2.99 7.56223 2.99C7.56223 2.99 7.54241 2.99 7.53249 2.99C6.75949 2.99 6.05587 3.3 5.53062 3.8C5.3126 4.01 5.11439 4.25 4.96574 4.52C4.96574 4.52 4.96574 4.53 4.95583 4.54C4.95583 4.54 4.95583 4.55 4.94592 4.56C4.9261 4.59 4.91619 4.62 4.90628 4.65C4.84681 4.79 4.8369 4.94 4.84681 5.08C4.88645 5.48 5.18376 5.84 5.58017 5.95C5.66937 5.97 5.75856 5.99 5.84775 5.99C6.1847 5.99 6.53156 5.83 6.68021 5.52C6.68021 5.51 6.70003 5.49 6.70994 5.48C6.74958 5.41 6.79914 5.35 6.8586 5.3C6.8586 5.3 6.87842 5.28 6.88833 5.28C7.06671 5.12 7.30456 5.01 7.56223 5.01C7.56223 5.01 7.58205 5.01 7.59196 5.01C7.7307 5.01 7.85953 5 7.98837 4.98C8.6028 4.89 9.15778 4.61 9.59383 4.2C9.81185 3.99 10.0101 3.75 10.1587 3.48C10.1587 3.48 10.1587 3.47 10.1686 3.46C10.1686 3.46 10.1686 3.45 10.1785 3.44C10.1984 3.41 10.2083 3.38 10.2182 3.35C10.238 3.31 10.2479 3.27 10.2578 3.23L10.2479 3.22Z" />
</svg>
