<svg class="fill-current stroke-current w-full h-full" style="color: inherit" stroke-width="0.2" width="24" height="24" viewBox="0 0 24 24" stroke="none" xmlns="http://www.w3.org/2000/svg">
<path d="M20.9984 20.9982H11.9984C11.4484 20.9982 10.9984 20.5482 10.9984 19.9982C10.9984 19.4482 11.4484 18.9982 11.9984 18.9982H20.9984C21.5484 18.9982 21.9984 19.4482 21.9984 19.9982C21.9984 20.5482 21.5484 20.9982 20.9984 20.9982ZM4.23837 20.9682L7.97837 20.0382C8.15837 19.9982 8.31837 19.9082 8.43837 19.7782L20.1184 8.08824C20.3984 7.80824 20.6184 7.48824 20.7684 7.11824C20.9184 6.75824 20.9984 6.36824 20.9984 5.97824C20.9984 5.58824 20.9184 5.19824 20.7684 4.83824C20.6184 4.47824 20.3984 4.14824 20.1184 3.86824C19.8384 3.58824 19.5184 3.36824 19.1484 3.21824C18.0584 2.76824 16.7284 3.02824 15.8984 3.86824L4.22837 15.5582C4.09837 15.6882 4.00837 15.8482 3.96837 16.0182L3.02837 19.7582C2.94837 20.0982 3.03837 20.4582 3.28837 20.7082C3.47837 20.8982 3.73837 20.9982 3.99837 20.9982C4.07837 20.9982 4.15837 20.9982 4.23837 20.9682ZM17.3184 5.28824C17.5884 5.01824 18.0284 4.92824 18.3884 5.07824C18.5084 5.12824 18.6184 5.19824 18.7084 5.28824C18.7984 5.37824 18.8684 5.48824 18.9184 5.60824C18.9684 5.72824 18.9984 5.85824 18.9984 5.98824C18.9984 6.11824 18.9684 6.23824 18.9184 6.36824C18.8684 6.48824 18.7984 6.59824 18.7084 6.68824L7.22837 18.1582L5.37837 18.6182L5.83837 16.7682L17.3184 5.28824Z" />
</svg>
