<svg class="fill-current stroke-current w-full h-full" style="color: inherit" stroke-width="0.2" width="24" height="24" viewBox="0 0 24 24" stroke="none" xmlns="http://www.w3.org/2000/svg">
<path d="M4.00183 20.9975C3.74201 20.9975 3.48219 20.8975 3.29232 20.7075C3.0425 20.4575 2.94257 20.0875 3.0325 19.7375L4.24166 15.2975C4.29163 15.1275 4.37157 14.9775 4.50148 14.8575L15.3939 3.9575C15.7037 3.6475 16.0634 3.4075 16.4632 3.2475C17.2626 2.9175 18.172 2.9175 18.9714 3.2475C19.3711 3.4175 19.7309 3.6575 20.0407 3.9575C20.3505 4.2575 20.5903 4.6175 20.7502 5.0275C20.9201 5.4275 21 5.8475 21 6.2775C21 6.7075 20.9201 7.1375 20.7502 7.5375C20.5803 7.9375 20.3405 8.2975 20.0407 8.5975L9.14825 19.4875C9.02833 19.6075 8.86844 19.6975 8.70855 19.7475L4.27164 20.9575C4.1817 20.9775 4.09177 20.9975 4.01182 20.9975H4.00183ZM6.11036 16.0775L5.43083 18.5675L7.9191 17.8875L18.6117 7.1875C18.7316 7.0675 18.8215 6.9275 18.8915 6.7775C18.9614 6.6175 18.9914 6.4575 18.9914 6.2875C18.9914 6.1175 18.9614 5.9575 18.8915 5.7975C18.8215 5.6375 18.7316 5.4975 18.6117 5.3775C18.4917 5.2575 18.3518 5.1575 18.192 5.0975C17.8822 4.9675 17.5224 4.9675 17.2126 5.0975C17.0527 5.1575 16.9128 5.2575 16.7929 5.3775L6.11036 16.0775Z" />
</svg>
