<svg class="fill-current stroke-current w-full h-full" style="color: inherit" stroke-width="0.2" width="24" height="24" viewBox="0 0 24 24" stroke="none" xmlns="http://www.w3.org/2000/svg">
<path d="M20 3H4C2.89 3 2.01 3.91113 2.01 5.04749L2 17.3324C2 18.4688 2.89 19.3799 4 19.3799H8C8.55 19.3799 9 18.9192 9 18.3562C9 17.7931 8.55 17.3324 8 17.3324H4V11.19H22V5.04749C22 3.92137 21.1 3 20 3ZM20 7.09498H4V5.04749H20V7.09498ZM14.93 18.5302L12.81 16.3599C12.42 15.9606 11.79 15.9606 11.4 16.3599C11.01 16.7591 11.01 17.4041 11.4 17.8034L14.23 20.7006C14.62 21.0998 15.25 21.0998 15.64 20.7006L21.3 14.9062C21.69 14.5069 21.69 13.8619 21.3 13.4627C20.91 13.0634 20.28 13.0634 19.89 13.4627L14.93 18.5302Z" />
</svg>
