<svg class="fill-current stroke-current w-full h-full" style="color: inherit" stroke-width="0.2" width="24" height="24" viewBox="0 0 24 24" stroke="none" xmlns="http://www.w3.org/2000/svg">
<path fill-rule="evenodd" clip-rule="evenodd" d="M6 11.05L7.09 10.33C8.5 9.4 9.69 7.48 9.95 5H6.01V11.05H6ZM6 12.95V19H9.94C9.68 16.52 8.5 14.6 7.08 13.67L5.99 12.95H6ZM11.95 19H12.04C12.16 17.6 12.53 16.31 13.09 15.18C13.42 14.51 13.82 13.91 14.27 13.37C14.73 12.83 15.24 12.37 15.8 12C15.24 11.63 14.73 11.17 14.27 10.63C13.82 10.1 13.42 9.49 13.09 8.82C12.53 7.69 12.16 6.4 12.04 5H11.95C11.83 6.4 11.46 7.69 10.9 8.82C10.57 9.49 10.17 10.09 9.72 10.63C9.26 11.17 8.75 11.63 8.19 12C8.75 12.37 9.26 12.83 9.72 13.37C10.17 13.9 10.57 14.51 10.9 15.18C11.46 16.31 11.83 17.6 11.95 19ZM14.05 5C14.31 7.48 15.49 9.4 16.9 10.33L18 11.06V5H14.05ZM18 12.94L16.9 13.67C15.49 14.6 14.3 16.52 14.05 19H18V12.94ZM3 21C2.45 21 2 20.55 2 20C2 19.45 2.45 19 3 19H4V5C4 3.9 4.9 3 6 3H18C19.1 3 20 3.9 20 5V19H21C21.55 19 22 19.45 22 20C22 20.55 21.55 21 21 21H3Z" />
</svg>
