<svg class="fill-current stroke-current w-full h-full" style="color: inherit" stroke-width="0.2" width="24" height="24" viewBox="0 0 24 24" stroke="none" xmlns="http://www.w3.org/2000/svg">
<path fill-rule="evenodd" clip-rule="evenodd" d="M20.9935 12.9793C21.0838 12.1873 20.2116 11.5557 19.4498 12.0269C18.6078 12.5683 17.6053 12.8791 16.5327 12.8791C13.5455 12.8791 11.1196 10.4528 11.1196 7.46513C11.1196 6.40239 11.4304 5.3998 11.9617 4.56766C12.4128 3.89593 11.9216 2.93345 11.0294 3.00363C6.51851 3.4949 3 7.32476 3 11.9767C3 16.9596 7.03978 21 12.0218 21C16.6631 21 20.4923 17.491 20.9935 12.9793ZM9.38545 5.46999C6.81924 6.51267 5.00485 9.03918 5.00485 11.9868C5.00485 15.8668 8.14244 19.0049 12.0218 19.0049C14.9589 19.0049 17.4851 17.1902 18.5276 14.6236C17.886 14.804 17.2144 14.8943 16.5327 14.8943C12.4428 14.8943 9.1148 11.5657 9.1148 7.47515C9.1148 6.78337 9.21504 6.11164 9.38545 5.46999V5.46999Z" />
</svg>
