<svg class="fill-current stroke-current w-full h-full" style="color: inherit" stroke-width="0.2" width="24" height="24" viewBox="0 0 24 24" stroke="none" xmlns="http://www.w3.org/2000/svg">
<path d="M12.9999 3.89857V3.91895C12.9999 4.60167 13.4499 5.17231 14.0799 5.37611C16.9299 6.28301 18.9999 8.98335 18.9999 12.183C18.9999 12.7129 18.9399 13.2122 18.8299 13.7013C18.6899 14.3534 18.9499 15.026 19.5199 15.3724L19.5299 15.3826C20.3899 15.8921 21.5099 15.4336 21.7399 14.4553C21.9099 13.7217 21.9999 12.9574 21.9999 12.183C21.9999 7.59752 19.0199 3.70496 14.9199 2.43122C13.9699 2.13571 12.9999 2.87957 12.9999 3.89857V3.89857ZM10.9399 19.2344C7.94991 18.7963 5.51991 16.3201 5.07991 13.2835C4.53991 9.61512 6.73991 6.38491 9.90991 5.37611C10.5499 5.1825 10.9999 4.60167 10.9999 3.91895V3.89857C10.9999 2.87957 10.0299 2.13571 9.06991 2.43122C4.55991 3.83743 1.40991 8.40252 2.08991 13.5994C2.67991 18.0626 6.21991 21.6698 10.5999 22.271C13.7399 22.699 16.6399 21.6494 18.7299 19.693C19.4699 19.0001 19.3399 17.7671 18.4699 17.2576C17.8899 16.9111 17.1699 17.0232 16.6699 17.4818C15.1999 18.8472 13.1599 19.5707 10.9399 19.2344V19.2344Z" />
</svg>
