<svg class="fill-current stroke-current w-full h-full" style="color: inherit" stroke-width="0.2" width="24" height="24" viewBox="0 0 24 24" stroke="none" xmlns="http://www.w3.org/2000/svg">
<path d="M12 2C7.67 2 3 3.16 3 5.7V18.3C3 20.84 7.67 22 12 22C16.33 22 21 20.84 21 18.3V5.7C21 3.16 16.33 2 12 2ZM19 11.99C18.88 12.46 16.56 13.7 12 13.7C7.44 13.7 5.11 12.46 5 12V8.13C6.76 8.99 9.43 9.4 12 9.4C14.57 9.4 17.24 8.99 19 8.13V11.99ZM12 4C16.54 4 18.88 5.24 19 5.69C18.88 6.16 16.54 7.4 12 7.4C7.46 7.4 5.13 6.16 5 5.71C5.13 5.23 7.47 4 12 4V4ZM12 20C7.44 20 5.11 18.76 5 18.3V14.43C6.76 15.29 9.43 15.7 12 15.7C14.57 15.7 17.24 15.29 19 14.43V18.29C18.89 18.76 16.56 20 12 20Z" />
</svg>
