<svg class="fill-current stroke-current w-full h-full" style="color: inherit" stroke-width="0.2" width="24" height="24" viewBox="0 0 24 24" stroke="none" xmlns="http://www.w3.org/2000/svg">
<path d="M11 10.9724H9C8.45 10.9724 8 11.4236 8 11.9749C8 12.5263 8.45 12.9774 9 12.9774H11V14.9825C11 15.5338 11.45 15.985 12 15.985C12.55 15.985 13 15.5338 13 14.9825V12.9774H15C15.55 12.9774 16 12.5263 16 11.9749C16 11.4236 15.55 10.9724 15 10.9724H13V8.96742C13 8.41604 12.55 7.96491 12 7.96491C11.45 7.96491 11 8.41604 11 8.96742V10.9724ZM12 18.9925C8.13 18.9925 5 15.8546 5 11.9749C5 8.43609 7.61 5.52882 11 5.03759V2C5.94 2.50125 2 6.77193 2 11.9749C2 17.5088 6.47 22 11.99 22C15.3 22 18.23 20.386 20.05 17.8997L17.45 16.3659C16.17 17.9699 14.21 18.9925 12 18.9925ZM13 2V5.03759C16.39 5.52882 19 8.43609 19 11.9749C19 12.8772 18.82 13.7293 18.52 14.5213L21.12 16.0551C21.68 14.812 22 13.4286 22 11.9749C22 6.78195 18.05 2.50125 13 2Z" />
</svg>
