<svg class="fill-current stroke-current w-full h-full" style="color: inherit" stroke-width="0.2" width="24" height="24" viewBox="0 0 24 24" stroke="none" xmlns="http://www.w3.org/2000/svg">
<path d="M20.0006 5.6H18.2315H16.5625V4.8C16.5625 4.06 16.2726 3.35 15.7529 2.82C15.2232 2.29 14.5336 2 13.784 2H10.226C9.4864 2 8.78679 2.29 8.25708 2.82C7.73737 3.35 7.44753 4.05 7.44753 4.8V5.6H5.77846H3.99944C3.44975 5.6 3 6.05 3 6.6C3 7.15 3.44975 7.6 3.99944 7.6H4.77901V19.2C4.77901 19.95 5.06885 20.65 5.58856 21.17C6.11827 21.7 6.80788 22 7.55747 22H16.4425C17.1721 22 17.8917 21.7 18.4114 21.18C18.9311 20.65 19.221 19.95 19.221 19.2V7.6H20.0006C20.5502 7.6 21 7.15 21 6.6C21 6.05 20.5502 5.6 20.0006 5.6ZM9.44642 4.8C9.44642 4.59 9.52637 4.38 9.67629 4.23C9.82621 4.08 10.0161 4 10.226 4H13.784C13.9939 4 14.1838 4.08 14.3337 4.23C14.4836 4.38 14.5636 4.59 14.5636 4.8V5.6H9.45641V4.8H9.44642ZM17.2221 19.2C17.2221 19.41 17.1421 19.62 16.9922 19.77C16.8423 19.92 16.6524 20 16.4525 20H7.56746C7.35758 20 7.16769 19.92 7.01777 19.77C6.86785 19.62 6.7879 19.41 6.7879 19.2V7.6H17.2221V19.2ZM9.2965 15.29L10.5858 14L9.2965 12.71C8.90672 12.32 8.90672 11.69 9.2965 11.3C9.68629 10.91 10.3159 10.91 10.7057 11.3L11.995 12.59L13.2843 11.3C13.6741 10.91 14.3037 10.91 14.6935 11.3C15.0833 11.69 15.0833 12.32 14.6935 12.71L13.4042 14L14.6935 15.29C15.0833 15.68 15.0833 16.31 14.6935 16.7C14.4936 16.9 14.2438 16.99 13.9839 16.99C13.724 16.99 13.4742 16.89 13.2743 16.7L11.985 15.41L10.6957 16.7C10.4958 16.9 10.246 16.99 9.98612 16.99C9.72626 16.99 9.4764 16.89 9.27651 16.7C8.88673 16.31 8.88673 15.68 9.27651 15.29H9.2965Z" />
</svg>
