<svg class="fill-current stroke-current w-full h-full" style="color: inherit" stroke-width="0.2" width="24" height="24" viewBox="0 0 24 24" stroke="none" xmlns="http://www.w3.org/2000/svg">
<path fill-rule="evenodd" clip-rule="evenodd" d="M19.922 8.00999C19.8732 7.88999 19.8049 7.78999 19.7171 7.68999L14.4488 2.28999C14.361 2.19999 14.2537 2.12999 14.1366 2.06999C14.0195 2.01999 13.8927 1.98999 13.7561 1.98999H6.73171C6.00976 1.98999 5.31707 2.27999 4.8 2.80999C4.28293 3.33999 4 4.04999 4 4.78999V19.19C4 19.93 4.28293 20.64 4.8 21.17C5.31707 21.7 6.00976 21.99 6.73171 21.99H17.2683C17.9902 21.99 18.6829 21.7 19.2 21.17C19.7171 20.64 20 19.93 20 19.19V8.39999C20 8.26999 19.9707 8.13999 19.922 8.00999ZM14.7317 5.40999L16.6732 7.39999H14.7317V5.40999ZM17.8244 19.76C17.678 19.91 17.4829 19.99 17.2683 19.99H6.73171C6.52683 19.99 6.32195 19.91 6.17561 19.76C6.02927 19.61 5.95122 19.41 5.95122 19.19V4.79999C5.95122 4.58999 6.02927 4.37999 6.17561 4.22999C6.32195 4.07999 6.51707 3.99999 6.73171 3.99999H12.7805V8.39999C12.7805 8.94999 13.2195 9.39999 13.7561 9.39999H18.0488V19.2C18.0488 19.41 17.9707 19.62 17.8244 19.77V19.76ZM16.4878 12.89C16.4878 13.44 16.0488 13.89 15.5122 13.89H8.4878C7.95122 13.89 7.5122 13.44 7.5122 12.89C7.5122 12.34 7.95122 11.89 8.4878 11.89H15.5122C16.0488 11.89 16.4878 12.34 16.4878 12.89ZM16.4878 16.49C16.4878 17.04 16.0488 17.49 15.5122 17.49H8.4878C7.95122 17.49 7.5122 17.04 7.5122 16.49C7.5122 15.94 7.95122 15.49 8.4878 15.49H15.5122C16.0488 15.49 16.4878 15.94 16.4878 16.49ZM7.5122 9.29999C7.5122 8.74999 7.95122 8.29999 8.4878 8.29999H10.2439C10.7805 8.29999 11.2195 8.74999 11.2195 9.29999C11.2195 9.84999 10.7805 10.3 10.2439 10.3H8.4878C7.95122 10.3 7.5122 9.84999 7.5122 9.29999Z" />
</svg>
