<svg class="fill-current stroke-current w-full h-full" style="color: inherit" stroke-width="0.2" width="24" height="24" viewBox="0 0 24 24" stroke="none" xmlns="http://www.w3.org/2000/svg">
<path d="M2.98803 12.8997H4.96797V10.9198H2.98803V12.8997ZM6.94792 20.8195H8.92786V18.8395H6.94792V20.8195ZM12.8877 3H10.9078V4.97994H12.8877V3ZM18.8276 3V4.97994H20.8075C20.8075 3.89097 19.9165 3 18.8276 3ZM4.96797 20.8195V18.8395H2.98803C2.98803 19.9285 3.87901 20.8195 4.96797 20.8195ZM2.98803 16.8596H4.96797V14.8796H2.98803V16.8596ZM10.9078 20.8195H12.8877V18.8395H10.9078V20.8195ZM18.8276 12.8997H20.8075V10.9198H18.8276V12.8997ZM18.8276 8.93982H20.8075V6.95988H18.8276V8.93982ZM14.8677 4.97994H16.8476V3H14.8677V4.97994ZM7.76959 4.97994L6.94792 4.15827V3H8.92786V4.97994H7.76959ZM19.6492 16.8596L18.8276 16.0379V14.8796H20.8075V16.8596H19.6492ZM8.92786 14.8796V11.7414L12.0661 14.8796H8.92786ZM2.09706 3.50488C1.71097 3.89097 1.71097 4.51465 2.09706 4.90074L4.1463 6.95988H2.98803V8.93982H4.96797V7.78156L6.94792 9.7615V15.8696C6.94792 16.4141 7.3934 16.8596 7.93788 16.8596H14.046L16.0259 18.8395H14.8677V20.8195H16.8476V19.6612L18.8969 21.7104C19.2829 22.0965 19.9066 22.0965 20.2927 21.7104C20.6788 21.3243 20.6788 20.7007 20.2927 20.3146L3.49292 3.50488C3.10683 3.1188 2.48315 3.1188 2.09706 3.50488ZM16.8476 7.94985C16.8476 7.40537 16.4021 6.95988 15.8576 6.95988H9.74953L11.7295 8.93982H14.8677V12.078L16.8476 14.058V7.94985Z" />
</svg>
