<svg class="fill-current stroke-current w-full h-full" style="color: inherit" stroke-width="0.2" width="24" height="24" viewBox="0 0 24 24" stroke="none" xmlns="http://www.w3.org/2000/svg">
<g clip-path="url(#clip0_806_1644)">
<path d="M0.29285 1.29417C-0.0976167 1.6864 -0.0976167 2.32 0.29285 2.71223L0.983676 3.39611V15.3742C0.983676 16.4805 1.88475 17.3856 2.98607 17.3856H9.99445V19.397H8.99325C8.44259 19.397 7.99206 19.8496 7.99206 20.4027C7.99206 20.9559 8.44259 21.4085 8.99325 21.4085H15.0004C15.5511 21.4085 16.0016 20.9559 16.0016 20.4027C16.0016 19.8496 15.5511 19.397 15.0004 19.397H13.9992V17.3856H14.9003L20.1966 22.7058C20.5871 23.0981 21.2179 23.0981 21.6083 22.7058C21.9988 22.3136 21.9988 21.68 21.6083 21.2878L1.70454 1.29417C1.31407 0.901943 0.683317 0.901943 0.29285 1.29417ZM2.97606 14.3685V5.40754L12.8979 15.3742H3.97726C3.4266 15.3742 2.97606 14.9216 2.97606 14.3685ZM4.53793 1.29417L6.54032 3.3056H20.0064C20.5571 3.3056 21.0076 3.75817 21.0076 4.31131V14.3685C21.0076 14.9216 20.5571 15.3742 20.0064 15.3742H18.5547L20.5571 17.3856H20.9976C22.0989 17.3856 23 16.4805 23 15.3742V3.3056C23 2.19931 22.0989 1.29417 20.9976 1.29417H4.53793Z" />
</g>
<defs>
<clipPath id="clip0_806_1644">
<rect width="24" height="24" fill="white"/>
</clipPath>
</defs>
</svg>
