<svg class="fill-current stroke-current w-full h-full" style="color: inherit" stroke-width="0.2" width="24" height="24" viewBox="0 0 24 24" stroke="none" xmlns="http://www.w3.org/2000/svg">
<path d="M7.5626 5H17.4473V6C17.4473 6.55 17.8921 7 18.4357 7C18.9794 7 19.4242 6.55 19.4242 6V3C19.4242 1.9 18.5346 1.01 17.4473 1.01L7.5626 1C6.47529 1 5.58567 1.9 5.58567 3V6C5.58567 6.55 6.03048 7 6.57414 7C7.11779 7 7.5626 6.55 7.5626 6V5ZM16.5774 15.88L19.7109 12.71C20.0964 12.32 20.0964 11.69 19.7109 11.3L16.5774 8.13C16.1919 7.74 15.5593 7.74 15.1738 8.13C14.7883 8.52 14.7883 9.15 15.1738 9.54L17.6153 12L15.1738 14.47C14.7883 14.86 14.7883 15.49 15.1738 15.88C15.5593 16.27 16.1919 16.27 16.5774 15.88V15.88ZM9.82619 14.46L7.39456 12L9.82619 9.54C10.2117 9.15 10.2117 8.52 9.82619 8.13C9.44069 7.74 8.80807 7.74 8.42257 8.13L5.28913 11.3C4.90362 11.69 4.90362 12.32 5.28913 12.71L8.42257 15.88C8.80807 16.27 9.44069 16.27 9.82619 15.88C10.2216 15.49 10.2117 14.85 9.82619 14.46V14.46ZM17.4473 19H7.5626V18C7.5626 17.45 7.11779 17 6.57414 17C6.03048 17 5.58567 17.45 5.58567 18V21C5.58567 22.1 6.47529 23 7.5626 23H17.4473C18.5346 23 19.4242 22.1 19.4242 21V18C19.4242 17.45 18.9794 17 18.4357 17C17.8921 17 17.4473 17.45 17.4473 18V19Z" />
</svg>
