<svg class="fill-current stroke-current w-full h-full" style="color: inherit" stroke-width="0.2" width="24" height="24" viewBox="0 0 24 24" stroke="none" xmlns="http://www.w3.org/2000/svg">
<path d="M20 4.00101H17C17 2.57101 15.53 1.60101 14.21 2.16101L11.21 3.45101C10.48 3.76101 10 4.49101 10 5.29101V20.001C10 21.101 10.9 22.001 12 22.001H20C21.1 22.001 22 21.101 22 20.001V6.00101C22 4.90101 21.1 4.00101 20 4.00101ZM20 20.001H14.67L15.79 19.521C16.52 19.201 17 18.481 17 17.681V6.00101H20V20.001ZM4 4.00101H2V6.00101H4V4.00101ZM4 20.001H2V22.001H4V20.001ZM4 16.001H2V18.001H4V16.001ZM4 12.001H2V14.001H4V12.001ZM4 8.00101H2V10.001H4V8.00101ZM8 4.00101H6V6.00101H8V4.00101ZM8 20.001H6V22.001H8V20.001Z" />
</svg>
