<svg class="fill-current stroke-current w-full h-full" style="color: inherit" stroke-width="0.2" width="24" height="24" viewBox="0 0 24 24" stroke="none" xmlns="http://www.w3.org/2000/svg">
<path d="M13.5 5.90698C14.6 5.90698 15.5 5.02791 15.5 3.95349C15.5 2.87907 14.6 2 13.5 2C12.4 2 11.5 2.87907 11.5 3.95349C11.5 5.02791 12.4 5.90698 13.5 5.90698ZM9.8 9.22791L7 23H9.1L10.9 15.186L13 17.1395V23H15V15.6744L12.9 13.7209L13.5 10.7907C14.8 12.2558 16.8 13.2326 19 13.2326V11.2791C17.1 11.2791 15.5 10.3023 14.7 8.93488L13.7 7.37209C13.14 6.50279 12.02 6.15116 11.05 6.55163L6 8.64186V13.2326H8V9.91163L9.8 9.22791Z" />
</svg>
