<svg class="fill-current stroke-current w-full h-full" style="color: inherit" stroke-width="0.2" width="24" height="24" viewBox="0 0 24 24" stroke="none" xmlns="http://www.w3.org/2000/svg">
<path d="M15.5 5.90244C16.6 5.90244 17.5 5.02439 17.5 3.95122C17.5 2.87805 16.6 2 15.5 2C14.4 2 13.5 2.87805 13.5 3.95122C13.5 5.02439 14.4 5.90244 15.5 5.90244ZM5 12.2439C2.2 12.2439 0 14.3902 0 17.122C0 19.8537 2.2 22 5 22C7.8 22 10 19.8537 10 17.122C10 14.3902 7.8 12.2439 5 12.2439ZM5 20.5366C3.1 20.5366 1.5 18.9756 1.5 17.122C1.5 15.2683 3.1 13.7073 5 13.7073C6.9 13.7073 8.5 15.2683 8.5 17.122C8.5 18.9756 6.9 20.5366 5 20.5366ZM10.8 10.7805L13.2 8.43902L14 9.21951C15.3 10.4878 17 11.2683 19.1 11.2683V9.31707C17.6 9.31707 16.4 8.73171 15.5 7.85366L13.6 6C13.1 5.60976 12.6 5.41463 12 5.41463C11.4 5.41463 10.9 5.60976 10.6 6L7.8 8.73171C7.4 9.12195 7.2 9.60976 7.2 10.0976C7.2 10.6829 7.4 11.1707 7.8 11.4634L11 14.1951V19.0732H13V13.0244L10.8 10.7805ZM19 12.2439C16.2 12.2439 14 14.3902 14 17.122C14 19.8537 16.2 22 19 22C21.8 22 24 19.8537 24 17.122C24 14.3902 21.8 12.2439 19 12.2439ZM19 20.5366C17.1 20.5366 15.5 18.9756 15.5 17.122C15.5 15.2683 17.1 13.7073 19 13.7073C20.9 13.7073 22.5 15.2683 22.5 17.122C22.5 18.9756 20.9 20.5366 19 20.5366Z" />
</svg>
