<svg class="fill-current stroke-current w-full h-full" style="color: inherit" stroke-width="0.2" width="24" height="24" viewBox="0 0 24 24" stroke="none" xmlns="http://www.w3.org/2000/svg">
<path d="M14.5342 5.90698C15.6273 5.90698 16.5217 5.02791 16.5217 3.95349C16.5217 2.87907 15.6273 2 14.5342 2C13.441 2 12.5466 2.87907 12.5466 3.95349C12.5466 5.02791 13.441 5.90698 14.5342 5.90698ZM10.9565 19.4837L11.9503 15.186L14.0373 17.1395V23H16.0248V15.6744L13.9379 13.7209L14.5342 10.7907C15.8261 12.2558 17.8137 13.2326 20 13.2326V11.2791C18.1118 11.2791 16.5217 10.3023 15.7267 8.93488L14.7329 7.37209C14.3354 6.78605 13.7391 6.39535 13.0435 6.39535C12.7453 6.39535 12.5466 6.49302 12.2484 6.49302L7.08074 8.64186V13.2326H9.06832V9.91163L10.8571 9.22791L9.26708 17.1395L4.39752 16.1628L4 18.1163L10.9565 19.4837Z" />
</svg>
