<svg class="fill-current stroke-current w-full h-full" style="color: inherit" stroke-width="0.2" width="24" height="24" viewBox="0 0 24 24" stroke="none" xmlns="http://www.w3.org/2000/svg">
<path fill-rule="evenodd" clip-rule="evenodd" d="M18.63 6.9925C18.21 6.27214 17.47 5.7919 16.55 5.49175C16.12 5.35168 15.65 5.24162 15.15 5.17159C14.7 5.10155 14.23 5.06153 13.75 5.03152C13.58 5.02151 13.41 5.01151 13.23 5.0015C13.15 5.0015 13.08 5.0015 13 5.0015L13.75 3.50075H17V2H7V3.50075H11.75L11 5.0015C10.92 5.0015 10.84 5.0015 10.76 5.0015C9.56 5.05153 8.41 5.18159 7.45 5.49175C6.52 5.7919 5.78 6.27214 5.37 6.9925C5.13 7.4027 5 7.90295 5 8.49325V16.9975C5 17.7479 5.27 18.4182 5.73 18.9485C6.13 19.4087 6.67 19.7489 7.28 19.8989C7.37 19.919 7.46 19.939 7.55 19.949L6.36 21.1396C6.21 21.2896 6.18 21.4897 6.24 21.6598C6.3 21.8499 6.48 22 6.71 22H7.8C7.93 22 8.06 21.95 8.15 21.8499L10 19.999H14L15.85 21.8499C15.94 21.94 16.07 22 16.2 22H17.29C17.52 22 17.7 21.8499 17.76 21.6698C17.82 21.4997 17.79 21.2996 17.64 21.1496L16.45 19.959C16.54 19.939 16.64 19.929 16.73 19.8989C17.34 19.7389 17.87 19.4087 18.27 18.9485C18.72 18.4282 19 17.7479 19 16.9975V8.49325C19 7.90295 18.87 7.4027 18.63 6.9925ZM7.85 17.968C7.35 17.8879 7 17.4777 7 16.9975V15.997H8.64C8.55 16.3172 8.5 16.6473 8.5 16.9975C8.5 17.3777 8.56 17.7479 8.68 18.098L7.86 17.968H7.85ZM13.12 17.998C12.85 18.3082 12.45 18.4982 12 18.4982C11.55 18.4982 11.16 18.3082 10.88 17.998C10.64 17.7279 10.5 17.3777 10.5 16.9975C10.5 16.6173 10.64 16.2671 10.88 15.997C11.15 15.6868 11.55 15.4967 12 15.4967C12.45 15.4967 12.84 15.6868 13.12 15.997C13.36 16.2671 13.5 16.6173 13.5 16.9975C13.5 17.3777 13.36 17.7279 13.12 17.998ZM17 16.9975C17 17.4777 16.65 17.8979 16.13 17.978L15.31 18.1081C15.43 17.7579 15.49 17.3777 15.49 16.9875C15.49 16.6373 15.44 16.3072 15.35 15.987H16.99V16.9875L17 16.9975ZM17 13.996H7V8.9935H17V13.996Z" />
</svg>
