<svg class="fill-current stroke-current w-full h-full" style="color: inherit" stroke-width="0.2" width="24" height="24" viewBox="0 0 24 24" stroke="none" xmlns="http://www.w3.org/2000/svg">
<path d="M10 4C5.58 4 2 7.58 2 12C2 16.42 5.58 20 10 20C14.42 20 18 16.42 18 12C18 7.58 14.42 4 10 4ZM10 18C6.69 18 4 15.31 4 12C4 8.69 6.69 6 10 6C13.31 6 16 8.69 16 12C16 15.31 13.31 18 10 18ZM10 10C8.9 10 8 10.9 8 12C8 13.1 8.9 14 10 14C11.1 14 12 13.1 12 12C12 10.9 11.1 10 10 10ZM20 9V12C20 12.55 20.45 13 21 13C21.55 13 22 12.55 22 12V9C22 8.45 21.55 8 21 8C20.45 8 20 8.45 20 9ZM21 14C21.55 14 22 14.45 22 15C22 15.55 21.55 16 21 16C20.45 16 20 15.55 20 15C20 14.45 20.45 14 21 14Z" />
</svg>
