<svg class="fill-current stroke-current w-full h-full" style="color: inherit" stroke-width="0.2" width="24" height="24" viewBox="0 0 24 24" stroke="none" xmlns="http://www.w3.org/2000/svg">
<path d="M12.7756 22C11.7751 22 10.8446 21.62 10.1343 20.92C9.42395 20.22 9.03376 19.29 9.03376 18.3V15.7H4.85175C4.45156 15.7 4.05137 15.62 3.68119 15.46C3.30101 15.29 2.97085 15.05 2.70072 14.75C2.43059 14.44 2.23049 14.08 2.11043 13.69C2.00038 13.3 1.97037 12.89 2.0304 12.48L3.291 4.38C3.39105 3.71 3.74122 3.1 4.26147 2.67C4.78172 2.23 5.41202 2 6.12236 2H19.1786C19.929 2 20.6393 2.29 21.1696 2.81C21.7099 3.34 22 4.04 22 4.8V11.1C22 11.84 21.6999 12.57 21.1596 13.09C20.6293 13.61 19.919 13.9 19.1686 13.9H17.0676L13.676 21.41C13.5159 21.77 13.1557 22 12.7656 22H12.7756ZM10.0342 13.7C10.5845 13.7 11.0347 14.15 11.0347 14.7V18.3C11.0347 18.75 11.2148 19.18 11.545 19.5C11.7251 19.68 11.9452 19.81 12.1853 19.9L15.4468 12.69V4H6.11236C5.91226 4 5.70216 4.07 5.55209 4.19C5.40202 4.32 5.30197 4.49 5.27195 4.68L4.01135 12.78C3.99134 12.89 4.01135 13.01 4.03136 13.11C4.06137 13.22 4.1214 13.32 4.20144 13.41C4.28148 13.5 4.37152 13.57 4.48157 13.62C4.59163 13.67 4.72169 13.69 4.84175 13.69H10.0342V13.7ZM17.4378 11.9H19.1786C19.3987 11.9 19.6189 11.81 19.7689 11.66C19.919 11.51 20.009 11.31 20.009 11.1V4.8C20.009 4.59 19.929 4.39 19.7689 4.24C19.6089 4.09 19.3987 4 19.1786 4H17.4378V11.9Z" />
</svg>
