<svg class="fill-current stroke-current w-full h-full" style="color: inherit" stroke-width="0.2" width="24" height="24" viewBox="0 0 24 24" stroke="none" xmlns="http://www.w3.org/2000/svg">
<path d="M20.3287 5.67129C20.7124 6.05501 20.7124 6.66503 20.3287 7.04875L9.17129 18.2062C8.78757 18.5899 8.17755 18.5899 7.79383 18.2062L3.66145 14.0738C3.27773 13.6901 3.27773 13.0801 3.66145 12.6963C4.04517 12.3126 4.65519 12.3126 5.03891 12.6963L8.48256 16.14L18.9611 5.67129C19.3448 5.28757 19.9548 5.28757 20.3385 5.67129H20.3287ZM18.2527 3.58542L8.48256 13.3457L5.73748 10.6006C4.97004 9.83318 3.72048 9.83318 2.95304 10.6006L1.57558 11.9781C0.80814 12.7455 0.80814 13.9951 1.57558 14.7625L7.08542 20.2724C7.85286 21.0398 9.10242 21.0398 9.86986 20.2724L22.4244 7.73748C23.1919 6.97004 23.1919 5.72048 22.4244 4.95304L21.047 3.57558C20.2697 2.80814 19.03 2.80814 18.2625 3.57558L18.2527 3.58542Z" />
</svg>
