<svg class="fill-current stroke-current w-full h-full" style="color: inherit" stroke-width="0.2" width="24" height="24" viewBox="0 0 24 24" stroke="none" xmlns="http://www.w3.org/2000/svg">
<path d="M17.1675 5.31098C16.7847 4.9084 16.1664 4.9084 15.7836 5.31098L10.248 11.1329L11.6319 12.5884L17.1675 6.75614C17.5405 6.36388 17.5405 5.70324 17.1675 5.31098ZM21.329 5.30066L11.6319 15.4994L8.21637 11.9174C7.83359 11.5148 7.21526 11.5148 6.83248 11.9174C6.4497 12.32 6.4497 12.9703 6.83248 13.3729L10.9351 17.6877C11.3179 18.0903 11.9362 18.0903 12.319 17.6877L22.7129 6.76646C23.0957 6.36388 23.0957 5.71356 22.7129 5.31098H22.7031C22.3301 4.89808 21.7118 4.89808 21.329 5.30066ZM1.28708 13.3832L5.38969 17.6981C5.77247 18.1006 6.39081 18.1006 6.77359 17.6981L7.46063 16.9755L2.67098 11.9174C2.2882 11.5148 1.66986 11.5148 1.28708 11.9174C0.904305 12.32 0.904305 12.9806 1.28708 13.3832Z" />
</svg>
