<svg class="fill-current stroke-current w-full h-full" style="color: inherit" stroke-width="0.2" width="24" height="24" viewBox="0 0 24 24" stroke="none" xmlns="http://www.w3.org/2000/svg">
<path d="M11.0671 8.82729L9.72966 7.50248L13.8277 3.47146C14.1418 3.1603 14.5369 3 14.9938 3C15.4507 3 15.8458 3.15558 16.1599 3.47146L22.0857 9.31762L16.8215 14.532L15.4841 13.2072L19.4108 9.31762L14.9938 4.93772L11.0671 8.82729ZM21.3717 20.397C21.5621 20.5809 21.6573 20.8072 21.6573 21.0571C21.6573 21.3069 21.5621 21.5333 21.3717 21.7171C21.1814 21.901 20.9577 22 20.7054 22C20.4531 22 20.2247 21.9057 20.039 21.7171L14.8034 16.531L12.1856 19.1005C12.0381 19.2467 11.862 19.3645 11.6668 19.4541C11.4622 19.5484 11.2432 19.5908 11.0195 19.5908H3.66587C3.20419 19.5908 2.80914 19.4305 2.48548 19.1099C2.16183 18.7893 2 18.398 2 17.9407V16.6442C2 16.234 2.11899 15.8663 2.35697 15.5504C2.5902 15.2392 2.89005 15.0129 3.24703 14.8715C3.51357 14.7772 3.84674 14.631 4.23703 14.433C4.62256 14.235 5.03665 13.9615 5.46502 13.6127L5.63161 13.4759L6.90243 14.7347C6.95003 14.7819 6.98335 14.7819 6.99762 14.7819C7.0119 14.7819 7.04046 14.7819 7.09282 14.7347C7.14041 14.6876 7.14041 14.6546 7.14041 14.6404C7.14041 14.6263 7.14041 14.598 7.09282 14.5462L5.89339 13.3298L6.08377 13.1648C6.20752 13.0563 6.34555 12.929 6.50262 12.7734C6.65969 12.6179 6.80248 12.4623 6.94051 12.2973L7.1071 12.0945L8.31604 13.2921C8.36364 13.3392 8.39696 13.3392 8.41124 13.3392C8.42552 13.3392 8.45407 13.3392 8.50643 13.2921C8.52071 13.2779 8.53975 13.2543 8.54451 13.1931C8.54451 13.1695 8.54451 13.1459 8.50643 13.1082L7.2832 11.8965L7.42123 11.7315C7.55926 11.5665 7.69253 11.3826 7.82104 11.1846C7.94479 11.0007 8.02571 10.8357 8.06378 10.7037L8.18277 10.3171L9.7011 11.8824C9.7487 11.9295 9.77725 11.9295 9.79153 11.9295C9.80581 11.9295 9.83437 11.9295 9.88673 11.8824C9.92956 11.84 9.93432 11.8069 9.93432 11.7787C9.93432 11.7221 9.91528 11.7079 9.91052 11.6985L3.18991 5.05087C2.99952 4.86228 2.90433 4.64069 2.90433 4.39082C2.90433 4.14094 2.99952 3.91464 3.18991 3.73077C3.56592 3.35831 4.1466 3.35831 4.52737 3.73077L21.3717 20.397ZM11.3289 13.0705L8.33032 16.0407C7.98287 16.3849 7.50691 16.5593 6.91195 16.5593C6.31699 16.5593 5.84579 16.3849 5.51262 16.036L5.4079 15.9323C5.13184 16.0831 4.87006 16.2151 4.63208 16.3236C4.40362 16.4273 4.17516 16.5263 3.95145 16.6206V17.7144H10.9196L13.466 15.1921L11.3289 13.0752V13.0705ZM22.5902 9.81737L22.4236 9.63821L17.1547 14.8573L18.4922 16.1821L22.5617 12.1275C22.8425 11.8494 22.99 11.4628 22.9995 10.9866C23.0091 10.5104 22.871 10.1144 22.5902 9.81737Z" />
</svg>
