<svg class="fill-current stroke-current w-full h-full" style="color: inherit" stroke-width="0.2" width="24" height="24" viewBox="0 0 24 24" stroke="none" xmlns="http://www.w3.org/2000/svg">
<path d="M14.2945 5.06797C16.5252 5.77402 18.2976 7.58066 18.9902 9.85455C19.1837 10.5087 19.7643 10.9655 20.4264 10.9655H20.4672C21.4858 10.9655 22.2192 9.96876 21.9238 8.98237C20.9357 5.68057 18.3791 3.07443 15.1399 2.06728C14.1824 1.76617 13.2046 2.51375 13.2046 3.55205V3.59358C13.2046 4.27886 13.6528 4.8707 14.2945 5.06797ZM18.9902 14.1531C18.2976 16.4374 16.5252 18.2336 14.2945 18.9397C13.6528 19.137 13.2046 19.7288 13.2046 20.4037V20.4452C13.2046 21.4835 14.1824 22.2311 15.1501 21.93C18.3892 20.9228 20.9459 18.3167 21.934 15.0149C22.2294 14.0285 21.496 13.0317 20.4876 13.0317H20.4366C19.7643 13.0421 19.1837 13.499 18.9902 14.1531ZM11.1674 20.4245C11.1674 19.7288 10.709 19.137 10.0571 18.9293C7.16429 18.0052 5.05579 15.2537 5.05579 12.0038C5.05579 8.75394 7.16429 6.00244 10.0571 5.07836C10.709 4.8707 11.1674 4.27886 11.1674 3.5832V3.57282C11.1674 2.53452 10.1793 1.76617 9.20149 2.07766C5.03542 3.37554 2 7.33147 2 12.0038C2 16.6762 5.03542 20.6321 9.20149 21.93C10.1793 22.2415 11.1674 21.4731 11.1674 20.4245Z" />
</svg>
