<svg class="fill-current stroke-current w-full h-full" style="color: inherit" stroke-width="0.2" width="24" height="24" viewBox="0 0 24 24" stroke="none" xmlns="http://www.w3.org/2000/svg">
<path d="M9.53057 15.3378L5.35057 11.7561C4.93057 11.3959 4.88057 10.7656 5.24057 10.3455C5.60057 9.92525 6.23057 9.87523 6.65057 10.2354L9.47057 12.6565L17.3206 5.27306C17.7206 4.89288 18.3506 4.91289 18.7306 5.31308C19.1106 5.71327 19.0906 6.35357 18.6906 6.72374L9.53057 15.3378ZM19.0006 18.9995C19.0006 18.4493 18.5506 17.9991 18.0006 17.9991H6.00057C5.45057 17.9991 5.00057 18.4493 5.00057 18.9995C5.00057 19.5498 5.45057 20 6.00057 20H18.0006C18.5506 20 19.0006 19.5498 19.0006 18.9995Z" />
</svg>
