<svg class="fill-current stroke-current w-full h-full" style="color: inherit" stroke-width="0.2" width="24" height="24" viewBox="0 0 24 24" stroke="none" xmlns="http://www.w3.org/2000/svg">
<path d="M16.9373 5.65829C15.8246 4.79397 14.4912 4.21106 13.0276 4.03015V2C15.0426 2.20101 16.8772 3.00503 18.3609 4.22111L16.9373 5.65829ZM4.00501 12C4.00501 7.8995 7.06266 4.52261 11.0226 4.03015V2C5.9599 2.50251 2 6.78392 2 12C2 17.2161 5.9599 21.4975 11.0226 22V19.9698C7.06266 19.4774 4.00501 16.1005 4.00501 12ZM19.9749 10.995H22C21.7995 8.97487 20.9975 7.13568 19.7845 5.64824L18.3509 7.07538C19.213 8.19095 19.7945 9.52764 19.9749 10.995ZM13.0276 19.9698V22C15.0426 21.799 16.8772 20.995 18.3609 19.7789L16.9273 18.3417C15.8246 19.206 14.4912 19.7889 13.0276 19.9698ZM18.3509 16.9246L19.7845 18.3618C20.9975 16.8744 21.7995 15.0251 22 13.0151H19.9749C19.7945 14.4724 19.213 15.809 18.3509 16.9246ZM15.7444 12.2915C15.3534 11.8995 14.7218 11.8995 14.3308 12.2915L13.0376 13.5879V7.96985C13.0376 7.41708 12.5865 6.96482 12.0351 6.96482C11.4837 6.96482 11.0326 7.41708 11.0326 7.96985V13.5879L9.73935 12.2915C9.34837 11.8995 8.71679 11.8995 8.32581 12.2915C7.93484 12.6834 7.93484 13.3166 8.32581 13.7085L12.0451 17.4372L15.7644 13.7085C16.1554 13.3166 16.1554 12.6834 15.7644 12.2915H15.7444Z" />
</svg>
