<svg class="fill-current stroke-current w-full h-full" style="color: inherit" stroke-width="0.2" width="24" height="24" viewBox="0 0 24 24" stroke="none" xmlns="http://www.w3.org/2000/svg">
<path d="M20.398 6.49194L18.9482 5.08116C18.2695 4.42079 17.2413 4.32073 16.4495 4.77098C16.3056 4.85103 16.1616 4.96109 16.0382 5.08116L14.9483 6.14175L19.3081 10.3841L20.398 9.32351C20.5214 9.20345 20.6345 9.06337 20.7168 8.92329C21.1795 8.15286 21.0767 7.15231 20.398 6.49194ZM18.4135 15.3369C19.0716 15.8972 19.452 16.5875 19.452 17.4981C19.452 18.2985 19.1024 18.9789 18.5472 19.5192C18.105 19.9494 17.5292 20.2896 16.8814 20.5397C16.0896 20.8399 15.1951 21 14.3108 21C13.7452 21 13.2825 20.5497 13.2825 19.9994C13.2825 19.4491 13.7452 18.9989 14.3108 18.9989C14.9483 18.9989 15.5755 18.8788 16.0999 18.6887C16.4495 18.5586 16.758 18.3885 16.9842 18.2084C17.231 17.9983 17.3852 17.7682 17.3955 17.5281C17.3955 17.5281 17.3955 17.5081 17.3955 17.4981C17.3955 17.2579 17.2721 17.0378 17.0459 16.8377C16.9328 16.7276 16.7888 16.6276 16.614 16.5375C16.4701 16.4575 16.3056 16.3774 16.1308 16.2974L17.6526 14.8166C17.9302 14.9767 18.1873 15.1467 18.4135 15.3369ZM4.62464 13.3457C4.18249 13.0956 3.8226 12.8155 3.54497 12.4953C3.4113 12.3352 3.29819 12.1551 3.20565 11.965C3.20565 11.945 3.19537 11.935 3.18509 11.915C3.0617 11.6348 3 11.3346 3 10.9944C3 10.4641 3.16452 10.0239 3.44215 9.64369C4.11051 8.72318 5.43695 8.15286 6.65029 7.64258C6.67086 7.64258 6.68114 7.63257 6.7017 7.62257C6.85594 7.55253 7.01018 7.4925 7.16442 7.42246C8.12069 6.99222 9.14894 6.48193 9.14894 6.01167C9.14894 5.64147 8.50114 5.12118 7.45233 5.03113C7.33922 5.02112 7.22611 5.01112 7.10272 5.01112C5.92023 5.01112 5.35469 5.5214 5.24159 5.63146L5.2313 5.64147C4.87142 6.0517 4.22362 6.10172 3.79175 5.76153C3.37017 5.42135 3.28791 4.81101 3.63752 4.38077C3.63752 4.38077 3.65808 4.36076 3.66836 4.34074C3.67865 4.32073 3.69921 4.30072 3.71978 4.28071C3.74034 4.2607 3.75062 4.24069 3.77119 4.22068C3.79175 4.20067 3.8226 4.17065 3.84317 4.15064C4.26475 3.75042 5.30328 3 7.10272 3C9.406 3 11.2157 4.32073 11.2157 6.00167C11.2157 6.49194 11.0718 6.92218 10.8353 7.29238C10.5782 7.69261 10.2183 8.02279 9.78646 8.31295C9.24148 8.68316 8.59369 8.99333 7.95617 9.27349C7.80193 9.34352 7.64769 9.41356 7.48317 9.4736C7.48317 9.4736 7.48317 9.4736 7.47289 9.4736C6.65029 9.82379 5.45752 10.3241 5.12848 10.7843C5.1182 10.8043 5.09763 10.8243 5.08735 10.8444C5.0565 10.9044 5.03594 10.9544 5.03594 11.0044C5.03594 11.0845 5.06678 11.1645 5.12848 11.2446C5.2313 11.3747 5.39582 11.5047 5.63232 11.6248C5.77628 11.7048 5.95108 11.7849 6.13617 11.8549L4.60407 13.3457H4.62464ZM13.4882 7.55253L4.18249 16.6076C4.08995 16.6976 4.03853 16.8277 4.03853 16.9578V20.4997C4.03853 20.7799 4.26475 21 4.55266 21H8.19267C8.32634 21 8.46001 20.95 8.55256 20.8499L17.8582 11.7949L13.4882 7.55253ZM7.54487 18.9989H6.09504V17.5781L13.4882 10.3841L14.9483 11.7949L7.54487 18.9989Z" />
</svg>
