<svg class="fill-current stroke-current w-full h-full" style="color: inherit" stroke-width="0.2" width="24" height="24" viewBox="0 0 24 24" stroke="none" xmlns="http://www.w3.org/2000/svg">
<path fill-rule="evenodd" clip-rule="evenodd" d="M11.9996 2C12.2696 2 12.5196 2.11 12.7096 2.29L17.6596 7.27C18.7796 8.39 19.5396 9.83 19.8496 11.39C20.1596 12.95 19.9996 14.56 19.3996 16.03C18.7996 17.5 17.7696 18.76 16.4596 19.64C15.1396 20.52 13.5996 21 12.0096 21C10.4196 21 8.87963 20.53 7.55963 19.64C6.23963 18.76 5.21963 17.5 4.60963 16.03C3.99963 14.57 3.84963 12.95 4.14963 11.39C4.45963 9.83 5.21963 8.4 6.33963 7.27L11.2896 2.3C11.4696 2.11 11.7296 2 11.9996 2ZM11.9996 4.42L7.75963 8.69C6.91963 9.53 6.34963 10.61 6.11963 11.78C5.88963 12.95 6.00963 14.17 6.45963 15.27C6.90963 16.37 7.67963 17.32 8.66963 17.98C9.65963 18.64 10.8196 19 11.9996 19C13.1796 19 14.3496 18.65 15.3296 17.98C16.3196 17.32 17.0896 16.37 17.5396 15.27C17.9896 14.17 18.1096 12.95 17.8796 11.78C17.6496 10.61 17.0796 9.53 16.2396 8.69L11.9996 4.42Z" />
</svg>
