<svg class="fill-current stroke-current w-full h-full" style="color: inherit" stroke-width="0.2" width="24" height="24" viewBox="0 0 24 24" stroke="none" xmlns="http://www.w3.org/2000/svg">
<path d="M20 3H12C10.9 3 10 3.9 10 5V11C10 12.1 10.9 13 12 13H20C21.1 13 22 12.1 22 11V5C22 3.9 21.1 3 20 3ZM20 11H12V7H20V11ZM17 16C17 16.55 16.55 17 16 17H7C6.45 17 6 16.55 6 16V9C6 8.45 6.45 8 7 8C7.55 8 8 8.45 8 9V15H16C16.55 15 17 15.45 17 16ZM13 20C13 20.55 12.55 21 12 21H3C2.45 21 2 20.55 2 20V13C2 12.45 2.45 12 3 12C3.55 12 4 12.45 4 13V19H12C12.55 19 13 19.45 13 20Z" />
</svg>
