<svg class="fill-current stroke-current w-full h-full" style="color: inherit" stroke-width="0.2" width="24" height="24" viewBox="0 0 24 24" stroke="none" xmlns="http://www.w3.org/2000/svg">
<path d="M16 3.00558C13.24 3.00558 11 5.24407 11 8.00221V15.9968C11 17.6557 9.66 18.9948 8 18.9948C6.34 18.9948 5 17.6557 5 15.9968V9.00153H5.83C7.44 9.00153 8.89 7.82233 9 6.21342C9.12 4.52456 7.84 3.11551 6.2 3.00558C4.44 2.89566 3 4.42463 3 6.19343V15.9968C3 18.7549 5.24 20.9934 8 20.9934C10.76 20.9934 13 18.7549 13 15.9968V8.00221C13 6.34333 14.34 5.00423 16 5.00423C17.66 5.00423 19 6.34333 19 8.00221V14.9975H18.17C16.56 14.9975 15.11 16.1767 15 17.7856C14.88 19.4745 16.16 20.8835 17.8 20.9934C19.56 21.1133 21 19.5744 21 17.8156V8.00221C21 5.24407 18.76 3.00558 16 3.00558ZM5 6.00356C5 5.45393 5.45 5.00423 6 5.00423C6.55 5.00423 7 5.45393 7 6.00356C7 6.55319 6.55 7.00288 6 7.00288H5V6.00356ZM19 17.9955C19 18.5451 18.55 18.9948 18 18.9948C17.45 18.9948 17 18.5451 17 17.9955C17 17.4458 17.45 16.9961 18 16.9961H19V17.9955Z" />
</svg>
