<svg class="fill-current stroke-current w-full h-full" style="color: inherit" stroke-width="0.2" width="24" height="24" viewBox="0 0 24 24" stroke="none" xmlns="http://www.w3.org/2000/svg">
<path d="M13.9196 10C13.9196 10.55 13.4729 11 12.9269 11H3.99269C3.44671 11 3 10.55 3 10C3 9.45 3.44671 9 3.99269 9H12.9269C13.4729 9 13.9196 9.45 13.9196 10ZM3 6C3 6.55 3.44671 7 3.99269 7H12.9269C13.4729 7 13.9196 6.55 13.9196 6C13.9196 5.45 13.4729 5 12.9269 5H3.99269C3.44671 5 3 5.45 3 6ZM9.94885 14C9.94885 13.45 9.50214 13 8.95616 13H3.99269C3.44671 13 3 13.45 3 14C3 14.55 3.44671 15 3.99269 15H8.95616C9.50214 15 9.94885 14.55 9.94885 14ZM17.9003 11.87L18.6051 11.16C18.9923 10.77 19.6177 10.77 20.0048 11.16L20.7096 11.87C21.0968 12.26 21.0968 12.89 20.7096 13.28L20.0048 13.99L17.9003 11.87ZM17.1955 12.58L12.0732 17.74C11.9839 17.83 11.9342 17.95 11.9342 18.09V19.5C11.9342 19.78 12.1526 20 12.4306 20H13.8303C13.9593 20 14.0884 19.95 14.1777 19.85L19.3 14.69L17.1955 12.58Z" />
</svg>
