<svg class="fill-current stroke-current w-full h-full" style="color: inherit" stroke-width="0.2" width="24" height="24" viewBox="0 0 24 24" stroke="none" xmlns="http://www.w3.org/2000/svg">
<path d="M17.32 22H4.79C4.04 22 3.34 21.7096 2.82 21.1789C2.3 20.6481 2 19.9472 2 19.2062V6.65891C2 5.91789 2.29 5.21692 2.82 4.68619C3.35 4.15546 4.05 3.86506 4.79 3.86506H11.05C11.6 3.86506 12.05 4.31568 12.05 4.86644C12.05 5.4172 11.6 5.86782 11.05 5.86782H4.79C4.58 5.86782 4.38 5.94793 4.23 6.09813C4.08 6.24834 4 6.44862 4 6.65891V19.2062C4 19.4164 4.08 19.6167 4.23 19.7669C4.38 19.9171 4.58 19.9972 4.79 19.9972H17.32C17.53 19.9972 17.73 19.9171 17.88 19.7669C18.03 19.6167 18.11 19.4164 18.11 19.2062V12.9375C18.11 12.3868 18.56 11.9362 19.11 11.9362C19.66 11.9362 20.11 12.3868 20.11 12.9375V19.2062C20.11 19.9572 19.82 20.6582 19.29 21.1789C18.76 21.6996 18.06 22 17.32 22ZM8.93 16.2721L12.42 15.4009C12.6 15.3609 12.76 15.2707 12.88 15.1406L21.17 6.83915C21.71 6.29841 22 5.58743 22 4.82639C22 4.06534 21.7 3.34435 21.17 2.8036C20.1 1.73213 18.21 1.73213 17.14 2.8036L8.85 11.105C8.72 11.2352 8.63 11.3954 8.59 11.5657L7.72 15.0605C7.64 15.4009 7.73 15.7614 7.98 16.0118C8.17 16.202 8.43 16.3022 8.69 16.3022C8.77 16.3022 8.85 16.3022 8.93 16.2721ZM18.55 4.22556C18.87 3.90512 19.43 3.90512 19.75 4.22556C19.91 4.38578 20 4.60608 20 4.82639C20 5.04669 19.91 5.26699 19.75 5.42721L11.66 13.5284L10.06 13.9289L10.46 12.3267L18.55 4.22556Z" />
</svg>
