<svg class="fill-current stroke-current w-full h-full" style="color: inherit" stroke-width="0.2" width="24" height="24" viewBox="0 0 24 24" stroke="none" xmlns="http://www.w3.org/2000/svg">
<path d="M12 8.76742L9.07 13.0909H14.92L11.99 8.76742H12ZM6.37 13.5341L11.17 6.44318C11.56 5.85227 12.44 5.85227 12.83 6.44318L17.63 13.5341C18.08 14.1841 17.6 15.0606 16.8 15.0606H7.2C6.4 15.0606 5.92 14.1841 6.37 13.5341ZM6 17.0303C5.45 17.0303 5 17.4735 5 18.0152C5 18.5568 5.45 19 6 19H18C18.55 19 19 18.5568 19 18.0152C19 17.4735 18.55 17.0303 18 17.0303H6Z" />
</svg>
