<svg class="fill-current stroke-current w-full h-full" style="color: inherit" stroke-width="0.2" width="24" height="24" viewBox="0 0 24 24" stroke="none" xmlns="http://www.w3.org/2000/svg">
<path d="M21.4842 13.9L18.1254 12L21.4842 10.1C21.9743 9.82 22.1376 9.21 21.8619 8.73L19.8201 5.27C19.5343 4.79 18.9115 4.63 18.4215 4.9L15.0627 6.8V3C15.0627 2.45 14.6033 2 14.0418 2H9.95819C9.39669 2 8.93728 2.45 8.93728 3V6.8L5.5785 4.9C5.08847 4.63 4.46571 4.79 4.17986 5.27L2.13805 8.73C1.8522 9.21 2.02575 9.82 2.51578 10.1L5.87456 12L2.51578 13.9C2.02575 14.18 1.8624 14.79 2.13805 15.27L4.17986 18.73C4.46571 19.21 5.08847 19.37 5.5785 19.1L8.93728 17.2V21C8.93728 21.55 9.39669 22 9.95819 22H14.0418C14.6033 22 15.0627 21.55 15.0627 21V17.2L18.4215 19.1C18.9115 19.38 19.5343 19.21 19.8201 18.73L21.8619 15.27C22.1478 14.79 21.9743 14.18 21.4842 13.9ZM18.5644 16.87L13.7866 14.17C13.4497 13.97 13.0209 14.21 13.0209 14.6V20H10.9791V14.6C10.9791 14.22 10.5503 13.97 10.2134 14.17L5.43558 16.87L4.41467 15.14L9.19251 12.44C9.52941 12.25 9.52941 11.77 9.19251 11.57L4.41467 8.87L5.43558 7.14L10.2134 9.84C10.5503 10.03 10.9791 9.79 10.9791 9.4V4H13.0209V9.4C13.0209 9.78 13.4497 10.03 13.7866 9.83L18.5644 7.13L19.5853 8.86L14.8075 11.56C14.4706 11.75 14.4706 12.23 14.8075 12.43L19.5853 15.13L18.5644 16.87Z" />
</svg>
