<svg class="fill-current stroke-current w-full h-full" style="color: inherit" stroke-width="0.2" width="24" height="24" viewBox="0 0 24 24" stroke="none" xmlns="http://www.w3.org/2000/svg">
<path fill-rule="evenodd" clip-rule="evenodd" d="M6.3825 19.02C7.9325 20.26 9.8825 21 12.0025 21C14.3025 21 16.6125 20.12 18.3625 18.36C20.1225 16.61 21.0025 14.3 21.0025 12V5C21.0025 3.9 20.1025 3 19.0025 3H12.0025C7.2025 3 3.0025 6.86 3.0025 12C3.0025 14.12 3.7425 16.07 4.9725 17.61L3.2925 19.29C2.9025 19.68 2.9025 20.31 3.2925 20.7C3.6825 21.09 4.3125 21.09 4.7025 20.7L6.3825 19.02ZM7.0225 16.97L7.6325 17.46C8.8425 18.43 10.3625 19 12.0025 19C13.7925 19 15.5825 18.32 16.9425 16.95C18.3125 15.58 18.9925 13.79 18.9925 12V5H11.9925C8.2525 5 4.9925 8.01 4.9925 12C4.9925 13.65 5.5625 15.16 6.5225 16.36L7.0025 16.97H7.0225ZM8.4725 12.63L12.5225 13.03L10.0825 16.36C9.9725 16.52 9.9825 16.74 10.1225 16.88C10.2725 17.03 10.5225 17.04 10.6825 16.89L15.8425 12.26C16.1725 11.96 15.9925 11.41 15.5425 11.37L11.4925 10.97L13.9325 7.64C14.0425 7.48 14.0325 7.26 13.8925 7.12C13.7425 6.97 13.4925 6.96 13.3325 7.12L8.1725 11.75C7.8525 12.05 8.0325 12.6 8.4725 12.64V12.63Z" />
</svg>
