<svg class="fill-current stroke-current w-full h-full" style="color: inherit" stroke-width="0.2" width="24" height="24" viewBox="0 0 24 24" stroke="none" xmlns="http://www.w3.org/2000/svg">
<path d="M15.7542 18.5C13.2956 18.5 11.1701 17.08 10.1122 15H14.7747C15.3134 15 15.7542 14.55 15.7542 14C15.7542 13.45 15.3134 13 14.7747 13H9.4657C9.41672 12.67 9.38733 12.34 9.38733 12C9.38733 11.66 9.41672 11.33 9.4657 11H14.7747C15.3134 11 15.7542 10.55 15.7542 10C15.7542 9.45 15.3134 9 14.7747 9H10.1122C11.1701 6.92 13.3054 5.5 15.7542 5.5C16.9786 5.5 18.1246 5.86 19.1041 6.47C19.5939 6.78 20.2306 6.73 20.642 6.31C21.2101 5.73 21.0827 4.78 20.3971 4.35C19.0454 3.5 17.4487 3 15.7542 3C11.9145 3 8.66249 5.51 7.44789 9H4.97952C4.44078 9 4 9.45 4 10C4 10.55 4.44078 11 4.97952 11H6.99732C6.95814 11.33 6.93855 11.66 6.93855 12C6.93855 12.34 6.95814 12.67 6.99732 13H4.97952C4.44078 13 4 13.45 4 14C4 14.55 4.44078 15 4.97952 15H7.44789C8.66249 18.49 11.9145 21 15.7542 21C17.4585 21 19.0454 20.51 20.3971 19.65C21.073 19.22 21.2003 18.26 20.6322 17.68C20.2208 17.26 19.5841 17.21 19.0943 17.53C18.1246 18.15 16.9884 18.5 15.7542 18.5Z" />
</svg>
