<svg class="fill-current stroke-current w-full h-full" style="color: inherit" stroke-width="0.2" width="24" height="24" viewBox="0 0 24 24" stroke="none" xmlns="http://www.w3.org/2000/svg">
<path d="M15.4456 18.5C12.8424 18.5 10.5918 17.08 9.47172 15H14.4085C14.9789 15 15.4456 14.55 15.4456 14C15.4456 13.45 14.9789 13 14.4085 13H8.78721C8.73535 12.67 8.70424 12.34 8.70424 12C8.70424 11.66 8.73535 11.33 8.78721 11H14.4085C14.9789 11 15.4456 10.55 15.4456 10C15.4456 9.45 14.9789 9 14.4085 9H9.47172C10.5918 6.92 12.8528 5.5 15.4456 5.5C16.742 5.5 17.9555 5.86 18.9926 6.47C19.5112 6.78 20.1853 6.73 20.6209 6.31C21.2224 5.73 21.0876 4.78 20.3616 4.35C18.9304 3.5 17.2399 3 15.4456 3C11.38 3 7.93676 5.51 6.65071 9H4.03713C3.46671 9 3 9.45 3 10C3 10.55 3.46671 11 4.03713 11H6.17363C6.13214 11.33 6.1114 11.66 6.1114 12C6.1114 12.34 6.13214 12.67 6.17363 13H4.03713C3.46671 13 3 13.45 3 14C3 14.55 3.46671 15 4.03713 15H6.65071C7.93676 18.49 11.38 21 15.4456 21C17.2502 21 18.9304 20.51 20.3616 19.65C21.0772 19.22 21.2121 18.26 20.6105 17.68C20.1749 17.26 19.5008 17.21 18.9822 17.53C17.9555 18.15 16.7524 18.5 15.4456 18.5Z" />
</svg>
