<svg class="fill-current stroke-current w-full h-full" style="color: inherit" stroke-width="0.2" width="24" height="24" viewBox="0 0 24 24" stroke="none" xmlns="http://www.w3.org/2000/svg">
<path d="M19 11V5C19 3.9 18.1 3 17 3H16V2C16 1.45 15.55 1 15 1C14.45 1 14 1.45 14 2V3H6V2C6 1.45 5.55 1 5 1C4.45 1 4 1.45 4 2V3H3C1.9 3 1 3.9 1 5V19C1 20.1 1.9 21 3 21H10V19H3V9H17V11H19ZM13.13 19C12.58 19 12.22 19.56 12.45 20.06C13.23 21.79 14.97 23 17 23C19.76 23 22 20.76 22 18C22 15.24 19.76 13 17 13C15.64 13 14.4 13.55 13.5 14.43V13.75C13.5 13.34 13.16 13 12.75 13C12.34 13 12 13.34 12 13.75V16C12 16.55 12.45 17 13 17H15.25C15.66 17 16 16.66 16 16.25C16 15.84 15.66 15.5 15.25 15.5H14.55C15.18 14.88 16.05 14.5 17 14.5C18.93 14.5 20.5 16.07 20.5 18C20.5 19.93 18.93 21.5 17 21.5C15.58 21.5 14.36 20.65 13.81 19.44C13.69 19.17 13.42 19 13.13 19Z" />
</svg>
