<svg class="fill-current stroke-current w-full h-full" style="color: inherit" stroke-width="0.2" width="24" height="24" viewBox="0 0 24 24" stroke="none" xmlns="http://www.w3.org/2000/svg">
<path d="M16.4444 11.483C16.1222 11.164 15.5889 11.164 15.2667 11.483L10.4333 16.268L8.66667 14.519C8.34444 14.2 7.81111 14.2 7.48889 14.519C7.16667 14.838 7.16667 15.366 7.48889 15.685L9.64444 17.819C10.0778 18.248 10.7778 18.248 11.2111 17.819L16.4333 12.649C16.7667 12.33 16.7667 11.802 16.4444 11.483ZM19.7778 3.2H18.6667V2.1C18.6667 1.495 18.1667 1 17.5556 1C16.9444 1 16.4444 1.495 16.4444 2.1V3.2H7.55556V2.1C7.55556 1.495 7.05556 1 6.44444 1C5.83333 1 5.33333 1.495 5.33333 2.1V3.2H4.22222C2.98889 3.2 2.01111 4.19 2.01111 5.4L2 20.8C2 22.01 2.98889 23 4.22222 23H19.7778C21 23 22 22.01 22 20.8V5.4C22 4.19 21 3.2 19.7778 3.2ZM18.6667 20.8H5.33333C4.72222 20.8 4.22222 20.305 4.22222 19.7V8.7H19.7778V19.7C19.7778 20.305 19.2778 20.8 18.6667 20.8Z" />
</svg>
