<svg class="fill-current stroke-current w-full h-full" style="color: inherit" stroke-width="0.2" width="24" height="24" viewBox="0 0 24 24" stroke="none" xmlns="http://www.w3.org/2000/svg">
<path fill-rule="evenodd" clip-rule="evenodd" d="M9 11H15V5H9V11ZM7 19.5C7 20.33 6.33 21 5.5 21C4.67 21 4 20.33 4 19.5V17C4 15.9 4.9 15 6 15H18C19.1 15 20 15.9 20 17V19.5C20 20.33 19.33 21 18.5 21C17.67 21 17 20.33 17 19.5V18H7V19.5ZM21 10H20C19.45 10 19 10.45 19 11V12C19 12.55 19.45 13 20 13H21C21.55 13 22 12.55 22 12V11C22 10.45 21.55 10 21 10ZM4 10H3C2.45 10 2 10.45 2 11V12C2 12.55 2.45 13 3 13H4C4.55 13 5 12.55 5 12V11C5 10.45 4.55 10 4 10ZM17 13V5C17 3.9 16.1 3 15 3H9C7.9 3 7 3.9 7 5V13H17Z" />
</svg>
