<svg class="fill-current stroke-current w-full h-full" style="color: inherit" stroke-width="0.2" width="24" height="24" viewBox="0 0 24 24" stroke="none" xmlns="http://www.w3.org/2000/svg">
<path d="M9.6 18.017L11.7222 15.916L13.8444 18.017C14.1667 18.336 14.7 18.336 15.0222 18.017C15.3444 17.698 15.3444 17.17 15.0222 16.851L12.9 14.75L15.0222 12.649C15.3444 12.33 15.3444 11.802 15.0222 11.483C14.7 11.164 14.1667 11.164 13.8444 11.483L11.7222 13.584L9.6 11.483C9.27778 11.164 8.74444 11.164 8.42222 11.483C8.1 11.802 8.1 12.33 8.42222 12.649L10.5444 14.75L8.42222 16.851C8.1 17.17 8.1 17.698 8.42222 18.017C8.74444 18.336 9.27778 18.336 9.6 18.017ZM19.7778 3.2H18.6667V2.1C18.6667 1.495 18.1667 1 17.5556 1C16.9444 1 16.4444 1.495 16.4444 2.1V3.2H7.55556V2.1C7.55556 1.495 7.05556 1 6.44444 1C5.83333 1 5.33333 1.495 5.33333 2.1V3.2H4.22222C2.98889 3.2 2.01111 4.19 2.01111 5.4L2 20.8C2 22.01 2.98889 23 4.22222 23H19.7778C21 23 22 22.01 22 20.8V5.4C22 4.19 21 3.2 19.7778 3.2ZM18.6667 20.8H5.33333C4.72222 20.8 4.22222 20.305 4.22222 19.7V8.7H19.7778V19.7C19.7778 20.305 19.2778 20.8 18.6667 20.8Z" />
</svg>
