<svg width="21" height="20" viewBox="0 0 21 20" fill="none" xmlns="http://www.w3.org/2000/svg">
<path d="M19.3371 19.9333C19.9426 19.9333 20.4336 19.4423 20.4336 18.8368V1.16314C20.4336 0.557453 19.9426 0.0666218 19.3371 0.0666218H1.66335C1.05766 0.0666218 0.566895 0.557453 0.566895 1.16314V18.8368C0.566895 19.4423 1.05766 19.9333 1.66335 19.9333H19.3371Z" fill="white"/>
<path d="M14.2745 19.9333V12.2399H16.857L17.2436 9.24164H14.2745V7.32736C14.2745 6.45928 14.5156 5.86774 15.7604 5.86774L17.3482 5.86699V3.18535C17.0735 3.14888 16.1311 3.06722 15.0346 3.06722C12.7455 3.06722 11.1783 4.46446 11.1783 7.03051V9.24164H8.58936V12.2399H11.1783V19.9333H14.2745Z" fill="#3B5998"/>
</svg>
