<svg class="fill-current stroke-current w-full h-full" style="color: inherit" stroke-width="0.2" width="24" height="24" viewBox="0 0 24 24" stroke="none" xmlns="http://www.w3.org/2000/svg">
<path d="M19.89 11.75C19.96 12.16 20 12.57 20 13C20 17.41 16.41 21 12 21C7.59 21 4 17.41 4 13C4 12.95 4.01 12.9 4 12.86C6.6 11.88 8.69 9.87 9.74 7.31C13.12 11.45 17.71 11.04 18.73 10.92L17.84 8.99C17.71 9 13.22 9.37 10.66 5.13C11.67 4.97 12.37 4.98 13.25 5.12C15.77 3.97 15.18 4.23 16.01 3.86C14.78 3.3 13.43 3 12 3C6.48 3 2 7.48 2 13C2 18.52 6.48 23 12 23C17.52 23 22 18.52 22 13C22 11.57 21.7 10.22 21.16 8.99L19.89 11.75ZM8.08 6.03C7.45 7.92 6.13 9.5 4.42 10.47C5.05 8.58 6.37 7 8.08 6.03ZM15 15.25C15.69 15.25 16.25 14.69 16.25 14C16.25 13.31 15.69 12.75 15 12.75C14.31 12.75 13.75 13.31 13.75 14C13.75 14.69 14.31 15.25 15 15.25ZM9 15.25C9.69 15.25 10.25 14.69 10.25 14C10.25 13.31 9.69 12.75 9 12.75C8.31 12.75 7.75 13.31 7.75 14C7.75 14.69 8.31 15.25 9 15.25ZM23 5.5L20.6 4.4L19.5 2L18.4 4.4L16 5.5L18.4 6.6L19.5 9L20.6 6.6L23 5.5Z" />
</svg>
