<svg class="fill-current stroke-current w-full h-full" style="color: inherit" stroke-width="0.2" width="24" height="24" viewBox="0 0 24 24" stroke="none" xmlns="http://www.w3.org/2000/svg">
<path d="M18.3993 7.17822L12.5536 11.1897C11.9762 11.5839 11.9762 12.4118 12.5536 12.8061L18.3993 16.8175C19.0679 17.2808 20 16.8077 20 16.0093V7.98642C20 7.18808 19.0781 6.72484 18.3993 7.17822ZM17.9738 14.1169L14.8939 11.9979L17.9738 9.8788V14.1169ZM9.27116 7.17822L3.42551 11.1897C2.85816 11.5839 2.85816 12.4118 3.42551 12.7962L9.27116 16.8077C9.94994 17.2709 10.8719 16.8077 10.8719 16.0093V7.98642C10.8719 7.18808 9.94994 6.72484 9.27116 7.17822ZM8.84565 14.1071L5.76579 11.9979L8.84565 9.88866V14.1071Z" />
</svg>
