<svg class="fill-current stroke-current w-full h-full" style="color: inherit" stroke-width="0.2" width="24" height="24" viewBox="0 0 24 24" stroke="none" xmlns="http://www.w3.org/2000/svg">
<path d="M12.005 21C11.7349 21 11.4747 20.89 11.2946 20.6999L3.67084 12.9366C2.5903 11.8362 2 10.3756 2 8.82493C2 7.27428 2.5903 5.81367 3.67084 4.71321C4.74137 3.62276 6.22211 3.0025 7.73287 3.0025C9.24362 3.0025 10.7344 3.62276 11.7949 4.71321L11.995 4.9133L12.1951 4.71321C12.7254 4.17299 13.3557 3.74281 14.056 3.44268C15.4567 2.85244 17.0575 2.85244 18.4682 3.44268C19.1686 3.73281 19.7989 4.16298 20.3292 4.71321C20.8594 5.26344 21.2796 5.89371 21.5698 6.604C21.8599 7.3143 22 8.06461 22 8.82493C22 9.58524 21.8499 10.3356 21.5698 11.0459C21.2796 11.7561 20.8594 12.3964 20.3292 12.9366L12.7154 20.6999C12.5253 20.89 12.2651 21 12.005 21ZM7.74287 4.99333C6.74237 4.99333 5.81191 5.3935 5.10155 6.10379C4.4012 6.81409 4.001 7.8045 4.001 8.81492C4.001 9.82534 4.4012 10.8158 5.10155 11.5261L12.005 18.559L18.9085 11.5261C19.2586 11.1659 19.5288 10.7557 19.7189 10.2855C19.909 9.81534 20.009 9.32514 20.009 8.81492C20.009 8.30471 19.909 7.81451 19.7189 7.34431C19.5288 6.88412 19.2586 6.46394 18.9085 6.10379C18.5583 5.74364 18.1481 5.47353 17.6978 5.27345C16.7874 4.89329 15.7569 4.89329 14.8464 5.27345C14.3862 5.46353 13.986 5.74364 13.6358 6.10379L12.7254 7.03418C12.3452 7.41434 11.6748 7.41434 11.2946 7.03418L10.3842 6.10379C9.68384 5.38349 8.74337 4.99333 7.74287 4.99333Z" />
</svg>
