<svg class="fill-current stroke-current w-full h-full" style="color: inherit" stroke-width="0.2" width="24" height="24" viewBox="0 0 24 24" stroke="none" xmlns="http://www.w3.org/2000/svg">
<path d="M22 8.82493C22 9.58524 21.85 10.3356 21.57 11.0459C21.28 11.7561 20.86 12.3964 20.33 12.9366L12.72 20.6999C12.53 20.89 12.27 21 12.01 21C11.75 21 11.48 20.89 11.3 20.6999L3.67 12.9366C2.59 11.8362 2 10.3756 2 8.82493C2 7.27428 2.59 5.81367 3.67 4.71321C4.74 3.62276 6.22 3.0025 7.73 3.0025C9.24 3.0025 10.73 3.62276 11.79 4.71321L11.99 4.9133L12.19 4.71321C12.72 4.17299 13.35 3.74281 14.05 3.44268C15.45 2.85244 17.05 2.85244 18.46 3.44268C19.16 3.73281 19.79 4.16298 20.32 4.71321C20.85 5.26344 21.27 5.89371 21.56 6.604C21.85 7.3143 21.99 8.06461 21.99 8.82493H22Z" />
</svg>
