<svg class="fill-current stroke-current w-full h-full" style="color: inherit" stroke-width="0.2" width="24" height="24" viewBox="0 0 24 24" stroke="none" xmlns="http://www.w3.org/2000/svg">
<path d="M12 21.0025C11.73 21.0025 11.47 20.8925 11.29 20.7025L3.67 12.9425C2.59 11.8425 2 10.3825 2 8.8325C2 7.2825 2.59 5.8125 3.67 4.7125C4.74 3.6225 6.22 3.0025 7.74 3.0025C9.26 3.0025 10.74 3.6225 11.8 4.7125L12 4.9125L12.2 4.7125C12.73 4.1725 13.36 3.7425 14.06 3.4425C15.46 2.8525 17.06 2.8525 18.47 3.4425C19.17 3.7325 19.8 4.1625 20.33 4.7125C20.86 5.2625 21.28 5.8925 21.57 6.6025C21.86 7.3125 22 8.0625 22 8.8225C22 9.5825 21.85 10.3325 21.57 11.0425C21.28 11.7525 20.86 12.3925 20.33 12.9325L12.72 20.6925C12.53 20.8825 12.27 20.9925 12.01 20.9925L12 21.0025ZM7.74 5.0025C6.74 5.0025 5.81 5.4025 5.1 6.1125C4.4 6.8225 4 7.8125 4 8.8225C4 9.8325 4.4 10.8225 5.1 11.5325L12 18.5625L18.9 11.5325C19.25 11.1725 19.52 10.7625 19.71 10.2925C19.9 9.8225 20 9.3325 20 8.8225C20 8.3125 19.9 7.8225 19.71 7.3525C19.52 6.8925 19.25 6.4725 18.9 6.1125C18.55 5.7525 18.14 5.4825 17.69 5.2825C16.78 4.9025 15.75 4.9025 14.84 5.2825C14.38 5.4725 13.98 5.7525 13.63 6.1125L12.72 7.0425C12.34 7.4225 11.67 7.4225 11.29 7.0425L10.38 6.1125C9.68 5.3925 8.74 5.0025 7.74 5.0025Z" />
</svg>
