<svg class="fill-current stroke-current w-full h-full" style="color: inherit" stroke-width="0.2" width="24" height="24" viewBox="0 0 24 24" stroke="none" xmlns="http://www.w3.org/2000/svg">
<path fill-rule="evenodd" clip-rule="evenodd" d="M21.99 8.4024C21.99 6.70176 21.3204 5.07115 20.1112 3.8707C18.9119 2.67025 17.2829 2 15.584 2C13.8851 2 12.2561 2.67025 11.0568 3.8707L4.99063 9.95298C4.80075 10.1431 4.70081 10.3931 4.70081 10.6632V17.896L2.29232 20.2969C1.90256 20.687 1.90256 21.3172 2.29232 21.7074C2.68207 22.0975 3.31168 22.0975 3.70144 21.7074L6.10993 19.2965H13.3454C13.6152 19.2965 13.8651 19.1864 14.055 19.0064L17.6227 15.425C17.6227 15.425 17.6627 15.385 17.6827 15.365L20.1212 12.9141C21.3204 11.7136 22 10.083 22 8.38239L21.99 8.4024ZM12.9357 17.3057H8.11868L9.71768 15.7051H14.5347L12.9457 17.3057H12.9357ZM18.7021 11.5136L16.5234 13.7044H11.7164L16.3036 9.11267C16.6933 8.72252 16.6933 8.09228 16.3036 7.70214C15.9138 7.31199 15.2842 7.31199 14.8944 7.70214L6.69956 15.8952V11.0734L12.476 5.29123C13.3054 4.46092 14.4247 4.00075 15.584 4.00075C16.7433 4.00075 17.8726 4.46092 18.6921 5.29123C19.5215 6.12155 19.9813 7.23196 19.9813 8.4024C19.9813 9.57284 19.5215 10.6933 18.6921 11.5136H18.7021Z" />
</svg>
