<svg class="fill-current stroke-current w-full h-full" style="color: inherit" stroke-width="0.2" width="24" height="24" viewBox="0 0 24 24" stroke="none" xmlns="http://www.w3.org/2000/svg">
<path d="M20 4.04367V16.3057H5.17L4 17.5012V4.04367H20ZM20 2H4C2.9 2 2 2.91965 2 4.04367V19.9741C2 20.8835 3.08 21.3433 3.71 20.6996L6 18.3493H20C21.1 18.3493 22 17.4297 22 16.3057V4.04367C22 2.91965 21.1 2 20 2ZM13 11.1965V7.10917C13 6.54716 12.55 6.08734 12 6.08734C11.45 6.08734 11 6.54716 11 7.10917V11.1965C11 11.7585 11.45 12.2183 12 12.2183C12.55 12.2183 13 11.7585 13 11.1965ZM12 13.2402C12.55 13.2402 13 13.7 13 14.262C13 14.824 12.55 15.2838 12 15.2838C11.45 15.2838 11 14.824 11 14.262C11 13.7 11.45 13.2402 12 13.2402Z" />
</svg>
