<svg class="fill-current stroke-current w-full h-full" style="color: inherit" stroke-width="0.2" width="24" height="24" viewBox="0 0 24 24" stroke="none" xmlns="http://www.w3.org/2000/svg">
<path d="M16 3H5C3.9 3 3 3.9 3 5V19C3 20.1 3.9 21 5 21H19C20.1 21 21 20.1 21 19V8L16 3ZM19 19H5V5H15V9H19V19ZM11 9H8C7.45 9 7 8.55 7 8C7 7.45 7.45 7 8 7H11C11.55 7 12 7.45 12 8C12 8.55 11.55 9 11 9ZM16 13H8C7.45 13 7 12.55 7 12C7 11.45 7.45 11 8 11H16C16.55 11 17 11.45 17 12C17 12.55 16.55 13 16 13ZM16 17H8C7.45 17 7 16.55 7 16C7 15.45 7.45 15 8 15H16C16.55 15 17 15.45 17 16C17 16.55 16.55 17 16 17Z" />
</svg>
