<svg class="fill-current stroke-current w-full h-full" style="color: inherit" stroke-width="0.2" width="24" height="24" viewBox="0 0 24 24" stroke="none" xmlns="http://www.w3.org/2000/svg">
<path d="M12 5.11765C14.1055 5.11765 15.8182 6.78 15.8182 8.82353C15.8182 10.8671 14.1055 12.5294 12 12.5294C9.89455 12.5294 8.18182 10.8671 8.18182 8.82353C8.18182 6.78 9.89455 5.11765 12 5.11765ZM13.0909 14.5518C15.8836 14.0541 18 11.6824 18 8.82353C18 5.60471 15.3164 3 12 3C8.68364 3 6 5.60471 6 8.82353C6 11.6824 8.11636 14.0541 10.9091 14.5518V16.7647H9.81818C9.21818 16.7647 8.72727 17.2412 8.72727 17.8235C8.72727 18.4059 9.21818 18.8824 9.81818 18.8824H10.9091V19.9412C10.9091 20.5235 11.4 21 12 21C12.6 21 13.0909 20.5235 13.0909 19.9412V18.8824H14.1818C14.7818 18.8824 15.2727 18.4059 15.2727 17.8235C15.2727 17.2412 14.7818 16.7647 14.1818 16.7647H13.0909V14.5518Z" />
</svg>
