<svg class="fill-current stroke-current w-full h-full" style="color: inherit" stroke-width="0.2" width="24" height="24" viewBox="0 0 24 24" stroke="none" xmlns="http://www.w3.org/2000/svg">
<path d="M21 10.7589C21 10.1941 20.55 9.73207 20 9.73207H19V6.65169L16.71 4.30034C16.32 3.89989 15.69 3.89989 15.3 4.30034L14 5.6249L12.71 4.30034C12.32 3.89989 11.69 3.89989 11.3 4.30034L10 5.6249L8.71 4.30034C8.32 3.89989 7.69 3.89989 7.3 4.30034L5 6.65169V9.73207H4C3.45 9.73207 3 10.1941 3 10.7589C3 11.3236 3.45 11.7857 4 11.7857H5V13.8392H4C3.45 13.8392 3 14.3013 3 14.866C3 15.4308 3.45 15.8928 4 15.8928H5V18.9732C5 19.5379 5.45 20 6 20H18C18.55 20 19 19.5379 19 18.9732V15.8928H20C20.55 15.8928 21 15.4308 21 14.866C21 14.3013 20.55 13.8392 20 13.8392H19V11.7857H20C20.55 11.7857 21 11.3236 21 10.7589ZM16 6.47714L17 7.50393V9.73207H15V7.50393L15.41 7.08295L16 6.47714ZM12 6.47714L12.59 7.08295L13 7.50393V9.73207H11V7.50393L11.41 7.08295L12 6.47714ZM11 13.8392V11.7857H13V13.8392H11ZM13 15.8928V17.9464H11V15.8928H13ZM7 7.50393L8 6.47714L8.59 7.08295L9 7.50393V9.73207H7V7.50393ZM7 11.7857H9V13.8392H7V11.7857ZM7 15.8928H9V17.9464H7V15.8928ZM17 17.9464H15V15.8928H17V17.9464ZM17 13.8392H15V11.7857H17V13.8392Z" />
</svg>
