<svg class="fill-current stroke-current w-full h-full" style="color: inherit" stroke-width="0.2" width="24" height="24" viewBox="0 0 24 24" stroke="none" xmlns="http://www.w3.org/2000/svg">
<path d="M17.8208 9.17C17.7609 9.11 17.6809 9.06 17.611 9C17.6809 8.94 17.7509 8.89 17.8208 8.83C18.1906 8.46 18.4904 8.02 18.6902 7.53C18.8901 7.04 18.99 6.53 18.99 6C18.99 5.47 18.8901 4.96 18.6902 4.47C18.4904 3.98 18.2006 3.55 17.8208 3.17C17.4511 2.8 17.0114 2.51 16.5218 2.3C16.0321 2.1 15.5225 2 14.9929 2H8.99714C7.92791 2 6.92862 2.42 6.16916 3.17C5.4197 3.93 5 4.93 5 6C5 7.07 5.4197 8.07 6.16916 8.83C6.22912 8.89 6.30906 8.94 6.37901 9C6.30906 9.06 6.23911 9.11 6.16916 9.17C5.40971 9.93 5 10.93 5 12C5 13.07 5.4197 14.07 6.16916 14.83C6.22912 14.89 6.30906 14.94 6.37901 15C6.30906 15.06 6.23911 15.11 6.16916 15.17C5.40971 15.92 5 16.93 5 18C5 19.07 5.4197 20.07 6.16916 20.83C6.92862 21.59 7.92791 22 8.99714 22C10.0664 22 11.0657 21.58 11.8251 20.83C12.5846 20.08 12.9943 19.07 12.9943 18V15.44C13.1442 15.53 13.2941 15.62 13.464 15.69C13.9536 15.89 14.4632 15.99 14.9929 15.99C15.5225 15.99 16.0321 15.89 16.5218 15.69C17.0114 15.49 17.4411 15.2 17.8208 14.82C18.2006 14.44 18.4904 14.01 18.6902 13.52C18.8901 13.03 19 12.52 19 11.99C19 11.46 18.9001 10.95 18.7002 10.46C18.5004 9.97 18.2106 9.54 17.8308 9.16L17.8208 9.17ZM15.7623 4.15C16.0021 4.25 16.222 4.4 16.4118 4.58C16.6017 4.77 16.7416 4.99 16.8415 5.23C16.9415 5.47 16.9914 5.73 16.9914 5.99C16.9914 6.25 16.9415 6.51 16.8415 6.76C16.7416 7 16.5917 7.22 16.4118 7.41C16.222 7.6 16.0121 7.74 15.7623 7.84C15.5125 7.94 15.2627 7.99 14.9929 7.99H12.9943V4H14.9929C15.2527 4 15.5125 4.05 15.7523 4.15H15.7623ZM7.58815 7.41C7.20842 7.03 6.99857 6.53 6.99857 6C6.99857 5.47 7.20842 4.96 7.58815 4.59C7.96788 4.22 8.47752 4 8.99714 4H10.9957V8H8.99714C8.46752 8 7.95789 7.79 7.58815 7.41ZM7.58815 13.41C7.20842 13.03 6.99857 12.53 6.99857 12C6.99857 11.47 7.20842 10.96 7.58815 10.59C7.96788 10.22 8.47752 10 8.99714 10H10.9957V14H8.99714C8.46752 14 7.95789 13.79 7.58815 13.41ZM10.9957 18C10.9957 18.53 10.7859 19.04 10.4061 19.41C9.65667 20.15 8.32762 20.15 7.57816 19.41C7.19843 19.03 6.98858 18.53 6.98858 18C6.98858 17.47 7.19843 16.96 7.57816 16.58C7.95789 16.2 8.45753 16 8.98715 16H10.9857V18H10.9957ZM16.8415 12.77C16.7416 13.01 16.5917 13.23 16.4118 13.42C16.232 13.61 16.0021 13.75 15.7623 13.85C15.2727 14.05 14.7231 14.05 14.2334 13.85C13.9936 13.75 13.7737 13.6 13.5839 13.42C13.394 13.23 13.2541 13.02 13.1542 12.77C13.0542 12.53 13.0043 12.27 13.0043 12.01C13.0043 11.75 13.0542 11.49 13.1542 11.24C13.2541 11 13.404 10.78 13.5839 10.59C13.7737 10.4 13.9936 10.26 14.2334 10.16C14.4832 10.06 14.733 10.01 15.0029 10.01C15.2727 10.01 15.5225 10.06 15.7623 10.16C16.0021 10.26 16.222 10.41 16.4118 10.59C16.6017 10.78 16.7416 11 16.8415 11.24C16.9415 11.48 16.9914 11.74 16.9914 12C16.9914 12.26 16.9415 12.52 16.8415 12.77Z" />
</svg>
