<svg class="fill-current stroke-current w-full h-full" style="color: inherit" stroke-width="0.2" width="24" height="24" viewBox="0 0 24 24" stroke="none" xmlns="http://www.w3.org/2000/svg">
<path d="M13.9963 2H5.99132C4.89064 2 4.00008 2.9 4.00008 4V20C3.99008 21.1 4.88063 22 5.98131 22H17.9988C19.0994 22 20 21.1 20 20V8L13.9963 2ZM17.9988 20H5.99132V4H12.9957V9H17.9988V20ZM15.7073 15.71C15.5072 15.91 15.2571 16 14.9969 16C14.7367 16 14.4866 15.9 14.2865 15.71L12.9957 14.42V18.01C12.9957 18.56 12.5454 19.01 11.995 19.01C11.4447 19.01 10.9944 18.56 10.9944 18.01V14.42L9.70362 15.71C9.31338 16.1 8.68299 16.1 8.29274 15.71C7.9025 15.32 7.9025 14.69 8.29274 14.3L12.005 10.59L15.7173 14.3C16.1076 14.69 16.1076 15.32 15.7173 15.71H15.7073Z" />
</svg>
