<svg class="fill-current stroke-current w-full h-full" style="color: inherit" stroke-width="0.2" width="24" height="24" viewBox="0 0 24 24" stroke="none" xmlns="http://www.w3.org/2000/svg">
<path d="M22 15V19C22 19.8 21.69 20.55 21.12 21.12C20.55 21.69 19.8 22 19 22H5C4.2 22 3.45 21.69 2.88 21.12C2.31 20.55 2 19.8 2 19V15C2 14.45 2.45 14 3 14C3.55 14 4 14.45 4 15V19C4 19.26 4.11 19.52 4.29 19.71C4.48 19.9 4.73 20 5 20H19C19.26 20 19.52 19.89 19.71 19.71C19.9 19.53 20 19.27 20 19V15C20 14.45 20.45 14 21 14C21.55 14 22 14.45 22 15ZM11.29 15.71C11.38 15.8 11.49 15.88 11.62 15.93C11.74 15.98 11.87 16.01 12 16.01C12.13 16.01 12.26 15.98 12.38 15.93C12.5 15.88 12.61 15.81 12.71 15.71L17.71 10.71C18.1 10.32 18.1 9.69 17.71 9.3C17.32 8.91 16.69 8.91 16.3 9.3L13.01 12.59V3C13.01 2.45 12.56 2 12.01 2C11.46 2 11.01 2.45 11.01 3V12.59L7.72 9.3C7.33 8.91 6.7 8.91 6.31 9.3C5.92 9.69 5.92 10.32 6.31 10.71L11.31 15.71H11.29Z" />
</svg>
