<svg class="fill-current stroke-current w-full h-full" style="color: inherit" stroke-width="0.2" width="24" height="24" viewBox="0 0 24 24" stroke="none" xmlns="http://www.w3.org/2000/svg">
<path d="M19.0619 12.3932C18.7876 12.2359 18.5036 12.1081 18.2196 12C18.5036 11.8919 18.7876 11.7641 19.0619 11.6068C20.9423 10.5156 21.9902 8.53977 22 6.50491C21.1088 5.99374 20.0902 5.7185 19.0521 5.7185C18.0531 5.7185 17.0443 5.97408 16.1237 6.50491C15.8495 6.6622 15.5948 6.84897 15.3598 7.03575C15.4088 6.73101 15.4381 6.41644 15.4381 6.10188C15.4381 3.91957 14.2531 2.02234 12.5 1C10.7469 2.02234 9.56186 3.91957 9.56186 6.10188C9.56186 6.41644 9.59124 6.73101 9.64021 7.03575C9.40515 6.83914 9.15052 6.65237 8.87629 6.49508C7.95567 5.96425 6.94691 5.70867 5.94794 5.70867C4.91959 5.70867 3.89124 5.98391 3 6.49508C3 8.52994 4.04794 10.5058 5.93814 11.597C6.21237 11.7542 6.49639 11.882 6.78041 11.9902C6.49639 12.0983 6.21237 12.2261 5.93814 12.3834C4.05773 13.4745 3.00979 15.4504 3 17.4853C3.89124 17.9964 4.90979 18.2717 5.94794 18.2717C6.94691 18.2717 7.95567 18.0161 8.87629 17.4853C9.15052 17.328 9.40515 17.1412 9.64021 16.9544C9.59124 17.269 9.56186 17.5836 9.56186 17.8981C9.56186 20.0804 10.7469 21.9777 12.5 23C14.2531 21.9777 15.4381 20.0804 15.4381 17.8981C15.4381 17.5836 15.4088 17.269 15.3598 16.9643C15.5948 17.1609 15.8495 17.3378 16.1237 17.4951C17.0443 18.0259 18.0531 18.2815 19.0521 18.2815C20.0804 18.2815 21.1088 18.0063 22 17.4951C21.9902 15.4602 20.9423 13.4844 19.0619 12.3932V12.3932ZM16.5742 8.57909C16.7799 8.41197 16.9464 8.29401 17.1031 8.21537C17.7005 7.87131 18.3763 7.68454 19.0619 7.68454C19.3263 7.68454 19.5809 7.71403 19.8356 7.76318C19.532 8.65773 18.9149 9.42449 18.0923 9.90617C17.9258 10.0045 17.7397 10.0831 17.5242 10.1716L16.1727 10.6828C16.0062 10.2306 15.7711 9.82752 15.4675 9.46381L16.5742 8.57909ZM12.5 3.51653C13.117 4.22431 13.4794 5.14835 13.4794 6.10188C13.4794 6.28865 13.4598 6.50491 13.4304 6.72118L13.2052 8.13673C12.9701 8.09741 12.7351 8.06792 12.5 8.06792C12.2649 8.06792 12.0299 8.09741 11.8046 8.13673L11.5794 6.72118C11.5402 6.50491 11.5206 6.28865 11.5206 6.10188C11.5206 5.13852 11.883 4.22431 12.5 3.51653ZM5.16443 7.75335C5.41907 7.69437 5.6835 7.67471 5.94794 7.67471C6.62371 7.67471 7.29948 7.85165 7.89691 8.20554C8.04381 8.29401 8.21031 8.40214 8.3768 8.5496L9.50309 9.4933C9.20928 9.84718 8.98402 10.2404 8.81753 10.6729L7.46598 10.1618C7.26031 10.0733 7.07423 9.98481 6.91753 9.89633C6.06546 9.40482 5.45825 8.6479 5.16443 7.75335V7.75335ZM8.42577 15.4111C8.2201 15.5782 8.05361 15.6962 7.89691 15.7748C7.29948 16.1189 6.62371 16.3056 5.93814 16.3056C5.67371 16.3056 5.41907 16.2761 5.16443 16.227C5.46804 15.3324 6.08505 14.5657 6.90773 14.084C7.07423 13.9857 7.26031 13.9071 7.47577 13.8186L8.82732 13.3074C8.98402 13.7596 9.22887 14.1725 9.53247 14.5264L8.42577 15.4111V15.4111ZM12.5 20.4835C11.883 19.7757 11.5206 18.8517 11.5206 17.8981C11.5206 17.7015 11.5402 17.4951 11.5794 17.2592L11.7948 15.8633C12.0201 15.9026 12.2552 15.9321 12.5 15.9321C12.7351 15.9321 12.9701 15.9026 13.1954 15.8633L13.4206 17.2788C13.4598 17.4951 13.4794 17.7113 13.4794 17.8981C13.4794 18.8615 13.117 19.7757 12.5 20.4835V20.4835ZM19.0521 16.3155C18.3763 16.3155 17.7005 16.1385 17.1031 15.7846C16.9268 15.6863 16.7701 15.5684 16.6232 15.4504L15.4969 14.5067C15.7907 14.1528 16.0258 13.7596 16.1825 13.3172L17.534 13.8284C17.7495 13.9071 17.9356 13.9955 18.0923 14.084C18.9247 14.5657 19.532 15.3324 19.8356 16.227C19.5711 16.2958 19.3067 16.3155 19.0521 16.3155V16.3155Z" />
</svg>
