<svg class="fill-current stroke-current w-full h-full" style="color: inherit" stroke-width="0.2" width="24" height="24" viewBox="0 0 24 24" stroke="none" xmlns="http://www.w3.org/2000/svg">
<path d="M22 5.77946C22 5.22845 21.5545 4.77762 21.01 4.77762H9.95206L11.932 6.78131H21.01C21.5545 6.78131 22 6.33048 22 5.77946ZM19.0301 10.7887C19.0301 10.2377 18.5846 9.78684 18.0401 9.78684H14.9019L16.8819 11.7905H18.0401C18.5846 11.7905 19.0301 11.3397 19.0301 10.7887ZM15.0504 15.6076C15.0603 15.6677 15.0702 15.7378 15.0702 15.7979C15.0702 16.3489 14.6247 16.7998 14.0802 16.7998H12.1003C11.5558 16.7998 11.1103 16.3489 11.1103 15.7979C11.1103 15.2469 11.5558 14.7961 12.1003 14.7961H14.0802C14.1396 14.7961 14.2089 14.8061 14.2683 14.8161L11.2786 11.7905H8.14042C7.59594 11.7905 7.15045 11.3397 7.15045 10.7887C7.15045 10.2377 7.59594 9.78684 8.14042 9.78684H9.29869L6.32877 6.78131H5.17051C4.62603 6.78131 4.18054 6.33048 4.18054 5.77946C4.18054 5.45887 4.32904 5.17835 4.55673 4.988L3.28957 3.70564C2.90348 3.31492 2.90348 2.68376 3.28957 2.29304C3.67565 1.90232 4.29934 1.90232 4.68542 2.29304L21.4852 19.2944C21.8713 19.6851 21.8713 20.3162 21.4852 20.707C21.0991 21.0977 20.4754 21.0977 20.0894 20.707L15.0504 15.6076Z" />
</svg>
