<svg class="fill-current stroke-current w-full h-full" style="color: inherit" stroke-width="0.2" width="24" height="24" viewBox="0 0 24 24" stroke="none" xmlns="http://www.w3.org/2000/svg">
<path d="M13.5983 19.99C13.4483 19.99 13.2983 19.96 13.1583 19.8901L9.95826 18.331C9.61826 18.1611 9.39826 17.8114 9.39826 17.4316V12.7245L3.24826 5.65896C2.98826 5.35915 2.92826 4.93941 3.08826 4.58963C3.24826 4.22986 3.60826 4 3.99826 4H19.9983C20.3883 4 20.7483 4.22986 20.9083 4.58963C21.0683 4.94941 21.0083 5.36914 20.7483 5.65896L14.5983 12.7345V19.0006C14.5983 19.3404 14.4183 19.6702 14.1283 19.8501C13.9683 19.95 13.7783 20 13.5983 20V19.99ZM11.3983 16.812L12.5983 17.3916V12.3548C12.5983 12.1149 12.6883 11.8851 12.8483 11.6952L17.7983 5.99875H6.19826L11.1583 11.6952C11.3183 11.8751 11.4083 12.1149 11.4083 12.3548V16.812H11.3983Z" />
</svg>
