<svg class="fill-current stroke-current w-full h-full" style="color: inherit" stroke-width="0.2" width="24" height="24" viewBox="0 0 24 24" stroke="none" xmlns="http://www.w3.org/2000/svg">
<path d="M20.9962 14.3354L21.71 13.6216C22.0967 13.2349 22.0967 12.6104 21.71 12.2237L21.6902 12.2039C21.3035 11.8172 20.679 11.8172 20.2923 12.2039L17.457 15.0393L8.96074 6.54305L11.7961 3.70767C12.1828 3.32103 12.1828 2.69645 11.7961 2.30981L11.7763 2.28998C11.3896 1.90334 10.7651 1.90334 10.3784 2.28998L9.66462 3.00378L8.95082 2.28998C8.56418 1.90334 7.92969 1.90334 7.54305 2.28998L6.12536 3.70767L5.41156 2.99387C5.02492 2.60723 4.38051 2.60723 3.99387 2.99387C3.60723 3.38051 3.60723 4.02492 3.99387 4.41156L4.70767 5.12536L3.28998 6.54305C2.90334 6.92969 2.90334 7.55427 3.28998 7.94091L4.00378 8.65471L3.28998 9.37842C2.90334 9.76507 2.90334 10.3896 3.28998 10.7763L3.30981 10.7961C3.69645 11.1828 4.32103 11.1828 4.70767 10.7961L7.54305 7.96074L16.0393 16.457L13.2039 19.2923C12.8172 19.679 12.8172 20.3035 13.2039 20.6902L13.2237 20.71C13.6104 21.0967 14.2349 21.0967 14.6216 20.71L15.3354 19.9962L16.0492 20.71C16.4358 21.0967 17.0604 21.0967 17.447 20.71L18.8647 19.2923L19.5785 20.0061C19.9652 20.3928 20.6096 20.3928 20.9962 20.0061C21.3829 19.6195 21.3829 18.9751 20.9962 18.5884L20.2824 17.8746L21.71 16.457C22.0967 16.0703 22.0967 15.4457 21.71 15.0591L20.9962 14.3354Z" />
</svg>
