<svg class="fill-current stroke-current w-full h-full" style="color: inherit" stroke-width="0.2" width="24" height="24" viewBox="0 0 24 24" stroke="none" xmlns="http://www.w3.org/2000/svg">
<path d="M19.41 3.9C19.06 3.73 18.63 3.8 18.33 4.04C18.33 4.04 17.64 4.57 15.74 4.57C14.71 4.57 13.81 4.22 12.85 3.85C11.77 3.43 10.64 3 9.24 3C6.54 3 5.49 3.89 5.3 4.07C5.11 4.26 5 4.52 5 4.79V20C5 20.55 5.45 21 6 21C6.55 21 7 20.55 7 20V14.78C7.37 14.62 8.08 14.42 9.25 14.42C10.28 14.42 11.18 14.77 12.14 15.14C13.22 15.56 14.35 15.99 15.75 15.99C18.46 15.99 19.51 15.1 19.7 14.92C19.89 14.73 20 14.47 20 14.2V4.79C20 4.41 19.76 4.07 19.41 3.9ZM18 13.65C17.63 13.81 16.92 14.01 15.75 14.01C14.72 14.01 13.82 13.66 12.86 13.29C11.78 12.87 10.65 12.44 9.25 12.44C8.31 12.44 7.57 12.55 7 12.69V5.36C7.37 5.2 8.08 5 9.25 5C10.28 5 11.18 5.35 12.14 5.72C13.22 6.14 14.35 6.57 15.75 6.57C16.69 6.57 17.43 6.46 18 6.32V13.65Z" />
</svg>
