<svg class="fill-current stroke-current w-full h-full" style="color: inherit" stroke-width="0.2" width="24" height="24" viewBox="0 0 24 24" stroke="none" xmlns="http://www.w3.org/2000/svg">
<path d="M19.4624 18.8047H3.32063C2.7984 18.8047 2.37112 19.2987 2.37112 19.9024C2.37112 20.5061 2.7984 21 3.32063 21H19.4624C19.9847 21 20.4119 20.5061 20.4119 19.9024C20.4119 19.2987 19.9847 18.8047 19.4624 18.8047ZM20.9532 8.5308C20.7443 7.65268 19.9657 7.13679 19.2061 7.3673L14.1641 8.92595L8.03024 2.31815C7.77387 2.03276 7.40356 1.93397 7.06173 2.04374C6.41606 2.25229 6.11221 3.10845 6.44454 3.77801L9.71088 10.32L4.99178 11.7798L3.50104 10.4187C3.26366 10.2102 2.95982 10.1334 2.66547 10.2212L2.35213 10.32C2.04828 10.4078 1.90585 10.8139 2.06727 11.1212L3.85236 14.6886C4.07075 15.1166 4.50753 15.3252 4.91582 15.2045L19.9372 10.5505C20.6968 10.309 21.1526 9.40891 20.9532 8.5308Z" />
</svg>
