<svg class="fill-current stroke-current w-full h-full" style="color: inherit" stroke-width="0.2" width="24" height="24" viewBox="0 0 24 24" stroke="none" xmlns="http://www.w3.org/2000/svg">
<path d="M20 18.9664H3C2.45 18.9664 2 19.424 2 19.9832C2 20.5424 2.45 21 3 21H20C20.55 21 21 20.5424 21 19.9832C21 19.424 20.55 18.9664 20 18.9664ZM3.01 11.4524L18.84 15.7636C19.64 15.9771 20.46 15.4992 20.68 14.6858C20.89 13.8724 20.42 13.0386 19.62 12.8149L14.31 11.3711L11.73 2.77925C11.62 2.41321 11.34 2.13868 10.98 2.037C10.3 1.85398 9.63 2.37254 9.63 3.09445V10.0899L4.65 8.74777L3.9 6.85655C3.78 6.56168 3.54 6.33799 3.23 6.25665L2.9 6.16514C2.58 6.07363 2.27 6.31765 2.27 6.65319V10.4661C2.27 10.9338 2.57 11.3304 3.01 11.4524Z" />
</svg>
