<svg class="fill-current stroke-current w-full h-full" style="color: inherit" stroke-width="0.2" width="24" height="24" viewBox="0 0 24 24" stroke="none" xmlns="http://www.w3.org/2000/svg">
<path d="M21.13 7.03C20.61 6.58 19.92 6.33 19.2 6.33H11.59L10.09 4.39C9.9 4.14 9.61 4 9.3 4H4.8C4.08 4 3.4 4.25 2.87 4.7C2.31 5.18 2 5.86 2 6.56V17.44C2 18.14 2.32 18.82 2.87 19.3C3.39 19.75 4.08 20 4.8 20H19.2C19.92 20 20.6 19.75 21.12 19.3C21.68 18.82 22 18.14 22 17.44V8.89C22 8.19 21.68 7.51 21.13 7.03ZM20 17.44C20 17.56 19.94 17.68 19.82 17.78C19.66 17.92 19.44 17.99 19.2 17.99H4.8C4.56 17.99 4.34 17.91 4.18 17.78C4.06 17.68 4 17.56 4 17.44V6.56C4 6.44 4.06 6.32 4.18 6.22C4.34 6.08 4.56 6.01 4.8 6.01H8.81L10.31 7.95C10.5 8.2 10.79 8.34 11.1 8.34H19.2C19.44 8.34 19.66 8.42 19.82 8.55C19.94 8.65 20 8.77 20 8.89V17.44ZM15.7 13.55C15.7 14.1 15.25 14.55 14.7 14.55H13V15.88C13 16.43 12.55 16.88 12 16.88C11.45 16.88 11 16.43 11 15.88V14.55H9.3C8.75 14.55 8.3 14.1 8.3 13.55C8.3 13 8.75 12.55 9.3 12.55H11V11.22C11 10.67 11.45 10.22 12 10.22C12.55 10.22 13 10.67 13 11.22V12.55H14.7C15.25 12.55 15.7 13 15.7 13.55Z" />
</svg>
