<svg class="fill-current stroke-current w-full h-full" style="color: inherit" stroke-width="0.2" width="24" height="24" viewBox="0 0 24 24" stroke="none" xmlns="http://www.w3.org/2000/svg">
<path d="M19.2 20H4.8C4.08 20 3.39 19.75 2.87 19.3C2.32 18.82 2 18.15 2 17.44V6.56C2 5.86 2.32 5.18 2.87 4.7C3.39 4.25 4.08 4 4.8 4H9.3C9.61 4 9.9 4.14 10.09 4.39L11.59 6.33H19.2C19.92 6.33 20.6 6.58 21.13 7.03C21.68 7.51 22 8.19 22 8.89V17.44C22 18.14 21.68 18.82 21.12 19.3C20.6 19.75 19.92 20 19.2 20V20ZM4.8 6C4.56 6 4.34 6.08 4.18 6.21C4.06 6.31 4 6.43 4 6.55V17.44C4 17.56 4.06 17.68 4.18 17.78C4.34 17.92 4.56 17.99 4.8 17.99H19.2C19.44 17.99 19.66 17.91 19.82 17.78C19.94 17.68 20 17.56 20 17.44V8.89C20 8.77 19.94 8.65 19.82 8.55C19.66 8.41 19.44 8.34 19.2 8.34H11.1C10.79 8.34 10.5 8.2 10.31 7.95L8.81 6.01H4.8V6Z" />
</svg>
