<svg class="fill-current stroke-current w-full h-full" style="color: inherit" stroke-width="0.2" width="24" height="24" viewBox="0 0 24 24" stroke="none" xmlns="http://www.w3.org/2000/svg">
<path d="M20 2H4C2.9 2 2 2.9 2 4V20C2 21.1 2.9 22 4 22H20C21.1 22 22 21.1 22 20V4C22 2.9 21.1 2 20 2ZM20 20H4V4H20V20ZM6.89 18.45C7.02 18.5 7.15 18.53 7.28 18.53C7.67 18.53 8.04 18.3 8.2 17.92L9.44 15H14.54L15.78 17.92C15.94 18.3 16.31 18.53 16.7 18.53C16.83 18.53 16.96 18.5 17.09 18.45C17.6 18.23 17.84 17.65 17.62 17.14L13.04 6.34C13.04 5.96 12.81 5.6 12.44 5.44C12.3 5.38 12.15 5.36 12.01 5.37C11.87 5.37 11.72 5.38 11.58 5.44C11.21 5.6 10.99 5.96 10.98 6.34L6.38 17.13C6.16 17.64 6.4 18.22 6.91 18.44L6.89 18.45ZM10.3 13L12 9.01L13.7 13H10.3Z" />
</svg>
