<svg class="fill-current stroke-current w-full h-full" style="color: inherit" stroke-width="0.2" width="24" height="24" viewBox="0 0 24 24" stroke="none" xmlns="http://www.w3.org/2000/svg">
<path d="M15.7999 11.79C16.7925 11.12 17.4883 10.02 17.4883 9C17.4883 6.74 15.6976 5 13.3953 5H8.02325C7.46046 5 7 5.45 7 6V18C7 18.55 7.46046 19 8.02325 19H13.9376C16.0557 19 17.9897 17.31 17.9999 15.23C18.0101 13.7 17.1302 12.39 15.7999 11.79V11.79ZM10.0697 7.5H13.1395C13.9888 7.5 14.6744 8.17 14.6744 9C14.6744 9.83 13.9888 10.5 13.1395 10.5H10.0697V7.5ZM13.6511 16.5H10.0697V13.5H13.6511C14.5004 13.5 15.186 14.17 15.186 15C15.186 15.83 14.5004 16.5 13.6511 16.5Z" />
</svg>
