<svg class="fill-current stroke-current w-full h-full" style="color: inherit" stroke-width="0.2" width="24" height="24" viewBox="0 0 24 24" stroke="none" xmlns="http://www.w3.org/2000/svg">
<path fill-rule="evenodd" clip-rule="evenodd" d="M10 12.53C10 12.84 9.93 13.14 9.79 13.42L8.37 16.26C8.15 16.71 7.68 17 7.17 17C6.17 17 5.52 15.95 5.97 15.06L7 13H5C4.92 13 4.85 13 4.78 12.97C4.34 12.87 4 12.47 4 12V8C4 7.45 4.45 7 5 7H9C9.55 7 10 7.45 10 8V12.53ZM15.97 15.06C15.52 15.95 16.17 17 17.17 17C17.68 17 18.15 16.71 18.37 16.26L19.79 13.42C19.93 13.14 20 12.84 20 12.53V8C20 7.45 19.55 7 19 7H15C14.45 7 14 7.45 14 8V12C14 12.47 14.33 12.87 14.78 12.97C14.85 12.99 14.93 13 15 13H17L15.97 15.06ZM18 11V9H16V11H18V11ZM8 11H6V9H8V11V11Z" />
</svg>
