<svg class="fill-current stroke-current w-full h-full" style="color: inherit" stroke-width="0.2" width="24" height="24" viewBox="0 0 24 24" stroke="none" xmlns="http://www.w3.org/2000/svg">
<path d="M19.4644 7.08236C20.3141 7.08236 21 6.39396 21 5.54118C21 4.68839 20.3141 4 19.4644 4H7.06683L10.1381 7.08236H12.0115L11.4485 8.3975L13.5881 10.5449L15.0725 7.08236H19.4644ZM18.3792 18.261L4.74293 4.57537C4.34367 4.17467 3.69871 4.17467 3.29945 4.57537C2.90018 4.97608 2.90018 5.62337 3.29945 6.02408L9.70809 12.4559L8.01891 16.4013C7.61965 17.3466 8.30556 18.3843 9.31907 18.3843C9.88213 18.3843 10.394 18.0453 10.6192 17.5213L11.858 14.6136L16.9255 19.6995C17.3248 20.1002 17.9697 20.1002 18.369 19.6995C18.7785 19.309 18.7785 18.6617 18.3792 18.261Z" />
</svg>
