<svg class="fill-current stroke-current w-full h-full" style="color: inherit" stroke-width="0.2" width="24" height="24" viewBox="0 0 24 24" stroke="none" xmlns="http://www.w3.org/2000/svg">
<path d="M19.7069 19.1799L5.70339 4.00554C5.31518 3.58487 4.68136 3.58487 4.29314 4.00554C4.09903 4.21588 4 4.47344 4 4.76963C4 5.06582 4.09903 5.32338 4.29314 5.53372L7.05026 8.52137C6.65808 9.07512 6.36098 9.67609 6.15895 10.3028C5.92127 11.0454 5.79846 11.8567 5.79846 12.7195C5.79846 14.7199 6.46398 16.437 7.77915 17.8235C9.09037 19.2057 10.6908 19.9097 12.5328 19.9097C13.2855 19.9097 14.0302 19.7809 14.7472 19.5233C15.3493 19.3087 15.9 19.0082 16.3833 18.6305L18.2966 20.6823C18.4907 20.8927 18.7284 21 19.0017 21C19.2751 21 19.5167 20.8884 19.7069 20.6823C19.897 20.4763 20 20.2187 20 19.9268C20 19.6349 19.901 19.386 19.7069 19.1713V19.1799ZM12.5328 17.7677C11.2335 17.7677 10.1045 17.274 9.17356 16.2996C8.2466 15.3295 7.77915 14.1275 7.77915 12.7238C7.77915 12.08 7.8663 11.4962 8.0406 10.9982C8.15944 10.6548 8.30602 10.3414 8.47636 10.0538L14.977 17.098C14.7155 17.2783 14.4263 17.4243 14.1094 17.5273C13.6261 17.6861 13.0953 17.7677 12.5328 17.7677V17.7677ZM10.1362 8.20372L8.72196 6.67126L11.8356 3.31873C11.9386 3.20712 12.0495 3.12556 12.1684 3.07405C12.3942 2.97532 12.6715 2.97532 12.8973 3.07405C13.0121 3.12127 13.123 3.20712 13.226 3.31873L17.2627 7.6328C17.8767 8.29816 18.3679 9.07941 18.7244 9.95511C19.081 10.8351 19.2632 11.7666 19.2632 12.7238C19.2632 13.3162 19.18 13.9472 19.0097 14.5911C18.8433 15.2264 18.6254 15.8145 18.364 16.3425L18.1104 16.849L16.6408 15.2565L16.7675 14.9818C16.9101 14.6684 17.0329 14.2864 17.132 13.8485C17.231 13.4107 17.2785 13.0329 17.2785 12.7281C17.2785 12.0757 17.1438 11.4232 16.8784 10.7793C16.6091 10.1311 16.2565 9.57736 15.8326 9.13092L12.5368 5.58093L10.1401 8.19943L10.1362 8.20372Z" />
</svg>
