<svg class="fill-current stroke-current w-full h-full" style="color: inherit" stroke-width="0.2" width="24" height="24" viewBox="0 0 24 24" stroke="none" xmlns="http://www.w3.org/2000/svg">
<path d="M20 18H4C2.9 18 2 18.9 2 20C2 21.1 2.9 22 4 22H20C21.1 22 22 21.1 22 20C22 18.9 21.1 18 20 18ZM7.11 15C7.59 15 8.02 14.7 8.17 14.25L9.18 11.42H14.83L15.82 14.24C15.98 14.7 16.41 15 16.89 15C17.68 15 18.22 14.21 17.94 13.48L13.69 2.17C13.43 1.47 12.75 1 12 1C11.25 1 10.57 1.47 10.31 2.17L6.06 13.48C5.78 14.21 6.33 15 7.11 15ZM11.94 3.6H12.06L14.09 9.39H9.91L11.94 3.6Z" />
</svg>
