<svg class="fill-current stroke-current w-full h-full" style="color: inherit" stroke-width="0.2" width="24" height="24" viewBox="0 0 24 24" stroke="none" xmlns="http://www.w3.org/2000/svg">
<path d="M8.05287 10.8791V14.8187C8.05287 15.3603 8.50882 15.8035 9.06609 15.8035C9.62336 15.8035 10.0793 15.3603 10.0793 14.8187V4.96978H12.1057V14.8187C12.1057 15.3603 12.5617 15.8035 13.119 15.8035C13.6762 15.8035 14.1322 15.3603 14.1322 14.8187V4.96978H15.1454C15.7027 4.96978 16.1586 4.52658 16.1586 3.98489C16.1586 3.4432 15.7027 3 15.1454 3H8.22512C6.10749 3 4.22291 4.50688 4.02026 6.55545C3.78722 8.89948 5.68194 10.8791 8.05287 10.8791ZM19.8569 18.4135L17.03 15.6657C16.7058 15.3505 16.1586 15.5672 16.1586 16.0104V17.7733H5.01322C4.45595 17.7733 4 18.2165 4 18.7582C4 19.2999 4.45595 19.7431 5.01322 19.7431H16.1586V21.506C16.1586 21.9492 16.7058 22.1659 17.0198 21.8508L19.8467 19.1029C20.0494 18.9158 20.0494 18.6006 19.8569 18.4135Z" />
</svg>
