<svg class="fill-current stroke-current w-full h-full" style="color: inherit" stroke-width="0.2" width="24" height="24" viewBox="0 0 24 24" stroke="none" xmlns="http://www.w3.org/2000/svg">
<path d="M7.13737 7.38156C7.59204 7.38156 7.81433 6.82821 7.49101 6.51055L5.17725 4.15371C4.97517 3.94876 4.66195 3.94876 4.45988 4.15371L2.14612 6.51055C1.8329 6.82821 2.05519 7.38156 2.50985 7.38156H3.81324V17.6287H2.50985C2.05519 17.6287 1.8329 18.182 2.15622 18.4997L4.46998 20.8463C4.67206 21.0512 4.98527 21.0512 5.18735 20.8463L7.50111 18.4997C7.81433 18.182 7.59204 17.6287 7.13737 17.6287H5.83399V7.38156H7.13737ZM10.8859 7.38156H20.9896C21.5453 7.38156 22 6.92043 22 6.35684C22 5.79325 21.5453 5.33213 20.9896 5.33213H10.8859C10.3302 5.33213 9.87549 5.79325 9.87549 6.35684C9.87549 6.92043 10.3302 7.38156 10.8859 7.38156ZM20.9896 17.6287H10.8859C10.3302 17.6287 9.87549 18.0898 9.87549 18.6534C9.87549 19.217 10.3302 19.6781 10.8859 19.6781H20.9896C21.5453 19.6781 22 19.217 22 18.6534C22 18.0898 21.5453 17.6287 20.9896 17.6287ZM20.9896 11.4804H10.8859C10.3302 11.4804 9.87549 11.9415 9.87549 12.5051C9.87549 13.0687 10.3302 13.5298 10.8859 13.5298H20.9896C21.5453 13.5298 22 13.0687 22 12.5051C22 11.9415 21.5453 11.4804 20.9896 11.4804Z" />
</svg>
