<svg class="fill-current stroke-current w-full h-full" style="color: inherit" stroke-width="0.2" width="24" height="24" viewBox="0 0 24 24" stroke="none" xmlns="http://www.w3.org/2000/svg">
<path d="M4.45946 11C3.65189 11 3 11.67 3 12.5C3 13.33 3.65189 14 4.45946 14C5.26703 14 5.91892 13.33 5.91892 12.5C5.91892 11.67 5.26703 11 4.45946 11ZM4.45946 5C3.65189 5 3 5.67 3 6.5C3 7.33 3.65189 8 4.45946 8C5.26703 8 5.91892 7.33 5.91892 6.5C5.91892 5.67 5.26703 5 4.45946 5ZM4.45946 17C3.65189 17 3 17.68 3 18.5C3 19.32 3.66162 20 4.45946 20C5.2573 20 5.91892 19.32 5.91892 18.5C5.91892 17.68 5.26703 17 4.45946 17ZM8.35135 19.5H20.027C20.5622 19.5 21 19.05 21 18.5C21 17.95 20.5622 17.5 20.027 17.5H8.35135C7.81622 17.5 7.37838 17.95 7.37838 18.5C7.37838 19.05 7.81622 19.5 8.35135 19.5ZM8.35135 13.5H20.027C20.5622 13.5 21 13.05 21 12.5C21 11.95 20.5622 11.5 20.027 11.5H8.35135C7.81622 11.5 7.37838 11.95 7.37838 12.5C7.37838 13.05 7.81622 13.5 8.35135 13.5ZM7.37838 6.5C7.37838 7.05 7.81622 7.5 8.35135 7.5H20.027C20.5622 7.5 21 7.05 21 6.5C21 5.95 20.5622 5.5 20.027 5.5H8.35135C7.81622 5.5 7.37838 5.95 7.37838 6.5Z" />
</svg>
