<svg class="fill-current stroke-current w-full h-full" style="color: inherit" stroke-width="0.2" width="24" height="24" viewBox="0 0 24 24" stroke="none" xmlns="http://www.w3.org/2000/svg">
<path d="M8.94 16.4315C9.23 16.7265 9.62 16.8791 10 16.8791C10.38 16.8791 10.77 16.7265 11.06 16.4315L16.56 10.8365C17.15 10.2465 17.15 9.28007 16.56 8.67988L8.32 0.297552C7.93 -0.0991841 7.3 -0.0991841 6.91 0.297552C6.52 0.694288 6.52 1.33517 6.91 1.73191L8.59 3.44092L3.44 8.67988C2.85 9.28007 2.85 10.2465 3.44 10.8365L8.94 16.4315ZM10 4.88545L14.79 9.75818H5.21L10 4.88545ZM19 16.8791C20.1 16.8791 21 15.9635 21 14.8445C21 13.4916 19 11.2841 19 11.2841C19 11.2841 17 13.4916 17 14.8445C17 15.9635 17.9 16.8791 19 16.8791ZM20 19.9309H4C2.9 19.9309 2 20.8465 2 21.9655C2 23.0845 2.9 24 4 24H20C21.1 24 22 23.0845 22 21.9655C22 20.8465 21.1 19.9309 20 19.9309Z" />
</svg>
