<svg class="fill-current stroke-current w-full h-full" style="color: inherit" stroke-width="0.2" width="24" height="24" viewBox="0 0 24 24" stroke="none" xmlns="http://www.w3.org/2000/svg">
<path d="M7.025 19.0609C6.79167 19.0609 6.5625 18.9438 6.3375 18.7096C6.1125 18.4754 6 18.2412 6 18.0069V15.5476H18.5V7.01524H21C21.2333 7.01524 21.4583 7.13235 21.675 7.36657C21.8917 7.60079 22 7.84338 22 8.09433V21.2442C22 21.5788 21.8458 21.8089 21.5375 21.9343C21.2292 22.0598 20.9583 22.0054 20.725 21.7712L18.025 19.0609H7.025ZM6 14.0419L3.275 16.7773C3.04167 17.0115 2.77083 17.0659 2.4625 16.9404C2.15417 16.8149 2 16.5849 2 16.2503V4.054C2 3.81978 2.10833 3.58556 2.325 3.35133C2.54167 3.11711 2.76667 3 3 3H15.975C16.225 3 16.4583 3.11293 16.675 3.33879C16.8917 3.56464 17 3.80305 17 4.054V12.9879C17 13.2221 16.8917 13.4563 16.675 13.6906C16.4583 13.9248 16.225 14.0419 15.975 14.0419H6ZM15.5 12.5362V4.50571H3.5V12.5362H15.5Z" />
</svg>
