<svg class="fill-current stroke-current w-full h-full" style="color: inherit" stroke-width="0.2" width="24" height="24" viewBox="0 0 24 24" stroke="none" xmlns="http://www.w3.org/2000/svg">
<path d="M10.3473 10.9011C10.9542 11.2895 11.7199 11.2895 12.3268 10.9011L18.8067 6.78947V10.5789C18.8067 11.1 19.2269 11.5263 19.7404 11.5263C20.254 11.5263 20.6741 11.1 20.6741 10.5789V4.89474C20.6741 3.85263 19.8338 3 18.8067 3H3.86741C2.84034 3 2 3.85263 2 4.89474V16.2632C2 17.3053 2.84034 18.1579 3.86741 18.1579H11.3371C11.8506 18.1579 12.2708 17.7316 12.2708 17.2105C12.2708 16.6895 11.8506 16.2632 11.3371 16.2632H3.86741V6.78947L10.3473 10.9011ZM18.8067 4.89474L11.3371 9.63158L3.86741 4.89474H18.8067ZM22 16.9737L18.5546 20.6968C18.3679 20.8958 18.1251 21 17.873 21C17.6396 21 17.4155 20.9147 17.2381 20.7442C16.8646 20.3842 16.8459 19.7874 17.1914 19.4084L18.3399 18.1579H15.0719C14.5584 18.1579 14.1382 17.7316 14.1382 17.2105C14.1382 16.6895 14.5584 16.2632 15.0719 16.2632H18.5079L17.2381 15.06C16.8646 14.7 16.8459 14.1032 17.1914 13.7242C17.5462 13.3453 18.1345 13.3168 18.5079 13.6768L21.9907 16.9737H22Z" />
</svg>
