<svg class="fill-current stroke-current w-full h-full" style="color: inherit" stroke-width="0.2" width="24" height="24" viewBox="0 0 24 24" stroke="none" xmlns="http://www.w3.org/2000/svg">
<path d="M20.1818 3H4.0202C2.90909 3 2 3.88551 2 4.96779V16.7745C2 17.8568 2.90909 18.7423 4.0202 18.7423H13.1111V16.7745H4.0202V6.93558L11.0303 11.2057C11.6869 11.6091 12.5152 11.6091 13.1717 11.2057L20.1818 6.93558V11.8551H22.202V4.96779C22.202 3.88551 21.2929 3 20.1818 3ZM12.101 9.88727L4.0202 4.96779H20.1818L12.101 9.88727ZM19.1717 15.0134C19.1717 14.5706 19.7172 14.3542 20.0303 14.669L22.8485 17.4141C23.0505 17.6109 23.0505 17.9159 22.8485 18.1126L20.0303 20.8577C19.7172 21.1627 19.1717 20.9463 19.1717 20.5035V18.7423H16.1414C15.5859 18.7423 15.1313 18.2996 15.1313 17.7584C15.1313 17.2173 15.5859 16.7745 16.1414 16.7745H19.1717V15.0134Z" />
</svg>
