<svg class="fill-current stroke-current w-full h-full" style="color: inherit" stroke-width="0.2" width="24" height="24" viewBox="0 0 24 24" stroke="none" xmlns="http://www.w3.org/2000/svg">
<path d="M18.0482 13.5384C17.5773 13.5384 17.1912 13.8836 17.1253 14.3408C16.6733 17.4851 13.575 19.7897 10.1377 18.9687C8.01877 18.4648 6.4555 16.8507 6.00347 14.742C5.24066 11.1311 8.01877 7.9401 11.5314 7.9401V10.5433C11.5314 10.9632 12.04 11.1684 12.3319 10.8699L15.901 7.33362C16.0894 7.14702 16.0894 6.85777 15.901 6.67116L12.3319 3.13494C12.04 2.84569 11.5314 3.05096 11.5314 3.47083V6.07402C6.87927 6.07402 3.20653 10.254 4.14826 15.0312C4.7133 17.933 6.87927 20.163 9.78922 20.8068C14.3378 21.8144 18.406 18.7541 18.9899 14.5834C19.0747 14.0329 18.6132 13.5384 18.0482 13.5384ZM10.1565 15.6097C10.1 15.6564 10.0435 15.6937 9.96815 15.7217C9.89281 15.7497 9.80805 15.759 9.71388 15.759C9.62912 15.759 9.55379 15.7497 9.47845 15.7217C9.40311 15.6937 9.34661 15.6657 9.2901 15.619C9.2336 15.5724 9.19593 15.5257 9.16768 15.4604C9.13943 15.3951 9.12059 15.3298 9.12059 15.2552H8.32012C8.32012 15.4511 8.35779 15.619 8.43313 15.7683C8.50847 15.9176 8.61206 16.0296 8.7439 16.1229C8.87574 16.2162 9.017 16.2908 9.17709 16.3375C9.33719 16.3841 9.5067 16.4028 9.67621 16.4028C9.87397 16.4028 10.0623 16.3748 10.2412 16.3282C10.4202 16.2815 10.5614 16.1975 10.6933 16.1042C10.8251 16.0109 10.9193 15.8803 10.9946 15.7403C11.07 15.6004 11.1076 15.4324 11.1076 15.2458C11.1076 15.0312 11.0511 14.8353 10.9381 14.6767C10.8251 14.5181 10.6556 14.3968 10.4296 14.3128C10.5238 14.2661 10.6179 14.2195 10.6933 14.1542C10.7686 14.0889 10.8345 14.0235 10.8816 13.9489C10.9287 13.8743 10.9758 13.7996 11.0041 13.7156C11.0323 13.6317 11.0417 13.5477 11.0417 13.4637C11.0417 13.2771 11.0041 13.1185 10.9381 12.9692C10.8722 12.8199 10.778 12.7079 10.6556 12.6146C10.5332 12.5213 10.3919 12.4467 10.2224 12.4C10.0529 12.3534 9.87398 12.3254 9.66679 12.3254C9.48787 12.3254 9.30894 12.3534 9.15826 12.4C9.00758 12.4467 8.85691 12.5213 8.7439 12.6146C8.63089 12.7079 8.5273 12.8199 8.46138 12.9599C8.39546 13.0998 8.35779 13.2398 8.35779 13.4077H9.15826C9.15826 13.3424 9.17709 13.2771 9.20535 13.2211C9.2336 13.1651 9.27127 13.1185 9.31835 13.0812C9.36544 13.0438 9.42194 13.0159 9.48787 12.9879C9.55379 12.9599 9.61971 12.9599 9.69505 12.9599C9.78922 12.9599 9.86456 12.9692 9.93048 12.9972C9.9964 13.0252 10.0529 13.0532 10.1 13.0998C10.1471 13.1465 10.1753 13.2025 10.2036 13.2584C10.2318 13.3144 10.2412 13.3891 10.2412 13.4637C10.2412 13.6317 10.1942 13.7623 10.0906 13.8649C9.98698 13.9676 9.84572 14.0142 9.63854 14.0142H9.2336V14.63H9.65738C9.76097 14.63 9.84572 14.6393 9.93048 14.6673C10.0152 14.6953 10.0812 14.7233 10.1377 14.77C10.1942 14.8166 10.2412 14.8819 10.2695 14.9566C10.2978 15.0312 10.3166 15.1245 10.3166 15.2272C10.3166 15.3111 10.3072 15.3858 10.2789 15.4511C10.2507 15.5164 10.2036 15.5537 10.1565 15.6097ZM13.8292 12.4C13.6597 12.3347 13.4808 12.3067 13.2736 12.3067C13.0664 12.3067 12.8875 12.3347 12.718 12.4C12.5485 12.4654 12.4072 12.568 12.2942 12.7079C12.1812 12.8479 12.0776 13.0252 12.0211 13.2398C11.9646 13.4544 11.9269 13.7063 11.9269 14.0049V14.6953C11.9269 14.9939 11.9646 15.2552 12.0305 15.4604C12.0965 15.6657 12.1906 15.8523 12.3131 15.9923C12.4355 16.1322 12.5767 16.2348 12.7463 16.3002C12.9158 16.3655 13.0947 16.3935 13.3019 16.3935C13.5091 16.3935 13.688 16.3655 13.8575 16.3002C14.027 16.2348 14.1683 16.1322 14.2813 15.9923C14.3943 15.8523 14.4885 15.675 14.5544 15.4604C14.6203 15.2458 14.6485 14.9939 14.6485 14.6953V14.0049C14.6485 13.7063 14.6109 13.4451 14.545 13.2398C14.479 13.0345 14.3849 12.8479 14.2624 12.7079C14.14 12.568 13.9988 12.4654 13.8292 12.4ZM13.8387 14.798C13.8387 14.9752 13.8292 15.1245 13.801 15.2458C13.7727 15.3671 13.7445 15.4698 13.6974 15.5444C13.6503 15.619 13.5938 15.675 13.5185 15.703C13.4431 15.731 13.3678 15.7497 13.283 15.7497C13.1983 15.7497 13.1135 15.731 13.0476 15.703C12.9817 15.675 12.9158 15.619 12.8687 15.5444C12.8216 15.4698 12.7839 15.3671 12.7557 15.2458C12.7274 15.1245 12.718 14.9752 12.718 14.798V13.8929C12.718 13.7156 12.7274 13.5663 12.7557 13.4451C12.7839 13.3238 12.8122 13.2305 12.8687 13.1558C12.9252 13.0812 12.9723 13.0252 13.0476 12.9972C13.1229 12.9692 13.1983 12.9505 13.283 12.9505C13.3678 12.9505 13.4525 12.9692 13.5185 12.9972C13.5844 13.0252 13.6503 13.0812 13.6974 13.1558C13.7445 13.2305 13.7822 13.3238 13.8104 13.4451C13.8387 13.5663 13.8481 13.7156 13.8481 13.8929V14.798H13.8387Z" />
</svg>
