<svg class="fill-current stroke-current w-full h-full" style="color: inherit" stroke-width="0.2" width="24" height="24" viewBox="0 0 24 24" stroke="none" xmlns="http://www.w3.org/2000/svg">
<path d="M18.0482 13.5385C17.5773 13.5385 17.1912 13.8837 17.1253 14.3409C16.6733 17.4852 13.575 19.7898 10.1377 18.9687C8.01877 18.4649 6.4555 16.8507 6.00347 14.7421C5.24066 11.1313 8.01877 7.94033 11.5314 7.94033V10.5435C11.5314 10.9633 12.04 11.1686 12.3319 10.87L15.901 7.33386C16.0894 7.14726 16.0894 6.85802 15.901 6.67141L12.3319 3.13525C12.04 2.84601 11.5314 3.05127 11.5314 3.4618V6.07428C6.87927 6.07428 3.20653 10.2542 4.14826 15.0313C4.7133 17.933 6.87927 20.163 9.78922 20.8068C14.3378 21.8144 18.406 18.7541 18.9899 14.5835C19.0747 14.033 18.6132 13.5385 18.0482 13.5385ZM11.9834 15.5445C11.9364 15.6098 11.8799 15.6658 11.8139 15.7031C11.748 15.7404 11.6538 15.7591 11.5597 15.7591C11.3996 15.7591 11.2677 15.7124 11.1641 15.6191C11.0606 15.5258 11.0041 15.3952 10.9852 15.2366H10.1942C10.2036 15.4232 10.2412 15.5818 10.3166 15.7311C10.3919 15.8804 10.4955 15.9923 10.6179 16.095C10.7404 16.1976 10.891 16.2723 11.0511 16.3189C11.2112 16.3656 11.3807 16.3935 11.5503 16.3935C11.7763 16.3935 11.9834 16.3562 12.153 16.2816C12.3225 16.2069 12.4637 16.1136 12.5767 15.9923C12.6897 15.8711 12.7745 15.7311 12.831 15.5725C12.8875 15.4139 12.9158 15.2459 12.9158 15.0686C12.9158 14.8634 12.8875 14.6674 12.831 14.5088C12.7745 14.3502 12.6992 14.2009 12.5956 14.089C12.492 13.977 12.3601 13.8837 12.2095 13.8277C12.0588 13.7717 11.8893 13.7344 11.6915 13.7344C11.6256 13.7344 11.5597 13.7438 11.5032 13.7531C11.4467 13.7624 11.3807 13.7717 11.3337 13.7904C11.2866 13.8091 11.2395 13.8184 11.1924 13.8371C11.1453 13.8557 11.1171 13.8744 11.0888 13.8837L11.1924 13.0253H12.7933V12.3629H10.5426L10.3072 14.3875L10.9381 14.5462C10.9664 14.5182 10.9946 14.4902 11.0323 14.4622C11.07 14.4342 11.0982 14.4155 11.1453 14.3969C11.1924 14.3782 11.2395 14.3595 11.2866 14.3502C11.3337 14.3409 11.409 14.3316 11.4749 14.3316C11.5879 14.3316 11.6821 14.3502 11.7574 14.3782C11.8328 14.4062 11.9081 14.4622 11.9552 14.5182C12.0023 14.5741 12.0494 14.6488 12.0776 14.7421C12.1059 14.8354 12.1153 14.9194 12.1153 15.0313C12.1153 15.1433 12.1059 15.2366 12.087 15.3206C12.0682 15.4045 12.0305 15.4792 11.9834 15.5445Z" />
</svg>
