<svg class="fill-current stroke-current w-full h-full" style="color: inherit" stroke-width="0.2" width="24" height="24" viewBox="0 0 24 24" stroke="none" xmlns="http://www.w3.org/2000/svg">
<path d="M18.0506 13.5384C17.5798 13.5384 17.1937 13.8836 17.1277 14.3408C16.6757 17.4851 13.5774 19.7897 10.1401 18.9687C8.02121 18.4648 6.45794 16.8507 6.00591 14.742C5.24311 11.1311 8.02121 7.9401 11.5339 7.9401V10.5433C11.5339 10.9632 12.0424 11.1684 12.3343 10.8699L15.9035 7.33362C16.0918 7.14702 16.0918 6.85777 15.9035 6.67116L12.3343 3.13494C12.0424 2.84569 11.5339 3.05096 11.5339 3.47083V6.07402C6.88172 6.07402 3.20897 10.254 4.1507 15.0312C4.71574 17.933 6.88172 20.163 9.79166 20.8068C14.3402 21.8144 18.4085 18.7541 18.9924 14.5834C19.0771 14.0329 18.6157 13.5384 18.0506 13.5384ZM10.498 16.3375V12.3534H10.4132L8.74634 12.9412V13.585L9.69749 13.2958V16.3375H10.498ZM13.7187 12.4C13.5492 12.3347 13.3702 12.3067 13.1631 12.3067C12.9559 12.3067 12.7769 12.3347 12.6074 12.4C12.4379 12.4654 12.2967 12.568 12.1837 12.7079C12.0706 12.8479 11.9671 13.0252 11.9106 13.2398C11.854 13.4544 11.8164 13.7063 11.8164 14.0049V14.6953C11.8164 14.9939 11.854 15.2552 11.92 15.4604C11.9859 15.6657 12.0801 15.8523 12.2025 15.9923C12.3249 16.1322 12.4662 16.2348 12.6357 16.3002C12.8052 16.3655 12.9841 16.3935 13.1913 16.3935C13.3985 16.3935 13.5774 16.3655 13.7469 16.3002C13.9164 16.2348 14.0577 16.1322 14.1707 15.9923C14.2837 15.8523 14.3779 15.675 14.4438 15.4604C14.5097 15.2458 14.538 14.9939 14.538 14.6953V14.0049C14.538 13.7063 14.5003 13.4451 14.4344 13.2398C14.3685 13.0345 14.2743 12.8479 14.1519 12.7079C14.0294 12.568 13.8788 12.4654 13.7187 12.4ZM13.7281 14.798C13.7281 14.9752 13.7187 15.1245 13.6904 15.2458C13.6622 15.3671 13.6339 15.4698 13.5868 15.5444C13.5397 15.619 13.4832 15.675 13.4079 15.703C13.3326 15.731 13.2572 15.7497 13.1725 15.7497C13.0877 15.7497 13.003 15.731 12.937 15.703C12.8711 15.675 12.8052 15.619 12.7581 15.5444C12.711 15.4698 12.6734 15.3671 12.6451 15.2458C12.6168 15.1245 12.6074 14.9752 12.6074 14.798V13.8929C12.6074 13.7156 12.6168 13.5663 12.6451 13.4451C12.6734 13.3238 12.7016 13.2305 12.7581 13.1558C12.8146 13.0812 12.8617 13.0252 12.937 12.9972C13.0124 12.9692 13.0877 12.9505 13.1725 12.9505C13.2572 12.9505 13.342 12.9692 13.4079 12.9972C13.4738 13.0252 13.5397 13.0812 13.5868 13.1558C13.6339 13.2305 13.6716 13.3238 13.6998 13.4451C13.7281 13.5663 13.7375 13.7156 13.7375 13.8929V14.798H13.7281Z" />
</svg>
