<svg class="fill-current stroke-current w-full h-full" style="color: inherit" stroke-width="0.2" width="24" height="24" viewBox="0 0 24 24" stroke="none" xmlns="http://www.w3.org/2000/svg">
<path d="M18.8456 12.8343H20.5086C20.9586 12.8343 21.1738 12.2525 20.8315 11.9463L12.6533 4.26028C12.2815 3.91324 11.7141 3.91324 11.3424 4.26028L3.1642 11.9463C2.8316 12.2525 3.03703 12.8343 3.48703 12.8343H5.15006V15.8964H4.1718C3.63376 15.8964 3.19355 16.3557 3.19355 16.9171C3.19355 17.4785 3.63376 17.9379 4.1718 17.9379H5.15006V19.9793C5.15006 20.5407 5.59027 21 6.12831 21C6.66635 21 7.10656 20.5407 7.10656 19.9793V17.9379H11.0196V19.9793C11.0196 20.5407 11.4598 21 11.9978 21C12.5359 21 12.9761 20.5407 12.9761 19.9793V17.9379H16.8891V19.9793C16.8891 20.5407 17.3293 21 17.8673 21C18.4054 21 18.8456 20.5407 18.8456 19.9793V17.9379H19.8238C20.3619 17.9379 20.8021 17.4785 20.8021 16.9171C20.8021 16.3557 20.3619 15.8964 19.8238 15.8964H18.8456V12.8343ZM7.10656 15.8964V10.9868L11.0196 7.31222V15.8964H7.10656ZM12.9761 15.8964V7.31222L16.8891 10.9868V15.8964H12.9761Z" />
</svg>
