<svg class="fill-current stroke-current w-full h-full" style="color: inherit" stroke-width="0.2" width="24" height="24" viewBox="0 0 24 24" stroke="none" xmlns="http://www.w3.org/2000/svg">
<path fill-rule="evenodd" clip-rule="evenodd" d="M15 5H5V13C5 14.11 5.89 15 7 15H13C14.11 15 15 14.11 15 13V5ZM19 3C20.1 3 21 3.9 21 5V8C21 9.1 20.11 10 19 10H17V13C17 15.21 15.21 17 13 17H7C4.79 17 3 15.21 3 13V5C3 3.9 3.9 3 5 3H19ZM17 8H19V5H17V8ZM4 19C3.45 19 3 19.45 3 20C3 20.55 3.45 21 4 21H18C18.55 21 19 20.55 19 20C19 19.45 18.55 19 18 19H4Z" />
</svg>
