<svg class="fill-current stroke-current w-full h-full" style="color: inherit" stroke-width="0.2" width="24" height="24" viewBox="0 0 24 24" stroke="none" xmlns="http://www.w3.org/2000/svg">
<path fill-rule="evenodd" clip-rule="evenodd" d="M11 6.66157L12.005 7.66657L13 6.67157V4H11V6.66157ZM6.66157 13H4V11H6.67157L7.66657 11.995L6.66157 13ZM13 17.3384L11.995 16.3334L11 17.3284V20H13V17.3384ZM17.3184 11.01L16.3234 12.005L17.3284 13.01H20V11.01H17.3184ZM9.15 7.64L11.65 10.14C11.85 10.34 12.16 10.34 12.36 10.14L14.86 7.64C14.95 7.55 15 7.43 15 7.29V3C15 2.45 14.55 2 14 2H10C9.45 2 9 2.45 9 3V7.29C9 7.42 9.05 7.55 9.15 7.64ZM16.71 9.01C16.57 9 16.45 9.05 16.35 9.15L13.85 11.65C13.65 11.85 13.65 12.16 13.85 12.36L16.35 14.86C16.44 14.95 16.57 15.01 16.7 15.01H21C21.55 15.01 22 14.56 22 14.01V10.01C22 9.46 21.55 9.01 21 9.01H16.71ZM3 9H7.29C7.43 9 7.55 9.05 7.64 9.14L10.14 11.64C10.34 11.84 10.34 12.15 10.14 12.35L7.64 14.85C7.55 14.95 7.42 15 7.29 15H3C2.45 15 2 14.55 2 14V10C2 9.45 2.45 9 3 9ZM9 21V16.71C9 16.57 9.05 16.45 9.14 16.36L11.64 13.86C11.84 13.66 12.15 13.66 12.35 13.86L14.85 16.36C14.95 16.45 15 16.58 15 16.71V21C15 21.55 14.55 22 14 22H10C9.45 22 9 21.55 9 21Z" />
</svg>
