<svg class="fill-current stroke-current w-full h-full" style="color: inherit" stroke-width="0.2" width="24" height="24" viewBox="0 0 24 24" stroke="none" xmlns="http://www.w3.org/2000/svg">
<path d="M3.58455 6.04338C4.05823 6.50389 4.80403 6.52392 5.30795 6.10345C5.68085 5.78309 6.00336 5.59288 6.18477 5.67297C6.68869 5.87319 6.18477 6.70412 5.88242 7.19466C5.63046 7.61513 3 11.089 3 13.5117C3 14.7931 3.48376 15.8543 4.3505 16.495C5.10638 17.0556 6.10414 17.2258 7.0112 16.9555C8.08959 16.6452 8.97648 15.5539 10.0952 14.1824C11.3147 12.6908 12.9474 10.7386 14.2072 10.7386C15.8499 10.7386 15.8701 11.7497 15.981 12.5306C12.1713 13.1713 10.5588 16.2047 10.5588 17.9066C10.5588 19.6085 12.0101 21 13.794 21C15.4367 21 18.1176 19.6685 18.5207 14.8932H19.7402C20.4356 14.8932 21 14.3326 21 13.6418C21 12.9511 20.4356 12.3904 19.7402 12.3904H18.5106C18.3595 10.7386 17.4121 8.18576 14.449 8.18576C12.1814 8.18576 10.2363 10.0979 9.47032 11.0289C8.88578 11.7597 7.39418 13.5117 7.16237 13.7519C6.91041 14.0523 6.47704 14.5929 6.04367 14.5929C5.59015 14.5929 5.31803 13.762 5.68085 12.6707C6.03359 11.5795 7.09183 9.80756 7.54535 9.14683C8.33147 8.00556 8.85554 7.22469 8.85554 5.86318C8.85554 3.69077 7.20269 3 6.32587 3C5.22732 3 4.26988 3.6307 3.6047 4.22136C3.07055 4.70189 3.07055 5.54283 3.58455 6.04338ZM13.8242 18.5673C13.5118 18.5673 13.0784 18.307 13.0784 17.8465C13.0784 17.2458 13.8141 15.644 15.9709 15.0834C15.6685 17.7764 14.5297 18.5673 13.8242 18.5673Z" />
</svg>
