<svg class="fill-current stroke-current w-full h-full" style="color: inherit" stroke-width="0.2" width="24" height="24" viewBox="0 0 24 24" stroke="none" xmlns="http://www.w3.org/2000/svg">
<path d="M21 6.5H19.05C19.21 6.11 19.3 5.69 19.3 5.25C19.3 4.38 18.96 3.57 18.35 2.95C17.74 2.34 16.92 2 16.05 2C14.01 2 12.75 3.37 12 4.72C11.25 3.37 9.99 2 7.95 2C7.08 2 6.26 2.34 5.65 2.95C5.04 3.56 4.7 4.38 4.7 5.25C4.7 5.69 4.79 6.11 4.95 6.5H3C2.45 6.5 2 6.95 2 7.5V12C2 12.55 2.45 13 3 13H3.8V21C3.8 21.55 4.25 22 4.8 22H19.2C19.75 22 20.2 21.55 20.2 21V13H21C21.55 13 22 12.55 22 12V7.5C22 6.95 21.55 6.5 21 6.5ZM20 11H13V8.5H20V11ZM16.05 4C16.38 4 16.7 4.13 16.93 4.37C17.16 4.6 17.3 4.93 17.3 5.25C17.3 5.57 17.17 5.9 16.93 6.13C16.69 6.37 16.38 6.5 16.05 6.5H13.36C13.8 5.42 14.64 4 16.05 4ZM7.07 6.13C6.83 5.89 6.7 5.58 6.7 5.25C6.7 4.92 6.83 4.6 7.07 4.37C7.31 4.14 7.62 4 7.95 4C9.37 4 10.21 5.42 10.64 6.5H7.95C7.62 6.5 7.3 6.37 7.07 6.13ZM4 8.5H11V11H4V8.5ZM5.8 13H11V20H5.8V13ZM18.2 20H13V13H18.2V20Z" />
</svg>
