<svg class="fill-current stroke-current w-full h-full" style="color: inherit" stroke-width="0.2" width="24" height="24" viewBox="0 0 24 24" stroke="none" xmlns="http://www.w3.org/2000/svg">
<path d="M21 6.67C21 4.65 19.3609 3 17.332 3C15.3032 3 13.6641 4.65 13.6641 6.67C13.6641 8.32 14.7735 9.71 16.2726 10.16C16.0927 11.72 15.4031 13.16 14.2737 14.28C13.1444 15.4 11.7052 16.09 10.156 16.28C9.79622 15.09 8.85675 14.17 7.66741 13.82V4C7.66741 3.45 7.21766 3 6.66796 3C6.11827 3 5.66852 3.45 5.66852 4V13.82C4.13937 14.26 3 15.66 3 17.33C3 19.35 4.64908 21 6.66796 21C8.35702 21 9.76624 19.85 10.186 18.29C12.2649 18.09 14.1938 17.19 15.6929 15.7C17.1921 14.2 18.0916 12.27 18.2815 10.19C19.8406 9.77 20.99 8.35 20.99 6.67H21ZM6.67796 19C5.75847 19 5.00888 18.25 5.00888 17.33C5.00888 16.41 5.75847 15.66 6.67796 15.66C7.59745 15.66 8.34703 16.41 8.34703 17.32C8.34703 18.24 7.59745 18.99 6.67796 18.99V19ZM17.332 8.33C16.4125 8.33 15.663 7.58 15.663 6.66C15.663 5.74 16.4125 4.99 17.332 4.99C18.2515 4.99 19.0011 5.74 19.0011 6.66C19.0011 7.58 18.2515 8.33 17.332 8.33Z" />
</svg>
