<svg class="fill-current stroke-current w-full h-full" style="color: inherit" stroke-width="0.2" width="24" height="24" viewBox="0 0 24 24" stroke="none" xmlns="http://www.w3.org/2000/svg">
<path d="M22 10.4983H16.57C16.57 10.4983 16.54 10.4983 16.53 10.4983C16.06 8.50498 14.21 7 12 7C9.79 7 7.94 8.50498 7.47 10.5083C7.46 10.5083 7.45 10.5083 7.43 10.5083H2C1.45 10.5083 1 10.9568 1 11.505C1 12.0532 1.45 12.5017 2 12.5017H7.43C7.43 12.5017 7.45 12.5017 7.47 12.5017C7.94 14.495 9.79 16 12 16C14.21 16 16.06 14.505 16.53 12.5017C16.55 12.5017 16.56 12.5017 16.57 12.5017H22C22.55 12.5017 23 12.0532 23 11.505C23 10.9568 22.55 10.5083 22 10.5083V10.4983ZM12 13.9867C10.54 13.9867 9.35 12.8704 9.35 11.495C9.35 10.1196 10.54 9.00332 12 9.00332C13.46 9.00332 14.65 10.1196 14.65 11.495C14.65 12.8704 13.46 13.9867 12 13.9867Z" />
</svg>
