<svg class="fill-current stroke-current w-full h-full" style="color: inherit" stroke-width="0.2" width="24" height="24" viewBox="0 0 24 24" stroke="none" xmlns="http://www.w3.org/2000/svg">
<path d="M15.9227 22C15.3729 22 14.9231 21.5503 14.9231 21.0008V17.5034C14.9531 17.1337 14.9132 16.8439 14.8132 16.5741C14.7132 16.3044 14.5533 16.0545 14.3434 15.8447C14.0735 15.5749 13.9836 15.1652 14.1135 14.8055C14.2435 14.4458 14.5633 14.186 14.9431 14.146C17.562 13.8562 19.9909 13.0169 19.9909 8.82008C19.9909 7.82084 19.6011 6.86157 18.8914 6.13213C18.6215 5.85235 18.5315 5.44266 18.6715 5.08293C18.9214 4.43343 18.9713 3.73397 18.8114 3.06448C18.3716 3.17439 17.602 3.45418 16.4625 4.20361C16.2226 4.36348 15.9327 4.40345 15.6528 4.33351C13.7037 3.8139 11.6546 3.8139 9.70547 4.33351C9.43559 4.40345 9.13573 4.36348 8.90583 4.20361C7.77633 3.46417 7.00667 3.17439 6.55687 3.07447C6.40694 3.74396 6.45692 4.43343 6.70681 5.08293C6.84674 5.44266 6.75678 5.85235 6.4869 6.13213C5.76722 6.87157 5.3774 7.83083 5.38739 8.84006C5.38739 12.7571 7.40649 13.8063 10.4451 14.176C10.825 14.2259 11.1448 14.4758 11.2648 14.8455C11.3947 15.2052 11.2948 15.6049 11.0349 15.8747C10.835 16.0745 10.675 16.3243 10.5751 16.5941C10.4751 16.8639 10.4351 17.1437 10.4551 17.4235V18.2129C10.4551 18.2129 10.4551 18.3028 10.4551 18.3428V20.9808C10.4551 21.5304 10.0053 21.98 9.45558 21.98C8.90583 21.98 8.45603 21.5304 8.45603 20.9808V19.5119C5.69726 19.8916 4.51778 18.4227 3.70814 17.4135C3.3583 16.9838 3.05843 16.6041 2.75856 16.5342C2.2188 16.4043 1.89895 15.8647 2.02889 15.3251C2.15883 14.7855 2.69859 14.4558 3.23835 14.5957C4.18793 14.8255 4.75767 15.5349 5.26745 16.1645C6.01711 17.0937 6.62684 17.8432 8.46602 17.4934C8.42604 16.9938 8.50601 16.4343 8.70592 15.8947C6.10707 15.2951 3.38828 13.6963 3.38828 8.84006C3.38828 7.51108 3.82809 6.23205 4.64772 5.19285C4.33786 4.00376 4.43782 2.76471 4.93759 1.62558C5.05754 1.35578 5.28744 1.14594 5.57731 1.06601C5.91716 0.966081 7.18659 0.776227 9.6355 2.28507C11.6446 1.82542 13.7337 1.82542 15.7428 2.28507C18.2017 0.796211 19.4711 0.986066 19.811 1.08599C20.0908 1.16593 20.3307 1.37577 20.4507 1.64556C20.9505 2.78469 21.0504 4.03374 20.7406 5.21283C21.5602 6.24205 22 7.51108 22 8.83007C22 13.9462 18.8714 15.425 16.6924 15.9047C16.8923 16.4442 16.9622 17.0238 16.9223 17.5834V21.0008C16.9223 21.5503 16.4825 22 15.9227 22V22Z" />
</svg>
