<svg class="fill-current stroke-current w-full h-full" style="color: inherit" stroke-width="0.2" width="24" height="24" viewBox="0 0 24 24" stroke="none" xmlns="http://www.w3.org/2000/svg">
<path d="M11.9816 21C11.7715 21 11.5615 20.93 11.3814 20.7999L2.67898 14.2965C2.3889 14.0764 2.17884 13.7762 2.07882 13.436C1.96879 13.0958 1.97879 12.7357 2.07882 12.3955L5.06965 2.91048C5.15968 2.66035 5.27971 2.48025 5.43975 2.34018C5.91989 1.88994 6.77013 1.87994 7.28027 2.35018C7.46032 2.53028 7.58035 2.73038 7.64037 2.9505L9.41086 8.52343H14.5723L16.3328 2.91048C16.4228 2.66035 16.5429 2.48025 16.7029 2.34018C17.183 1.88994 18.0333 1.87994 18.5434 2.35018C18.7235 2.53028 18.8435 2.73038 18.9035 2.9505L21.9244 12.3855C22.0344 12.7757 22.0244 13.1459 21.8943 13.486C21.7743 13.8162 21.5543 14.0964 21.2642 14.3065L12.5717 20.7999C12.3917 20.93 12.1816 21 11.9716 21H11.9816ZM4.04937 12.8157L11.9916 18.7488L19.9638 12.7957L18.9935 9.85413L17.6232 5.50184L16.2628 9.82412C16.1327 10.2443 15.7426 10.5245 15.3125 10.5245H8.67066C8.23053 10.5245 7.85043 10.2443 7.72039 9.82412L6.35001 5.50184L4.04937 12.8157V12.8157ZM5.72984 3.53081V3.55082V3.53081ZM16.983 3.53081V3.55082V3.53081Z" />
</svg>
