<svg class="fill-current stroke-current w-full h-full" style="color: inherit" stroke-width="0.2" width="24" height="24" viewBox="0 0 24 24" stroke="none" xmlns="http://www.w3.org/2000/svg">
<path d="M18.3215 13.814V8.43698C18.3215 7.69739 18.0316 6.99778 17.5119 6.47807C16.9822 5.95836 16.2926 5.66852 15.553 5.66852H12.8845C12.3348 5.66852 11.8851 6.11827 11.8851 6.66796C11.8851 7.21766 12.3348 7.66741 12.8845 7.66741H15.553C15.7529 7.66741 15.9528 7.74736 16.1027 7.89728C16.2526 8.0472 16.3326 8.24708 16.3326 8.44697V13.824C14.8034 14.2637 13.6641 15.663 13.6641 17.332C13.6641 19.3509 15.3032 21 17.332 21C19.3609 21 21 19.3609 21 17.332C21 15.663 19.8706 14.2637 18.3315 13.824L18.3215 13.814ZM17.322 18.9911C16.4026 18.9911 15.653 18.2415 15.653 17.322C15.653 16.4026 16.4026 15.653 17.322 15.653C18.2415 15.653 18.9911 16.4026 18.9911 17.322C18.9911 18.2415 18.2415 18.9911 17.322 18.9911ZM6.66796 3C4.64908 3 3 4.64908 3 6.66796C3 8.33703 4.12937 9.73626 5.66852 10.176V19.9906C5.66852 20.5403 6.11827 20.99 6.66796 20.99C7.21766 20.99 7.66741 20.5403 7.66741 19.9906V10.176C9.19656 9.73626 10.3359 8.33703 10.3359 6.66796C10.3259 4.64908 8.68684 3 6.66796 3ZM6.66796 8.32704C5.74847 8.32704 4.99889 7.57746 4.99889 6.65797C4.99889 5.73848 5.74847 4.9889 6.66796 4.9889C7.58745 4.9889 8.33703 5.73848 8.33703 6.65797C8.33703 7.57746 7.58745 8.32704 6.66796 8.32704Z" />
</svg>
