<svg class="fill-current stroke-current w-full h-full" style="color: inherit" stroke-width="0.2" width="24" height="24" viewBox="0 0 24 24" stroke="none" xmlns="http://www.w3.org/2000/svg">
<path d="M19.5 21.0204C20.33 21.0204 21 20.3641 21 19.551C21 18.738 20.33 18.0817 19.5 18.0817C18.67 18.0817 18 18.738 18 19.551C18 20.3641 18.67 21.0204 19.5 21.0204ZM11 18.1111V9.24585L15.22 7.13975C15.95 6.77731 15.95 5.73895 15.21 5.3863L10.45 3.10388C9.78 2.78062 9 3.25082 9 3.97571V19.0613C9 19.6 8.55 20.0408 8 20.0408C7.45 20.0408 7 19.6 7 19.0613V18.3462C5.21 18.689 4 19.3159 4 20.0408C4 21.1184 6.69 22 10 22C13.31 22 16 21.1184 16 20.0408C16 19.0711 13.84 18.2678 11 18.1111Z" />
</svg>
