<svg class="fill-current stroke-current w-full h-full" style="color: inherit" stroke-width="0.2" width="24" height="24" viewBox="0 0 24 24" stroke="none" xmlns="http://www.w3.org/2000/svg">
<path d="M15.64 11.0866C16.19 9.62752 17.07 8.32723 18.2 7.28502C18.58 6.92769 18.24 6.29244 17.74 6.44133C14.42 7.41406 11.99 10.4613 12 14.0743C12.95 12.8038 14.2 11.7814 15.64 11.0866ZM11.42 8.93271C10.82 7.38428 9.79 6.0443 8.46 5.09142C8.04 4.79364 7.5 5.28001 7.74 5.7366C8.54 7.24532 9 8.96249 9 10.7789C9 10.9874 8.97 11.1859 8.96 11.3844C9.39 11.6226 9.79 11.9005 10.18 12.1983C10.39 11.0271 10.83 9.92529 11.42 8.93271ZM12 20H3C2.45 20 2 19.5533 2 19.0074C2 18.4615 2.45 18.0148 3 18.0148H7.75C7.18 15.8411 5.71 14.0247 3.75 12.9924C3.59 12.913 3.49 12.7442 3.49 12.5556C3.49 12.2876 3.71 12.0693 3.98 12.0593C3.99 12.0593 4 12.0593 4 12.0593C8.42 12.0593 12 15.6128 12 20ZM20.26 12.9924C18.3 14.0247 16.82 15.8411 16.26 18.0148H21C21.55 18.0148 22 18.4615 22 19.0074C22 19.5533 21.55 20 21 20H16H14C14 19.325 13.93 18.66 13.8 18.0148C13.65 17.3002 13.42 16.6054 13.13 15.9602C14.52 13.6276 17.07 12.0593 20 12.0593C20.01 12.0593 20.02 12.0593 20.02 12.0593C20.29 12.0593 20.51 12.2876 20.51 12.5556C20.52 12.7442 20.41 12.903 20.26 12.9924Z" />
</svg>
