<svg class="fill-current stroke-current w-full h-full" style="color: inherit" stroke-width="0.2" width="24" height="24" viewBox="0 0 24 24" stroke="none" xmlns="http://www.w3.org/2000/svg">
<path d="M9 11H5C3.9 11 3 10.1 3 9V5C3 3.9 3.9 3 5 3H9C10.1 3 11 3.9 11 5V9C11 10.1 10.1 11 9 11ZM5 5V9H9V5H5ZM9 21H5C3.9 21 3 20.1 3 19V15C3 13.9 3.9 13 5 13H9C10.1 13 11 13.9 11 15V19C11 20.1 10.1 21 9 21ZM5 15V19H9V15H5ZM19 11H15C13.9 11 13 10.1 13 9V5C13 3.9 13.9 3 15 3H19C20.1 3 21 3.9 21 5V9C21 10.1 20.1 11 19 11ZM15 9H19V5H15V9ZM19 21H15C13.9 21 13 20.1 13 19V15C13 13.9 13.9 13 15 13H19C20.1 13 21 13.9 21 15V19C21 20.1 20.1 21 19 21ZM15 15V19H19V15H15Z" />
</svg>
