<svg class="fill-current stroke-current w-full h-full" style="color: inherit" stroke-width="0.2" width="24" height="24" viewBox="0 0 24 24" stroke="none" xmlns="http://www.w3.org/2000/svg">
<path d="M12.224 19.8589C12.044 20.039 11.724 20.069 11.514 19.8589C11.334 19.6788 11.304 19.3587 11.514 19.1486L14.904 15.7569L13.494 14.3462L10.104 17.7379C9.914 17.938 9.594 17.928 9.394 17.7379C9.184 17.5278 9.214 17.2076 9.394 17.0275L12.784 13.6358L11.374 12.2251L7.984 15.6168C7.804 15.7969 7.484 15.8269 7.274 15.6168C7.084 15.4267 7.084 15.1066 7.274 14.9065L10.664 11.5148L9.244 10.1041L5.854 13.4957C5.674 13.6758 5.354 13.7059 5.144 13.4957C4.954 13.2956 4.954 12.9855 5.144 12.7854L9.524 8.4032L11.394 10.2641C12.344 11.2146 13.984 11.2046 14.934 10.2641C15.914 9.28364 15.914 7.70285 14.934 6.72236L13.074 4.86143L13.354 4.58129C14.134 3.8009 15.404 3.8009 16.184 4.58129L20.424 8.82341C21.204 9.6038 21.204 10.8744 20.424 11.6548L12.224 19.8589ZM21.834 13.0755C23.394 11.5148 23.394 8.98349 21.834 7.41271L17.594 3.17059C16.034 1.6098 13.504 1.6098 11.934 3.17059L11.654 3.45073L11.374 3.17059C9.814 1.6098 7.284 1.6098 5.714 3.17059L2.174 6.71236C0.753998 8.13307 0.623998 10.3442 1.774 11.905L3.224 10.4542C2.834 9.70385 2.964 8.75338 3.594 8.12306L7.134 4.58129C7.914 3.8009 9.184 3.8009 9.964 4.58129L13.524 8.14307C13.704 8.32316 13.734 8.64332 13.524 8.85343C13.314 9.06353 12.994 9.03352 12.814 8.85343L9.524 5.57179L3.724 11.3647C2.744 12.3352 2.744 13.926 3.724 14.9065C4.114 15.2966 4.614 15.5368 5.144 15.6068C5.214 16.1271 5.444 16.6273 5.844 17.0275C6.244 17.4277 6.744 17.6578 7.264 17.7279C7.334 18.2481 7.564 18.7484 7.964 19.1486C8.364 19.5488 8.864 19.7789 9.384 19.8489C9.454 20.3892 9.694 20.8794 10.084 21.2696C10.554 21.7399 11.184 22 11.854 22C12.524 22 13.154 21.7399 13.624 21.2696L21.834 13.0755Z" />
</svg>
