<svg class="fill-current stroke-current w-full h-full" style="color: inherit" stroke-width="0.2" width="24" height="24" viewBox="0 0 24 24" stroke="none" xmlns="http://www.w3.org/2000/svg">
<path d="M18.3971 4.8C16.7152 3.02 14.3927 2 12.01 2C9.62736 2 7.29477 3.02 5.62291 4.8C3.93103 6.59 3 8.97 3 11.5V18.11C3 18.87 3.28031 19.59 3.79088 20.13C4.31146 20.68 5.03226 21 5.78309 21H6.67408C7.41491 21 8.14572 20.68 8.65628 20.13C9.16685 19.59 9.44716 18.87 9.44716 18.11V15.28C9.44716 14.52 9.16685 13.8 8.65628 13.26C8.13571 12.71 7.41491 12.39 6.66407 12.39H4.99221V11.5C4.99221 9.51 5.74305 7.57 7.06452 6.17C8.38598 4.77 10.1379 4 12 4C13.8621 4 15.614 4.77 16.9355 6.17C18.257 7.57 19.0078 9.51 19.0078 11.5V12.39H17.3359C16.5951 12.39 15.8743 12.71 15.3537 13.26C14.8432 13.8 14.5628 14.52 14.5628 15.28V18.11C14.5628 18.87 14.8432 19.59 15.3537 20.13C15.8743 20.68 16.5951 21 17.3359 21H18.2269C18.9677 21 19.6885 20.68 20.2091 20.13C20.7197 19.59 21 18.87 21 18.11V11.5C21 8.97 20.069 6.6 18.3771 4.8H18.3971ZM6.67408 14.39C6.8743 14.39 7.0545 14.47 7.20467 14.63C7.36485 14.8 7.45495 15.03 7.45495 15.28V18.11C7.45495 18.36 7.36485 18.59 7.20467 18.76C7.06452 18.91 6.8743 19 6.67408 19H5.78309C5.58287 19 5.40267 18.92 5.2525 18.76C5.09232 18.59 5.00222 18.36 5.00222 18.11V14.39H6.67408ZM19.0178 18.11C19.0178 18.36 18.9277 18.59 18.7675 18.76C18.6174 18.91 18.4372 19 18.2369 19H17.3459C17.1457 19 16.9655 18.92 16.8153 18.76C16.6552 18.59 16.5651 18.36 16.5651 18.11V15.28C16.5651 15.03 16.6552 14.8 16.8153 14.63C16.9655 14.48 17.1457 14.39 17.3459 14.39H19.0178V18.11Z" />
</svg>
