<svg class="fill-current stroke-current w-full h-full" style="color: inherit" stroke-width="0.2" width="24" height="24" viewBox="0 0 24 24" stroke="none" xmlns="http://www.w3.org/2000/svg">
<path d="M18.0005 3.5809C17.6837 3.20067 17.7134 2.64496 18.0698 2.29398L18.0797 2.28423C18.4955 1.87475 19.1885 1.91375 19.5548 2.36222C21.0793 4.20486 22 6.56422 22 9.13807C22 11.6437 21.1189 13.9543 19.6637 15.7774L18.248 14.3833C19.3568 12.9208 20.0201 11.1075 20.0201 9.13807C20.0201 7.02245 19.2578 5.08231 18.0005 3.5809ZM8.6255 4.90682C9.35808 4.49735 10.1996 4.26336 11.1103 4.26336C13.8822 4.26336 16.0602 6.40823 16.0602 9.13807C16.0602 9.91803 15.8325 10.7857 15.4365 11.6144L16.9017 13.0573C16.9215 13.0183 16.9512 12.9793 16.9809 12.9306C17.6639 11.7217 18.0401 10.3665 18.0401 9.13807C18.0401 5.30655 15.0009 2.31348 11.1103 2.31348C9.63527 2.31348 8.28892 2.74245 7.18015 3.48341L8.6255 4.90682ZM11.1103 6.70072C10.9024 6.70072 10.7143 6.72996 10.5262 6.77871L13.5061 9.71329C13.5556 9.52805 13.5853 9.34281 13.5853 9.13807C13.5853 7.79265 12.4765 6.70072 11.1103 6.70072ZM21.4951 20.3402L4.68542 3.78564C4.29934 3.40541 3.67565 3.40541 3.28957 3.78564C2.90348 4.16587 2.90348 4.78008 3.28957 5.16031L4.69532 6.54473C4.49733 7.02245 4.34883 7.51967 4.26964 8.04614C4.17064 8.62135 4.64583 9.13807 5.22991 9.13807H5.26951C5.74469 9.13807 6.15058 8.79684 6.21988 8.33862C6.23968 8.26062 6.25948 8.18263 6.27928 8.11438L12.8329 14.5685C11.9617 15.2315 11.0707 15.9432 10.5856 17.3958C10.0907 18.8582 9.59568 19.3555 8.8928 19.7162C8.6948 19.8039 8.42751 19.8624 8.14042 19.8624C7.26925 19.8624 6.52677 19.297 6.25948 18.5268C6.13078 18.1465 5.73479 17.9126 5.31901 17.9126C4.66562 17.9126 4.18054 18.5365 4.37853 19.141C4.90322 20.6911 6.38817 21.8123 8.14042 21.8123C8.7047 21.8123 9.25909 21.6953 9.76397 21.4711C11.1103 20.7789 11.8726 19.7844 12.4666 18.01C12.7834 17.0546 13.3576 16.6159 14.1594 16.0114C14.1891 15.9919 14.2089 15.9724 14.2386 15.9529L20.0894 21.7148C20.4754 22.0951 21.0991 22.0951 21.4852 21.7148C21.8812 21.3346 21.8812 20.7204 21.4951 20.3402Z" />
</svg>
