<svg class="fill-current stroke-current w-full h-full" style="color: inherit" stroke-width="0.2" width="24" height="24" viewBox="0 0 24 24" stroke="none" xmlns="http://www.w3.org/2000/svg">
<path d="M17.042 20.0325C16.7512 20.0325 16.4804 19.9734 16.2798 19.8849C15.5676 19.5209 15.0661 19.0192 14.5646 17.5435C14.0531 16.0089 13.0902 15.2907 12.1674 14.5922C11.3751 13.9921 10.5526 13.3724 9.84048 12.1033C9.30889 11.1589 9.01802 10.1259 9.01802 9.21103C9.01802 6.45649 11.2246 4.2922 14.033 4.2922C16.6007 4.2922 18.6769 6.11217 18.9979 8.53223C19.0581 8.92574 19.4091 9.21103 19.8204 9.21103H20.1614C20.6629 9.21103 21.0541 8.77818 20.9939 8.28629C20.5425 4.87262 17.6539 2.32467 14.033 2.32467C10.0912 2.32467 7.01201 5.34483 7.01201 9.21103C7.01201 10.4506 7.39315 11.818 8.08523 13.0477C8.99796 14.6709 10.0712 15.4875 10.9438 16.1466C11.7562 16.7565 12.338 17.1992 12.6589 18.1633C13.2607 19.9538 14.033 20.9572 15.3971 21.6557C15.9086 21.8819 16.4703 22 17.042 22C18.8876 22 20.4422 20.7801 20.9136 19.1176C21.0541 18.5863 20.6629 18.0649 20.1012 18.0649H19.7502C19.369 18.0649 19.0681 18.3305 18.9377 18.6847C18.6769 19.4619 17.9247 20.0325 17.042 20.0325ZM6.98192 2.29515C6.55063 1.87213 5.85856 1.91148 5.47742 2.36402C3.93279 4.23317 3 6.61389 3 9.21103C3 11.8082 3.93279 14.1889 5.47742 16.0482C5.85856 16.5007 6.55063 16.5401 6.97189 16.1269C7.33297 15.7728 7.36306 15.212 7.0421 14.8283C5.77832 13.3035 5.00601 11.3458 5.00601 9.21103C5.00601 7.07626 5.77832 5.11856 7.05213 3.60356C7.38312 3.21006 7.343 2.64931 6.98192 2.29515ZM11.5255 9.21103C11.5255 10.5686 12.6489 11.6704 14.033 11.6704C15.4172 11.6704 16.5405 10.5686 16.5405 9.21103C16.5405 7.85344 15.4172 6.75162 14.033 6.75162C12.6489 6.75162 11.5255 7.85344 11.5255 9.21103Z" />
</svg>
