<svg class="fill-current stroke-current w-full h-full" style="color: inherit" stroke-width="0.2" width="24" height="24" viewBox="0 0 24 24" stroke="none" xmlns="http://www.w3.org/2000/svg">
<path fill-rule="evenodd" clip-rule="evenodd" d="M21.7323 13C22.0892 12.38 22.0892 11.62 21.7323 11L17.7263 4C17.3793 3.38 16.7248 3 16.0208 3H7.98909C7.28508 3 6.63064 3.38 6.27367 4L2.26772 11C1.91076 11.62 1.91076 12.38 2.26772 13L6.27367 20C6.63064 20.62 7.28508 21 7.98909 21H16.0109C16.7149 21 17.3694 20.62 17.7263 20L21.7323 13ZM16.0109 19L20.0169 12L16.0109 5H7.98909L3.98314 12L7.98909 19H16.0109Z" />
</svg>
