<svg class="fill-current stroke-current w-full h-full" style="color: inherit" stroke-width="0.2" width="24" height="24" viewBox="0 0 24 24" stroke="none" xmlns="http://www.w3.org/2000/svg">
<path d="M20.2592 23H4.74084C3.77592 23 3 22.2108 3 21.2293C3 20.2478 3.77592 19.4585 4.74084 19.4585H20.2592C21.2241 19.4585 22 20.2478 22 21.2293C22 22.2108 21.2241 23 20.2592 23ZM7.36702 16.3724L10.212 15.654C10.3911 15.6135 10.5503 15.5225 10.6696 15.3909L19.5628 6.34502C19.8016 6.1123 19.9806 5.82898 20.1099 5.51531C20.2393 5.20164 20.299 4.87785 20.299 4.54394C20.299 4.21003 20.2393 3.87612 20.1099 3.57256C19.9806 3.25889 19.8016 2.98569 19.5628 2.74285C19.334 2.51013 19.0555 2.31788 18.7471 2.18634C17.822 1.80183 16.7277 2.02444 16.0215 2.74285L7.13822 11.7888C7.0089 11.9203 6.91937 12.0822 6.87958 12.2542L6.1733 15.1481C6.09372 15.4921 6.18325 15.8564 6.43194 16.1093C6.62094 16.3016 6.86963 16.4028 7.13822 16.4028C7.2178 16.4028 7.29738 16.4028 7.37696 16.3724H7.36702ZM17.4241 4.17967C17.5733 4.02789 17.7921 3.98742 17.9812 4.06837C18.0408 4.09872 18.1005 4.12908 18.1503 4.17967C18.2 4.23026 18.2398 4.29097 18.2597 4.35169C18.2895 4.4124 18.2995 4.48323 18.2995 4.55405C18.2995 4.62488 18.2895 4.69571 18.2597 4.75642C18.2298 4.81713 18.2 4.87785 18.1503 4.92844L9.46597 13.7517L8.50105 13.9946L8.73979 13.0131L17.4241 4.17967Z" />
</svg>
