<svg class="fill-current stroke-current w-full h-full" style="color: inherit" stroke-width="0.2" width="24" height="24" viewBox="0 0 24 24" stroke="none" xmlns="http://www.w3.org/2000/svg">
<path d="M15.1156 19.407L16.1206 21.1558C15.1558 21.598 14.1005 21.8894 13.005 22V19.9698C13.7487 19.8794 14.4523 19.6884 15.1156 19.407ZM4.03015 13.005H2C2.11055 14.1106 2.40201 15.1558 2.84422 16.1206L4.59296 15.1156C4.31156 14.4523 4.1206 13.7487 4.03015 13.005ZM15.1156 4.59296L16.1206 2.84422C15.1558 2.40201 14.1106 2.11055 13.005 2V4.03015C13.7487 4.1206 14.4523 4.31156 15.1156 4.59296ZM19.9698 10.995H22C21.8894 9.88945 21.598 8.84422 21.1558 7.8794L19.407 8.88442C19.6884 9.54774 19.8794 10.2513 19.9698 10.995ZM8.88442 19.407L7.8794 21.1558C8.84422 21.598 9.8995 21.8894 10.995 22V19.9698C10.2513 19.8794 9.54774 19.6884 8.88442 19.407ZM10.995 4.03015V2C9.88945 2.11055 8.84422 2.40201 7.8794 2.84422L8.88442 4.59296C9.54774 4.31156 10.2513 4.1206 10.995 4.03015ZM18.392 7.14573L20.1407 6.13065C19.5075 5.25628 18.7337 4.48241 17.8593 3.84925L16.8442 5.59799C17.4372 6.05025 17.9497 6.56281 18.392 7.14573ZM4.59296 8.88442L2.84422 7.8794C2.40201 8.84422 2.11055 9.88945 2 10.995H4.03015C4.1206 10.2513 4.31156 9.54774 4.59296 8.88442ZM19.9698 13.005C19.8794 13.7487 19.6884 14.4523 19.407 15.1156L21.1558 16.1206C21.598 15.1558 21.8894 14.1005 22 13.005H19.9698ZM16.8543 18.392L17.8693 20.1407C18.7437 19.5075 19.5176 18.7337 20.1508 17.8593L18.402 16.8442C17.9497 17.4372 17.4372 17.9497 16.8543 18.392ZM7.14573 5.60804L6.1407 3.84925C5.25628 4.49246 4.49246 5.25628 3.8593 6.1407L5.60804 7.15578C6.05025 6.56281 6.56281 6.05025 7.14573 5.60804ZM5.60804 16.8543L3.8593 17.8593C4.49246 18.7337 5.26633 19.5075 6.1407 20.1407L7.15578 18.392C6.56281 17.9497 6.05025 17.4372 5.60804 16.8543ZM12 6.97487C11.4472 6.97487 10.995 7.42713 10.995 7.9799V11.5879C10.995 12.1206 11.206 12.6332 11.5879 13.005L14.603 16.0201C14.995 16.4121 15.6281 16.4121 16.0201 16.0201C16.4121 15.6281 16.4121 14.995 16.0201 14.603L13.005 11.5879V7.9799C13.005 7.42713 12.5528 6.97487 12 6.97487Z" />
</svg>
