<svg class="fill-current stroke-current w-full h-full" style="color: inherit" stroke-width="0.2" width="24" height="24" viewBox="0 0 24 24" stroke="none" xmlns="http://www.w3.org/2000/svg">
<path d="M10.0533 5V5.38C9.22701 5.05 8.34097 4.88 7.45492 4.88C6.04123 4.88 4.62754 5.31 3.42292 6.17C2.91518 6.53 2.85545 7.26 3.2935 7.7L5.85208 10.27H6.95714V11.38C7.81332 12.24 8.92835 12.69 10.0533 12.74V15H8.06221C7.51466 15 7.06666 15.45 7.06666 16V18C7.06666 19.1 7.96266 20 9.05777 20H19.0133C20.666 20 22 18.66 22 17V5C22 4.45 21.552 4 21.0044 4H11.0489C10.5013 4 10.0533 4.45 10.0533 5ZM8.94826 10.41V8.26H6.67839L5.64301 7.22C6.21048 7 6.82772 6.88 7.45492 6.88C8.78897 6.88 10.0334 7.4 10.9792 8.34L12.3829 9.75L12.1838 9.95C11.6761 10.46 10.9991 10.75 10.2723 10.75C9.80444 10.75 9.34648 10.63 8.94826 10.41ZM20.0089 17C20.0089 17.55 19.5609 18 19.0133 18C18.4658 18 18.0178 17.55 18.0178 17V16C18.0178 15.45 17.5698 15 17.0222 15H12.0444V12.41C12.6119 12.18 13.1395 11.84 13.5975 11.38L13.7966 11.18L16.614 14H18.0178V12.59L12.0444 6.62V6H20.0089V17Z" />
</svg>
