<svg class="fill-current stroke-current w-full h-full" style="color: inherit" stroke-width="0.2" width="24" height="24" viewBox="0 0 24 24" stroke="none" xmlns="http://www.w3.org/2000/svg">
<path fill-rule="evenodd" clip-rule="evenodd" d="M11.34 2.22517C11.73 1.92494 12.27 1.92494 12.66 2.22517L20.6 8.48987C20.85 8.69002 21 8.99024 21 9.31048V19.1579C21 19.9084 20.71 20.629 20.18 21.1594C19.65 21.6998 18.93 22 18.18 22H5.82C5.06 22 4.34 21.6998 3.82 21.1594C3.29 20.629 3 19.8984 3 19.1579V9.32049C3 9.00025 3.15 8.70002 3.4 8.49987L11.34 2.22517ZM11.22 19.9084H12.77V12.4628H11.22V19.9084ZM14.89 19.9084V11.4021C14.89 10.8216 14.42 10.3513 13.83 10.3513H10.16C9.58 10.3513 9.1 10.8216 9.1 11.4021V19.8984H5.82C5.64 19.8984 5.46 19.8284 5.33 19.6883C5.2 19.5482 5.12 19.358 5.12 19.1579V9.82087L12 4.3968L18.88 9.83087V19.1679C18.88 19.368 18.8 19.5582 18.67 19.6983C18.54 19.8384 18.36 19.9084 18.18 19.9084H14.89Z" />
</svg>
