<svg class="fill-current stroke-current w-full h-full" style="color: inherit" stroke-width="0.2" width="24" height="24" viewBox="0 0 24 24" stroke="none" xmlns="http://www.w3.org/2000/svg">
<path d="M3.67791 1.81378C3.29523 1.42196 2.67705 1.42196 2.29437 1.81378C1.90188 2.2056 1.90188 2.83854 2.29437 3.23036L10.3209 11.4586L7.37716 14.4826C7.01411 14.8644 6.80805 15.3767 6.80805 15.9092V19.084C6.80805 20.1891 7.69116 21.0933 8.77051 21.0933H16.6204C17.4642 21.0933 18.1707 20.5508 18.4553 19.7872L20.3294 21.7061C20.7121 22.098 21.3303 22.098 21.713 21.7061C22.0957 21.3143 22.0957 20.6814 21.713 20.2896L3.67791 1.81378ZM16.6204 18.0793C16.6204 18.6319 16.1788 19.084 15.6392 19.084H9.75175C9.21207 19.084 8.77051 18.6319 8.77051 18.0793V15.5676L11.5572 12.7144L16.6204 17.9085V18.0793ZM8.77051 4.01399C8.77051 3.46143 9.21207 3.00933 9.75175 3.00933H15.6392C16.1788 3.00933 16.6204 3.46143 16.6204 4.01399V6.52565L13.8337 9.3789L15.0602 10.6347L18.0039 7.63079C18.3768 7.24901 18.5829 6.73663 18.5829 6.20416V3.00933C18.5829 1.89415 17.6997 1 16.6204 1H8.77051C7.92665 1 7.22016 1.54252 6.93561 2.30606L8.77051 4.18479V4.01399Z" />
</svg>
