<svg class="fill-current stroke-current w-full h-full" style="color: inherit" stroke-width="0.2" width="24" height="24" viewBox="0 0 24 24" stroke="none" xmlns="http://www.w3.org/2000/svg">
<path fill-rule="evenodd" clip-rule="evenodd" d="M8.08481 12.8445H15.9108V18.9688H16.8891V10.997L11.9978 6.39358L7.10656 10.997V18.9688H8.08481V12.8445ZM3.48703 12.8445C3.03703 12.8445 2.8316 12.2627 3.1642 11.9565L11.3424 4.26028C11.7141 3.91324 12.2815 3.91324 12.6533 4.26028L20.8315 11.9463C21.1738 12.2525 20.9586 12.8343 20.5086 12.8343H18.8456V19.9793C18.8456 20.5407 18.4054 21 17.8673 21H14.9326C14.3945 21 13.9543 20.5407 13.9543 19.9793V14.8757H10.0413V19.9793C10.0413 20.5407 9.60111 21 9.06307 21H6.12831C5.59027 21 5.15006 20.5407 5.15006 19.9793V12.8343H3.48703V12.8445Z" />
</svg>
