<svg class="fill-current stroke-current w-full h-full" style="color: inherit" stroke-width="0.2" width="24" height="24" viewBox="0 0 24 24" stroke="none" xmlns="http://www.w3.org/2000/svg">
<path d="M18.8456 12.8343H20.5086C20.9586 12.8343 21.1738 12.2525 20.8315 11.9463L12.6533 4.26028C12.2815 3.91324 11.7141 3.91324 11.3424 4.26028L3.1642 11.9463C2.8316 12.2525 3.03703 12.8343 3.48703 12.8343H5.15006V19.9793C5.15006 20.5407 5.59027 21 6.12831 21C6.66635 21 7.10656 20.5407 7.10656 19.9793V18.9586H16.8891V19.9793C16.8891 20.5407 17.3293 21 17.8673 21C18.4054 21 18.8456 20.5407 18.8456 19.9793V12.8343ZM7.31199 10.7929H16.6837L16.8891 10.9868V12.8343H7.10656V10.9868L7.31199 10.7929ZM14.5119 8.75143H9.48372L11.9978 6.39358L14.5119 8.75143ZM7.10656 16.9171V14.8757H16.8891V16.9171H7.10656Z" />
</svg>
