<svg class="fill-current stroke-current w-full h-full" style="color: inherit" stroke-width="0.2" width="24" height="24" viewBox="0 0 24 24" stroke="none" xmlns="http://www.w3.org/2000/svg">
<path fill-rule="evenodd" clip-rule="evenodd" d="M18 11.9251L21 15.2903V19.9481C21 21.0766 20.1 22 19 22H5C3.9 22 3 21.0766 3 19.9481V15.28L6 11.9251L7.5 13.6077L5.5 15.8443H18.5L16.5 13.6077L18 11.9251ZM19 17.8962H5V19.9481H19V17.8962ZM18.41 9.12428C18.41 9.12428 18.49 9.03195 18.53 8.99091C19.17 8.20092 19.15 7.03134 18.45 6.27213C18.43 6.25161 18.42 6.24135 18.4 6.22083L14.86 2.59922C14.1 1.81949 12.86 1.79897 12.08 2.54792C12.06 2.56844 12.05 2.5787 12.03 2.59922L7.08 7.67769C7.08 7.67769 7.05 7.70847 7.03 7.72898C6.58 8.22144 6.42 8.86779 6.52 9.48337C6.57 9.79115 6.69 10.0887 6.88 10.3554C6.93 10.4272 6.99 10.4991 7.06 10.5709L10.57 14.2233C10.69 14.3464 10.82 14.449 10.96 14.5413C11.68 14.9927 12.61 14.9312 13.27 14.3669C13.32 14.3259 13.36 14.2848 13.41 14.2438L18.39 9.13454L18.41 9.12428ZM16.44 7.10315L13.46 4.04581L8.52 9.11402L12.05 12.7356L16.99 7.66743L16.44 7.10315Z" />
</svg>
