<svg class="fill-current stroke-current w-full h-full" style="color: inherit" stroke-width="0.2" width="24" height="24" viewBox="0 0 24 24" stroke="none" xmlns="http://www.w3.org/2000/svg">
<path d="M17.6709 13V20H3.95886V6H8.87561C8.92458 5.29 9.09109 4.62 9.34574 4H3.95886C2.88149 4 2 4.9 2 6V20C2 21.1 2.88149 22 3.95886 22H17.6709C18.7483 22 19.6298 21.1 19.6298 20V15L17.6709 13ZM16.2018 18H5.42801L8.12145 14.47L10.0411 16.83L12.7346 13.29L16.2018 18ZM18.9442 8.89C19.3751 8.19 19.6298 7.38 19.6298 6.5C19.6298 4.01 17.6611 2 15.2223 2C12.7835 2 10.8149 4.01 10.8149 6.5C10.8149 8.99 12.7835 11 15.2125 11C16.0744 11 16.8776 10.74 17.5534 10.3L20.6092 13.42L22 12L18.9442 8.89ZM15.2223 9C13.8707 9 12.7738 7.88 12.7738 6.5C12.7738 5.12 13.8707 4 15.2223 4C16.5739 4 17.6709 5.12 17.6709 6.5C17.6709 7.88 16.5739 9 15.2223 9Z" />
</svg>
