<svg class="fill-current stroke-current w-full h-full" style="color: inherit" stroke-width="0.2" width="24" height="24" viewBox="0 0 24 24" stroke="none" xmlns="http://www.w3.org/2000/svg">
<path d="M9.76638 5.41V11.61C9.76638 12.16 9.31054 12.61 8.7534 12.61C8.19626 12.61 7.74042 12.16 7.74042 11.61V5.41L5.73473 7.39C5.53213 7.59 5.27889 7.68 5.01551 7.68C4.75214 7.68 4.49889 7.58 4.2963 7.39C3.90123 7 3.90123 6.37 4.2963 5.98L8.03419 2.29C8.03419 2.29 8.06458 2.28 8.07471 2.27C8.15575 2.19 8.25704 2.12 8.36847 2.08C8.49003 2.03 8.62172 2 8.76353 2C8.90535 2 9.02691 2.03 9.15859 2.08C9.27002 2.13 9.36119 2.19 9.45236 2.27C9.46249 2.27 9.48275 2.28 9.49288 2.29L13.2308 5.98C13.6258 6.37 13.6258 7 13.2308 7.39C12.8357 7.78 12.1975 7.78 11.8025 7.39L9.79677 5.41H9.76638ZM19.6834 16.6C19.2884 16.21 18.6502 16.21 18.2551 16.6L16.2494 18.58V12.38C16.2494 11.83 15.7936 11.38 15.2365 11.38C14.6793 11.38 14.2235 11.83 14.2235 12.38V18.58L12.2178 16.6C11.8227 16.21 11.1846 16.21 10.7895 16.6C10.3944 16.99 10.3944 17.62 10.7895 18.01L14.5274 21.7C14.6186 21.79 14.73 21.87 14.8515 21.92C14.9731 21.97 15.1048 22 15.2466 22C15.3884 22 15.51 21.97 15.6417 21.92C15.7632 21.87 15.8746 21.8 15.9658 21.7L19.7037 18.01C20.0988 17.62 20.0988 16.99 19.7037 16.6H19.6834Z" />
</svg>
