<svg class="fill-current stroke-current w-full h-full" style="color: inherit" stroke-width="0.2" width="24" height="24" viewBox="0 0 24 24" stroke="none" xmlns="http://www.w3.org/2000/svg">
<path d="M21.9 11.59C21.9 11.59 21.9 11.58 21.9 11.57L18.62 4.68C18.38 4.18 18.02 3.76 17.56 3.46C17.1 3.16 16.56 3 16.01 3H6.97C6.42 3 5.89 3.16 5.42 3.46C4.97 3.76 4.6 4.18 4.36 4.68L1.09 11.57C1.09 11.57 1.09 11.58 1.09 11.59C1.03 11.72 1 11.85 1 12V18C1 18.79 1.3 19.54 1.83 20.1C2.37 20.67 3.13 21 3.9 21H19.1C19.87 21 20.63 20.67 21.17 20.1C21.71 19.54 22 18.79 22 18V12C22 11.85 21.96 11.72 21.91 11.59H21.9ZM6.17 5.54C6.25 5.37 6.37 5.23 6.51 5.14C6.65 5.05 6.81 5 6.96 5H16.01C16.17 5 16.33 5.05 16.46 5.14C16.61 5.24 16.73 5.37 16.8 5.54L19.4 11H15.28C14.94 11 14.62 11.18 14.44 11.46L12.83 14H10.13L8.52 11.46C8.34 11.17 8.02 11 7.68 11H3.57L6.17 5.54ZM19.71 18.73C19.54 18.91 19.32 19 19.09 19H3.89C3.66 19 3.44 18.9 3.27 18.73C3.09 18.54 2.99 18.28 2.99 18V13H7.14L8.75 15.54C8.93 15.83 9.25 16 9.59 16H13.39C13.73 16 14.05 15.82 14.23 15.54L15.84 13H19.99V18C19.99 18.27 19.89 18.54 19.71 18.73Z" />
</svg>
