<svg class="fill-current stroke-current w-full h-full" style="color: inherit" stroke-width="0.2" width="24" height="24" viewBox="0 0 24 24" stroke="none" xmlns="http://www.w3.org/2000/svg">
<path d="M12 17C12.55 17 13 16.55 13 16V12C13 11.45 12.55 11 12 11C11.45 11 11 11.45 11 12V16C11 16.55 11.45 17 12 17ZM12 2C6.48 2 2 6.48 2 12C2 17.52 6.48 22 12 22C17.52 22 22 17.52 22 12C22 6.48 17.52 2 12 2ZM12 20C7.59 20 4 16.41 4 12C4 7.59 7.59 4 12 4C16.41 4 20 7.59 20 12C20 16.41 16.41 20 12 20ZM12 7C12.55 7 13 7.45 13 8C13 8.55 12.55 9 12 9C11.45 9 11 8.55 11 8C11 7.45 11.45 7 12 7Z" />
</svg>
