<svg class="fill-current stroke-current w-full h-full" style="color: inherit" stroke-width="0.2" width="24" height="24" viewBox="0 0 24 24" stroke="none" xmlns="http://www.w3.org/2000/svg">
<path d="M21 3H3C1.9 3 1 3.901 1 5.00222V7.99555C1 8.54616 1.45 8.99666 2 8.99666C2.55 8.99666 3 8.54616 3 7.99555V5.98331C3 5.4327 3.45 4.9822 4 4.9822H20C20.55 4.9822 21 5.4327 21 5.98331V18.0267C21 18.5773 20.55 19.0278 20 19.0278H4C3.45 19.0278 3 18.5773 3 18.0267V16.0044C3 15.4538 2.55 15.0033 2 15.0033C1.45 15.0033 1 15.4538 1 16.0044V19.0178C1 20.109 1.89 21 2.98 21H21C22.1 21 23 20.099 23 18.9978V5.00222C23 3.901 22.1 3 21 3ZM11.85 15.1535L14.64 12.3604C14.84 12.1602 14.84 11.8498 14.64 11.6496L11.85 8.85651C11.54 8.53615 11 8.7564 11 9.2069V10.9989H2C1.45 10.9989 1 11.4494 1 12C1 12.5506 1.45 13.0011 2 13.0011H11V14.7931C11 15.2436 11.54 15.4638 11.85 15.1535Z" />
</svg>
