<svg class="fill-current stroke-current w-full h-full" style="color: inherit" stroke-width="0.2" width="24" height="24" viewBox="0 0 24 24" stroke="none" xmlns="http://www.w3.org/2000/svg">
<path d="M20 8.83C20 8.46 19.9 8.1 19.71 7.79C19.63 7.65 19.53 7.52 19.41 7.41L14.58 2.58C14.47 2.47 14.34 2.37 14.21 2.29C13.9 2.1 13.54 2 13.17 2H6C4.9 2 4.01 2.89 4.01 3.99V11H20V8.83ZM6.01 9V4H11V8C11 8.35 11.06 8.69 11.17 9H6.01ZM14 9C13.45 9 13 8.55 13 8V3.5L18.5 9H14ZM14 13C14.55 13 15 13.45 15 14C15 14.55 14.55 15 14 15H10C9.45 15 9 14.55 9 14C9 13.45 9.45 13 10 13H14ZM4 20C4 21.1 4.89 22 5.99 22H18C19.1 22 20 21.1 20 20V17H4V20ZM6 19H18V20H6V19ZM6 15H2C1.45 15 1 14.55 1 14C1 13.45 1.45 13 2 13H6C6.55 13 7 13.45 7 14C7 14.55 6.55 15 6 15ZM23 14C23 14.55 22.55 15 22 15H18C17.45 15 17 14.55 17 14C17 13.45 17.45 13 18 13H22C22.55 13 23 13.45 23 14Z" />
</svg>
