<svg class="fill-current stroke-current w-full h-full" style="color: inherit" stroke-width="0.2" width="24" height="24" viewBox="0 0 24 24" stroke="none" xmlns="http://www.w3.org/2000/svg">
<path fill-rule="evenodd" clip-rule="evenodd" d="M6.01 4V20H18V11H14C12.35 11 11 9.65 11 8V4H6.01ZM13.17 2C13.54 2 13.9 2.1 14.21 2.29C14.34 2.37 14.47 2.47 14.58 2.59L19.41 7.42C19.53 7.53 19.63 7.66 19.71 7.79C19.9 8.1 20 8.46 20 8.83V20C20 21.1 19.1 22 18 22H5.99C4.89 22 4 21.1 4 20V4C4.01 2.9 4.9 2 6 2H13.17ZM13 8C13 8.55 13.45 9 14 9H18.5L13 3.5V8Z" />
</svg>
