<svg class="fill-current stroke-current w-full h-full" style="color: inherit" stroke-width="0.2" width="24" height="24" viewBox="0 0 24 24" stroke="none" xmlns="http://www.w3.org/2000/svg">
<path d="M3.02 7.81882C3.13 6.97882 3.38 6.16882 3.78 5.41882C4.8 3.73882 6.4 3.08882 8.24 3.04882C10.75 2.97882 13.27 2.98882 15.78 3.04882C17.47 3.08882 19 3.65882 20.04 5.14882C20.67 6.09882 20.99 7.20882 20.97 8.34882C21.01 10.7888 21.02 13.2288 20.97 15.6588C20.92 17.6188 20.25 19.3188 18.42 20.2988C17.59 20.7388 16.66 20.9688 15.71 20.9688C13.23 20.9988 10.75 21.0188 8.27 20.9688C6.41 20.9288 4.79 20.2888 3.76 18.5888C3.37 17.8388 3.11 17.0288 3 16.1888V7.81882H3.02ZM12.02 4.75882C10.79 4.75882 9.56 4.73882 8.32 4.75882C6.4 4.83882 5.21 5.72882 4.86 7.38882C4.78 7.74882 4.73 8.10882 4.73 8.47882C4.73 10.8288 4.68 13.1888 4.73 15.5388C4.78 17.8888 5.95 19.1288 8.19 19.2188C10.72 19.3088 13.25 19.3088 15.79 19.2188C17.66 19.1588 18.74 18.2488 19.12 16.6288C19.19 16.3388 19.23 16.0388 19.25 15.7388C19.25 13.0588 19.41 10.3688 19.17 7.68882C19.13 6.95882 18.82 6.26882 18.31 5.74882C17.8 5.22882 17.12 4.90882 16.4 4.84882C14.94 4.65882 13.48 4.79882 12.02 4.76882V4.75882ZM16.51 11.9888C16.51 12.8788 16.25 13.7488 15.75 14.4888C15.26 15.2288 14.55 15.8088 13.73 16.1488C12.91 16.4888 12 16.5788 11.13 16.4088C10.26 16.2388 9.46 15.8088 8.83 15.1788C8.2 14.5488 7.77 13.7488 7.6 12.8788C7.43 12.0088 7.52 11.0988 7.86 10.2788C8.2 9.45882 8.78 8.74882 9.52 8.25882C10.26 7.76882 11.13 7.49882 12.02 7.49882C13.21 7.49882 14.35 7.97882 15.19 8.82882C16.03 9.66882 16.51 10.8088 16.52 11.9988L16.51 11.9888ZM14.84 11.9688C14.85 11.3988 14.69 10.8388 14.39 10.3588C14.08 9.87882 13.64 9.50882 13.12 9.27882C12.6 9.04882 12.02 8.98882 11.46 9.08882C10.9 9.18882 10.39 9.45882 9.98 9.85882C9.57 10.2588 9.3 10.7688 9.18 11.3288C9.06 11.8888 9.12 12.4688 9.33 12.9888C9.54 13.5188 9.91 13.9688 10.38 14.2788C10.85 14.5988 11.41 14.7688 11.98 14.7688C12.73 14.7688 13.46 14.4788 13.99 13.9588C14.53 13.4288 14.83 12.7188 14.84 11.9688ZM16.5 5.98882C16.89 5.98882 17.27 6.13882 17.56 6.42882C17.84 6.71882 18 7.10882 18.01 7.51882C17.99 7.91882 17.82 8.28882 17.54 8.55882C17.26 8.82882 16.89 8.98882 16.51 8.98882C16.13 8.98882 15.76 8.83882 15.48 8.55882C15.2 8.28882 15.03 7.90882 15.01 7.51882C15.01 7.31882 15.05 7.11882 15.13 6.92882C15.21 6.73882 15.32 6.56882 15.45 6.42882C15.59 6.28882 15.75 6.17882 15.93 6.09882C16.11 6.01882 16.3 5.98882 16.5 5.98882Z" />
</svg>
