<svg class="fill-current stroke-current w-full h-full" style="color: inherit" stroke-width="0.2" width="24" height="24" viewBox="0 0 24 24" stroke="none" xmlns="http://www.w3.org/2000/svg">
<path d="M4.9941 5.2H6.98819V6.25C6.98819 7.405 7.88553 8.35 8.98229 8.35H14.9646C16.0613 8.35 16.9587 7.405 16.9587 6.25V5.2H18.9528V10.45H20.9469V5.2C20.9469 4.045 20.0495 3.1 18.9528 3.1H14.7851C14.3663 1.882 13.2696 1 11.9734 1C10.6773 1 9.58051 1.882 9.16176 3.1H4.9941C3.89734 3.1 3 4.045 3 5.2V19.9C3 21.055 3.89734 22 4.9941 22H10.9764V19.9H4.9941V5.2ZM11.9734 3.1C12.5218 3.1 12.9705 3.5725 12.9705 4.15C12.9705 4.7275 12.5218 5.2 11.9734 5.2C11.4251 5.2 10.9764 4.7275 10.9764 4.15C10.9764 3.5725 11.4251 3.1 11.9734 3.1ZM21.6946 12.8125C21.2859 12.382 20.6079 12.382 20.1991 12.8125L15.4731 17.8L13.2197 15.4375C12.8109 15.007 12.1429 15.007 11.7242 15.4375C11.3154 15.868 11.3154 16.582 11.7242 17.0125L14.7652 20.2045C15.154 20.614 15.7822 20.614 16.171 20.2045L21.6847 14.3875C22.1034 13.957 22.1034 13.243 21.6946 12.8125Z" />
</svg>
