<svg class="fill-current stroke-current w-full h-full" style="color: inherit" stroke-width="0.2" width="24" height="24" viewBox="0 0 24 24" stroke="none" xmlns="http://www.w3.org/2000/svg">
<path d="M4.9941 6H6.98819V7C6.98819 8.1 7.88553 9 8.98229 9H14.9646C16.0613 9 16.9587 8.1 16.9587 7V6H18.9528V11H20.9469V6C20.9469 4.9 20.0495 4 18.9528 4H14.7851C14.3663 2.84 13.2696 2 11.9734 2C10.6773 2 9.58051 2.84 9.16176 4H4.9941C3.89734 4 3 4.9 3 6V20C3 21.1 3.89734 22 4.9941 22H10.9764V20H4.9941V6ZM11.9734 4C12.5218 4 12.9705 4.45 12.9705 5C12.9705 5.55 12.5218 6 11.9734 6C11.4251 6 10.9764 5.55 10.9764 5C10.9764 4.45 11.4251 4 11.9734 4ZM21.6946 13.25C21.2859 12.84 20.6079 12.84 20.1991 13.25L15.4731 18L13.2197 15.75C12.8109 15.34 12.1429 15.34 11.7242 15.75C11.3154 16.16 11.3154 16.84 11.7242 17.25L14.7652 20.29C15.154 20.68 15.7822 20.68 16.171 20.29L21.6847 14.75C22.1034 14.34 22.1034 13.66 21.6946 13.25Z" />
</svg>
