<svg class="fill-current stroke-current w-full h-full" style="color: inherit" stroke-width="0.2" width="24" height="24" viewBox="0 0 24 24" stroke="none" xmlns="http://www.w3.org/2000/svg">
<path d="M6.34 7.73756C3.22 10.743 3.22 15.6269 6.34 18.6324C7.9 20.1351 9.95 20.8865 12 20.8865C14.05 20.8865 16.1 20.1351 17.66 18.6324C20.78 15.6269 20.78 10.743 17.66 7.73756L12.71 2.96926C12.32 2.59358 11.69 2.59358 11.3 2.96926L6.34 7.73756ZM12 18.9695C10.4 18.9695 8.89 18.3723 7.76 17.2742C6.62 16.176 6 14.7311 6 13.1898C6 11.6485 6.62 10.194 7.76 9.10544L12 5.01144V18.9695Z" />
</svg>
