<svg class="fill-current stroke-current w-full h-full" style="color: inherit" stroke-width="0.2" width="24" height="24" viewBox="0 0 24 24" stroke="none" xmlns="http://www.w3.org/2000/svg">
<path d="M21.6603 7.75626L19.6723 5.78626L20.7612 4.70626C20.961 4.50626 21.0609 4.25626 21.0609 3.99626C21.0609 3.73626 20.961 3.48626 20.7712 3.29626C20.3816 2.90626 19.7523 2.89626 19.3627 3.29626L17.5545 5.08626L14.3976 8.20626L11.3307 11.2463C10.3317 10.5563 9.12296 10.2063 7.90418 10.2063C6.33576 10.2163 4.85725 10.8363 3.74837 11.9363C2.62949 13.0363 2.01011 14.5063 2.00012 16.0663C1.99013 17.6263 2.57954 19.1063 3.68843 20.2363C4.24786 20.7963 4.89721 21.2263 5.62648 21.5363C6.35574 21.8363 7.12497 21.9963 7.91417 21.9963H7.93415C8.71337 21.9963 9.48259 21.8463 10.2019 21.5463C10.9311 21.2463 11.5905 20.8163 12.1499 20.2663C12.7093 19.7163 13.1489 19.0663 13.4486 18.3363C13.7483 17.6063 13.8982 16.8463 13.8982 16.0563C13.8982 15.2763 13.7383 14.5063 13.4286 13.7863C13.2588 13.3763 13.039 12.9963 12.7793 12.6363L15.1269 10.3163L17.1349 12.2963C17.5245 12.6863 18.1539 12.6863 18.5435 12.2963L21.7003 9.16626C21.8901 8.97626 22 8.72626 22 8.45626C22 8.18626 21.8901 7.93626 21.7003 7.74626L21.6603 7.75626ZM11.5705 17.5763C11.3707 18.0563 11.081 18.4863 10.7114 18.8563C10.3417 19.2263 9.90217 19.5163 9.42266 19.7063C8.93315 19.9063 8.45363 20.0463 7.89419 20.0063C7.36473 20.0063 6.85524 19.9063 6.36573 19.6963C5.88621 19.4963 5.44666 19.2063 5.08702 18.8463C4.36774 18.1063 3.96814 17.1263 3.97813 16.0963C3.97813 15.0663 4.39771 14.0963 5.13697 13.3663C5.87622 12.6363 6.86523 12.2263 7.90418 12.2163H7.94414C8.97311 12.2163 9.95212 12.6063 10.7014 13.3163C11.071 13.6763 11.3607 14.1063 11.5605 14.5863C11.7603 15.0663 11.8702 15.5663 11.8702 16.0863C11.8702 16.6063 11.7703 17.1063 11.5705 17.5863V17.5763ZM17.8042 10.1963L16.5155 8.92626L18.2538 7.20626L19.5425 8.47626L17.8042 10.1963Z" />
</svg>
