<svg class="fill-current stroke-current w-full h-full" style="color: inherit" stroke-width="0.2" width="24" height="24" viewBox="0 0 24 24" stroke="none" xmlns="http://www.w3.org/2000/svg">
<path d="M12 8.404L15.89 12.2964C16.28 12.6867 16.91 12.6867 17.3 12.2964C17.69 11.9062 17.69 11.2758 17.3 10.8856L12.71 6.29268C12.32 5.90244 11.69 5.90244 11.3 6.29268L6.7 10.8856C6.31 11.2758 6.31 11.9062 6.7 12.2964C7.09 12.6867 7.72 12.6867 8.11 12.2964L12 8.404ZM7 18H17C17.55 18 18 17.5497 18 16.9994C18 16.449 17.55 15.9987 17 15.9987H7C6.45 15.9987 6 16.449 6 16.9994C6 17.5497 6.45 18 7 18Z" />
</svg>
