<svg class="fill-current stroke-current w-full h-full" style="color: inherit" stroke-width="0.2" width="24" height="24" viewBox="0 0 24 24" stroke="none" xmlns="http://www.w3.org/2000/svg">
<path d="M19.8474 7.69933V10.9208H5.67281L8.7725 7.82819C9.19225 7.4094 9.19225 6.73289 8.7725 6.31409C8.35275 5.8953 7.67469 5.8953 7.25494 6.31409L2.31481 11.243C1.89506 11.6617 1.89506 12.3383 2.31481 12.757L7.25494 17.6859C7.67469 18.1047 8.35275 18.1047 8.7725 17.6859C9.19225 17.2671 9.19225 16.5906 8.7725 16.1718L5.67281 13.0685H20.9237C21.5157 13.0685 22 12.5852 22 11.9946V7.69933C22 7.10872 21.5157 6.6255 20.9237 6.6255C20.3318 6.6255 19.8474 7.10872 19.8474 7.69933Z" />
</svg>
