<svg class="fill-current stroke-current w-full h-full" style="color: inherit" stroke-width="0.2" width="24" height="24" viewBox="0 0 24 24" stroke="none" xmlns="http://www.w3.org/2000/svg">
<path d="M6.2925 8.11L10.1825 12L6.2925 15.89C5.9025 16.28 5.9025 16.91 6.2925 17.3C6.6825 17.69 7.3125 17.69 7.7025 17.3L12.2925 12.71C12.6825 12.32 12.6825 11.69 12.2925 11.3L7.7025 6.7C7.3125 6.31 6.6825 6.31 6.2925 6.7C5.9125 7.09 5.9125 7.73 6.2925 8.11ZM17.0025 6C17.5525 6 18.0025 6.45 18.0025 7V17C18.0025 17.55 17.5525 18 17.0025 18C16.4525 18 16.0025 17.55 16.0025 17V7C16.0025 6.45 16.4525 6 17.0025 6Z" />
</svg>
