<svg class="fill-current stroke-current w-full h-full" style="color: inherit" stroke-width="0.2" width="24" height="24" viewBox="0 0 24 24" stroke="none" xmlns="http://www.w3.org/2000/svg">
<path d="M20.9897 13.9594C21 14.2886 20.8615 14.5766 20.5897 14.7771L13.1077 20.6091C12.9487 20.7274 12.7744 20.8251 12.5897 20.892C12.4 20.964 12.2 21 12 21C11.8 21 11.6 20.964 11.4103 20.892C11.2256 20.8251 11.0513 20.7274 10.8974 20.6091L3.40513 14.772C3.13846 14.5714 3 14.2886 3.01026 13.9543C3.02051 13.6303 3.16923 13.3526 3.43077 13.152C3.79487 12.8794 4.29744 12.8794 4.66154 13.152L11.9949 18.8709L19.3231 13.1571C19.6923 12.8794 20.1949 12.8794 20.559 13.1571C20.8256 13.3577 20.9692 13.6354 20.9846 13.9594H20.9897ZM3.08205 10.4777C3.02564 10.344 3 10.2 3 10.0457C3 9.89143 3.03077 9.74743 3.08205 9.61372C3.13846 9.47486 3.2359 9.34629 3.37436 9.23315L10.8923 3.38572C11.0513 3.26743 11.2256 3.16972 11.4103 3.10286C11.7897 2.964 12.2103 2.964 12.5897 3.10286C12.7744 3.16972 12.9487 3.26743 13.1026 3.38058L20.6205 9.21772C20.7641 9.336 20.8615 9.46458 20.9179 9.60343C20.9744 9.73715 21 9.88115 21 10.0354C21 10.1897 20.9692 10.3337 20.9179 10.4674C20.8615 10.6063 20.7641 10.7349 20.6256 10.848L13.1077 16.6903C12.9487 16.8086 12.7744 16.9063 12.5897 16.9731C12.4 17.0451 12.2051 17.0811 12 17.0811C11.7949 17.0811 11.6 17.0451 11.4103 16.9731C11.2256 16.9063 11.0513 16.8086 10.8974 16.6954L3.37949 10.8634C3.2359 10.7451 3.13846 10.6166 3.08205 10.4777V10.4777ZM12 14.9623L18.3026 10.0406L12 5.124L5.69744 10.0457L12 14.9674V14.9623Z" />
</svg>
