<svg class="fill-current stroke-current w-full h-full" style="color: inherit" stroke-width="0.2" width="24" height="24" viewBox="0 0 24 24" stroke="none" xmlns="http://www.w3.org/2000/svg">
<path d="M18.22 3H5.78C4.25 3 3 4.25 3 5.78V18.22C3 19.75 4.25 21 5.78 21H18.22C19.75 21 21 19.75 21 18.22V5.78C21 4.25 19.75 3 18.22 3ZM5.78 5H18.22C18.65 5 19 5.35 19 5.78V8.34H5V5.78C5 5.35 5.35 5 5.78 5ZM5 18.22V10.33H8.33V19H5.78C5.35 19 5 18.65 5 18.22ZM18.22 19H10.33V10.33H19V18.22C19 18.65 18.65 19 18.22 19Z" />
</svg>
