<svg class="fill-current stroke-current w-full h-full" style="color: inherit" stroke-width="0.2" width="24" height="24" viewBox="0 0 24 24" stroke="none" xmlns="http://www.w3.org/2000/svg">
<path fill-rule="evenodd" clip-rule="evenodd" d="M5.5 19V11H4V19H5.5ZM7.25 9.34C7.07 9.13 6.8 9 6.5 9H3C2.45 9 2 9.45 2 10V20C2 20.55 2.45 21 3 21H6.5C6.83 21 7.13 20.84 7.31 20.59C7.43 20.42 7.5 20.22 7.5 20V10C7.5 9.75 7.41 9.52 7.25 9.34ZM9.25 20C9.25 20.22 9.32 20.42 9.44 20.59C9.62 20.84 9.92 21 10.25 21H13.75C14.08 21 14.38 20.84 14.56 20.59C14.68 20.42 14.75 20.22 14.75 20V4C14.75 3.45 14.3 3 13.75 3H10.25C9.7 3 9.25 3.45 9.25 4V20ZM16.75 11.34C16.59 11.52 16.5 11.75 16.5 12V20C16.5 20.22 16.57 20.42 16.69 20.59C16.87 20.84 17.17 21 17.5 21H21C21.55 21 22 20.55 22 20V12C22 11.45 21.55 11 21 11H17.5C17.2 11 16.93 11.13 16.75 11.34ZM11.25 5V19H12.75V5H11.25ZM18.5 13V19H20V13H18.5Z" />
</svg>
