<svg class="fill-current stroke-current w-full h-full" style="color: inherit" stroke-width="0.2" width="24" height="24" viewBox="0 0 24 24" stroke="none" xmlns="http://www.w3.org/2000/svg">
<path d="M20 2H8C6.9 2 6 2.9 6 4V16C6 17.1 6.9 18 8 18H20C21.1 18 22 17.1 22 16V4C22 2.9 21.1 2 20 2ZM20 16H8V4H20V16ZM12.5 15C13.88 15 15 13.88 15 12.5V7H18V5H14V10.51C13.58 10.19 13.07 10 12.5 10C11.12 10 10 11.12 10 12.5C10 13.88 11.12 15 12.5 15ZM18 21C18 21.55 17.55 22 17 22H3C2.45 22 2 21.55 2 21V7C2 6.45 2.45 6 3 6C3.55 6 4 6.45 4 7V20H17C17.55 20 18 20.45 18 21Z" />
</svg>
