<svg class="fill-current stroke-current w-full h-full" style="color: inherit" stroke-width="0.2" width="24" height="24" viewBox="0 0 24 24" stroke="none" xmlns="http://www.w3.org/2000/svg">
<path d="M20 2H8C6.9 2 6 2.9 6 4V16C6 17.1 6.9 18 8 18H20C21.1 18 22 17.1 22 16V4C22 2.9 21.1 2 20 2ZM20 16H8V4H20V16ZM16.88 9.19C17.43 9.59 17.43 10.41 16.88 10.81L13.59 13.19C12.93 13.67 12 13.19 12 12.38V7.62C12 6.8 12.92 6.33 13.59 6.81L16.88 9.19ZM18 21C18 21.55 17.55 22 17 22H3C2.45 22 2 21.55 2 21V7C2 6.45 2.45 6 3 6C3.55 6 4 6.45 4 7V20H17C17.55 20 18 20.45 18 21Z" />
</svg>
