<svg class="fill-current stroke-current w-full h-full" style="color: inherit" stroke-width="0.2" width="24" height="24" viewBox="0 0 24 24" stroke="none" xmlns="http://www.w3.org/2000/svg">
<path d="M20 2H8C6.9 2 6 2.9 6 4V16C6 17.1 6.9 18 8 18H20C21.1 18 22 17.1 22 16V4C22 2.9 21.1 2 20 2ZM20 16H8V4H20V16ZM18 21C18 21.55 17.55 22 17 22H3C2.45 22 2 21.55 2 21V7C2 6.45 2.45 6 3 6C3.55 6 4 6.45 4 7V20H17C17.55 20 18 20.45 18 21ZM10 10C10 9.45 10.45 9 11 9H13V7C13 6.45 13.45 6 14 6C14.55 6 15 6.45 15 7V9H17C17.55 9 18 9.45 18 10C18 10.55 17.55 11 17 11H15V13C15 13.55 14.55 14 14 14C13.45 14 13 13.55 13 13V11H11C10.45 11 10 10.55 10 10Z" />
</svg>
