<svg class="fill-current stroke-current w-full h-full" style="color: inherit" stroke-width="0.2" width="24" height="24" viewBox="0 0 24 24" stroke="none" xmlns="http://www.w3.org/2000/svg">
<path d="M11.51 22C12.61 22 13.51 21.1 13.51 20H9.51C9.51 21.1 10.41 22 11.51 22ZM8.51 19H14.51C15.06 19 15.51 18.55 15.51 18C15.51 17.45 15.06 17 14.51 17H8.51C7.96 17 7.51 17.45 7.51 18C7.51 18.55 7.96 19 8.51 19ZM15.25 16H7.76L7.51 15.84C6.45 15.16 4 13.19 4 9.5C4 5.36 7.36 2 11.5 2C15.64 2 19 5.36 19 9.5C19 13.19 16.54 15.17 15.49 15.84L15.24 16H15.25ZM8.36 14H14.65C15.51 13.39 17.01 11.96 17.01 9.5C17.01 6.47 14.54 4 11.51 4C8.48 4 6.01 6.47 6.01 9.5C6.01 11.96 7.51 13.39 8.37 14H8.36Z" />
</svg>
