<svg class="fill-current stroke-current w-full h-full" style="color: inherit" stroke-width="0.2" width="24" height="24" viewBox="0 0 24 24" stroke="none" xmlns="http://www.w3.org/2000/svg">
<path d="M12 22C11.4333 22 10.9542 21.8042 10.5625 21.4125C10.1708 21.0208 9.975 20.5417 9.975 19.975H14.025C14.025 20.5417 13.8292 21.0208 13.4375 21.4125C13.0458 21.8042 12.5667 22 12 22ZM8.7 18.425C8.48333 18.425 8.30417 18.3542 8.1625 18.2125C8.02083 18.0708 7.95 17.8917 7.95 17.675C7.95 17.4583 8.02083 17.2792 8.1625 17.1375C8.30417 16.9958 8.48333 16.925 8.7 16.925H15.3C15.5167 16.925 15.6958 16.9958 15.8375 17.1375C15.9792 17.2792 16.05 17.4583 16.05 17.675C16.05 17.8917 15.9792 18.0708 15.8375 18.2125C15.6958 18.3542 15.5167 18.425 15.3 18.425H8.7ZM8.075 15.4C6.975 14.6833 6.10417 13.7875 5.4625 12.7125C4.82083 11.6375 4.5 10.425 4.5 9.07501C4.5 7.04168 5.24167 5.28335 6.725 3.80001C8.20833 2.31668 9.96667 1.57501 12 1.57501C14.0333 1.57501 15.7917 2.31668 17.275 3.80001C18.7583 5.28335 19.5 7.04168 19.5 9.07501C19.5 10.425 19.1833 11.6375 18.55 12.7125C17.9167 13.7875 17.0417 14.6833 15.925 15.4H8.075Z" fill="black"/>
</svg>
