<svg class="fill-current stroke-current w-full h-full" style="color: inherit" stroke-width="0.2" width="24" height="24" viewBox="0 0 24 24" stroke="none" xmlns="http://www.w3.org/2000/svg">
<path d="M11.2306 2C10.8376 2 10.481 2.23022 10.3192 2.58841L7 9.93813V21.9999H17.8832C18.5588 22.006 19.2163 21.7725 19.7351 21.3385C20.2555 20.9032 20.6017 20.2947 20.7054 19.6234L20.7056 19.6222L21.9674 11.5239L21.9676 11.5224C22.0299 11.1188 22.0021 10.7067 21.8866 10.315C21.7711 9.92341 21.5707 9.56238 21.3005 9.25658C21.0304 8.95083 20.6969 8.70766 20.3239 8.54291C19.9528 8.379 19.5508 8.29631 19.1453 8.29996H14.9741V5.69998C14.9741 4.71348 14.5758 3.77067 13.872 3.07807C13.1688 2.38599 12.2183 2 11.2306 2Z" />
<path d="M3.37177 10H5V22H3.37177C3.00795 22 2.65904 21.7701 2.40178 21.361C2.14452 20.9518 2 20.3968 2 19.8182V12.1818C2 11.6032 2.14452 11.0482 2.40178 10.639C2.65904 10.2299 3.00795 10 3.37177 10Z" />
</svg>
