<svg class="fill-current stroke-current w-full h-full" style="color: inherit" stroke-width="0.2" width="24" height="24" viewBox="0 0 24 24" stroke="none" xmlns="http://www.w3.org/2000/svg">
<path d="M21.7129 7.02053C21.3175 6.61522 20.6553 6.62536 20.2797 7.06106L16.9883 10.8507L11.4039 5.54115C10.623 4.80146 9.41719 4.82172 8.66601 5.59181L3.28911 11.1142C2.90363 11.5094 2.90363 12.1477 3.28911 12.5429L3.37806 12.6341C3.76354 13.0293 4.38623 13.0293 4.77171 12.6341L10.1486 7.11173L15.6738 12.3706L13.9638 14.3465L11.4138 11.7323C10.6428 10.9419 9.38754 10.9419 8.61659 11.7323L3.28911 17.1837C2.90363 17.5789 2.90363 18.2172 3.28911 18.6124L3.38795 18.7036C3.77342 19.0988 4.39612 19.0988 4.78159 18.7036L10.0201 13.3332L12.4911 15.8664C13.2917 16.6872 14.6063 16.6467 15.3674 15.7752L17.1267 13.7386L20.2797 16.7379C20.6652 17.1026 21.2681 17.0925 21.6437 16.7075L21.6536 16.6973C22.049 16.292 22.0391 15.6334 21.6239 15.2483L18.4413 12.2186L21.7524 8.39859C22.0984 8.00341 22.0786 7.39545 21.7129 7.02053Z" />
</svg>
