<svg class="fill-current stroke-current w-full h-full" style="color: inherit" stroke-width="0.2" width="24" height="24" viewBox="0 0 24 24" stroke="none" xmlns="http://www.w3.org/2000/svg">
<path d="M14.0802 7.79012H16.9238C18.3704 7.79012 19.698 8.77141 19.9755 10.2133C20.2826 11.8555 19.2423 13.3274 17.7759 13.6979L19.2918 15.2299C21.0455 14.3187 22.2146 12.4062 21.9669 10.2133C21.6895 7.64993 19.4008 5.78748 16.8445 5.78748H14.0802C13.5353 5.78748 13.0894 6.23808 13.0894 6.7888C13.0894 7.33953 13.5353 7.79012 14.0802 7.79012ZM3.68682 2.29289C3.30042 1.90237 2.67622 1.90237 2.28981 2.29289C1.9034 2.6834 1.9034 3.31423 2.28981 3.70474L4.9055 6.34822C3.1518 7.25942 1.98266 9.17194 2.23036 11.3648C2.50778 13.9382 4.79651 15.8007 7.35276 15.8007H10.1171C10.662 15.8007 11.1079 15.3501 11.1079 14.7993C11.1079 14.2486 10.662 13.798 10.1171 13.798H7.27349C5.82694 13.798 4.49927 12.8167 4.22185 11.3748C3.91471 9.73267 4.96495 8.26074 6.42141 7.89025L8.52189 10.013C8.29401 10.2033 8.13548 10.4736 8.13548 10.7941C8.13548 11.3448 8.58134 11.7954 9.12627 11.7954H10.2855L19.1036 20.7071C19.49 21.0976 20.1142 21.0976 20.5006 20.7071C20.887 20.3166 20.887 19.6858 20.5006 19.2953L3.68682 2.29289ZM14.0802 9.79275L15.7745 11.505C15.9528 11.3248 16.0618 11.0744 16.0618 10.7941C16.0618 10.2433 15.616 9.79275 15.071 9.79275H14.0802Z" />
</svg>
