<svg class="fill-current stroke-current w-full h-full" style="color: inherit" stroke-width="0.2" width="24" height="24" viewBox="0 0 24 24" stroke="none" xmlns="http://www.w3.org/2000/svg">
<path d="M7.55895 5.78C7.56894 6.02 7.53896 6.26 7.44903 6.48C7.36909 6.7 7.22919 6.9 7.0693 7.07C6.90942 7.24 6.69957 7.37 6.47973 7.45C6.25988 7.53 6.02006 7.57 5.78023 7.56C5.55039 7.56 5.32056 7.53 5.11071 7.45C4.90086 7.37 4.70101 7.25 4.54112 7.09C4.37124 6.93 4.24134 6.74 4.1514 6.53C4.05147 6.33 4.00151 6.1 4.00151 5.87C3.99152 5.63 4.03149 5.39 4.11143 5.16C4.19137 4.93 4.32128 4.73 4.49116 4.55C4.66103 4.38 4.8509 4.24 5.08073 4.14C5.30057 4.05 5.5404 4 5.78023 4C6.02006 4 6.24989 4.03 6.46973 4.12C6.68958 4.21 6.88943 4.34 7.05931 4.51C7.22919 4.68 7.35909 4.88 7.43904 5.1C7.52897 5.32 7.56894 5.55 7.55895 5.79V5.78ZM7.55895 8.44H4.00151V20H7.55895V8.45V8.44ZM16.0828 8.62C15.4133 8.6 14.7538 8.76 14.1642 9.07C13.5746 9.38 13.075 9.84 12.7052 10.4H12.6153L12.4354 8.89H9.23774C9.23774 9.87 9.32768 11.03 9.32768 12.35V19.99H12.8851V13.68C12.8651 13.38 12.8951 13.08 12.9751 12.79C13.2449 12.17 13.6845 11.39 14.6638 11.39C15.9029 11.39 16.4426 12.45 16.4426 13.88V19.99H20V13.43C20 10.12 18.3112 8.61 16.0928 8.61L16.0828 8.62Z" />
</svg>
