<svg class="fill-current stroke-current w-full h-full" style="color: inherit" stroke-width="0.2" width="24" height="24" viewBox="0 0 24 24" stroke="none" xmlns="http://www.w3.org/2000/svg">
<path d="M8.99632 10H14.998C15.5482 10 15.9983 10.45 15.9983 11C15.9983 11.55 15.5482 12 14.998 12H8.99632C8.44616 12 7.99604 11.55 7.99604 11C7.99604 10.45 8.44616 10 8.99632 10ZM20.9297 11C21.5499 11 22 10.41 21.86 9.81C21.3198 7.62 19.3492 6 16.9986 6H13.9477C13.4276 6 12.9975 6.43 12.9975 6.95C12.9975 7.47 13.4276 7.9 13.9477 7.9H16.9986C18.449 7.9 19.6693 8.9 20.0094 10.24C20.1195 10.68 20.4796 11 20.9297 11ZM3.95489 10.38C4.23497 8.91 5.61536 7.9 7.11579 7.9H10.0466C10.5668 7.9 10.9969 7.47 10.9969 6.95C10.9969 6.43 10.5668 6 10.0466 6H7.21581C4.60508 6 2.27442 7.91 2.02434 10.51C1.73426 13.49 4.07493 16 6.99575 16H10.0466C10.5668 16 10.9969 15.57 10.9969 15.05C10.9969 14.53 10.5668 14.1 10.0466 14.1H6.99575C5.08521 14.1 3.57478 12.36 3.95489 10.38ZM17.9989 11C17.4487 11 16.9986 11.45 16.9986 12V14H14.998C14.4479 14 13.9977 14.45 13.9977 15C13.9977 15.55 14.4479 16 14.998 16H16.9986V18C16.9986 18.55 17.4487 19 17.9989 19C18.549 19 18.9992 18.55 18.9992 18V16H20.9997C21.5499 16 22 15.55 22 15C22 14.45 21.5499 14 20.9997 14H18.9992V12C18.9992 11.45 18.549 11 17.9989 11Z" />
</svg>
