<svg class="fill-current stroke-current w-full h-full" style="color: inherit" stroke-width="0.2" width="24" height="24" viewBox="0 0 24 24" stroke="none" xmlns="http://www.w3.org/2000/svg">
<path d="M10.5 17.101L14.48 14.798C15.15 14.4141 15.15 13.4343 14.48 13.0404L10.5 10.7374C9.83 10.3535 9 10.8485 9 11.6162V16.2121C9 16.9899 9.83 17.4848 10.5 17.101ZM21 5.83838H13.41L16.35 2.86869C16.55 2.66667 16.55 2.35354 16.35 2.15152C16.15 1.94949 15.84 1.94949 15.64 2.15152L12 5.82828L8.36 2.15152C8.16 1.94949 7.85 1.94949 7.65 2.15152C7.45 2.35354 7.45 2.66667 7.65 2.86869L10.59 5.83838H3C1.9 5.83838 1 6.73737 1 7.85859V19.9798C1 21.0909 1.9 22 3 22H21C22.1 22 23 21.0909 23 19.9798V7.85859C23 6.73737 22.1 5.83838 21 5.83838ZM20 19.9798H4C3.45 19.9798 3 19.5253 3 18.9697V8.86869C3 8.31313 3.45 7.85859 4 7.85859H20C20.55 7.85859 21 8.31313 21 8.86869V18.9697C21 19.5253 20.55 19.9798 20 19.9798Z" />
</svg>
