<svg class="fill-current stroke-current w-full h-full" style="color: inherit" stroke-width="0.2" width="24" height="24" viewBox="0 0 24 24" stroke="none" xmlns="http://www.w3.org/2000/svg">
<path d="M12 21C11.45 21 11 20.55 11 20V16.8C11 16.25 11.45 15.8 12 15.8C12.55 15.8 13 16.25 13 16.8V20C13 20.55 12.55 21 12 21ZM18.36 18.36C18.75 17.97 18.75 17.34 18.36 16.95L16.1 14.69C15.71 14.3 15.08 14.3 14.69 14.69C14.3 15.08 14.3 15.71 14.69 16.1L16.95 18.36C17.15 18.56 17.4 18.65 17.66 18.65C17.92 18.65 18.17 18.55 18.37 18.36H18.36ZM7.05 18.36L9.31 16.1C9.7 15.71 9.7 15.08 9.31 14.69C8.92 14.3 8.29 14.3 7.9 14.69L5.64 16.95C5.25 17.34 5.25 17.97 5.64 18.36C5.84 18.56 6.09 18.65 6.35 18.65C6.61 18.65 6.86 18.55 7.06 18.36H7.05ZM21 12C21 11.45 20.55 11 20 11H16.8C16.25 11 15.8 11.45 15.8 12C15.8 12.55 16.25 13 16.8 13H20C20.55 13 21 12.55 21 12ZM8.2 12C8.2 11.45 7.75 11 7.2 11H4C3.45 11 3 11.45 3 12C3 12.55 3.45 13 4 13H7.2C7.75 13 8.2 12.55 8.2 12ZM16.1 9.31L18.36 7.05C18.75 6.66 18.75 6.03 18.36 5.64C17.97 5.25 17.34 5.25 16.95 5.64L14.69 7.9C14.3 8.29 14.3 8.92 14.69 9.31C14.89 9.51 15.14 9.6 15.4 9.6C15.66 9.6 15.91 9.5 16.11 9.31H16.1ZM9.32 9.31C9.71 8.92 9.71 8.29 9.32 7.9L7.06 5.64C6.67 5.25 6.04 5.25 5.65 5.64C5.26 6.03 5.26 6.66 5.65 7.05L7.91 9.31C8.11 9.51 8.36 9.6 8.62 9.6C8.88 9.6 9.13 9.5 9.33 9.31H9.32ZM13.01 7.2V4C13.01 3.45 12.56 3 12.01 3C11.46 3 11.01 3.45 11.01 4V7.2C11.01 7.75 11.46 8.2 12.01 8.2C12.56 8.2 13.01 7.75 13.01 7.2Z" />
</svg>
