<svg class="fill-current stroke-current w-full h-full" style="color: inherit" stroke-width="0.2" width="24" height="24" viewBox="0 0 24 24" stroke="none" xmlns="http://www.w3.org/2000/svg">
<path d="M17.67 4.47124C16.18 2.90045 14.11 2 12 2C9.89 2 7.82 2.90045 6.33 4.47124C4.83 6.04202 4 8.14307 4 10.3642C4 16.5473 11.12 21.6098 11.43 21.8199C11.6 21.94 11.8 22 12 22C12.2 22 12.4 21.94 12.57 21.8199C12.87 21.6098 20 16.5373 20 10.3642C20 8.13307 19.17 6.04202 17.67 4.46123V4.47124ZM12 19.7589C10.4 18.4782 6 14.5963 6 10.3742C6 8.68334 6.65 7.04252 7.77 5.85193C8.9 4.66133 10.4 4.001 12 4.001C13.6 4.001 15.09 4.66133 16.22 5.85193C17.35 7.04252 18 8.68334 18 10.3742C18 14.5963 13.6 18.4782 12 19.7589ZM15 10.014C15 10.5643 14.55 11.0145 14 11.0145H13V12.015C13 12.5653 12.55 13.0155 12 13.0155C11.45 13.0155 11 12.5653 11 12.015V11.0145H10C9.45 11.0145 9 10.5643 9 10.014C9 9.46373 9.45 9.01351 10 9.01351H11V8.01301C11 7.46273 11.45 7.01251 12 7.01251C12.55 7.01251 13 7.46273 13 8.01301V9.01351H14C14.55 9.01351 15 9.46373 15 10.014Z" />
</svg>
