<svg class="fill-current stroke-current w-full h-full" style="color: inherit" stroke-width="0.2" width="24" height="24" viewBox="0 0 24 24" stroke="none" xmlns="http://www.w3.org/2000/svg">
<path d="M21.14 9.32C20.62 8.86 19.93 8.6 19.2 8.6H18.4V4C18.4 3.45 17.95 3 17.4 3H6.6C6.05 3 5.6 3.45 5.6 4V8.6H4.8C4.07 8.6 3.39 8.86 2.86 9.32C2.31 9.81 2 10.49 2 11.2V15.2C2 15.91 2.31 16.59 2.86 17.08C3.38 17.55 4.07 17.8 4.8 17.8H5.6V20C5.6 20.55 6.05 21 6.6 21H17.4C17.95 21 18.4 20.55 18.4 20V17.8H19.2C19.93 17.8 20.61 17.54 21.14 17.08C21.69 16.59 22 15.91 22 15.2V11.2C22 10.49 21.69 9.81 21.14 9.32ZM7.6 5H16.4V8.6H7.6V5ZM16.4 19H7.6V14.6H16.4V19ZM20 15.2C20 15.34 19.93 15.47 19.81 15.58C19.66 15.72 19.43 15.8 19.2 15.8H18.4V13.6C18.4 13.05 17.95 12.6 17.4 12.6H6.6C6.05 12.6 5.6 13.05 5.6 13.6V15.8H4.8C4.57 15.8 4.35 15.72 4.19 15.58C4.07 15.47 4 15.33 4 15.2V11.2C4 11.06 4.07 10.93 4.19 10.82C4.34 10.68 4.57 10.6 4.8 10.6H19.2C19.43 10.6 19.65 10.68 19.81 10.82C19.93 10.93 20 11.07 20 11.2V15.2Z" />
</svg>
