<svg class="fill-current stroke-current w-full h-full" style="color: inherit" stroke-width="0.2" width="24" height="24" viewBox="0 0 24 24" stroke="none" xmlns="http://www.w3.org/2000/svg">
<path d="M19.99 20C19.99 21.1 19.09 22 17.99 22C16.89 22 16 21.1 16 20C16 18.9 16.89 18 17.99 18C19.09 18 19.99 18.9 19.99 20ZM7.99 18C6.89 18 6 18.9 6 20C6 21.1 6.89 22 7.99 22C9.09 22 9.99 21.1 9.99 20C9.99 18.9 9.09 18 7.99 18ZM9.09 13L7.99 15H19.99C20.54 15 20.99 15.45 20.99 16C20.99 16.55 20.54 17 19.99 17H7.99C6.47 17 5.51 15.37 6.24 14.03L7.59 11.59L4 4H3C2.45 4 2 3.55 2 3C2 2.45 2.45 2 3 2H5.27L6.21 4H21C21.76 4 22.24 4.82 21.87 5.48L18.29 11.97C17.95 12.59 17.29 13 16.54 13H9.1H9.09ZM9.52 11H16.54L19.3 6H7.16L9.53 11H9.52Z" />
</svg>
