<svg class="fill-current stroke-current w-full h-full" style="color: inherit" stroke-width="0.2" width="24" height="24" viewBox="0 0 24 24" stroke="none" xmlns="http://www.w3.org/2000/svg">
<path d="M18.9989 3H4.99118C3.89057 3 3.00008 3.9 3.00008 5V19C2.99008 20.1 3.89057 21 4.99118 21H18.9989C20.0995 21 21 20.1 21 19V5C21 3.9 20.0995 3 18.9989 3ZM18.9989 19H4.99118V5H18.9989V19ZM6.99228 12C6.99228 11.45 7.44253 11 7.99283 11H10.9945V8C10.9945 7.45 11.4447 7 11.995 7C12.5453 7 12.9956 7.45 12.9956 8V11H15.9972C16.5475 11 16.9978 11.45 16.9978 12C16.9978 12.55 16.5475 13 15.9972 13H12.9956V16C12.9956 16.55 12.5453 17 11.995 17C11.4447 17 10.9945 16.55 10.9945 16V13H7.99283C7.44253 13 6.99228 12.55 6.99228 12Z" />
</svg>
