<svg class="fill-current stroke-current w-full h-full" style="color: inherit" stroke-width="0.2" width="24" height="24" viewBox="0 0 24 24" stroke="none" xmlns="http://www.w3.org/2000/svg">
<path d="M18.22 10.1H17.44V7.5C17.44 6.03 16.88 4.65 15.85 3.62C14.84 2.59 13.43 2 12 2C10.57 2 9.17 2.57 8.15 3.62C7.12 4.66 6.56 6.04 6.56 7.5V10.1H5.78C4.25 10.1 3 11.36 3 12.9V19.2C3 20.74 4.25 22 5.78 22H18.22C19.75 22 21 20.74 21 19.2V12.9C21 11.36 19.75 10.1 18.22 10.1ZM8.56 7.5C8.56 6.56 8.92 5.68 9.57 5.02C10.87 3.7 13.13 3.7 14.43 5.02C15.08 5.68 15.44 6.56 15.44 7.5V10.1H8.56V7.5ZM19 19.2C19 19.64 18.65 20 18.22 20H5.78C5.35 20 5 19.64 5 19.2V12.9C5 12.46 5.35 12.1 5.78 12.1H18.22C18.65 12.1 19 12.46 19 12.9V19.2Z" />
</svg>
