<svg class="fill-current stroke-current w-full h-full" style="color: inherit" stroke-width="0.2" width="24" height="24" viewBox="0 0 24 24" stroke="none" xmlns="http://www.w3.org/2000/svg">
<path d="M22 5V19C22 19.8 21.69 20.55 21.12 21.12C20.55 21.69 19.8 22 19 22H15C14.45 22 14 21.55 14 21C14 20.45 14.45 20 15 20H19C19.26 20 19.52 19.89 19.71 19.71C19.9 19.53 20 19.27 20 19V5C20 4.73 19.9 4.48 19.71 4.29C19.52 4.1 19.27 4 19 4H15C14.45 4 14 3.55 14 3C14 2.45 14.45 2 15 2H19C19.8 2 20.55 2.31 21.12 2.88C21.69 3.45 22 4.2 22 5ZM15.92 12.38C16.02 12.14 16.02 11.86 15.92 11.62C15.87 11.5 15.8 11.39 15.7 11.29L10.7 6.29C10.31 5.9 9.68 5.9 9.29 6.29C8.9 6.68 8.9 7.31 9.29 7.7L12.58 10.99H3C2.45 10.99 2 11.44 2 11.99C2 12.54 2.45 12.99 3 12.99H12.59L9.3 16.28C8.91 16.67 8.91 17.3 9.3 17.69C9.5 17.89 9.75 17.98 10.01 17.98C10.27 17.98 10.52 17.88 10.72 17.69L15.72 12.69C15.81 12.6 15.89 12.49 15.94 12.36L15.92 12.38Z" />
</svg>
