<svg class="fill-current stroke-current w-full h-full" style="color: inherit" stroke-width="0.2" width="24" height="24" viewBox="0 0 24 24" stroke="none" xmlns="http://www.w3.org/2000/svg">
<path d="M10 21C10 21.55 9.55 22 9 22H5C4.2 22 3.45 21.69 2.88 21.12C2.31 20.55 2 19.8 2 19V5C2 4.2 2.31 3.45 2.88 2.88C3.45 2.31 4.2 2 5 2H9C9.55 2 10 2.45 10 3C10 3.55 9.55 4 9 4H5C4.73 4 4.48 4.1 4.29 4.29C4.1 4.48 4 4.73 4 5V19C4 19.26 4.11 19.52 4.29 19.71C4.48 19.9 4.73 20 5 20H9C9.55 20 10 20.45 10 21ZM21.92 12.38C22.02 12.14 22.02 11.86 21.92 11.62C21.87 11.5 21.8 11.39 21.7 11.29L16.7 6.29C16.31 5.9 15.68 5.9 15.29 6.29C14.9 6.68 14.9 7.31 15.29 7.7L18.58 10.99H9C8.45 10.99 8 11.44 8 11.99C8 12.54 8.45 12.99 9 12.99H18.59L15.3 16.28C14.91 16.67 14.91 17.3 15.3 17.69C15.5 17.89 15.75 17.98 16.01 17.98C16.27 17.98 16.52 17.88 16.72 17.69L21.72 12.69C21.81 12.6 21.89 12.49 21.94 12.36L21.92 12.38Z" />
</svg>
