<svg class="fill-current stroke-current w-full h-full" style="color: inherit" stroke-width="0.2" width="24" height="24" viewBox="0 0 24 24" stroke="none" xmlns="http://www.w3.org/2000/svg">
<path d="M11.5 5.11529V3.46296C11.5 3.04757 10.9937 2.84449 10.7031 3.13988L8.07813 5.7153C7.89063 5.89992 7.89063 6.18607 8.07813 6.37069L10.6938 8.94611C10.9938 9.23227 11.5 9.02919 11.5 8.6138V6.96147C14.6031 6.96147 17.125 9.44458 17.125 12.5C17.125 13.2292 16.9844 13.94 16.7125 14.577C16.5719 14.9093 16.675 15.2877 16.9281 15.537C17.4063 16.0077 18.2125 15.8416 18.4656 15.2231C18.8125 14.3831 19 13.46 19 12.5C19 8.41995 15.6438 5.11529 11.5 5.11529ZM11.5 18.0385C8.39687 18.0385 5.875 15.5554 5.875 12.5C5.875 11.7708 6.01562 11.06 6.2875 10.4231C6.42813 10.0907 6.325 9.71227 6.07188 9.46304C5.59375 8.99226 4.7875 9.15842 4.53438 9.77689C4.1875 10.6169 4 11.54 4 12.5C4 16.5801 7.35625 19.8847 11.5 19.8847V21.537C11.5 21.9524 12.0063 22.1555 12.2969 21.8601L14.9125 19.2847C15.1 19.1001 15.1 18.8139 14.9125 18.6293L12.2969 16.0539C12.0063 15.7677 11.5 15.9708 11.5 16.3862V18.0385Z" />
</svg>
