<svg class="fill-current stroke-current w-full h-full" style="color: inherit" stroke-width="0.2" width="24" height="24" viewBox="0 0 24 24" stroke="none" xmlns="http://www.w3.org/2000/svg">
<path d="M14.9971 5H20.9971C21.5471 5 21.9971 5.44071 21.9971 5.97937C21.9971 6.51802 21.5471 6.95873 20.9971 6.95873H14.9971C14.4471 6.95873 13.9971 6.51802 13.9971 5.97937C13.9971 5.44071 14.4471 5 14.9971 5ZM14.9971 10.3865H20.9971C21.5471 10.3865 21.9971 10.8272 21.9971 11.3659C21.9971 11.9045 21.5471 12.3452 20.9971 12.3452H14.9971C14.4471 12.3452 13.9971 11.9045 13.9971 11.3659C13.9971 10.8272 14.4471 10.3865 14.9971 10.3865ZM14.9971 15.773H20.9971C21.5471 15.773 21.9971 16.2137 21.9971 16.7524C21.9971 17.2911 21.5471 17.7318 20.9971 17.7318H14.9971C14.4471 17.7318 13.9971 17.2911 13.9971 16.7524C13.9971 16.2137 14.4471 15.773 14.9971 15.773ZM9.84707 18.858L11.6371 17.105C11.8371 16.9091 11.8371 16.6055 11.6371 16.4096L9.84707 14.6566C9.53707 14.3432 8.99707 14.5586 8.99707 14.9993V18.5153C8.99707 18.9462 9.53707 19.1616 9.84707 18.858ZM8.99707 15.773H8.69707C6.34707 15.773 4.24707 14.0983 4.01707 11.8066C3.75707 9.1819 5.86707 6.95873 8.49707 6.95873H10.9971C11.5471 6.95873 11.9971 6.51802 11.9971 5.97937C11.9971 5.44071 11.5471 5 10.9971 5H8.49707C4.63707 5 1.53707 8.32985 2.05707 12.2081C2.47707 15.4205 5.42707 17.7318 8.72707 17.7318H8.99707" />
</svg>
