<svg class="fill-current stroke-current w-full h-full" style="color: inherit" stroke-width="0.2" width="24" height="24" viewBox="0 0 24 24" stroke="none" xmlns="http://www.w3.org/2000/svg">
<path d="M19.875 3H15.375C14.7563 3 14.25 3.50625 14.25 4.125C14.25 4.74375 14.7563 5.25 15.375 5.25H17.1525L12.6862 9.71625C11.6962 9.03 10.4925 8.625 9.1875 8.625C5.7675 8.625 3 11.3925 3 14.8125C3 18.2325 5.7675 21 9.1875 21C12.6075 21 15.375 18.2325 15.375 14.8125C15.375 13.5075 14.97 12.3038 14.2837 11.3025L18.75 6.8475V8.625C18.75 9.24375 19.2563 9.75 19.875 9.75C20.4937 9.75 21 9.24375 21 8.625V4.125C21 3.50625 20.4937 3 19.875 3ZM9.1875 18.75C7.01625 18.75 5.25 16.9838 5.25 14.8125C5.25 12.6412 7.01625 10.875 9.1875 10.875C11.3588 10.875 13.125 12.6412 13.125 14.8125C13.125 16.9838 11.3588 18.75 9.1875 18.75Z" />
</svg>
