<svg class="fill-current stroke-current w-full h-full" style="color: inherit" stroke-width="0.2" width="24" height="24" viewBox="0 0 24 24" stroke="none" xmlns="http://www.w3.org/2000/svg">
<path d="M21.0376 18.0076C21.0376 17.7875 21.0072 17.5874 20.9767 17.3773L21.829 16.647C22.0116 16.4869 22.0522 16.2268 21.9304 16.0167L21.3318 14.9962C21.2101 14.7861 20.9564 14.696 20.7332 14.7761L19.6578 15.1363C19.3331 14.8661 18.9679 14.656 18.5621 14.506L18.3389 13.4154C18.2881 13.1853 18.0852 13.0152 17.8417 13.0152H16.6445C16.401 13.0152 16.1981 13.1853 16.1474 13.4154L15.9242 14.506C15.5184 14.656 15.1531 14.8661 14.8285 15.1363L13.753 14.7761C13.5197 14.696 13.2762 14.7961 13.1544 14.9962L12.5559 16.0167C12.4341 16.2268 12.4747 16.4869 12.6573 16.647L13.5095 17.3773C13.4791 17.5874 13.4487 17.7875 13.4487 18.0076C13.4487 18.2277 13.4791 18.4278 13.5095 18.6379L12.6573 19.3683C12.4747 19.5283 12.4341 19.7885 12.5559 19.9986L13.1544 21.0191C13.2762 21.2292 13.5298 21.3192 13.753 21.2392L14.8285 20.879C15.1531 21.1491 15.5184 21.3592 15.9242 21.5093L16.1474 22.5998C16.1981 22.8299 16.401 23 16.6445 23H17.8417C18.0852 23 18.2881 22.8299 18.3389 22.5998L18.5621 21.5093C18.9679 21.3592 19.3331 21.1491 19.6578 20.879L20.7332 21.2392C20.9666 21.3192 21.2101 21.2192 21.3318 21.0191L21.9304 19.9986C22.0522 19.7885 22.0116 19.5283 21.829 19.3683L20.9767 18.6379C21.0072 18.4278 21.0376 18.2277 21.0376 18.0076ZM17.233 20.0086C16.117 20.0086 15.2039 19.1081 15.2039 18.0076C15.2039 16.9071 16.117 16.0067 17.233 16.0067C18.349 16.0067 19.2621 16.9071 19.2621 18.0076C19.2621 19.1081 18.349 20.0086 17.233 20.0086ZM10.1311 6.00191C9.57305 6.00191 9.11649 6.45212 9.11649 7.00238V11.0043C9.11649 11.2744 9.2281 11.5245 9.41072 11.7146L11.5109 13.7856L12.566 11.9948L11.1456 10.5941V7.00238C11.1456 6.45212 10.6891 6.00191 10.1311 6.00191ZM2.27835 12.0048C1.61888 12.0048 1.12175 12.6151 1.28408 13.2454C2.29864 17.1372 5.8699 20.0086 10.1311 20.0086C10.1513 20.0086 10.1818 20.0086 10.2021 20.0086L8.97445 17.9176C6.18441 17.4674 3.94223 15.4064 3.25233 12.7351C3.14072 12.2949 2.7349 12.0048 2.27835 12.0048ZM2.01456 9.00334C1.45655 9.00334 1 8.55312 1 8.00286V4.00095C1 3.45069 1.45655 3.00048 2.01456 3.00048C2.57257 3.00048 3.02912 3.45069 3.02912 4.00095V5.3616C4.70315 3.32063 7.25985 2 10.1311 2C15.1734 2 19.2621 6.03192 19.2621 11.0043H17.233C17.233 7.14245 14.0473 4.00095 10.1311 4.00095C7.72654 4.00095 5.59596 5.19152 4.30747 7.00238H6.07281C6.63082 7.00238 7.08737 7.4526 7.08737 8.00286C7.08737 8.55312 6.63082 9.00334 6.07281 9.00334H2.01456Z" />
</svg>
