<svg class="fill-current stroke-current w-full h-full" style="color: inherit" stroke-width="0.2" width="24" height="24" viewBox="0 0 24 24" stroke="none" xmlns="http://www.w3.org/2000/svg">
<path d="M6.0832 8.00346H3.0208C2.45936 8.00346 2 7.55346 2 7.00346C2 6.45346 2.45936 6.00346 3.0208 6.00346H6.0832C6.64463 6.00346 7.10399 6.45346 7.10399 7.00346C7.10399 7.55346 6.64463 8.00346 6.0832 8.00346ZM6.0832 11.0035H3.0208C2.45936 11.0035 2 11.4535 2 12.0035C2 12.5535 2.45936 13.0035 3.0208 13.0035H6.0832C6.64463 13.0035 7.10399 12.5535 7.10399 12.0035C7.10399 11.4535 6.64463 11.0035 6.0832 11.0035ZM20.2519 17.2935L17.067 14.1735C16.1891 14.7335 15.1377 15.0535 14.0046 14.9935C11.5853 14.8835 9.51308 13.0335 9.18642 10.6835C8.73727 7.33346 11.6874 4.50346 15.1377 5.07346C17.1282 5.40346 18.7819 6.92346 19.2209 8.85346C19.5577 10.3135 19.2311 11.6735 18.5063 12.7535L21.7014 15.8835C22.0995 16.2735 22.0995 16.9035 21.7014 17.2935C21.3033 17.6835 20.65 17.6835 20.2519 17.2935ZM17.312 10.0035C17.312 8.35346 15.9339 7.00346 14.2496 7.00346C12.5653 7.00346 11.1872 8.35346 11.1872 10.0035C11.1872 11.6535 12.5653 13.0035 14.2496 13.0035C15.9339 13.0035 17.312 11.6535 17.312 10.0035ZM3.0208 18.0035H11.1872C11.7486 18.0035 12.208 17.5535 12.208 17.0035C12.208 16.4535 11.7486 16.0035 11.1872 16.0035H3.0208C2.45936 16.0035 2 16.4535 2 17.0035C2 17.5535 2.45936 18.0035 3.0208 18.0035Z" />
</svg>
