<svg class="fill-current stroke-current w-full h-full" style="color: inherit" stroke-width="0.2" width="24" height="24" viewBox="0 0 24 24" stroke="none" xmlns="http://www.w3.org/2000/svg">
<path d="M20.48 3.11999C20.16 2.94999 19.77 2.95999 19.46 3.14999L14.87 6.03999L10.14 3.42999C9.96 3.16999 9.68 2.99999 9.34 2.99999C9.31 2.99999 9.28 3.01999 9.25 3.01999C9.02 2.97999 8.77 3.01999 8.57 3.14999L3.47 6.34999C3.18 6.52999 3 6.84999 3 7.19999V20C3 20.36 3.2 20.7 3.52 20.88C3.67 20.96 3.84 21 4 21C4.19 21 4.37 20.95 4.53 20.85L9.12 17.96L13.86 20.57C14.04 20.83 14.32 21 14.66 21C14.69 21 14.72 20.98 14.75 20.98C14.98 21.01 15.23 20.98 15.43 20.85L20.52 17.65C20.81 17.47 20.99 17.15 20.99 16.8V3.99999C20.99 3.63999 20.79 3.29999 20.47 3.11999H20.48ZM10.33 5.81999L13.66 7.64999V18.18L10.33 16.35V5.81999ZM5 7.74999L8.33 5.64999V16.09L5 18.19V7.74999ZM19 16.24L15.67 18.33V7.90999L19 5.80999V16.25V16.24Z" />
</svg>
