<svg class="fill-current stroke-current w-full h-full" style="color: inherit" stroke-width="0.2" width="24" height="24" viewBox="0 0 24 24" stroke="none" xmlns="http://www.w3.org/2000/svg">
<path d="M12.2549 3.94894C17.0948 3.94894 20.9219 8.39251 19.8702 13.4208C19.208 16.5683 16.5592 19.0142 13.3748 19.4625C11.8264 19.6768 10.317 19.4527 8.91472 18.7803C8.65179 18.6537 8.36938 18.5952 8.07724 18.5952C7.89221 18.5952 7.70718 18.6244 7.5319 18.6731L5.28238 19.3358C4.91233 19.443 4.56175 19.1019 4.66887 18.7219L5.35054 16.3929C5.47714 15.9544 5.41871 15.4964 5.21421 15.0774C4.71756 14.0249 4.46437 12.8946 4.46437 11.7447C4.46437 7.44728 7.96038 3.94894 12.2549 3.94894ZM12.2549 2C6.87944 2 2.51673 6.36562 2.51673 11.7447C2.51673 13.2454 2.86731 14.6486 3.46134 15.9251L2.03956 20.7585C1.82532 21.4894 2.51673 22.1812 3.25684 21.9571L8.08697 20.5344C9.70351 21.3042 11.5538 21.655 13.5209 21.4017C17.9615 20.8267 21.5159 17.1627 21.9541 12.7094C22.5092 6.90157 17.9518 2 12.2549 2ZM12.2549 7.84681C11.7193 7.84681 11.2811 8.28532 11.2811 8.82128V10.7702H9.33346C8.79786 10.7702 8.35964 11.2087 8.35964 11.7447C8.35964 12.2806 8.79786 12.7191 9.33346 12.7191H11.2811V14.6681C11.2811 15.204 11.7193 15.6426 12.2549 15.6426C12.7905 15.6426 13.2287 15.204 13.2287 14.6681V12.7191H15.1764C15.712 12.7191 16.1502 12.2806 16.1502 11.7447C16.1502 11.2087 15.712 10.7702 15.1764 10.7702H13.2287V8.82128C13.2287 8.28532 12.7905 7.84681 12.2549 7.84681Z" />
</svg>
