<svg class="fill-current stroke-current w-full h-full" style="color: inherit" stroke-width="0.2" width="24" height="24" viewBox="0 0 24 24" stroke="none" xmlns="http://www.w3.org/2000/svg">
<path d="M11.7661 11.7805L19.5867 6.90244V10.8049C19.5867 11.3415 20.0266 11.7805 20.5642 11.7805C21.1019 11.7805 21.5418 11.3415 21.5418 10.8049V4.95122C21.5418 3.87805 20.662 3 19.5867 3H3.94546C2.87012 3 2.00008 3.87805 2.00008 4.95122V16.6585C1.9903 17.7317 2.87012 18.6098 3.94546 18.6098H10.7885C11.3261 18.6098 11.7661 18.1707 11.7661 17.6341C11.7661 17.0976 11.3261 16.6585 10.7885 16.6585H3.94546V6.90244L11.7661 11.7805ZM19.5867 4.95122L11.7661 9.82927L3.94546 4.95122H19.5867ZM21.7764 15.361L17.3773 20.239L16.6833 21L15.9501 20.2683L13.0174 17.3415C12.6361 16.961 12.6361 16.3463 13.0174 15.9659C13.3986 15.5854 14.0145 15.5854 14.3957 15.9659L16.5953 18.161L20.3003 14.0439C20.662 13.6439 21.2779 13.6146 21.6787 13.9756C22.0795 14.3366 22.1088 14.9512 21.7471 15.3512L21.7764 15.361Z" />
</svg>
