<svg class="fill-current stroke-current w-full h-full" style="color: inherit" stroke-width="0.2" width="24" height="24" viewBox="0 0 24 24" stroke="none" xmlns="http://www.w3.org/2000/svg">
<path d="M18.1716 13H13.0604C12.7169 16.1 10.7775 18.72 8.07031 20.05C8.04001 21.86 6.39349 23.28 4.48435 22.95C3.27219 22.74 2.27216 21.75 2.06004 20.55C1.71659 18.65 3.18128 17 5.03992 17C5.99954 17 6.83795 17.45 7.39352 18.14C9.31277 17.11 10.6865 15.23 11.0098 13H7.87839C7.39352 14.34 5.99954 15.24 4.42374 14.94C3.23179 14.71 2.27216 13.74 2.04994 12.56C1.70649 10.66 3.18128 9 5.03992 9C6.35309 9 7.46423 9.84 7.88849 11H11.0199C10.6966 8.77 9.31277 6.9 7.39352 5.86C6.74704 6.66 5.70661 7.14 4.55506 6.96C3.3126 6.77 2.27216 5.77 2.06004 4.54C1.72669 2.65 3.19138 1 5.03992 1C6.69653 1 8.0299 2.31 8.06021 3.95C10.7674 5.28 12.7068 7.9 13.0503 11H18.1716V9.21C18.1716 8.76 18.7171 8.54 19.0302 8.86L21.8485 11.65C22.0505 11.85 22.0505 12.16 21.8485 12.36L19.0302 15.15C18.7171 15.46 18.1716 15.24 18.1716 14.79V13Z" />
</svg>
