<svg class="fill-current stroke-current w-full h-full" style="color: inherit" stroke-width="0.2" width="24" height="24" viewBox="0 0 24 24" stroke="none" xmlns="http://www.w3.org/2000/svg">
<path d="M20 4H16V2C16 0.9 15.1 0 14 0H10C8.9 0 8 0.9 8 2V4H4C2.9 4 2 4.9 2 6V18C2 19.1 2.9 20 4 20H20C21.1 20 22 19.1 22 18V6C22 4.9 21.1 4 20 4ZM10 2H14V4H10V2ZM20 18H4V6H20V18ZM8 12C8 11.45 8.45 11 9 11H11V9C11 8.45 11.45 8 12 8C12.55 8 13 8.45 13 9V11H15C15.55 11 16 11.45 16 12C16 12.55 15.55 13 15 13H13V15C13 15.55 12.55 16 12 16C11.45 16 11 15.55 11 15V13H9C8.45 13 8 12.55 8 12Z" />
</svg>
