<svg class="fill-current stroke-current w-full h-full" style="color: inherit" stroke-width="0.2" width="24" height="24" viewBox="0 0 24 24" stroke="none" xmlns="http://www.w3.org/2000/svg">
<path d="M4.02316 18.278H15.278C15.8407 18.278 16.3011 17.8175 16.3011 17.2548C16.3011 16.6921 15.8407 16.2316 15.278 16.2316H4.02316C3.46042 16.2316 3 16.6921 3 17.2548C3 17.8175 3.46042 18.278 4.02316 18.278ZM4.02316 13.1621H12.2085C12.7712 13.1621 13.2316 12.7017 13.2316 12.139C13.2316 11.5762 12.7712 11.1158 12.2085 11.1158H4.02316C3.46042 11.1158 3 11.5762 3 12.139C3 12.7017 3.46042 13.1621 4.02316 13.1621ZM3 7.02316C3 7.5859 3.46042 8.04633 4.02316 8.04633H15.278C15.8407 8.04633 16.3011 7.5859 16.3011 7.02316C16.3011 6.46042 15.8407 6 15.278 6H4.02316C3.46042 6 3 6.46042 3 7.02316ZM20.7007 15.0857L17.754 12.139L20.7007 9.19227C21.0998 8.79324 21.0998 8.14864 20.7007 7.74961C20.3017 7.35058 19.6571 7.35058 19.2581 7.74961L15.5849 11.4228C15.1859 11.8218 15.1859 12.4664 15.5849 12.8654L19.2581 16.5386C19.6571 16.9376 20.3017 16.9376 20.7007 16.5386C21.0895 16.1395 21.0998 15.4847 20.7007 15.0857Z" />
</svg>
