<svg class="fill-current stroke-current w-full h-full" style="color: inherit" stroke-width="0.2" width="24" height="24" viewBox="0 0 24 24" stroke="none" xmlns="http://www.w3.org/2000/svg">
<path d="M3.00215 22C2.74215 22 2.48215 21.9 2.29215 21.71C2.02215 21.44 1.93215 21.05 2.05215 20.69L3.82215 15.37C3.28215 14.16 2.99215 12.83 3.00215 11.5C3.00215 9.74 3.49215 8.01 4.42215 6.51C5.35215 5.01 6.67215 3.8 8.25215 3.01C9.55215 2.35 11.0121 2 12.4822 2H13.0022C15.3922 2.13 17.5822 3.11 19.2422 4.76C20.8922 6.41 21.8722 8.61 22.0022 10.94V11.5C22.0022 12.97 21.6622 14.44 20.9922 15.75C20.2022 17.32 18.9921 18.65 17.4922 19.58C15.9922 20.51 14.2622 21 12.5022 21H12.4822C11.1622 21 9.84215 20.72 8.63215 20.18L3.31215 21.95C3.21215 21.99 3.10215 22 2.99215 22H3.00215ZM12.4822 4C11.3322 4 10.1821 4.27 9.15215 4.79C7.90215 5.41 6.85215 6.37 6.12215 7.56C5.39215 8.75 5.00215 10.11 5.00215 11.5C5.00215 12.66 5.27215 13.82 5.79215 14.85C5.91215 15.09 5.93215 15.36 5.85215 15.62L4.58215 19.42L8.38215 18.15C8.63215 18.06 8.91215 18.09 9.15215 18.21C10.1821 18.73 11.3322 19 12.4822 19H12.5022C13.9022 19 15.2622 18.61 16.4422 17.88C17.6222 17.15 18.5822 16.1 19.2022 14.85C19.7222 13.81 20.0022 12.66 19.9922 11.5V11C19.8922 9.21 19.1222 7.48 17.8122 6.18C16.5121 4.88 14.7722 4.1 12.9322 4H12.4922C12.4922 4 12.4822 4 12.4722 4H12.4822Z" />
</svg>
