<svg class="fill-current stroke-current w-full h-full" style="color: inherit" stroke-width="0.2" width="24" height="24" viewBox="0 0 24 24" stroke="none" xmlns="http://www.w3.org/2000/svg">
<path d="M20 4H4C2.9 4 2 4.9 2 6V18C2 19.1 2.9 20 4 20H20C21.1 20 22 19.1 22 18V6C22 4.9 21.1 4 20 4ZM4 6H14V18H4V6ZM20 18H16V6H20V18ZM19 9H17V7H19V9ZM18 13C17.45 13 17 12.55 17 12C17 11.45 17.45 11 18 11C18.55 11 19 11.45 19 12C19 12.55 18.55 13 18 13ZM18 17C17.45 17 17 16.55 17 16C17 15.45 17.45 15 18 15C18.55 15 19 15.45 19 16C19 16.55 18.55 17 18 17ZM6.3 9.97C5.84 9.51 5.92 8.73 6.48 8.4C6.88 8.18 7.36 8 7.9 8C8.7 8 9.29 8.39 9.71 8.67C10.02 8.88 10.22 9 10.4 9C10.53 9 10.66 8.95 10.79 8.88C11.18 8.66 11.67 8.72 11.99 9.04C12.45 9.5 12.37 10.28 11.81 10.6C11.42 10.83 10.94 11 10.4 11C9.61 11 9.03 10.62 8.61 10.34C8.28 10.12 8.09 10 7.9 10C7.77 10 7.64 10.05 7.51 10.12C7.11 10.35 6.62 10.28 6.3 9.97ZM7.9 15C8.09 15 8.28 15.12 8.61 15.34C9.03 15.62 9.61 16 10.4 16C10.94 16 11.42 15.83 11.81 15.6C12.37 15.28 12.45 14.5 11.99 14.04C11.67 13.72 11.18 13.66 10.79 13.88C10.66 13.95 10.53 14 10.4 14C10.22 14 10.02 13.88 9.71 13.67C9.29 13.39 8.7 13 7.9 13C7.36 13 6.88 13.18 6.48 13.4C5.92 13.73 5.84 14.51 6.3 14.96C6.62 15.28 7.11 15.34 7.5 15.12C7.64 15.05 7.77 15 7.9 15V15Z" />
</svg>
