<svg class="fill-current stroke-current w-full h-full" style="color: inherit" stroke-width="0.2" width="24" height="24" viewBox="0 0 24 24" stroke="none" xmlns="http://www.w3.org/2000/svg">
<path d="M17.2112 5.7975H19.0036C19.4542 5.7975 19.6744 5.25643 19.354 4.94581L16.5603 2.1503C16.3601 1.9499 16.0497 1.9499 15.8494 2.1503L13.0557 4.94581C12.7453 5.25643 12.9656 5.7975 13.4162 5.7975H15.2086V9.97574L17.2112 11.9797V5.7975ZM3.29289 2.30059C2.90237 2.69136 2.90237 3.32261 3.29289 3.71338L9.20066 9.62505V15.8173H7.4083C6.95771 15.8173 6.73742 16.3583 7.05784 16.669L9.85151 19.4544C10.0518 19.6448 10.3622 19.6448 10.5625 19.4544L13.3561 16.6589C13.6765 16.3383 13.4462 15.8073 13.0057 15.8073H11.2133V11.619L20.2953 20.7069C20.6858 21.0977 21.3166 21.0977 21.7071 20.7069C22.0976 20.3161 22.0976 19.6849 21.7071 19.2941L4.70474 2.30059C4.31423 1.90982 3.6834 1.90982 3.29289 2.30059V2.30059Z" />
</svg>
