<svg class="fill-current stroke-current w-full h-full" style="color: inherit" stroke-width="0.2" width="24" height="24" viewBox="0 0 24 24" stroke="none" xmlns="http://www.w3.org/2000/svg">
<path d="M15.5 13.6133C15.5 15.5831 13 17.0604 13 18.5378H11C11 17.0604 8.5 15.5831 8.5 13.6133C8.5 11.7125 10.07 10.1662 12 10.1662C13.93 10.1662 15.5 11.7125 15.5 13.6133ZM13 19.5227H11V20.0151C11 20.5568 11.45 21 12 21C12.55 21 13 20.5568 13 20.0151V19.5227ZM19 13.1209C19 14.4899 18.59 15.7702 17.88 16.8438C17.63 17.2279 17.69 17.74 18.02 18.065C18.46 18.4984 19.22 18.4393 19.56 17.9173C20.47 16.5385 21 14.8937 21 13.1209C21 10.7966 20.09 8.67905 18.6 7.09338C18.21 6.67973 17.55 6.66988 17.15 7.06384C16.77 7.43809 16.77 8.03887 17.13 8.43283C18.29 9.66394 19 11.3087 19 13.1209ZM15.65 4.89708L12.86 2.14924C12.54 1.83408 12 2.05076 12 2.49396V4.2569C7.03 4.2569 3 8.226 3 13.1209C3 14.8937 3.53 16.5385 4.44 17.9271C4.78 18.4491 5.54 18.5082 5.98 18.0749C6.31 17.7499 6.37 17.2476 6.12 16.8635C4.73 14.746 4.48 11.8405 6.25 8.98437C7.45 7.06384 9.71 6.03955 12 6.22668V7.98963C12 8.43283 12.54 8.64951 12.85 8.33434L15.64 5.5865C15.84 5.39937 15.84 5.08421 15.65 4.89708Z" />
</svg>
