<svg class="fill-current stroke-current w-full h-full" style="color: inherit" stroke-width="0.2" width="24" height="24" viewBox="0 0 24 24" stroke="none" xmlns="http://www.w3.org/2000/svg">
<path fill-rule="evenodd" clip-rule="evenodd" d="M10.9554 4.23895C9.93575 3.98895 8.93612 3.93895 7.99646 4.05895C9.86578 6.16895 11.0054 8.94895 11.0054 11.9989C11.0054 15.0489 9.86578 17.8189 7.99646 19.9289C8.32634 19.9689 8.66621 19.9989 9.00609 19.9989C13.8443 19.9989 17.6829 15.6989 16.8932 10.7089C16.4034 7.58895 14.0243 4.98895 10.9554 4.23895V4.23895ZM5.35741 19.7089C7.5866 17.8789 9.00609 15.1089 9.00609 11.9989C9.00609 8.88895 7.5866 6.11895 5.35741 4.28895C4.75763 3.79895 4.94756 2.83895 5.6673 2.57895C7.41667 1.94895 9.39595 1.79895 11.4352 2.29895C15.2838 3.23895 18.2627 6.47895 18.8725 10.3989C19.8522 16.6189 15.0539 21.9989 9.00609 21.9989C7.83651 21.9989 6.70692 21.7889 5.6673 21.4089C4.93756 21.1589 4.76763 20.1989 5.35741 19.7089V19.7089Z" />
</svg>
