<svg class="fill-current stroke-current w-full h-full" style="color: inherit" stroke-width="0.2" width="24" height="24" viewBox="0 0 24 24" stroke="none" xmlns="http://www.w3.org/2000/svg">
<path d="M12.9143 6.9C14.3152 6.9 15.0156 7.44 15.2721 8.3C15.4004 8.73 15.8246 9 16.2685 9H16.3277C17.0183 9 17.5312 8.29 17.2846 7.64C16.8505 6.49 15.8936 5.56 14.3941 5.19V4.5C14.3941 3.67 13.7331 3 12.9143 3C12.0955 3 11.4346 3.67 11.4346 4.5V5.16C11.0498 5.24 10.6947 5.37 10.3494 5.52L11.839 7.03C12.1547 6.95 12.5197 6.9 12.9143 6.9ZM5.28856 4.62C4.90381 5.01 4.90381 5.64 5.28856 6.03L7.98175 8.77C7.98175 10.85 9.52072 11.99 11.839 12.68L15.3017 16.19C14.9663 16.68 14.2659 17.1 12.9143 17.1C11.2866 17.1 10.448 16.51 10.1225 15.67C9.97452 15.28 9.6391 15 9.23463 15H9.06692C8.35663 15 7.84364 15.74 8.12973 16.39C8.71177 17.72 9.99425 18.51 11.4444 18.83V19.5C11.4444 20.33 12.1054 21 12.9242 21C13.743 21 14.404 20.33 14.404 19.5V18.85C15.351 18.67 16.2093 18.3 16.8308 17.73L18.3205 19.24C18.7052 19.63 19.3267 19.63 19.7114 19.24C20.0962 18.85 20.0962 18.22 19.7114 17.83L6.67955 4.62C6.2948 4.23 5.6733 4.23 5.28856 4.62Z" />
</svg>
