<svg class="fill-current stroke-current w-full h-full" style="color: inherit" stroke-width="0.2" width="24" height="24" viewBox="0 0 24 24" stroke="none" xmlns="http://www.w3.org/2000/svg">
<path d="M5 4C5 3.45 5.45 3 6 3H9C9.55 3 10 3.45 10 4C10 4.55 9.55 5 9 5H6C5.45 5 5 4.55 5 4ZM11 19H7L13 22V20H17L11 17V19ZM7 16C5.34 16 4 14.66 4 13H2V10C2 7.79 3.79 6 6 6H9C9.55 6 10 6.45 10 7V11H13.52L17 6.65V4H15C14.45 4 14 3.55 14 3C14 2.45 14.45 2 15 2H17C18.1 2 19 2.9 19 4V7.35L14.48 13H10C10 14.66 8.66 16 7 16ZM8 11V8H6C4.89 8 4 8.89 4 10V11H8ZM7 14C7.55 14 8 13.55 8 13C8 12.45 7.55 12 7 12C6.45 12 6 12.45 6 13C6 13.55 6.45 14 7 14ZM22 13C22 14.66 20.66 16 19 16C17.34 16 16 14.66 16 13C16 11.34 17.34 10 19 10C20.66 10 22 11.34 22 13ZM20 13C20 12.45 19.55 12 19 12C18.45 12 18 12.45 18 13C18 13.55 18.45 14 19 14C19.55 14 20 13.55 20 13Z" />
</svg>
