<svg class="fill-current stroke-current w-full h-full" style="color: inherit" stroke-width="0.2" width="24" height="24" viewBox="0 0 24 24" stroke="none" xmlns="http://www.w3.org/2000/svg">
<path d="M19.94 12C19.98 12.33 20 12.66 20 13C20 18 16 22 11 22C6 22 2 18 2 13C2 8 6 4 11 4C11.69 4 12.36 4.08 13 4.23V6.29C12.37 6.1 11.7 6 11 6C7.1 6 4 9.1 4 13C4 16.9 7.1 20 11 20C14.9 20 18 16.9 18 13C18 12.66 17.97 12.33 17.92 12H19.94ZM12 9C12 8.45 11.55 8 11 8C10.45 8 10 8.45 10 9V14.16L13.39 16.79C13.57 16.93 13.79 17 14 17C14.3 17 14.59 16.87 14.79 16.61C15.13 16.17 15.05 15.55 14.62 15.21L12.01 13.18V9H12ZM22 5H20V3C20 2.45 19.55 2 19 2C18.45 2 18 2.45 18 3V5H16C15.45 5 15 5.45 15 6C15 6.55 15.45 7 16 7H18V9C18 9.55 18.45 10 19 10C19.55 10 20 9.55 20 9V7H22C22.55 7 23 6.55 23 6C23 5.45 22.55 5 22 5Z" />
</svg>
