<svg class="fill-current stroke-current w-full h-full" style="color: inherit" stroke-width="0.2" width="24" height="24" viewBox="0 0 24 24" stroke="none" xmlns="http://www.w3.org/2000/svg">
<path d="M21.9823 3H6.84994C6.39596 3 5.75031 3.15 5.2459 3.88L0.171501 11.44L0 11.84V12.2L5.25599 20.13C5.63934 20.67 6.26482 21 6.92055 21H21.9823C23.0921 21 24 20.1 24 19V5C24 3.9 23.0921 3 21.9823 3ZM21.9823 19H6.92055L2.20933 12L6.92055 5H21.9823V19ZM7.35435 12C7.35435 11.17 8.03026 10.5 8.86759 10.5C9.70492 10.5 10.3808 11.17 10.3808 12C10.3808 12.83 9.70492 13.5 8.86759 13.5C8.03026 13.5 7.35435 12.83 7.35435 12ZM12.3985 12C12.3985 11.17 13.0744 10.5 13.9117 10.5C14.7491 10.5 15.425 11.17 15.425 12C15.425 12.83 14.7491 13.5 13.9117 13.5C13.0744 13.5 12.3985 12.83 12.3985 12ZM17.4426 12C17.4426 11.17 18.1185 10.5 18.9559 10.5C19.7932 10.5 20.4691 11.17 20.4691 12C20.4691 12.83 19.7932 13.5 18.9559 13.5C18.1185 13.5 17.4426 12.83 17.4426 12Z" />
</svg>
