<svg class="fill-current stroke-current w-full h-full" style="color: inherit" stroke-width="0.2" width="24" height="24" viewBox="0 0 24 24" stroke="none" xmlns="http://www.w3.org/2000/svg">
<path d="M19.3811 9.33115L4.38115 3.08115C4.01115 2.92115 3.58115 3.00115 3.29115 3.29115C3.00115 3.58115 2.92115 4.01115 3.08115 4.38115L9.33115 19.3811C9.49115 19.7511 9.85115 20.0011 10.2511 20.0011C10.2611 20.0011 10.2711 20.0011 10.2811 20.0011C10.7011 19.9911 11.0611 19.7211 11.1911 19.3211L12.8911 14.3111L17.2911 18.7111C17.4911 18.9111 17.7411 19.0011 18.0011 19.0011C18.2611 19.0011 18.5111 18.9011 18.7111 18.7111C19.1011 18.3211 19.1011 17.6911 18.7111 17.3011L14.3111 12.9011L19.3211 11.2011C19.7111 11.0711 19.9811 10.7011 20.0011 10.2911C20.0111 9.87115 19.7711 9.49115 19.3911 9.33115H19.3811ZM12.1411 11.5211C11.8511 11.6211 11.6111 11.8511 11.5211 12.1511L10.1511 16.1711L5.86115 5.86115L16.1711 10.1511L12.1511 11.5211H12.1411Z" />
</svg>
