<svg class="fill-current stroke-current w-full h-full" style="color: inherit" stroke-width="0.2" width="24" height="24" viewBox="0 0 24 24" stroke="none" xmlns="http://www.w3.org/2000/svg">
<path d="M20 8.95531C19.96 4.5513 16.4 1 12 1C7.6 1 4.04 4.5513 4 8.95531V14.9745C4 19.4086 7.58 23 12 23C16.42 23 20 19.4086 20 14.9745V8.95531ZM18 8.95531H13V3.09667C15.81 3.56817 17.96 6.00593 18 8.95531ZM11 3.09667V8.95531H6C6.04 6.00593 8.19 3.56817 11 3.09667ZM18 14.9745C18 18.295 15.31 20.9936 12 20.9936C8.69 20.9936 6 18.295 6 14.9745V10.9617H18V14.9745Z" />
</svg>
