<svg class="fill-current stroke-current w-full h-full" style="color: inherit" stroke-width="0.2" width="24" height="24" viewBox="0 0 24 24" stroke="none" xmlns="http://www.w3.org/2000/svg">
<path d="M3.09564 13.71C2.9489 10.922 4.83557 8.57873 7.36161 8.09055L6.53357 8.93672C6.12479 9.3598 6.12479 10.0432 6.53357 10.4663C6.94235 10.8894 7.60268 10.8894 8.01146 10.4663L10.7262 7.65662C11.1349 7.23354 11.1349 6.5501 10.7262 6.12701L8.02194 3.31731C7.61316 2.89423 6.95283 2.89423 6.54405 3.31731C6.13527 3.74039 6.13527 4.42384 6.54405 4.84692L7.46642 5.80157V5.86666C3.65116 6.33313 0.72682 9.82628 1.0203 13.9703C1.29282 17.9842 4.70979 21 8.59842 21H10.4222C10.9987 21 11.4704 20.5118 11.4704 19.9152C11.4704 19.3185 10.9987 18.8303 10.4222 18.8303H8.5565C5.72649 18.8303 3.24238 16.6173 3.09564 13.71V13.71ZM13.5667 15.5759V18.8303C13.5667 20.0237 14.51 21 15.663 21H20.9037C22.0567 21 23 20.0237 23 18.8303V15.5759C23 14.3826 22.0567 13.4062 20.9037 13.4062H15.663C14.51 13.4062 13.5667 14.3826 13.5667 15.5759ZM20.9037 18.8303H15.663V15.5759H20.9037V18.8303ZM20.9037 3.64276H15.663C14.51 3.64276 13.5667 4.6191 13.5667 5.81242V9.0669C13.5667 10.2602 14.51 11.2366 15.663 11.2366H20.9037C22.0567 11.2366 23 10.2602 23 9.0669V5.81242C23 4.6191 22.0567 3.64276 20.9037 3.64276Z" />
</svg>
