<svg class="fill-current stroke-current w-full h-full" style="color: inherit" stroke-width="0.2" width="24" height="24" viewBox="0 0 24 24" stroke="none" xmlns="http://www.w3.org/2000/svg">
<path d="M3.09564 10.29C2.9489 13.078 4.83557 15.4213 7.36161 15.9094L6.53357 15.0524C6.12479 14.6294 6.12479 13.9459 6.53357 13.5228C6.94235 13.0997 7.60268 13.0997 8.01146 13.5228L10.7262 16.3325C11.1349 16.7556 11.1349 17.4391 10.7262 17.8621L8.02194 20.6827C7.61316 21.1058 6.95283 21.1058 6.54405 20.6827C6.13527 20.2596 6.13527 19.5762 6.54405 19.1531L7.46642 18.1984V18.1333C3.65116 17.6669 0.72682 14.1737 1.0203 10.0297C1.29282 6.01582 4.70979 3 8.59842 3H10.4222C10.9987 3 11.4704 3.48817 11.4704 4.08483C11.4704 4.68148 10.9987 5.16966 10.4222 5.16966H8.5565C5.72649 5.16966 3.24238 7.3827 3.09564 10.29V10.29ZM15.663 10.5938H20.9037C22.0567 10.5938 23 9.61745 23 8.42414V5.16966C23 3.97634 22.0567 3 20.9037 3H15.663C14.51 3 13.5667 3.97634 13.5667 5.16966V8.42414C13.5667 9.61745 14.51 10.5938 15.663 10.5938ZM20.9037 8.42414H15.663V5.16966H20.9037V8.42414ZM20.9037 20.3572H15.663C14.51 20.3572 13.5667 19.3809 13.5667 18.1876V14.9331C13.5667 13.7398 14.51 12.7634 15.663 12.7634H20.9037C22.0567 12.7634 23 13.7398 23 14.9331V18.1876C23 19.3809 22.0567 20.3572 20.9037 20.3572Z" />
</svg>
