<svg class="fill-current stroke-current w-full h-full" style="color: inherit" stroke-width="0.2" width="24" height="24" viewBox="0 0 24 24" stroke="none" xmlns="http://www.w3.org/2000/svg">
<path d="M18.26 3H5.74C4.23 3 3 4.23 3 5.74V18.26C3 19.77 4.23 21 5.74 21H18.26C19.77 21 21 19.77 21 18.26V5.74C21 4.23 19.77 3 18.26 3ZM17 9H19V11H17V9ZM15 11H9V5H15V11ZM7 11H5V9H7V11ZM5 13H7V15H5V13ZM9 13H15V19H9V13ZM17 13H19V15H17V13ZM19 5.74V7H17V5H18.26C18.67 5 19 5.33 19 5.74ZM5.74 5H7V7H5V5.74C5 5.33 5.33 5 5.74 5ZM5 18.26V17H7V19H5.74C5.33 19 5 18.67 5 18.26ZM18.26 19H17V17H19V18.26C19 18.67 18.67 19 18.26 19Z" />
</svg>
