<svg class="fill-current stroke-current w-full h-full" style="color: inherit" stroke-width="0.2" width="24" height="24" viewBox="0 0 24 24" stroke="none" xmlns="http://www.w3.org/2000/svg">
<path d="M2.2912 17.697C2.68966 18.101 3.33333 18.101 3.73179 17.697L8.42136 12.9415C8.81982 12.5374 9.46349 12.5374 9.86195 12.9415L11.0573 14.1537C12.2527 15.3659 14.1939 15.3659 15.3893 14.1537L19.66 9.83337L21.1312 11.3253C21.448 11.6464 21.9997 11.4185 21.9997 10.9627V6.51802C22.0099 6.22793 21.7851 6 21.4991 6H17.116C16.6562 6 16.4314 6.55946 16.7584 6.88064L18.2296 8.37254L13.9692 12.6929C13.5707 13.0969 12.927 13.0969 12.5286 12.6929L11.3332 11.4807C10.1378 10.2685 8.19659 10.2685 7.00121 11.4807L2.2912 16.2361C1.90295 16.6402 1.90295 17.3033 2.2912 17.697Z" />
</svg>
