<svg class="fill-current stroke-current w-full h-full" style="color: inherit" stroke-width="0.2" width="24" height="24" viewBox="0 0 24 24" stroke="none" xmlns="http://www.w3.org/2000/svg">
<path d="M21.7206 7.27047L21.6613 7.21092C21.2762 6.82382 20.6442 6.84367 20.2887 7.25062L18.1359 9.68238C16.1115 7.38958 13.2972 6 10.1174 6C7.64866 6 5.34778 6.86352 3.45178 8.28288C2.98766 8.63027 2.93828 9.31514 3.34316 9.72208L3.40241 9.78164C3.72828 10.1092 4.25166 10.1687 4.61703 9.89082C6.18716 8.69975 8.07329 7.98511 10.1174 7.98511C12.8232 7.98511 15.1438 9.23573 16.8028 11.201L13.9588 14.4169L10.7099 11.1514C10.3248 10.7643 9.70266 10.7643 9.31754 11.1514L3.27403 17.2357C2.90866 17.603 2.90866 18.2084 3.27403 18.5757L3.42216 18.7246C3.78753 19.0918 4.38991 19.0918 4.75528 18.7246L10.0088 13.4342L13.2182 16.66C13.623 17.067 14.2748 17.0471 14.65 16.6203L17.9582 12.8883C18.5704 14 19.0247 15.2605 19.2617 16.5906C19.3407 17.0571 19.7258 17.4045 20.1998 17.4045H20.2887C20.8812 17.4045 21.3256 16.8586 21.2169 16.273C20.9009 14.4367 20.2492 12.7593 19.3506 11.3102L21.7601 8.58065C22.0958 8.20347 22.0761 7.62779 21.7206 7.27047V7.27047Z" />
</svg>
