<svg class="fill-current stroke-current w-full h-full" style="color: inherit" stroke-width="0.2" width="24" height="24" viewBox="0 0 24 24" stroke="none" xmlns="http://www.w3.org/2000/svg">
<path d="M15.9917 1.00014C15.8418 1.00014 16.1016 0.980139 11.7152 1.42014C8.46794 1.75014 6 4.48014 6 7.75014C6 11.0201 8.46794 13.7501 11.7152 14.0801L13.6137 14.2701L13.0541 15.1201C12.7044 15.0401 12.3547 15.0001 11.995 15.0001C9.2373 15.0001 6.99917 17.2401 6.99917 20.0001V22.0001C6.99917 22.5501 7.44879 23.0001 7.99833 23.0001H15.9917C16.5412 23.0001 16.9908 22.5501 16.9908 22.0001V20.0001C16.9908 18.3301 16.1615 16.8501 14.9026 15.9401L15.8718 14.4901C15.9117 14.4901 15.9617 14.5001 16.0017 14.5001C17.0908 14.5001 18 13.6101 18 12.5001V3.00014C17.99 1.89014 17.0808 1.00014 15.9917 1.00014ZM14.9925 21.0001H8.9975V20.0001C8.9975 18.3501 10.3464 17.0001 11.995 17.0001C13.6436 17.0001 14.9925 18.3501 14.9925 20.0001V21.0001ZM7.99833 7.75014C7.99833 5.50014 9.68693 3.64014 11.9151 3.41014L15.9917 3.00014L16.0216 12.5001L11.9151 12.0801C9.68693 11.8601 7.99833 10.0001 7.99833 7.75014Z" />
</svg>
