<svg class="fill-current stroke-current w-full h-full" style="color: inherit" stroke-width="0.2" width="24" height="24" viewBox="0 0 24 24" stroke="none" xmlns="http://www.w3.org/2000/svg">
<path d="M12.5 3C8.22219 3 4.32241 4.64028 1.34784 7.34675C0.910109 7.74657 0.880264 8.43344 1.28815 8.85376L11.7937 19.7001C12.1817 20.1 12.8084 20.1 13.2063 19.7001L23.7119 8.85376C24.1197 8.43344 24.0899 7.74657 23.6522 7.34675C20.6776 4.64028 16.7778 3 12.5 3ZM17.2553 12.6162C15.8825 11.714 14.2509 11.2014 12.5 11.2014C10.7491 11.2014 9.11754 11.714 7.74466 12.6162L3.46685 8.2079C6.04349 6.15755 9.18718 5.05035 12.5 5.05035C15.8128 5.05035 18.9565 6.15755 21.5332 8.19765L17.2553 12.6162Z" />
</svg>
