<svg class="fill-current stroke-current w-full h-full" style="color: inherit" stroke-width="0.2" width="24" height="24" viewBox="0 0 24 24" stroke="none" xmlns="http://www.w3.org/2000/svg">
<path d="M16.4544 4.55124C16.282 4.55124 16.13 4.64394 16.0387 4.78812L15.9678 4.94261L10.7162 16.9411C10.554 17.2398 10.4526 17.5694 10.4526 17.9299C10.4526 19.0731 11.3651 20 12.4904 20C13.4636 20 14.2848 19.2997 14.4775 18.3624L14.4876 18.3315L16.9613 5.0662C16.9613 4.77782 16.7382 4.55124 16.4544 4.55124ZM2.4233 9.76262C2.94034 10.2879 3.77166 10.3291 4.3394 9.85532C7.1375 7.5277 10.6655 6.58018 14.0517 7.01274L15.2581 4.25257C10.848 3.44923 6.17438 4.56154 2.51454 7.5998C1.86571 8.14565 1.82516 9.15497 2.4233 9.76262ZM22.5778 9.76262C23.1759 9.15497 23.1354 8.14565 22.4764 7.5998C21.0976 6.45659 19.5769 5.59146 17.9751 4.99411L17.4378 7.89847C18.5834 8.38253 19.658 9.02108 20.6515 9.84502C21.2395 10.3188 22.0607 10.2879 22.5778 9.76262ZM18.4921 13.9132C19.1004 13.2952 19.0599 12.2344 18.3502 11.7298C17.8838 11.3899 17.3972 11.1015 16.8903 10.844L16.3327 13.8514C16.4442 13.9235 16.5558 13.9956 16.6571 14.078C17.235 14.4899 18.0055 14.4075 18.4921 13.9132ZM6.4988 13.9029C7.00571 14.4178 7.78634 14.459 8.37434 14.0368C9.32732 13.357 10.4121 12.9451 11.5171 12.7803L12.8148 9.81412C10.6554 9.75232 8.47572 10.3703 6.64074 11.7092C5.94121 12.2344 5.89052 13.2849 6.4988 13.9029Z" />
</svg>
