<svg class="fill-current stroke-current w-full h-full" style="color: inherit" stroke-width="0.2" width="24" height="24" viewBox="0 0 24 24" stroke="none" xmlns="http://www.w3.org/2000/svg">
<path d="M2.29874 6.79C1.90042 7.18 1.90042 7.81 2.29874 8.2L10.2548 16H4.63756C4.07583 16 3.61624 16.45 3.61624 17C3.61624 17.55 4.07583 18 4.63756 18H18.936C19.4978 18 19.9574 17.55 19.9574 17C19.9574 16.45 19.4978 16 18.936 16H13.3188L18.5786 10.85C18.8441 10.95 19.1403 11 19.4467 11C20.8561 11 22 9.88 22 8.5C22 7.12 20.8561 6 19.4467 6C18.0373 6 16.8934 7.12 16.8934 8.5C16.8934 8.85 16.9649 9.17 17.0977 9.47L11.7868 14.67L3.7388 6.79C3.34048 6.4 2.69705 6.4 2.29874 6.79Z" />
</svg>
