<svg class="fill-current stroke-current w-full h-full" style="color: inherit" stroke-width="0.2" width="24" height="24" viewBox="0 0 24 24" stroke="none" xmlns="http://www.w3.org/2000/svg">
<path d="M18.9864 21.9802L15.6164 21.8519C12.7664 21.7432 10.0864 20.4296 8.27637 18.2469C6.43637 16.0346 5.67637 13.2395 6.12637 10.3852C6.86637 5.78272 10.8564 2.30617 15.6164 2.1284L18.9864 2L16.2364 3.92593C13.5764 5.78272 11.9964 8.80494 11.9964 12.0049C11.9964 15.2049 13.5764 18.2173 16.2364 20.0741L18.9964 22L18.9864 21.9802ZM12.3364 4.97284C10.1264 6.08889 8.50637 8.18272 8.09637 10.7012C7.72637 12.9926 8.33637 15.2346 9.81637 17.0025C10.5164 17.842 11.3664 18.5136 12.3164 19.0074C10.8264 17.0025 9.99637 14.5531 9.99637 12.0049C9.99637 9.45679 10.8364 6.99753 12.3364 4.98272V4.97284Z" />
</svg>
