<svg class="fill-current stroke-current w-full h-full" style="color: inherit" stroke-width="0.2" width="24" height="24" viewBox="0 0 24 24" stroke="none" xmlns="http://www.w3.org/2000/svg">
<path fill-rule="evenodd" clip-rule="evenodd" d="M12.7567 4.24147C9.79395 4.99147 7.49711 7.58147 7.02423 10.7015C6.26184 15.6915 9.96766 19.9915 14.6385 19.9915C14.9667 19.9915 15.2948 19.9715 15.6132 19.9315C13.8086 17.8215 12.7084 15.0415 12.7084 11.9915C12.7084 8.94147 13.8086 6.17147 15.6132 4.06147C14.7061 3.94147 13.741 3.98147 12.7567 4.23147V4.24147ZM17.3503 2.41147C15.787 1.93147 14.0692 1.84147 12.2934 2.30147C8.58763 3.24147 5.71176 6.48147 5.12307 10.4015C4.17731 16.6215 8.80959 22.0015 14.6482 22.0015C15.5843 22.0015 16.5011 21.8615 17.36 21.5915C17.3793 21.5915 17.3889 21.5915 17.4083 21.5815C17.6206 21.5115 17.8232 21.4415 18.0259 21.3615C18.2575 21.2715 18.4891 21.1715 18.7111 21.0615C19.0488 20.9015 19.1068 20.4215 18.7979 20.2015C18.547 20.0215 18.3154 19.8315 18.0838 19.6315C18.0838 19.6315 18.0645 19.6115 18.0548 19.6115C17.9487 19.5215 17.8522 19.4315 17.746 19.3315C17.746 19.3315 17.746 19.3315 17.7364 19.3315C15.8352 17.5115 14.6482 14.9015 14.6482 12.0115C14.6482 9.12147 15.8352 6.51147 17.7364 4.69147C17.8329 4.60147 17.9294 4.51147 18.0355 4.42147C18.0355 4.42147 18.0548 4.41147 18.0548 4.40147C18.2865 4.19147 18.5374 4.00147 18.7883 3.82147C19.0875 3.60147 19.0295 3.12147 18.6918 2.96147C18.4698 2.85147 18.2479 2.75147 18.0162 2.66147C18.0162 2.66147 17.9969 2.66147 17.9873 2.65147C17.7943 2.57147 17.5916 2.50147 17.389 2.44147C17.3696 2.44147 17.36 2.44147 17.3407 2.43147L17.3503 2.41147Z" />
</svg>
