<svg class="fill-current stroke-current w-full h-full" style="color: inherit" stroke-width="0.2" width="24" height="24" viewBox="0 0 24 24" stroke="none" xmlns="http://www.w3.org/2000/svg">
<path d="M21.4951 20.3146L4.68542 3.50488C4.29934 3.1188 3.67565 3.1188 3.28957 3.50488C2.90348 3.89097 2.90348 4.51465 3.28957 4.90074L10.7539 12.3651L12.1003 13.8897V18.8395H8.14042C7.59594 18.8395 7.15045 19.285 7.15045 19.8295C7.15045 20.374 7.59594 20.8195 8.14042 20.8195H18.0401C18.3569 20.8195 18.6242 20.6611 18.8123 20.4235L20.0993 21.7104C20.4853 22.0965 21.109 22.0965 21.4951 21.7104C21.8812 21.3243 21.8812 20.7007 21.4951 20.3146ZM14.0802 18.8395V15.7013L17.2184 18.8395H14.0802ZM8.96209 4.97994L6.98215 3H20.5645C21.3565 3 22 3.64348 22 4.43546C22 4.78195 21.8713 5.12844 21.6337 5.38583L15.8622 11.88L10.942 6.95988H17.6144L19.3766 4.97994H8.96209Z" />
</svg>
