<svg class="fill-current stroke-current w-full h-full" style="color: inherit" stroke-width="0.2" width="24" height="24" viewBox="0 0 24 24" stroke="none" xmlns="http://www.w3.org/2000/svg">
<path fill-rule="evenodd" clip-rule="evenodd" d="M15.5729 10.14L18.2442 12.92V10.18C18.2442 10.18 18.2442 10.15 18.2442 10.14H15.5829H15.5729ZM20.2452 17.88L10.8805 8.14H15.4428V6.1C15.4428 4.36 14.0821 2.94 12.4013 2.94C11.3808 2.94 10.4803 3.46 9.93007 4.27C9.72997 4.57 9.56989 4.9 9.46984 5.27C9.3998 5.54 9.35978 5.82 9.35978 6.11V6.58L7.67894 4.83C8.22922 2.62 10.1302 1 12.4113 1C15.1127 1 17.3137 3.28 17.3137 6.1V8.14H18.2942C19.3748 8.14 20.2552 9.06 20.2552 10.18V17.89L20.2452 17.88ZM5.66794 5.6C5.66794 5.6 5.64793 5.58 5.63793 5.57C5.25774 5.21 4.65744 5.22 4.28725 5.6C3.93708 5.96 3.90706 6.53 4.19721 6.92C4.20721 6.94 4.22722 6.96 4.23723 6.97C4.25724 6.99 4.26724 7.01 4.28725 7.03L5.5879 8.39C5.30776 8.55 5.07765 8.78 4.90756 9.05C4.69746 9.37 4.5774 9.76 4.5774 10.17V20.36C4.5774 21.48 5.45784 22.4 6.53838 22.4H19.0546L19.3348 22.7C19.7149 23.1 20.3353 23.1 20.7154 22.7C21.0756 22.32 21.0956 21.72 20.7655 21.32C20.7455 21.3 20.7355 21.28 20.7154 21.26L5.66794 5.6ZM17.1237 20.41L7.00861 9.88L6.60841 10.12C6.60841 10.12 6.5884 10.13 6.5884 10.14C6.5884 10.14 6.5884 10.14 6.5884 10.15C6.5884 10.15 6.5884 10.16 6.5884 10.17V20.36C6.5884 20.36 6.5884 20.39 6.5884 20.4H17.1237V20.41Z" />
</svg>
