<svg class="fill-current stroke-current w-full h-full" style="color: inherit" stroke-width="0.2" width="24" height="24" viewBox="0 0 24 24" stroke="none" xmlns="http://www.w3.org/2000/svg">
<path fill-rule="evenodd" clip-rule="evenodd" d="M13.2584 7L13.3186 7.6L20.1411 14.39L20.8847 7H13.2584V7ZM21.7186 18.79L11.3895 8.51L11.1483 6.1C11.0981 5.51 11.5603 5 12.1531 5H16.0717V2C16.0717 1.45 16.5239 1 17.0765 1C17.6292 1 18.0813 1.45 18.0813 2V5H22C22.5928 5 23.055 5.51 22.9947 6.1L21.7186 18.79ZM2.81866 2.81C2.42679 2.42 1.79378 2.42 1.40191 2.81C1 3.2 1 3.83 1.40191 4.22L6.41578 9.21C5.67224 9.37 4.9488 9.61 4.29569 9.93C2.68804 10.73 1.47225 12.03 1.10048 13.84C0.989952 14.45 1.49234 15 2.10526 15H12.2234L14.233 17H2.00478C1.45215 17 1 17.45 1 18C1 18.55 1.45215 19 2.00478 19H15.067C15.288 19 15.489 18.92 15.6598 18.79C15.7301 18.74 15.7904 18.67 15.8507 18.6L19.8698 22.6C20.2617 23 20.8947 22.99 21.2866 22.6C21.6784 22.21 21.6784 21.59 21.2966 21.2C21.2966 21.2 21.2966 21.2 21.2866 21.19L2.81866 2.81ZM15.5392 21.12C15.3985 21.04 15.2378 21 15.067 21H2.00478C1.45215 21 1 21.45 1 22C1 22.55 1.45215 23 2.00478 23H15.067C15.6196 23 16.0717 22.55 16.0717 22C16.0717 21.83 16.0316 21.67 15.9512 21.53C15.8607 21.35 15.71 21.21 15.5392 21.12ZM10.2139 13H3.61244C4.24545 12.13 5.33062 11.48 6.8177 11.17L8.10382 10.9L10.2139 13V13Z" />
</svg>
