<svg class="fill-current stroke-current w-full h-full" style="color: inherit" stroke-width="0.2" width="24" height="24" viewBox="0 0 24 24" stroke="none" xmlns="http://www.w3.org/2000/svg">
<path d="M19.71 7.79C19.63 7.66 19.53 7.53 19.41 7.42L14.59 2.59C14.47 2.47 14.35 2.37 14.21 2.29C13.9 2.1 13.54 2 13.17 2H6C4.9 2 4 2.9 4 4V20C4 21.1 4.89 22 5.99 22H18C19.1 22 20 21.1 20 20V8.83C20 8.46 19.9 8.1 19.71 7.79ZM18 20H6V4H11V8C11 9.65 12.35 11 14 11H18V20ZM14 9C13.45 9 13 8.55 13 8V3.5L18.5 9H14ZM13 14H15C15.55 14 16 14.45 16 15C16 15.55 15.55 16 15 16H13V18C13 18.55 12.55 19 12 19C11.45 19 11 18.55 11 18V16H9C8.45 16 8 15.55 8 15C8 14.45 8.45 14 9 14H11V12C11 11.45 11.45 11 12 11C12.55 11 13 11.45 13 12V14Z" />
</svg>
