<svg class="fill-current stroke-current w-full h-full" style="color: inherit" stroke-width="0.2" width="24" height="24" viewBox="0 0 24 24" stroke="none" xmlns="http://www.w3.org/2000/svg">
<path d="M19.6877 17.1692L18.3274 15.8462V10.7179C18.3274 7.56923 16.5979 4.93333 13.582 4.2359V3.53846C13.582 2.68718 12.8754 2 12.0002 2C11.1249 2 10.4184 2.68718 10.4184 3.53846V4.2359C7.39188 4.93333 5.67299 7.55897 5.67299 10.7179V15.8462L4.31264 17.1692C3.64829 17.8154 4.11228 18.9231 5.05082 18.9231H18.939C19.8881 18.9231 20.3521 17.8154 19.6877 17.1692ZM16.2183 16.8718H7.78205V10.7179C7.78205 8.17436 9.3744 6.10256 12.0002 6.10256C14.626 6.10256 16.2183 8.17436 16.2183 10.7179V16.8718ZM12.0002 22C13.1602 22 14.1092 21.0769 14.1092 19.9487H9.89112C9.89112 21.0769 10.8296 22 12.0002 22Z" />
</svg>
