<svg class="fill-current stroke-current w-full h-full" style="color: inherit" stroke-width="0.2" width="24" height="24" viewBox="0 0 24 24" stroke="none" xmlns="http://www.w3.org/2000/svg">
<path fill-rule="evenodd" clip-rule="evenodd" d="M16.085 16.6573V10.7044C16.085 8.23312 14.8447 6.5923 13.0541 6.16208L12.0038 5.91196L10.9435 6.16208C9.15299 6.5923 7.91262 8.22311 7.91262 10.7044V16.6573L7.66255 16.9075H16.3451L16.095 16.6473L16.085 16.6573ZM4.60165 17.1676L5.92204 15.8469V10.7144C5.92204 10.3942 5.94204 10.084 5.97205 9.77389C5.97205 9.74387 5.97205 9.70385 5.98205 9.67384V9.65383C6.18211 8.03302 6.84231 6.61231 7.91262 5.61181C8.13269 5.4017 8.37276 5.21161 8.62283 5.04152C9.16299 4.68134 9.78317 4.41121 10.4734 4.24112V3.54077C10.4734 2.69035 11.1436 2 11.9838 2C12.8241 2 13.5143 2.69035 13.5143 3.54077V4.24112C14.2145 4.41121 14.8347 4.69135 15.3848 5.06153C15.6249 5.22161 15.855 5.4017 16.065 5.6018C17.1353 6.6023 17.8055 8.02301 18.0056 9.63382C18.0056 9.63382 18.0056 9.64382 18.0056 9.65383C18.0056 9.69385 18.0056 9.72386 18.0156 9.76388C18.0556 10.074 18.0656 10.4042 18.0656 10.7244V15.8569L19.366 17.1776C20.0062 17.8279 19.546 18.9285 18.6458 18.9285H5.32186C4.42159 18.9285 3.97146 17.8179 4.61165 17.1776L4.60165 17.1676ZM11.5437 21.95C11.6937 21.98 11.8438 22 11.9938 22C12.1439 22 12.3039 21.98 12.444 21.95C13.0141 21.8199 13.5043 21.4397 13.7744 20.9195C13.9344 20.6293 14.0144 20.2991 14.0144 19.949H9.97323C9.97323 20.2991 10.0633 20.6293 10.2133 20.9195C10.4834 21.4297 10.9635 21.8099 11.5437 21.95ZM20.0062 9.41371C20.1062 9.86393 20.5163 10.1941 20.9865 10.1941C21.6067 10.1941 22.0868 9.63382 21.9868 9.0035C21.5967 6.57229 20.4163 4.41121 18.6958 2.7904C18.2857 2.41021 17.6655 2.42021 17.2754 2.81041C17.0253 3.07054 16.9353 3.42071 17.0053 3.74087C17.0453 3.93097 17.1453 4.12106 17.3054 4.26113C18.7058 5.56178 19.6861 7.34267 19.9962 9.33367C19.9962 9.36368 19.9962 9.38369 20.0062 9.4037V9.41371ZM5.33186 2.7904C5.73198 2.41021 6.35216 2.42021 6.74228 2.81041C6.99235 3.06053 7.08238 3.41071 7.02236 3.73087C6.98235 3.93097 6.88232 4.12106 6.71227 4.27114C5.30185 5.57179 4.33157 7.35268 4.02148 9.34367C4.02148 9.37369 4.02148 9.3937 4.00147 9.42371C3.89144 9.87394 3.48132 10.1941 3.02118 10.1941C2.401 10.2041 1.92086 9.63382 2.01088 9.01351C2.401 6.56228 3.59135 4.3912 5.33186 2.7904Z" />
</svg>
