<svg class="fill-current stroke-current w-full h-full" style="color: inherit" stroke-width="0.2" width="24" height="24" viewBox="0 0 24 24" stroke="none" xmlns="http://www.w3.org/2000/svg">
<path d="M11.2806 22C12.4192 22 13.3508 21.0769 13.3508 19.9487H9.21047C9.21047 21.0769 10.142 22 11.2806 22ZM11.2806 6.10256C13.858 6.10256 15.4209 8.17436 15.4209 10.7179V10.8205L17.4911 12.8718V10.7179C17.4911 7.56923 15.8039 4.93333 12.8332 4.2359V3.53846C12.8332 2.68718 12.1397 2 11.2806 2C10.4215 2 9.728 2.68718 9.728 3.53846V4.2359C9.47959 4.29744 9.24152 4.38974 9.0138 4.47179L10.7113 6.15385C10.8976 6.13333 11.084 6.10256 11.2806 6.10256ZM4.45946 2.87179L3 4.31795L5.90857 7.2C5.37033 8.22564 5.07016 9.42564 5.07016 10.7179V15.8462L3 17.8974V18.9231H17.7395L19.5405 20.7077L21 19.2615L4.45946 2.87179ZM15.4209 16.8718H7.14031V10.7179C7.14031 10.0205 7.26452 9.3641 7.49224 8.76923L15.4209 16.6256V16.8718Z" />
</svg>
