<svg class="fill-current stroke-current w-full h-full" style="color: inherit" stroke-width="0.2" width="24" height="24" viewBox="0 0 24 24" stroke="none" xmlns="http://www.w3.org/2000/svg">
<path d="M20.6539 16.9283L19.1239 15.5407V10.1564C19.1239 6.85342 17.1739 4.07818 13.7839 3.34528V2.61238C13.7839 1.71336 12.9939 1 12.0039 1C11.0139 1 10.2239 1.72313 10.2239 2.61238V3.34528C6.82388 4.07818 4.88388 6.83388 4.88388 10.1564V15.5407L3.35388 16.9283C2.60388 17.6026 3.12388 18.7752 4.18388 18.7752H19.8039C20.8739 18.7752 21.3939 17.6124 20.6439 16.9283H20.6539ZM16.7539 16.6156H7.25388V10.1466C7.25388 7.47883 9.04388 5.29967 12.0039 5.29967C14.9639 5.29967 16.7539 7.47883 16.7539 10.1466V16.6156ZM12.0039 22C13.3039 22 14.3739 21.0326 14.3739 19.8404H9.62388C9.62388 21.0228 10.6839 22 11.9939 22H12.0039ZM12.0039 11.7394C11.4539 11.7394 11.0039 11.2997 11.0039 10.7622V8.80782C11.0039 8.27036 11.4539 7.83062 12.0039 7.83062C12.5539 7.83062 13.0039 8.27036 13.0039 8.80782V10.7622C13.0039 11.2997 12.5539 11.7394 12.0039 11.7394ZM12.0039 12.7166C12.5539 12.7166 13.0039 13.1564 13.0039 13.6938C13.0039 14.2313 12.5539 14.671 12.0039 14.671C11.4539 14.671 11.0039 14.2313 11.0039 13.6938C11.0039 13.1564 11.4539 12.7166 12.0039 12.7166Z" />
</svg>
