<svg class="fill-current stroke-current w-full h-full" style="color: inherit" stroke-width="0.2" width="24" height="24" viewBox="0 0 24 24" stroke="none" xmlns="http://www.w3.org/2000/svg">
<path d="M20.9591 9.27L20.9688 9.21C21.1247 8.59 20.6766 8 20.0628 8H17.3741L18.056 5.21C18.2021 4.59 17.754 4 17.1403 4C16.7019 4 16.3317 4.3 16.2246 4.73L15.4257 8H11.529L12.2109 5.21C12.3571 4.59 11.9089 4 11.2952 4C10.8568 4 10.4866 4.3 10.3795 4.73L9.58064 8H6.42429C5.98591 8 5.60598 8.3 5.50856 8.73L5.48908 8.79C5.34295 9.41 5.79107 10 6.40481 10H9.09355L8.11937 14H4.96302C4.52464 14 4.15445 14.3 4.04729 14.73L4.0278 14.79C3.88168 15.41 4.3298 16 4.94353 16H7.63228L6.95035 18.79C6.80422 19.41 7.25234 20 7.86608 20C8.30446 20 8.67465 19.7 8.78181 19.27L9.58064 16H13.4774L12.7954 18.79C12.6493 19.41 13.0974 20 13.7112 20C14.1495 20 14.5197 19.7 14.6269 19.27L15.4257 16H18.5821C19.0205 16 19.3906 15.7 19.4978 15.27L19.5075 15.21C19.6537 14.6 19.2055 14 18.5918 14H15.9128L16.887 10H20.0433C20.4817 10 20.8617 9.7 20.9591 9.27ZM13.9645 14H10.0677L11.0419 10H14.9386L13.9645 14Z" />
</svg>
