<svg class="fill-current stroke-current w-full h-full" style="color: inherit" stroke-width="0.2" width="24" height="24" viewBox="0 0 24 24" stroke="none" xmlns="http://www.w3.org/2000/svg">
<path d="M15.5 11.3553C15.5 13.3939 13 14.9228 13 16.4518H11C11 14.9228 8.5 13.3939 8.5 11.3553C8.5 9.388 10.07 7.7877 12 7.7877C13.93 7.7877 15.5 9.388 15.5 11.3553ZM13 17.4711H11V17.9807C11 18.5413 11.45 19 12 19C12.55 19 13 18.5413 13 17.9807V17.4711ZM22 11.8649C22 9.35742 21.11 7.064 19.64 5.29042C19.35 4.94385 18.84 4.90308 18.52 5.22926C18.25 5.50447 18.22 5.95296 18.46 6.24856C19.73 7.75712 20.5 9.72437 20.5 11.8649C20.5 14.0054 19.73 15.9727 18.46 17.4914C18.21 17.787 18.25 18.2355 18.52 18.5107C18.84 18.8369 19.35 18.7961 19.64 18.4496C21.11 16.6658 22 14.3724 22 11.8649ZM3.5 11.8649C3.5 9.72437 4.27 7.75712 5.54 6.23836C5.79 5.94277 5.75 5.49428 5.48 5.21906C5.17 4.90308 4.65 4.93366 4.36 5.28022C2.89 7.064 2 9.35742 2 11.8649C2 14.3724 2.89 16.6658 4.36 18.4496C4.65 18.7961 5.16 18.8369 5.48 18.5107C5.75 18.2355 5.78 17.787 5.54 17.4914C4.27 15.9727 3.5 14.0054 3.5 11.8649ZM17.5 11.8649C17.5 13.1696 17.06 14.3826 16.32 15.3407C16.09 15.6363 16.12 16.0644 16.39 16.3396C16.71 16.6658 17.24 16.6352 17.52 16.2683C18.44 15.0553 19 13.5264 19 11.8649C19 10.2034 18.44 8.67449 17.51 7.47172C17.23 7.10477 16.7 7.07419 16.38 7.40037C16.12 7.66538 16.08 8.09349 16.31 8.39928C17.06 9.34723 17.5 10.5602 17.5 11.8649ZM7.62 16.3294C7.88 16.0644 7.92 15.6363 7.69 15.3305C6.94 14.3826 6.5 13.1696 6.5 11.8649C6.5 10.5602 6.94 9.34723 7.68 8.38909C7.91 8.09349 7.88 7.66539 7.61 7.39017C7.3 7.07419 6.77 7.10477 6.49 7.46152C5.56 8.67449 5 10.2034 5 11.8649C5 13.5264 5.56 15.0553 6.49 16.2683C6.77 16.625 7.3 16.6556 7.62 16.3294Z" />
</svg>
