<svg class="fill-current stroke-current w-full h-full" style="color: inherit" stroke-width="0.2" width="24" height="24" viewBox="0 0 24 24" stroke="none" xmlns="http://www.w3.org/2000/svg">
<path d="M17.66 7.26227L12.71 2.29416C12.32 1.90195 11.69 1.90195 11.3 2.29416L6.34 7.26227C4.78 8.83115 4 10.923 4 12.9344C4 14.9457 4.78 17.0678 6.34 18.6366C7.9 20.2055 9.95 21 12 21C14.05 21 16.1 20.2055 17.66 18.6366C19.22 17.0678 20 14.9457 20 12.9344C20 10.923 19.22 8.83115 17.66 7.26227ZM6 13.2964C6.01 11.285 6.62 10.0078 7.76 8.87138L12 4.51674L16.24 8.92166C17.38 10.048 17.99 11.285 18 13.2964H6Z" />
</svg>
