<svg class="fill-current stroke-current w-full h-full" style="color: inherit" stroke-width="0.2" width="24" height="24" viewBox="0 0 24 24" stroke="none" xmlns="http://www.w3.org/2000/svg">
<path d="M13.1737 16.5425C13.1737 17.0925 12.7439 17.5525 12.1842 17.5525L5.38809 17.6425L7.69678 19.9525C8.08656 20.3425 8.08656 20.9725 7.69678 21.3625C7.49689 21.5625 7.24704 21.6525 6.98718 21.6525C6.72733 21.6525 6.47747 21.5525 6.27758 21.3625L2.29983 17.3825C2.27984 17.3625 2.26985 17.3225 2.23986 17.3025C2.1799 17.2325 2.11993 17.1525 2.07995 17.0725C2.02998 16.9525 2.00999 16.8325 2 16.7125C2 16.7125 2 16.7125 2 16.7025C2 16.5725 2.01999 16.4425 2.06996 16.3225C2.09994 16.2525 2.14992 16.1925 2.18989 16.1325C2.21988 16.0925 2.23986 16.0425 2.26985 16.0025L6.14766 11.9125C6.52744 11.5125 7.15709 11.4925 7.55686 11.8725C7.95663 12.2525 7.97662 12.8825 7.59684 13.2825L5.34811 15.6525L12.1443 15.5625H12.1543C12.704 15.5625 13.1437 16.0025 13.1537 16.5525L13.1737 16.5425ZM21.9287 8.3425C22.0287 8.1025 22.0187 7.8225 21.9287 7.5825C21.8888 7.4825 21.8288 7.4025 21.7588 7.3325C21.7388 7.3125 21.7388 7.2825 21.7189 7.2725L17.7411 3.2925C17.3513 2.9025 16.7217 2.9025 16.3319 3.2925C15.9421 3.6825 15.9421 4.3125 16.3319 4.7025L18.6406 7.0125L11.8444 7.1025C11.2947 7.1025 10.855 7.5625 10.855 8.1125C10.855 8.6625 11.3047 9.1025 11.8544 9.1025H11.8644L18.6606 9.0125L16.4119 11.3825C16.0321 11.7825 16.0521 12.4125 16.4518 12.7925C16.6417 12.9725 16.8916 13.0625 17.1414 13.0625C17.4013 13.0625 17.6711 12.9625 17.871 12.7525L21.7488 8.6625C21.7488 8.6625 21.7988 8.5825 21.8288 8.5425C21.8688 8.4825 21.9287 8.4225 21.9487 8.3425H21.9287Z" />
</svg>
