<svg class="fill-current stroke-current w-full h-full" style="color: inherit" stroke-width="0.2" width="24" height="24" viewBox="0 0 24 24" stroke="none" xmlns="http://www.w3.org/2000/svg">
<path d="M11.3842 2.21673C11.7477 1.92776 12.2671 1.92776 12.641 2.21673L22.6019 10.0725C23.0485 10.4257 23.1316 11.1 22.7888 11.5602C22.6746 11.71 22.5396 11.8171 22.3838 11.892C22.0514 12.0418 21.6567 12.0097 21.3451 11.7743C21.3451 11.7743 21.3451 11.7743 21.3347 11.7743L20.3064 10.9609V19.9297C20.3064 20.5184 19.8286 21 19.2573 21H4.72631C4.15504 20.9893 3.68764 20.5077 3.68764 19.919V10.9394L2.66974 11.7529C2.35813 11.999 1.95305 12.0311 1.62068 11.8813C1.46487 11.8064 1.32985 11.6993 1.21559 11.5495C0.862444 11.0893 0.955925 10.415 1.40255 10.0511L11.3842 2.21673ZM5.77537 9.31263V18.8488H18.2394V9.32333L11.997 4.41079L5.77537 9.31263ZM8.89139 12.4271C9.46266 12.4271 9.93006 12.9087 9.93006 13.4974C9.93006 14.086 9.46266 14.5677 8.89139 14.5677C8.32012 14.5677 7.85271 14.086 7.85271 13.4974C7.85271 12.9087 8.32012 12.4271 8.89139 12.4271ZM12.0074 12.4271C12.5787 12.4271 13.0461 12.9087 13.0461 13.4974C13.0461 14.086 12.5787 14.5677 12.0074 14.5677C11.4361 14.5677 10.9687 14.086 10.9687 13.4974C10.9687 12.9087 11.4361 12.4271 12.0074 12.4271ZM15.1234 12.4271C15.6947 12.4271 16.1621 12.9087 16.1621 13.4974C16.1621 14.086 15.6947 14.5677 15.1234 14.5677C14.5522 14.5677 14.0848 14.086 14.0848 13.4974C14.0848 12.9087 14.5522 12.4271 15.1234 12.4271Z" />
</svg>
