<svg class="fill-current stroke-current w-full h-full" style="color: inherit" stroke-width="0.2" width="24" height="24" viewBox="0 0 24 24" stroke="none" xmlns="http://www.w3.org/2000/svg">
<path d="M18.0324 16.29L21.7011 12.7C22.0996 12.31 22.0996 11.68 21.7011 11.29L18.0324 7.7C17.6339 7.31 16.99 7.31 16.5915 7.7C16.193 8.09 16.193 8.72 16.5915 9.11L18.5025 11H10.1534C9.59137 11 9.13151 11.45 9.13151 12C9.13151 12.55 9.59137 13 10.1534 13H18.5025L16.5813 14.88C16.1827 15.27 16.1827 15.9 16.5813 16.29C16.9798 16.68 17.6339 16.68 18.0324 16.29ZM19.3507 19H5.04383V5H19.3507V6C19.3507 6.55 19.8105 7 20.3726 7C20.9347 7 21.3945 6.55 21.3945 6V5C21.3945 3.9 20.4748 3 19.3507 3H5.04383C3.91973 3 3 3.9 3 5V19C3 20.1 3.91973 21 5.04383 21H19.3507C20.485 21 21.3945 20.1 21.3945 19V18C21.3945 17.45 20.9347 17 20.3726 17C19.8105 17 19.3507 17.45 19.3507 18V19Z" />
</svg>
