<svg class="fill-current stroke-current w-full h-full" style="color: inherit" stroke-width="0.2" width="24" height="24" viewBox="0 0 24 24" stroke="none" xmlns="http://www.w3.org/2000/svg">
<path d="M12 2C6.48 2 2 6.48 2 12C2 17.52 6.48 22 12 22C17.52 22 22 17.52 22 12C22 6.48 17.52 2 12 2ZM12 20C7.59 20 4 16.41 4 12C4 7.59 7.59 4 12 4C16.41 4 20 7.59 20 12C20 16.41 16.41 20 12 20ZM15.22 11.88C15.72 12.42 16 13.14 16 13.91C16 14.68 15.72 15.39 15.22 15.93C14.71 16.49 13.99 16.81 13.25 16.81H13V17.99C13 18.54 12.55 18.99 12 18.99C11.45 18.99 11 18.54 11 17.99V16.81H9C8.45 16.81 8 16.36 8 15.81C8 15.26 8.45 14.81 9 14.81H13.25C13.43 14.81 13.61 14.73 13.75 14.58C13.91 14.41 14 14.16 14 13.91C14 13.66 13.91 13.41 13.75 13.24C13.61 13.09 13.43 13.01 13.25 13.01H10.75C10.01 13.01 9.29 12.69 8.77 12.13C8.27 11.59 8 10.87 8 10.11C8 9.35 8.28 8.63 8.78 8.08C9.29 7.52 10.01 7.2 10.75 7.2H11V6.02C11 5.47 11.45 5.02 12 5.02C12.55 5.02 13 5.47 13 6.02V7.2H14.5C15.05 7.2 15.5 7.65 15.5 8.2C15.5 8.75 15.05 9.2 14.5 9.2H10.75C10.57 9.2 10.39 9.28 10.25 9.43C10.09 9.6 10 9.85 10 10.1C10 10.35 10.09 10.6 10.25 10.77C10.39 10.92 10.57 11.01 10.75 11.01H13.25C13.99 11.01 14.71 11.33 15.22 11.89V11.88Z" />
</svg>
