<svg class="fill-current stroke-current w-full h-full" style="color: inherit" stroke-width="0.2" width="24" height="24" viewBox="0 0 24 24" stroke="none" xmlns="http://www.w3.org/2000/svg">
<path d="M3 15.9542H21C21.55 15.9542 22 16.4145 22 16.9771C22 17.5397 21.55 18 21 18H3C2.45 18 2 17.5397 2 16.9771C2 16.4145 2.45 15.9542 3 15.9542ZM2.5 11.4226C2.86 11.6374 3.32 11.5045 3.53 11.1362L4 10.2974L4.48 11.1464C4.69 11.5147 5.15 11.6374 5.51 11.4329C5.87 11.218 5.99 10.7577 5.79 10.3895L5.3 9.53023H6.25C6.66 9.53023 7 9.18244 7 8.76305C7 8.34365 6.66 7.99586 6.25 7.99586H5.3L5.77 7.15706C5.98 6.78881 5.86 6.31827 5.5 6.10346C5.14 5.89887 4.68 6.02162 4.47 6.38987L4 7.22867L3.53 6.38987C3.32 6.02162 2.86 5.89887 2.5 6.10346C2.14 6.31827 2.02 6.78881 2.23 7.15706L2.7 7.99586H1.75C1.34 7.99586 1 8.34365 1 8.76305C1 9.18244 1.34 9.53023 1.75 9.53023H2.7L2.22 10.3793C2.02 10.7475 2.14 11.218 2.5 11.4226ZM10.5 11.4226C10.86 11.6374 11.32 11.5045 11.53 11.1362L12 10.2974L12.48 11.1464C12.69 11.5147 13.15 11.6374 13.51 11.4329C13.87 11.218 13.99 10.7577 13.79 10.3895L13.31 9.54046H14.26C14.67 9.54046 15.01 9.19267 15.01 8.77327C15.01 8.35388 14.67 8.00609 14.26 8.00609H13.3L13.77 7.16729C13.98 6.79904 13.85 6.3285 13.5 6.11369C13.14 5.89887 12.68 6.03185 12.48 6.38987L12 7.22867L11.53 6.38987C11.32 6.02162 10.86 5.89887 10.51 6.11369C10.15 6.3285 10.03 6.79904 10.24 7.16729L10.71 8.00609H9.75C9.34 7.99586 9 8.34365 9 8.76305C9 9.18244 9.34 9.53023 9.75 9.53023H10.7L10.22 10.3793C10.02 10.7475 10.14 11.218 10.5 11.4226ZM23 8.76305C23 8.34365 22.66 7.99586 22.25 7.99586H21.3L21.77 7.15706C21.98 6.78881 21.85 6.31827 21.5 6.10346C21.14 5.88864 20.68 6.02162 20.48 6.37964L20 7.22867L19.53 6.38987C19.32 6.02162 18.86 5.89887 18.51 6.11369C18.15 6.3285 18.03 6.79904 18.24 7.16729L18.71 8.00609H17.76C17.34 7.99586 17 8.34365 17 8.76305C17 9.18244 17.34 9.53023 17.75 9.53023H18.7L18.22 10.3793C18.01 10.7475 18.14 11.218 18.5 11.4226C18.86 11.6374 19.32 11.5045 19.53 11.1362L20 10.2974L20.48 11.1464C20.69 11.5147 21.15 11.6374 21.51 11.4329C21.87 11.218 21.99 10.7577 21.79 10.3895L21.31 9.54046H22.26C22.66 9.53023 23 9.18244 23 8.76305Z" />
</svg>
