<svg class="fill-current stroke-current w-full h-full" style="color: inherit" stroke-width="0.2" width="24" height="24" viewBox="0 0 24 24" stroke="none" xmlns="http://www.w3.org/2000/svg">
<path d="M16 12C13.24 12 11 14.24 11 17C11 19.76 13.24 22 16 22C18.76 22 21 19.76 21 17C21 14.24 18.76 12 16 12ZM17.65 19.35L15.5 17.2V14H16.5V16.79L18.35 18.64L17.65 19.35ZM17 3H13.82C13.4 1.84 12.3 1 11 1C9.7 1 8.6 1.84 8.18 3H5C3.9 3 3 3.9 3 5V20C3 21.1 3.9 22 5 22H11.11C10.52 21.43 10.04 20.75 9.69 20H5V5H7V8H15V5H17V10.08C17.71 10.18 18.38 10.39 19 10.68V5C19 3.9 18.1 3 17 3ZM11 5C10.45 5 10 4.55 10 4C10 3.45 10.45 3 11 3C11.55 3 12 3.45 12 4C12 4.55 11.55 5 11 5Z" />
</svg>
