<svg class="fill-current stroke-current w-full h-full" style="color: inherit" stroke-width="0.2" width="24" height="24" viewBox="0 0 24 24" stroke="none" xmlns="http://www.w3.org/2000/svg">
<path d="M21.6977 13.986L18.9994 11.2846C18.7395 11.0245 18.3698 10.9545 18.04 11.0445L17.0206 5.94197C16.9407 5.56178 16.6508 5.26163 16.2711 5.16158L3.22923 2.02001C3.15928 2 3.09931 2 3.02936 2C3.00937 2 2.99938 2 2.97939 2C2.86946 2 2.75953 2.03002 2.65959 2.06003C2.62961 2.06003 2.60962 2.08004 2.57964 2.09005C2.46971 2.14007 2.36977 2.2001 2.28982 2.28014C2.19988 2.37019 2.13991 2.47024 2.08994 2.57029C2.07995 2.6003 2.06996 2.62031 2.05996 2.64032C2.02998 2.76038 2 2.87044 2 2.98049C2 2.9905 2 3.0005 2 3.02051C2 3.09055 2 3.16058 2.01999 3.23062L5.17801 16.2771C5.26796 16.6573 5.56777 16.9475 5.95753 17.0275L11.0543 18.048C10.9644 18.3782 11.0344 18.7484 11.2942 19.0085L13.9925 21.7099C14.1924 21.91 14.4422 22 14.7021 22C14.9619 22 15.2117 21.8999 15.4116 21.7099L21.7077 15.4067C22.0974 15.0165 22.0974 14.3862 21.7077 13.996L21.6977 13.986ZM4.79825 6.21211L8.53592 9.95398C8.37602 10.3042 8.28607 10.6843 8.28607 11.0945C8.28607 12.6353 9.54528 13.8959 11.0843 13.8959C12.6234 13.8959 13.8826 12.6353 13.8826 11.0945C13.8826 9.55378 12.6234 8.29315 11.0843 8.29315C10.6746 8.29315 10.2948 8.38319 9.94503 8.54327L6.20737 4.8014L15.1718 6.97249L16.2911 12.5753L12.5534 16.3172L6.9569 15.1966L4.79825 6.21211ZM11.0843 10.2941C11.524 10.2941 11.8838 10.6543 11.8838 11.0945C11.8838 11.5348 11.524 11.8949 11.0843 11.8949C10.6446 11.8949 10.2848 11.5348 10.2848 11.0945C10.2848 10.6543 10.6446 10.2941 11.0843 10.2941ZM14.6821 19.5888L13.3929 18.2981L13.5828 18.1081L18.08 13.6058L18.2698 13.4157L19.559 14.7064L14.6721 19.5988L14.6821 19.5888Z" />
</svg>
