<svg class="fill-current stroke-current w-full h-full" style="color: inherit" stroke-width="0.2" width="24" height="24" viewBox="0 0 24 24" stroke="none" xmlns="http://www.w3.org/2000/svg">
<path d="M10.1706 11.19C12.4277 11.19 14.2558 9.35746 14.2558 7.09498C14.2558 4.8325 12.4277 3 10.1706 3C7.91344 3 6.08528 4.8325 6.08528 7.09498C6.08528 9.35746 7.91344 11.19 10.1706 11.19ZM10.1706 5.04749C11.294 5.04749 12.2132 5.96886 12.2132 7.09498C12.2132 8.2211 11.294 9.14247 10.1706 9.14247C9.04711 9.14247 8.12792 8.2211 8.12792 7.09498C8.12792 5.96886 9.04711 5.04749 10.1706 5.04749ZM4.04264 17.3324C4.26733 16.5953 7.42321 15.2849 10.1706 15.2849C10.1706 14.5683 10.3033 13.8824 10.528 13.2477C7.73982 13.1453 2 14.5376 2 17.3324V19.3799H11.7434C11.2123 18.7862 10.7936 18.1002 10.528 17.3324H4.04264ZM19.8118 17.3427C20.2918 16.5237 20.5267 15.5306 20.3021 14.4557C19.9548 12.7768 18.5454 11.4357 16.85 11.2207C14.1639 10.8726 11.8966 13.1351 12.2541 15.8275C12.4787 17.5269 13.8065 18.9397 15.4814 19.2878C16.5538 19.513 17.5445 19.2775 18.3615 18.7964L20.2612 20.7006C20.6595 21.0998 21.3029 21.0998 21.7013 20.7006C22.0996 20.3013 22.0996 19.6563 21.7013 19.2571L19.8118 17.3427ZM16.3087 17.3222C15.1852 17.3222 14.2661 16.4008 14.2661 15.2747C14.2661 14.1486 15.1852 13.2272 16.3087 13.2272C17.4321 13.2272 18.3513 14.1486 18.3513 15.2747C18.3513 16.4008 17.4321 17.3222 16.3087 17.3222Z" />
</svg>
