<svg class="fill-current stroke-current w-full h-full" style="color: inherit" stroke-width="0.2" width="24" height="24" viewBox="0 0 24 24" stroke="none" xmlns="http://www.w3.org/2000/svg">
<path fill-rule="evenodd" clip-rule="evenodd" d="M15.87 16.22L15.82 16.16C15.5 15.79 15.2 15.43 14.91 15.09C14.4 14.49 13.9 13.9 13.34 13.26C12.96 12.81 12.66 12.59 12.46 12.53H12.44L12.42 12.52C12.35 12.52 12.24 12.51 11.99 12.51C11.85 12.51 11.77 12.51 11.69 12.51C11.62 12.51 11.59 12.51 11.58 12.51H11.56L11.54 12.52C11.35 12.58 11.06 12.79 10.66 13.25C10.36 13.6 10.07 13.95 9.78 14.28C9.26 14.89 8.75 15.5 8.18 16.16L8.13 16.22L8.08 16.27C8 16.35 7.92 16.43 7.84 16.51C7.23 17.12 6.76 17.59 6.41 18.1C6.1 18.56 6 18.9 6.01 19.23C6.08 19.43 6.19 19.6 6.3 19.73C6.41 19.85 6.54 19.94 6.72 19.99C6.76 19.99 6.86 19.99 7.01 19.97C7.28 19.94 7.6 19.9 8.02 19.85C8.09 19.85 8.16 19.83 8.23 19.82C9.22 19.69 10.53 19.53 11.92 19.53H12.1C13.48 19.53 14.8 19.69 15.78 19.82C15.86 19.83 15.94 19.84 16.02 19.85C16.42 19.9 16.74 19.94 17 19.97C17.16 19.99 17.25 19.99 17.3 19.99C17.47 19.93 17.6 19.84 17.71 19.73C17.83 19.6 17.93 19.43 18 19.23C18.02 18.9 17.92 18.56 17.61 18.1C17.26 17.58 16.79 17.11 16.18 16.51C16.1 16.43 16.02 16.35 15.94 16.27L15.88 16.21L15.87 16.22ZM19.95 19.66C19.66 20.67 18.93 21.69 17.62 21.98C17.28 22.04 16.61 21.96 15.74 21.84C14.72 21.71 13.42 21.54 12.08 21.54H11.9C10.57 21.54 9.29 21.71 8.27 21.84C7.39 21.96 6.7 22.05 6.36 21.98C5.05 21.69 4.32 20.68 4.03 19.66C3.75 17.75 5.15 16.36 6.41 15.11C6.49 15.03 6.57 14.95 6.65 14.87C7.21 14.22 7.72 13.62 8.23 13.02C8.52 12.68 8.81 12.33 9.13 11.97C9.6 11.43 10.18 10.89 10.88 10.65C10.99 10.61 11.1 10.58 11.21 10.56C11.47 10.51 11.74 10.51 12 10.51C12.26 10.51 12.53 10.51 12.78 10.55C12.89 10.57 13 10.6 13.11 10.64C13.81 10.88 14.4 11.42 14.86 11.96C15.42 12.61 15.93 13.21 16.44 13.82C16.73 14.16 17.02 14.51 17.34 14.87C17.42 14.95 17.5 15.03 17.58 15.11C18.84 16.36 20.25 17.76 19.95 19.67V19.66ZM17 9.52999C17.02 10.9 18.13 12 19.5 12C20.87 12 22 10.88 22 9.49999C22 8.11999 20.88 6.99999 19.5 6.99999C19.41 6.99999 19.32 6.99999 19.24 7.00999C17.98 7.13999 17 8.19999 17 9.49999C17 9.50999 17 9.51999 17 9.52999ZM15.26 7.97999C16.52 7.84999 17.5 6.78999 17.5 5.48999C17.5 5.47999 17.5 5.46999 17.5 5.45999C17.48 4.08999 16.37 2.98999 15 2.98999C14.28 2.98999 13.62 3.29999 13.17 3.78999C12.76 4.23999 12.5 4.82999 12.5 5.48999C12.5 6.14999 12.75 6.73999 13.17 7.18999C13.63 7.67999 14.28 7.98999 15 7.98999C15.09 7.98999 15.18 7.98999 15.26 7.97999ZM10.83 7.18999C11.24 6.73999 11.5 6.14999 11.5 5.48999C11.5 4.82999 11.25 4.23999 10.83 3.78999C10.37 3.29999 9.72 2.98999 9 2.98999C7.63 2.98999 6.52 4.08999 6.5 5.45999C6.5 5.46999 6.5 5.47999 6.5 5.48999C6.5 6.77999 7.48 7.84999 8.74 7.97999C8.83 7.97999 8.91 7.98999 9 7.98999C9.72 7.98999 10.38 7.67999 10.83 7.18999ZM4.76 6.99999C4.67 6.99999 4.59 6.98999 4.5 6.98999C3.12 6.98999 2 8.10999 2 9.48999C2 10.87 3.12 11.99 4.5 11.99C5.88 11.99 6.98 10.89 7 9.51999C7 9.50999 7 9.49999 7 9.48999C7 8.19999 6.02 7.12999 4.76 6.99999Z" />
</svg>
