<svg class="fill-current stroke-current w-full h-full" style="color: inherit" stroke-width="0.2" width="24" height="24" viewBox="0 0 24 24" stroke="none" xmlns="http://www.w3.org/2000/svg">
<path d="M24 19.0697V9.07719C24 8.5276 23.55 8.07794 23 8.07794H17C16.45 8.07794 16 8.5276 16 9.07719V12.6845L18 14.683V10.0764H22V17.0712H20.39L23.32 19.999C23.71 19.8691 24 19.5094 24 19.0697ZM21 6.07944C21.55 6.07944 22 5.62978 22 5.08019C22 4.5306 21.55 4.08094 21 4.08094H7.39L9.39 6.07944H21ZM1.36 2.29228C0.97 2.68199 0.97 3.31152 1.36 3.70122L2.47 4.81039C2.18 5.16013 2 5.5998 2 6.07944V17.0712H1.5C0.67 17.0712 0 17.7407 0 18.5701C0 19.3995 0.67 20.0689 1.5 20.0689H17.73L19.37 21.7077C19.76 22.0974 20.39 22.0974 20.78 21.7077C21.17 21.318 21.17 20.6885 20.78 20.2988L2.77 2.29228C2.38 1.90257 1.75 1.90257 1.36 2.29228ZM4 17.0712V6.34924L14.73 17.0712H4Z" />
</svg>
