<svg class="fill-current stroke-current w-full h-full" style="color: inherit" stroke-width="0.2" width="24" height="24" viewBox="0 0 24 24" stroke="none" xmlns="http://www.w3.org/2000/svg">
<path d="M12.3608 7.7C12.0762 7.42 11.629 7.42 11.3444 7.7L7.78713 11.2L4.22981 7.7C3.94523 7.42 3.49802 7.42 3.21344 7.7C2.92885 7.98 2.92885 8.42 3.21344 8.7L6.77075 12.2L3.21344 15.7C2.92885 15.98 2.92885 16.42 3.21344 16.7C3.49802 16.98 3.94523 16.98 4.22981 16.7L7.78713 13.2L11.3444 16.7C11.629 16.98 12.0762 16.98 12.3608 16.7C12.6454 16.42 12.6454 15.98 12.3608 15.7L8.8035 12.2L12.3608 8.7C12.6454 8.42 12.6454 7.98 12.3608 7.7V7.7ZM18.9673 1H8.8035C7.68549 1 6.77075 1.9 6.77075 3V5C6.77075 5.55 7.22812 6 7.78713 6C8.34613 6 8.8035 5.55 8.8035 5V4H18.9673V20H8.8035V19C8.8035 18.45 8.34613 18 7.78713 18C7.22812 18 6.77075 18.45 6.77075 19V21C6.77075 22.1 7.68549 23 8.8035 23H18.9673C20.0853 23 21 22.1 21 21V3C21 1.9 20.0853 1 18.9673 1Z" />
</svg>
