<svg class="fill-current stroke-current w-full h-full" style="color: inherit" stroke-width="0.2" width="24" height="24" viewBox="0 0 24 24" stroke="none" xmlns="http://www.w3.org/2000/svg">
<path d="M14.0173 1H4.00288C2.9013 1 2 1.9 2 3V21C2 22.1 2.9013 23 4.00288 23H14.0173C15.1189 23 16.0202 22.1 16.0202 21V3C16.0202 1.9 15.1189 1 14.0173 1ZM14.0173 20H4.00288V4H14.0173V20ZM20.6568 8.26C20.3964 7.94 19.9158 7.9 19.6153 8.2L19.5853 8.23C19.3349 8.48 19.3249 8.88 19.5352 9.16C20.797 10.8 20.787 13.03 19.5152 14.73C19.3049 15.01 19.3249 15.4 19.5652 15.65L19.6153 15.7C19.9057 15.99 20.3764 15.96 20.6468 15.65C22.4494 13.52 22.4494 10.46 20.6568 8.26V8.26ZM17.4422 10.37L17.3821 10.43C17.1818 10.63 17.1217 10.93 17.2319 11.19C17.4422 11.68 17.4422 12.22 17.2319 12.71C17.1217 12.97 17.1818 13.27 17.3821 13.47L17.4622 13.55C17.7827 13.87 18.3335 13.8 18.5538 13.4C19.0445 12.51 19.0445 11.46 18.5438 10.54C18.3235 10.12 17.7727 10.04 17.4422 10.37V10.37Z" />
</svg>
