<svg class="fill-current stroke-current w-full h-full" style="color: inherit" stroke-width="0.2" width="24" height="24" viewBox="0 0 24 24" stroke="none" xmlns="http://www.w3.org/2000/svg">
<path d="M18.334 23C18.2514 23 18.1689 23 18.0771 22.9908C15.1047 22.6701 12.2333 21.6437 9.74713 20.0309C7.43528 18.5647 5.43535 16.567 3.96751 14.2577C2.35289 11.7651 1.33458 8.87848 1.01349 5.90939C0.976791 5.51534 1.01349 5.13046 1.14192 4.77307C1.26118 4.40651 1.46301 4.07661 1.71988 3.79253C1.97676 3.50845 2.28867 3.28852 2.63728 3.13274C2.9859 2.97695 3.36203 2.89447 3.74734 2.89447H6.49954C7.15089 2.89447 7.80224 3.12357 8.31599 3.56344C8.82056 3.99414 9.15082 4.59895 9.24256 5.25875C9.35265 6.07434 9.55448 6.88076 9.83887 7.64136C10.0224 8.13621 10.059 8.66771 9.94896 9.18089C9.83887 9.69406 9.582 10.1706 9.21504 10.5371L8.55451 11.1969C9.63704 12.8831 11.0682 14.3218 12.7654 15.4032L13.4259 14.7434C13.802 14.3676 14.2699 14.1202 14.7928 14.0102C15.3066 13.9003 15.8387 13.9369 16.3341 14.1202C17.1047 14.4043 17.9028 14.6059 18.7101 14.7159C19.389 14.8075 19.9945 15.1466 20.4348 15.6597C20.866 16.1729 21.1045 16.8236 21.0862 17.4925V20.2325C21.0862 20.6174 21.0128 20.9931 20.8568 21.3413C20.7009 21.6896 20.4807 22.0011 20.1963 22.2669C19.9119 22.5235 19.5817 22.7251 19.2147 22.8442C18.9303 22.945 18.6367 22.9908 18.334 22.9908V23ZM6.52706 4.73641H3.75651C3.62808 4.73641 3.49964 4.7639 3.38955 4.80972C3.27029 4.86471 3.16938 4.93802 3.08681 5.02966C3.00424 5.12129 2.93085 5.23126 2.89416 5.35956C2.85746 5.47869 2.83911 5.60698 2.84829 5.73527C3.13268 8.3928 4.05925 11.0045 5.51792 13.268C6.84815 15.3665 8.65543 17.1626 10.7471 18.4914C13.0039 19.9576 15.6001 20.874 18.2698 21.1672C18.3799 21.1672 18.5083 21.1672 18.6276 21.1214C18.7468 21.0756 18.8569 21.0114 18.9578 20.929C19.0496 20.8465 19.123 20.7365 19.178 20.6266C19.233 20.5074 19.2514 20.3883 19.2514 20.2508V17.4742C19.2514 17.2451 19.178 17.0252 19.0312 16.8602C18.8844 16.6861 18.6826 16.5761 18.4624 16.5486C17.5267 16.4295 16.5909 16.1912 15.6919 15.8613C15.5267 15.7972 15.3433 15.788 15.1781 15.8247C15.013 15.8613 14.8479 15.9438 14.7286 16.0721L13.5635 17.2359C13.2699 17.5292 12.8204 17.5842 12.4626 17.3825C10.0224 15.9988 8.00407 13.9736 6.60962 11.536C6.4078 11.1786 6.46284 10.7296 6.75641 10.4363L7.92151 9.27253C8.04077 9.1534 8.12333 8.99761 8.16003 8.8235C8.19673 8.64938 8.18755 8.47527 8.12333 8.31032C7.79307 7.41226 7.55455 6.47755 7.42611 5.53367C7.39859 5.3229 7.2885 5.12129 7.11419 4.97467C6.94906 4.82805 6.73806 4.75474 6.51788 4.75474L6.52706 4.73641ZM17.4166 11.1053C16.9854 11.1053 16.6001 10.8029 16.5175 10.363C16.3799 9.64825 16.0313 8.98845 15.5084 8.47527C14.9947 7.95293 14.3341 7.61387 13.6186 7.46724C13.1232 7.36644 12.7929 6.88992 12.8938 6.39507C12.9947 5.90022 13.4718 5.57032 13.9672 5.67113C15.0497 5.8819 16.0313 6.40424 16.8019 7.18316C17.5817 7.96209 18.1046 8.94263 18.3156 10.0148C18.4166 10.5096 18.0863 10.9953 17.5909 11.087C17.5359 11.0961 17.4716 11.1053 17.4166 11.1053ZM21.0862 11.1053C20.6275 11.1053 20.2238 10.7571 20.178 10.2897C19.9945 8.64022 19.2422 7.09153 18.0679 5.91855C16.8937 4.74558 15.3433 4.0033 13.6919 3.82003C13.1874 3.76504 12.8296 3.30685 12.8846 2.812C12.9397 2.30799 13.3984 1.9506 13.8938 2.00558C15.9579 2.23468 17.8936 3.16939 19.3615 4.62645C20.8293 6.09266 21.7651 8.02624 21.9944 10.0881C22.0495 10.5921 21.6917 11.0412 21.1871 11.0961C21.1504 11.0961 21.1137 11.0961 21.0862 11.0961V11.1053Z" />
</svg>
