<svg class="fill-current stroke-current w-full h-full" style="color: inherit" stroke-width="0.2" width="24" height="24" viewBox="0 0 24 24" stroke="none" xmlns="http://www.w3.org/2000/svg">
<path d="M6.85455 3V5C6.85455 5.55 7.30922 6 7.86494 6C8.42065 6 8.87533 5.55 8.87533 5V4H18.9792V20H8.87533V19C8.87533 18.45 8.42065 18 7.86494 18C7.30922 18 6.85455 18.45 6.85455 19V21C6.85455 22.1 7.7639 23 8.87533 23H18.9792C20.0906 23 21 22.1 21 21V3C21 1.9 20.0906 1 18.9792 1H8.87533C7.7639 1 6.85455 1.9 6.85455 3ZM9.38052 15.5C9.67353 15.38 9.93624 15.21 10.1888 15.02L10.1686 15.05L11.1891 15.44C11.4215 15.53 11.6842 15.44 11.8055 15.22L12.6542 13.76C12.7754 13.55 12.7249 13.27 12.5329 13.12L11.6741 12.44L11.6539 12.47C11.6741 12.31 11.7044 12.15 11.7044 11.99C11.7044 11.83 11.6741 11.67 11.6539 11.51L11.6741 11.54L12.5329 10.86C12.7249 10.71 12.7754 10.43 12.6542 10.22L11.8055 8.76C11.6842 8.55 11.4215 8.45 11.1891 8.54L10.1686 8.93L10.1888 8.96C9.93624 8.79 9.67353 8.62 9.38052 8.5L9.20876 7.42C9.17844 7.18 8.96626 7 8.71367 7H7.01621C6.76361 7 6.55143 7.18 6.52112 7.42L6.34935 8.5C6.05634 8.62 5.79364 8.79 5.54104 8.98L5.56125 8.95L4.53065 8.56C4.29826 8.47 4.03556 8.56 3.91432 8.78L3.06559 10.24C2.94434 10.45 2.99486 10.73 3.18684 10.88L4.04567 11.56L4.06587 11.53C4.04567 11.68 4.01535 11.84 4.01535 12C4.01535 12.16 4.04567 12.32 4.06587 12.48L4.04567 12.45L3.18684 13.13C2.99486 13.28 2.94434 13.56 3.06559 13.77L3.91432 15.23C4.03556 15.44 4.29826 15.54 4.53065 15.45L5.55115 15.06L5.54104 15.02C5.79364 15.21 6.05634 15.38 6.34935 15.5L6.52112 16.57C6.55143 16.82 6.76361 17 7.01621 17H8.71367C8.96626 17 9.17844 16.82 9.20876 16.58L9.38052 15.5ZM5.84416 12C5.84416 10.9 6.75351 10 7.86494 10C8.97637 10 9.88572 10.9 9.88572 12C9.88572 13.1 8.97637 14 7.86494 14C6.75351 14 5.84416 13.1 5.84416 12Z" />
</svg>
