<svg class="fill-current stroke-current w-full h-full" style="color: inherit" stroke-width="0.2" width="24" height="24" viewBox="0 0 24 24" stroke="none" xmlns="http://www.w3.org/2000/svg">
<path d="M19.1804 21.97C19.1004 21.97 19.0105 21.97 18.9305 21.96C15.9912 21.6404 13.142 20.6314 10.6726 19.033C8.3832 17.5844 6.40371 15.6064 4.94409 13.3187C3.3445 10.8511 2.32476 7.99401 2.01484 5.06693C1.97485 4.65734 2.01484 4.27772 2.14481 3.90809C2.26478 3.53846 2.46473 3.1988 2.73466 2.90909C3.00459 2.61938 3.31451 2.38961 3.67442 2.23976C4.03432 2.07992 4.41423 2 4.80413 2H7.51343C8.19325 2.01998 8.84309 2.22977 9.36295 2.67932C9.88282 3.11888 10.2227 3.73826 10.3127 4.41758C10.4227 5.21678 10.6126 5.996 10.8926 6.74525C11.0825 7.24476 11.1225 7.79421 11.0125 8.31369C10.9026 8.84316 10.6426 9.32268 10.2627 9.7023L9.66288 10.3017C10.7026 11.9001 12.0723 13.2687 13.6818 14.3077L14.2817 13.7183C14.6616 13.3387 15.1515 13.0789 15.6713 12.969C16.2012 12.8591 16.7411 12.8991 17.2509 13.0889C17.9907 13.3686 18.7805 13.5584 19.5703 13.6683C20.2601 13.7682 20.88 14.1079 21.3299 14.6274C21.7698 15.1469 22.0097 15.8162 21.9997 16.4955V19.1928C21.9997 19.5824 21.9197 19.962 21.7598 20.3217C21.5998 20.6813 21.3799 20.991 21.0899 21.2607C20.8 21.5205 20.4601 21.7303 20.0902 21.8501C19.8003 21.95 19.5003 22 19.1904 22L19.1804 21.97ZM7.53342 3.98801H4.80413C4.69415 3.98801 4.58418 4.00799 4.47421 4.05794C4.37424 4.0979 4.28426 4.16783 4.20428 4.24775C4.1243 4.32767 4.07431 4.42757 4.03432 4.53746C3.99433 4.64735 3.98434 4.75724 3.99433 4.86713C4.27426 7.47453 5.17403 10.022 6.61366 12.2398C7.92332 14.2877 9.69287 16.0559 11.7423 17.3546C13.9618 18.7832 16.5111 19.6923 19.1204 19.972C19.2204 19.982 19.3304 19.972 19.4304 19.9321C19.5403 19.8921 19.6403 19.8422 19.7203 19.7622C19.8003 19.6823 19.8702 19.5924 19.9102 19.4925C19.9602 19.3926 19.9802 19.2827 19.9802 19.1728V16.4356C19.9802 16.2358 19.9202 16.046 19.7903 15.8961C19.6603 15.7463 19.4804 15.6464 19.2804 15.6164C18.3506 15.4965 17.4209 15.2667 16.5311 14.9371C16.3811 14.8771 16.2312 14.8671 16.0712 14.8971C15.9213 14.9271 15.7813 15.007 15.6713 15.1169L14.5216 16.2557C14.2017 16.5754 13.7118 16.6354 13.3219 16.4156C10.9026 15.037 8.89307 13.039 7.51343 10.6314C7.29348 10.2418 7.35347 9.75225 7.67339 9.43257L8.82309 8.28372C8.93306 8.17383 9.00304 8.04396 9.03304 7.88412C9.06303 7.72428 9.05303 7.57442 9.00305 7.43457C8.67313 6.54545 8.44319 5.61638 8.31322 4.67732C8.28323 4.48751 8.19325 4.31768 8.04329 4.18781C7.89333 4.05794 7.71338 3.998 7.51343 3.998L7.53342 3.98801Z" />
</svg>
