<svg class="fill-current stroke-current w-full h-full" style="color: inherit" stroke-width="0.2" width="24" height="24" viewBox="0 0 24 24" stroke="none" xmlns="http://www.w3.org/2000/svg">
<path d="M12.96 14.29L16.5 19H5.5L8.25 15.47L10.21 17.83L12.96 14.29V14.29ZM18 21H4V7H13V5H4C2.9 5 2 5.9 2 7V21C2 22.1 2.9 23 4 23H18C19.1 23 20 22.1 20 21V12H18V21ZM22 5H20V3C20 2.45 19.55 2 19 2C18.45 2 18 2.45 18 3V5H16C15.45 5 15 5.45 15 6C15 6.55 15.45 7 16 7H18V9C18 9.55 18.45 10 19 10C19.55 10 20 9.55 20 9V7H22C22.55 7 23 6.55 23 6C23 5.45 22.55 5 22 5Z" />
</svg>
