<svg class="fill-current stroke-current w-full h-full" style="color: inherit" stroke-width="0.2" width="24" height="24" viewBox="0 0 24 24" stroke="none" xmlns="http://www.w3.org/2000/svg">
<path d="M23 8V20C23 21.1 22.1 22 21 22H5C3.9 22 3 21.1 3 20V11H5V20H21V8H16.95L15.12 6H10V4H16L17.83 6H21C22.1 6 23 6.9 23 8ZM8 14C8 11.24 10.24 9 13 9C15.76 9 18 11.24 18 14C18 16.76 15.76 19 13 19C10.24 19 8 16.76 8 14ZM10 14C10 15.65 11.35 17 13 17C14.65 17 16 15.65 16 14C16 12.35 14.65 11 13 11C11.35 11 10 12.35 10 14ZM3 8C3 8.55 3.45 9 4 9C4.55 9 5 8.55 5 8V6H7C7.55 6 8 5.55 8 5C8 4.45 7.55 4 7 4H5V2C5 1.45 4.55 1 4 1C3.45 1 3 1.45 3 2V4H1C0.45 4 0 4.45 0 5C0 5.55 0.45 6 1 6H3V8Z" />
</svg>
