<svg class="fill-current stroke-current w-full h-full" style="color: inherit" stroke-width="0.2" width="24" height="24" viewBox="0 0 24 24" stroke="none" xmlns="http://www.w3.org/2000/svg">
<path d="M18 7.00445H12C11.45 7.00445 11 7.45495 11 8.00556V12.01C11 12.5606 11.45 13.0111 12 13.0111H18C18.55 13.0111 19 12.5606 19 12.01V8.00556C19 7.45495 18.55 7.00445 18 7.00445ZM21 3H3C1.9 3 1 3.901 1 5.00222V19.0178C1 20.119 1.9 21 3 21H21C22.1 21 23 20.119 23 19.0178V5.00222C23 3.901 22.1 3 21 3ZM20 19.0278H4C3.45 19.0278 3 18.5773 3 18.0267V5.98331C3 5.4327 3.45 4.9822 4 4.9822H20C20.55 4.9822 21 5.4327 21 5.98331V18.0267C21 18.5773 20.55 19.0278 20 19.0278Z" />
</svg>
