<svg class="fill-current stroke-current w-full h-full" style="color: inherit" stroke-width="0.2" width="24" height="24" viewBox="0 0 24 24" stroke="none" xmlns="http://www.w3.org/2000/svg">
<path d="M12 19.4383C11.8 19.4383 11.6 19.3783 11.43 19.2582C11.17 19.0781 5 14.686 5 9.31348C5 7.37256 5.72 5.54169 7.03 4.16103C8.34 2.79038 10.15 2 12 2C13.85 2 15.66 2.79038 16.97 4.16103C18.28 5.54169 19 7.37256 19 9.31348C19 14.686 12.84 19.0681 12.57 19.2582C12.4 19.3783 12.2 19.4383 12 19.4383ZM12 4.00095C10.67 4.00095 9.42 4.55121 8.48 5.54169C7.54 6.53216 7 7.91282 7 9.31348C7 12.7951 10.58 16.0267 12 17.1772C13.42 16.0267 17 12.7951 17 9.31348C17 7.90281 16.46 6.53216 15.52 5.54169C14.58 4.55121 13.33 4.00095 12 4.00095ZM12 11.7146C10.5 11.7146 9.29 10.494 9.29 9.00334C9.29 7.51263 10.51 6.29204 12 6.29204C13.49 6.29204 14.71 7.51263 14.71 9.00334C14.71 10.494 13.49 11.7146 12 11.7146ZM12 8.28299C11.61 8.28299 11.29 8.60314 11.29 8.99333C11.29 9.38352 11.61 9.70367 12 9.70367C12.39 9.70367 12.71 9.38352 12.71 8.99333C12.71 8.60314 12.39 8.28299 12 8.28299ZM19 21.9995C19 21.4493 18.55 20.999 18 20.999H6C5.45 20.999 5 21.4493 5 21.9995C5 22.5498 5.45 23 6 23H18C18.55 23 19 22.5498 19 21.9995Z" />
</svg>
