<svg class="fill-current stroke-current w-full h-full" style="color: inherit" stroke-width="0.2" width="24" height="24" viewBox="0 0 24 24" stroke="none" xmlns="http://www.w3.org/2000/svg">
<path d="M12 22C11.8 22 11.6 21.94 11.43 21.82C11.13 21.61 4 16.54 4 10.37C4 8.14 4.83 6.04 6.33 4.47C7.82 2.9 9.88 2 12 2C14.12 2 16.18 2.9 17.67 4.47C19.17 6.05 20 8.14 20 10.37C20 16.55 12.88 21.61 12.57 21.82C12.4 21.94 12.2 22 12 22ZM12 4C10.41 4 8.91 4.66 7.77 5.85C6.64 7.04 6 8.68 6 10.37C6 14.59 10.4 18.47 12 19.75C13.6 18.47 18 14.59 18 10.37C18 8.68 17.35 7.04 16.22 5.85C15.09 4.66 13.59 4 12 4ZM12 13C10.35 13 9 11.65 9 10C9 8.35 10.35 7 12 7C13.65 7 15 8.35 15 10C15 11.65 13.65 13 12 13ZM12 9C11.45 9 11 9.45 11 10C11 10.55 11.45 11 12 11C12.55 11 13 10.55 13 10C13 9.45 12.55 9 12 9Z" />
</svg>
