<svg class="fill-current stroke-current w-full h-full" style="color: inherit" stroke-width="0.2" width="24" height="24" viewBox="0 0 24 24" stroke="none" xmlns="http://www.w3.org/2000/svg">
<path d="M19.914 8.62414C19.5547 6.13152 17.9146 4.46978 15.3484 3.53089C13.4271 2.87357 11.315 2.82522 9.35923 3.3938C7.94129 3.74259 6.67591 4.47477 5.73346 5.49175C4.75917 6.5307 4.16675 7.81686 4.03805 9.17252C3.86339 10.6127 4.29411 12.0595 5.24511 13.2272C5.55682 13.6171 5.96548 13.9358 6.43834 14.1578C6.76084 14.3115 6.84837 14.2741 6.9359 13.9625C7.02344 13.6509 7.07872 13.3684 7.18008 13.0818C7.23882 12.9545 7.25441 12.8143 7.22489 12.679C7.19537 12.5437 7.12207 12.4193 7.01422 12.3215C6.92202 12.2178 6.84606 12.1032 6.78848 11.9809C6.23887 10.9954 6.0822 9.86944 6.3448 8.79212C6.60741 7.71479 7.27327 6.75182 8.23049 6.06505C9.06198 5.46517 10.0598 5.08218 11.1157 4.95767C12.1716 4.83317 13.2451 4.9719 14.2197 5.35881C14.9143 5.59509 15.5316 5.98539 16.0148 6.49365C16.4979 7.00191 16.8312 7.61176 16.9839 8.26687C17.4532 9.89201 17.2003 11.6181 16.2791 13.0776C16.0081 13.571 15.5975 13.9911 15.0886 14.2953C14.5797 14.5996 13.9907 14.7771 13.3812 14.81C12.9068 14.8549 12.4309 14.7371 12.0485 14.48C11.666 14.2228 11.4049 13.8453 11.3172 13.4224C11.2686 13.0995 11.3049 12.7707 11.4232 12.4628C11.6766 11.6693 11.9438 10.8758 12.1926 10.0823C12.3386 9.65068 12.401 9.19954 12.3769 8.74877C12.3769 8.53659 12.3223 8.32729 12.2171 8.13747C12.1119 7.94765 11.9592 7.78251 11.771 7.65514C11.5828 7.52776 11.3643 7.44164 11.1328 7.40361C10.9013 7.36557 10.6632 7.37666 10.4373 7.43599C10.1093 7.51016 9.80524 7.653 9.54989 7.85294C9.29454 8.05288 9.09506 8.30428 8.96762 8.58675C8.7299 9.0587 8.60004 9.56899 8.58579 10.0872C8.57154 10.6054 8.6732 11.1208 8.8847 11.6028C8.93707 11.7362 8.94665 11.8802 8.91234 12.0183C8.54377 13.4183 8.20746 14.8266 7.79743 16.2183C7.37807 17.5416 7.24511 18.9252 7.40583 20.2938C7.44748 20.4906 7.50288 20.6848 7.57168 20.8754L8.22588 21C8.22588 21 8.33645 20.8214 8.4332 20.6593C9.15191 19.384 9.72779 18.4575 10.0273 17.2195C10.1655 16.6379 10.359 16.0646 10.5294 15.4872C10.5294 15.4248 10.5294 15.3334 10.617 15.3168C10.7045 15.3002 10.7321 15.3875 10.769 15.4373C10.9582 15.6704 11.1961 15.868 11.4693 16.0189C12.1743 16.4178 13.003 16.6013 13.8327 16.5424C15.2539 16.4973 16.6036 15.969 17.6105 15.0634C19.5777 13.277 20.2596 11.0628 19.914 8.62414Z" />
</svg>
