<svg class="fill-current stroke-current w-full h-full" style="color: inherit" stroke-width="0.2" width="24" height="24" viewBox="0 0 24 24" stroke="none" xmlns="http://www.w3.org/2000/svg">
<path d="M13.9581 19.6999C14.3571 20.1 15.0017 20.1 15.4007 19.6999L17.3243 17.7605L19.2581 19.6999C19.6571 20.1 20.3017 20.1 20.7007 19.6999C21.0998 19.2997 21.0998 18.6532 20.7007 18.253L18.7669 16.3136L20.7007 14.3742C21.0998 13.974 21.0998 13.3276 20.7007 12.9274C20.3017 12.5272 19.6571 12.5272 19.2581 12.9274L17.3243 14.8668L15.3905 12.9274C14.9915 12.5272 14.3469 12.5272 13.9478 12.9274C13.5488 13.3276 13.5488 13.974 13.9478 14.3742L15.8816 16.3136L13.9478 18.253C13.559 18.6429 13.559 19.2997 13.9581 19.6999ZM14.2548 9.13067C14.2548 8.5663 13.7944 8.10454 13.2316 8.10454H4.02316C3.46042 8.10454 3 8.5663 3 9.13067C3 9.69505 3.46042 10.1568 4.02316 10.1568H13.2316C13.7944 10.1568 14.2548 9.69505 14.2548 9.13067ZM14.2548 5.02613C14.2548 4.46176 13.7944 4 13.2316 4H4.02316C3.46042 4 3 4.46176 3 5.02613C3 5.59051 3.46042 6.05227 4.02316 6.05227H13.2316C13.7944 6.05227 14.2548 5.59051 14.2548 5.02613ZM3 13.2352C3 13.7996 3.46042 14.2613 4.02316 14.2613H9.13898C9.70172 14.2613 10.1621 13.7996 10.1621 13.2352C10.1621 12.6708 9.70172 12.2091 9.13898 12.2091H4.02316C3.46042 12.2091 3 12.6708 3 13.2352Z" />
</svg>
