<svg class="fill-current stroke-current w-full h-full" style="color: inherit" stroke-width="0.2" width="24" height="24" viewBox="0 0 24 24" stroke="none" xmlns="http://www.w3.org/2000/svg">
<path d="M13.2177 9.11992H3.01979C2.4589 9.11992 2 9.58341 2 10.1499C2 10.7164 2.4589 11.1799 3.01979 11.1799H13.2177C13.7786 11.1799 14.2375 10.7164 14.2375 10.1499C14.2375 9.58341 13.7786 9.11992 13.2177 9.11992ZM13.2177 5H3.01979C2.4589 5 2 5.46349 2 6.02998C2 6.59647 2.4589 7.05996 3.01979 7.05996H13.2177C13.7786 7.05996 14.2375 6.59647 14.2375 6.02998C14.2375 5.46349 13.7786 5 13.2177 5ZM3.01979 15.2998H9.13852C9.69941 15.2998 10.1583 14.8363 10.1583 14.2698C10.1583 13.7033 9.69941 13.2398 9.13852 13.2398H3.01979C2.4589 13.2398 2 13.7033 2 14.2698C2 14.8363 2.4589 15.2998 3.01979 15.2998ZM22.6099 11.3962L22.7017 11.4889C23.0994 11.8906 23.0994 12.5395 22.7017 12.9411L17.0113 18.6987C16.6136 19.1004 15.9711 19.1004 15.5734 18.6987L12.4222 15.5161C12.0245 15.1144 12.0245 14.4655 12.4222 14.0638L12.514 13.9711C12.9117 13.5694 13.5542 13.5694 13.9519 13.9711L16.2974 16.3401L21.172 11.4065C21.5595 10.9945 22.2122 10.9945 22.6099 11.3962Z" />
</svg>
