<svg class="fill-current stroke-current w-full h-full" style="color: inherit" stroke-width="0.2" width="24" height="24" viewBox="0 0 24 24" stroke="none" xmlns="http://www.w3.org/2000/svg">
<path d="M10 7.78634C9.45 7.78634 9 8.24595 9 8.80771V11.8718H6C5.45 11.8718 5 12.3314 5 12.8932C5 13.4549 5.45 13.9145 6 13.9145H9V16.9786C9 17.5404 9.45 18 10 18C10.55 18 11 17.5404 11 16.9786V13.9145H14C14.55 13.9145 15 13.4549 15 12.8932C15 12.3314 14.55 11.8718 14 11.8718H11V8.80771C11 8.24595 10.55 7.78634 10 7.78634ZM15.5 6.55049C15.5 7.13266 16.02 7.57185 16.58 7.4595L18 7.17352V16.9786C18 17.5404 18.45 18 19 18C19.55 18 20 17.5404 20 16.9786V6.01938C20 5.35549 19.4 4.87545 18.77 5.02865L16.2 5.6619C15.79 5.75382 15.5 6.13173 15.5 6.55049Z" />
</svg>
