<svg class="fill-current stroke-current w-full h-full" style="color: inherit" stroke-width="0.2" width="24" height="24" viewBox="0 0 24 24" stroke="none" xmlns="http://www.w3.org/2000/svg">
<path d="M14.0001 12C14.0001 12.74 13.6001 13.38 13.0001 13.72V21C13.0001 21.55 12.5501 22 12.0001 22C11.4501 22 11.0001 21.55 11.0001 21V13.72C10.4001 13.37 10.0001 12.74 10.0001 12C10.0001 10.9 10.9001 10 12.0001 10C13.1001 10 14.0001 10.9 14.0001 12ZM10.7501 6.13001C8.48008 6.59001 6.63008 8.41001 6.14008 10.68C5.74008 12.54 6.21008 14.3 7.22008 15.62C7.57008 16.07 8.25008 16.09 8.65008 15.69L8.72008 15.62C9.06008 15.28 9.06008 14.75 8.78008 14.37C8.10008 13.47 7.80008 12.27 8.12008 11C8.47008 9.58001 9.64008 8.43001 11.0701 8.12001C13.6901 7.52001 16.0001 9.49001 16.0001 12C16.0001 12.87 15.7201 13.67 15.2401 14.32C14.9401 14.73 14.9501 15.29 15.3101 15.65C15.7501 16.09 16.4801 16.02 16.8501 15.51C17.5701 14.53 18.0001 13.31 18.0001 12C18.0001 8.28001 14.6101 5.35001 10.7501 6.13001ZM10.8301 2.07001C6.30008 2.58001 2.61008 6.25001 2.07008 10.78C1.72008 13.73 2.66008 16.45 4.39008 18.48C4.76008 18.91 5.42008 18.94 5.82008 18.54L5.87008 18.49C6.22008 18.14 6.25008 17.57 5.92008 17.19C4.36008 15.36 3.59008 12.82 4.22008 10.13C4.92008 7.12001 7.40008 4.74001 10.4401 4.16001C15.5301 3.18001 20.0001 7.08001 20.0001 12C20.0001 13.96 19.2801 15.76 18.1001 17.16C17.7601 17.56 17.7901 18.14 18.1501 18.51C18.5701 18.93 19.2601 18.9 19.6401 18.44C21.1101 16.7 22.0001 14.46 22.0001 12C22.0001 6.09001 16.8701 1.38001 10.8301 2.07001Z" />
</svg>
