<svg class="fill-current stroke-current w-full h-full" style="color: inherit" stroke-width="0.2" width="24" height="24" viewBox="0 0 24 24" stroke="none" xmlns="http://www.w3.org/2000/svg">
<path fill-rule="evenodd" clip-rule="evenodd" d="M12 6V4H14V6H12ZM7 12V14H5V12H7ZM17 20V18.26L16.9 18.21L16.93 18H19V20H17ZM15.43 16.45C15.22 16.67 15.07 16.95 15.02 17.27L9 14.26V11.5C9 11.38 8.99 11.26 8.96 11.14L11.7 8H14.5C15.33 8 16 7.33 16 6.5V3.5C16 2.67 15.33 2 14.5 2H11.5C10.67 2 10 2.67 10 3.5V6.5C10 6.62 10.01 6.74 10.04 6.85L7.3 10H4.5C3.67 10 3 10.67 3 11.5V14.5C3 15.33 3.67 16 4.5 16H7.5C7.64 16 7.77 15.98 7.89 15.95L15 19.5V20.5C15 21.33 15.67 22 16.5 22H19.5C20.33 22 21 21.33 21 20.5V17.5C21 16.67 20.33 16 19.5 16H16.5C16.08 16 15.7 16.17 15.43 16.45Z" />
</svg>
