<svg class="fill-current stroke-current w-full h-full" style="color: inherit" stroke-width="0.2" width="24" height="24" viewBox="0 0 24 24" stroke="none" xmlns="http://www.w3.org/2000/svg">
<path d="M18 13C17.45 13 17 13.45 17 14V19.22C17 19.77 16.55 20.22 16 20.22H6C5.45 20.22 5 19.77 5 19.22V9C5 8.45 5.45 8 6 8H11C11.55 8 12 7.55 12 7C12 6.45 11.55 6 11 6H5C3.9 6 3 6.9 3 8V20C3 21.1 3.9 22 5 22H17C18.1 22 19 21.1 19 20V14C19 13.45 18.55 13 18 13ZM21.02 6H19V3.98C19 3.44 18.56 3 18.02 3H17.99C17.44 3 17 3.44 17 3.98V6H14.99C14.45 6 14.01 6.44 14 6.98V7.01C14 7.56 14.44 8 14.99 8H17V10.01C17 10.55 17.44 11 17.99 10.99H18.02C18.56 10.99 19 10.55 19 10.01V8H21.02C21.56 8 22 7.56 22 7.02V6.98C22 6.44 21.56 6 21.02 6V6ZM14 10H8C7.45 10 7 10.45 7 11C7 11.55 7.45 12 8 12H14C14.55 12 15 11.55 15 11C15 10.45 14.55 10 14 10ZM14 13H8C7.45 13 7 13.45 7 14C7 14.55 7.45 15 8 15H14C14.55 15 15 14.55 15 14C15 13.45 14.55 13 14 13ZM14 16H8C7.45 16 7 16.45 7 17C7 17.55 7.45 18 8 18H14C14.55 18 15 17.55 15 17C15 16.45 14.55 16 14 16Z" />
</svg>
