<svg class="fill-current stroke-current w-full h-full" style="color: inherit" stroke-width="0.2" width="24" height="24" viewBox="0 0 24 24" stroke="none" xmlns="http://www.w3.org/2000/svg">
<path fill-rule="evenodd" clip-rule="evenodd" d="M16.0083 9H8.00167V13.65L11.5046 17.17V18.99H12.5054V17.16L15.9983 13.67C15.9983 13.67 15.9983 13.67 15.9983 13.66V9H16.0083ZM17.4295 15.08L14.5071 18V20C14.5071 20.55 14.0567 21 13.5063 21H10.5038C9.95329 21 9.50292 20.55 9.50292 20V18L6.58048 15.06C6.21018 14.69 6 14.18 6 13.65V8.99C6 7.9 6.90075 7 7.99166 7V4C7.99166 3.45 8.44203 3 8.99249 3C9.54295 3 9.99333 3.45 9.99333 4V7H13.9967V4C13.9967 3.45 14.447 3 14.9975 3C15.548 3 15.9983 3.45 15.9983 4V7C17.1093 7 18 7.89 18 8.99V13.66C18 14.19 17.7898 14.7 17.4195 15.08H17.4295Z" />
</svg>
