<svg class="fill-current stroke-current w-full h-full" style="color: inherit" stroke-width="0.2" width="24" height="24" viewBox="0 0 24 24" stroke="none" xmlns="http://www.w3.org/2000/svg">
<path d="M12.0001 3C11.4501 3 11.0001 3.45014 11.0001 4.0003V12.0027C11.0001 12.5529 11.4501 13.003 12.0001 13.003C12.5501 13.003 13.0001 12.5529 13.0001 12.0027V4.0003C13.0001 3.45014 12.5501 3 12.0001 3ZM17.1401 5.86087C16.7501 6.25099 16.7601 6.86117 17.1301 7.25129C18.2601 8.45165 18.9601 10.0521 19.0001 11.8227C19.0901 15.6538 15.9201 18.9548 12.0901 18.9949C8.18005 19.0549 5.00005 15.9039 5.00005 12.0027C5.00005 10.1622 5.71005 8.49167 6.87005 7.24129C7.24005 6.85117 7.24005 6.24098 6.86005 5.86087C6.46005 5.46075 5.81005 5.47075 5.43005 5.88087C3.98005 7.42134 3.07005 9.47196 3.00005 11.7427C2.86005 16.6241 6.83005 20.8454 11.7101 20.9955C16.8101 21.1555 21.0001 17.0643 21.0001 11.9927C21.0001 9.62201 20.0801 7.48136 18.5801 5.88087C18.2001 5.47075 17.5401 5.46075 17.1401 5.86087Z" />
</svg>
