<svg class="fill-current stroke-current w-full h-full" style="color: inherit" stroke-width="0.2" width="24" height="24" viewBox="0 0 24 24" stroke="none" xmlns="http://www.w3.org/2000/svg">
<path fill-rule="evenodd" clip-rule="evenodd" d="M14.6747 6.87879V3.9697C14.6747 3.43636 15.1165 3 15.6565 3C16.1965 3 16.6383 3.43636 16.6383 3.9697V6.87879C16.6383 6.87879 16.658 6.87879 16.6678 6.87879C17.6299 6.87879 18.6019 7.84848 18.6019 8.80849V13.337C18.6019 13.6667 18.5038 13.9867 18.3565 14.2776L10.8653 6.87879H14.6747ZM5.67153 4.49333C5.28862 4.11515 4.67008 4.11515 4.28718 4.49333C3.90427 4.87152 3.90427 5.48242 4.28718 5.86061L6.86933 8.41091C6.83988 8.53697 6.82024 8.67273 6.82024 8.79879V13.3176C6.82024 13.8315 7.02642 14.3261 7.38969 14.6848L10.2566 17.5358V19.4752C10.2566 20.0085 10.6984 20.4448 11.2384 20.4448H14.1838C14.7238 20.4448 15.1656 20.0085 15.1656 19.4752V17.5358L15.6369 17.0703L19.3285 20.7164C19.7114 21.0945 20.3299 21.0945 20.7128 20.7164C21.0957 20.3382 21.0957 19.7176 20.7128 19.3394L5.67153 4.49333ZM14.2427 15.7127L8.78386 10.3115V13.3273L12.2202 16.7406V18.5055H13.202V16.7309L14.2525 15.6933L14.2427 15.7127ZM10.7475 6.76242V3.9697C10.7475 3.43636 10.3057 3 9.76567 3C9.22567 3 8.78386 3.43636 8.78386 3.9697V4.82303L10.7475 6.76242ZM16.6383 9.83636V8.89576C16.6383 8.89576 16.6187 8.86667 16.599 8.85697C16.5892 8.84727 16.5696 8.82788 16.5598 8.82788H15.6172L16.6383 9.84606V9.83636Z" />
</svg>
