<svg class="fill-current stroke-current w-full h-full" style="color: inherit" stroke-width="0.2" width="24" height="24" viewBox="0 0 24 24" stroke="none" xmlns="http://www.w3.org/2000/svg">
<path d="M11.1719 12.6687V8.80122C11.1719 8.26944 10.7109 7.83435 10.1474 7.83435H6.04912V5.90061H10.1474C10.7109 5.90061 11.1719 5.46552 11.1719 4.93374C11.1719 4.40196 10.7109 3.96687 10.1474 3.96687H8.61052C8.61052 3.43509 8.14947 3 7.58596 3C7.02245 3 6.5614 3.43509 6.5614 3.96687H5.02456C4.46105 3.96687 4 4.40196 4 4.93374V8.80122C4 9.333 4.46105 9.76809 5.02456 9.76809H9.1228V11.7018H5.02456C4.46105 11.7018 4 12.1369 4 12.6687C4 13.2005 4.46105 13.6356 5.02456 13.6356H6.5614C6.5614 14.1674 7.02245 14.6024 7.58596 14.6024C8.14947 14.6024 8.61052 14.1674 8.61052 13.6356H10.1474C10.7109 13.6356 11.1719 13.2005 11.1719 12.6687ZM19.2454 12.8814L14.1739 17.6674L12.0018 15.6177C11.6022 15.2406 10.9568 15.2406 10.5572 15.6177C10.1576 15.9947 10.1576 16.6039 10.5572 16.9809L13.4567 19.7172C13.8563 20.0943 14.5017 20.0943 14.9013 19.7172L20.7003 14.2447C21.0999 13.8676 21.0999 13.2585 20.7003 12.8814C20.2905 12.5043 19.645 12.5043 19.2454 12.8814V12.8814Z" />
</svg>
