<svg class="fill-current stroke-current w-full h-full" style="color: inherit" stroke-width="0.2" width="24" height="24" viewBox="0 0 24 24" stroke="none" xmlns="http://www.w3.org/2000/svg">
<path d="M20.24 9.36C19.76 8.88 19.09 8.6 18.4 8.6H17.8V4C17.8 3.45 17.35 3 16.8 3H7.2C6.65 3 6.2 3.45 6.2 4V8.6H5.6C4.92 8.6 4.25 8.88 3.76 9.36C3.27 9.84 3 10.5 3 11.2V15.2C3 15.88 3.28 16.55 3.76 17.04C4.24 17.52 4.91 17.8 5.6 17.8H6.2V20C6.2 20.55 6.65 21 7.2 21H16.8C17.35 21 17.8 20.55 17.8 20V17.8H18.4C19.08 17.8 19.75 17.52 20.24 17.04C20.73 16.56 21 15.89 21 15.2V11.2C21 10.51 20.73 9.85 20.24 9.36ZM8.2 5H15.8V8.6H8.2V5ZM15.8 19H8.2V16.8V14.6H15.8V19ZM19 15.2C19 15.36 18.94 15.51 18.82 15.62C18.71 15.73 18.55 15.8 18.4 15.8H17.8V13.6C17.8 13.05 17.35 12.6 16.8 12.6H7.2C6.65 12.6 6.2 13.05 6.2 13.6V15.8H5.6C5.44 15.8 5.29 15.74 5.18 15.62C5.07 15.5 5 15.36 5 15.2V11.2C5 11.04 5.06 10.89 5.18 10.78C5.3 10.67 5.45 10.6 5.6 10.6H18.4C18.56 10.6 18.71 10.66 18.82 10.78C18.93 10.89 19 11.04 19 11.2V15.2Z" />
</svg>
