<svg class="fill-current stroke-current w-full h-full" style="color: inherit" stroke-width="0.2" width="24" height="24" viewBox="0 0 24 24" stroke="none" xmlns="http://www.w3.org/2000/svg">
<path d="M12 23L11.74 22.9294C6.76 21.5581 3 16.3855 3 10.9003V6.15121C3 5.35464 3.47 4.62866 4.19 4.30601L11.19 1.17017C11.73 0.938262 12.31 0.948345 12.81 1.17017L19.81 4.30601C20.53 4.62866 21 5.35464 21 6.15121V10.8902C21 16.3754 17.24 21.548 12.26 22.9193L12 22.9899V23ZM12 3.02546L5 6.16129V10.9003C5 15.4175 7.99 19.6625 12 20.9128C16.01 19.6625 19 15.4175 19 10.9003V6.15121L12 3.01537V3.02546ZM12 3.02546H11.98H12ZM13 13.1085V8.06699C13 7.51242 12.55 7.05868 12 7.05868C11.45 7.05868 11 7.51242 11 8.06699V13.1085C11 13.6631 11.45 14.1168 12 14.1168C12.55 14.1168 13 13.6631 13 13.1085ZM12 15.1251C12.55 15.1251 13 15.5789 13 16.1334C13 16.688 12.55 17.1417 12 17.1417C11.45 17.1417 11 16.688 11 16.1334C11 15.5789 11.45 15.1251 12 15.1251Z" />
</svg>
