<svg class="fill-current stroke-current w-full h-full" style="color: inherit" stroke-width="0.2" width="24" height="24" viewBox="0 0 24 24" stroke="none" xmlns="http://www.w3.org/2000/svg">
<path fill-rule="evenodd" clip-rule="evenodd" d="M7.25115 8C4.94171 8 3.06217 9.78 3.00219 11.88C2.9322 14.14 4.75176 16 7.00121 16H16.9988C19.2482 16 21.0678 14.14 20.9978 11.88C20.9378 9.78 19.0583 8 16.7488 8H7.25115ZM22.9973 11.82C23.0973 15.21 20.378 18 16.9988 18V20C16.9988 20.55 16.5489 21 15.999 21C15.4492 21 14.9993 20.55 14.9993 20V18H9.00073V20C9.00073 20.55 8.55084 21 8.00097 21C7.4511 21 7.00121 20.55 7.00121 20V18C3.62203 18 0.902695 15.21 1.00267 11.82C1.10265 8.53 3.97195 6 7.25115 6H8.00097V5C8.00097 3.9 8.90075 3 10.0005 3H13.9995C15.0992 3 15.999 3.9 15.999 5V6H16.7488C20.028 6 22.8974 8.53 22.9973 11.82ZM13.9995 5H10.0005V6H13.9995V5Z" />
</svg>
