<svg class="fill-current stroke-current w-full h-full" style="color: inherit" stroke-width="0.2" width="24" height="24" viewBox="0 0 24 24" stroke="none" xmlns="http://www.w3.org/2000/svg">
<path d="M16.95 9.77976L11.29 15.2806C10.9 15.6597 10.27 15.6597 9.88 15.2806L7.05 12.5302C6.66 12.1512 6.66 11.5389 7.05 11.1598C7.44 10.7808 8.07 10.7808 8.46 11.1598L10.58 13.2202L15.53 8.4094C15.92 8.03036 16.55 8.03036 16.94 8.4094C17.34 8.78843 17.34 9.40072 16.95 9.77976ZM4 11.5C4 9.2355 5.02 7.20426 6.62 5.7853L8.15 7.27229C8.46 7.57357 9 7.35976 9 6.92241V2.75301C9 2.48088 8.78 2.26707 8.5 2.26707H4.21C3.76 2.26707 3.54 2.79189 3.86 3.09317L5.2 4.40522C3.24 6.17406 2 8.69124 2 11.5C2 16.1165 5.32 19.9846 9.76 20.9759C10.39 21.112 11 20.6552 11 20.0235C11 19.5667 10.67 19.1779 10.21 19.071C6.66 18.2838 4 15.1932 4 11.5ZM22 11.5C22 6.88353 18.68 3.01542 14.24 2.02409C13.61 1.88803 13 2.34482 13 2.97654C13 3.43333 13.33 3.82209 13.79 3.92899C17.34 4.71622 20 7.80683 20 11.5C20 13.7645 18.98 15.7957 17.38 17.2147L15.85 15.7277C15.54 15.4264 15 15.6402 15 16.0776V20.247C15 20.5191 15.22 20.7329 15.5 20.7329H19.79C20.24 20.7329 20.46 20.2081 20.14 19.9068L18.8 18.5948C20.76 16.8259 22 14.3088 22 11.5Z" />
</svg>
