<svg class="fill-current stroke-current w-full h-full" style="color: inherit" stroke-width="0.2" width="24" height="24" viewBox="0 0 24 24" stroke="none" xmlns="http://www.w3.org/2000/svg">
<path d="M20.2742 17.9173C20.7475 17.1528 21.0138 16.2593 20.9546 15.2765C20.8264 13.1421 19.1402 11.3352 17.0398 11.1069C14.3575 10.8091 12.0895 12.9038 12.0895 15.5446C12.0895 18.0165 14.0716 20.012 16.5171 20.012C17.3849 20.012 18.1935 19.7539 18.8739 19.3171L21.2505 21.7096C21.635 22.0968 22.2662 22.0968 22.6507 21.7096C23.0353 21.3224 23.0353 20.6871 22.6507 20.2999L20.2742 17.9173ZM16.527 18.0265C15.1662 18.0265 14.0617 16.9146 14.0617 15.5446C14.0617 14.1745 15.1662 13.0626 16.527 13.0626C17.8878 13.0626 18.9923 14.1745 18.9923 15.5446C18.9923 16.9146 17.8878 18.0265 16.527 18.0265ZM16.172 9.58798C15.4423 9.60783 14.7421 9.76667 14.1012 10.0347L13.5588 9.21072L10.5216 14.1845C10.1666 14.7603 9.36783 14.8198 8.93394 14.3135L6.84338 11.8614L3.82588 16.7259C3.52019 17.2124 2.86935 17.3415 2.40588 17.0039C1.99171 16.6962 1.87338 16.1204 2.14949 15.6736L5.87699 9.6674C6.23199 9.10152 7.03074 9.04195 7.46463 9.54826L9.54533 11.9905L12.6812 6.85788C13.0559 6.24236 13.9434 6.22251 14.3378 6.82809L16.172 9.58798ZM18.726 10.0844C18.0949 9.80638 17.4145 9.63761 16.7045 9.5979L21.1814 2.45993C21.4871 1.97348 22.138 1.85435 22.5916 2.19189C23.0156 2.49964 23.1241 3.08537 22.848 3.52219L18.726 10.0844Z" />
</svg>
