<svg class="fill-current stroke-current w-full h-full" style="color: inherit" stroke-width="0.2" width="24" height="24" viewBox="0 0 24 24" stroke="none" xmlns="http://www.w3.org/2000/svg">
<path fill-rule="evenodd" clip-rule="evenodd" d="M6.27 17C6.1 16.71 6 16.36 6 16V15H18C18.55 15 19 14.55 19 14V6H20C20.36 6 20.71 6.1 21 6.27C21.6 6.62 22 7.26 22 8V22L18 18H8C7.26 18 6.62 17.6 6.27 17ZM2 17L6 13H15C16.1 13 17 12.1 17 11V4C17 2.9 16.1 2 15 2H4C2.9 2 2 2.9 2 4V17ZM4 12.17L5.17 11H15V4H4V12.17Z" />
</svg>
