<svg class="fill-current stroke-current w-full h-full" style="color: inherit" stroke-width="0.2" width="24" height="24" viewBox="0 0 24 24" stroke="none" xmlns="http://www.w3.org/2000/svg">
<path d="M15.04 13.95C15.04 14.53 14.6 15 14 15C13.4 15 12.95 14.53 12.95 13.95C12.95 13.37 13.42 12.91 14 12.91C14.58 12.91 15.04 13.36 15.04 13.95ZM14 6.42C15.35 6.42 15.62 7.68 15.14 8.36C14.69 9 13.92 9.43 13.51 10.16C13.19 10.74 13.26 11.41 13.25 11.82H14.77C14.77 11.04 14.82 10.88 14.95 10.64C15.28 10.04 15.88 9.76 16.51 8.83C17.08 7.99 16.87 6.86 16.5 6.26C16.07 5.56 15.22 5 13.99 5C12.52 5 11.51 5.96 11.13 7.08L12.5 7.65C12.68 7.09 13.12 6.42 14 6.42V6.42ZM22 4V16C22 17.1 21.1 18 20 18H8C6.9 18 6 17.1 6 16V4C6 2.9 6.9 2 8 2H20C21.1 2 22 2.9 22 4V4ZM20 4H8V16H20V4V4ZM17 20H4V7C4 6.45 3.55 6 3 6C2.45 6 2 6.45 2 7V21C2 21.55 2.45 22 3 22H17C17.55 22 18 21.55 18 21C18 20.45 17.55 20 17 20Z" />
</svg>
