<svg class="fill-current stroke-current w-full h-full" style="color: inherit" stroke-width="0.2" width="24" height="24" viewBox="0 0 24 24" stroke="none" xmlns="http://www.w3.org/2000/svg">
<path d="M20 7H8.3L16.56 3.66L15.88 2L3.24 7.15C2.51 7.43 2 8.17 2 9V21C2 22.1 2.89 23 4 23H20C21.11 23 22 22.1 22 21V9C22 7.89 21.11 7 20 7ZM20 9V12H18V10H16V12H4V9H20ZM4 21V14H20V21H4ZM8 19.98C9.38 19.98 10.5 18.86 10.5 17.48C10.5 16.1 9.38 14.98 8 14.98C6.62 14.98 5.5 16.1 5.5 17.48C5.5 18.86 6.62 19.98 8 19.98Z" />
</svg>
