<svg class="fill-current stroke-current w-full h-full" style="color: inherit" stroke-width="0.2" width="24" height="24" viewBox="0 0 24 24" stroke="none" xmlns="http://www.w3.org/2000/svg">
<path d="M20.9474 9.79365C20.8098 9.38095 20.45 9.09524 20.0691 9.06349L14.9578 8.59788L12.9789 3.69841C12.8201 3.2963 12.4392 3.03175 12.0265 3.03175V3L11.9947 3.03175C11.582 3.03175 11.201 3.2963 11.0423 3.69841L9.05281 8.59788L3.97327 9.05291C3.56056 9.08466 3.21134 9.38095 3.06319 9.79365C2.91503 10.2169 3.03144 10.672 3.37008 10.9788L7.23264 14.4709L6.07916 19.6561C5.98392 20.0899 6.13207 20.5132 6.47071 20.7778C6.81993 21.0423 7.26439 21.0635 7.63477 20.8307L11.9947 18.0794L16.3546 20.8413C16.524 20.9471 16.7144 21 16.9049 21C17.1166 21 17.3282 20.9259 17.5187 20.7884C17.5187 20.7884 17.5187 20.7884 17.5293 20.7778H17.5399C17.8679 20.5132 18.0161 20.0899 17.9208 19.6561L16.7674 14.4603L20.6299 10.9683C20.9686 10.6614 21.085 10.2063 20.9368 9.78307L20.9474 9.79365ZM14.9154 13.8466L15.9631 18.5556L12.0053 16.0476L8.05807 18.545L9.10572 13.836L5.61354 10.672L10.2169 10.2487L12.0053 5.81482L13.8043 10.2593L18.4076 10.6825L14.9154 13.8466Z" />
</svg>
