<svg class="fill-current stroke-current w-full h-full" style="color: inherit" stroke-width="0.2" width="24" height="24" viewBox="0 0 24 24" stroke="none" xmlns="http://www.w3.org/2000/svg">
<path d="M14 9H10C9.45 9 9 8.55 9 8C9 7.45 9.45 7 10 7H14C14.55 7 15 7.45 15 8C15 8.55 14.55 9 14 9ZM14 12H10C9.45 12 9 11.55 9 11C9 10.45 9.45 10 10 10H14C14.55 10 15 10.45 15 11C15 11.55 14.55 12 14 12ZM19.5 3.5L18 2L16.5 3.5L15 2L13.5 3.5L12 2L10.5 3.5L9 2L7.5 3.5L6 2V16H4C3.45 16 3 16.45 3 17V19C3 20.66 4.34 22 6 22H18C19.66 22 21 20.66 21 19V2L19.5 3.5ZM15 20H6C5.45 20 5 19.55 5 19V18H15V20ZM19 19C19 19.55 18.55 20 18 20C17.45 20 17 19.55 17 19V17C17 16.45 16.55 16 16 16H8V5H19V19ZM17 9C17.55 9 18 8.55 18 8C18 7.45 17.55 7 17 7C16.45 7 16 7.45 16 8C16 8.55 16.45 9 17 9ZM17 12C17.55 12 18 11.55 18 11C18 10.45 17.55 10 17 10C16.45 10 16 10.45 16 11C16 11.55 16.45 12 17 12Z" />
</svg>
