<svg class="fill-current stroke-current w-full h-full" style="color: inherit" stroke-width="0.2" width="24" height="24" viewBox="0 0 24 24" stroke="none" xmlns="http://www.w3.org/2000/svg">
<path d="M19.4 15.75C19.2333 15.5833 19.1417 15.375 19.125 15.125C19.1083 14.875 19.1833 14.6583 19.35 14.475C19.9667 13.725 20.4375 12.9458 20.7625 12.1375C21.0875 11.3292 21.25 10.3583 21.25 9.22499C21.25 8.09166 21.0875 7.12083 20.7625 6.31249C20.4375 5.50416 19.9667 4.72499 19.35 3.97499C19.1833 3.79166 19.1042 3.57916 19.1125 3.33749C19.1208 3.09583 19.2167 2.88333 19.4 2.69999C19.5833 2.51666 19.7917 2.42916 20.025 2.43749C20.2583 2.44583 20.45 2.54166 20.6 2.72499C21.35 3.62499 21.9375 4.59583 22.3625 5.63749C22.7875 6.67916 23 7.87499 23 9.22499C23 10.575 22.7875 11.7708 22.3625 12.8125C21.9375 13.8542 21.35 14.825 20.6 15.725C20.45 15.9083 20.2583 16.0042 20.025 16.0125C19.7917 16.0208 19.5833 15.9333 19.4 15.75ZM15.875 12.15C15.725 12 15.6375 11.8125 15.6125 11.5875C15.5875 11.3625 15.6417 11.15 15.775 10.95C15.925 10.7 16.0417 10.4333 16.125 10.15C16.2083 9.86666 16.25 9.55833 16.25 9.22499C16.25 8.89166 16.2083 8.58333 16.125 8.29999C16.0417 8.01666 15.925 7.74999 15.775 7.49999C15.6417 7.29999 15.5875 7.08749 15.6125 6.86249C15.6375 6.63749 15.725 6.44999 15.875 6.29999C16.0583 6.11666 16.2833 6.02916 16.55 6.03749C16.8167 6.04583 17.0167 6.15833 17.15 6.37499C17.4167 6.79166 17.625 7.24166 17.775 7.72499C17.925 8.20833 18 8.70833 18 9.22499C18 9.74166 17.925 10.2417 17.775 10.725C17.625 11.2083 17.4167 11.6583 17.15 12.075C17.0167 12.2917 16.8167 12.4042 16.55 12.4125C16.2833 12.4208 16.0583 12.3333 15.875 12.15ZM9 12.975C7.9 12.975 7 12.625 6.3 11.925C5.6 11.225 5.25 10.325 5.25 9.22499C5.25 8.12499 5.6 7.22499 6.3 6.52499C7 5.82499 7.9 5.47499 9 5.47499C10.1 5.47499 11 5.82499 11.7 6.52499C12.4 7.22499 12.75 8.12499 12.75 9.22499C12.75 10.325 12.4 11.225 11.7 11.925C11 12.625 10.1 12.975 9 12.975ZM1.75 21C1.53333 21 1.35417 20.9292 1.2125 20.7875C1.07083 20.6458 1 20.4667 1 20.25V18.65C1 18.0167 1.15833 17.4792 1.475 17.0375C1.79167 16.5958 2.2 16.25 2.7 16C3.55 15.5667 4.55417 15.2083 5.7125 14.925C6.87083 14.6417 7.96667 14.5 9 14.5C10.0333 14.5 11.125 14.6417 12.275 14.925C13.425 15.2083 14.425 15.5667 15.275 16C15.775 16.25 16.1875 16.5958 16.5125 17.0375C16.8375 17.4792 17 18.0167 17 18.65V20.25C17 20.4667 16.9292 20.6458 16.7875 20.7875C16.6458 20.9292 16.4667 21 16.25 21H1.75ZM2.5 19.5H15.5V18.65C15.5 18.3833 15.4292 18.1375 15.2875 17.9125C15.1458 17.6875 14.9417 17.5 14.675 17.35C13.875 16.9 12.9667 16.5625 11.95 16.3375C10.9333 16.1125 9.95 16 9 16C8.05 16 7.0625 16.1208 6.0375 16.3625C5.0125 16.6042 4.1 16.9333 3.3 17.35C3.06667 17.4667 2.875 17.6458 2.725 17.8875C2.575 18.1292 2.5 18.3833 2.5 18.65V19.5ZM9 11.475C9.65 11.475 10.1875 11.2625 10.6125 10.8375C11.0375 10.4125 11.25 9.87499 11.25 9.22499C11.25 8.57499 11.0375 8.03749 10.6125 7.61249C10.1875 7.18749 9.65 6.97499 9 6.97499C8.35 6.97499 7.8125 7.18749 7.3875 7.61249C6.9625 8.03749 6.75 8.57499 6.75 9.22499C6.75 9.87499 6.9625 10.4125 7.3875 10.8375C7.8125 11.2625 8.35 11.475 9 11.475Z" />
</svg>
