<svg class="fill-current stroke-current w-full h-full" style="color: inherit" stroke-width="0.2" width="24" height="24" viewBox="0 0 24 24" stroke="none" xmlns="http://www.w3.org/2000/svg">
<path d="M6.36404 7.33137C6.13643 7.19341 6.05726 6.88792 6.19581 6.66126L7.35366 4.7396L8.37297 3.05445C8.75892 2.4139 9.68916 2.4139 10.0751 3.05445L11.5397 5.4787L10.3225 7.50876L9.60999 8.69132C9.45165 8.91798 9.14487 8.99681 8.90736 8.85885L6.36404 7.33137ZM21.7229 12.8106L20.3968 10.6031C20.2583 10.3765 19.9614 10.2976 19.7239 10.4257L17.1509 11.9039C16.9134 12.0419 16.8342 12.3474 16.9727 12.5839L18.9025 15.7965H19.9812C20.5848 15.7965 21.1687 15.5403 21.5547 15.0771C21.8516 14.7125 22 14.2691 22 13.8256C22 13.4708 21.901 13.1259 21.7229 12.8106ZM16.0623 20.7239H17.5467C18.2988 20.7239 18.9817 20.3001 19.3181 19.63L20.7531 16.782H16.0623V16.0035C16.0623 15.56 15.5279 15.3432 15.2211 15.6586L12.4601 18.408C12.2622 18.6051 12.2622 18.9106 12.4601 19.1077L15.2211 21.8572C15.5279 22.1626 16.0623 21.9458 16.0623 21.5122V20.7239ZM9.62978 16.782H5.86923L5.03795 18.1715C4.74107 18.6642 4.72128 19.2752 4.97858 19.7975C5.25567 20.3592 5.83955 20.7239 6.4828 20.7239H9.62978C9.90687 20.7239 10.1246 20.5071 10.1246 20.2311V17.2747C10.1246 16.9988 9.90687 16.782 9.62978 16.782ZM6.28487 14.1705L6.9776 14.5844C7.35366 14.8111 7.81878 14.4662 7.70992 14.0424L6.75989 10.2582C6.70051 10.002 6.43332 9.83446 6.16612 9.90344L2.37588 10.8495C1.95035 10.9579 1.86128 11.5196 2.23734 11.7463L2.89048 12.1405L2.48474 12.8204C2.13838 13.4018 2.10869 14.1114 2.41547 14.7125L4.02854 17.9251L6.28487 14.1705ZM17.0717 5.09437L15.7852 2.9559C15.419 2.36462 14.7758 2 14.0831 2H10.5897L13.6773 7.12443L12.9945 7.52847C12.6184 7.75513 12.6976 8.3267 13.133 8.42524L16.9233 9.37129C17.1905 9.44027 17.4577 9.27274 17.5269 9.01652L18.477 5.24219C18.5858 4.81843 18.1207 4.47352 17.7446 4.70018L17.0717 5.09437Z" />
</svg>
