<svg class="fill-current stroke-current w-full h-full" style="color: inherit" stroke-width="0.2" width="24" height="24" viewBox="0 0 24 24" stroke="none" xmlns="http://www.w3.org/2000/svg">
<path d="M21.034 7.00999C20.4973 7.00999 20.0581 7.4597 20.0581 8.00935V12.6563C18.4188 9.34848 14.9644 8.00935 11.2759 8.00935C9.27547 8.00935 7.36288 8.87878 5.78207 10.098C4.20126 11.3172 2.89368 12.9362 2.10328 14.5551C1.85932 15.0448 2.06424 15.6444 2.54239 15.8942C3.02054 16.1441 3.60602 15.9342 3.84997 15.4445C4.49401 14.1054 5.60643 12.7263 6.95304 11.687C8.29966 10.6476 9.81216 9.99806 11.2661 9.99806C14.7302 9.99806 17.3844 11.2972 18.4871 13.9955H14.1935C13.6568 13.9955 13.2177 14.4452 13.2177 14.9948C13.2177 15.5445 13.6568 15.9942 14.1935 15.9942H21.0242C21.5609 15.9942 22 15.5445 22 14.9948V7.99935C22 7.44971 21.5609 7 21.0242 7L21.034 7.00999Z" />
</svg>
