<svg class="fill-current stroke-current w-full h-full" style="color: inherit" stroke-width="0.2" width="24" height="24" viewBox="0 0 24 24" stroke="none" xmlns="http://www.w3.org/2000/svg">
<path d="M6.88055 6.38952H17.1195V8.21907C17.1195 8.67901 17.6724 8.90387 17.9898 8.5768L20.8464 5.72515C21.0512 5.52073 21.0512 5.20388 20.8464 4.99946L17.9898 2.14781C17.6724 1.83096 17.1195 2.05583 17.1195 2.51577V4.34532H5.85666C5.29352 4.34532 4.83276 4.80527 4.83276 5.36742V9.45581C4.83276 10.018 5.29352 10.4779 5.85666 10.4779C6.4198 10.4779 6.88055 10.018 6.88055 9.45581V6.38952ZM17.1195 16.6105H6.88055V14.7809C6.88055 14.321 6.32765 14.0961 6.01024 14.4232L3.15358 17.2748C2.94881 17.4793 2.94881 17.7961 3.15358 18.0005L6.01024 20.8522C6.32765 21.169 6.88055 20.9442 6.88055 20.4842V18.6547H18.1433C18.7065 18.6547 19.1672 18.1947 19.1672 17.6326V13.5442C19.1672 12.982 18.7065 12.5221 18.1433 12.5221C17.5802 12.5221 17.1195 12.982 17.1195 13.5442V16.6105ZM13.0239 13.7997V9.26161C13.0239 8.80166 12.6553 8.43371 12.1945 8.43371C12.0614 8.43371 11.9386 8.46437 11.8259 8.5257L10.3003 9.28205C10.0853 9.38426 9.95222 9.60912 9.95222 9.8442C9.95222 10.1917 10.2389 10.4779 10.587 10.4779H11.4881V13.7997C11.4881 14.2188 11.8362 14.5663 12.256 14.5663C12.6758 14.5663 13.0239 14.2188 13.0239 13.7997Z" />
</svg>
