<svg class="fill-current stroke-current w-full h-full" style="color: inherit" stroke-width="0.2" width="24" height="24" viewBox="0 0 24 24" stroke="none" xmlns="http://www.w3.org/2000/svg">
<path d="M19.995 13.0125V14.6825C19.995 15.8225 19.5755 16.9025 18.8165 17.7225C18.0474 18.5425 16.9788 19.0125 15.8901 19.0125H7.42072L8.70911 20.3025C9.09863 20.6925 9.09863 21.3225 8.70911 21.7125C8.50936 21.9125 8.25968 22.0025 8 22.0025C7.74032 22.0025 7.49064 21.9025 7.29089 21.7125L4.29463 18.7125C4.20474 18.6225 4.12484 18.5125 4.07491 18.3825C3.97503 18.1425 3.97503 17.8625 4.07491 17.6225C4.12484 17.5025 4.19476 17.3925 4.29463 17.2925L7.29089 14.2925C7.6804 13.9025 8.30961 13.9025 8.69913 14.2925C9.08864 14.6825 9.08864 15.3125 8.69913 15.7025L7.41074 16.9925H15.8901C16.4395 16.9925 16.9588 16.7625 17.3583 16.3325C17.7678 15.8925 17.9975 15.2825 17.9975 14.6625V12.9925C17.9975 12.4425 18.4469 11.9925 18.9963 11.9925C19.5456 11.9925 19.995 12.4425 19.995 12.9925V13.0125ZM5.01373 13.0125C5.56305 13.0125 6.01248 12.5625 6.01248 12.0125V10.3425C6.01248 9.7125 6.2422 9.1025 6.65169 8.6725C7.05119 8.2525 7.57054 8.0125 8.11985 8.0125H16.5793L15.2909 9.3025C14.9014 9.6925 14.9014 10.3225 15.2909 10.7125C15.4906 10.9125 15.7403 11.0025 16 11.0025C16.2597 11.0025 16.5094 10.9025 16.7091 10.7125L19.7054 7.7125C19.7953 7.6225 19.8752 7.5125 19.9251 7.3825C20.025 7.1425 20.025 6.8625 19.9251 6.6225C19.8752 6.5025 19.8052 6.3925 19.7054 6.2925L16.7091 3.2925C16.3196 2.9025 15.6904 2.9025 15.3009 3.2925C14.9114 3.6825 14.9114 4.3125 15.3009 4.7025L16.5893 5.9925H8.11985C7.02122 5.9925 5.96255 6.4625 5.19351 7.2825C4.43446 8.1025 4.01498 9.1725 4.01498 10.3225V11.9925C4.01498 12.5425 4.46442 12.9925 5.01373 12.9925V13.0125Z" />
</svg>
