<svg class="fill-current stroke-current w-full h-full" style="color: inherit" stroke-width="0.2" width="24" height="24" viewBox="0 0 24 24" stroke="none" xmlns="http://www.w3.org/2000/svg">
<path d="M12.4643 6.07013V3.4678C12.4643 3.04807 11.9559 2.84287 11.6641 3.14134L8.08668 6.6764C7.8984 6.86295 7.8984 7.1521 8.08668 7.33865L11.6547 10.8737C11.9559 11.1629 12.4643 10.9577 12.4643 10.5379V7.9356C15.9758 7.9356 18.753 11.1255 17.981 14.7352C17.5386 16.8525 15.8064 18.5594 13.6787 18.9978C10.3179 19.6974 7.32413 17.4122 6.87225 14.3248C6.80635 13.8771 6.41095 13.532 5.94965 13.532C5.3848 13.532 4.93291 14.0264 5.00823 14.586C5.59191 18.6807 9.52706 21.7121 13.98 20.854C16.9172 20.285 19.2802 17.9438 19.8545 15.0337C20.7865 10.2488 17.1149 6.07013 12.4643 6.07013ZM10.1672 13.989H10.5909C10.7886 13.989 10.9392 13.9424 11.0428 13.8398C11.1463 13.7372 11.1934 13.6066 11.1934 13.4387C11.1934 13.3641 11.184 13.2988 11.1557 13.2335C11.1275 13.1682 11.0992 13.1216 11.0522 13.075C11.0051 13.0283 10.9486 12.991 10.8827 12.9724C10.8168 12.9537 10.7321 12.9351 10.6474 12.9351C10.572 12.9351 10.5061 12.9444 10.4402 12.963C10.3743 12.9817 10.3179 13.0097 10.2708 13.0563C10.2237 13.1029 10.1861 13.1403 10.1578 13.1962C10.1296 13.2522 10.1107 13.3175 10.1107 13.3828H9.31053C9.31053 13.2149 9.34819 13.0656 9.41409 12.9351C9.47999 12.8045 9.57413 12.6832 9.69652 12.5899C9.8189 12.4967 9.9507 12.422 10.1107 12.3754C10.2708 12.3288 10.4402 12.3008 10.6191 12.3008C10.8168 12.3008 11.0051 12.3288 11.1746 12.3754C11.344 12.422 11.4852 12.4967 11.6076 12.5899C11.73 12.6832 11.8241 12.8045 11.89 12.9444C11.9559 13.0843 11.9936 13.2522 11.9936 13.4387C11.9936 13.5227 11.9842 13.6066 11.9559 13.6906C11.9277 13.7745 11.89 13.8491 11.8335 13.9238C11.7771 13.9984 11.7206 14.0637 11.6453 14.129C11.57 14.1942 11.4852 14.2409 11.3817 14.2875C11.6076 14.3715 11.7771 14.4834 11.89 14.6513C12.003 14.8192 12.0595 15.0057 12.0595 15.2203C12.0595 15.4068 12.0218 15.5747 11.9465 15.7146C11.8712 15.8545 11.7771 15.9851 11.6453 16.0784C11.5135 16.1716 11.3723 16.2556 11.1934 16.3022C11.0145 16.3489 10.8356 16.3768 10.6285 16.3768C10.4591 16.3768 10.2896 16.3582 10.1296 16.3116C9.96953 16.2649 9.8189 16.1996 9.69652 16.097C9.57413 15.9944 9.46116 15.8825 9.38585 15.7426C9.31053 15.6027 9.27288 15.4255 9.27288 15.2296H10.0731C10.0731 15.3042 10.0919 15.3695 10.1202 15.4348C10.1484 15.5001 10.1861 15.5467 10.2425 15.5933C10.299 15.64 10.3555 15.6773 10.4308 15.6959C10.5061 15.7146 10.5815 15.7333 10.6662 15.7333C10.7603 15.7333 10.8451 15.7239 10.9204 15.6959C10.9957 15.668 11.0616 15.6307 11.1087 15.584C11.1557 15.5374 11.2028 15.4814 11.231 15.4161C11.2593 15.3508 11.2687 15.2762 11.2687 15.1923C11.2687 15.0897 11.2499 14.9964 11.2216 14.9218C11.1934 14.8472 11.1463 14.7819 11.0898 14.7352C11.0333 14.6886 10.9674 14.6513 10.8827 14.6326C10.798 14.614 10.7133 14.5953 10.6097 14.5953H10.1672V13.989ZM15.571 14.6886C15.571 14.9871 15.5428 15.2482 15.4769 15.4534C15.411 15.6586 15.3168 15.8452 15.2038 15.9851C15.0909 16.125 14.9402 16.2276 14.7802 16.2929C14.6202 16.3582 14.4319 16.3862 14.2248 16.3862C14.0177 16.3862 13.8388 16.3582 13.6693 16.2929C13.4999 16.2276 13.3587 16.125 13.2363 15.9851C13.1139 15.8452 13.0197 15.668 12.9538 15.4534C12.8879 15.2389 12.8503 14.9871 12.8503 14.6886V13.9984C12.8503 13.6999 12.8785 13.4387 12.9444 13.2335C13.0103 13.0283 13.1045 12.8418 13.2174 12.7019C13.3304 12.562 13.481 12.4594 13.6411 12.3941C13.8011 12.3288 13.9894 12.3008 14.1965 12.3008C14.4036 12.3008 14.5825 12.3288 14.752 12.3941C14.9214 12.4594 15.0626 12.562 15.185 12.7019C15.3074 12.8418 15.4015 13.019 15.4674 13.2335C15.5333 13.4481 15.571 13.6999 15.571 13.9984V14.6886ZM14.7708 13.8864C14.7708 13.7092 14.7614 13.56 14.7331 13.4387C14.7049 13.3175 14.6672 13.2242 14.6202 13.1496C14.5731 13.075 14.5166 13.019 14.4413 12.991C14.366 12.963 14.2907 12.9444 14.2059 12.9444C14.1212 12.9444 14.0365 12.963 13.9706 12.991C13.9047 13.019 13.8388 13.075 13.7917 13.1496C13.7446 13.2242 13.707 13.3175 13.6787 13.4387C13.6505 13.56 13.6411 13.7092 13.6411 13.8864V14.7912C13.6411 14.9684 13.6505 15.1177 13.6787 15.2389C13.707 15.3602 13.7446 15.4628 13.7917 15.5374C13.8388 15.612 13.8953 15.668 13.9706 15.6959C14.0459 15.7239 14.1212 15.7426 14.2059 15.7426C14.2907 15.7426 14.3754 15.7239 14.4413 15.6959C14.5072 15.668 14.5731 15.612 14.6202 15.5374C14.6672 15.4628 14.7049 15.3602 14.7237 15.2389C14.752 15.1177 14.7614 14.9684 14.7614 14.7912V13.8864H14.7708Z" />
</svg>
