<svg class="fill-current stroke-current w-full h-full" style="color: inherit" stroke-width="0.2" width="24" height="24" viewBox="0 0 24 24" stroke="none" xmlns="http://www.w3.org/2000/svg">
<path d="M11.4642 6.07015V3.46782C11.4642 3.04809 10.9559 2.84289 10.664 3.14136L7.08661 6.67643C6.89833 6.86297 6.89833 7.15212 7.08661 7.33867L10.6546 10.8737C10.9559 11.1629 11.4642 10.9577 11.4642 10.5379V7.93562C14.9757 7.93562 17.7529 11.1256 16.981 14.7353C16.5385 16.8526 14.8063 18.5595 12.6787 18.9979C9.31779 19.6974 6.32406 17.4122 5.87218 14.3249C5.80628 13.8771 5.41088 13.532 4.94958 13.532C4.38473 13.532 3.93285 14.0264 4.00816 14.586C4.59184 18.6807 8.52699 21.7121 12.9799 20.854C15.9172 20.285 18.2801 17.9439 18.8544 15.0337C19.7864 10.2488 16.1149 6.07015 11.4642 6.07015Z" />
</svg>
