<svg class="fill-current stroke-current w-full h-full" style="color: inherit" stroke-width="0.2" width="24" height="24" viewBox="0 0 24 24" stroke="none" xmlns="http://www.w3.org/2000/svg">
<path fill-rule="evenodd" clip-rule="evenodd" d="M7.69888 8.51597L5.46838 10.7611L7.69888 13.0062V11.6983H9.7452C11.8632 11.6983 13.7867 11.966 15.5261 12.5118C14.1039 11.1421 12.1599 10.102 9.45872 9.72091L7.69888 9.46345V8.51597ZM19.496 14.5201C20.2122 15.9413 20.7033 17.4655 21 19C20.0996 17.723 19.0662 16.6931 17.8794 15.9001C16.1809 14.757 14.1755 14.0772 11.7915 13.8404C11.1367 13.7786 10.4614 13.7477 9.7452 13.7477V15.4882C9.7452 16.4047 8.64019 16.8579 7.99559 16.2091L3.29928 11.482C2.90024 11.0803 2.90024 10.4315 3.29928 10.0299L7.99559 5.30279C8.64019 4.65398 9.7452 5.11742 9.7452 6.034V7.67148C14.7792 8.39239 17.7975 11.1524 19.496 14.5201Z" />
</svg>
