<svg class="fill-current stroke-current w-full h-full" style="color: inherit" stroke-width="0.2" width="24" height="24" viewBox="0 0 24 24" stroke="none" xmlns="http://www.w3.org/2000/svg">
<path d="M12.4642 6.07013V3.4678C12.4642 3.04807 11.9558 2.84287 11.664 3.14134L8.09604 6.6764C7.90776 6.86295 7.90776 7.1521 8.09604 7.33865L11.664 10.8737C11.9558 11.1629 12.4642 10.9577 12.4642 10.5473V7.9356C15.9756 7.9356 18.7528 11.1255 17.9808 14.7352C17.5383 16.8525 15.8062 18.5594 13.6786 18.9978C10.3178 19.6974 7.32409 17.4122 6.87221 14.3248C6.81573 13.8771 6.42034 13.532 5.94963 13.532C5.38479 13.532 4.93291 14.0264 5.00823 14.586C5.5919 18.6807 9.52698 21.7121 13.9798 20.854C16.917 20.285 19.2799 17.9438 19.8542 15.0337C20.7862 10.2488 17.1241 6.07013 12.4642 6.07013ZM11.4286 16.3302H10.6284V13.2895L9.6776 13.5786V12.9351L11.3439 12.3474H11.4286V16.3302ZM15.4578 14.6886C15.4578 14.9871 15.4296 15.2482 15.3637 15.4534C15.2978 15.6586 15.2037 15.8452 15.0907 15.9851C14.9777 16.125 14.8271 16.2276 14.6671 16.2929C14.507 16.3582 14.3187 16.3862 14.1116 16.3862C13.9045 16.3862 13.7256 16.3582 13.5562 16.2929C13.3867 16.2276 13.2455 16.125 13.1231 15.9851C13.0008 15.8452 12.9066 15.668 12.8407 15.4534C12.7748 15.2389 12.7372 14.9871 12.7372 14.6886V13.9984C12.7372 13.6999 12.7654 13.4387 12.8313 13.2335C12.8972 13.0283 12.9913 12.8418 13.1043 12.7019C13.2173 12.562 13.3679 12.4594 13.528 12.3941C13.688 12.3288 13.8763 12.3008 14.0834 12.3008C14.2905 12.3008 14.4694 12.3288 14.6388 12.3941C14.8083 12.4594 14.9495 12.562 15.0719 12.7019C15.1942 12.8418 15.2884 13.019 15.3543 13.2335C15.4202 13.4481 15.4578 13.6999 15.4578 13.9984V14.6886ZM14.6576 13.8864C14.6576 13.7092 14.6482 13.56 14.62 13.4387C14.5917 13.3175 14.5541 13.2242 14.507 13.1496C14.4599 13.075 14.4035 13.019 14.3281 12.991C14.2528 12.963 14.1775 12.9444 14.0928 12.9444C14.0081 12.9444 13.9233 12.963 13.8574 12.991C13.7915 13.019 13.7256 13.075 13.6786 13.1496C13.6315 13.2242 13.5938 13.3175 13.5656 13.4387C13.5374 13.56 13.528 13.7092 13.528 13.8864V14.7912C13.528 14.9684 13.5374 15.1177 13.5656 15.2389C13.5938 15.3602 13.6315 15.4628 13.6786 15.5374C13.7256 15.612 13.7821 15.668 13.8574 15.6959C13.9328 15.7239 14.0081 15.7426 14.0928 15.7426C14.1775 15.7426 14.2622 15.7239 14.3281 15.6959C14.394 15.668 14.4599 15.612 14.507 15.5374C14.5541 15.4628 14.5917 15.3602 14.6106 15.2389C14.6294 15.1177 14.6482 14.9684 14.6482 14.7912V13.8864H14.6576Z" />
</svg>
