<svg class="fill-current stroke-current w-full h-full" style="color: inherit" stroke-width="0.2" width="24" height="24" viewBox="0 0 24 24" stroke="none" xmlns="http://www.w3.org/2000/svg">
<path d="M12.4677 6.07004V3.46779C12.4677 3.04807 11.9591 2.84287 11.6671 3.14134L8.08807 6.6763C7.8997 6.86284 7.8997 7.15198 8.08807 7.33852L11.6577 10.8735C11.9591 11.1626 12.4677 10.9574 12.4677 10.5377V7.93546C15.9807 7.93546 18.7592 11.1253 17.9869 14.7349C17.5442 16.8428 15.9713 18.4564 13.8522 18.9601C10.4238 19.7808 7.32517 17.4677 6.86367 14.3338C6.80716 13.8768 6.41158 13.5317 5.95008 13.5317C5.38497 13.5317 4.93288 14.026 5.00823 14.5857C5.60159 18.7549 9.66095 21.8141 14.2101 20.8068C17.1204 20.1633 19.2866 17.9341 19.8517 15.0334C20.7936 10.2486 17.1204 6.07004 12.4677 6.07004ZM11.2338 14.3711L11.4693 12.3472H13.7203V13.0094H12.1192L12.0156 13.8675C12.0438 13.8488 12.0815 13.8395 12.1192 13.8208C12.1568 13.8022 12.2039 13.7835 12.2604 13.7742C12.317 13.7649 12.3735 13.7462 12.43 13.7369C12.4865 13.7276 12.5524 13.7182 12.6183 13.7182C12.8161 13.7182 12.9857 13.7462 13.1364 13.8115C13.2871 13.8768 13.4189 13.9607 13.5225 14.0727C13.6261 14.1846 13.7109 14.3245 13.758 14.4924C13.8051 14.6603 13.8427 14.8468 13.8427 15.052C13.8427 15.2292 13.8145 15.3971 13.758 15.5557C13.7015 15.7142 13.6167 15.8541 13.5037 15.9754C13.3907 16.0967 13.2494 16.1992 13.0799 16.2645C12.9103 16.3298 12.7125 16.3765 12.4771 16.3765C12.3075 16.3765 12.138 16.3485 11.9779 16.3018C11.8178 16.2552 11.6765 16.1713 11.5446 16.078C11.4128 15.9847 11.3186 15.8541 11.2433 15.7142C11.1679 15.5743 11.1208 15.4064 11.1208 15.2199H11.912C11.9308 15.3878 11.9873 15.5184 12.0909 15.6023C12.1945 15.6863 12.3264 15.7422 12.4865 15.7422C12.5901 15.7422 12.6749 15.7236 12.7408 15.6863C12.8067 15.649 12.8726 15.593 12.9103 15.5277C12.948 15.4624 12.9857 15.3878 13.0139 15.2945C13.0422 15.2013 13.0422 15.108 13.0422 15.0054C13.0422 14.9028 13.0328 14.8095 13.0045 14.7162C12.9762 14.623 12.9386 14.5577 12.8821 14.4924C12.8256 14.4271 12.7596 14.3805 12.6843 14.3525C12.6089 14.3245 12.5053 14.3059 12.4017 14.3059C12.3264 14.3059 12.2604 14.3152 12.2134 14.3245C12.1663 14.3338 12.1097 14.3525 12.0721 14.3711C12.0344 14.3898 11.9967 14.4178 11.9591 14.4364C11.9214 14.4551 11.8931 14.4924 11.8649 14.5204L11.2338 14.3711Z" />
</svg>
