<svg class="fill-current stroke-current w-full h-full" style="color: inherit" stroke-width="0.2" width="24" height="24" viewBox="0 0 24 24" stroke="none" xmlns="http://www.w3.org/2000/svg">
<path d="M21.9328 19.6308L12.8401 3.49972C12.6649 3.18989 12.3436 3 11.9932 3C11.6427 3 11.3312 3.18989 11.1559 3.49972L2.13142 19.5008C1.95619 19.8207 1.95619 20.1904 2.13142 20.5003C2.30666 20.8101 2.61818 21 2.96865 21H21.0177C21.3681 21 21.6796 20.8101 21.8646 20.5003C22.0204 20.2304 22.0398 19.9206 21.9328 19.6308ZM4.6723 18.9911L12.0029 5.99833L19.3335 18.9911H4.66257H4.6723ZM12.9861 16.9922C12.9861 17.5419 12.5481 17.9917 12.0126 17.9917C11.4772 17.9917 11.0391 17.5419 11.0391 16.9922C11.0391 16.4425 11.4772 15.9928 12.0126 15.9928C12.5481 15.9928 12.9861 16.4425 12.9861 16.9922ZM12.9861 10.9956V13.4942C12.9861 14.0439 12.5481 14.4936 12.0126 14.4936C11.4772 14.4936 11.0391 14.0439 11.0391 13.4942V10.9956C11.0391 10.4459 11.4772 9.99611 12.0126 9.99611C12.5481 9.99611 12.9861 10.4459 12.9861 10.9956Z" />
</svg>
