<svg class="fill-current stroke-current w-full h-full" style="color: inherit" stroke-width="0.2" width="24" height="24" viewBox="0 0 24 24" stroke="none" xmlns="http://www.w3.org/2000/svg">
<path d="M20.7192 7.98L16.0368 3.3C15.8467 3.11 15.5866 3 15.3264 3H8.68296C8.42282 3 8.16269 3.11 7.98259 3.29L3.29015 7.98C3.11006 8.16 3 8.42 3 8.68V15.31C3 15.58 3.11006 15.83 3.29015 16.02L7.97259 20.7C8.16269 20.89 8.42282 21 8.68296 21H15.3164C15.5866 21 15.8367 20.89 16.0268 20.71L20.7092 16.03C20.8993 15.84 20.9994 15.59 20.9994 15.32V8.68C21.0094 8.42 20.8993 8.16 20.7192 7.98ZM19.0083 14.9L14.9062 19H9.10318L5.00104 14.9V9.1L9.10318 5H14.9062L19.0083 9.1V14.9ZM12.0047 17C12.555 17 13.0052 16.55 13.0052 16C13.0052 15.45 12.555 15 12.0047 15C11.4544 15 11.0042 15.45 11.0042 16C11.0042 16.55 11.4544 17 12.0047 17ZM12.0047 7C11.4544 7 11.0042 7.45 11.0042 8V13C11.0042 13.55 11.4544 14 12.0047 14C12.555 14 13.0052 13.55 13.0052 13V8C13.0052 7.45 12.555 7 12.0047 7Z" />
</svg>
