<svg class="fill-current stroke-current w-full h-full" style="color: inherit" stroke-width="0.2" width="24" height="24" viewBox="0 0 24 24" stroke="none" xmlns="http://www.w3.org/2000/svg">
<path d="M12 5.29153V3.50153C12 3.05153 11.46 2.83153 11.15 3.15153L8.35 5.94153C8.15 6.14153 8.15 6.45153 8.35 6.65153L11.14 9.44153C11.46 9.75153 12 9.53153 12 9.08153V7.29153C15.31 7.29153 18 9.98153 18 13.2915C18 16.0115 16.17 18.3115 13.69 19.0415C13.27 19.1615 13 19.5615 13 19.9915C13 20.6415 13.62 21.1515 14.25 20.9615C17.57 19.9915 20 16.9315 20 13.2915C20 8.87153 16.42 5.29153 12 5.29153V5.29153ZM6 13.2915C6 11.9515 6.44 10.7115 7.19 9.70153C7.49 9.30153 7.45 8.75153 7.1 8.39153C6.68 7.97153 5.96 8.01153 5.6 8.49153C4.6 9.83153 4 11.4915 4 13.2915C4 16.9315 6.43 19.9915 9.75 20.9615C10.38 21.1515 11 20.6415 11 19.9915C11 19.5615 10.73 19.1615 10.31 19.0415C7.83 18.3115 6 16.0115 6 13.2915V13.2915Z" />
</svg>
