<svg class="fill-current stroke-current w-full h-full" style="color: inherit" stroke-width="0.2" width="24" height="24" viewBox="0 0 24 24" stroke="none" xmlns="http://www.w3.org/2000/svg">
<path fill-rule="evenodd" clip-rule="evenodd" d="M11.62 4.01C11.06 4.04 10.52 4.13 10 4.26V12H14V4.26C13.36 4.1 12.69 4 12 4C11.87 4 11.75 4 11.62 4V4.01ZM16 12H20C20 11.31 19.91 10.64 19.75 10C19.43 8.77 18.82 7.65 18 6.72C17.43 6.07 16.75 5.52 16 5.08V12ZM19.67 14H4.33C4.36 14.1 4.4 14.2 4.44 14.29C5.15 16.07 6.69 17.58 8.73 18.39L10 18.89V20H14V18.89L15.27 18.39C17.44 17.54 19.01 15.91 19.67 14ZM2.25 14C2.09 13.38 2 12.73 2 12.07C2 11.99 2 11.9 2 11.82C2.03 10.31 2.48 8.73 3.43 7.14C4.34 5.61 5.59 4.34 7.04 3.43C7.35 3.24 7.67 3.06 8 2.91C8.49 2.68 9 2.49 9.52 2.34C9.68 2.3 9.84 2.26 10 2.22C10.46 2.12 10.94 2.05 11.42 2.02C11.66 2 11.9 2 12.14 2C12.78 2 13.4 2.08 14 2.2C14.3 2.26 14.6 2.34 14.89 2.42C15.27 2.53 15.64 2.67 16 2.83C16.2 2.92 16.39 3.01 16.59 3.11C19.76 4.75 21.94 8.03 22 11.83C22 11.89 22 11.95 22 12C22 12.69 21.91 13.36 21.75 14C21.04 16.81 18.87 19.12 16 20.25V20.5C16 21.33 15.33 22 14.5 22H9.5C8.67 22 8 21.33 8 20.5V20.25C5.13 19.12 2.96 16.81 2.25 14ZM6 6.72C6.57 6.07 7.25 5.52 8 5.08V12H4C4 12 4 11.92 4 11.88C4 11.23 4.1 10.6 4.25 10C4.42 9.33 4.68 8.69 5.02 8.1C5.3 7.61 5.62 7.15 6 6.73V6.72Z" />
</svg>
