<svg class="fill-current stroke-current w-full h-full" style="color: inherit" stroke-width="0.2" width="24" height="24" viewBox="0 0 24 24" stroke="none" xmlns="http://www.w3.org/2000/svg">
<path fill-rule="evenodd" clip-rule="evenodd" d="M6 14.1519V4.02532H18V14.1519H6ZM20 18.2025H21C21.55 18.2025 22 18.6582 22 19.2152C22 19.7722 21.55 20.2278 21 20.2278H13.75C13.75 21.2101 12.97 22 12 22C11.03 22 10.25 21.2101 10.25 20.2278H3C2.45 20.2278 2 19.7722 2 19.2152C2 18.6582 2.45 18.2025 3 18.2025H4V4.02532C4 2.91139 4.9 2 6 2H18C19.1 2 20 2.91139 20 4.02532V18.2025ZM6 16.1772V18.2025H11V16.1772H6ZM13 16.1772V18.2025H18V16.1772H13Z" />
</svg>
