<svg class="fill-current stroke-current w-full h-full" style="color: inherit" stroke-width="0.2" width="24" height="24" viewBox="0 0 24 24" stroke="none" xmlns="http://www.w3.org/2000/svg">
<path fill-rule="evenodd" clip-rule="evenodd" d="M6 11H18V5H6V11ZM10.77 15C10.85 14.93 10.92 14.86 11 14.8V13H6V19H18V13H13V14.8C13.1 14.86 13.19 14.93 13.27 15C13.61 15.3 13.8 15.72 13.8 16.2C13.8 16.49 13.73 16.76 13.62 17C13.33 17.59 12.72 18 12 18C11.28 18 10.68 17.59 10.38 17C10.26 16.76 10.2 16.49 10.2 16.2C10.2 15.72 10.46 15.3 10.77 15ZM20 19H21C21.55 19 22 19.45 22 20C22 20.55 21.55 21 21 21H3C2.45 21 2 20.55 2 20C2 19.45 2.45 19 3 19H4V5C4 3.9 4.9 3 6 3H18C19.1 3 20 3.9 20 5V19Z" />
</svg>
