<svg class="fill-current stroke-current w-full h-full" style="color: inherit" stroke-width="0.2" width="24" height="24" viewBox="0 0 24 24" stroke="none" xmlns="http://www.w3.org/2000/svg">
<path d="M12.9815 18.0787H11.0239V16.1573H12.9815V18.0787ZM9.06636 15.1966V19.0393C9.06636 19.5677 9.50682 20 10.0451 20H13.9603C14.4986 20 14.9391 19.5677 14.9391 19.0393V15.1966C14.9391 14.6683 14.4986 14.236 13.9603 14.236H10.0451C9.50682 14.236 9.06636 14.6683 9.06636 15.1966ZM18.8542 9.7208V5.58991C18.8542 5.06154 18.4138 4.62924 17.8754 4.62924H16.8966C16.3583 4.62924 15.9179 5.06154 15.9179 5.58991V7.12699L12.6585 4.24497C12.2866 3.91834 11.7189 3.91834 11.3469 4.24497L3.16429 11.4788C2.8315 11.767 3.03705 12.3146 3.48729 12.3146H4.7695C5.01419 12.3146 5.2491 12.2282 5.42528 12.0648L12.0027 6.25278L18.5704 12.0648C18.7563 12.2282 18.9912 12.3146 19.2261 12.3146H20.5084C20.9586 12.3146 21.1739 11.767 20.8314 11.4788L18.8542 9.7208Z" />
</svg>
