<svg class="fill-current stroke-current w-full h-full" style="color: inherit" stroke-width="0.2" width="24" height="24" viewBox="0 0 24 24" stroke="none" xmlns="http://www.w3.org/2000/svg">
<path fill-rule="evenodd" clip-rule="evenodd" d="M12 9.45L10.57 9.75C8.25 10.23 6.35 11.86 5.49 14H18.53C17.67 11.85 15.77 10.23 13.45 9.75L12.02 9.45H12ZM20.64 14C20.74 14.33 20.82 14.66 20.88 15C20.94 15.33 20.98 15.66 21 16H3C3.02 15.66 3.06 15.33 3.12 15C3.18 14.66 3.26 14.33 3.36 14C4.11 11.51 5.91 9.48 8.25 8.41C8.85 8.14 9.49 7.93 10.15 7.79C10.05 7.56 9.99 7.29 9.99 7.02C9.99 7.02 9.99 7.01 9.99 7C9.99 5.9 10.89 5 11.99 5C13.09 5 13.99 5.9 13.99 7C13.99 7 13.99 7.01 13.99 7.02C13.99 7.29 13.93 7.56 13.83 7.79C14.49 7.93 15.13 8.14 15.73 8.41C18.07 9.48 19.87 11.51 20.62 14H20.64ZM2 18C2 18.55 2.45 19 3 19H21C21.55 19 22 18.55 22 18C22 17.45 21.55 17 21 17H3C2.45 17 2 17.45 2 18Z" />
</svg>
