<svg class="fill-current stroke-current w-full h-full" style="color: inherit" stroke-width="0.2" width="24" height="24" viewBox="0 0 24 24" stroke="none" xmlns="http://www.w3.org/2000/svg">
<path d="M12 2C8.13 2 5 5.13 5 9C5 14.25 12 22 12 22C12 22 19 14.25 19 9C19 5.13 15.87 2 12 2ZM7 9C7 6.24 9.24 4 12 4C14.76 4 17 6.24 17 9C17 11.76 14.12 16.19 12 18.88C9.92 16.21 7 11.85 7 9ZM12 11.5C13.38 11.5 14.5 10.38 14.5 9C14.5 7.62 13.38 6.5 12 6.5C10.62 6.5 9.5 7.62 9.5 9C9.5 10.38 10.62 11.5 12 11.5Z" />
</svg>
