<svg class="fill-current stroke-current w-full h-full" style="color: inherit" stroke-width="0.2" width="24" height="24" viewBox="0 0 24 24" stroke="none" xmlns="http://www.w3.org/2000/svg">
<path d="M20.29 8.03611C19.57 6.36696 18.33 4.95768 16.78 4.06813C15.23 3.17859 13.41 2.82876 11.65 3.07864C9.9 3.3385 8.24 4.18807 7.01 5.46742L5 7.43641V4.82774C5 4.27802 4.55 3.82825 4 3.82825C3.45 3.82825 3 4.26803 3 4.82774V9.82519C3 9.82519 3.02 9.89516 3.02 9.93514C3.03 10.0251 3.04 10.115 3.07 10.205C3.1 10.285 3.16 10.3549 3.22 10.4349C3.24 10.4649 3.25 10.5048 3.28 10.5348C3.37 10.6248 3.48 10.7047 3.6 10.7547C3.72 10.8047 3.85 10.8347 3.98 10.8347H8.8C9.35 10.8347 9.8 10.3849 9.8 9.83519C9.8 9.28547 9.35 8.8357 8.8 8.8357H6.45L8.43 6.89669C9.37 5.91719 10.62 5.26752 11.94 5.07762C13.26 4.88771 14.62 5.14758 15.78 5.81724C16.95 6.4869 17.9 7.56635 18.45 8.84569C19 10.135 19.14 11.5943 18.84 12.9636C18.54 14.3329 17.81 15.5823 16.79 16.4818C15.77 17.3813 14.48 17.9211 13.15 17.991C11.84 18.071 10.48 17.6912 9.38 16.9216C8.26 16.152 7.4 14.9926 6.96 13.6732C6.78 13.1535 6.22 12.8636 5.69 13.0436C5.17 13.2235 4.89 13.7832 5.06 14.3129C5.64 16.042 6.77 17.5512 8.24 18.5607C9.59 19.4903 11.19 20 12.81 20C12.97 20 13.12 20 13.28 19.99C15.05 19.8801 16.77 19.1704 18.12 17.981C19.46 16.8016 20.42 15.1625 20.8 13.3834C21.19 11.6043 21.01 9.71525 20.29 8.0461V8.03611Z" />
</svg>
