<svg class="fill-current stroke-current w-full h-full" style="color: inherit" stroke-width="0.2" width="24" height="24" viewBox="0 0 24 24" stroke="none" xmlns="http://www.w3.org/2000/svg">
<path d="M15.0294 5.3767L12.8602 3.28444C12.2287 2.67543 11.1289 3.10763 11.1289 3.98186V4.63016C7.11633 5.11148 4 8.41194 4 12.4196C4 15.9951 6.47474 19.0107 9.87622 19.9636C10.5076 20.1404 11.1289 19.6492 11.1289 19.0206V18.9911C11.1289 18.5687 10.8539 18.1856 10.4363 18.0678C7.89032 17.3605 6.03682 15.1013 6.03682 12.4196C6.03682 9.50227 8.23658 7.08586 11.1289 6.61437V8.11726C11.1289 8.99149 12.2186 9.42369 12.8602 8.81468L15.0294 6.77153C15.4367 6.39827 15.4367 5.76961 15.0294 5.3767ZM19.9585 10.2193C19.7955 9.67908 19.5715 9.15848 19.2863 8.65751C18.9706 8.09761 18.1661 8.00921 17.6976 8.46106L17.6874 8.47088C17.3717 8.77539 17.3004 9.23706 17.5143 9.61032C17.718 9.97377 17.8809 10.3569 18.0031 10.7498C18.1253 11.1623 18.5225 11.4374 18.9604 11.4374H18.9808C19.6428 11.4374 20.152 10.8284 19.9585 10.2193ZM13.1657 18.9813V19.0009C13.1657 19.6394 13.7971 20.1207 14.4285 19.9439C14.9886 19.7867 15.5284 19.5706 16.0478 19.2956C16.6283 18.9911 16.7199 18.2151 16.2515 17.7633L16.2311 17.7436C15.9154 17.4391 15.4367 17.3703 15.0497 17.5766C14.6729 17.7829 14.2757 17.9401 13.8684 18.0579C13.4508 18.1758 13.1657 18.5589 13.1657 18.9813ZM17.6874 16.3782C18.1559 16.8301 18.9604 16.7417 19.2761 16.1818C19.5613 15.6808 19.7853 15.1602 19.9585 14.62C20.1418 14.0109 19.6428 13.4019 18.9808 13.4019H18.9604C18.5123 13.4019 18.1253 13.677 18.0031 14.0895C17.8809 14.4824 17.718 14.8655 17.5143 15.2388C17.3004 15.6121 17.3819 16.0836 17.6874 16.3782Z" />
</svg>
