<svg class="fill-current stroke-current w-full h-full" style="color: inherit" stroke-width="0.2" width="24" height="24" viewBox="0 0 24 24" stroke="none" xmlns="http://www.w3.org/2000/svg">
<g clip-path="url(#clip0_791_2016)">
<path d="M8.50713 14.9632C8.3149 14.9632 8.13278 14.9332 7.98102 14.8832C7.81914 14.8232 7.68762 14.7532 7.57633 14.6432C7.46503 14.5431 7.37398 14.4231 7.31327 14.2731C7.25257 14.1331 7.22222 13.973 7.22222 13.803H5.90695C5.90695 14.1631 5.97777 14.4831 6.11942 14.7532C6.26106 15.0233 6.45329 15.2533 6.68599 15.4433C6.92881 15.6234 7.20198 15.7634 7.51562 15.8534C7.81914 15.9535 8.1429 16.0035 8.48689 16.0035C8.86124 16.0035 9.21535 15.9535 9.52899 15.8534C9.85275 15.7534 10.136 15.6034 10.3687 15.4133C10.6014 15.2233 10.7937 14.9832 10.9252 14.6932C11.0567 14.4031 11.1275 14.0831 11.1275 13.723C11.1275 13.5329 11.1073 13.3429 11.0567 13.1629C11.0061 12.9828 10.9353 12.8128 10.824 12.6527C10.7228 12.4927 10.5812 12.3527 10.4193 12.2226C10.2473 12.0926 10.045 11.9926 9.80216 11.9126C10.0045 11.8226 10.1765 11.7125 10.3283 11.5825C10.48 11.4525 10.6014 11.3124 10.7026 11.1624C10.8038 11.0124 10.8746 10.8624 10.9252 10.7023C10.9758 10.5423 10.996 10.3822 10.996 10.2222C10.996 9.86214 10.9353 9.54207 10.8139 9.26201C10.6925 8.98195 10.5205 8.75189 10.2979 8.57186C10.0956 8.38181 9.82239 8.24179 9.51887 8.14176C9.20523 8.05174 8.86124 8.00173 8.48689 8.00173C8.12267 8.00173 7.78879 8.05174 7.47515 8.16177C7.17163 8.27179 6.89846 8.42182 6.67588 8.61186C6.46341 8.80191 6.29141 9.02195 6.15989 9.28201C6.03848 9.54207 5.97777 9.82213 5.97777 10.1322H7.29304C7.29304 9.96216 7.32339 9.81213 7.38409 9.6821C7.4448 9.55207 7.52574 9.43204 7.63703 9.34202C7.74832 9.252 7.86973 9.17199 8.02149 9.12197C8.17325 9.07196 8.32501 9.04196 8.50713 9.04196C8.91183 9.04196 9.21535 9.14198 9.40758 9.35203C9.59981 9.55207 9.70098 9.84213 9.70098 10.2122C9.70098 10.3923 9.67063 10.5523 9.62004 10.7023C9.56946 10.8524 9.4784 10.9724 9.36711 11.0724C9.25582 11.1724 9.11417 11.2524 8.9523 11.3125C8.79042 11.3725 8.58807 11.4025 8.36549 11.4025H7.58644V12.4327H8.36549C8.58807 12.4327 8.79042 12.4527 8.97253 12.5027C9.15464 12.5527 9.3064 12.6327 9.42781 12.7328C9.54922 12.8428 9.6504 12.9728 9.72122 13.1328C9.79204 13.2929 9.82239 13.4829 9.82239 13.703C9.82239 14.1131 9.70098 14.4231 9.46828 14.6332C9.23558 14.8632 8.91183 14.9632 8.50713 14.9632ZM17.9163 10.2422C17.7342 9.77212 17.4813 9.37203 17.1575 9.04196C16.8338 8.71189 16.4493 8.45183 16.0041 8.27179C15.5691 8.09175 15.0733 8.00173 14.527 8.00173H12.1393V16.0035H14.4663C15.0227 16.0035 15.5387 15.9134 15.994 15.7334C16.4493 15.5534 16.8439 15.3033 17.1676 14.9732C17.4914 14.6432 17.7443 14.2431 17.9163 13.783C18.0883 13.3129 18.1794 12.7928 18.1794 12.2126V11.8126C18.1794 11.2324 18.0883 10.7123 17.9163 10.2422ZM16.7731 12.2026C16.7731 12.6227 16.7225 12.9928 16.6314 13.3329C16.5302 13.663 16.3886 13.953 16.1964 14.1831C16.0041 14.4131 15.7613 14.5932 15.478 14.7132C15.1846 14.8332 14.8508 14.8932 14.4764 14.8932H13.5557V9.11197H14.5371C15.2656 9.11197 15.822 9.34202 16.1964 9.80212C16.5808 10.2622 16.7731 10.9224 16.7731 11.7926V12.2026ZM15.3263 3.84083L16.6719 2.51054C19.7982 3.97086 22.0746 6.88149 22.631 10.3722C22.6918 10.7823 23.0762 11.0624 23.5011 10.9924C23.916 10.9324 24.1992 10.5423 24.1284 10.1322C23.5214 6.32137 21.1337 3.12067 17.8152 1.3803C16.1255 0.490104 13.9402 -0.13003 11.4715 0.0200026L15.3263 3.84083ZM8.9523 20.1544L7.60668 21.4847C4.4804 20.0243 2.20398 17.1137 1.64752 13.623C1.58681 13.2129 1.20235 12.9328 0.777419 13.0028C0.362605 13.0628 0.0793174 13.4529 0.150139 13.863C0.757185 17.6738 3.1449 20.8745 6.46341 22.6149C8.15302 23.5051 10.3384 24.1252 12.807 23.9752L8.9523 20.1544Z" />
</g>
<defs>
<clipPath id="clip0_791_2016">
<rect width="24" height="24" fill="white"/>
</clipPath>
</defs>
</svg>
