<svg class="fill-current stroke-current w-full h-full" style="color: inherit" stroke-width="0.2" width="24" height="24" viewBox="0 0 24 24" stroke="none" xmlns="http://www.w3.org/2000/svg">
<path d="M20.0094 5.00417C19.4591 5.00417 19.0088 5.45434 19.0088 6.00454V8.45543L17.0276 6.51472C15.7768 5.20424 14.1158 4.34393 12.3647 4.08384C10.6037 3.82374 8.78255 4.17387 7.2316 5.06419C5.68066 5.95452 4.42989 7.36503 3.70946 9.03564C2.99902 10.6962 2.80891 12.5969 3.19914 14.3776C3.58938 16.1582 4.53996 17.7988 5.88078 18.9793C7.2316 20.1697 8.95265 20.89 10.7237 20.99C10.8838 20.99 11.0339 21 11.194 21C12.805 21 14.416 20.4998 15.7568 19.5695C17.2277 18.5591 18.3584 17.0486 18.9387 15.3179C19.1189 14.7977 18.8387 14.2275 18.3084 14.0475C17.788 13.8674 17.2177 14.1475 17.0376 14.6777C16.5873 15.9982 15.7268 17.1586 14.6061 17.9289C13.4954 18.6992 12.1546 19.0693 10.8238 18.9893C9.49298 18.9092 8.2022 18.369 7.19158 17.4687C6.17096 16.5684 5.44051 15.3079 5.14033 13.9374C4.84015 12.5669 4.98023 11.0964 5.54057 9.81592C6.09091 8.53546 7.04149 7.46507 8.2122 6.79482C9.37291 6.12458 10.7437 5.86448 12.0545 6.05455C13.3754 6.24462 14.6161 6.89486 15.5867 7.90523L17.718 9.99599H15.2865C14.7362 9.99599 14.2859 10.4462 14.2859 10.9964C14.2859 11.5466 14.7362 11.9967 15.2865 11.9967H19.9994C20.5497 11.9967 21 11.5466 21 10.9964V6.00454C21 5.45434 20.5497 5.00417 19.9994 5.00417H20.0094Z" />
</svg>
