<svg class="fill-current stroke-current w-full h-full" style="color: inherit" stroke-width="0.2" width="24" height="24" viewBox="0 0 24 24" stroke="none" xmlns="http://www.w3.org/2000/svg">
<path d="M6.31258 8.47384C5.84411 8.0221 5.03957 8.10067 4.72386 8.66042C4.43871 9.16126 4.21466 9.67191 4.04153 10.212C3.84803 10.8307 4.35723 11.4396 5.0192 11.4396H5.02938C5.4673 11.4396 5.86448 11.1646 5.98669 10.7521C6.1089 10.3593 6.27184 9.97634 6.47553 9.60317C6.69958 9.23982 6.62829 8.77827 6.31258 8.47384ZM5.03957 13.4036H5.0192C4.35723 13.4036 3.84803 14.0125 4.04153 14.6312C4.20447 15.1614 4.42852 15.6819 4.71368 16.1828C5.02938 16.7425 5.84411 16.8309 6.31258 16.3792C6.6181 16.0747 6.69958 15.623 6.48571 15.2498C6.28203 14.8865 6.11908 14.5035 5.99687 14.1107C5.87466 13.6786 5.47748 13.4036 5.03957 13.4036ZM7.94203 19.3154C8.46142 19.5904 9.00118 19.8064 9.56131 19.9636C10.1927 20.1403 10.8241 19.6493 10.8241 19.0208V18.9914C10.8241 18.5691 10.539 18.1861 10.1112 18.0683C9.70388 17.9504 9.31689 17.7933 8.94008 17.5969C8.55308 17.3907 8.06424 17.4594 7.75872 17.7638L7.72817 17.7933C7.26988 18.2352 7.36154 19.011 7.94203 19.3154ZM12.8711 4.63411V3.98597C12.8711 3.11196 11.7713 2.67005 11.1297 3.28873L8.97063 5.38045C8.56326 5.77326 8.56326 6.40176 8.97063 6.78475L11.1398 8.82737C11.7814 9.43623 12.8711 8.99431 12.8711 8.12031V6.6178C15.7634 7.08918 17.9632 9.50497 17.9632 12.4216C17.9632 15.1025 16.1097 17.3514 13.5637 18.0683C13.1461 18.1861 12.8711 18.5691 12.8711 18.9914V19.011C12.8711 19.6493 13.4924 20.1305 14.1238 19.9537C17.5253 19.011 20 15.9962 20 12.4216C20 8.41492 16.8939 5.1153 12.8711 4.63411Z" />
</svg>
