<svg class="fill-current stroke-current w-full h-full" style="color: inherit" stroke-width="0.2" width="24" height="24" viewBox="0 0 24 24" stroke="none" xmlns="http://www.w3.org/2000/svg">
<path d="M6.25227 20C7.49206 20 8.50455 18.9876 8.50455 17.748C8.50455 16.5083 7.49206 15.4959 6.25227 15.4959C5.01249 15.4959 4 16.5083 4 17.748C4 18.9876 5.01249 20 6.25227 20ZM5.64271 9.9071C4.77486 9.76248 4 10.4753 4 11.3534C4 12.0868 4.54757 12.6757 5.27078 12.7996C8.28758 13.3265 10.6638 15.7128 11.2011 18.7294C11.3251 19.4525 11.914 20 12.6475 20C13.5257 20 14.2385 19.2252 14.1042 18.3575C13.4017 14.0186 9.98195 10.5992 5.64271 9.9071ZM5.61172 4.00839C4.7542 3.91542 4 4.60756 4 5.46499C4 6.21912 4.56823 6.83895 5.3121 6.91126C11.5214 7.53109 16.4598 12.4691 17.0797 18.6777C17.152 19.4318 17.7719 20 18.5261 20C19.394 20 20.0759 19.2459 19.9932 18.3884C19.239 10.8059 13.2054 4.76252 5.61172 4.00839Z" />
</svg>
