<svg class="fill-current stroke-current w-full h-full" style="color: inherit" stroke-width="0.2" width="24" height="24" viewBox="0 0 24 24" stroke="none" xmlns="http://www.w3.org/2000/svg">
<path d="M15.0078 13.5569C16.1648 11.9705 16.6767 9.89289 16.0112 7.68221C15.3149 5.39989 13.3798 3.60883 11.0454 3.13804C6.2844 2.18622 2.17867 6.30054 3.14111 11.0494C3.61209 13.3931 5.40387 15.3275 7.6871 16.0132C9.89866 16.6784 11.9771 16.1667 13.5641 15.0102L19.2569 20.7006C19.6562 21.0998 20.3012 21.0998 20.7005 20.7006C21.0998 20.3015 21.0998 19.6567 20.7005 19.2576L15.0078 13.5569ZM9.65294 14.2631C7.10349 14.2631 5.04551 12.2059 5.04551 9.65749C5.04551 7.10907 7.10349 5.05191 9.65294 5.05191C12.2024 5.05191 14.2604 7.10907 14.2604 9.65749C14.2604 12.2059 12.2024 14.2631 9.65294 14.2631ZM10.4618 8.57262L9.65294 6.07537L8.84408 8.57262H6.32535L8.38333 10.1999L7.59495 12.7279L9.65294 11.162L11.7109 12.7279L10.9225 10.1999L12.9805 8.57262H10.4618Z" />
</svg>
