<svg class="fill-current stroke-current w-full h-full" style="color: inherit" stroke-width="0.2" width="24" height="24" viewBox="0 0 24 24" stroke="none" xmlns="http://www.w3.org/2000/svg">
<path d="M20.7197 7.74L16.2647 3.29C16.0745 3.1 15.8242 3 15.5539 3H5.77308C5.03226 3 4.33148 3.29 3.8109 3.81C3.29032 4.33 3 5.03 3 5.77V18.22C3 18.96 3.29032 19.66 3.8109 20.19C4.33148 20.71 5.03226 21 5.77308 21H18.2269C18.9677 21 19.6685 20.71 20.1891 20.19C20.7097 19.66 21 18.97 21 18.23V8.44C21 8.17 20.8899 7.92 20.7097 7.73L20.7197 7.74ZM15.4538 19H8.55617V13.89H15.4538V19ZM19.0178 18.22C19.0178 18.43 18.9377 18.62 18.7875 18.77C18.6374 18.92 18.4372 19 18.2369 19H17.4561V12.89C17.4561 12.34 17.0056 11.89 16.4549 11.89H7.55506C7.00445 11.89 6.55395 12.34 6.55395 12.89V19H5.77308C5.56285 19 5.37264 18.92 5.22247 18.77C5.0723 18.62 4.99221 18.43 4.99221 18.22V5.78C4.99221 5.57 5.0723 5.38 5.22247 5.23C5.37264 5.08 5.56285 5 5.77308 5H6.55395V8.44C6.55395 8.99 7.00445 9.44 7.55506 9.44H14.673C15.2236 9.44 15.6741 8.99 15.6741 8.44C15.6741 7.89 15.2236 7.44 14.673 7.44H8.55617V5H15.1535L19.0178 8.86V18.22Z" />
</svg>
