<svg class="fill-current stroke-current w-full h-full" style="color: inherit" stroke-width="0.2" width="24" height="24" viewBox="0 0 24 24" stroke="none" xmlns="http://www.w3.org/2000/svg">
<path d="M7.09091 18.3265C4.83068 18.3265 3 16.5 3 14.2449C3 11.9898 4.83068 10.1633 7.09091 10.1633C9.35114 10.1633 11.1818 11.9898 11.1818 14.2449C11.1818 16.5 9.35114 18.3265 7.09091 18.3265ZM7.09091 12.2041C5.96591 12.2041 5.04545 13.1224 5.04545 14.2449C5.04545 15.3673 5.96591 16.2857 7.09091 16.2857C8.21591 16.2857 9.13636 15.3673 9.13636 14.2449C9.13636 13.1224 8.21591 12.2041 7.09091 12.2041ZM11.1818 10.1633C8.92159 10.1633 7.09091 8.33673 7.09091 6.08163C7.09091 3.82653 8.92159 2 11.1818 2C13.442 2 15.2727 3.82653 15.2727 6.08163C15.2727 8.33673 13.442 10.1633 11.1818 10.1633ZM11.1818 4.04082C10.0568 4.04082 9.13636 4.95918 9.13636 6.08163C9.13636 7.20408 10.0568 8.12245 11.1818 8.12245C12.3068 8.12245 13.2273 7.20408 13.2273 6.08163C13.2273 4.95918 12.3068 4.04082 11.1818 4.04082ZM16.9091 22C14.6489 22 12.8182 20.1735 12.8182 17.9184C12.8182 15.6633 14.6489 13.8367 16.9091 13.8367C19.1693 13.8367 21 15.6633 21 17.9184C21 20.1735 19.1693 22 16.9091 22ZM16.9091 15.8776C15.7841 15.8776 14.8636 16.7959 14.8636 17.9184C14.8636 19.0408 15.7841 19.9592 16.9091 19.9592C18.0341 19.9592 18.9545 19.0408 18.9545 17.9184C18.9545 16.7959 18.0341 15.8776 16.9091 15.8776Z" />
</svg>
