<svg class="fill-current stroke-current w-full h-full" style="color: inherit" stroke-width="0.2" width="24" height="24" viewBox="0 0 24 24" stroke="none" xmlns="http://www.w3.org/2000/svg">
<path d="M5 7C5 6.45 5.45 6 6 6H9C9.55 6 10 6.45 10 7C10 7.55 9.55 8 9 8H6C5.45 8 5 7.55 5 7ZM19 10.35L14.48 16H10C10 17.66 8.66 19 7 19C5.34 19 4 17.66 4 16H2V13C2 10.79 3.79 9 6 9H9C9.55 9 10 9.45 10 10V14H13.52L17 9.65V7H15C14.45 7 14 6.55 14 6C14 5.45 14.45 5 15 5H17C18.1 5 19 5.9 19 7V10.35ZM8 16C8 15.45 7.55 15 7 15C6.45 15 6 15.45 6 16C6 16.55 6.45 17 7 17C7.55 17 8 16.55 8 16ZM8 11H6C4.89 11 4 11.89 4 13V14H8V11ZM22 16C22 17.66 20.66 19 19 19C17.34 19 16 17.66 16 16C16 14.34 17.34 13 19 13C20.66 13 22 14.34 22 16ZM20 16C20 15.45 19.55 15 19 15C18.45 15 18 15.45 18 16C18 16.55 18.45 17 19 17C19.55 17 20 16.55 20 16Z" />
</svg>
