<svg class="fill-current stroke-current w-full h-full" style="color: inherit" stroke-width="0.2" width="24" height="24" viewBox="0 0 24 24" stroke="none" xmlns="http://www.w3.org/2000/svg">
<path d="M7.82213 16H15.0021V15C15.0021 12.79 16.7921 11 19.0021 11H19.7421L17.8421 2.56C17.6321 1.65 16.8221 1 15.8921 1H13.0021C12.4521 1 12.0021 1.45 12.0021 2C12.0021 2.55 12.4521 3 13.0021 3H15.8921L17.2921 9.25H17.2821C15.1221 9.9 13.4721 11.73 13.0921 14H7.82213C7.34213 12.66 5.96213 11.76 4.40213 12.06C3.22213 12.29 2.27213 13.26 2.05213 14.44C1.70213 16.34 3.16213 18 5.00213 18C6.30213 18 7.40213 17.16 7.82213 16ZM5.00213 16C4.45213 16 4.00213 15.55 4.00213 15C4.00213 14.45 4.45213 14 5.00213 14C5.55213 14 6.00213 14.45 6.00213 15C6.00213 15.55 5.55213 16 5.00213 16ZM19.0021 12C17.3421 12 16.0021 13.34 16.0021 15C16.0021 16.66 17.3421 18 19.0021 18C20.6621 18 22.0021 16.66 22.0021 15C22.0021 13.34 20.6621 12 19.0021 12ZM19.0021 16C18.4521 16 18.0021 15.55 18.0021 15C18.0021 14.45 18.4521 14 19.0021 14C19.5521 14 20.0021 14.45 20.0021 15C20.0021 15.55 19.5521 16 19.0021 16ZM11.0021 20H7.00213L13.0021 23V21H17.0021L11.0021 18V20Z" />
</svg>
