<svg class="fill-current stroke-current w-full h-full" style="color: inherit" stroke-width="0.2" width="24" height="24" viewBox="0 0 24 24" stroke="none" xmlns="http://www.w3.org/2000/svg">
<g clip-path="url(#clip0_830_3446)">
<path d="M23.5515 12.77L20.9467 10.2L19.5176 11.61L21.7677 13.83L16.031 19.49L4.55756 8.17L10.2943 2.51L12.4227 4.61L13.8518 3.2L11.3686 0.75C10.7706 0.16 9.80776 0.16 9.2199 0.75L2.77371 7.11C2.17572 7.7 2.17572 8.65 2.77371 9.23L14.9566 21.25C15.5546 21.84 16.5175 21.84 17.1053 21.25L23.5515 14.89C24.1495 14.3 24.1495 13.35 23.5515 12.77ZM8.57122 20.48C5.25691 18.94 2.8852 15.76 2.52033 12H1C1.51691 18.16 6.7367 23 13.1119 23L13.7809 22.97L9.91925 19.15L8.57122 20.48V20.48ZM16.2033 9H21.271C21.8285 9 22.2846 8.55 22.2846 8V4C22.2846 3.45 21.8285 3 21.271 3V2.5C21.271 1.12 20.1358 0 18.7371 0C17.3384 0 16.2033 1.12 16.2033 2.5V3C15.6458 3 15.1897 3.45 15.1897 4V8C15.1897 8.55 15.6458 9 16.2033 9ZM17.0141 2.5C17.0141 1.56 17.7844 0.8 18.7371 0.8C19.6899 0.8 20.4602 1.56 20.4602 2.5V3H17.0141V2.5V2.5Z" />
</g>
<defs>
<clipPath id="clip0_830_3446">
<rect width="24" height="24" fill="white"/>
</clipPath>
</defs>
</svg>
