<svg class="fill-current stroke-current w-full h-full" style="color: inherit" stroke-width="0.2" width="24" height="24" viewBox="0 0 24 24" stroke="none" xmlns="http://www.w3.org/2000/svg">
<g clip-path="url(#clip0_830_3251)">
<path d="M10.3484 1.75102C9.75145 1.16067 8.79029 1.16067 8.20348 1.75102L1.7688 8.11478C1.17188 8.70513 1.17188 9.65569 1.7688 10.236L13.9299 22.2631C14.5269 22.8535 15.488 22.8535 16.0748 22.2631L22.5095 15.8994C23.1064 15.309 23.1064 14.3585 22.5095 13.7781L10.3484 1.75102ZM14.2841 20.4921L3.55959 9.88583C3.16501 9.4956 3.16501 8.86523 3.55959 8.475L8.56771 3.52207C8.96229 3.13184 9.59969 3.13184 9.99427 3.52207L20.7288 14.1383C21.1234 14.5286 21.1234 15.1589 20.7288 15.5492L15.7207 20.5021C15.3261 20.8823 14.6786 20.8823 14.2841 20.4921V20.4921ZM17.815 1.40082C16.2266 0.570326 14.2233 -0.030029 11.9469 0.0200005C11.7648 0.0200005 11.6839 0.240131 11.8053 0.370207L15.3261 3.85227L16.6718 2.52148C19.798 3.98234 22.0745 6.89406 22.6309 10.3861C22.6916 10.7964 23.0761 11.0765 23.501 11.0065C23.9158 10.9465 24.1991 10.5562 24.1283 10.146C23.5213 6.34374 21.1335 3.14185 17.815 1.40082V1.40082ZM8.95217 20.1719L7.60656 21.5027C4.48027 20.0418 2.20385 17.1301 1.6474 13.638C1.58669 13.2278 1.20223 12.9476 0.777297 13.0177C0.362483 13.0777 0.0791953 13.4679 0.150017 13.8782C0.757062 17.6904 3.14477 20.8923 6.46329 22.6334C8.05172 23.4639 10.055 24.0642 12.3314 24.0142C12.5135 24.0142 12.5944 23.794 12.473 23.664L8.95217 20.1719V20.1719Z" />
</g>
<defs>
<clipPath id="clip0_830_3251">
<rect width="24" height="24" fill="white"/>
</clipPath>
</defs>
</svg>
