<svg class="fill-current stroke-current w-full h-full" style="color: inherit" stroke-width="0.2" width="24" height="24" viewBox="0 0 24 24" stroke="none" xmlns="http://www.w3.org/2000/svg">
<path d="M18 2H10L4.02 8L4 20C4 21.1 4.9 22 6 22H18C19.1 22 20 21.1 20 20V4C20 2.9 19.1 2 18 2ZM18 20H6V8.83L10.83 4H18V20ZM12 13C11.45 13 11 12.55 11 12V9C11 8.45 11.45 8 12 8C12.55 8 13 8.45 13 9V12C13 12.55 12.55 13 12 13ZM12 15C12.55 15 13 15.45 13 16C13 16.55 12.55 17 12 17C11.45 17 11 16.55 11 16C11 15.45 11.45 15 12 15Z" />
</svg>
