<svg class="fill-current stroke-current w-full h-full" style="color: inherit" stroke-width="0.2" width="24" height="24" viewBox="0 0 24 24" stroke="none" xmlns="http://www.w3.org/2000/svg">
<path d="M18 2H10L4 8V20C4 21.1 4.9 22 6 22H18C19.1 22 20 21.1 20 20V4C20 2.9 19.1 2 18 2ZM18 20H6V8.83L10.83 4H18V20ZM10 11C9.45 11 9 10.55 9 10V8C9 7.45 9.45 7 10 7C10.55 7 11 7.45 11 8V10C11 10.55 10.55 11 10 11ZM13 11C12.45 11 12 10.55 12 10V8C12 7.45 12.45 7 13 7C13.55 7 14 7.45 14 8V10C14 10.55 13.55 11 13 11ZM16 11C15.45 11 15 10.55 15 10V8C15 7.45 15.45 7 16 7C16.55 7 17 7.45 17 8V10C17 10.55 16.55 11 16 11Z" />
</svg>
