<svg class="fill-current stroke-current w-full h-full" style="color: inherit" stroke-width="0.2" width="24" height="24" viewBox="0 0 24 24" stroke="none" xmlns="http://www.w3.org/2000/svg">
<path d="M20.6908 18.2034L15.7408 13.2458C16.7008 11.9064 17.1708 10.1873 16.8708 8.37814C16.4108 5.59949 14.0908 3.39056 11.3008 3.05073C7.08075 2.53098 3.53075 6.07926 4.05075 10.2972C4.39075 13.0859 6.60075 15.3947 9.37075 15.8645C11.1908 16.1644 12.9008 15.6946 14.2408 14.7351L19.2008 19.6926C19.6108 20.1024 20.2808 20.1024 20.6908 19.6926C21.1008 19.2828 21.1008 18.6132 20.6908 18.2134V18.2034ZM10.4808 13.9554C8.00075 13.9554 5.99075 11.9564 5.99075 9.47761C5.99075 6.99881 8.00075 4.98979 10.4808 4.98979C12.9608 4.98979 14.9708 6.98882 14.9708 9.46761C14.9708 11.9464 12.9708 13.9454 10.4808 13.9454V13.9554Z" />
</svg>
