<svg class="fill-current stroke-current w-full h-full" style="color: inherit" stroke-width="0.2" width="24" height="24" viewBox="0 0 24 24" stroke="none" xmlns="http://www.w3.org/2000/svg">
<path d="M15.3906 12.8972V13.256V13.6944C16.5889 12.2993 17.208 10.3959 16.8685 8.37293C16.3992 5.60256 14.0825 3.40022 11.2965 3.05143C7.51202 2.58306 4.2767 5.37336 4.00709 8.98082H6.02418C6.26383 6.86816 7.9414 5.19398 10.0783 5.01461C12.6146 4.79537 14.9612 6.93792 14.9612 9.47908C14.9612 12.0202 12.9541 13.9635 10.4677 13.9635C10.298 13.9635 10.1382 13.9336 9.96847 13.9137V15.9267H9.97845C11.7759 16.0662 13.4434 15.4683 14.6916 14.392L14.4619 13.6944L13.4634 13.9635L19.2051 19.6936C19.6145 20.1021 20.2835 20.1021 20.6929 19.6936C21.1024 19.285 21.1024 18.6173 20.6929 18.2087L15.3906 12.8972ZM7.09263 11.1433L4.97569 13.256L2.85876 11.1433C2.65905 10.944 2.34949 10.944 2.14978 11.1433C1.95007 11.3426 1.95007 11.6515 2.14978 11.8508L4.26672 13.9635L2.14978 16.0761C1.95007 16.2755 1.95007 16.5844 2.14978 16.7837C2.34949 16.983 2.65905 16.983 2.85876 16.7837L4.97569 14.671L7.09263 16.7837C7.29234 16.983 7.60189 16.983 7.8016 16.7837C8.00131 16.5844 8.00131 16.2755 7.8016 16.0761L5.68467 13.9635L7.8016 11.8508C8.00131 11.6515 8.00131 11.3426 7.8016 11.1433C7.60189 10.954 7.29234 10.954 7.09263 11.1433Z" />
</svg>
