<svg class="fill-current stroke-current w-full h-full" style="color: inherit" stroke-width="0.2" width="24" height="24" viewBox="0 0 24 24" stroke="none" xmlns="http://www.w3.org/2000/svg">
<path d="M21.41 11.4124L12.58 2.58014C12.21 2.21005 11.7 2 11.17 2H4C2.9 2 2 2.90023 2 4.0005V11.1723C2 11.7024 2.21 12.2126 2.59 12.5826L11.42 21.4149C12.2 22.195 13.47 22.195 14.25 21.4149L21.42 14.2431C22.2 13.4629 22.2 12.2026 21.41 11.4124ZM12.83 20.0045L4 11.1723V4.0005H11.17L20 12.8327L12.83 20.0045ZM6.5 8.0015C7.33 8.0015 8 7.33133 8 6.50113C8 5.67092 7.33 5.00075 6.5 5.00075C5.67 5.00075 5 5.67092 5 6.50113C5 7.33133 5.67 8.0015 6.5 8.0015Z" />
</svg>
