<svg class="fill-current stroke-current w-full h-full" style="color: inherit" stroke-width="0.2" width="24" height="24" viewBox="0 0 24 24" stroke="none" xmlns="http://www.w3.org/2000/svg">
<path d="M16.1492 18H6.02486V6H16.1492C16.1492 6.55 16.6048 7 17.1616 7C17.7184 7 18.174 6.55 18.174 6V3C18.174 1.9 17.2628 1 16.1492 1H6.02486C4.91119 1 4 1.9 4 3V21C4 22.1 4.91119 23 6.02486 23H16.1492C17.2628 23 18.174 22.1 18.174 21V18C18.174 17.45 17.7184 17 17.1616 17C16.6048 17 16.1492 17.45 16.1492 18ZM20.857 11.65L18.0323 8.86C17.7083 8.54 17.1616 8.76 17.1616 9.21V11H13.1119C12.555 11 12.0994 11.45 12.0994 12C12.0994 12.55 12.555 13 13.1119 13H17.1616V14.79C17.1616 15.24 17.7083 15.46 18.0222 15.14L20.8468 12.35C21.0493 12.16 21.0493 11.84 20.857 11.65V11.65Z" />
</svg>
