<svg class="fill-current stroke-current w-full h-full" style="color: inherit" stroke-width="0.2" width="24" height="24" viewBox="0 0 24 24" stroke="none" xmlns="http://www.w3.org/2000/svg">
<path d="M4.05 19.55C3.8 19.65 3.5625 19.6292 3.3375 19.4875C3.1125 19.3458 3 19.1417 3 18.875V14.45C3 14.2667 3.05417 14.1083 3.1625 13.975C3.27083 13.8417 3.40833 13.7583 3.575 13.725L10.55 12L3.575 10.225C3.40833 10.1917 3.27083 10.1083 3.1625 9.975C3.05417 9.84167 3 9.68333 3 9.5V5.125C3 4.85833 3.1125 4.65417 3.3375 4.5125C3.5625 4.37083 3.8 4.35 4.05 4.45L20.35 11.3C20.65 11.4333 20.8 11.6667 20.8 12C20.8 12.3333 20.65 12.5667 20.35 12.7L4.05 19.55Z" />
</svg>
