<svg class="fill-current stroke-current w-full h-full" style="color: inherit" stroke-width="0.2" width="24" height="24" viewBox="0 0 24 24" stroke="none" xmlns="http://www.w3.org/2000/svg">
<path d="M20.9895 3.9953C20.9895 3.9 20.9683 3.80471 20.9365 3.72C20.926 3.68824 20.9154 3.65647 20.8942 3.62471C20.8412 3.50824 20.7777 3.40235 20.6824 3.31765C20.5871 3.22235 20.4812 3.15882 20.3754 3.10588C20.3436 3.0953 20.3118 3.08471 20.2801 3.06353C20.1848 3.03177 20.1001 3.01059 20.0048 3.01059C19.973 3.01059 19.9518 3.01059 19.9201 3.01059C19.8142 3.01059 19.6977 3.03177 19.5918 3.06353L3.70948 8.61177C3.29654 8.76 3.02125 9.14118 3.00007 9.57529C2.97889 10.0094 3.23301 10.4118 3.62478 10.5812L10.4012 13.5882L13.4083 20.3647C13.5777 20.7459 13.9589 20.9894 14.3718 20.9894C14.3824 20.9894 14.4036 20.9894 14.4142 20.9894C14.8483 20.9682 15.2295 20.6929 15.3671 20.28L20.9365 4.40824C20.9789 4.30235 20.9895 4.18588 20.9895 4.08C20.9895 4.04824 20.9895 4.02706 20.9895 3.9953ZM15.9177 6.58941L10.973 11.5341L6.92831 9.73412L15.9071 6.58941H15.9177ZM14.2765 17.0718L12.4765 13.0271L17.4212 8.08235L14.2765 17.0612V17.0718Z" />
</svg>
