<svg class="fill-current stroke-current w-full h-full" style="color: inherit" stroke-width="0.2" width="24" height="24" viewBox="0 0 24 24" stroke="none" xmlns="http://www.w3.org/2000/svg">
<path d="M15.9331 2.57743C16.1474 2.07415 16.7532 1.85047 17.2379 2.11143C19.2137 3.1646 20.8354 4.78628 21.8886 6.76213C22.1495 7.2561 21.9352 7.8619 21.4226 8.07626C20.9845 8.25334 20.4719 8.08558 20.2576 7.66618C19.3722 5.99789 18.0021 4.61852 16.3338 3.74244C15.9237 3.52808 15.756 3.01548 15.9331 2.57743ZM16.688 13.2768C17.2565 13.6124 17.592 14.2275 17.592 14.8799V15.728C17.592 16.2406 17.1726 16.66 16.66 16.66H7.33998C6.82737 16.66 6.40797 16.2406 6.40797 15.728V14.8799C6.40797 14.2275 6.74349 13.6124 7.31202 13.2768C8.68206 12.466 10.2851 12 12 12C13.7149 12 15.3179 12.466 16.688 13.2768ZM15.5882 14.796C14.5351 14.1995 13.3048 13.864 12 13.864C10.6952 13.864 9.46495 14.1995 8.41178 14.796H15.5975H15.5882ZM21.4226 15.9237C20.9845 15.7467 20.4719 15.9144 20.2576 16.3245C19.3815 17.9928 18.0021 19.3628 16.3338 20.2482C15.9144 20.4719 15.7467 20.9845 15.9237 21.4226C16.1381 21.9352 16.7439 22.1495 17.2285 21.8886C19.2044 20.8354 20.8354 19.2137 21.8886 17.2285C22.1495 16.7439 21.9258 16.1381 21.4226 15.9237ZM7.6755 20.2576C6.00721 19.3815 4.63716 18.0021 3.75176 16.3338C3.52808 15.9144 3.01548 15.7467 2.57743 15.9237C2.06483 16.1381 1.85047 16.7439 2.11143 17.2285C3.1646 19.2044 4.78628 20.8354 6.77145 21.8886C7.2561 22.1495 7.8619 21.9258 8.07626 21.4226C8.25334 20.9845 8.07626 20.4719 7.6755 20.2576ZM2.58675 8.07626C3.0248 8.26266 3.5374 8.07626 3.75176 7.6755C4.62784 6.00721 6.00721 4.63716 7.6755 3.75176C8.08558 3.52808 8.25334 3.01548 8.07626 2.57743C7.8619 2.06483 7.2561 1.85047 6.77145 2.11143C4.7956 3.1646 3.1646 4.78628 2.12075 6.76213C1.85979 7.24678 2.07415 7.8619 2.58675 8.07626ZM9.20399 8.27198C9.20399 6.72485 10.4529 5.47597 12 5.47597C13.5471 5.47597 14.796 6.72485 14.796 8.27198C14.796 9.81911 13.5471 11.068 12 11.068C10.4529 11.068 9.20399 9.81911 9.20399 8.27198ZM11.068 8.27198C11.068 8.7939 11.4781 9.20399 12 9.20399C12.5219 9.20399 12.932 8.7939 12.932 8.27198C12.932 7.75006 12.5219 7.33998 12 7.33998C11.4781 7.33998 11.068 7.75006 11.068 8.27198Z" />
</svg>
