<svg class="fill-current stroke-current w-full h-full" style="color: inherit" stroke-width="0.2" width="24" height="24" viewBox="0 0 24 24" stroke="none" xmlns="http://www.w3.org/2000/svg">
<path d="M8.54 8.10016C8.89 8.44408 8.91 8.96486 8.64 9.36773C8.24 9.97695 8 10.7139 8 11.5C8 12.2861 8.24 13.023 8.64 13.6323C8.91 14.0351 8.88 14.5657 8.53 14.8998C8.1 15.3224 7.36 15.2929 7.02 14.7918C6.38 13.8583 6 12.7184 6 11.5C6 10.311 6.36 9.21052 6.97 8.27703C7.33 7.74642 8.08 7.64816 8.54 8.10016ZM15.46 14.8998C15.89 15.3224 16.63 15.2929 16.97 14.7918C17.62 13.8583 18 12.7184 18 11.5C18 10.2816 17.62 9.14173 16.97 8.19843C16.63 7.70712 15.89 7.66781 15.46 8.09034C15.11 8.43425 15.09 8.95504 15.35 9.35791C15.76 9.97695 16 10.7139 16 11.5C16 12.2861 15.76 13.023 15.36 13.6323C15.09 14.0351 15.12 14.5657 15.46 14.8998ZM12 9.53478C10.9 9.53478 10 10.4191 10 11.5C10 12.5809 10.9 13.4652 12 13.4652C13.1 13.4652 14 12.5809 14 11.5C14 10.4191 13.1 9.53478 12 9.53478ZM18.32 17.7101C18.74 18.1228 19.44 18.0933 19.82 17.6315C21.18 15.9512 22 13.819 22 11.5C22 9.18104 21.18 7.04877 19.82 5.3685C19.45 4.90668 18.75 4.8772 18.32 5.28989C17.96 5.64363 17.92 6.1939 18.24 6.58694C19.34 7.93312 20 9.64286 20 11.5C20 13.3571 19.34 15.0669 18.24 16.4131C17.92 16.7963 17.96 17.3564 18.32 17.7101ZM5.68 5.28989C5.26 4.8772 4.56 4.90668 4.18 5.3685C2.82 7.04877 2 9.18104 2 11.5C2 13.819 2.82 15.9512 4.18 17.6315C4.55 18.0933 5.25 18.1228 5.68 17.7101C6.04 17.3564 6.08 16.8061 5.76 16.4131C4.66 15.0669 4 13.3571 4 11.5C4 9.64286 4.66 7.93312 5.76 6.58694C6.08 6.20372 6.04 5.64363 5.68 5.28989Z" />
</svg>
