<svg class="fill-current stroke-current w-full h-full" style="color: inherit" stroke-width="0.2" width="24" height="24" viewBox="0 0 24 24" stroke="none" xmlns="http://www.w3.org/2000/svg">
<path d="M5.83558 17.1204C5.41959 17.5411 4.72626 17.5111 4.34988 17.0402C3.00285 15.327 2.19066 13.153 2.19066 10.7887C2.19066 8.74492 2.79485 6.85144 3.83484 5.26852L2.28971 3.70564C1.90343 3.31492 1.90343 2.68376 2.28971 2.29304C2.67599 1.90232 3.29999 1.90232 3.68627 2.29304L20.4945 19.2944C20.8808 19.6851 20.8808 20.3162 20.4945 20.707C20.1082 21.0977 19.4842 21.0977 19.0979 20.707L8.27213 9.74677C8.18299 10.0774 8.13347 10.428 8.13347 10.7887C8.13347 11.5902 8.37118 12.3416 8.76736 12.9627C9.03479 13.3735 9.00508 13.9044 8.66832 14.2551C8.24242 14.6859 7.50947 14.6558 7.17271 14.1449C6.52891 13.1931 6.15253 12.031 6.15253 10.7887C6.15253 9.85697 6.36053 8.98537 6.727 8.19391L5.27102 6.7212C4.56779 7.91339 4.1716 9.30596 4.1716 10.7887C4.1716 12.6822 4.82531 14.4254 5.91482 15.7979C6.23177 16.1886 6.19215 16.7597 5.83558 17.1204ZM15.5223 7.3223C15.1757 7.67295 15.1559 8.20393 15.4134 8.61468C15.8195 9.23583 16.0572 9.98721 16.0572 10.7887C16.0572 11.1494 16.0077 11.5 15.9185 11.8306L17.4538 13.3835C17.8301 12.592 18.0381 11.7204 18.0381 10.7887C18.0381 9.5464 17.6618 8.38426 17.018 7.42249C16.6812 6.92157 15.9582 6.88149 15.5223 7.3223ZM18.3551 4.45703C17.9985 4.81769 17.9589 5.37872 18.2758 5.77946C19.3654 7.15199 20.0191 8.8952 20.0191 10.7887C20.0191 12.2714 19.6229 13.664 18.9196 14.8562L20.3558 16.3089C21.3958 14.7259 22 12.8325 22 10.7887C22 8.42433 21.1878 6.25033 19.8408 4.53717C19.4644 4.06631 18.7711 4.03625 18.3551 4.45703Z" />
</svg>
