<svg class="fill-current stroke-current w-full h-full" style="color: inherit" stroke-width="0.2" width="24" height="24" viewBox="0 0 24 24" stroke="none" xmlns="http://www.w3.org/2000/svg">
<path d="M7.76 16.198C6.67 15.1287 6 13.6436 6 12C6 10.3564 6.67 8.87129 7.76 7.80198L9.18 9.20792C8.45 9.92079 8 10.9109 8 12C8 13.0891 8.45 14.0792 9.17 14.802L7.76 16.198ZM16.24 16.198C17.33 15.1287 18 13.6436 18 12C18 10.3564 17.33 8.87129 16.24 7.80198L14.82 9.20792C15.55 9.92079 16 10.9109 16 12C16 13.0891 15.55 14.0792 14.83 14.802L16.24 16.198ZM12 10.0198C10.9 10.0198 10 10.9109 10 12C10 13.0891 10.9 13.9802 12 13.9802C13.1 13.9802 14 13.0891 14 12C14 10.9109 13.1 10.0198 12 10.0198ZM20 12C20 14.1881 19.1 16.1683 17.65 17.5941L19.07 19C20.88 17.2079 22 14.7327 22 12C22 9.26733 20.88 6.79208 19.07 5L17.65 6.40594C19.1 7.83168 20 9.81188 20 12ZM6.35 6.40594L4.93 5C3.12 6.79208 2 9.26733 2 12C2 14.7327 3.12 17.2079 4.93 19L6.35 17.5941C4.9 16.1683 4 14.1881 4 12C4 9.81188 4.9 7.83168 6.35 6.40594Z" />
</svg>
