<svg class="fill-current stroke-current w-full h-full" style="color: inherit" stroke-width="0.2" width="24" height="24" viewBox="0 0 24 24" stroke="none" xmlns="http://www.w3.org/2000/svg">
<path d="M15.5 11C16.33 11 17 10.33 17 9.5C17 8.67 16.33 8 15.5 8C14.67 8 14 8.67 14 9.5C14 10.33 14.67 11 15.5 11ZM8.5 11C9.33 11 10 10.33 10 9.5C10 8.67 9.33 8 8.5 8C7.67 8 7 8.67 7 9.5C7 10.33 7.67 11 8.5 11ZM11.99 2C6.47 2 2 6.48 2 12C2 17.52 6.47 22 11.99 22C17.51 22 22 17.52 22 12C22 6.48 17.52 2 11.99 2ZM12 20C7.58 20 4 16.42 4 12C4 7.58 7.58 4 12 4C16.42 4 20 7.58 20 12C20 16.42 16.42 20 12 20ZM16.41 13.89C16.06 13.67 15.59 13.78 15.38 14.13C14.64 15.3 13.38 16 12 16C10.62 16 9.36 15.3 8.62 14.12C8.4 13.77 7.94 13.66 7.59 13.88C7.24 14.1 7.13 14.56 7.35 14.91C8.37 16.54 10.1 17.5 12 17.5C13.9 17.5 15.63 16.53 16.65 14.92C16.87 14.57 16.76 14.11 16.41 13.89Z" />
</svg>
