<svg class="fill-current stroke-current w-full h-full" style="color: inherit" stroke-width="0.2" width="24" height="24" viewBox="0 0 24 24" stroke="none" xmlns="http://www.w3.org/2000/svg">
<path d="M7.1 10.225C7.23333 10.3583 7.38333 10.425 7.55 10.425C7.71667 10.425 7.86667 10.3583 8 10.225L8.675 9.55L9.35 10.225C9.48333 10.3583 9.63333 10.425 9.8 10.425C9.96667 10.425 10.1167 10.3583 10.25 10.225C10.3833 10.0917 10.45 9.94167 10.45 9.775C10.45 9.60833 10.3833 9.45833 10.25 9.325L9.2 8.275C9.11667 8.19167 9.03333 8.13333 8.95 8.1C8.86667 8.06667 8.775 8.05 8.675 8.05C8.575 8.05 8.48333 8.06667 8.4 8.1C8.31667 8.13333 8.23333 8.19167 8.15 8.275L7.1 9.325C6.96667 9.45833 6.9 9.60833 6.9 9.775C6.9 9.94167 6.96667 10.0917 7.1 10.225ZM13.775 10.225C13.9083 10.3583 14.0583 10.425 14.225 10.425C14.3917 10.425 14.5417 10.3583 14.675 10.225L15.35 9.55L16.025 10.225C16.1583 10.3583 16.3083 10.425 16.475 10.425C16.6417 10.425 16.7917 10.3583 16.925 10.225C17.0583 10.0917 17.125 9.94167 17.125 9.775C17.125 9.60833 17.0583 9.45833 16.925 9.325L15.875 8.275C15.7917 8.19167 15.7083 8.13333 15.625 8.1C15.5417 8.06667 15.45 8.05 15.35 8.05C15.25 8.05 15.1583 8.06667 15.075 8.1C14.9917 8.13333 14.9083 8.19167 14.825 8.275L13.775 9.325C13.6417 9.45833 13.575 9.60833 13.575 9.775C13.575 9.94167 13.6417 10.0917 13.775 10.225ZM12 22C10.6333 22 9.34167 21.7375 8.125 21.2125C6.90833 20.6875 5.84583 19.9708 4.9375 19.0625C4.02917 18.1542 3.3125 17.0917 2.7875 15.875C2.2625 14.6583 2 13.3667 2 12C2 10.6167 2.2625 9.31667 2.7875 8.1C3.3125 6.88333 4.02917 5.825 4.9375 4.925C5.84583 4.025 6.90833 3.3125 8.125 2.7875C9.34167 2.2625 10.6333 2 12 2C13.3833 2 14.6833 2.2625 15.9 2.7875C17.1167 3.3125 18.175 4.025 19.075 4.925C19.975 5.825 20.6875 6.88333 21.2125 8.1C21.7375 9.31667 22 10.6167 22 12C22 13.3667 21.7375 14.6583 21.2125 15.875C20.6875 17.0917 19.975 18.1542 19.075 19.0625C18.175 19.9708 17.1167 20.6875 15.9 21.2125C14.6833 21.7375 13.3833 22 12 22ZM12 17.475C12.95 17.475 13.8458 17.25 14.6875 16.8C15.5292 16.35 16.1917 15.725 16.675 14.925C16.8083 14.725 16.8208 14.55 16.7125 14.4C16.6042 14.25 16.4333 14.175 16.2 14.175H7.8C7.56667 14.175 7.4 14.25 7.3 14.4C7.2 14.55 7.21667 14.725 7.35 14.925C7.83333 15.725 8.49167 16.35 9.325 16.8C10.1583 17.25 11.05 17.475 12 17.475Z" />
</svg>
