<svg class="fill-current stroke-current w-full h-full" style="color: inherit" stroke-width="0.2" width="24" height="24" viewBox="0 0 24 24" stroke="none" xmlns="http://www.w3.org/2000/svg">
<path d="M14.2155 21H9.78446L9.38074 18.2369C8.83917 18.0167 8.32713 17.7264 7.84464 17.356L5.21554 18.3971L3 14.6029L5.22538 12.881C5.186 12.5706 5.1663 12.2803 5.1663 12C5.1663 11.7197 5.186 11.4294 5.22538 11.119L3 9.39711L5.21554 5.60289L7.84464 6.64405C8.36652 6.26363 8.86871 5.9733 9.38074 5.76307L9.78446 3H14.2155L14.6193 5.76307C15.151 5.98331 15.6729 6.27364 16.1554 6.64405L18.7845 5.60289L21 9.39711L18.7746 11.119C18.814 11.4294 18.8337 11.7097 18.8337 12C18.8337 12.2903 18.814 12.5706 18.7746 12.881L21 14.6029L18.7845 18.3971L16.1554 17.356C15.6335 17.7364 15.1313 18.0267 14.6193 18.2369L14.2155 21ZM11.488 18.9978H12.512L12.8271 16.8053L13.8807 16.3749C14.2451 16.2247 14.6094 16.0145 14.9934 15.7341L15.8698 15.0834L17.9475 15.9043L18.4201 15.1034L16.6871 13.762L16.8348 12.6107C16.8643 12.3904 16.884 12.1902 16.884 11.98C16.884 11.7697 16.8643 11.5695 16.8348 11.3493L16.6871 10.198L18.4201 8.85651L17.9475 8.05562L15.86 8.88654L14.9836 8.2158C14.6291 7.94549 14.2746 7.74527 13.8906 7.59511L12.837 7.16463L12.5219 4.97219H11.4978L11.1827 7.16463L10.1291 7.59511C9.76477 7.74527 9.40044 7.95551 9.01641 8.23582L8.14989 8.88654L6.07221 8.06563L5.59956 8.86652L7.3326 10.208L7.1849 11.3593C7.15536 11.5795 7.13567 11.7898 7.13567 11.99C7.13567 12.1902 7.15536 12.4004 7.1849 12.6207L7.3326 13.772L5.59956 15.1135L6.07221 15.9143L8.15974 15.0834L9.03611 15.7542C9.38074 16.0245 9.74508 16.2247 10.1291 16.3849L11.1827 16.8153L11.4978 19.0078L11.488 18.9978ZM12 14.9933C10.3753 14.9933 9.04595 13.6418 9.04595 11.99C9.04595 10.3382 10.3753 8.98665 12 8.98665C13.6247 8.98665 14.954 10.3382 14.954 11.99C14.954 13.6418 13.6247 14.9933 12 14.9933ZM12 10.9889C11.4584 10.9889 11.0153 11.4394 11.0153 11.99C11.0153 12.5406 11.4584 12.9911 12 12.9911C12.5416 12.9911 12.9847 12.5406 12.9847 11.99C12.9847 11.4394 12.5416 10.9889 12 10.9889Z" />
</svg>
