<svg class="fill-current stroke-current w-full h-full" style="color: inherit" stroke-width="0.2" width="24" height="24" viewBox="0 0 24 24" stroke="none" xmlns="http://www.w3.org/2000/svg">
<g clip-path="url(#clip0_770_2614)">
<path d="M11.6175 21.9699H13.6373V24H11.6175V21.9699ZM7.57795 21.9699H9.59773V24H7.57795V21.9699ZM15.6571 21.9699H17.6768V24H15.6571V21.9699ZM14.0513 9.78925L17.7071 6.11476C17.899 5.9219 18 5.66814 18 5.39407C18 5.12001 17.8889 4.86625 17.7071 4.67339L13.3343 0.298505C13.0414 0.0041396 12.6072 -0.0770646 12.2335 0.0751934C11.8599 0.227451 11.6175 0.603021 11.6175 1.00904V7.33283L7.71934 3.42487C7.32548 3.029 6.68925 3.029 6.29539 3.42487C5.90154 3.82074 5.90154 4.46022 6.29539 4.85609L11.1934 9.78925L6.29539 14.7123C5.90154 15.1081 5.90154 15.7476 6.29539 16.1435C6.68925 16.5394 7.32548 16.5394 7.71934 16.1435L11.6175 12.2355V18.5593C11.6175 18.9653 11.8599 19.3409 12.2436 19.4932C12.3648 19.5439 12.4961 19.5744 12.6274 19.5744C12.89 19.5744 13.1525 19.4729 13.3444 19.28L17.7071 14.895C17.899 14.7021 18 14.4483 18 14.1743C18 13.9002 17.8889 13.6465 17.7071 13.4536L14.0513 9.78925ZM13.6373 3.46547L15.5662 5.40422L13.6373 7.33283V3.46547ZM13.6373 16.113V12.2355L15.5662 14.1743L13.6373 16.113Z" />
</g>
<defs>
<clipPath id="clip0_770_2614">
<rect width="24" height="24" fill="white"/>
</clipPath>
</defs>
</svg>
