<svg class="fill-current stroke-current w-full h-full" style="color: inherit" stroke-width="0.2" width="24" height="24" viewBox="0 0 24 24" stroke="none" xmlns="http://www.w3.org/2000/svg">
<path d="M11.9993 5.00143C8.5048 5.00143 5.60278 7.54234 5.06054 10.8735C4.96012 11.4637 5.45216 12.0039 6.0647 12.0039C6.55673 12.0039 6.96844 11.6438 7.04877 11.1536C7.46048 8.79278 9.519 7.00214 11.9993 7.00214C14.4795 7.00214 16.5381 8.79278 16.9498 11.1536C17.0301 11.6438 17.4418 12.0039 17.9338 12.0039C18.5464 12.0039 19.0284 11.4637 18.928 10.8735C18.3958 7.54234 15.4937 5.00143 11.9993 5.00143ZM13.0034 14.2947C14.0779 13.8146 14.7707 12.6342 14.4193 11.3037C14.1984 10.4934 13.5457 9.83316 12.7323 9.60307C11.0353 9.1229 9.48888 10.3834 9.48888 12.0039C9.48888 13.0243 10.1115 13.9046 10.9951 14.2947V17.5959L8.27384 20.2969C7.88222 20.687 7.88222 21.3173 8.27384 21.7074C8.66547 22.0975 9.29809 22.0975 9.68971 21.7074L11.9993 19.4066L14.3088 21.7074C14.7005 22.0975 15.3331 22.0975 15.7247 21.7074C16.1163 21.3173 16.1163 20.687 15.7247 20.2969L13.0034 17.5959V14.2947ZM11.9993 1C6.27557 1 1.56607 5.34155 1.00374 10.9035C0.95353 11.4937 1.41544 12.0039 2.0079 12.0039C2.52002 12.0039 2.95181 11.6238 3.00201 11.1236C3.44384 6.56199 7.30985 3.00071 11.9993 3.00071C16.6887 3.00071 20.5547 6.56199 20.9965 11.1236C21.0467 11.6238 21.4785 12.0039 21.9906 12.0039C22.5831 12.0039 23.0551 11.4937 22.9948 10.9035C22.4325 5.34155 17.723 1 11.9993 1Z" />
</svg>
