<svg class="fill-current stroke-current w-full h-full" style="color: inherit" stroke-width="0.2" width="24" height="24" viewBox="0 0 24 24" stroke="none" xmlns="http://www.w3.org/2000/svg">
<path d="M7.0047 23H9.0047V21H7.0047V23ZM11.0047 23H13.0047V21H11.0047V23ZM12.0047 1C11.4547 1 11.0047 1.45 11.0047 2V10C11.0047 10.55 11.4547 11 12.0047 11C12.5547 11 13.0047 10.55 13.0047 10V2C13.0047 1.45 12.5547 1 12.0047 1ZM15.9447 4.06L15.9247 4.08C15.5147 4.49 15.5647 5.16 16.0047 5.54C17.5147 6.88 18.3347 8.97 17.8847 11.24C17.4247 13.52 15.5947 15.38 13.3247 15.86C9.4347 16.69 6.0047 13.74 6.0047 10C6.0047 8.22 6.7847 6.63 8.0147 5.53C8.4447 5.14 8.4847 4.49 8.0847 4.08L8.0647 4.06C7.6947 3.69 7.1047 3.67 6.7047 4.02C4.6947 5.79 3.5847 8.55 4.1447 11.54C4.7347 14.69 7.2547 17.24 10.4047 17.85C15.5247 18.84 20.0047 14.95 20.0047 10C20.0047 7.62 18.9547 5.48 17.2947 4.01C16.9047 3.67 16.3147 3.69 15.9447 4.06ZM15.0047 23H17.0047V21H15.0047V23Z" />
</svg>
