<svg class="fill-current stroke-current w-full h-full" style="color: inherit" stroke-width="0.2" width="24" height="24" viewBox="0 0 24 24" stroke="none" xmlns="http://www.w3.org/2000/svg">
<path d="M11.77 3C9.12 3.07 6.77 4.28 5.17 6.16L3.85 4.85C3.54 4.54 3 4.76 3 5.21V9.5C3 9.78 3.22 10 3.5 10H7.79C8.24 10 8.46 9.46 8.14 9.15L6.59 7.59C7.88 6.02 9.82 5 12 5C16.32 5 19.74 8.94 18.86 13.41C18.32 16.18 16.05 18.39 13.28 18.88C9.48 19.56 6.1 17.14 5.23 13.72C5.11 13.3 4.71 13 4.27 13C3.62 13 3.13 13.61 3.29 14.23C4.28 18.12 7.8 21 12 21C17.06 21 21.14 16.83 21 11.74C20.86 6.86 16.65 2.88 11.77 3ZM14 12C14 10.9 13.1 10 12 10C10.9 10 10 10.9 10 12C10 13.1 10.9 14 12 14C13.1 14 14 13.1 14 12Z" />
</svg>
