<svg class="fill-current stroke-current w-full h-full" style="color: inherit" stroke-width="0.2" width="24" height="24" viewBox="0 0 24 24" stroke="none" xmlns="http://www.w3.org/2000/svg">
<path d="M6.94601 6.23389C6.51137 5.88011 5.87457 5.93065 5.52079 6.36529L1.23501 11.5305C0.921663 11.9045 0.921663 12.4503 1.23501 12.8243L5.52079 17.9895C5.87457 18.4241 6.51137 18.4746 6.94601 18.1209C7.38066 17.7671 7.4312 17.1303 7.07742 16.6956L3.32736 12.1774L7.07742 7.65911C7.4312 7.22447 7.38066 6.58767 6.94601 6.23389ZM6.94601 13.1882H8.96761V11.1666H6.94601V13.1882ZM17.054 11.1666H15.0324V13.1882H17.054V11.1666ZM10.9892 13.1882H13.0108V11.1666H10.9892V13.1882ZM17.054 6.23389C16.6193 6.58767 16.5688 7.22447 16.9226 7.65911L20.6726 12.1774L16.9226 16.6956C16.5688 17.1303 16.6295 17.7671 17.054 18.1209C17.4886 18.4746 18.1254 18.4241 18.4792 17.9895L22.765 12.8243C23.0783 12.4503 23.0783 11.9045 22.765 11.5305L18.4792 6.36529C18.1254 5.94076 17.4785 5.88011 17.054 6.23389Z" />
</svg>
