<svg class="fill-current stroke-current w-full h-full" style="color: inherit" stroke-width="0.2" width="24" height="24" viewBox="0 0 24 24" stroke="none" xmlns="http://www.w3.org/2000/svg">
<path d="M18 16.1365C17.24 16.1365 16.56 16.4378 16.04 16.9096L8.91 12.743C8.96 12.512 9 12.2811 9 12.0402C9 11.7992 8.96 11.5683 8.91 11.3373L15.96 7.21084C16.5 7.71285 17.21 8.0241 18 8.0241C19.66 8.0241 21 6.67871 21 5.01205C21 3.34538 19.66 2 18 2C16.34 2 15 3.34538 15 5.01205C15 5.25301 15.04 5.48394 15.09 5.71486L8.04 9.84137C7.5 9.33936 6.79 9.02811 6 9.02811C4.34 9.02811 3 10.3735 3 12.0402C3 13.7068 4.34 15.0522 6 15.0522C6.79 15.0522 7.5 14.741 8.04 14.239L15.16 18.4157C15.11 18.6265 15.08 18.8474 15.08 19.0683C15.08 20.6847 16.39 22 18 22C19.61 22 20.92 20.6847 20.92 19.0683C20.92 17.4518 19.61 16.1365 18 16.1365ZM18 4.00803C18.55 4.00803 19 4.45984 19 5.01205C19 5.56426 18.55 6.01606 18 6.01606C17.45 6.01606 17 5.56426 17 5.01205C17 4.45984 17.45 4.00803 18 4.00803ZM6 13.0442C5.45 13.0442 5 12.5924 5 12.0402C5 11.488 5.45 11.0361 6 11.0361C6.55 11.0361 7 11.488 7 12.0402C7 12.5924 6.55 13.0442 6 13.0442ZM18 20.0924C17.45 20.0924 17 19.6406 17 19.0884C17 18.5361 17.45 18.0843 18 18.0843C18.55 18.0843 19 18.5361 19 19.0884C19 19.6406 18.55 20.0924 18 20.0924Z" />
</svg>
