<svg class="fill-current stroke-current w-full h-full" style="color: inherit" stroke-width="0.2" width="24" height="24" viewBox="0 0 24 24" stroke="none" xmlns="http://www.w3.org/2000/svg">
<path d="M18 7.85544H16C15.45 7.85544 15 8.30977 15 8.86508C15 9.42038 15.45 9.87471 16 9.87471H18V20.9807H6V9.87471H8C8.55 9.87471 9 9.42038 9 8.86508C9 8.30977 8.55 7.85544 8 7.85544H6C4.9 7.85544 4 8.76411 4 9.87471V20.9807C4 22.0913 4.9 23 6 23H18C19.1 23 20 22.0913 20 20.9807V9.87471C20 8.76411 19.1 7.85544 18 7.85544ZM12 15.9325C12.55 15.9325 13 15.4782 13 14.9229V4.82653H14.79C15.24 4.82653 15.46 4.28132 15.14 3.96833L12.35 1.15145C12.15 0.949518 11.84 0.949518 11.64 1.15145L8.85 3.96833C8.54 4.28132 8.76 4.82653 9.21 4.82653H11V14.9229C11 15.4782 11.45 15.9325 12 15.9325Z" />
</svg>
