<svg class="fill-current stroke-current w-full h-full" style="color: inherit" stroke-width="0.2" width="24" height="24" viewBox="0 0 24 24" stroke="none" xmlns="http://www.w3.org/2000/svg">
<path d="M13.0231 19.9698V22C15.0391 21.799 16.8746 20.995 18.3591 19.7789L16.9348 18.3417C15.8215 19.206 14.4875 19.7889 13.0231 19.9698V19.9698ZM4.00602 12C4.00602 7.92965 7.04514 4.55276 10.9769 4.03015V2C5.9318 2.53266 2 6.81407 2 12C2 17.1859 5.9318 21.4673 10.9769 22V19.9698C7.04514 19.4472 4.00602 16.0704 4.00602 12V12ZM19.9739 10.995H22C21.7994 8.97487 20.997 7.13568 19.7834 5.64824L18.349 7.08543C19.2116 8.19095 19.7934 9.52764 19.9739 10.995ZM18.3591 4.22111C16.8746 3.00503 15.0291 2.20101 13.0231 2V4.03015C14.4875 4.21106 15.8215 4.79397 16.9348 5.65829L18.3591 4.22111V4.22111ZM18.349 16.9246L19.7834 18.3518C20.997 16.8643 21.7994 15.0251 22 13.005H19.9739C19.7934 14.4724 19.2116 15.809 18.349 16.9246ZM16.012 11.0955C16.012 8.59296 14.1063 6.97487 12 6.97487C9.89368 6.97487 7.98796 8.59296 7.98796 11.0955C7.98796 12.7638 9.32197 14.7437 12 17.0251C14.678 14.7437 16.012 12.7638 16.012 11.0955V11.0955ZM12 12C11.4082 12 10.9268 11.5176 10.9268 10.9246C10.9268 10.3317 11.4082 9.84924 12 9.84924C12.5918 9.84924 13.0732 10.3317 13.0732 10.9246C13.0732 11.5176 12.5918 12 12 12Z" />
</svg>
