<svg class="fill-current stroke-current w-full h-full" style="color: inherit" stroke-width="0.2" width="24" height="24" viewBox="0 0 24 24" stroke="none" xmlns="http://www.w3.org/2000/svg">
<path d="M22 8.98736H17.21L12.83 2.42044C12.64 2.14015 12.32 2 12 2C11.68 2 11.36 2.14015 11.17 2.43045L6.79 8.98736H2C1.45 8.98736 1 9.43783 1 9.98841C1 10.0785 1.01 10.1686 1.04 10.2587L3.58 19.5385C3.81 20.3793 4.58 21 5.5 21H18.5C19.42 21 20.19 20.3793 20.43 19.5385L22.97 10.2587L23 9.98841C23 9.43783 22.55 8.98736 22 8.98736ZM12 4.78293L14.8 8.98736H9.2L12 4.78293ZM18.5 18.9979L5.51 19.0079L3.31 10.9895H20.7L18.5 18.9979ZM12 12.9916C10.9 12.9916 10 13.8925 10 14.9937C10 16.0948 10.9 16.9958 12 16.9958C13.1 16.9958 14 16.0948 14 14.9937C14 13.8925 13.1 12.9916 12 12.9916Z" />
</svg>
