<svg class="fill-current stroke-current w-full h-full" style="color: inherit" stroke-width="0.2" width="24" height="24" viewBox="0 0 24 24" stroke="none" xmlns="http://www.w3.org/2000/svg">
<path d="M16.54 13C17.29 13 17.95 12.59 18.29 11.97L21.87 5.48C22.24 4.82 21.76 4 21 4H6.21L5.27 2H3C2.45 2 2 2.45 2 3C2 3.55 2.45 4 3 4H4L7.6 11.59L6.25 14.03C5.52 15.37 6.48 17 8 17H20C20.55 17 21 16.55 21 16C21 15.45 20.55 15 20 15H8L9.1 13H16.55H16.54ZM7.16 6H19.31L16.55 11H9.53L7.16 6ZM10 20C10 21.1 9.1 22 8 22C6.9 22 6.01 21.1 6.01 20C6.01 18.9 6.9 18 8 18C9.1 18 10 18.9 10 20ZM20 20C20 21.1 19.1 22 18 22C16.9 22 16.01 21.1 16.01 20C16.01 18.9 16.9 18 18 18C19.1 18 20 18.9 20 20Z" />
</svg>
