<svg class="fill-current stroke-current w-full h-full" style="color: inherit" stroke-width="0.2" width="24" height="24" viewBox="0 0 24 24" stroke="none" xmlns="http://www.w3.org/2000/svg">
<path d="M10.3441 9.17L5.75726 4.7C5.35706 4.31 4.7106 4.31 4.31041 4.7C3.91021 5.09 3.91021 5.72 4.31041 6.11L8.88697 10.57L10.3441 9.17ZM15.2285 4.85L16.4496 6.04L4.30014 17.88C3.89995 18.27 3.89995 18.9 4.30014 19.29C4.70034 19.68 5.3468 19.68 5.74699 19.29L17.9067 7.46L19.1278 8.65C19.4459 8.96 20 8.74 20 8.29V4.5C20 4.22 19.7743 4 19.4869 4H15.5979C15.1361 4 14.9104 4.54 15.2285 4.85ZM14.6949 13.41L13.248 14.82L16.4598 17.95L15.2285 19.15C14.9104 19.46 15.1361 20 15.5979 20H19.4869C19.7743 20 20 19.78 20 19.5V15.71C20 15.26 19.4459 15.04 19.1278 15.36L17.9067 16.55L14.6949 13.41Z" />
</svg>
