<svg class="fill-current stroke-current w-full h-full" style="color: inherit" stroke-width="0.2" width="24" height="24" viewBox="0 0 24 24" stroke="none" xmlns="http://www.w3.org/2000/svg">
<path d="M20.9778 16.9127C21.54 16.9127 22 16.4528 22 15.8908V9.75982C22 9.19781 21.54 8.73799 20.9778 8.73799C20.4155 8.73799 19.9555 9.19781 19.9555 9.75982V15.8908C19.9555 16.4528 20.4155 16.9127 20.9778 16.9127ZM20.9778 21C21.54 21 22 20.5402 22 19.9782C22 19.4162 21.54 18.9563 20.9778 18.9563C20.4155 18.9563 19.9555 19.4162 19.9555 19.9782C19.9555 20.5402 20.4155 21 20.9778 21ZM4.01865 21H17.911V9.75982C17.911 8.06358 19.2808 6.69432 20.9778 6.69432H22V3.02593C22 2.1165 20.896 1.65668 20.252 2.30043L3.30307 19.2527C2.65906 19.8964 3.10885 21 4.01865 21Z" />
</svg>
