<svg class="fill-current stroke-current w-full h-full" style="color: inherit" stroke-width="0.2" width="24" height="24" viewBox="0 0 24 24" stroke="none" xmlns="http://www.w3.org/2000/svg">
<path fill-rule="evenodd" clip-rule="evenodd" d="M13.35 11.19L7.58 7.11C6.91 6.65 6 7.11 6 7.93V16.07C6 16.88 6.91 17.35 7.58 16.89L13.35 12.82C13.91 12.42 13.91 11.58 13.35 11.19ZM11.04 12L8 14.14V9.86L11.04 12.01V12ZM18 7V17C18 17.55 17.55 18 17 18C16.45 18 16 17.55 16 17V7C16 6.45 16.45 6 17 6C17.55 6 18 6.45 18 7Z" />
</svg>
