<svg class="fill-current stroke-current w-full h-full" style="color: inherit" stroke-width="0.2" width="24" height="24" viewBox="0 0 24 24" stroke="none" xmlns="http://www.w3.org/2000/svg">
<path d="M7.99833 7V17C7.99833 17.55 7.54871 18 6.99917 18C6.44963 18 6 17.55 6 17V7C6 6.45 6.44963 6 6.99917 6C7.54871 6 7.99833 6.45 7.99833 7ZM18 7.93V16.07C18 16.88 17.0808 17.36 16.4213 16.89L10.6561 12.82C10.0866 12.42 10.0866 11.58 10.6561 11.18L16.4213 7.11C17.0908 6.65 18 7.12 18 7.93ZM16.0017 9.85L12.9642 12L16.0017 14.15V9.85Z" />
</svg>
