<svg class="fill-current stroke-current w-full h-full" style="color: inherit" stroke-width="0.2" width="24" height="24" viewBox="0 0 24 24" stroke="none" xmlns="http://www.w3.org/2000/svg">
<path d="M14 11.4C12.79 11.4 11.8 10.41 11.8 9.2V5.2C11.8 3.99 12.79 3 14 3C15.21 3 16.2 3.99 16.2 5.2V9.2C16.2 10.41 15.21 11.4 14 11.4ZM14 5C13.89 5 13.8 5.09 13.8 5.2V9.2C13.8 9.42 14.2 9.42 14.2 9.2V5.2C14.2 5.09 14.11 5 14 5ZM18.8 11.4H17.6C17.05 11.4 16.6 10.95 16.6 10.4V9.2C16.6 7.99 17.59 7 18.8 7C20.01 7 21 7.99 21 9.2C21 10.41 20.01 11.4 18.8 11.4ZM18.6 9.4H18.8C18.91 9.4 19 9.31 19 9.2C19 8.98 18.6 8.98 18.6 9.2V9.4ZM10 21C8.79 21 7.8 20.01 7.8 18.8V14.8C7.8 13.59 8.79 12.6 10 12.6C11.21 12.6 12.2 13.59 12.2 14.8V18.8C12.2 20.01 11.21 21 10 21ZM10 14.6C9.89 14.6 9.8 14.69 9.8 14.8V18.8C9.8 19.02 10.2 19.02 10.2 18.8V14.8C10.2 14.69 10.11 14.6 10 14.6ZM5.2 17C3.99 17 3 16.01 3 14.8C3 13.59 3.99 12.6 5.2 12.6H6.4C6.95 12.6 7.4 13.05 7.4 13.6V14.8C7.4 16.01 6.41 17 5.2 17ZM5.2 14.6C5.09 14.6 5 14.69 5 14.8C5 15.02 5.4 15.02 5.4 14.8V14.6H5.2ZM18.8 16.2H14.8C13.59 16.2 12.6 15.21 12.6 14C12.6 12.79 13.59 11.8 14.8 11.8H18.8C20.01 11.8 21 12.79 21 14C21 15.21 20.01 16.2 18.8 16.2ZM14.8 13.8C14.69 13.8 14.6 13.89 14.6 14C14.6 14.11 14.69 14.2 14.8 14.2H18.8C18.91 14.2 19 14.11 19 14C19 13.89 18.91 13.8 18.8 13.8H14.8ZM14.8 21C13.59 21 12.6 20.01 12.6 18.8V17.6C12.6 17.05 13.05 16.6 13.6 16.6H14.8C16.01 16.6 17 17.59 17 18.8C17 20.01 16.01 21 14.8 21ZM14.6 18.6V18.8C14.6 19.02 15 19.02 15 18.8C15 18.69 14.91 18.6 14.8 18.6H14.6ZM9.2 12.2H5.2C3.99 12.2 3 11.21 3 10C3 8.79 3.99 7.8 5.2 7.8H9.2C10.41 7.8 11.4 8.79 11.4 10C11.4 11.21 10.41 12.2 9.2 12.2ZM5.2 9.8C5.09 9.8 5 9.89 5 10C5 10.11 5.09 10.2 5.2 10.2H9.2C9.31 10.2 9.4 10.11 9.4 10C9.4 9.89 9.31 9.8 9.2 9.8H5.2ZM10.4 7.4H9.2C7.99 7.4 7 6.41 7 5.2C7 3.99 7.99 3 9.2 3C10.41 3 11.4 3.99 11.4 5.2V6.4C11.4 6.95 10.95 7.4 10.4 7.4ZM9.2 5C9.09 5 9 5.09 9 5.2C9 5.31 9.09 5.4 9.2 5.4H9.4V5.2C9.4 5.09 9.31 5 9.2 5Z" />
</svg>
