<svg class="fill-current stroke-current w-full h-full" style="color: inherit" stroke-width="0.2" width="24" height="24" viewBox="0 0 24 24" stroke="none" xmlns="http://www.w3.org/2000/svg">
<path d="M20.5 12.666H22V15.5882H20.5V12.666ZM18 12.666H19.5V15.5882H18V12.666ZM17 14.1271C17 13.3186 16.33 12.666 15.5 12.666H14.66L16.84 14.7895C16.94 14.5849 17 14.3609 17 14.1271ZM18.96 2.29214H19H18.96ZM18.85 4.61043C19.23 4.24028 19.52 3.79221 19.69 3.29544C19.85 2.8084 19.5 2.31163 18.98 2.30188C18.64 2.31163 18.37 2.5454 18.26 2.86684C18.08 3.40258 17.64 3.83117 17.09 4.00651C16.75 4.11365 16.5 4.38639 16.5 4.72732V4.87343C16.5 5.23383 16.77 5.54553 17.14 5.60398C19.07 5.90594 20.5 7.55212 20.5 9.51974V10.9614C20.5 11.3607 20.84 11.6919 21.25 11.6919C21.66 11.6919 22 11.3607 22 10.9614V9.51C22 7.34756 20.72 5.47735 18.85 4.61043V4.61043ZM14.61 8.42878H16.03C17.08 8.42878 18 9.14959 18 10.4256V10.9614C18 11.3607 18.33 11.6919 18.75 11.6919H18.76C19.17 11.6919 19.51 11.3705 19.51 10.9614V10.0944C19.51 8.33137 17.91 7.01638 16.04 7.01638H14.74C13.72 7.01638 12.8 6.30531 12.67 5.31176C12.55 4.38639 13.13 3.65584 13.97 3.4318C14.29 3.34414 14.51 3.06166 14.51 2.73047C14.51 2.25318 14.05 1.89278 13.58 2.02914C12.16 2.42851 11.13 3.71428 11.16 5.22409C11.18 7.02612 12.77 8.42878 14.61 8.42878V8.42878ZM4.12 5.15591C3.73 4.77602 3.1 4.77602 2.71 5.15591C2.32 5.53579 2.32 6.14946 2.71 6.52934L9 12.666H3.5C2.67 12.666 2 13.3186 2 14.1271C2 14.9356 2.67 15.5882 3.5 15.5882H12L18.29 21.7151C18.68 22.095 19.31 22.095 19.7 21.7151C20.09 21.3352 20.09 20.7215 19.7 20.3416L4.12 5.15591Z" />
</svg>
