<svg class="fill-current stroke-current w-full h-full" style="color: inherit" stroke-width="0.2" width="24" height="24" viewBox="0 0 24 24" stroke="none" xmlns="http://www.w3.org/2000/svg">
<path d="M4 4.96593C4 3.88467 4.9 3 6 3C7.1 3 8 3.88467 8 4.96593C8 6.04719 7.1 6.93186 6 6.93186C4.9 6.93186 4 6.04719 4 4.96593ZM8.78 8.48494C7.93 8.12125 6.99 7.91482 6 7.91482C5.01 7.91482 4.07 8.12125 3.22 8.48494C2.48 8.79949 2 9.50723 2 10.3034V10.8637H10V10.3034C10 9.50723 9.52 8.79949 8.78 8.48494ZM18 6.93186C19.1 6.93186 20 6.04719 20 4.96593C20 3.88467 19.1 3 18 3C16.9 3 16 3.88467 16 4.96593C16 6.04719 16.9 6.93186 18 6.93186ZM20.78 8.48494C19.93 8.12125 18.99 7.91482 18 7.91482C17.01 7.91482 16.07 8.12125 15.22 8.48494C14.48 8.79949 14 9.50723 14 10.3034V10.8637H22V10.3034C22 9.50723 21.52 8.79949 20.78 8.48494ZM21.65 16.4175L18.86 13.675C18.54 13.3604 18 13.5767 18 14.019V15.7785H6V14.019C6 13.5767 5.46 13.3604 5.15 13.675L2.36 16.4175C2.16 16.6141 2.16 16.9188 2.36 17.1154L5.15 19.8578C5.46 20.1626 6 19.9463 6 19.504V17.7445H18V19.504C18 19.9463 18.54 20.1626 18.85 19.848L21.64 17.1055C21.84 16.9188 21.84 16.6042 21.65 16.4175Z" />
</svg>
