<svg class="fill-current stroke-current w-full h-full" style="color: inherit" stroke-width="0.2" width="24" height="24" viewBox="0 0 24 24" stroke="none" xmlns="http://www.w3.org/2000/svg">
<path d="M13.0234 3.15C12.8216 2.95 12.509 2.95 12.3073 3.15L10.2802 5.16H15.0404L13.0234 3.15ZM12.3174 21.85C12.5191 22.05 12.8317 22.05 13.0334 21.85L15.0303 19.87H10.3306L12.3174 21.85ZM11.0567 18.23C11.6618 18.23 12.0753 17.63 11.8535 17.07L8.09168 7.53C7.91015 7.07 7.45631 6.77 6.96214 6.77C6.46796 6.77 6.01413 7.07 5.83259 7.53L2.06072 17.06C1.83884 17.62 2.25234 18.22 2.85745 18.22C3.21043 18.22 3.53316 18 3.66427 17.67L4.38032 15.77H9.53387L10.2499 17.67C10.381 18.01 10.7038 18.23 11.0567 18.23ZM4.99552 14.14L6.95205 8.96L8.90858 14.14H4.99552ZM21.2125 16.64H15.8371L21.6059 8.35C22.0698 7.69 21.5857 6.78 20.7789 6.78H14.2437C13.7999 6.78 13.4469 7.14 13.4469 7.58V7.59C13.4469 8.03 13.81 8.39 14.2437 8.39H19.377L13.5982 16.67C13.1343 17.33 13.6184 18.24 14.4252 18.24H21.2025C21.6462 18.24 21.9992 17.88 21.9992 17.45C22.0194 17 21.6563 16.64 21.2125 16.64Z" />
</svg>
