<svg class="fill-current stroke-current w-full h-full" style="color: inherit" stroke-width="0.2" width="24" height="24" viewBox="0 0 24 24" stroke="none" xmlns="http://www.w3.org/2000/svg">
<path fill-rule="evenodd" clip-rule="evenodd" d="M15.4959 8.95027C15.3352 6.59293 14.4612 4.28429 12.8439 2.36529C12.432 1.87824 11.6786 1.87824 11.2667 2.36529C9.60918 4.29403 8.68499 6.60267 8.48408 8.95027C8.8859 9.15483 9.26763 9.37888 9.64937 9.62241C9.79001 9.71007 9.93064 9.80749 10.0713 9.9049C10.0914 9.91464 10.1115 9.93412 10.1316 9.94386C10.5434 10.2361 10.9452 10.5478 11.327 10.879C11.558 11.0836 11.779 11.2881 11.99 11.5024C12.1708 11.3271 12.3516 11.1518 12.5325 10.9862C12.5726 10.9472 12.6229 10.9082 12.6731 10.8693C13.537 10.1192 14.4813 9.47629 15.4959 8.94053V8.95027ZM13.3461 7.92745C13.1251 6.76826 12.6932 5.64804 12.0503 4.62522C11.3772 5.65778 10.9151 6.77801 10.664 7.92745C11.1261 8.21969 11.5681 8.5314 12 8.87234C12.432 8.5314 12.8841 8.21969 13.3461 7.91771V7.92745ZM16.4502 10.6647C16.0886 10.8498 15.737 11.0543 15.4055 11.2686C15.2749 11.3563 15.1443 11.444 15.0137 11.5317C14.6119 11.8239 14.2201 12.1356 13.8585 12.4668C13.6676 12.6421 13.4767 12.8272 13.2959 13.0123C12.8137 13.5091 12.3818 14.0449 12 14.6196C11.6183 14.0449 11.1763 13.5091 10.7042 13.0123C10.1818 12.4668 9.59914 11.97 8.97631 11.5317C8.95622 11.5122 8.93613 11.5024 8.90599 11.483C8.90599 11.483 8.92608 11.4927 8.92608 11.5024C8.94617 11.5122 8.95622 11.5219 8.97631 11.5317C8.95622 11.5219 8.93613 11.5122 8.92608 11.4927C8.92608 11.4927 8.90599 11.483 8.89595 11.4732C8.78545 11.3953 8.67494 11.3271 8.56444 11.2492C8.56444 11.2492 8.54435 11.2394 8.5343 11.2297C8.52426 11.2297 8.51421 11.2102 8.49412 11.2102C8.19275 11.0154 7.8713 10.8303 7.54984 10.6647C7.45943 10.616 7.36901 10.577 7.2786 10.5283C6.00281 9.9049 4.60647 9.50551 3.11972 9.3594C2.47681 9.30095 1.94439 9.81723 2.00466 10.4407C2.45671 15.1164 5.67131 18.9933 10.0211 20.5032C10.6539 20.7272 11.3169 20.8928 12 21C12.6831 20.8831 13.3361 20.7175 13.979 20.5032C18.3288 18.9933 21.5434 15.1261 21.9954 10.4407C22.0557 9.81723 21.5132 9.30095 20.8804 9.3594C19.2931 9.50551 17.7964 9.96334 16.4502 10.655V10.6647ZM19.7954 11.5122C19.032 14.8631 16.5407 17.5517 13.316 18.6719C12.8841 18.818 12.442 18.9349 11.99 19.0226C11.548 18.9349 11.116 18.818 10.7142 18.6816H10.7042C7.46947 17.5614 4.97816 14.8631 4.2147 11.5122C5.3398 11.7654 6.39459 12.2135 7.33888 12.8077C7.48956 12.9246 7.6302 13.0123 7.71057 13.0513C7.71057 13.0513 7.76079 13.0902 7.78088 13.1C8.7754 13.8013 9.63932 14.678 10.3224 15.6911L12 14.6196L13.6777 15.6911C14.3708 14.6683 15.2347 13.7916 16.2493 13.0805L16.2292 13.1C16.2292 13.1 16.2393 13.1 16.2694 13.0708C16.2694 13.0708 16.2795 13.0708 16.2895 13.061C16.3096 13.0415 16.3498 13.022 16.39 13.0026C16.4402 12.9733 16.5005 12.9344 16.5708 12.8857V12.8662C17.5352 12.233 18.6301 11.7654 19.8055 11.5024L19.7954 11.5122Z" />
</svg>
