<svg class="fill-current stroke-current w-full h-full" style="color: inherit" stroke-width="0.2" width="24" height="24" viewBox="0 0 24 24" stroke="none" xmlns="http://www.w3.org/2000/svg">
<path d="M20.3852 8.54161L19.1534 10.3946C19.7443 11.5765 20.0347 12.8886 20.0047 14.2207C19.9646 15.5428 19.6041 16.8449 18.9331 17.9868H5.05277C4.19151 16.4944 3.841 14.7616 4.04129 13.0589C4.24158 11.3461 4.98267 9.74354 6.1644 8.49153C7.34613 7.23952 8.89841 6.39817 10.5909 6.09769C12.2834 5.79721 14.0359 6.04761 15.5782 6.81885L17.4309 5.58687C15.5481 4.37492 13.3049 3.83406 11.0716 4.04439C8.83832 4.25473 6.74525 5.20626 5.12287 6.75875C3.5005 8.30122 2.43894 10.3445 2.10846 12.5681C1.77797 14.7816 2.20861 17.0453 3.32023 18.9984C3.49048 19.2989 3.75086 19.5493 4.05131 19.7296C4.35175 19.9099 4.69224 20 5.04276 20H18.9131C19.2636 20 19.6141 19.9099 19.9145 19.7296C20.225 19.5493 20.4754 19.2989 20.6556 18.9984C21.577 17.3958 22.0377 15.5729 21.9976 13.7299C21.9475 11.887 21.3967 10.0841 20.3852 8.54161H20.3752H20.3852ZM10.5809 15.4026C10.7711 15.5929 10.9915 15.7332 11.2318 15.8333C11.4722 15.9335 11.7326 15.9836 12.003 15.9836C12.2733 15.9836 12.5237 15.9335 12.7741 15.8333C13.0144 15.7332 13.2348 15.5829 13.425 15.4026L19.0933 6.89897L10.5909 12.5681C10.4006 12.7584 10.2604 12.9787 10.1603 13.2191C10.0601 13.4595 10.01 13.7199 10.01 13.9904C10.01 14.2608 10.0601 14.5112 10.1603 14.7616C10.2604 15.002 10.4106 15.2223 10.5909 15.4126L10.5809 15.4026Z" />
</svg>
