<svg class="fill-current stroke-current w-full h-full" style="color: inherit" stroke-width="0.2" width="24" height="24" viewBox="0 0 24 24" stroke="none" xmlns="http://www.w3.org/2000/svg">
<path d="M12.379 15.937C13.0806 15.937 13.5483 15.2504 13.2941 14.6234L8.97291 3.86578C8.7594 3.33835 8.25102 3 7.68164 3C7.11226 3 6.60389 3.33835 6.39037 3.86578L2.06919 14.6234C1.81501 15.2504 2.29288 15.937 2.98427 15.937C3.39097 15.937 3.757 15.6882 3.90951 15.3101L4.80425 12.9516H10.5387L11.4538 15.32C11.6063 15.6882 11.9723 15.937 12.379 15.937ZM5.57697 10.9612L7.68164 5.46798L9.78631 10.9612H5.57697ZM20.2792 12.245L12.7654 19.5992L9.74564 16.6436C9.34911 16.2555 8.70856 16.2555 8.31203 16.6436C7.9155 17.0317 7.9155 17.6586 8.31203 18.0467L12.0537 21.7089C12.4502 22.097 13.0907 22.097 13.4873 21.7089L21.7026 13.6581C22.0991 13.27 22.0991 12.6431 21.7026 12.2549C21.3162 11.8668 20.6655 11.8668 20.2792 12.245Z" />
</svg>
