<svg class="fill-current stroke-current w-full h-full" style="color: inherit" stroke-width="0.2" width="24" height="24" viewBox="0 0 24 24" stroke="none" xmlns="http://www.w3.org/2000/svg">
<path d="M20.0853 3.92283C19.552 3.39006 18.0378 3 16.1236 3C13.1904 3 9.31441 3.91332 6.6193 6.60571C2.15284 11.0772 2.57187 18.7262 3.91467 20.0772C4.44797 20.6099 5.96219 21 7.87638 21C10.8096 21 14.6856 20.0867 17.3807 17.3943C21.8472 12.9228 21.4281 5.27378 20.0853 3.92283ZM6.00981 17.9841C6.60978 16.186 8.06685 13.2368 10.6477 10.6586C13.1999 8.10888 16.1522 6.63425 17.9807 6.01586C17.3807 7.81395 15.9236 10.7632 13.3333 13.3414C10.8001 15.8911 7.84781 17.3658 6.00981 17.9841ZM7.9621 7.96617C10.4763 5.45455 13.9999 4.99789 15.6094 4.93129C13.6571 5.82558 11.3619 7.27167 9.31441 9.31713C7.25737 11.3721 5.81934 13.6744 4.92414 15.6247C5.00985 13.2653 5.75268 10.1638 7.9621 7.96617ZM16.0379 16.0338C13.5237 18.5455 10.0001 19.0021 8.39065 19.0687C10.3429 18.1744 12.6381 16.7283 14.6856 14.6829C16.7426 12.6279 18.1807 10.3256 19.0854 8.37526C18.9901 10.7347 18.2473 13.8362 16.0379 16.0338Z" />
</svg>
