<svg class="fill-current stroke-current w-full h-full" style="color: inherit" stroke-width="0.2" width="24" height="24" viewBox="0 0 24 24" stroke="none" xmlns="http://www.w3.org/2000/svg">
<g clip-path="url(#clip0_768_2342)">
<path d="M20.3089 3.69C19.9889 3.36 18.3689 3 16.2589 3C13.2289 3 9.16886 3.75 6.45886 6.46C1.86886 11.05 2.89886 19.52 3.68886 20.31C4.00886 20.64 5.62886 21 7.73886 21C10.7689 21 14.8289 20.25 17.5389 17.54C22.1289 12.95 21.0989 4.48 20.3089 3.69ZM7.73886 19C6.59886 19 5.71886 18.88 5.20886 18.77C5.02886 17.98 4.90886 16.56 5.03886 14.94L9.04886 18.95C8.52886 18.99 8.07886 19 7.73886 19ZM16.1289 16.13C14.7989 17.46 13.0689 18.18 11.4689 18.57L5.42886 12.53C5.84886 10.85 6.58886 9.16 7.87886 7.88C9.19886 6.56 10.9289 5.84 12.5189 5.45L18.5689 11.5C18.1489 13.17 17.3989 14.85 16.1289 16.13ZM18.9589 9.09L14.9289 5.06C15.4489 5.01 15.9089 5 16.2589 5C17.3989 5 18.2789 5.12 18.7889 5.23C18.9689 6.02 19.0889 7.45 18.9589 9.09ZM14.0989 8.5L8.49886 14.1L9.89886 15.5L15.4989 9.9L14.0989 8.5Z" />
</g>
<defs>
<clipPath id="clip0_768_2342">
<rect width="24" height="24" fill="white"/>
</clipPath>
</defs>
</svg>
