<svg class="fill-current stroke-current w-full h-full" style="color: inherit" stroke-width="0.2" width="24" height="24" viewBox="0 0 24 24" stroke="none" xmlns="http://www.w3.org/2000/svg">
<path fill-rule="evenodd" clip-rule="evenodd" d="M13.02 3.18019C13.33 3.09589 13.65 3.0432 13.99 3.0432C14.82 3.0432 15.74 3.39094 16.83 4.53952C17.48 5.21391 17.93 6.09905 17.99 7.04742C17.99 7.11064 17.99 7.17387 17.99 7.24763C17.99 7.30032 17.99 7.34247 17.99 7.39515C17.97 8.1117 17.77 8.77555 17.44 9.35511H19C19.21 9.35511 19.42 9.38672 19.61 9.46049C20.41 9.73446 21 10.5353 21 11.4626V17.785C21 18.9442 20.1 19.8925 19 19.8925H17C17 21.0516 16.1 22 15 22H8C6.9 22 6 21.0516 6 19.8925V12.8957C4.28 12.4215 3 10.7882 3 8.82824C3 6.97366 4.15 5.41412 5.72 4.85564C6.49 3.16965 8.1 2 9.98 2C9.98 2 9.99 2 10 2C11.14 2 12.16 2.43203 12.96 3.13804C12.98 3.14858 12.99 3.16965 13.01 3.18019H13.02ZM11.74 4.79241C11.74 4.79241 11.73 4.78188 11.72 4.77134C11.37 4.45522 10.77 4.10748 10 4.10748C9.99 4.10748 9.97 4.10748 9.96 4.10748C8.92 4.12856 8 4.75026 7.53 5.76185L7.17 6.5627L6.37 6.84721C5.68 7.10011 5.18 7.70074 5.04 8.41728C5.01 8.55427 5 8.68072 5 8.82824C5 9.80822 5.64 10.6301 6.5 10.8725C6.57 10.8936 6.64 10.9041 6.71 10.9146C6.8 10.9252 6.9 10.9357 7 10.9357C7.96 10.9357 8.59 10.1981 9.3 9.38672C9.94 8.64911 10.63 7.84826 11.67 7.46892C12.06 7.33193 12.49 7.24763 12.99 7.24763H15.99C15.99 7.24763 15.99 7.19494 15.99 7.17387C15.97 6.69968 15.81 6.25711 15.54 5.91992C15.17 5.45627 14.62 5.15069 14 5.15069C13.82 5.15069 13.65 5.16122 13.49 5.19283C13.3 5.22445 13.14 5.2666 13 5.30875C12.71 5.39305 12.53 5.48788 12.53 5.48788L11.75 4.80295L11.74 4.79241ZM8 12.9062C8.67 12.7165 9.21 12.3583 9.64 11.9895C10.09 11.6101 10.52 11.1043 10.83 10.746C10.9 10.6618 10.96 10.588 11.02 10.5248C11.74 9.70285 12.2 9.35511 12.99 9.35511H15V9.54478L13.91 11.4626H15V19.8925H8V12.9062ZM17 17.785H19V11.4626H17V17.785Z" />
</svg>
