<svg class="fill-current stroke-current w-full h-full" style="color: inherit" stroke-width="0.2" width="24" height="24" viewBox="0 0 24 24" stroke="none" xmlns="http://www.w3.org/2000/svg">
<path d="M3.37826 14.7471L3.28926 14.6577C2.90358 14.2701 2.90358 13.6441 3.28926 13.2566L9.31175 7.19496C9.69743 6.80741 10.3204 6.80741 10.7061 7.19496L13.9597 10.4642L20.2788 3.32945C20.6546 2.90215 21.3172 2.89222 21.7128 3.2897C22.0787 3.6673 22.0984 4.26353 21.7523 4.65107L14.6618 12.6703C14.286 13.0976 13.6333 13.1174 13.2279 12.71L10.0139 9.48048L4.77263 14.7471C4.39684 15.1347 3.76394 15.1347 3.37826 14.7471ZM4.77263 20.7093L10.0139 15.4427L13.2279 18.6722C13.6333 19.0797 14.286 19.0598 14.6618 18.6325L21.7523 10.6133C22.0984 10.2258 22.0787 9.62953 21.7128 9.25193C21.3172 8.85444 20.6546 8.86438 20.2788 9.29167L13.9597 16.4265L10.7061 13.1572C10.3204 12.7696 9.69743 12.7696 9.31175 13.1572L3.28926 19.2188C2.90358 19.6063 2.90358 20.2324 3.28926 20.6199L3.37826 20.7093C3.76394 21.0969 4.39684 21.0969 4.77263 20.7093Z" />
</svg>
