<svg class="fill-current stroke-current w-full h-full" style="color: inherit" stroke-width="0.2" width="24" height="24" viewBox="0 0 24 24" stroke="none" xmlns="http://www.w3.org/2000/svg">
<path d="M18.1802 22C18.0202 22 17.8602 21.9599 17.7102 21.8798L12.0002 18.8755L6.29016 21.8798C5.95016 22.0601 5.54016 22.03 5.24016 21.7997C4.93016 21.5794 4.78016 21.1989 4.84016 20.8183L5.93016 14.4492L1.30016 9.95279C1.03016 9.6824 0.930155 9.29185 1.05016 8.93133C1.17016 8.57082 1.48016 8.30043 1.86016 8.25036L8.25016 7.31903L11.1002 1.51073C11.4402 0.829757 12.5602 0.829757 12.8902 1.51073L15.7502 7.30901L22.1402 8.24034C22.5202 8.29041 22.8302 8.5608 22.9502 8.92132C23.0702 9.28183 22.9702 9.6824 22.7002 9.94277L18.0802 14.4492L19.1702 20.8183C19.2302 21.1989 19.0802 21.5694 18.7702 21.7997C18.6002 21.9299 18.3902 21.99 18.1802 21.99V22ZM4.15016 9.93276L7.70016 13.3977C7.94016 13.628 8.04016 13.9585 7.99016 14.289L7.15016 19.176L11.5402 16.8627C11.8302 16.7124 12.1802 16.7124 12.4702 16.8627L16.8602 19.176L16.0202 14.289C15.9602 13.9685 16.0702 13.628 16.3102 13.3977L19.8602 9.93276L14.9502 9.21173C14.6202 9.16166 14.3402 8.96137 14.2002 8.66094L12.0102 4.21459L9.82016 8.66094C9.67016 8.95136 9.39015 9.16166 9.07016 9.21173L4.16016 9.93276H4.15016Z" />
</svg>
