<svg class="fill-current stroke-current w-full h-full" style="color: inherit" stroke-width="0.2" width="24" height="24" viewBox="0 0 24 24" stroke="none" xmlns="http://www.w3.org/2000/svg">
<path d="M15.5733 17.29C15.9717 17.68 16.6151 17.68 17.0134 17.29L21.7013 12.7C22.0996 12.31 22.0996 11.68 21.7013 11.29L17.0134 6.7C16.6151 6.31 15.9717 6.31 15.5733 6.7C15.1852 7.09 15.175 7.73 15.5733 8.12L18.5147 11H7.1066C6.54487 11 6.08528 11.45 6.08528 12C6.08528 12.55 6.54487 13 7.1066 13H18.5147L15.5733 15.88C15.175 16.27 15.175 16.9 15.5733 17.29ZM3.02132 18C3.58305 18 4.04264 17.55 4.04264 17V7C4.04264 6.45 3.58305 6 3.02132 6C2.45959 6 2 6.45 2 7V17C2 17.55 2.45959 18 3.02132 18Z" />
</svg>
