<svg class="fill-current stroke-current w-full h-full" style="color: inherit" stroke-width="0.2" width="24" height="24" viewBox="0 0 24 24" stroke="none" xmlns="http://www.w3.org/2000/svg">
<path fill-rule="evenodd" clip-rule="evenodd" d="M10.7231 8.35243C10.7231 7.58181 11.3644 7.28368 12.4005 7.28368C14.1153 7.32073 15.798 7.75614 17.3156 8.5555V3.90362C15.7508 3.28865 14.0817 2.98208 12.4005 3.00081C8.40674 3.00081 5.72812 5.09275 5.72812 8.58587C5.72812 14.0511 13.233 13.1635 13.233 15.5192C13.233 16.4406 12.4455 16.7264 11.3374 16.7264C9.70331 16.7264 7.59281 16.0502 5.93737 15.1502V19.8629C7.64175 20.6045 9.47922 20.9914 11.3379 21.0002C15.4425 21.0002 18.2719 18.9724 18.2719 15.4186C18.2719 9.52018 10.7231 10.5737 10.7231 8.35356V8.35243Z" />
</svg>
