<svg class="fill-current stroke-current w-full h-full" style="color: inherit" stroke-width="0.2" width="24" height="24" viewBox="0 0 24 24" stroke="none" xmlns="http://www.w3.org/2000/svg">
<path d="M14.59 9.51699C14.59 9.20719 14.54 8.92738 14.44 8.66755C14.35 8.39773 14.2 8.17788 14 7.98801C13.8 7.79813 13.55 7.65823 13.25 7.5483C12.95 7.44837 12.59 7.38841 12.19 7.38841C11.8 7.38841 11.45 7.42838 11.16 7.51832C10.87 7.60826 10.63 7.72818 10.44 7.87808C10.25 8.03797 10.1 8.21785 10 8.42771C9.9 8.63757 9.85 8.85743 9.85 9.08728C9.85 9.56696 10.1 9.96669 10.59 10.2965C10.97 10.5463 11.36 10.7761 12 10.996H7.39C7.34 10.9161 7.28 10.8261 7.24 10.7462C6.98 10.2665 6.85 9.71686 6.85 9.07728C6.85 8.46769 6.98 7.91805 7.25 7.40839C7.51 6.90873 7.88 6.47901 8.36 6.11925C8.84 5.76949 9.41 5.48967 10.06 5.28981C10.72 5.09993 11.45 5 12.24 5C13.05 5 13.78 5.10993 14.45 5.33977C15.11 5.55963 15.68 5.87941 16.14 6.27915C16.61 6.67888 16.97 7.15856 17.22 7.70819C17.47 8.25783 17.6 8.85743 17.6 9.51699H14.59ZM20 11.9953H4C3.45 11.9953 3 12.445 3 12.9947C3 13.5443 3.45 13.994 4 13.994H12.62C12.8 14.064 13.02 14.1339 13.17 14.1939C13.54 14.3638 13.83 14.5336 14.04 14.7035C14.25 14.8734 14.39 15.0633 14.47 15.2732C14.54 15.473 14.58 15.7029 14.58 15.9627C14.58 16.1925 14.53 16.4124 14.44 16.6223C14.35 16.8221 14.21 17.002 14.02 17.1519C13.83 17.3018 13.6 17.4117 13.31 17.5017C13.02 17.5816 12.68 17.6316 12.3 17.6316C11.87 17.6316 11.47 17.5916 11.12 17.5017C10.77 17.4117 10.46 17.2718 10.21 17.0819C9.96 16.8921 9.76 16.6422 9.62 16.3324C9.48 16.0227 9.37 15.573 9.37 15.1233H6.4C6.4 15.6729 6.48 16.2525 6.64 16.7022C6.8 17.1519 7.01 17.5516 7.29 17.9114C7.57 18.2612 7.89 18.571 8.27 18.8308C8.64 19.0906 9.05 19.3105 9.49 19.4803C9.93 19.6502 10.39 19.7801 10.87 19.8701C11.35 19.95 11.83 20 12.31 20C13.11 20 13.84 19.9101 14.49 19.7202C15.14 19.5303 15.7 19.2705 16.16 18.9307C16.62 18.5909 16.98 18.1612 17.23 17.6616C17.48 17.1619 17.61 16.5923 17.61 15.9527C17.61 15.3531 17.51 14.8135 17.3 14.3438C17.25 14.2338 17.19 14.1139 17.13 14.014H20C20.55 14.014 21 13.5643 21 13.0147V12.9947C21 12.445 20.55 11.9953 20 11.9953Z" />
</svg>
