<svg class="fill-current stroke-current w-full h-full" style="color: inherit" stroke-width="0.2" width="24" height="24" viewBox="0 0 24 24" stroke="none" xmlns="http://www.w3.org/2000/svg">
<path fill-rule="evenodd" clip-rule="evenodd" d="M14.5084 5.03C14.5084 5.03 14.5284 5 14.5385 4.99C14.5886 4.93 14.6388 4.87 14.689 4.81C15.0702 4.34 15.5518 3.77 16.214 3.39C16.6154 3.16 17.087 3 17.6488 3C17.6689 3 17.6789 3 17.699 3C19.3144 3 20.6488 4.17 20.9799 5.72C20.9799 5.74 20.9799 5.76 20.99 5.77C20.99 5.79 20.99 5.81 21 5.82V5.84C21 5.85 21 5.87 21 5.88C21 5.91 21 5.95 21 5.98C21 6.53 20.5485 6.98 19.9967 6.98C19.515 6.98 19.1137 6.64 19.0134 6.19C19.0134 6.19 19.0134 6.17 19.0134 6.16C19.0134 6.16 19.0134 6.14 19.0134 6.13C19.0134 6.13 19.0134 6.12 19.0134 6.11C18.8729 5.46 18.3512 4.97 17.689 4.97C17.6388 4.97 17.5987 4.97 17.5585 4.97C17.0368 5.03 16.6856 5.45 16.2542 5.98C16.1839 6.06 16.1137 6.15 16.0334 6.24V14.96C16.0334 15.36 15.913 15.74 15.7023 16.06C15.5318 16.32 15.301 16.54 15.0301 16.69C14.7391 16.86 14.388 16.96 14.0268 16.96H6.48161C5.9097 16.96 5.51839 16.52 5.47826 16.03C5.45819 15.79 5.52843 15.53 5.71906 15.31L14.5084 5.03ZM11.3679 3.31C10.6154 3.11 9.83278 3 9.02007 3C7.50502 3 6.08027 3.38 4.83612 4.03C4.24415 4.34 4.15385 5.15 4.61538 5.61L8.61873 9.6L13.3344 4.1C13.1839 4.02 13.0234 3.94 12.8729 3.86C12.3913 3.63 11.8997 3.45 11.3779 3.31H11.3679ZM9.87291 5.05L8.49833 6.65L7.10368 5.26C7.71572 5.09 8.34783 4.99 9.02007 4.99C9.31104 4.99 9.60201 5.01 9.88294 5.04L9.87291 5.05ZM4.37458 18.1C3.58194 18.37 3 19.12 3 20C3 21.1 3.90301 22 5.00669 22C6.11037 22 7.01338 21.1 7.01338 20C7.01338 19.62 6.90301 19.26 6.72241 18.96C6.65217 18.85 6.57191 18.74 6.48161 18.65C6.11037 18.25 5.58863 18 5.00669 18C4.78595 18 4.56522 18.04 4.37458 18.1V18.1ZM13.3344 18.96C13.1438 19.26 13.0435 19.62 13.0435 20C13.0435 21.1 13.9465 22 15.0502 22C16.1538 22 17.0569 21.1 17.0569 20C17.0569 19.32 16.7057 18.71 16.1739 18.35C15.8528 18.13 15.4615 18 15.0502 18C14.689 18 14.3378 18.1 14.0468 18.27C13.7559 18.44 13.515 18.68 13.3344 18.96ZM8.65886 14.96H14.0368V8.67L8.65886 14.96V14.96Z" />
</svg>
