<svg class="fill-current stroke-current w-full h-full" style="color: inherit" stroke-width="0.2" width="24" height="24" viewBox="0 0 24 24" stroke="none" xmlns="http://www.w3.org/2000/svg">
<path d="M3.24171 18.9L4.58907 19.46V10.43L2.14573 16.29C1.73348 17.31 2.22617 18.48 3.24171 18.9V18.9ZM22.8487 15.2L17.8615 3.23C17.5498 2.48 16.8158 2.02 16.0416 2C15.7802 2 15.5087 2.04 15.2472 2.15L7.8368 5.2C7.08268 5.51 6.62015 6.23 6.60004 7C6.60004 7.27 6.64026 7.54 6.75087 7.8L11.7381 19.77C12.0498 20.53 12.7939 20.99 13.5781 21C13.8396 21 14.101 20.95 14.3524 20.85L21.7528 17.8C22.7784 17.38 23.2711 16.21 22.8487 15.2V15.2ZM13.5982 19L8.61102 7.04L16.0014 4L20.9785 15.95L13.5882 19H13.5982ZM11.7582 9.25C12.3112 9.25 12.7637 8.8 12.7637 8.25C12.7637 7.7 12.3112 7.25 11.7582 7.25C11.2052 7.25 10.7527 7.7 10.7527 8.25C10.7527 8.8 11.2052 9.25 11.7582 9.25ZM6.6101 19C6.6101 20.1 7.51504 21 8.62108 21H10.079L6.6101 12.66V19Z" />
</svg>
