<svg class="fill-current stroke-current w-full h-full" style="color: inherit" stroke-width="0.2" width="24" height="24" viewBox="0 0 24 24" stroke="none" xmlns="http://www.w3.org/2000/svg">
<path d="M20.005 3C19.455 3 19.005 3.45 19.005 4V11C19.005 11.79 18.685 12.56 18.125 13.12C17.565 13.68 16.795 14 16.005 14H6.415L9.705 10.71C10.095 10.32 10.095 9.69 9.705 9.3C9.315 8.91 8.685 8.91 8.295 9.3L3.295 14.29C3.205 14.38 3.125 14.49 3.075 14.62C2.975 14.86 2.975 15.14 3.075 15.38C3.125 15.5 3.195 15.61 3.295 15.71L8.295 20.71C8.495 20.91 8.745 21 9.005 21C9.265 21 9.515 20.9 9.715 20.71C10.105 20.32 10.105 19.69 9.715 19.3L6.425 16.01H16.005C17.335 16.01 18.595 15.49 19.545 14.55C20.495 13.61 21.005 12.35 21.005 11.01V4C21.005 3.45 20.555 3 20.005 3Z" />
</svg>
