<svg class="fill-current stroke-current w-full h-full" style="color: inherit" stroke-width="0.2" width="24" height="24" viewBox="0 0 24 24" stroke="none" xmlns="http://www.w3.org/2000/svg">
<path d="M13 17H5C4.45 17 4 17.45 4 18C4 18.55 4.45 19 5 19H13C13.55 19 14 18.55 14 18C14 17.45 13.55 17 13 17ZM19 9.00003H5C4.45 9.00003 4 9.45003 4 10C4 10.55 4.45 11 5 11H19C19.55 11 20 10.55 20 10C20 9.45003 19.55 9.00003 19 9.00003ZM5 15H19C19.55 15 20 14.55 20 14C20 13.45 19.55 13 19 13H5C4.45 13 4 13.45 4 14C4 14.55 4.45 15 5 15ZM4 6.00003C4 6.55003 4.45 7.00003 5 7.00003H19C19.55 7.00003 20 6.55003 20 6.00003C20 5.45003 19.55 5.00003 19 5.00003H5C4.45 5.00003 4 5.45003 4 6.00003Z" />
</svg>
