<svg class="fill-current stroke-current w-full h-full" style="color: inherit" stroke-width="0.2" width="24" height="24" viewBox="0 0 24 24" stroke="none" xmlns="http://www.w3.org/2000/svg">
<path d="M20 10H4C2.9 10 2 10.9 2 12V20C2 21.1 2.9 22 4 22H20C21.1 22 22 21.1 22 20V12C22 10.9 21.1 10 20 10ZM20 20H4V12H20V20ZM17 4H7C6.45 4 6 3.55 6 3C6 2.45 6.45 2 7 2H17C17.55 2 18 2.45 18 3C18 3.55 17.55 4 17 4ZM19 8H5C4.45 8 4 7.55 4 7C4 6.45 4.45 6 5 6H19C19.55 6 20 6.45 20 7C20 7.55 19.55 8 19 8ZM14.5 15.13C15.17 15.51 15.17 16.48 14.5 16.86L11.5 18.59C10.83 18.97 10 18.49 10 17.72V14.26C10 13.49 10.83 13.01 11.5 13.39L14.5 15.12V15.13Z" />
</svg>
