<svg class="fill-current stroke-current w-full h-full" style="color: inherit" stroke-width="0.2" width="24" height="24" viewBox="0 0 24 24" stroke="none" xmlns="http://www.w3.org/2000/svg">
<path d="M8.007 7.89272C7.61719 7.4925 7.62719 6.86215 8.02699 6.48193L11.2954 3.28016C11.2954 3.28016 11.3653 3.24013 11.4053 3.21012C11.4753 3.16009 11.5352 3.11006 11.6152 3.07004C11.7251 3.02001 11.8451 3 11.975 3H11.995H12.015C12.1349 3 12.2549 3.03002 12.3748 3.07004C12.4548 3.10006 12.5147 3.16009 12.5847 3.21012C12.6247 3.24013 12.6647 3.25014 12.6947 3.28016L15.963 6.48193C16.3528 6.87215 16.3628 7.5025 15.983 7.89272C15.6032 8.29294 14.9635 8.29294 14.5737 7.91273L13.0045 6.37187V9.59366C13.0045 10.144 12.5547 10.5942 12.005 10.5942C11.4553 10.5942 11.0055 10.144 11.0055 9.59366V6.37187L9.43628 7.91273C9.24638 8.10283 8.98651 8.20289 8.73663 8.20289C8.48676 8.20289 8.21689 8.10283 8.02699 7.90272L8.007 7.89272ZM11.995 11.7949C10.6357 11.7949 9.36632 12.3152 8.4068 13.2557C7.45727 14.1862 6.90755 15.4769 6.90755 16.7977C6.90755 17.348 7.35732 17.7982 7.90705 17.7982C8.45677 17.7982 8.90655 17.348 8.90655 16.7977C8.90655 15.9972 9.22639 15.2468 9.8061 14.6865C10.9555 13.5559 13.0345 13.5559 14.1939 14.6865C14.7736 15.2568 15.0935 16.0072 15.0935 16.7977C15.0935 17.348 15.5432 17.7982 16.093 17.7982C16.6427 17.7982 17.0925 17.348 17.0925 16.7977C17.0925 15.4769 16.5427 14.1862 15.5932 13.2557C14.6337 12.3152 13.3543 11.7949 12.005 11.7949H11.995ZM16.4828 12.4052C16.6827 12.6053 16.9425 12.7054 17.1924 12.7054C17.4423 12.7054 17.6922 12.6153 17.8921 12.4252L19.0515 11.2846C19.4413 10.8944 19.4513 10.264 19.0715 9.87382C18.6917 9.4736 18.052 9.4736 17.6622 9.85381L16.5027 10.9944C16.1129 11.3847 16.1029 12.015 16.4828 12.4052V12.4052ZM18.3618 16.7977C18.3618 17.348 18.8116 17.7982 19.3613 17.7982H21.0005C21.5502 17.7982 22 17.348 22 16.7977C22 16.2474 21.5502 15.7971 21.0005 15.7971H19.3613C18.8116 15.7971 18.3618 16.2474 18.3618 16.7977ZM21.0005 18.9989H2.9995C2.44978 18.9989 2 19.4491 2 19.9994C2 20.5497 2.44978 21 2.9995 21H20.9905C21.5402 21 21.99 20.5497 21.99 19.9994C21.99 19.4491 21.5402 18.9989 20.9905 18.9989H21.0005ZM6.09795 12.4252C6.28786 12.6153 6.54773 12.7154 6.7976 12.7154C7.04748 12.7154 7.31734 12.6153 7.50725 12.4152C7.89705 12.015 7.88706 11.3847 7.48726 11.0044L6.32784 9.86381C5.93803 9.4736 5.29835 9.4836 4.91854 9.88382C4.52874 10.284 4.53873 10.9144 4.93853 11.2946L6.09795 12.4352V12.4252ZM2.9995 17.7982H4.63868C5.18841 17.7982 5.63818 17.348 5.63818 16.7977C5.63818 16.2474 5.18841 15.7971 4.63868 15.7971H2.9995C2.44978 15.7971 2 16.2474 2 16.7977C2 17.348 2.44978 17.7982 2.9995 17.7982Z" />
</svg>
