<svg class="fill-current stroke-current w-full h-full" style="color: inherit" stroke-width="0.2" width="24" height="24" viewBox="0 0 24 24" stroke="none" xmlns="http://www.w3.org/2000/svg">
<path d="M22 20C22 20.55 21.55 21 21 21H3C2.45 21 2 20.55 2 20C2 19.45 2.45 19 3 19H21C21.55 19 22 19.45 22 20ZM18.36 16.8C18.36 17.35 18.81 17.8 19.36 17.8H21C21.55 17.8 22 17.35 22 16.8C22 16.25 21.55 15.8 21 15.8H19.36C18.81 15.8 18.36 16.25 18.36 16.8ZM3 17.8H4.64C5.19 17.8 5.64 17.35 5.64 16.8C5.64 16.25 5.19 15.8 4.64 15.8H3C2.45 15.8 2 16.25 2 16.8C2 17.35 2.45 17.8 3 17.8ZM12 11.8C10.64 11.8 9.37 12.32 8.41 13.26C7.46 14.19 6.91 15.48 6.91 16.8C6.91 17.35 7.36 17.8 7.91 17.8C8.46 17.8 8.91 17.35 8.91 16.8C8.91 16 9.23 15.25 9.81 14.69C10.96 13.56 13.04 13.56 14.2 14.69C14.78 15.26 15.1 16.01 15.1 16.8C15.1 17.35 15.55 17.8 16.1 17.8C16.65 17.8 17.1 17.35 17.1 16.8C17.1 15.48 16.55 14.19 15.6 13.26C14.64 12.32 13.36 11.8 12.01 11.8H12ZM16.49 12.41C16.69 12.61 16.95 12.71 17.2 12.71C17.45 12.71 17.7 12.62 17.9 12.43L19.06 11.29C19.45 10.9 19.46 10.27 19.08 9.88C18.7 9.48 18.06 9.48 17.67 9.86L16.51 11C16.12 11.39 16.11 12.02 16.49 12.41V12.41ZM6.1 12.43C6.29 12.62 6.55 12.72 6.8 12.72C7.05 12.72 7.32 12.62 7.51 12.42C7.9 12.02 7.89 11.39 7.49 11.01L6.33 9.87C5.94 9.48 5.3 9.49 4.92 9.89C4.53 10.29 4.54 10.92 4.94 11.3L6.1 12.44V12.43ZM11.29 10.31C11.29 10.31 11.36 10.36 11.39 10.38C11.46 10.43 11.53 10.49 11.61 10.53C11.73 10.58 11.85 10.6 11.98 10.6C12.11 10.6 12.24 10.57 12.36 10.52C12.43 10.49 12.49 10.44 12.55 10.39C12.59 10.36 12.64 10.34 12.68 10.31L15.95 7.11C16.34 6.72 16.35 6.09 15.97 5.7C15.59 5.31 14.95 5.3 14.56 5.68L12.99 7.22V4C12.99 3.45 12.54 3 11.99 3C11.44 3 10.99 3.45 10.99 4V7.22L9.42 5.68C9.02 5.29 8.39 5.3 8.01 5.7C7.62 6.1 7.63 6.73 8.03 7.11L11.29 10.3V10.31Z" />
</svg>
