<svg class="fill-current stroke-current w-full h-full" style="color: inherit" stroke-width="0.2" width="24" height="24" viewBox="0 0 24 24" stroke="none" xmlns="http://www.w3.org/2000/svg">
<path d="M7.62766 9.52128C7.20213 9.10638 7.20213 8.43617 7.60638 8.02128L11.2021 4.31915C11.4043 4.11702 11.6702 4 11.9468 4C11.9574 4 11.9787 4 11.9894 4C12 4 12.0106 4 12.0213 4C12.3936 4 12.7021 4.20213 12.8936 4.47872L16.4043 7.89362C16.8298 8.30851 16.8298 8.97872 16.4255 9.39362C16.0106 9.81915 15.3404 9.81915 14.9255 9.41489L13.0957 7.6383V14.6277C13.0957 15.2128 12.617 15.6915 12.0319 15.6915C11.4468 15.6915 10.9681 15.2128 10.9681 14.6277V7.60638L9.1383 9.48936C8.92553 9.70213 8.64894 9.80851 8.37234 9.80851C8.09574 9.80851 7.84043 9.71277 7.62766 9.51064V9.52128ZM15.9362 17.8298H8.06383C7.47872 17.8298 7 18.3085 7 18.8936C7 19.4787 7.47872 19.9574 8.06383 19.9574H15.9362C16.5213 19.9574 17 19.4787 17 18.8936C17 18.3085 16.5213 17.8298 15.9362 17.8298Z" />
</svg>
