<svg class="fill-current stroke-current w-full h-full" style="color: inherit" stroke-width="0.2" width="24" height="24" viewBox="0 0 24 24" stroke="none" xmlns="http://www.w3.org/2000/svg">
<path d="M8.06 8.79345L6 7.8733L8.06 6.95315L9 4.93665L9.94 6.95315L12 7.8733L9.94 8.79345L9 10.8099L8.06 8.79345ZM9 20.5988L9.94 18.5823L12 17.6621L9.94 16.742L9 14.7255L8.06 16.742L6 17.6621L8.06 18.5823L9 20.5988ZM5.37 12.151L4 12.7677L5.37 13.3844L6 14.7255L6.63 13.3844L8 12.7677L6.63 12.151L6 10.8099L5.37 12.151ZM20 20.0212C20 20.7848 19.16 21.2448 18.49 20.8631C15.21 18.9934 13 15.4988 13 11.7888C13 9.11648 14.08 6.63012 15.75 4.69193L13.85 2.83205C13.54 2.5286 13.76 2 14.21 2H19.5C19.78 2 20 2.21535 20 2.48944V7.66773C20 8.10823 19.46 8.32358 19.15 8.01034L17.18 6.08194C15.84 7.6971 15 9.7136 15 11.7888C15 14.8527 16.86 17.6719 19.51 19.1794C19.81 19.3556 20 19.6786 20 20.0212Z" />
</svg>
