<svg class="fill-current stroke-current w-full h-full" style="color: inherit" stroke-width="0.2" width="24" height="24" viewBox="0 0 24 24" stroke="none" xmlns="http://www.w3.org/2000/svg">
<path d="M9.83406 4.74694V4.55618C9.83406 3.87347 9.11227 3.44175 8.49215 3.73291C8.299 3.82327 8.12618 3.93371 7.94319 4.03411L9.42742 5.49993C9.6714 5.31921 9.83406 5.04813 9.83406 4.74694ZM20 11.0319C20 8.81308 19.0749 6.81515 17.6008 5.36941L19.1359 3.85339C19.451 3.54215 19.2274 3 18.7699 3H13.9004V7.8091C13.9004 8.26089 14.4494 8.48177 14.7645 8.16049L16.1776 6.76495C17.2755 7.86933 17.9668 9.36527 17.9668 11.0319C17.9668 11.8853 17.7838 12.6985 17.4585 13.4314L18.9631 14.9173C19.6137 13.7627 20 12.4475 20 11.0319ZM3.29735 3.70279C2.90088 4.09435 2.90088 4.72686 3.29735 5.11841L4.97473 6.77499C4.19196 8.01993 3.73449 9.46567 3.73449 11.0319C3.73449 13.2507 4.65959 15.2486 6.13365 16.6944L4.59859 18.2104C4.28345 18.5216 4.5071 19.0638 4.96457 19.0638H9.32576C9.6104 19.0638 9.83406 18.8429 9.83406 18.5618V14.2547C9.83406 13.8029 9.28509 13.582 8.96995 13.9033L7.55688 15.2988C6.45896 14.1944 5.76768 12.6985 5.76768 11.0319C5.76768 10.0279 6.03199 9.0942 6.46913 8.26089L14.673 16.3631C14.6629 16.3831 14.6629 16.3831 14.6629 16.4032C14.2257 16.5237 13.9004 16.8851 13.9004 17.3168V17.4976C13.9004 18.1803 14.6222 18.612 15.2423 18.3208C15.5575 18.1803 15.8625 18.0096 16.1573 17.8289L18.0583 19.7063C18.4548 20.0979 19.0952 20.0979 19.4917 19.7063C19.8882 19.3148 19.8882 18.6823 19.4917 18.2907L4.73075 3.70279C4.33428 3.31124 3.69383 3.31124 3.29735 3.70279Z" />
</svg>
