<svg class="fill-current stroke-current w-full h-full" style="color: inherit" stroke-width="0.2" width="24" height="24" viewBox="0 0 24 24" stroke="none" xmlns="http://www.w3.org/2000/svg">
<path d="M12 4.22662V2.48733C12 2.05007 11.46 1.83631 11.15 2.14724L8.35 4.85821C8.15 5.05254 8.15 5.35376 8.35 5.5481L11.14 8.25906C11.46 8.56028 12 8.34651 12 7.90926V6.16997C15.31 6.16997 18 8.78376 18 12C18 12.7676 17.85 13.5158 17.56 14.1863C17.41 14.5361 17.52 14.9345 17.79 15.1968C18.3 15.6924 19.16 15.5175 19.43 14.8664C19.8 13.9822 20 13.0105 20 12C20 7.70521 16.42 4.22662 12 4.22662ZM12 17.83C8.69 17.83 6 15.2162 6 12C6 11.2324 6.15 10.4842 6.44 9.81374C6.59 9.46394 6.48 9.06555 6.21 8.8032C5.7 8.30764 4.84 8.48255 4.57 9.13357C4.2 10.0178 4 10.9895 4 12C4 16.2948 7.58 19.7734 12 19.7734V21.5127C12 21.9499 12.54 22.1637 12.85 21.8528L15.64 19.1418C15.84 18.9475 15.84 18.6462 15.64 18.4519L12.85 15.7409C12.54 15.4397 12 15.6535 12 16.0907V17.83Z" />
</svg>
