<svg class="fill-current stroke-current w-full h-full" style="color: inherit" stroke-width="0.2" width="24" height="24" viewBox="0 0 24 24" stroke="none" xmlns="http://www.w3.org/2000/svg">
<path d="M11.995 17C12.5454 17 12.9957 16.55 12.9957 16C12.9957 15.45 12.5454 15 11.995 15C11.4446 15 10.9943 15.45 10.9943 16C10.9943 16.55 11.4446 17 11.995 17ZM11.995 13C12.5454 13 12.9957 12.55 12.9957 12V8C12.9957 7.45 12.5454 7 11.995 7C11.4446 7 10.9943 7.45 10.9943 8V12C10.9943 12.55 11.4446 13 11.995 13ZM16.9986 1H6.99142C5.89064 1 5 1.9 5 3V21C5 22.1 5.89064 23 6.99142 23H16.9986C18.0994 23 19 22.1 19 21V3C19 1.9 18.0994 1 16.9986 1ZM16.9986 18H6.99142V6H16.9986V18Z" />
</svg>
