<svg class="fill-current stroke-current w-full h-full" style="color: inherit" stroke-width="0.2" width="24" height="24" viewBox="0 0 24 24" stroke="none" xmlns="http://www.w3.org/2000/svg">
<path fill-rule="evenodd" clip-rule="evenodd" d="M20.9981 11C21.6581 11 22.1381 10.36 21.9581 9.73L20.5281 4.73C20.4081 4.3 20.0181 4 19.5681 4H4.42814C3.97814 4 3.58814 4.3 3.46814 4.73L2.03814 9.73C1.85814 10.36 2.33814 11 2.99814 11H5.19814L4.14814 18.88C4.14814 18.88 4.14814 18.89 4.14814 18.9C4.07814 19.48 4.53814 20 5.12814 20C5.62814 20 6.04814 19.63 6.10814 19.15L6.66814 15.01H17.3381L17.8881 19.15C17.9581 19.64 18.3781 20 18.8681 20C19.4681 20 19.9281 19.47 19.8481 18.88L18.7981 11H20.9981ZM19.6681 9L18.8081 6H5.18814L4.32814 9H19.6681ZM16.7981 11H7.19814L6.92814 13H17.0681L16.7981 11Z" />
</svg>
