<svg class="fill-current stroke-current w-full h-full" style="color: inherit" stroke-width="0.2" width="24" height="24" viewBox="0 0 24 24" stroke="none" xmlns="http://www.w3.org/2000/svg">
<path fill-rule="evenodd" clip-rule="evenodd" d="M11.07 8.97622L12 9.00626L12.93 8.97622C15.3 8.89612 17.32 8.50563 18.67 7.98498C19.12 7.81477 19.45 7.64456 19.68 7.49437C19.4 7.31414 18.98 7.11389 18.4 6.90363C16.85 6.36295 14.59 5.99249 11.99 5.99249C9.39 5.99249 7.13 6.36295 5.58 6.90363C5 7.10388 4.59 7.31414 4.3 7.49437C4.53 7.64456 4.86 7.81477 5.31 7.98498C6.66 8.50563 8.68 8.89612 11.05 8.97622H11.07ZM3.93 7.79474V7.80476C3.93 7.80476 3.93 7.80476 3.93 7.79474ZM20.08 7.80476C20.08 7.80476 20.08 7.80476 20.08 7.79474V7.80476ZM16.5 16.2653C16.22 15.5544 15.55 15.0638 14.8 15.0138C14.75 15.0138 14.7 15.0138 14.65 15.0138H13V10.9887C18.05 10.8185 22 9.31665 22 7.50438C22 5.57196 17.52 4 12 4C6.48 4 2 5.56195 2 7.49437C2 9.30663 5.95 10.8085 11 10.9787V15.0038H9.35C9.3 15.0038 9.25 15.0038 9.2 15.0038C8.44 15.0638 7.78 15.5444 7.49 16.2553L6.5 18.7284C6.27 19.3392 6.71 20 7.37 20C7.75 20 8.09 19.7697 8.23 19.4193L9.2 16.9962H9.35H14.8L15.77 19.4193C15.77 19.4193 15.77 19.4193 15.77 19.4293C15.91 19.7697 16.25 20 16.62 20C17.28 20 17.73 19.3392 17.48 18.7284L16.49 16.2553L16.5 16.2653Z" />
</svg>
