<svg class="fill-current stroke-current w-full h-full" style="color: inherit" stroke-width="0.2" width="24" height="24" viewBox="0 0 24 24" stroke="none" xmlns="http://www.w3.org/2000/svg">
<path d="M4.14 16.09C3.54 15.99 3 16.48 3 17.09C3 17.58 3.36 17.99 3.85 18.07C5.93 18.43 7.57 20.07 7.93 22.15C8.01 22.64 8.42 23 8.91 23C9.52 23 10 22.46 9.91 21.86C9.43 18.91 7.1 16.57 4.14 16.09ZM3 20V23H6C6 21.34 4.66 20 3 20ZM4.11 12.06C3.52 12 3 12.46 3 13.05C3 13.55 3.37 13.99 3.87 14.04C8.14 14.45 11.54 17.85 11.95 22.12C12 22.62 12.43 23 12.94 23C13.53 23 14 22.49 13.94 21.9C13.43 16.7 9.31 12.58 4.11 12.06ZM18 1.01L8 1C6.9 1 6 1.9 6 3V10.37C6.69 10.53 7.36 10.74 8 11.01V5H18V18H14.97C15.49 19.25 15.81 20.59 15.92 22H18C19.1 22 20 21.1 20 20V3C20 1.9 19.1 1.01 18 1.01Z" />
</svg>
