<svg class="fill-current stroke-current w-full h-full" style="color: inherit" stroke-width="0.2" width="24" height="24" viewBox="0 0 24 24" stroke="none" xmlns="http://www.w3.org/2000/svg">
<path d="M12 22C6.49 22 2 17.51 2 12C2 6.49 6.49 2 12 2C17.51 2 22 6.49 22 12C22 17.51 17.51 22 12 22ZM12 4C7.59 4 4 7.59 4 12C4 16.41 7.59 20 12 20C16.41 20 20 16.41 20 12C20 7.59 16.41 4 12 4ZM12 18.4C8.47 18.4 5.6 15.53 5.6 12C5.6 8.47 8.47 5.6 12 5.6C15.53 5.6 18.4 8.47 18.4 12C18.4 15.53 15.53 18.4 12 18.4ZM12 7.6C9.57 7.6 7.6 9.57 7.6 12C7.6 14.43 9.57 16.4 12 16.4C14.43 16.4 16.4 14.43 16.4 12C16.4 9.57 14.43 7.6 12 7.6ZM12 14.8C10.46 14.8 9.2 13.54 9.2 12C9.2 10.46 10.46 9.2 12 9.2C13.54 9.2 14.8 10.46 14.8 12C14.8 13.54 13.54 14.8 12 14.8ZM12 11.2C11.56 11.2 11.2 11.56 11.2 12C11.2 12.44 11.56 12.8 12 12.8C12.44 12.8 12.8 12.44 12.8 12C12.8 11.56 12.44 11.2 12 11.2Z" />
</svg>
