<svg class="fill-current stroke-current w-full h-full" style="color: inherit" stroke-width="0.2" width="24" height="24" viewBox="0 0 24 24" stroke="none" xmlns="http://www.w3.org/2000/svg">
<path d="M20.2931 5.8941L10.2931 15.8941C9.90305 16.2841 9.27305 16.2841 8.88305 15.8941L6.05305 13.0641C5.66305 12.6741 5.66305 12.0441 6.05305 11.6541C6.44305 11.2641 7.07305 11.2641 7.46305 11.6541L9.58305 13.7741L18.8731 4.4841C19.2631 4.0941 19.8931 4.0941 20.2831 4.4841C20.6831 4.8741 20.6831 5.5041 20.2931 5.8941ZM11.0031 20.0041C6.29305 20.0041 2.52305 15.9141 3.05305 11.1041C3.44305 7.5841 6.17305 4.6941 9.66305 4.1141C11.4731 3.8141 13.1931 4.1341 14.6531 4.8941C15.0431 5.0941 15.5131 5.0241 15.8231 4.7141C16.3031 4.2341 16.1831 3.4241 15.5831 3.1141C14.1131 2.3641 12.4531 1.9541 10.6831 2.0041C5.54305 2.1641 1.27305 6.3441 1.01305 11.4741C0.723052 17.2441 5.30305 22.0041 11.0031 22.0041C12.2031 22.0041 13.3431 21.7941 14.4131 21.4041C15.0931 21.1541 15.2831 20.2741 14.7631 19.7541C14.4931 19.4841 14.0831 19.3841 13.7231 19.5241C12.8731 19.8341 11.9531 20.0041 11.0031 20.0041ZM18.0031 15.0041H16.0031C15.4531 15.0041 15.0031 15.4541 15.0031 16.0041C15.0031 16.5541 15.4531 17.0041 16.0031 17.0041H18.0031V19.0041C18.0031 19.5541 18.4531 20.0041 19.0031 20.0041C19.5531 20.0041 20.0031 19.5541 20.0031 19.0041V17.0041H22.0031C22.5531 17.0041 23.0031 16.5541 23.0031 16.0041C23.0031 15.4541 22.5531 15.0041 22.0031 15.0041H20.0031V13.0041C20.0031 12.4541 19.5531 12.0041 19.0031 12.0041C18.4531 12.0041 18.0031 12.4541 18.0031 13.0041V15.0041Z" />
</svg>
