<svg class="fill-current stroke-current w-full h-full" style="color: inherit" stroke-width="0.2" width="24" height="24" viewBox="0 0 24 24" stroke="none" xmlns="http://www.w3.org/2000/svg">
<path d="M21.2797 5.88759L11.2839 15.8909C10.894 16.2811 10.2643 16.2811 9.87446 15.8909L7.04566 13.06C6.65582 12.6699 6.65582 12.0396 7.04566 11.6495C7.43549 11.2594 8.06523 11.2594 8.45506 11.6495L10.5742 13.7702L19.8603 4.47712C20.2501 4.08699 20.8798 4.08699 21.2697 4.47712C21.6695 4.86725 21.6695 5.49746 21.2797 5.88759ZM15.762 2.73654C14.0727 2.04631 12.1535 1.80623 10.1543 2.16635C6.08606 2.8966 2.83743 6.17769 2.14772 10.2491C1.0082 17.0013 6.62583 22.7832 13.333 21.9129C17.2913 21.4028 20.6099 18.4518 21.6495 14.6005C22.0493 13.13 22.0893 11.7095 21.8594 10.3791C21.7295 9.57883 20.7399 9.26872 20.1601 9.83891C19.9302 10.069 19.8303 10.4091 19.8902 10.7292C20.1102 12.0597 20.0102 13.4801 19.3705 14.9906C18.211 17.7015 15.692 19.6922 12.7632 19.9623C7.66539 20.4324 3.43717 16.111 4.06691 10.9793C4.49673 7.43811 7.34553 4.55715 10.874 4.06699C12.6033 3.82691 14.2426 4.15702 15.642 4.87726C16.0319 5.07732 16.5017 5.0073 16.8115 4.6972C17.2913 4.21704 17.1714 3.40677 16.5716 3.09666C16.3018 2.97662 16.0319 2.84658 15.762 2.73654Z" />
</svg>
