<svg class="fill-current stroke-current w-full h-full" style="color: inherit" stroke-width="0.2" width="24" height="24" viewBox="0 0 24 24" stroke="none" xmlns="http://www.w3.org/2000/svg">
<path d="M19.8569 18.403L18.0432 16.6432C17.719 16.3286 17.1718 16.5449 17.1718 16.9873V17.764H5.01322C4.45595 17.764 4 18.2064 4 18.7471C4 19.2878 4.45595 19.7302 5.01322 19.7302H17.1718V20.5069C17.1718 20.9493 17.719 21.1656 18.0331 20.851L19.8467 19.0912C20.0494 18.9044 20.0494 18.5898 19.8569 18.403ZM8.55948 12.6516H13.6256L14.2943 14.2247C14.4463 14.5786 14.8009 14.8145 15.1961 14.8145C15.8952 14.8145 16.3613 14.1165 16.0877 13.4971L12.1564 4.67837C11.974 4.26545 11.5586 4 11.0925 4C10.6264 4 10.211 4.26545 10.0286 4.67837L6.09736 13.4971C5.82379 14.1165 6.3 14.8145 6.99912 14.8145C7.39428 14.8145 7.74891 14.5786 7.90089 14.2247L8.55948 12.6516ZM11.0925 5.94662L12.9872 10.882H9.19781L11.0925 5.94662Z" />
</svg>
