<svg class="fill-current stroke-current w-full h-full" style="color: inherit" stroke-width="0.2" width="24" height="24" viewBox="0 0 24 24" stroke="none" xmlns="http://www.w3.org/2000/svg">
<path d="M16.6692 9.36551L17.2194 9.91937L8.88735 18.3162C8.50416 18.7019 8.50416 19.325 8.88735 19.7107C9.27055 20.0964 9.88956 20.0964 10.2728 19.7107L18.6146 11.3139L19.1648 11.8677C19.4694 12.1842 20 11.9666 20 11.5315V9.01935C20 8.74243 19.7838 8.52484 19.5087 8.52484H17.013C16.5807 8.52484 16.3646 9.05892 16.6692 9.36551ZM7.69847 12.2337L11.1767 8.73254L12.7488 9.39518C13.1025 9.54354 13.5053 9.46442 13.7805 9.18749C14.2619 8.70287 14.0949 7.89187 13.466 7.63472L4.53466 4.07423C4.11216 3.91599 3.64053 4.01489 3.32612 4.33138C3.0117 4.64787 2.91345 5.1226 3.08048 5.54788L6.62749 14.5381C6.87313 15.1711 7.68864 15.3392 8.17009 14.8546C8.44521 14.5777 8.52381 14.1722 8.37643 13.8161L7.69847 12.2337ZM6.89278 10.5326L4.70169 5.71601L9.48671 7.92154L6.89278 10.5326Z" />
</svg>
