<svg class="fill-current stroke-current w-full h-full" style="color: inherit" stroke-width="0.2" width="24" height="24" viewBox="0 0 24 24" stroke="none" xmlns="http://www.w3.org/2000/svg">
<path d="M2.14941 19C2.64026 19 3.07997 18.7 3.23336 18.25L4.26617 15.42H10.0438L11.0562 18.24C11.2198 18.7 11.6595 19 12.1503 19C12.9582 19 13.5104 18.21 13.2241 17.48L8.87805 6.17C8.61218 5.47 7.91682 5 7.14987 5C6.38293 5 5.68757 5.47 5.4217 6.17L1.0757 17.48C0.789371 18.21 1.35179 19 2.14941 19ZM7.08852 7.6H7.21123L9.28708 13.39H5.01266L7.08852 7.6ZM14.8193 12C14.8193 11.45 15.2795 11 15.8419 11H21.9774C22.5398 11 23 11.45 23 12C23 12.55 22.5398 13 21.9774 13H15.8419C15.2795 13 14.8193 12.55 14.8193 12Z" />
</svg>
