<svg class="fill-current stroke-current w-full h-full" style="color: inherit" stroke-width="0.2" width="24" height="24" viewBox="0 0 24 24" stroke="none" xmlns="http://www.w3.org/2000/svg">
<path d="M5.597 19.8569L7.35682 18.0432C7.67142 17.719 7.45513 17.1718 7.01272 17.1718H6.23604V5.01322C6.23604 4.45595 5.79363 4 5.2529 4C4.71217 4 4.26976 4.45595 4.26976 5.01322V17.1718H3.49308C3.05067 17.1718 2.83437 17.719 3.14898 18.0331L4.9088 19.8467C5.0956 20.0494 5.4102 20.0494 5.597 19.8569ZM11.3484 8.55948V13.6256L9.77534 14.2943C9.42141 14.4463 9.18546 14.8009 9.18546 15.1961C9.18546 15.8952 9.88349 16.3613 10.5029 16.0877L19.3216 12.1564C19.7346 11.974 20 11.5586 20 11.0925C20 10.6264 19.7346 10.211 19.3216 10.0286L10.5029 6.09736C9.88349 5.82379 9.18546 6.3 9.18546 6.99912C9.18546 7.39428 9.42141 7.74891 9.77534 7.90089L11.3484 8.55948ZM18.0534 11.0925L13.118 12.9872V9.19781L18.0534 11.0925Z" />
</svg>
