<svg class="fill-current stroke-current w-full h-full" style="color: inherit" stroke-width="0.2" width="24" height="24" viewBox="0 0 24 24" stroke="none" xmlns="http://www.w3.org/2000/svg">
<path d="M5 19C5 19.55 5.45 20 6 20H18C18.55 20 19 19.55 19 19C19 18.45 18.55 18 18 18H6C5.45 18 5 18.45 5 19ZM9.5 13.8H14.5L15.16 15.4C15.31 15.76 15.66 16 16.05 16C16.74 16 17.2 15.29 16.93 14.66L13.05 5.69C12.87 5.27 12.46 5 12 5C11.54 5 11.13 5.27 10.95 5.69L7.07 14.66C6.8 15.29 7.27 16 7.96 16C8.35 16 8.7 15.76 8.85 15.4L9.5 13.8ZM12 6.98L13.87 12H10.13L12 6.98Z" />
</svg>
