<svg class="fill-current stroke-current w-full h-full" style="color: inherit" stroke-width="0.2" width="24" height="24" viewBox="0 0 24 24" stroke="none" xmlns="http://www.w3.org/2000/svg">
<path d="M15.4632 20.5087V18.013C15.4632 17.5709 14.9297 17.3547 14.6234 17.6692L14.0701 18.2194L5.68206 9.87753C5.29674 9.49433 4.67431 9.49433 4.28899 9.87753C3.90367 10.2607 3.90367 10.8797 4.28899 11.2629L12.6771 19.6048L12.1238 20.155C11.8076 20.4694 12.025 21 12.4597 21H14.9692C15.2459 21 15.4632 20.774 15.4632 20.5087ZM11.7582 8.69847L15.2557 12.1767L14.5938 13.7488C14.4456 14.1025 14.5246 14.5053 14.8013 14.7805C15.2854 15.2619 16.0955 15.0949 16.3524 14.466L19.9191 5.53466C20.087 5.12198 19.9882 4.64053 19.6721 4.32612C19.3559 4.0117 18.8817 3.91345 18.4568 4.08048L9.46608 7.61766C8.83377 7.8633 8.66581 8.67882 9.14992 9.16027C9.41668 9.42556 9.82176 9.50416 10.1774 9.35678L11.7582 8.69847ZM18.2691 5.70169L16.0659 10.4867L13.4576 7.89278L18.2691 5.70169Z" />
</svg>
