<svg class="fill-current stroke-current w-full h-full" style="color: inherit" stroke-width="0.2" width="24" height="24" viewBox="0 0 24 24" stroke="none" xmlns="http://www.w3.org/2000/svg">
<path d="M18.0912 4.1519C17.8946 3.94937 17.5898 3.94937 17.3932 4.1519L15.6334 5.96456C15.3286 6.28861 15.5449 6.83544 15.9873 6.83544H16.764V18.9873C16.764 19.5443 17.2064 20 17.7471 20C18.2878 20 18.7302 19.5443 18.7302 18.9873V6.83544H19.5069C19.9493 6.83544 20.1656 6.28861 19.851 5.97468L18.0912 4.1519ZM11.6516 15.443V10.3797L13.2247 9.71139C13.5786 9.56962 13.8145 9.21519 13.8145 8.82025C13.8145 8.12152 13.1165 7.6557 12.4971 7.92911L3.67837 11.8582C3.26545 12.0304 3 12.4456 3 12.9114C3 13.3772 3.26545 13.7924 3.67837 13.9747L12.4971 17.9038C13.1165 18.1772 13.8145 17.7013 13.8145 17.0025C13.8145 16.6076 13.5786 16.2532 13.2247 16.1013L11.6516 15.443ZM4.94662 12.9114L9.88198 11.0177V14.8051L4.94662 12.9114Z" />
</svg>
