<svg class="fill-current stroke-current w-full h-full" style="color: inherit" stroke-width="0.2" width="24" height="24" viewBox="0 0 24 24" stroke="none" xmlns="http://www.w3.org/2000/svg">
<path d="M20 2H4C2.9 2 2 2.9 2 4V22L6 18H20C21.1 18 22 17.1 22 16V4C22 2.9 21.1 2 20 2ZM20 16H6L4 18V4H20V16ZM12 9C12.55 9 13 9.45 13 10C13 10.55 12.55 11 12 11C11.45 11 11 10.55 11 10C11 9.45 11.45 9 12 9ZM16 9C16.55 9 17 9.45 17 10C17 10.55 16.55 11 16 11C15.45 11 15 10.55 15 10C15 9.45 15.45 9 16 9ZM8 9C8.55 9 9 9.45 9 10C9 10.55 8.55 11 8 11C7.45 11 7 10.55 7 10C7 9.45 7.45 9 8 9Z" />
</svg>
