<svg class="fill-current stroke-current w-full h-full" style="color: inherit" stroke-width="0.2" width="24" height="24" viewBox="0 0 24 24" stroke="none" xmlns="http://www.w3.org/2000/svg">
<path d="M15.077 5.0133C14.6257 5.0133 14.2235 5.28689 14.0469 5.71248L10.2406 14.8018C9.97578 15.4402 10.4368 16.1596 11.1137 16.1596C11.4963 16.1596 11.8397 15.9164 11.9868 15.5516L12.6343 13.9303H17.5393L18.1867 15.5516C18.3339 15.9164 18.6772 16.1596 19.0598 16.1596C19.7367 16.1596 20.188 15.4402 19.9231 14.8018L16.1168 5.71248C15.9304 5.28689 15.5282 5.0133 15.077 5.0133ZM13.2425 12.1064L15.077 7.01963L16.9114 12.1064H13.2425ZM6.59134 19.848L8.34732 18.0342C8.66124 17.7201 8.44542 17.1729 8.00397 17.1729H7.22898V5.0133C7.22898 4.45598 6.78754 4 6.24799 4C5.70844 4 5.26699 4.44585 5.26699 5.0133V17.1729H4.492C4.05056 17.1729 3.83474 17.7201 4.14865 18.0342L5.90464 19.848C6.09103 20.0507 6.40495 20.0507 6.59134 19.848Z" />
</svg>
