<svg class="fill-current stroke-current w-full h-full" style="color: inherit" stroke-width="0.2" width="24" height="24" viewBox="0 0 24 24" stroke="none" xmlns="http://www.w3.org/2000/svg">
<path d="M2.6355 19C3.12634 19 3.56605 18.7 3.71944 18.25L4.75226 15.42H10.5299L11.5422 18.24C11.7059 18.7 12.1456 19 12.6364 19C13.4443 19 13.9965 18.21 13.7101 17.48L9.36413 6.17C9.09826 5.47 8.4029 5 7.63596 5C6.86902 5 6.17366 5.47 5.90778 6.17L1.56178 17.48C1.27545 18.21 1.83788 19 2.6355 19ZM7.5746 7.6H7.69731L9.77317 13.39H5.49875L7.5746 7.6ZM15.3054 12C15.3054 11.45 15.7655 11 16.328 11H18.3731V9C18.3731 8.45 18.8333 8 19.3957 8C19.9582 8 20.4183 8.45 20.4183 9V11H22.4635C23.0259 11 23.4861 11.45 23.4861 12C23.4861 12.55 23.0259 13 22.4635 13H20.4183V15C20.4183 15.55 19.9582 16 19.3957 16C18.8333 16 18.3731 15.55 18.3731 15V13H16.328C15.7655 13 15.3054 12.55 15.3054 12Z" />
</svg>
