<svg class="fill-current stroke-current w-full h-full" style="color: inherit" stroke-width="0.2" width="24" height="24" viewBox="0 0 24 24" stroke="none" xmlns="http://www.w3.org/2000/svg">
<path d="M11.5016 21.99C10.5316 21.99 9.57156 21.6597 8.80156 21.049C8.03156 20.4484 7.47156 19.6176 7.19156 18.6466C6.91156 17.6857 6.94156 16.6847 7.26156 15.7337C7.52156 14.973 7.97156 14.2823 8.56156 13.7518V5.01301C8.56156 4.21221 8.86156 3.45145 9.40156 2.87087C10.5016 1.70971 12.5016 1.70971 13.6016 2.87087C14.1416 3.44144 14.4416 4.2022 14.4416 5.003V13.7618C15.0316 14.2923 15.4816 14.983 15.7416 15.7437C16.0616 16.6847 16.0916 17.6957 15.8116 18.6567C15.5316 19.6276 14.9716 20.4585 14.2016 21.0591C13.4316 21.6597 12.4716 22 11.5016 22V21.99ZM11.5016 3.97197C11.2616 3.97197 11.0316 4.07207 10.8516 4.26226C10.6616 4.46246 10.5616 4.73273 10.5616 5.02302V14.2322C10.5616 14.5626 10.4016 14.8629 10.1416 15.0531C9.69156 15.3734 9.34156 15.8438 9.16156 16.3844C8.97156 16.9349 8.96156 17.5355 9.12156 18.0961C9.28156 18.6466 9.60156 19.1371 10.0416 19.4775C10.9016 20.1481 12.1216 20.1481 12.9816 19.4775C13.4116 19.1371 13.7416 18.6466 13.9016 18.0961C14.0616 17.5455 14.0516 16.9349 13.8616 16.3844C13.6816 15.8438 13.3316 15.3734 12.8816 15.0531C12.6116 14.8629 12.4616 14.5626 12.4616 14.2322V5.01301C12.4616 4.73273 12.3516 4.45245 12.1716 4.25225C11.9916 4.06206 11.7616 3.96196 11.5216 3.96196L11.5016 3.97197Z" />
</svg>
