<svg class="fill-current stroke-current w-full h-full" style="color: inherit" stroke-width="0.2" width="24" height="24" viewBox="0 0 24 24" stroke="none" xmlns="http://www.w3.org/2000/svg">
<path d="M17.91 22H4.83C4.08 22 3.37 21.71 2.83 21.19C2.3 20.67 2 19.94 2 19.2V12.9C2 12.16 2.3 11.44 2.83 10.92C3.37 10.39 4.07 10.11 4.83 10.11H6.93L10.32 2.59C10.48 2.23 10.84 2 11.23 2C12.23 2 13.17 2.38 13.87 3.08C14.57 3.77 14.97 4.72 14.97 5.7V8.3H19.15C19.56 8.3 19.95 8.38 20.32 8.54C20.7 8.71 21.02 8.95 21.3 9.25C21.57 9.56 21.77 9.91 21.89 10.31C22.01 10.71 22.03 11.12 21.97 11.52L20.71 19.62C20.61 20.29 20.26 20.9 19.74 21.33C19.23 21.76 18.58 21.99 17.91 21.99V22ZM8.57 20H17.89C18.11 20 18.3 19.93 18.45 19.8C18.6 19.67 18.7 19.5 18.73 19.31L19.99 11.21C20.01 11.1 19.99 10.98 19.97 10.87C19.94 10.76 19.88 10.66 19.8 10.57C19.72 10.48 19.62 10.41 19.51 10.36C19.4 10.31 19.28 10.3 19.16 10.29H13.97C13.42 10.29 12.97 9.84 12.97 9.29V5.7C12.97 5.25 12.79 4.82 12.47 4.5C12.29 4.32 12.07 4.19 11.83 4.1L8.57 11.31V20ZM4.83 12.1C4.61 12.1 4.39 12.19 4.24 12.34C4.09 12.49 4 12.69 4 12.9V19.2C4 19.41 4.08 19.61 4.24 19.76C4.4 19.91 4.61 20 4.83 20H6.57V12.1H4.83Z" />
</svg>
