<svg class="fill-current stroke-current w-full h-full" style="color: inherit" stroke-width="0.2" width="24" height="24" viewBox="0 0 24 24" stroke="none" xmlns="http://www.w3.org/2000/svg">
<path d="M12.7704 22C11.7704 22 10.8404 21.62 10.1304 20.92C9.42038 20.22 9.03038 19.29 9.03038 18.3V15.7H4.85038C4.45038 15.7 4.05038 15.62 3.68038 15.46C3.30038 15.29 2.97038 15.05 2.70038 14.75C2.43038 14.44 2.23038 14.08 2.11038 13.69C2.00038 13.3 1.97038 12.89 2.03038 12.48L3.29038 4.38C3.39038 3.71 3.74038 3.1 4.26038 2.67C4.78038 2.23 5.41038 2 6.12038 2H19.1704C19.9204 2 20.6304 2.29 21.1604 2.81C21.7004 3.34 21.9904 4.04 21.9904 4.8V11.1C21.9904 11.84 21.6904 12.57 21.1504 13.09C20.6204 13.61 19.9104 13.9 19.1604 13.9H17.0604L13.6704 21.41C13.5104 21.77 13.1504 22 12.7604 22H12.7704ZM10.0304 13.7C10.5804 13.7 11.0304 14.15 11.0304 14.7V18.3C11.0304 18.75 11.2104 19.18 11.5404 19.5C11.7204 19.68 11.9404 19.81 12.1804 19.9L15.4404 12.69V4H6.11038C5.91038 4 5.70038 4.07 5.55038 4.19C5.40038 4.32 5.30038 4.49 5.27038 4.68L4.01038 12.78C3.99038 12.89 4.01038 13.01 4.03038 13.11C4.06038 13.22 4.12038 13.32 4.20038 13.41C4.28038 13.5 4.37038 13.57 4.48038 13.62C4.59038 13.67 4.72038 13.69 4.84038 13.69H10.0304V13.7ZM17.4304 11.9H19.1704C19.3904 11.9 19.6104 11.81 19.7604 11.66C19.9104 11.51 20.0004 11.31 20.0004 11.1V4.8C20.0004 4.59 19.9204 4.39 19.7604 4.24C19.6004 4.09 19.3904 4 19.1704 4H17.4304V11.9Z" />
</svg>
