<svg class="fill-current stroke-current w-full h-full" style="color: inherit" stroke-width="0.2" width="24" height="24" viewBox="0 0 24 24" stroke="none" xmlns="http://www.w3.org/2000/svg">
<path d="M16.24 7.75001C15.07 6.58001 13.54 5.99001 12 5.99001V11.99L7.76 16.23C10.1 18.57 13.9 18.57 16.25 16.23C18.59 13.89 18.59 10.09 16.24 7.75001ZM12 1.99001C6.48 1.99001 2 6.47001 2 11.99C2 17.51 6.48 21.99 12 21.99C17.52 21.99 22 17.51 22 11.99C22 6.47001 17.52 1.99001 12 1.99001V1.99001ZM12 19.99C7.58 19.99 4 16.41 4 11.99C4 7.57001 7.58 3.99001 12 3.99001C16.42 3.99001 20 7.57001 20 11.99C20 16.41 16.42 19.99 12 19.99Z" />
</svg>
