<svg class="fill-current stroke-current w-full h-full" style="color: inherit" stroke-width="0.2" width="24" height="24" viewBox="0 0 24 24" stroke="none" xmlns="http://www.w3.org/2000/svg">
<path d="M19.03 8.39L19.71 7.71C20.1 7.32 20.1 6.69 19.71 6.3C19.32 5.91 18.69 5.91 18.3 6.3L17.62 6.98C16.07 5.74 14.12 5.01 12.01 5.01C7.03 5 3 9.03 3 14C3 18.97 7.02 23 12 23C16.98 23 21 18.97 21 14C21 11.88 20.26 9.93 19.03 8.39ZM12 21C8.13 21 5 17.87 5 14C5 10.13 8.13 7 12 7C15.87 7 19 10.13 19 14C19 17.87 15.87 21 12 21ZM9 3C9 2.45 9.45 2 10 2H14C14.55 2 15 2.45 15 3C15 3.55 14.55 4 14 4H10C9.45 4 9 3.55 9 3ZM13 10V14C13 14.55 12.55 15 12 15C11.45 15 11 14.55 11 14V10C11 9.45 11.45 9 12 9C12.55 9 13 9.45 13 10Z" />
</svg>
