<svg class="fill-current stroke-current w-full h-full" style="color: inherit" stroke-width="0.2" width="24" height="24" viewBox="0 0 24 24" stroke="none" xmlns="http://www.w3.org/2000/svg">
<path d="M5.01213 21.9977C4.21156 21.9977 3.45103 21.6877 2.88062 21.1177C2.31022 20.5477 2 19.7977 2 18.9877C2 18.1777 2.31022 17.4277 2.88062 16.8577L8.96492 10.7777C8.61467 9.71773 8.53462 8.58773 8.73476 7.48773C8.97493 6.14773 9.61538 4.92773 10.5861 3.95773C11.5568 2.98773 12.7776 2.35773 14.1186 2.10773C15.4595 1.86773 16.8305 2.02773 18.0714 2.59773C18.3716 2.73773 18.5817 3.00773 18.6418 3.32773C18.7018 3.64773 18.6017 3.97773 18.3616 4.21773L14.8191 7.75773L16.3001 9.21773L19.7826 5.64773C20.0127 5.41773 20.343 5.31773 20.6732 5.36773C20.9934 5.42773 21.2736 5.63773 21.4037 5.93773C21.9641 7.17773 22.1342 8.54773 21.8941 9.88773C21.6539 11.2277 21.0134 12.4477 20.0427 13.4177C19.0721 14.3777 17.8512 15.0177 16.5103 15.2677C15.4095 15.4677 14.2787 15.3877 13.2179 15.0377L7.13363 21.1177C6.57323 21.6777 5.80269 21.9977 5.00212 21.9977H5.01213ZM15.3194 3.99773C15.0392 3.99773 14.759 4.02773 14.4788 4.07773C13.5382 4.24773 12.6775 4.69773 12.0071 5.37773C11.3266 6.05773 10.8863 6.90773 10.7062 7.84773C10.526 8.78773 10.6561 9.74773 11.0464 10.6177C11.2165 10.9977 11.1365 11.4477 10.8462 11.7377L4.30163 18.2777C4.11149 18.4677 4.00141 18.7277 4.00141 18.9877C4.00141 19.2477 4.10148 19.5077 4.30163 19.6977C4.68189 20.0777 5.35237 20.0777 5.73264 19.6977L12.2873 13.1577C12.5775 12.8677 13.0278 12.7777 13.4081 12.9577C14.2787 13.3477 15.2394 13.4677 16.18 13.2977C17.1207 13.1277 17.9713 12.6777 18.6518 11.9977C19.3322 11.3177 19.7726 10.4677 19.9527 9.52773C20.0327 9.10773 20.0427 8.68773 20.0127 8.26773L17.6611 10.6177C16.9105 11.3477 15.6596 11.3477 14.9291 10.6177L13.4081 9.09773C13.0378 8.72773 12.8477 8.23773 12.8477 7.72773C12.8477 7.21773 13.0478 6.73773 13.3981 6.36773L15.7597 4.00773C15.6196 3.99773 15.4895 3.98773 15.3494 3.98773L15.3194 3.99773ZM14.0885 7.07773L14.799 7.77773L14.0785 7.07773H14.0885Z" />
</svg>
