<svg class="fill-current stroke-current w-full h-full" style="color: inherit" stroke-width="0.2" width="24" height="24" viewBox="0 0 24 24" stroke="none" xmlns="http://www.w3.org/2000/svg">
<path d="M19.999 6H11.995L9.994 4H3.991C2.89045 4 2 4.9 2 6V18C2 19.1 2.89045 20 3.991 20H20.7694C21.4497 20 22 19.44 22 18.77V8C22 6.9 21.0995 6 19.999 6ZM19.999 18H3.991V6H9.16358L11.1646 8H19.999V18ZM16.9975 12H6.9925C6.44222 12 5.992 11.55 5.992 11C5.992 10.45 6.44222 10 6.9925 10H16.9975C17.5478 10 17.998 10.45 17.998 11C17.998 11.55 17.5478 12 16.9975 12ZM12.9955 16H6.9925C6.44222 16 5.992 15.55 5.992 15C5.992 14.45 6.44222 14 6.9925 14H12.9955C13.5458 14 13.996 14.45 13.996 15C13.996 15.55 13.5458 16 12.9955 16Z" />
</svg>
