<svg class="fill-current stroke-current w-full h-full" style="color: inherit" stroke-width="0.2" width="24" height="24" viewBox="0 0 24 24" stroke="none" xmlns="http://www.w3.org/2000/svg">
<path d="M9.867 10.8778V14.8168C9.867 15.3584 10.323 15.8015 10.8803 15.8015C11.4376 15.8015 11.8936 15.3584 11.8936 14.8168V4.96946H13.9202V14.8168C13.9202 15.3584 14.3762 15.8015 14.9335 15.8015C15.4908 15.8015 15.9468 15.3584 15.9468 14.8168V4.96946H16.9601C17.5174 4.96946 17.9734 4.52633 17.9734 3.98473C17.9734 3.44313 17.5174 3 16.9601 3H10.0393C7.92147 3 6.03673 4.50664 5.83407 6.55488C5.60101 8.89854 7.49588 10.8778 9.867 10.8778ZM7.84041 17.771V16.0083C7.84041 15.5652 7.29322 15.3485 6.9791 15.6636L4.15199 18.411C3.94934 18.608 3.94934 18.9132 4.15199 19.1102L6.9791 21.8576C7.29322 22.1629 7.84041 21.9462 7.84041 21.5031V19.7404H18.9867C19.544 19.7404 20 19.2973 20 18.7557C20 18.2141 19.544 17.771 18.9867 17.771H7.84041Z" />
</svg>
