<svg class="fill-current stroke-current w-full h-full" style="color: inherit" stroke-width="0.2" width="24" height="24" viewBox="0 0 24 24" stroke="none" xmlns="http://www.w3.org/2000/svg">
<path d="M18.3267 13.44L15.0655 11.82C16.3639 10.82 17.1994 9.26 17.1994 7.5C17.1994 4.47 14.7132 2 11.6633 2C8.61351 2 6.12733 4.47 6.12733 7.5C6.12733 9.63 7.35532 11.48 9.14698 12.39V15.65C6.9829 15.19 7.11375 15.21 6.87218 15.21C6.33871 15.21 5.5838 15.27 5.20131 15.65L5 16L5.05033 16.5L5.17111 17.22L9.16711 22.31C9.59993 22.75 10.2039 23 10.8279 23H17.1692C18.1556 23 18.991 22.3 19.1521 21.33L19.9573 16.62C20.1787 15.32 19.5245 14.04 18.3267 13.44ZM17.9744 16.29L17.1692 21H10.8279C10.7373 21 10.6568 20.96 10.5863 20.9L6.88224 17.22L11.1601 18.11V7.5C11.1601 7.22 11.3815 7 11.6633 7C11.9452 7 12.1666 7.22 12.1666 7.5V13.5H13.9381L17.4208 15.23C17.8234 15.43 18.0449 15.86 17.9744 16.29ZM8.14043 7.5C8.14043 5.57 9.72071 4 11.6633 4C13.606 4 15.1863 5.57 15.1863 7.5C15.1863 8.45 14.8038 9.31 14.1797 9.94V7.5C14.1797 6.12 13.0524 5 11.6633 5C10.2743 5 9.14698 6.12 9.14698 7.5V9.94C8.52292 9.31 8.14043 8.45 8.14043 7.5Z" />
</svg>
