<svg class="fill-current stroke-current w-full h-full" style="color: inherit" stroke-width="0.2" width="24" height="24" viewBox="0 0 24 24" stroke="none" xmlns="http://www.w3.org/2000/svg">
<path d="M18.3013 5.67945C17.9416 6.03874 17.9116 6.59763 18.2313 6.99684C19.68 8.81323 20.4393 11.2983 19.76 13.9031C18.9707 16.9471 16.5828 19.2225 13.5556 19.8313C8.46016 20.8393 3.99419 16.9071 3.99419 11.9869C3.99419 7.91501 7.04144 4.56168 10.9879 4.07265V6.08864C7.8607 6.61759 5.56278 9.54178 6.06233 12.9051C6.45197 15.5099 8.62002 17.6058 11.2377 17.9251C14.8744 18.3742 17.9816 15.5399 17.9816 11.9869C17.9816 10.7394 17.6019 9.59168 16.9525 8.63358C16.6128 8.13458 15.8835 8.10463 15.4538 8.5238L15.4439 8.53378C15.1042 8.87311 15.0742 9.40206 15.334 9.80126C15.9334 10.7194 16.1732 11.8971 15.8235 13.1147C15.4339 14.482 14.2849 15.5698 12.8862 15.8792C10.2885 16.4481 7.99058 14.4919 7.99058 11.9869C7.99058 10.1306 9.26943 8.58368 10.9879 8.13458V10.2703C10.3884 10.6196 9.98878 11.2484 9.98878 11.9869C9.98878 13.0847 10.888 13.983 11.987 13.983C13.086 13.983 13.9852 13.0847 13.9852 11.9869C13.9852 11.2484 13.5855 10.6097 12.9861 10.2703V2.71534C12.9861 2.32612 12.6664 2.00675 12.2767 2.00675C6.92155 1.80715 2.30572 6.0587 2.01598 11.3881C1.6563 17.9251 7.4211 23.1847 14.0151 21.7675C17.8916 20.9391 20.8889 17.975 21.7582 14.1127C22.4675 10.959 21.5583 7.96491 19.7899 5.7593C19.4203 5.29023 18.7209 5.26029 18.3013 5.67945V5.67945Z" />
</svg>
