<svg class="fill-current stroke-current w-full h-full" style="color: inherit" stroke-width="0.2" width="24" height="24" viewBox="0 0 24 24" stroke="none" xmlns="http://www.w3.org/2000/svg">
<path d="M12.8712 15.67C13.0139 15.31 12.9222 14.9 12.6368 14.62L10.5072 12.56L10.5377 12.53C12.3108 10.59 13.5743 8.36 14.3182 6H16.295C16.8453 6 17.3038 5.55 17.3038 5.01V4.99C17.3038 4.45 16.8453 4 16.295 4H10.1709V3C10.1709 2.45 9.71234 2 9.1519 2C8.59146 2 8.13291 2.45 8.13291 3V4H2.0088C1.45854 4 1 4.45 1 4.99C1 5.54 1.45854 5.98 2.0088 5.98H12.3821C11.6994 7.92 10.6192 9.75 9.1519 11.35C8.32652 10.46 7.63361 9.49 7.05279 8.47C6.88975 8.18 6.59424 8 6.25798 8C5.55487 8 5.10652 8.75 5.45298 9.35C6.09494 10.48 6.87956 11.56 7.79665 12.56L3.34367 16.87C2.93608 17.26 2.93608 17.9 3.34367 18.29C3.74108 18.68 4.38304 18.68 4.79063 18.29L9.1519 14L11.2103 16.02C11.7299 16.53 12.6165 16.34 12.8712 15.67ZM17.8133 10C17.2019 10 16.6517 10.37 16.4377 10.94L12.698 20.74C12.4534 21.35 12.9222 22 13.5845 22C13.9819 22 14.3385 21.76 14.4812 21.39L15.3881 19H20.2283L21.1454 21.39C21.288 21.75 21.6447 22 22.0421 22C22.7044 22 23.1732 21.35 22.9388 20.74L19.1991 10.94C18.9749 10.37 18.4247 10 17.8133 10ZM16.1625 17L17.8133 12.67L19.4641 17H16.1625Z" />
</svg>
