<svg class="fill-current stroke-current w-full h-full" style="color: inherit" stroke-width="0.2" width="24" height="24" viewBox="0 0 24 24" stroke="none" xmlns="http://www.w3.org/2000/svg">
<path d="M19.9906 5.6H16.5525V4.8C16.5525 4.06 16.2626 3.35 15.7429 2.82C15.2132 2.29 14.5236 2 13.774 2H10.216C9.4864 2 8.7668 2.3 8.24708 2.82C7.72737 3.35 7.43753 4.05 7.43753 4.8V5.6H3.99944C3.44975 5.6 3 6.05 3 6.6C3 7.15 3.44975 7.6 3.99944 7.6H4.77901V19.2C4.77901 19.95 5.06885 20.65 5.58856 21.17C6.11827 21.7 6.80788 22 7.55747 22H16.4425C17.1721 22 17.8917 21.7 18.4114 21.18C18.9311 20.65 19.221 19.95 19.221 19.2V7.6H20.0006C20.5502 7.6 21 7.15 21 6.6C21 6.05 20.5502 5.6 20.0006 5.6H19.9906ZM9.43642 4.8C9.43642 4.58 9.51638 4.38 9.6663 4.23C9.81621 4.08 10.0061 4 10.206 4H13.764C13.9739 4 14.1638 4.08 14.3137 4.23C14.4636 4.38 14.5436 4.59 14.5436 4.8V5.6H9.43642V4.8ZM17.2121 19.2C17.2121 19.41 17.1321 19.62 16.9822 19.77C16.8323 19.92 16.6424 20 16.4425 20H7.55747C7.34758 20 7.15769 19.92 7.00777 19.77C6.85786 19.62 6.7779 19.41 6.7779 19.2V7.6H17.2121V19.2ZM12.7646 16.5V11.1C12.7646 10.55 13.2143 10.1 13.764 10.1C14.3137 10.1 14.7635 10.55 14.7635 11.1V16.5C14.7635 17.05 14.3137 17.5 13.764 17.5C13.2143 17.5 12.7646 17.05 12.7646 16.5ZM9.20655 16.5V11.1C9.20655 10.55 9.6563 10.1 10.206 10.1C10.7557 10.1 11.2054 10.55 11.2054 11.1V16.5C11.2054 17.05 10.7557 17.5 10.206 17.5C9.6563 17.5 9.20655 17.05 9.20655 16.5Z" />
</svg>
