<svg class="fill-current stroke-current w-full h-full" style="color: inherit" stroke-width="0.2" width="24" height="24" viewBox="0 0 24 24" stroke="none" xmlns="http://www.w3.org/2000/svg">
<path d="M20 5.6H18.23H16.56V4.8C16.56 4.06 16.27 3.35 15.75 2.82C15.22 2.29 14.53 2 13.78 2H10.22C9.48 2 8.78 2.29 8.25 2.82C7.73 3.35 7.44 4.05 7.44 4.8V5.6H5.77H4C3.45 5.6 3 6.05 3 6.6C3 7.15 3.45 7.6 4 7.6H4.78V19.2C4.78 19.95 5.07 20.65 5.59 21.17C6.12 21.7 6.81 22 7.56 22H16.44C17.17 22 17.89 21.7 18.41 21.18C18.93 20.65 19.22 19.95 19.22 19.2V7.6H20C20.55 7.6 21 7.15 21 6.6C21 6.05 20.55 5.6 20 5.6ZM9.44 4.8C9.44 4.59 9.52 4.38 9.67 4.23C9.82 4.08 10.01 4 10.22 4H13.78C13.99 4 14.18 4.08 14.33 4.23C14.48 4.38 14.56 4.59 14.56 4.8V5.6H9.44V4.8ZM17.22 19.2C17.22 19.41 17.14 19.62 16.99 19.77C16.84 19.92 16.65 20 16.45 20H7.56C7.35 20 7.16 19.92 7.01 19.77C6.86 19.62 6.78 19.41 6.78 19.2V7.6H17.22V19.2Z" />
</svg>
