<svg class="fill-current stroke-current w-full h-full" style="color: inherit" stroke-width="0.2" width="24" height="24" viewBox="0 0 24 24" stroke="none" xmlns="http://www.w3.org/2000/svg">
<path d="M18.22 21H5.78C4.25 21 3 19.75 3 18.22V5.78C3 4.25 4.25 3 5.78 3H18.22C19.75 3 21 4.25 21 5.78V18.22C21 19.75 19.75 21 18.22 21ZM5.78 5C5.35 5 5 5.35 5 5.78V18.22C5 18.65 5.35 19 5.78 19H18.22C18.65 19 19 18.65 19 18.22V5.78C19 5.35 18.65 5 18.22 5H5.78ZM16.45 13H13.78C13.23 13 12.78 12.55 12.78 12V7.56C12.78 7.01 13.23 6.56 13.78 6.56H16.45C17 6.56 17.45 7.01 17.45 7.56V12C17.45 12.55 17 13 16.45 13ZM14.78 11H15.45V8.56H14.78V11ZM10.22 16.56H7.55C7 16.56 6.55 16.11 6.55 15.56V7.56C6.55 7.01 7 6.56 7.55 6.56H10.22C10.77 6.56 11.22 7.01 11.22 7.56V15.56C11.22 16.11 10.77 16.56 10.22 16.56ZM8.55 14.56H9.22V8.56H8.55V14.56Z" />
</svg>
