<svg class="fill-current stroke-current w-full h-full" style="color: inherit" stroke-width="0.2" width="24" height="24" viewBox="0 0 24 24" stroke="none" xmlns="http://www.w3.org/2000/svg">
<path d="M21.9975 12.0013C21.9975 11.4513 21.5475 11.0013 20.9975 11.0013C20.4475 11.0013 19.9975 11.4513 19.9975 12.0013V14.5513L13.9375 8.38126C13.7475 8.19126 13.4875 8.08126 13.2275 8.08126C12.9675 8.08126 12.6975 8.19126 12.5175 8.38126L9.13755 11.8213L3.70755 6.30126C3.32755 5.90126 2.68755 5.90126 2.29755 6.29126C1.90755 6.68126 1.89755 7.31126 2.28755 7.70126L8.41755 13.9513C8.79755 14.3313 9.46755 14.3313 9.84755 13.9513L13.2275 10.5113L18.6175 16.0013H16.0875C15.5375 16.0013 15.0875 16.4513 15.0875 17.0013C15.0875 17.5513 15.5375 18.0013 16.0875 18.0013H20.9975C21.1275 18.0013 21.2575 17.9713 21.3775 17.9213C21.4675 17.8813 21.5375 17.8313 21.6075 17.7713C21.6375 17.7513 21.6675 17.7413 21.6975 17.7113C21.7875 17.6213 21.8675 17.5113 21.9175 17.3913C21.9675 17.2713 21.9975 17.1413 21.9975 17.0113V12.0013Z" />
</svg>
