<svg class="fill-current stroke-current w-full h-full" style="color: inherit" stroke-width="0.2" width="24" height="24" viewBox="0 0 24 24" stroke="none" xmlns="http://www.w3.org/2000/svg">
<path d="M21.91 6.60066C21.8601 6.48056 21.7801 6.37047 21.6901 6.28039C21.6701 6.26038 21.6401 6.25037 21.6201 6.23035C21.5402 6.1703 21.4602 6.10025 21.3702 6.07022C21.2703 6.03019 21.1703 6.02018 21.0604 6.01017C21.0404 6.01017 21.0104 6.00016 20.9904 6.00016H16.0922C15.5324 5.99016 15.0826 6.44052 15.0826 6.99098C15.0826 7.54143 15.5324 7.9918 16.0822 7.9918H18.6113L13.2233 13.4863L9.84459 10.0435C9.46473 9.66317 8.79498 9.66317 8.41513 10.0435L2.28744 16.2986C1.89759 16.6889 1.90758 17.3295 2.29744 17.7098C2.48736 17.8999 2.74727 18 2.99717 18C3.24708 18 3.51698 17.8999 3.7069 17.6998L9.13486 12.1752L12.5136 15.618C12.8934 15.9984 13.5632 15.9984 13.943 15.618L20.0008 9.44299V11.9951C20.0008 12.5455 20.4506 12.9959 21.0004 12.9959C21.5502 12.9959 22 12.5455 22 11.9951V6.99098C22 6.86087 21.97 6.73076 21.92 6.61066L21.91 6.60066Z" />
</svg>
