<svg class="fill-current stroke-current w-full h-full" style="color: inherit" stroke-width="0.2" width="24" height="24" viewBox="0 0 24 24" stroke="none" xmlns="http://www.w3.org/2000/svg">
<path fill-rule="evenodd" clip-rule="evenodd" d="M10.6843 4.33C11.0945 4.11 11.5448 4 12.005 4C12.4652 4 12.9255 4.11 13.3257 4.33C13.7359 4.55 14.076 4.87 14.3262 5.26L21.6298 16.98C21.8699 17.4 22 17.86 22 18.33C22 18.8 21.8699 19.26 21.6298 19.67C21.3897 20.07 21.0495 20.41 20.6393 20.64C20.2291 20.87 19.7689 20.99 19.2986 21H19.2886H4.68134C4.21111 21 3.75088 20.87 3.34067 20.64C2.93047 20.41 2.5903 20.08 2.35018 19.67C2.13007 19.27 2 18.81 2 18.34C2 17.87 2.13007 17.41 2.37019 17L9.68384 5.27L10.5343 5.8L9.68384 5.27C9.93397 4.88 10.2741 4.56 10.6843 4.34V4.33ZM11.3847 6.33L4.09105 18.03C4.03102 18.13 4.01101 18.23 4.001 18.34C4.001 18.45 4.03102 18.55 4.09105 18.65C4.15108 18.75 4.23112 18.83 4.35118 18.9C4.46123 18.96 4.5913 19 4.72136 19H19.3087C19.4387 19 19.5688 18.96 19.6788 18.9C19.7889 18.84 19.8789 18.75 19.939 18.65C19.999 18.55 20.029 18.44 20.029 18.34C20.029 18.23 19.999 18.13 19.949 18.03L12.6353 6.33C12.5753 6.24 12.4852 6.15 12.3752 6.09C12.2651 6.03 12.1351 6 12.005 6C11.8749 6 11.7449 6.03 11.6348 6.09C11.5248 6.15 11.4347 6.23 11.3747 6.33H11.3847Z" />
</svg>
