<svg class="fill-current stroke-current w-full h-full" style="color: inherit" stroke-width="0.2" width="24" height="24" viewBox="0 0 24 24" stroke="none" xmlns="http://www.w3.org/2000/svg">
<path d="M22.7099 10.4L19.9786 7.73C19.7885 7.55 19.5384 7.44 19.2783 7.44H16.6371V4C16.6371 3.45 16.1869 3 15.6367 3H2.00045C1.4502 3 1 3.45 1 4V15.56C1 16.11 1.4502 16.56 2.00045 16.56H3.07094C2.91087 16.94 2.82083 17.35 2.82083 17.78C2.82083 19.56 4.2915 21 6.09232 21C7.89313 21 9.3638 19.55 9.3638 17.78C9.3638 17.35 9.27376 16.94 9.11369 16.56H14.8863C14.7262 16.94 14.6362 17.35 14.6362 17.78C14.6362 19.56 16.1069 21 17.9077 21C19.7085 21 21.1792 19.55 21.1792 17.78C21.1792 17.35 21.0891 16.94 20.9291 16.56H21.9995C22.5498 16.56 23 16.11 23 15.56V11.12C23 10.85 22.89 10.59 22.6999 10.41L22.7099 10.4ZM3.00091 5H14.6462V14.56H3.00091V5ZM7.36289 17.78C7.36289 18.45 6.79263 19 6.09232 19C5.392 19 4.82174 18.45 4.82174 17.78C4.82174 17.11 5.392 16.56 6.09232 16.56C6.79263 16.56 7.36289 17.11 7.36289 17.78ZM19.1883 17.78C19.1883 18.45 18.618 19 17.9177 19C17.2174 19 16.6471 18.45 16.6471 17.78C16.6471 17.11 17.2174 16.56 17.9177 16.56C18.618 16.56 19.1883 17.11 19.1883 17.78ZM21.0091 14.56H16.6471V9.44H18.8781L21.0091 11.53V14.55V14.56Z" />
</svg>
