<svg class="fill-current stroke-current w-full h-full" style="color: inherit" stroke-width="0.2" width="24" height="24" viewBox="0 0 24 24" stroke="none" xmlns="http://www.w3.org/2000/svg">
<path d="M14.5756 12.0888C14.9775 12.4905 15.6269 12.4905 16.0289 12.0888L18.6985 9.42119C19.1005 9.0195 19.1005 8.37061 18.6985 7.96892L16.0289 5.30127C15.6269 4.89958 14.9775 4.89958 14.5756 5.30127C14.1736 5.70296 14.1736 6.35185 14.5756 6.75354L15.4826 7.67022H7.06148C5.92766 7.67022 5 8.5972 5 9.73018V17.97C5 18.5365 5.46383 19 6.03074 19C6.59764 19 7.06148 18.5365 7.06148 17.97V9.73018H15.4826L14.5756 10.6366C14.1736 11.0383 14.1736 11.6871 14.5756 12.0888Z" />
</svg>
