<svg class="fill-current stroke-current w-full h-full" style="color: inherit" stroke-width="0.2" width="24" height="24" viewBox="0 0 24 24" stroke="none" xmlns="http://www.w3.org/2000/svg">
<path d="M9.7137 6.49353L10.6189 7.39443C11.0201 7.79369 11.6681 7.79369 12.0693 7.39443C12.4704 6.99517 12.4704 6.35021 12.0693 5.95095L9.4154 3.29945C9.01423 2.90018 8.36619 2.90018 7.96503 3.29945L5.30087 5.94071C4.89971 6.33997 4.89971 6.98493 5.30087 7.38419C5.70204 7.78345 6.35008 7.78345 6.75124 7.38419L7.65644 6.49353V12.81C7.65644 13.9362 8.5822 14.8575 9.7137 14.8575H17.9427V19.9763C17.9427 20.5393 18.4056 21 18.9714 21C19.5371 21 20 20.5393 20 19.9763V14.8575C20 13.7314 19.0742 12.81 17.9427 12.81H9.7137V6.49353Z" />
</svg>
