<svg class="fill-current stroke-current w-full h-full" style="color: inherit" stroke-width="0.2" width="24" height="24" viewBox="0 0 24 24" stroke="none" xmlns="http://www.w3.org/2000/svg">
<path d="M15.2793 6.49353L14.3747 7.39443C13.9738 7.79369 13.3262 7.79369 12.9253 7.39443C12.5244 6.99517 12.5244 6.35021 12.9253 5.95095L15.5876 3.29945C15.9885 2.90018 16.6361 2.90018 17.037 3.29945L19.6993 5.95095C20.1002 6.35021 20.1002 6.99517 19.6993 7.39443C19.2984 7.79369 18.6508 7.79369 18.25 7.39443L17.3351 6.49353V12.81C17.3351 13.9362 16.41 14.8575 15.2793 14.8575H7.05585V19.9763C7.05585 20.5393 6.59328 21 6.02793 21C5.46257 21 5 20.5393 5 19.9763V14.8575C5 13.7314 5.92513 12.81 7.05585 12.81H15.2793V6.49353Z" />
</svg>
