<svg class="fill-current stroke-current w-full h-full" style="color: inherit" stroke-width="0.2" width="24" height="24" viewBox="0 0 24 24" stroke="none" xmlns="http://www.w3.org/2000/svg">
<path d="M9.42444 12.0888C9.02246 12.4905 8.37309 12.4905 7.9711 12.0888L5.30149 9.42119C4.8995 9.0195 4.8995 8.37061 5.30149 7.96892L7.9711 5.30127C8.37309 4.89958 9.02246 4.89958 9.42444 5.30127C9.82643 5.70296 9.82643 6.35185 9.42444 6.75354L8.51739 7.67022H16.9385C18.0723 7.67022 19 8.5972 19 9.73018V17.97C19 18.5365 18.5362 19 17.9693 19C17.4024 19 16.9385 18.5365 16.9385 17.97V9.73018H8.51739L9.42444 10.6366C9.82643 11.0383 9.82643 11.6871 9.42444 12.0888Z" />
</svg>
