<svg class="fill-current stroke-current w-full h-full" style="color: inherit" stroke-width="0.2" width="24" height="24" viewBox="0 0 24 24" stroke="none" xmlns="http://www.w3.org/2000/svg">
<path d="M21 8.67836V18.3816L22.85 20.1985C22.95 19.9825 23 19.7369 23 19.4816V7.69625C23 6.6061 22.1 5.73202 21 5.73202H13.41L16.35 2.84462C16.55 2.64819 16.55 2.34374 16.35 2.14732C16.15 1.95089 15.84 1.95089 15.64 2.14732L12 5.7222L8.36 2.14732C8.16 1.95089 7.85 1.95089 7.65 2.14732C7.45 2.34374 7.45 2.64819 7.65 2.84462L10.59 5.73202H8.12L10.12 7.69625H20C20.55 7.69625 21 8.1382 21 8.67836ZM3.12 3.60084C2.73 3.21782 2.1 3.21782 1.71 3.60084C1.32 3.98387 1.32 4.6026 1.71 4.98562L2.53 5.79095C1.65 6.00701 1 6.77306 1 7.69625V19.4816C1 20.5619 1.9 21.4458 3 21.4458H18.46L19.75 22.7127C20.14 23.0958 20.77 23.0958 21.16 22.7127C21.52 22.3592 21.53 21.8092 21.23 21.4262H21.26L3.12 3.60084ZM3 18.4995V8.67836C3 8.1382 3.45 7.69625 4 7.69625H4.46L16.46 19.4816H4C3.45 19.4816 3 19.0396 3 18.4995Z" />
</svg>
