<svg class="fill-current stroke-current w-full h-full" style="color: inherit" stroke-width="0.2" width="24" height="24" viewBox="0 0 24 24" stroke="none" xmlns="http://www.w3.org/2000/svg">
<path d="M3 18.1335C4.89026 18.3472 6.7861 17.789 8.3165 16.5682C7.97043 16.4744 7.67195 16.4088 7.39077 16.3104C6.88213 16.1421 6.41369 15.8552 6.01834 15.4698C5.623 15.0844 5.31036 14.6098 5.10238 14.0795C4.95962 13.7374 4.9899 13.7093 5.33165 13.7187C5.71113 13.7662 6.09559 13.7279 6.4607 13.6062C5.86733 13.4394 5.32074 13.1176 4.86878 12.6689C4.17617 11.9982 3.75118 11.0622 3.68349 10.0584C3.65753 9.64128 3.70512 9.61316 4.05119 9.78188C4.3983 9.96267 4.77782 10.0587 5.16294 10.0631C4.89906 9.73033 4.61355 9.496 4.40591 9.17262C4.01193 8.59918 3.76818 7.92113 3.70042 7.21005C3.63265 6.49897 3.74338 5.78126 4.02091 5.13272C4.16799 4.7531 4.22855 4.73904 4.47945 5.04836C5.68709 6.54459 7.23293 7.6751 8.96539 8.32902C9.7395 8.61997 10.5423 8.81186 11.3576 8.90079C11.7902 8.94766 11.7902 8.90079 11.7642 8.45556C11.695 7.6485 11.8479 6.83731 12.2036 6.12422C12.5592 5.41113 13.1018 4.82805 13.7628 4.44846C14.4279 4.07829 15.1801 3.93224 15.9225 4.02913C16.665 4.12602 17.3636 4.4614 17.9286 4.99212C18.015 5.08931 18.1253 5.15772 18.2464 5.18927C18.3674 5.22082 18.4944 5.21421 18.6121 5.17021C19.1832 5.00702 19.736 4.77597 20.2603 4.48127C20.3381 4.4344 20.4117 4.33598 20.5631 4.39691C20.3084 5.21206 19.8355 5.92665 19.2047 6.44967C19.8215 6.35921 20.4249 6.18278 21 5.92476C21.0007 6.01303 20.9841 6.10045 20.9513 6.18125C20.9185 6.26204 20.8702 6.33436 20.8096 6.39343C20.4493 6.92344 20.0227 7.39663 19.5422 7.79942C19.4405 7.8753 19.3593 7.97908 19.3069 8.10014C19.2544 8.22119 19.2326 8.35517 19.2437 8.48836C19.2693 11.0653 18.4835 13.5747 17.0158 15.6027C16.1943 16.8065 15.1495 17.8111 13.9487 18.552C12.7479 19.2929 11.4174 19.7538 10.0425 19.9051C7.72488 20.2303 5.37307 19.7145 3.35472 18.4381C3.27686 18.3913 3.20764 18.3397 3.1341 18.2882C3.08587 18.2403 3.04104 18.1887 3 18.1335Z" />
</svg>
