<svg class="fill-current stroke-current w-full h-full" style="color: inherit" stroke-width="0.2" width="24" height="24" viewBox="0 0 24 24" stroke="none" xmlns="http://www.w3.org/2000/svg">
<path fill-rule="evenodd" clip-rule="evenodd" d="M4.57144 4.84C6.6107 3.01 9.25974 2 11.9987 2C14.7377 2 17.3868 3.01 19.426 4.84C21.4553 6.67 22.7348 9.19 22.9947 11.9C23.0247 12.18 22.9248 12.46 22.7348 12.67C22.5449 12.88 22.275 13 21.9951 13H12.9984V18.3C12.9984 18.75 13.1783 19.18 13.4982 19.5C13.8181 19.82 14.2579 20 14.7178 20C15.1776 20 15.6174 19.82 15.9373 19.5C16.2572 19.18 16.4371 18.75 16.4371 18.3C16.4371 17.75 16.887 17.3 17.4368 17.3C17.9866 17.3 18.4364 17.75 18.4364 18.3C18.4364 19.28 18.0365 20.23 17.3368 20.92C16.6371 21.61 15.6874 22 14.7078 22C13.7281 22 12.7785 21.61 12.0787 20.92C11.379 20.23 10.9791 19.28 10.9791 18.3V13H2.00237C1.72247 13 1.45257 12.88 1.26264 12.67C1.07271 12.46 0.982741 12.18 1.00273 11.9C1.27264 9.19 2.54217 6.67 4.57144 4.84ZM20.8255 11C20.4257 9.21 19.466 7.58 18.0865 6.33C16.4271 4.83 14.2479 4 11.9987 4C9.74956 4 7.58034 4.83 5.91095 6.33C4.52146 7.58 3.5718 9.21 3.17195 11H20.8255Z" />
</svg>
