<svg class="fill-current stroke-current w-full h-full" style="color: inherit" stroke-width="0.2" width="24" height="24" viewBox="0 0 24 24" stroke="none" xmlns="http://www.w3.org/2000/svg">
<path d="M17.4021 7.28L14.8936 7.92L13.4574 6.77V4.88V4.4C13.4574 4.14 13.6681 3.92 13.9362 3.92C14.1564 3.92 14.3479 4.08 14.4053 4.28C14.5106 4.7 14.884 5 15.3149 5C15.8415 5 16.2723 4.55 16.2723 4C16.2723 3.9 16.2532 3.8 16.2244 3.7C15.9372 2.72 15.0181 2 13.9362 2C12.6149 2 11.5426 3.07 11.5426 4.4V4.88V6.77L10.1064 7.92L7.59792 7.28C7.2341 7.19 6.90857 7.55 7.02346 7.92L11.5904 22.31C11.7341 22.77 12.117 23 12.5 23C12.883 23 13.2659 22.77 13.4096 22.31L17.9765 7.92C18.0914 7.55 17.7659 7.19 17.4021 7.28ZM11.5426 15.8L9.65641 9.86L10.5373 10.09L11.2649 9.51L11.5426 9.29V15.8ZM13.4574 15.8V9.29L13.7255 9.51L14.4532 10.09L15.334 9.86L13.4574 15.8Z" />
</svg>
