<svg class="fill-current stroke-current w-full h-full" style="color: inherit" stroke-width="0.2" width="24" height="24" viewBox="0 0 24 24" stroke="none" xmlns="http://www.w3.org/2000/svg">
<path d="M21.9065 14.5451C21.1161 12.9162 19.8085 11.2972 18.2277 10.088C16.6566 8.86879 14.7343 7.99935 12.7339 7.99935C9.04533 7.99935 5.59097 9.34848 3.95162 12.6463V7.99935C3.95162 7.44971 3.5125 7 2.97581 7C2.43911 7 2 7.44971 2 7.99935V14.9948C2 15.5445 2.43911 15.9942 2.97581 15.9942H9.80646C10.3432 15.9942 10.7823 15.5445 10.7823 14.9948C10.7823 14.4452 10.3432 13.9955 9.80646 13.9955H5.51291C6.61557 11.2972 9.27953 9.99806 12.7339 9.99806C14.1878 9.99806 15.7003 10.6376 17.047 11.687C18.3936 12.7263 19.506 14.1054 20.15 15.4445C20.394 15.9342 20.9795 16.1441 21.4576 15.8942C21.9358 15.6444 22.1407 15.0448 21.8967 14.5551L21.9065 14.5451Z" />
</svg>
