<svg class="fill-current stroke-current w-full h-full" style="color: inherit" stroke-width="0.2" width="24" height="24" viewBox="0 0 24 24" stroke="none" xmlns="http://www.w3.org/2000/svg">
<path d="M8.28041 19.2768C8.65428 19.6507 9.25824 19.6507 9.63211 19.2768L12 16.9089L14.3679 19.2768C14.7418 19.6507 15.3457 19.6507 15.7196 19.2768C16.0935 18.9029 16.0935 18.299 15.7196 17.9251L12.6806 14.8862C12.3068 14.5123 11.7028 14.5123 11.3289 14.8862L8.28999 17.9251C7.90653 18.2894 7.90653 18.9029 8.28999 19.2768H8.28041ZM15.7196 5.28041C15.3457 4.90653 14.7418 4.90653 14.3679 5.28041L12 7.64829L9.63211 5.28041C9.25824 4.90653 8.65428 4.90653 8.28041 5.28041C7.90653 5.65428 7.90653 6.26783 8.28041 6.6417L11.3194 9.68065C11.6932 10.0545 12.2972 10.0545 12.6711 9.68065L15.71 6.6417C16.0935 6.26783 16.0935 5.65428 15.7196 5.28041Z" />
</svg>
