<svg class="fill-current stroke-current w-full h-full" style="color: inherit" stroke-width="0.2" width="24" height="24" viewBox="0 0 24 24" stroke="none" xmlns="http://www.w3.org/2000/svg">
<path d="M8.28041 19.7111C8.65428 20.0963 9.25824 20.0963 9.63211 19.7111L12 17.2712L14.3679 19.7111C14.7418 20.0963 15.3457 20.0963 15.7196 19.7111C16.0935 19.3258 16.0935 18.7035 15.7196 18.3182L12.6806 15.1869C12.3068 14.8016 11.7028 14.8016 11.3289 15.1869L8.28999 18.3182C7.90653 18.6936 7.90653 19.3258 8.28041 19.7111ZM15.7196 5.28894C15.3457 4.90369 14.7418 4.90369 14.3679 5.28894L12 7.72884L9.63211 5.28894C9.25824 4.90369 8.65428 4.90369 8.28041 5.28894C7.90653 5.67419 7.90653 6.30639 8.28041 6.69164L11.3194 9.82302C11.6932 10.2083 12.2972 10.2083 12.6711 9.82302L15.71 6.69164C16.0935 6.30639 16.0935 5.67419 15.7196 5.28894Z" />
</svg>
