<svg class="fill-current stroke-current w-full h-full" style="color: inherit" stroke-width="0.2" width="24" height="24" viewBox="0 0 24 24" stroke="none" xmlns="http://www.w3.org/2000/svg">
<path d="M12 6.39642L14.3583 8.82994C14.7322 9.21574 15.3361 9.21574 15.71 8.82994C16.0839 8.44414 16.0839 7.82092 15.71 7.43512L12.6711 4.28935C12.2972 3.90355 11.6932 3.90355 11.3194 4.28935L8.28041 7.43512C7.90653 7.82092 7.90653 8.44414 8.28041 8.82994C8.65428 9.21574 9.25824 9.21574 9.63211 8.82994L12 6.39642ZM12 18.6036L9.6417 16.1701C9.26783 15.7843 8.66387 15.7843 8.28999 16.1701C7.91612 16.5559 7.91612 17.1791 8.28999 17.5649L11.3289 20.7106C11.7028 21.0965 12.3068 21.0965 12.6806 20.7106L15.7196 17.5748C16.0935 17.189 16.0935 16.5658 15.7196 16.18C15.3457 15.7942 14.7418 15.7942 14.3679 16.18L12 18.6036Z" />
</svg>
