<svg class="fill-current stroke-current w-full h-full" style="color: inherit" stroke-width="0.2" width="24" height="24" viewBox="0 0 24 24" stroke="none" xmlns="http://www.w3.org/2000/svg">
<path d="M12 6.32235L14.3583 8.68065C14.7322 9.05452 15.3361 9.05452 15.71 8.68065C16.0839 8.30677 16.0839 7.70282 15.71 7.32894L12.6711 4.28041C12.2972 3.90653 11.6932 3.90653 11.3194 4.28041L8.28041 7.32894C7.90653 7.70282 7.90653 8.30677 8.28041 8.68065C8.65428 9.05452 9.25824 9.05452 9.63211 8.68065L12 6.32235ZM12 18.1522L9.6417 15.7939C9.26783 15.42 8.66387 15.42 8.28999 15.7939C7.91612 16.1678 7.91612 16.7717 8.28999 17.1456L11.3289 20.1941C11.7028 20.568 12.3068 20.568 12.6806 20.1941L15.7196 17.1552C16.0935 16.7813 16.0935 16.1774 15.7196 15.8035C15.3457 15.4296 14.7418 15.4296 14.3679 15.8035L12 18.1522Z" />
</svg>
