<svg class="fill-current stroke-current w-full h-full" style="color: inherit" stroke-width="0.2" width="24" height="24" viewBox="0 0 24 24" stroke="none" xmlns="http://www.w3.org/2000/svg">
<path d="M18.23 10.099H8.57V7.49901C8.57 6.62901 8.89 5.78901 9.46 5.14901C10.03 4.50901 10.82 4.10901 11.67 4.01901C12.52 3.92901 13.37 4.16901 14.05 4.67901C14.74 5.19901 15.22 5.94901 15.39 6.79901C15.5 7.33901 16.02 7.68901 16.57 7.57901C17.11 7.46901 17.46 6.93901 17.35 6.39901C17.08 5.05901 16.34 3.87901 15.25 3.06901C14.16 2.25901 12.82 1.88901 11.46 2.02901C10.11 2.16901 8.87 2.79901 7.96 3.81901C7.06 4.82901 6.56 6.13901 6.56 7.50901V10.109H5.78C4.25 10.109 3 11.369 3 12.909V19.209C3 20.749 4.25 22.009 5.78 22.009H18.23C19.76 22.009 21.01 20.749 21.01 19.209V12.909C21.01 11.369 19.76 10.109 18.23 10.109V10.099ZM19.01 19.199C19.01 19.639 18.66 19.999 18.23 19.999H5.79C5.36 19.999 5.01 19.639 5.01 19.199V12.899C5.01 12.459 5.36 12.099 5.79 12.099H18.23C18.66 12.099 19.01 12.459 19.01 12.899V19.199Z" />
</svg>
