<svg class="fill-current stroke-current w-full h-full" style="color: inherit" stroke-width="0.2" width="24" height="24" viewBox="0 0 24 24" stroke="none" xmlns="http://www.w3.org/2000/svg">
<path d="M20.45 6.55C20.07 6.17 19.44 6.17 19.06 6.55L16.89 8.7C16.5 9.08 16.5 9.71 16.89 10.09H16.9C17.29 10.49 17.91 10.49 18.3 10.1C18.92 9.47 19.82 8.56 20.45 7.93C20.83 7.55 20.83 6.93 20.45 6.55ZM12.02 3H11.99C11.44 3 11 3.44 11 3.98V7.01C11 7.56 11.44 8 11.98 8H12.01C12.56 8 13 7.56 13 7.02V3.98C13 3.44 12.56 3 12.02 3ZM7.1 10.11H7.11C7.49 9.72 7.49 9.09 7.11 8.71L4.96 6.54C4.58 6.15 3.95 6.15 3.57 6.54H3.55C3.16 6.94 3.16 7.56 3.55 7.94C4.18 8.56 5.08 9.48 5.7 10.11C6.09 10.49 6.72 10.49 7.1 10.11ZM7.43 14.02C7.43 14.02 7.42 14.02 7.41 14.02C7.39 14.02 7.37 14.02 7.35 14.02H4.01V19.02H20V14.02H16.66C16.66 14.02 16.62 14.02 16.6 14.02H16.58C15.81 15.79 14.04 17 12.01 17C9.98 17 8.21 15.79 7.44 14.02H7.43ZM14.76 13.17C15.08 12.43 15.86 12 16.66 12H20C21.1 12 22 12.9 22 14V19C22 20.1 21.1 21 20 21H4C2.9 21 2 20.1 2 19V14C2 12.9 2.9 12 4 12H7.34C8.14 12 8.92 12.43 9.24 13.17C9.69 14.25 10.76 15 12 15C13.24 15 14.31 14.25 14.76 13.17Z" />
</svg>
