<svg class="fill-current stroke-current w-full h-full" style="color: inherit" stroke-width="0.2" width="24" height="24" viewBox="0 0 24 24" stroke="none" xmlns="http://www.w3.org/2000/svg">
<path d="M20.4951 20.3148L3.68542 3.50696C3.29934 3.12091 2.67565 3.12091 2.28957 3.50696C1.90348 3.893 1.90348 4.51661 2.28957 4.90266L4.5764 7.18923C3.74482 8.50574 3.23004 10.0202 3.18054 11.6535C3.04194 16.6919 7.08102 20.8196 12.0903 20.8196C13.8326 20.8196 15.4463 20.3049 16.8223 19.4437L19.0894 21.7105C19.4754 22.0965 20.0991 22.0965 20.4852 21.7105C20.8812 21.3244 20.8812 20.7008 20.4951 20.3148ZM10.8231 18.731C8.07099 18.246 5.83366 16.0485 5.29908 13.3165C4.96249 11.6139 5.26938 9.99053 6.01185 8.63443L15.377 17.9985C14.0504 18.7112 12.4863 19.018 10.8231 18.731ZM13.0802 7.95142V10.0994L11.1003 8.1197V7.95142C11.1003 7.407 11.5458 6.96156 12.0903 6.96156C12.6348 6.96156 13.0802 7.407 13.0802 7.95142ZM20.7228 14.1182C20.4951 15.0289 20.1189 15.8703 19.6338 16.6424L18.1786 15.1873C18.4459 14.6924 18.6637 14.1677 18.8023 13.6134C18.9112 13.1977 19.3071 12.9007 19.7427 12.9007C20.3862 12.9007 20.8812 13.5045 20.7228 14.1182ZM7.37801 4.39783C8.82337 3.47726 10.5261 2.96253 12.3279 3.00213C14.9513 3.07142 17.2777 4.26915 18.8617 6.13008L20.1585 4.83337C20.4654 4.52651 21 4.74428 21 5.18972V9.43621C21 9.71337 20.7822 9.93114 20.505 9.93114H16.258C15.8126 9.93114 15.5948 9.39662 15.9116 9.08976L17.446 7.55548C16.1689 5.9915 14.2484 4.98185 12.0903 4.98185C10.9023 4.98185 9.78364 5.2887 8.80357 5.82323L7.37801 4.39783Z" />
</svg>
