<svg class="fill-current stroke-current w-full h-full" style="color: inherit" stroke-width="0.2" width="24" height="24" viewBox="0 0 24 24" stroke="none" xmlns="http://www.w3.org/2000/svg">
<path d="M22 15.005V19.005C22 19.805 21.69 20.555 21.12 21.125C20.55 21.695 19.8 22.005 19 22.005H5C4.2 22.005 3.45 21.695 2.88 21.125C2.31 20.555 2 19.805 2 19.005V15.005C2 14.455 2.45 14.005 3 14.005C3.55 14.005 4 14.455 4 15.005V19.005C4 19.265 4.11 19.525 4.29 19.715C4.48 19.905 4.73 20.005 5 20.005H19C19.26 20.005 19.52 19.895 19.71 19.715C19.9 19.535 20 19.275 20 19.005V15.005C20 14.455 20.45 14.005 21 14.005C21.55 14.005 22 14.455 22 15.005ZM7.71 8.715L11 5.425V15.005C11 15.555 11.45 16.005 12 16.005C12.55 16.005 13 15.555 13 15.005V5.415L16.29 8.705C16.49 8.905 16.74 8.995 17 8.995C17.26 8.995 17.51 8.895 17.71 8.705C18.1 8.315 18.1 7.685 17.71 7.295L12.71 2.295C12.62 2.205 12.51 2.125 12.38 2.075C12.14 1.975 11.86 1.975 11.62 2.075C11.5 2.125 11.39 2.195 11.29 2.295L6.29 7.295C5.9 7.685 5.9 8.315 6.29 8.705C6.68 9.095 7.31 9.095 7.7 8.705L7.71 8.715Z" />
</svg>
