<svg class="fill-current stroke-current w-full h-full" style="color: inherit" stroke-width="0.2" width="24" height="24" viewBox="0 0 24 24" stroke="none" xmlns="http://www.w3.org/2000/svg">
<path d="M15.0563 6.9434V10.9057H16.0423V12.8868H13.0845V4.96226H15.0563L12.0986 1L9.14084 4.96226H11.1127V12.8868H8.15493V10.8363C8.84507 10.4698 9.33803 9.76651 9.33803 8.92453C9.33803 7.72594 8.36197 6.74528 7.16901 6.74528C5.97606 6.74528 5 7.72594 5 8.92453C5 9.76651 5.49296 10.4698 6.1831 10.8363V12.8868C6.1831 13.9863 7.06056 14.8679 8.15493 14.8679H11.1127V17.8891C10.4127 18.2557 9.92958 18.9788 9.92958 19.8208C9.92958 21.0292 10.9056 22 12.0986 22C13.2915 22 14.2676 21.0292 14.2676 19.8208C14.2676 18.9788 13.7845 18.2557 13.0845 17.8891V14.8679H16.0423C17.1366 14.8679 18.0141 13.9863 18.0141 12.8868V10.9057H19V6.9434H15.0563Z" />
</svg>
