<svg class="fill-current stroke-current w-full h-full" style="color: inherit" stroke-width="0.2" width="24" height="24" viewBox="0 0 24 24" stroke="none" xmlns="http://www.w3.org/2000/svg">
<path d="M10.8033 4.89202L12.806 2.20388C13.0063 1.93204 13.4069 1.93204 13.6071 2.20388L15.6099 4.89202C15.8603 5.22426 15.6199 5.69746 15.2094 5.69746H14.208V9.8958L12.2052 7.88221V5.69746H11.2038C10.7933 5.69746 10.5529 5.22426 10.8033 4.89202ZM16.7114 11.7382H17.2121V12.9162L18.9846 14.6982C19.1248 14.4163 19.2149 14.0941 19.2149 13.7518V11.7382H19.7156C19.996 11.7382 20.2163 11.5167 20.2163 11.2348V8.21445C20.2163 7.93254 19.996 7.71105 19.7156 7.71105H16.7114C16.431 7.71105 16.2107 7.93254 16.2107 8.21445V11.2348C16.2107 11.5167 16.431 11.7382 16.7114 11.7382ZM21.7083 21.7055C21.3178 22.0982 20.6869 22.0982 20.2964 21.7055L14.3882 15.7654H14.208V18.0609C14.8088 18.4032 15.2094 19.0476 15.2094 19.7926C15.2094 21.0008 14.1379 21.9673 12.8962 21.7861C12.0149 21.6552 11.304 20.9001 11.2138 20.004C11.1337 19.1684 11.5443 18.4435 12.2052 18.0609V15.7654H9.20106C8.09954 15.7654 7.1983 14.8593 7.1983 13.7518V11.4563C6.59747 11.114 6.19691 10.4697 6.19691 9.72464C6.19691 9.13063 6.45727 8.58696 6.87785 8.21445L3.2929 4.62019C2.90237 4.22754 2.90237 3.59325 3.2929 3.2006C3.68344 2.80795 4.31432 2.80795 4.70485 3.2006L21.6983 20.2859C22.0989 20.6786 22.0989 21.3129 21.7083 21.7055ZM12.2052 13.5807L9.69174 11.0536C9.55155 11.2147 9.38131 11.3456 9.20106 11.4563V13.7518H12.2052V13.5807Z" />
</svg>
