<svg class="fill-current stroke-current w-full h-full" style="color: inherit" stroke-width="0.2" width="24" height="24" viewBox="0 0 24 24" stroke="none" xmlns="http://www.w3.org/2000/svg">
<path d="M15.03 14.2734C15.83 15.0929 16.27 16.1723 16.27 17.3316V19.0006C16.27 19.5503 15.82 20 15.27 20C14.72 20 14.27 19.5503 14.27 19.0006V17.3316C14.27 16.7119 14.02 16.1123 13.6 15.6725C13.17 15.2328 12.6 14.9929 12 14.9929H6.27C5.67 14.9929 5.1 15.2328 4.67 15.6725C4.24 16.1123 4 16.7119 4 17.3316V19.0006C4 19.5503 3.55 20 3 20C2.45 20 2 19.5503 2 19.0006V17.3316C2 16.1822 2.44 15.0929 3.25 14.2734C4.06 13.4539 5.13 12.9941 6.28 12.9941H12.01C13.16 12.9941 14.23 13.4439 15.04 14.2734H15.03ZM4.86 7.32745C4.86 4.93886 6.78 3 9.13 3C11.48 3 13.4 4.93886 13.4 7.32745C13.4 9.71605 11.48 11.6549 9.13 11.6549C6.78 11.6549 4.86 9.71605 4.86 7.32745ZM6.86 7.32745C6.86 8.6167 7.88 9.65608 9.13 9.65608C10.38 9.65608 11.4 8.6067 11.4 7.32745C11.4 6.04821 10.38 4.99882 9.13 4.99882C7.88 4.99882 6.86 6.04821 6.86 7.32745ZM21 9.65608H19.55V8.15697C19.55 7.60729 19.1 7.15755 18.55 7.15755C18 7.15755 17.55 7.60729 17.55 8.15697V9.65608H16.09C15.54 9.65608 15.09 10.1058 15.09 10.6555C15.09 11.2052 15.54 11.6549 16.09 11.6549H17.55V13.154C17.55 13.7037 18 14.1534 18.55 14.1534C19.1 14.1534 19.55 13.7037 19.55 13.154V11.6549H21C21.55 11.6549 22 11.2052 22 10.6555C22 10.1058 21.55 9.65608 21 9.65608Z" />
</svg>
