<svg class="fill-current stroke-current w-full h-full" style="color: inherit" stroke-width="0.2" width="24" height="24" viewBox="0 0 24 24" stroke="none" xmlns="http://www.w3.org/2000/svg">
<path d="M16.09 20C15.54 20 15.09 19.55 15.09 19V17.33C15.09 16.71 14.84 16.11 14.42 15.67C13.99 15.23 13.42 14.99 12.82 14.99H6.27C5.67 14.99 5.1 15.23 4.67 15.67C4.24 16.11 4 16.71 4 17.33V19C4 19.55 3.55 20 3 20C2.45 20 2 19.55 2 19V17.33C2 16.18 2.44 15.09 3.25 14.27C4.05 13.46 5.15 12.99 6.28 12.99H12.83C13.97 12.99 15.05 13.44 15.86 14.27C16.66 15.09 17.11 16.17 17.11 17.33V19C17.11 19.55 16.66 20 16.11 20H16.09ZM13.82 7.33C13.82 4.94 11.9 3 9.55 3C7.2 3 5.28 4.94 5.28 7.33C5.28 9.72 7.2 11.66 9.55 11.66C11.9 11.66 13.82 9.72 13.82 7.33ZM11.82 7.33C11.82 8.62 10.8 9.66 9.55 9.66C8.3 9.66 7.28 8.61 7.28 7.33C7.28 6.05 8.3 5 9.55 5C10.8 5 11.82 6.05 11.82 7.33ZM22 19V17.33C22 16.38 21.68 15.44 21.11 14.69C20.53 13.93 19.71 13.38 18.8 13.14C18.27 13 17.72 13.32 17.58 13.85C17.44 14.38 17.76 14.93 18.29 15.07C18.77 15.2 19.21 15.49 19.52 15.9C19.83 16.31 20 16.82 20 17.33V19C20 19.55 20.45 20 21 20C21.55 20 22 19.55 22 19ZM15.52 11.53C16.44 11.29 17.26 10.74 17.84 9.98C18.42 9.23 18.73 8.28 18.73 7.33C18.73 6.38 18.41 5.43 17.84 4.68C17.26 3.92 16.44 3.37 15.52 3.13C14.99 2.99 14.44 3.31 14.3 3.85C14.16 4.39 14.48 4.93 15.02 5.07C15.5 5.2 15.94 5.49 16.25 5.89C16.56 6.3 16.73 6.81 16.73 7.33C16.73 7.85 16.56 8.36 16.25 8.77C15.94 9.17 15.5 9.47 15.02 9.59C14.48 9.73 14.16 10.28 14.3 10.81C14.42 11.26 14.82 11.56 15.27 11.56C15.35 11.56 15.44 11.55 15.52 11.53Z" />
</svg>
