<svg class="fill-current stroke-current w-full h-full" style="color: inherit" stroke-width="0.2" width="24" height="24" viewBox="0 0 24 24" stroke="none" xmlns="http://www.w3.org/2000/svg">
<path d="M15.03 14.2734C15.83 15.0929 16.28 16.1723 16.28 17.3316V19.0006C16.28 19.5503 15.83 20 15.28 20C14.73 20 14.28 19.5503 14.28 19.0006V17.3316C14.28 16.7119 14.03 16.1123 13.61 15.6725C13.18 15.2328 12.61 14.9929 12.01 14.9929H6.27C5.67 14.9929 5.1 15.2328 4.67 15.6725C4.24 16.1123 4 16.7119 4 17.3316V19.0006C4 19.5503 3.55 20 3 20C2.45 20 2 19.5503 2 19.0006V17.3316C2 16.1822 2.44 15.0929 3.25 14.2734C4.05 13.4638 5.15 12.9941 6.28 12.9941H12.01C13.15 12.9941 14.23 13.4439 15.04 14.2734H15.03ZM4.86 7.32745C4.86 4.93886 6.78 3 9.13 3C11.48 3 13.4 4.93886 13.4 7.32745C13.4 9.71605 11.48 11.6549 9.13 11.6549C6.78 11.6549 4.86 9.71605 4.86 7.32745ZM6.86 7.32745C6.86 8.6167 7.88 9.65608 9.13 9.65608C10.38 9.65608 11.4 8.6067 11.4 7.32745C11.4 6.04821 10.38 4.99882 9.13 4.99882C7.88 4.99882 6.86 6.04821 6.86 7.32745ZM20.35 10.2457L21.71 8.86655C22.1 8.47678 22.09 7.83715 21.7 7.45738C21.31 7.06761 20.67 7.0776 20.29 7.46737L18.96 8.82657L17.63 7.46737C17.24 7.0776 16.61 7.06761 16.22 7.45738C15.83 7.84715 15.82 8.47678 16.21 8.86655L17.57 10.2457L16.21 11.6249C15.82 12.0147 15.83 12.6543 16.22 13.0341C16.41 13.224 16.67 13.3239 16.92 13.3239C17.17 13.3239 17.44 13.224 17.63 13.0241L18.96 11.6649L20.29 13.0241C20.49 13.224 20.75 13.3239 21 13.3239C21.25 13.3239 21.51 13.224 21.7 13.0341C22.09 12.6443 22.1 12.0147 21.71 11.6249L20.35 10.2457Z" />
</svg>
