<svg class="fill-current stroke-current w-full h-full" style="color: inherit" stroke-width="0.2" width="24" height="24" viewBox="0 0 24 24" stroke="none" xmlns="http://www.w3.org/2000/svg">
<path d="M15.27 20C14.72 20 14.27 19.55 14.27 19V17.33C14.27 16.71 14.02 16.11 13.6 15.67C13.17 15.23 12.6 14.99 12 14.99H6.27C5.67 14.99 5.1 15.23 4.67 15.67C4.24 16.11 4 16.71 4 17.33V19C4 19.55 3.55 20 3 20C2.45 20 2 19.55 2 19V17.33C2 16.18 2.44 15.09 3.25 14.27C4.06 13.45 5.13 12.99 6.28 12.99H12.01C13.16 12.99 14.23 13.44 15.04 14.27C15.84 15.09 16.28 16.17 16.28 17.33V19C16.28 19.55 15.83 20 15.28 20H15.27ZM13.41 7.33C13.41 4.94 11.49 3 9.14 3C6.79 3 4.87 4.94 4.87 7.33C4.87 9.72 6.79 11.66 9.14 11.66C11.49 11.66 13.41 9.72 13.41 7.33ZM11.41 7.33C11.41 8.62 10.39 9.66 9.14 9.66C7.89 9.66 6.87 8.61 6.87 7.33C6.87 6.05 7.89 5 9.14 5C10.39 5 11.41 6.05 11.41 7.33ZM22 10.66C22 10.11 21.55 9.66 21 9.66H16.09C15.54 9.66 15.09 10.11 15.09 10.66C15.09 11.21 15.54 11.66 16.09 11.66H21C21.55 11.66 22 11.21 22 10.66Z" />
</svg>
