<svg class="fill-current stroke-current w-full h-full" style="color: inherit" stroke-width="0.2" width="24" height="24" viewBox="0 0 24 24" stroke="none" xmlns="http://www.w3.org/2000/svg">
<path d="M15.27 20C14.72 20 14.27 19.55 14.27 19V17.33C14.27 16.71 14.02 16.11 13.6 15.67C13.17 15.23 12.6 14.99 12 14.99H6.27C5.67 14.99 5.1 15.23 4.67 15.67C4.24 16.11 4 16.71 4 17.33V19C4 19.55 3.55 20 3 20C2.45 20 2 19.55 2 19V17.33C2 16.18 2.44 15.09 3.25 14.27C4.06 13.45 5.13 12.99 6.28 12.99H12.01C13.16 12.99 14.23 13.44 15.04 14.27C15.84 15.09 16.28 16.17 16.28 17.33V19C16.28 19.55 15.83 20 15.28 20H15.27ZM13.41 7.33C13.41 4.94 11.49 3 9.14 3C6.79 3 4.87 4.94 4.87 7.33C4.87 9.72 6.79 11.66 9.14 11.66C11.49 11.66 13.41 9.72 13.41 7.33ZM11.41 7.33C11.41 8.62 10.39 9.66 9.14 9.66C7.89 9.66 6.87 8.61 6.87 7.33C6.87 6.05 7.89 5 9.14 5C10.39 5 11.41 6.05 11.41 7.33ZM21.17 11.08L22 11.81L21.28 13.06L20.23 12.7C20 12.9 19.74 13.05 19.45 13.16L19.23 14.24H17.78L17.56 13.16C17.27 13.05 17.01 12.9 16.78 12.7L15.73 13.06L15.01 11.81L15.84 11.08C15.82 10.93 15.8 10.78 15.8 10.62C15.8 10.46 15.82 10.32 15.84 10.16L15.01 9.43L15.73 8.18L16.78 8.54C17.01 8.34 17.27 8.19 17.56 8.08L17.78 7H19.23L19.45 8.08C19.74 8.19 20 8.34 20.23 8.54L21.28 8.18L22 9.43L21.17 10.16C21.19 10.31 21.21 10.46 21.21 10.62C21.21 10.78 21.19 10.92 21.17 11.08ZM19.95 10.62C19.95 9.82 19.3 9.17 18.5 9.17C17.7 9.17 17.05 9.82 17.05 10.62C17.05 11.42 17.7 12.07 18.5 12.07C19.3 12.07 19.95 11.42 19.95 10.62Z" />
</svg>
