<svg class="fill-current stroke-current w-full h-full" style="color: inherit" stroke-width="0.2" width="24" height="24" viewBox="0 0 24 24" stroke="none" xmlns="http://www.w3.org/2000/svg">
<path d="M15.27 20C14.72 20 14.27 19.55 14.27 19V17.33C14.27 16.71 14.02 16.11 13.6 15.67C13.17 15.23 12.6 14.99 12 14.99H6.27C5.67 14.99 5.1 15.23 4.67 15.67C4.24 16.11 4 16.71 4 17.33V19C4 19.55 3.55 20 3 20C2.45 20 2 19.55 2 19V17.33C2 16.18 2.44 15.09 3.25 14.27C4.06 13.45 5.13 12.99 6.28 12.99H12.01C13.16 12.99 14.23 13.44 15.04 14.27C15.84 15.09 16.28 16.17 16.28 17.33V19C16.28 19.55 15.83 20 15.28 20H15.27ZM13.41 7.33C13.41 4.94 11.49 3 9.14 3C6.79 3 4.87 4.94 4.87 7.33C4.87 9.72 6.79 11.66 9.14 11.66C11.49 11.66 13.41 9.72 13.41 7.33ZM11.41 7.33C11.41 8.62 10.39 9.66 9.14 9.66C7.89 9.66 6.87 8.61 6.87 7.33C6.87 6.05 7.89 5 9.14 5C10.39 5 11.41 6.05 11.41 7.33ZM18.44 13.03L21.71 9.7C22.1 9.31 22.09 8.67 21.7 8.29C21.31 7.9 20.67 7.91 20.29 8.3L17.73 10.91L16.81 9.97C16.42 9.58 15.79 9.57 15.39 9.96C15 10.35 14.99 10.98 15.38 11.37L17.02 13.04C17.21 13.23 17.47 13.34 17.73 13.34C17.99 13.34 18.26 13.23 18.44 13.04V13.03Z" />
</svg>
