<svg class="fill-current stroke-current w-full h-full" style="color: inherit" stroke-width="0.2" width="24" height="24" viewBox="0 0 24 24" stroke="none" xmlns="http://www.w3.org/2000/svg">
<path d="M18.9333 21C18.3467 21 17.8667 20.5235 17.8667 19.9412V18.1729C17.8667 17.5165 17.6107 16.8812 17.152 16.4153C16.704 15.9494 16.096 15.7059 15.4667 15.7059H8.53333C7.89333 15.7059 7.296 15.96 6.848 16.4153C6.4 16.8706 6.13333 17.5165 6.13333 18.1729V19.9412C6.13333 20.5235 5.65333 21 5.06667 21C4.48 21 4 20.5235 4 19.9412V18.1729C4 16.9553 4.46933 15.8012 5.32267 14.9435C6.16533 14.0859 7.33867 13.5882 8.53333 13.5882H15.4667C16.6827 13.5882 17.824 14.0647 18.6773 14.9435C19.5307 15.8118 20 16.9553 20 18.1729V19.9412C20 20.5235 19.52 21 18.9333 21ZM16.8 7.76471C16.8 5.13882 14.6453 3 12 3C9.35467 3 7.2 5.13882 7.2 7.76471C7.2 10.3906 9.35467 12.5294 12 12.5294C14.6453 12.5294 16.8 10.3906 16.8 7.76471ZM14.6667 7.76471C14.6667 9.22588 13.472 10.4118 12 10.4118C10.528 10.4118 9.33333 9.22588 9.33333 7.76471C9.33333 6.30353 10.528 5.11765 12 5.11765C13.472 5.11765 14.6667 6.30353 14.6667 7.76471Z" />
</svg>
