<svg class="fill-current stroke-current w-full h-full" style="color: inherit" stroke-width="0.2" width="24" height="24" viewBox="0 0 24 24" stroke="none" xmlns="http://www.w3.org/2000/svg">
<path d="M4.30215 12.29C4.70328 11.9 5.35126 11.9 5.75239 12.29L6.65751 13.17V9C6.65751 5.69 9.42428 3 12.8288 3C16.2332 3 19 5.69 19 9V20C19 20.55 18.5372 21 17.9715 21C17.4058 21 16.9429 20.55 16.9429 20V9C16.9429 6.79 15.1018 5 12.8288 5C10.5557 5 8.71459 6.79 8.71459 9V13.17L9.6197 12.29C10.0208 11.9 10.6688 11.9 11.0699 12.29C11.4711 12.68 11.4711 13.31 11.0699 13.7L8.40603 16.29C8.00489 16.68 7.35691 16.68 6.95578 16.29L4.29186 13.7C3.90102 13.32 3.90102 12.68 4.30215 12.29Z" />
</svg>
