<svg class="fill-current stroke-current w-full h-full" style="color: inherit" stroke-width="0.2" width="24" height="24" viewBox="0 0 24 24" stroke="none" xmlns="http://www.w3.org/2000/svg">
<path d="M19.6979 12.29C19.2967 11.9 18.6487 11.9 18.2476 12.29L17.3425 13.17V9C17.3425 5.69 14.5757 3 11.1712 3C7.76678 3 5 5.69 5 9V20C5 20.55 5.46284 21 6.02854 21C6.59424 21 7.05708 20.55 7.05708 20V9C7.05708 6.79 8.89817 5 11.1712 5C13.4443 5 15.2854 6.79 15.2854 9V13.17L14.3803 12.29C13.9792 11.9 13.3312 11.9 12.9301 12.29C12.5289 12.68 12.5289 13.31 12.9301 13.7L15.594 16.29C15.9951 16.68 16.6431 16.68 17.0442 16.29L19.7081 13.7C20.099 13.32 20.099 12.68 19.6979 12.29Z" />
</svg>
