<svg class="fill-current stroke-current w-full h-full" style="color: inherit" stroke-width="0.2" width="24" height="24" viewBox="0 0 24 24" stroke="none" xmlns="http://www.w3.org/2000/svg">
<path d="M20.5044 21.7087C20.1181 22.0971 19.4941 22.0971 19.1078 21.7087L16.2355 18.8207H8.13347V15.8331H13.2542L2.28971 4.80882C1.90343 4.42043 1.90343 3.79303 2.28971 3.40464C2.67599 3.01626 3.29999 3.01626 3.68627 3.40464L20.4945 20.3045C20.8907 20.6929 20.8907 21.3203 20.5044 21.7087ZM18.8602 15.8331H20.5143C21.3364 15.8331 22 16.5003 22 17.3269C22 17.785 21.792 18.1933 21.4751 18.4622L18.8602 15.8331ZM10.6096 16.829C10.3323 16.829 10.1144 17.048 10.1144 17.3269C10.1144 17.6057 10.3323 17.8248 10.6096 17.8248C10.887 17.8248 11.1049 17.6057 11.1049 17.3269C11.1049 17.048 10.887 16.829 10.6096 16.829ZM18.88 7.59725C19.4941 6.98977 19.8705 6.15324 19.8705 5.22708C19.8705 3.72332 18.88 2.44861 17.5132 2.03035C17.0378 1.89092 16.5524 2.24944 16.5524 2.74737C16.5524 3.07601 16.7604 3.36481 17.0675 3.45444C17.8301 3.68349 18.3848 4.39055 18.3848 5.22708C18.3848 6.0437 17.8598 6.73085 17.1269 6.97981C16.8 7.08936 16.5524 7.3682 16.5524 7.71676V7.86614C16.5524 8.23461 16.8199 8.55328 17.1863 8.61304C19.0979 8.92176 20.5143 10.6048 20.5143 12.6164V14.0903C20.5143 14.4986 20.8511 14.8372 21.2571 14.8372C21.6632 14.8372 22 14.4986 22 14.0903V12.6065C22 10.3956 20.7322 8.48357 18.88 7.59725ZM14.5517 11.5011C14.5913 11.5011 14.6408 11.5011 14.6805 11.5011H16.0869C17.1269 11.5011 18.0381 12.238 18.0381 13.5426V14.0903C18.0381 14.4986 18.3749 14.8372 18.7909 14.8372C19.197 14.8372 19.5337 14.5086 19.5337 14.0903V13.204C19.5238 11.4015 17.9391 10.057 16.0869 10.057H14.7993C13.789 10.057 12.8778 9.33006 12.749 8.31428C12.6302 7.3682 13.2047 6.6213 14.0366 6.39225C14.3536 6.30262 14.5715 6.01382 14.5715 5.67522C14.5715 5.18725 14.1159 4.81878 13.6504 4.9582C12.2538 5.36651 11.2435 6.66113 11.2534 8.18481L14.5517 11.5011ZM3.18113 18.3228C4.49845 18.3228 5.8653 18.502 7.143 18.8207V15.8331C5.8653 16.1518 4.49845 16.331 3.18113 16.331C2.63638 16.331 2.19066 16.7792 2.19066 17.3269C2.19066 17.8746 2.63638 18.3228 3.18113 18.3228Z" />
</svg>
