<svg class="fill-current stroke-current w-full h-full" style="color: inherit" stroke-width="0.2" width="24" height="24" viewBox="0 0 24 24" stroke="none" xmlns="http://www.w3.org/2000/svg">
<path d="M22 19.4903C22 20.3257 21.33 21 20.5 21H8V17.9805H20.5C21.33 17.9805 22 18.6549 22 19.4903ZM10.5 18.987C10.22 18.987 10 19.2085 10 19.4903C10 19.7721 10.22 19.9935 10.5 19.9935C10.78 19.9935 11 19.7721 11 19.4903C11 19.2085 10.78 18.987 10.5 18.987ZM18.85 9.65692C19.47 9.04296 19.85 8.19752 19.85 7.26148C19.85 5.74169 18.85 4.45339 17.47 4.03067C16.99 3.88976 16.5 4.2521 16.5 4.75534C16.5 5.08748 16.71 5.37936 17.02 5.46994C17.79 5.70143 18.35 6.41604 18.35 7.26148C18.35 8.0868 17.82 8.78128 17.08 9.0329C16.75 9.14361 16.5 9.42543 16.5 9.7777V9.92867C16.5 10.3011 16.77 10.6231 17.14 10.6835C19.07 10.9955 20.5 12.6965 20.5 14.7296V16.2192C20.5 16.6319 20.84 16.9741 21.25 16.9741C21.66 16.9741 22 16.6319 22 16.2192V14.7195C22 12.4851 20.72 10.5527 18.85 9.65692ZM18.76 16.9741C19.17 16.9741 19.51 16.6419 19.51 16.2192V15.3234C19.5 13.5017 17.9 12.1429 16.03 12.1429H14.73C13.71 12.1429 12.79 11.4082 12.66 10.3816C12.54 9.42543 13.12 8.67056 13.96 8.43907C14.28 8.34849 14.5 8.05661 14.5 7.7144C14.5 7.22123 14.04 6.84883 13.57 6.98973C12.15 7.40239 11.12 8.73095 11.15 10.291C11.18 12.1429 12.77 13.6023 14.61 13.6023H16.03C17.08 13.6023 18 14.3471 18 15.6656V16.2192C18 16.6319 18.34 16.9741 18.76 16.9741ZM3 20.4968C4.33 20.4968 5.71 20.6779 7 21V17.9805C5.71 18.3026 4.33 18.4838 3 18.4838C2.45 18.4838 2 18.9367 2 19.4903C2 20.0438 2.45 20.4968 3 20.4968Z" />
</svg>
