<svg class="fill-current stroke-current w-full h-full" style="color: inherit" stroke-width="0.2" width="24" height="24" viewBox="0 0 24 24" stroke="none" xmlns="http://www.w3.org/2000/svg">
<path d="M8.22274 21.5937L6.64037 18.8918L3.47564 18.2546C3.28848 18.2206 3.13109 18.1187 3.00348 17.9487C2.87587 17.7788 2.82908 17.6004 2.86311 17.4135L3.22042 14.3548L1.20418 12.0098C1.06806 11.8738 1 11.7039 1 11.5C1 11.2961 1.06806 11.1262 1.20418 10.9902L3.22042 8.67071L2.86311 5.61202C2.82908 5.4251 2.87587 5.24668 3.00348 5.07675C3.13109 4.90683 3.28848 4.80487 3.47564 4.77088L6.64037 4.13366L8.22274 1.40633C8.32483 1.2364 8.46945 1.11745 8.65661 1.04948C8.84377 0.981508 9.03094 0.990004 9.2181 1.07497L12 2.37491L14.7819 1.07497C14.9691 0.990004 15.1562 0.97726 15.3434 1.03673C15.5305 1.09621 15.6752 1.21091 15.7773 1.38084L17.3852 4.13366L20.5244 4.77088C20.7115 4.80487 20.8689 4.90683 20.9965 5.07675C21.1241 5.24668 21.1709 5.4251 21.1369 5.61202L20.7796 8.67071L22.7958 10.9902C22.9319 11.1262 23 11.2961 23 11.5C23 11.7039 22.9319 11.8738 22.7958 12.0098L20.7796 14.3548L21.1369 17.4135C21.1709 17.6004 21.1241 17.7788 20.9965 17.9487C20.8689 18.1187 20.7115 18.2206 20.5244 18.2546L17.3852 18.8918L15.7773 21.6192C15.6752 21.7891 15.5305 21.9038 15.3434 21.9633C15.1562 22.0227 14.9691 22.01 14.7819 21.925L12 20.6251L9.2181 21.925C9.03094 22.01 8.84377 22.0185 8.65661 21.9505C8.46945 21.8826 8.32483 21.7636 8.22274 21.5937ZM10.9026 12.698L9.03944 10.7608C8.88631 10.5909 8.69915 10.5059 8.47796 10.5059C8.25677 10.5059 8.0611 10.5824 7.89095 10.7353C7.7208 10.9053 7.63573 11.1007 7.63573 11.3216C7.63573 11.5425 7.7208 11.7379 7.89095 11.9078L10.3666 14.3548C10.5197 14.5077 10.6984 14.5842 10.9026 14.5842C11.1067 14.5842 11.2854 14.5077 11.4385 14.3548L16.109 9.71576C16.2622 9.56283 16.3387 9.37591 16.3387 9.155C16.3387 8.9341 16.2537 8.74718 16.0835 8.59425C15.9304 8.4583 15.7475 8.39458 15.5348 8.40308C15.3221 8.41157 15.1477 8.48379 15.0116 8.61973L10.9026 12.698Z"/>
</svg>
