<svg class="fill-current stroke-current w-full h-full" style="color: inherit" stroke-width="0.2" width="24" height="24" viewBox="0 0 24 24" stroke="none" xmlns="http://www.w3.org/2000/svg">
<path d="M12 22.8188L11.74 22.7488C6.76 21.3888 3 16.2588 3 10.8188V6.10877C3 5.31877 3.47 4.59877 4.19 4.27877L11.19 1.16877C11.72 0.938771 12.31 0.948771 12.81 1.16877L19.81 4.27877C20.53 4.59877 21 5.31877 21 6.10877V10.8088C21 16.2588 17.24 21.3788 12.26 22.7388L12 22.8088V22.8188ZM12 3.00877L5 6.11877V10.8188C5 15.2988 7.99 19.5088 12 20.7488C16.01 19.5088 19 15.2988 19 10.8188V6.10877L12 2.99877V3.00877ZM12 3.00877H11.98H12ZM17.71 9.71877C18.1 9.32877 18.1 8.69877 17.71 8.30877C17.32 7.91877 16.69 7.91877 16.3 8.30877L10.51 14.0988L8.72 12.3088C8.33 11.9188 7.7 11.9188 7.31 12.3088C6.92 12.6988 6.92 13.3288 7.31 13.7188L10.52 16.9288L17.73 9.71877H17.71Z" />
</svg>
