<svg class="fill-current stroke-current w-full h-full" style="color: inherit" stroke-width="0.2" width="24" height="24" viewBox="0 0 24 24" stroke="none" xmlns="http://www.w3.org/2000/svg">
<path fill-rule="evenodd" clip-rule="evenodd" d="M17.5825 11.2325V7.7325C17.5825 7.1825 17.1325 6.7325 16.5825 6.7325H10.9725L19.8825 15.6425C20.5025 16.2725 21.5825 15.8225 21.5825 14.9325V9.6425C21.5825 8.7525 20.5025 8.3025 19.8725 8.9325L17.5825 11.2325ZM19.5825 12.0625V12.5225L19.3525 12.2925L19.5825 12.0625ZM4.7025 3.2925C4.3125 2.9025 3.6825 2.9025 3.2925 3.2925C2.9025 3.6825 2.9025 4.3125 3.2925 4.7025L5.3125 6.7325H4.5825C4.0325 6.7325 3.5825 7.1825 3.5825 7.7325V17.7325C3.5825 18.2825 4.0325 18.7325 4.5825 18.7325H16.5825C16.7925 18.7325 16.9725 18.6525 17.1325 18.5525L19.6125 21.0325C20.0025 21.4225 20.6325 21.4225 21.0225 21.0325C21.4125 20.6425 21.4125 20.0125 21.0225 19.6225L4.7025 3.2925ZM15.3125 16.7325L7.3125 8.7325H5.5825V16.7325H15.3125Z" />
</svg>
