<svg class="fill-current stroke-current w-full h-full" style="color: inherit" stroke-width="0.2" width="24" height="24" viewBox="0 0 24 24" stroke="none" xmlns="http://www.w3.org/2000/svg">
<path fill-rule="evenodd" clip-rule="evenodd" d="M19.29 8.2L17 10.5V7C17 6.45 16.55 6 16 6H4C3.45 6 3 6.45 3 7V17C3 17.55 3.45 18 4 18H16C16.55 18 17 17.55 17 17V13.5L19.29 15.79C19.92 16.42 21 15.97 21 15.08V8.91C21 8.02 19.92 7.57 19.29 8.2ZM15 16H5V8H15V16ZM19 12.67L18.33 12L19 11.33V12.68V12.67Z" />
</svg>
