<svg class="fill-current stroke-current w-full h-full" style="color: inherit" stroke-width="0.2" width="24" height="24" viewBox="0 0 24 24" stroke="none" xmlns="http://www.w3.org/2000/svg">
<path d="M21 6H3C1.9 6 1 6.9 1 8V16C1 17.1 1.9 18 3 18H21C22.1 18 23 17.1 23 16V8C23 6.9 22.1 6 21 6ZM21 16H3V8H21V16ZM6 15H8V13H10V11H8V9H6V11H4V13H6V15ZM14.5 15C15.33 15 16 14.33 16 13.5C16 12.67 15.33 12 14.5 12C13.67 12 13 12.67 13 13.5C13 14.33 13.67 15 14.5 15ZM18.5 12C19.33 12 20 11.33 20 10.5C20 9.67 19.33 9 18.5 9C17.67 9 17 9.67 17 10.5C17 11.33 17.67 12 18.5 12Z" />
</svg>
