<svg class="fill-current stroke-current w-full h-full" style="color: inherit" stroke-width="0.2" width="24" height="24" viewBox="0 0 24 24" stroke="none" xmlns="http://www.w3.org/2000/svg">
<path d="M22.9191 12.0774C22.7724 11.7726 19.33 4.68778 12.2495 4.68778C11.5453 4.70682 10.7923 4.76396 10.0882 4.9068C9.73611 4.98298 9.4525 5.24009 9.34493 5.58291C9.23735 5.92572 9.34493 6.28759 9.60898 6.53517L19.3886 15.5531C19.5647 15.7246 19.8189 15.8007 20.0732 15.8007C20.083 15.8007 20.0928 15.8007 20.1123 15.8007C20.3764 15.8007 20.6307 15.6674 20.8067 15.4865C21.5793 14.6771 22.2443 13.9819 22.8604 12.9725C23.0267 12.7059 23.0462 12.3726 22.9093 12.0869L22.9191 12.0774ZM20.0243 13.5058L12.5331 6.60183C17.2567 6.77324 20.0928 11.0299 20.8947 12.4392C20.6307 12.8201 20.347 13.1534 20.0145 13.5058H20.0243ZM3.65316 2.27854C3.27176 1.90715 2.65564 1.90715 2.27423 2.27854C1.89283 2.64992 1.89283 3.24985 2.27423 3.62124L5.65799 6.91608C3.79986 8.24926 2.27423 9.85859 1.13979 11.7155C0.963758 12.0012 0.953978 12.344 1.11045 12.6392C1.25715 12.9154 4.72893 19.3146 11.8094 19.3146H11.829C13.6773 19.286 15.7506 19.2575 17.462 18.429L20.8458 21.7238C21.0414 21.9143 21.2859 22 21.5402 22C21.7944 22 22.0389 21.9048 22.2345 21.7238C22.6159 21.3525 22.6159 20.7525 22.2345 20.3811L3.65316 2.27854ZM9.60898 11.2584L13.2861 14.5914C13.0025 14.6485 12.67 14.6771 12.2495 14.6771C10.7336 14.6771 9.49162 13.4772 9.49162 11.9917C9.49162 11.7441 9.54052 11.4965 9.60898 11.2584ZM12.0441 17.4005H11.7801C6.92935 17.4005 3.99545 13.5534 3.12506 12.2107C4.05413 10.8204 5.22769 9.59195 6.62618 8.55398L8.08335 9.87763C7.73128 10.5252 7.53569 11.2489 7.53569 11.9917C7.53569 14.5247 9.6481 16.5816 12.2495 16.5816C13.071 16.5816 14.0392 16.5054 14.89 16.0483L15.9169 16.9815C14.6846 17.3625 13.1688 17.3815 11.7996 17.4005H12.0441Z" />
</svg>
