<svg class="fill-current stroke-current w-full h-full" style="color: inherit" stroke-width="0.2" width="24" height="24" viewBox="0 0 24 24" stroke="none" xmlns="http://www.w3.org/2000/svg">
<path d="M13.5442 5.976C13.4553 5.84886 13.4129 5.70477 13.4129 5.54796C13.4129 5.23858 13.5442 4.98429 13.7899 4.81477C14.0356 4.64101 14.3109 4.59863 14.5821 4.69187C16.1325 5.24282 17.3948 6.20062 18.3437 7.53562C19.2926 8.87061 19.7713 10.3921 19.7713 12.0534C19.7713 12.7908 19.6696 13.524 19.4663 14.2318C19.2629 14.9395 18.9537 15.6219 18.5513 16.2576L18.4115 16.4822L17.2 15.2701L17.2847 15.1303C17.5558 14.6683 17.7591 14.1767 17.8862 13.6596C18.0175 13.1426 18.0811 12.6001 18.0811 12.0577C18.0811 10.7099 17.6998 9.4809 16.9458 8.40866C16.196 7.34067 15.1836 6.61172 13.9382 6.24724C13.7772 6.20486 13.6501 6.11586 13.5569 5.98448L13.5442 5.976ZM15.73 13.3757C15.802 13.168 15.8613 12.9519 15.8995 12.7357C15.9376 12.5196 15.9545 12.295 15.9545 12.0746C15.9545 11.3033 15.7554 10.5828 15.3615 9.93013C14.9675 9.27323 14.4126 8.77738 13.7137 8.44681L13.4129 8.30695V11.4813L15.6199 13.6893L15.73 13.3715V13.3757ZM12.1421 6.81938C12.1421 6.45067 11.9599 6.17943 11.6168 6.03958C11.2737 5.89972 10.956 5.96329 10.6976 6.22181L9.42674 7.49324L12.1421 10.2098V6.81938ZM20 20.1397C20 20.3728 19.9153 20.5762 19.7458 20.7457C19.5806 20.9152 19.3731 21 19.1316 21C18.8901 21 18.6826 20.9152 18.5131 20.7457L16.3061 18.5377C16.0647 18.6987 15.8105 18.8513 15.5521 18.9911C15.2429 19.1564 14.9167 19.3005 14.5778 19.4192C14.2813 19.5124 14.0017 19.4616 13.7645 19.2793C13.5315 19.1013 13.4087 18.8428 13.4087 18.5377C13.4087 18.3809 13.4553 18.2368 13.54 18.1096C13.6332 17.974 13.7645 17.885 13.9255 17.8469C14.1542 17.7706 14.3999 17.6731 14.6414 17.5629C14.7981 17.4909 14.9464 17.4103 15.0861 17.3213L12.1336 14.3505V17.3341C12.1336 17.707 11.9514 17.974 11.6083 18.1139C11.2652 18.2537 10.9475 18.1902 10.6891 17.9316L7.59675 14.8378H4.94073C4.69927 14.8378 4.49594 14.7573 4.33497 14.5963C4.174 14.4352 4.09351 14.2318 4.09351 13.9902V10.1675C4.09351 9.9259 4.174 9.72247 4.33497 9.56142C4.49594 9.40037 4.69927 9.31985 4.94073 9.31985H7.0969L3.24206 5.4632C3.07262 5.29367 2.99213 5.08601 3.00061 4.84868C3.00908 4.61982 3.09804 4.41639 3.26324 4.25111C3.59789 3.9163 4.11893 3.9163 4.45358 4.25111L19.7458 19.5294C19.9153 19.6989 20 19.9023 20 20.1354V20.1397ZM8.79133 11.0151H5.78795V13.1341H8.33383L10.4476 15.2489V12.6679L8.79133 11.0108V11.0151Z" />
</svg>
