<svg class="fill-current stroke-current w-full h-full" style="color: inherit" stroke-width="0.2" width="24" height="24" viewBox="0 0 24 24" stroke="none" xmlns="http://www.w3.org/2000/svg">
<path fill-rule="evenodd" clip-rule="evenodd" d="M18.5185 13.547C18.0948 14.3855 17.4207 15.0662 16.5926 15.4805V7.52937C17.4207 7.95357 18.0948 8.63424 18.5185 9.47276C18.8267 10.0844 19 10.7749 19 11.5049C19 12.2349 18.8267 12.9353 18.5185 13.5371V13.547ZM9.85185 8.54546L13.02 5.29004C13.6267 4.66855 14.6667 5.11247 14.6667 5.99045V17.0096C14.6667 17.8875 13.6267 18.3315 13.02 17.71L9.85185 14.4644H6.96296C6.43333 14.4644 6 14.0205 6 13.4779V9.53195C6 8.98938 6.43333 8.54546 6.96296 8.54546H9.85185ZM12.7407 8.36789L10.6511 10.5184H7.92593V12.4914H10.6511L12.7407 14.6321V8.37776V8.36789Z" />
</svg>
