<svg class="fill-current stroke-current w-full h-full" style="color: inherit" stroke-width="0.2" width="24" height="24" viewBox="0 0 24 24" stroke="none" xmlns="http://www.w3.org/2000/svg">
<path d="M17 12.7317C20.09 9.99024 23 7.42439 23 5.21951C23 3.41463 21.55 2 19.7 2C18.66 2 17.65 2.47805 17 3.21951C16.34 2.47805 15.34 2 14.3 2C12.45 2 11 3.41463 11 5.21951C11 7.42439 13.91 9.99024 17 12.7317ZM14.3 3.95122C14.74 3.95122 15.19 4.1561 15.48 4.48781L17 6.23415L18.52 4.48781C18.81 4.1561 19.26 3.95122 19.7 3.95122C20.44 3.95122 21 4.49756 21 5.21951C21 6.3122 18.96 8.3122 17 10.0878C15.04 8.3122 13 6.30244 13 5.21951C13 4.49756 13.56 3.95122 14.3 3.95122ZM20 15.6585H18C18 14.4878 17.25 13.4341 16.13 13.0244L9.97 10.7805H2V21.5122H8V20.1073L15 22L23 19.561V18.5854C23 16.9659 21.66 15.6585 20 15.6585ZM4 19.561V12.7317H6V19.561H4ZM14.97 19.961L8 18.078V12.7317H9.61L15.43 14.8488C15.77 14.9756 16 15.2976 16 15.6585C16 15.6585 14.01 15.6098 13.7 15.5122L11.32 14.7415L10.69 16.5951L13.07 17.3659C13.58 17.5317 14.11 17.6195 14.65 17.6195H20C20.39 17.6195 20.74 17.8439 20.9 18.1659L14.97 19.961Z" />
</svg>
