<svg class="fill-current stroke-current w-full h-full" style="color: inherit" stroke-width="0.2" width="24" height="24" viewBox="0 0 24 24" stroke="none" xmlns="http://www.w3.org/2000/svg">
<path d="M12 19C5.13516 19 1.29161 12.7241 1.12907 12.4509C0.956975 12.1685 0.956975 11.8315 1.12907 11.5491C1.29161 11.285 5.13516 5 12 5C18.8648 5 22.7084 11.2759 22.8709 11.5491C23.043 11.8315 23.043 12.1685 22.8709 12.4509C22.7084 12.715 18.8648 19 12 19ZM3.09865 12.0046C4.06432 13.3435 7.23859 17.1783 12 17.1783C16.7614 17.1783 19.9357 13.3435 20.9013 12.0046C19.9357 10.6656 16.7614 6.83084 12 6.83084C7.23859 6.83084 4.05476 10.6656 3.09865 12.0046ZM12 16.3949C9.45676 16.3949 7.39157 14.4275 7.39157 12.0046C7.39157 9.58165 9.45676 7.61418 12 7.61418C14.5432 7.61418 16.6084 9.58165 16.6084 12.0046C16.6084 14.4275 14.5432 16.3949 12 16.3949ZM12 9.43591C10.518 9.43591 9.30378 10.5836 9.30378 12.0046C9.30378 13.4255 10.5085 14.5732 12 14.5732C13.4915 14.5732 14.6962 13.4255 14.6962 12.0046C14.6962 10.5836 13.4915 9.43591 12 9.43591Z" />
</svg>
