<svg class="fill-current stroke-current w-full h-full" style="color: inherit" stroke-width="0.2" width="24" height="24" viewBox="0 0 24 24" stroke="none" xmlns="http://www.w3.org/2000/svg">
<path d="M3.02554 21.0025H21.9745C22.7619 21.0025 23.2527 20.1725 22.8641 19.5025L13.3846 3.5025C12.9857 2.8325 12.004 2.8325 11.6154 3.5025L2.13588 19.5025C1.74728 20.1725 2.23814 21.0025 3.02554 21.0025ZM13.5277 18.0025H11.4825V16.0025H13.5277V18.0025ZM12.5051 14.0025C11.9427 14.0025 11.4825 13.5525 11.4825 13.0025V11.0025C11.4825 10.4525 11.9427 10.0025 12.5051 10.0025C13.0675 10.0025 13.5277 10.4525 13.5277 11.0025V13.0025C13.5277 13.5525 13.0675 14.0025 12.5051 14.0025Z" />
</svg>
