<svg class="fill-current stroke-current w-full h-full" style="color: inherit" stroke-width="0.2" width="24" height="24" viewBox="0 0 24 24" stroke="none" xmlns="http://www.w3.org/2000/svg">
<path fill-rule="evenodd" clip-rule="evenodd" d="M16.96 5.73C18.76 7.15 19.93 9.34 20 11.79C20 11.86 20 11.93 20 12C20 12.07 20 12.15 20 12.22C19.93 14.67 18.76 16.85 16.96 18.27L16.28 22.33C16.12 23.29 15.29 24 14.31 24H9.7C8.72 24 7.88 23.29 7.72 22.33L7.05 18.27C6.05 17.49 5.24 16.47 4.71 15.3C4.25 14.3 4 13.18 4 12C4 10.82 4.25 9.7 4.71 8.7C5.24 7.53 6.05 6.52 7.05 5.73L7.72 1.67C7.88 0.71 8.72 0 9.7 0H14.31C15.28 0 16.12 0.71 16.28 1.67L16.96 5.73ZM9.69 2L9.28 4.47C10.13 4.16 11.04 4 12 4C12.96 4 13.87 4.17 14.72 4.48L14.31 2.01H9.7L9.69 2ZM9.28 19.52L9.69 21.99H14.3L14.71 19.51C13.86 19.82 12.94 19.99 11.99 19.99C11.04 19.99 10.12 19.82 9.27 19.52H9.28ZM15.54 16.83C15.6 16.79 15.66 16.74 15.72 16.69C17.02 15.66 17.88 14.1 17.99 12.34C17.99 12.22 18 12.1 18 11.99C18 11.88 18 11.75 17.99 11.63C17.89 9.87 17.02 8.32 15.72 7.29C15.66 7.24 15.6 7.2 15.54 7.15C14.55 6.42 13.32 5.99 12 5.99C10.68 5.99 9.55 6.39 8.58 7.06C8.48 7.13 8.38 7.21 8.28 7.28C7.61 7.81 7.06 8.48 6.66 9.25C6.24 10.07 6 11 6 11.99C6 12.98 6.24 13.91 6.66 14.73C7.05 15.5 7.61 16.17 8.28 16.7C8.38 16.78 8.48 16.85 8.58 16.92C9.55 17.6 10.73 17.99 12 17.99C13.27 17.99 14.55 17.56 15.54 16.83Z" />
</svg>
