<svg class="fill-current stroke-current w-full h-full" style="color: inherit" stroke-width="0.2" width="24" height="24" viewBox="0 0 24 24" stroke="none" xmlns="http://www.w3.org/2000/svg">
<path d="M12.7487 6.43937C13.9088 6.43937 14.9739 6.82088 15.8492 7.48582C15.9125 7.52942 15.9757 7.58392 16.039 7.63842C16.503 8.01994 16.9038 8.48867 17.2201 9.01189C17.7263 9.85123 18.0216 10.8323 18.0216 11.9005C18.0216 12.5873 17.8951 13.2304 17.6631 13.8408C17.6631 13.8517 17.6631 13.8626 17.6525 13.8844L19.2344 15.5195C19.382 15.247 19.5086 14.9636 19.6246 14.6693C19.6246 14.6584 19.6351 14.6366 19.6457 14.6257C19.8144 14.1787 19.9409 13.7209 20.0253 13.2413C20.0991 12.8053 20.1413 12.3584 20.1413 11.9005C20.1413 9.48061 19.0551 7.33321 17.3572 5.93794L16.3765 2.55878C16.1023 1.63223 15.2903 1 14.3517 1H11.1669C10.2283 1 9.41629 1.63223 9.1421 2.54788L8.58318 4.49907L10.84 6.83179C11.4411 6.59197 12.0844 6.45027 12.7593 6.45027L12.7487 6.43937ZM11.1458 3.18011H14.3306C14.3306 3.18011 14.3306 3.18011 14.3306 3.19101L14.7208 4.55357C14.0881 4.36826 13.4131 4.27016 12.7277 4.27016C12.2847 4.27016 11.8524 4.31376 11.4305 4.39007L10.9243 3.86684L11.1247 3.18011H11.1458ZM21.6915 21.1442L3.79541 2.63508C3.38413 2.20996 2.71975 2.20996 2.30846 2.63508C1.89718 3.0602 1.89718 3.74693 2.30846 4.17206L6.26312 8.25976C6.13657 8.51047 6.02056 8.76118 5.91511 9.02279C5.5671 9.91664 5.36673 10.8759 5.36673 11.8896C5.36673 14.3096 6.45294 16.457 8.1508 17.8522L9.13156 21.2314C9.40575 22.1579 10.2178 22.7902 11.1563 22.7902H14.3412C15.1321 22.7902 15.8387 22.3323 16.2078 21.6347C16.271 21.5039 16.3238 21.3731 16.3659 21.2314L16.9249 19.2911L20.2046 22.6812C20.6159 23.1063 21.2803 23.1063 21.6915 22.6812C22.1028 22.256 22.1028 21.5693 21.6915 21.1442ZM9.6483 16.2934C9.58503 16.2498 9.52175 16.1953 9.45848 16.1408C8.99446 15.7593 8.59373 15.2906 8.27735 14.7674C7.89771 14.1351 7.63406 13.4266 7.52861 12.6527C7.49697 12.402 7.47588 12.1403 7.47588 11.8787C7.47588 11.1811 7.61297 10.5162 7.84498 9.89483L14.6681 16.9475C14.067 17.1873 13.4237 17.329 12.7487 17.329C12.4957 17.329 12.2426 17.3072 12 17.2745C11.1247 17.1437 10.3232 16.7949 9.6483 16.2825V16.2934ZM14.3517 20.5883H11.1669C11.1669 20.5883 11.1669 20.5883 11.1669 20.5774L10.7767 19.2257C11.4094 19.411 12.0844 19.5091 12.7698 19.5091C13.4553 19.5091 14.1408 19.4001 14.763 19.2148L14.3728 20.5774L14.3517 20.5883Z" />
</svg>
