<svg class="fill-current stroke-current w-full h-full" style="color: inherit" stroke-width="0.2" width="24" height="24" viewBox="0 0 24 24" stroke="none" xmlns="http://www.w3.org/2000/svg">
<path d="M17 16.5857C15.65 16.5857 14.8 17.0138 14.05 17.4011C13.4 17.7374 12.87 18.0126 12 18.0126C11.1 18.0126 10.6 17.7578 9.95 17.4011C9.2 17.0138 8.38 16.5857 7 16.5857C5.62 16.5857 4.8 17.0138 4.05 17.4011C3.62 17.6253 3.24 17.8189 2.78 17.9311C2.33 18.033 2 18.3999 2 18.8585V18.9604C2 19.5719 2.56 20.0102 3.14 19.8879C3.88 19.735 4.44 19.4496 4.95 19.1847C5.6 18.8483 6.12 18.5731 7 18.5731C7.88 18.5731 8.4 18.8279 9.05 19.1847C9.8 19.5719 10.62 20 12 20C13.38 20 14.2 19.5719 14.95 19.1847C15.6 18.8483 16.13 18.5731 17 18.5731C17.9 18.5731 18.4 18.8279 19.05 19.1847C19.57 19.4496 20.13 19.7452 20.88 19.8981C21.46 20.0102 22 19.5618 22 18.9706V18.8789C22 18.4101 21.66 18.0432 21.21 17.9412C20.75 17.8393 20.38 17.6457 19.95 17.4113C19.2 17.0138 18.35 16.5857 17 16.5857ZM17 12.0504C15.65 12.0504 14.8 12.4886 14.05 12.8657C13.4 13.1918 12.87 13.4772 12 13.4772C11.1 13.4772 10.6 13.2224 9.95 12.8657C9.2 12.4784 8.38 12.0504 7 12.0504C5.62 12.0504 4.8 12.4886 4.05 12.8657C3.62 13.0797 3.24 13.2836 2.77 13.3957C2.33 13.4976 2 13.8645 2 14.3231V14.4251C2 15.0264 2.54 15.4748 3.12 15.3525C3.87 15.1996 4.43 14.9041 4.95 14.6493C5.6 14.2926 6.1 14.0378 7 14.0378C7.9 14.0378 8.4 14.2926 9.05 14.6493C9.8 15.0366 10.62 15.4646 12 15.4646C13.38 15.4646 14.2 15.0264 14.95 14.6493C15.6 14.2926 16.1 14.0378 17 14.0378C17.9 14.0378 18.4 14.2926 19.05 14.6493C19.57 14.9143 20.13 15.2098 20.88 15.3627C21.46 15.4748 22 15.0264 22 14.4251V14.3333C22 13.8645 21.66 13.4976 21.21 13.3957C20.75 13.2938 20.38 13.1001 19.95 12.8657C19.2 12.4784 18.35 12.0504 17 12.0504ZM19.95 3.81535C19.2 3.42806 18.37 3 17 3C15.63 3 14.8 3.42806 14.05 3.81535C13.4 4.14149 12.87 4.42686 12 4.42686C11.1 4.42686 10.6 4.17206 9.95 3.81535C9.2 3.43825 8.38 3 7 3C5.62 3 4.8 3.42806 4.05 3.81535C3.62 4.03957 3.24 4.23321 2.78 4.34532C2.33 4.44724 2 4.81415 2 5.27278V5.34412C2 5.95564 2.54 6.40408 3.12 6.28177C3.87 6.1289 4.43 5.83333 4.95 5.57854C5.6 5.24221 6.12 4.96703 7 4.96703C7.88 4.96703 8.4 5.22182 9.05 5.57854C9.8 5.96583 10.62 6.39388 12 6.39388C13.38 6.39388 14.2 5.95564 14.95 5.57854C15.6 5.2524 16.13 4.96703 17 4.96703C17.9 4.96703 18.4 5.22182 19.05 5.57854C19.57 5.84352 20.13 6.13909 20.88 6.29197C21.46 6.40408 22 5.95564 22 5.35432V5.26259C22 4.79376 21.66 4.42686 21.21 4.32494C20.75 4.22302 20.38 4.03957 19.95 3.81535ZM17 7.51499C15.65 7.51499 14.8 7.95324 14.05 8.33034C13.4 8.68705 12.9 8.94185 12 8.94185C11.1 8.94185 10.6 8.68705 9.95 8.33034C9.2 7.94305 8.38 7.51499 7 7.51499C5.62 7.51499 4.8 7.95324 4.05 8.33034C3.62 8.56475 3.25 8.75839 2.79 8.86031C2.34 8.96223 2 9.32914 2 9.79796V9.88969C2 10.491 2.54 10.9394 3.12 10.8171C3.87 10.6643 4.43 10.3687 4.95 10.1139C5.6 9.78777 6.13 9.5024 7 9.5024C7.87 9.5024 8.4 9.75719 9.05 10.1139C9.8 10.5012 10.62 10.9293 12 10.9293C13.38 10.9293 14.2 10.491 14.95 10.1139C15.6 9.78777 16.13 9.5024 17 9.5024C17.9 9.5024 18.4 9.75719 19.05 10.1139C19.57 10.3789 20.13 10.6745 20.88 10.8273C21.46 10.9394 22 10.491 22 9.89988V9.80815C22 9.33933 21.66 8.97242 21.21 8.8705C20.75 8.76859 20.38 8.57494 19.95 8.34053C19.2 7.94305 18.35 7.51499 17 7.51499Z" />
</svg>
