<svg class="fill-current stroke-current w-full h-full" style="color: inherit" stroke-width="0.2" width="24" height="24" viewBox="0 0 24 24" stroke="none" xmlns="http://www.w3.org/2000/svg">
<path d="M6.0523 4.60639L5.66212 4.21461C5.27194 3.82283 4.64166 3.83288 4.26148 4.21461H4.25148C3.8613 4.61644 3.8613 5.24931 4.25148 5.63105L4.64166 6.02283C5.03183 6.41461 5.65211 6.41461 6.04229 6.02283H6.0523C6.44247 5.63105 6.44247 4.98813 6.0523 4.60639V4.60639ZM3.01091 10.9954H1.99045C1.4402 10.9954 1 11.4374 1 11.99C1 12.5525 1.4402 12.9945 1.99045 12.9945H3.00091C3.56116 13.0046 4.00136 12.5626 4.00136 12.01C4.00136 11.4374 3.56116 10.9954 3.01091 10.9954ZM12.015 1H12.005C11.4447 1 11.0045 1.44201 11.0045 1.99452V2.9589C11.0045 3.51142 11.4447 3.95342 11.995 3.95342H12.005C12.5653 3.95342 13.0055 3.52146 13.0055 2.96895V1.99452C13.0055 1.44201 12.5653 1 12.015 1V1ZM19.7585 4.22466C19.3683 3.83288 18.7381 3.83288 18.3479 4.22466L17.9577 4.61644C17.5675 5.00822 17.5675 5.6411 17.9577 6.02283C18.3479 6.42466 18.9782 6.42466 19.3583 6.03288L19.7485 5.6411C20.1387 5.24931 20.1387 4.62648 19.7485 4.2347L19.7585 4.22466ZM17.9477 19.3936L18.3379 19.7854C18.7281 20.1772 19.3583 20.1772 19.7485 19.7854C20.1387 19.3936 20.1387 18.7607 19.7485 18.369L19.3583 17.9772C18.9682 17.5854 18.3379 17.5954 17.9577 17.9772C17.5575 18.379 17.5575 19.0018 17.9477 19.3936ZM20.0086 11.99C20.0086 12.5525 20.4488 12.9945 20.9991 12.9945H22.0096C22.5598 12.9945 23 12.5525 23 12C23 11.4374 22.5598 10.9954 22.0096 10.9954H20.9991C20.4488 10.9954 20.0086 11.4374 20.0086 11.99ZM11.995 23H12.005C12.5553 23 12.9955 22.558 12.9955 22.0055V21.0411C12.9955 20.4886 12.5553 20.0466 12.005 20.0466H11.995C11.4447 20.0466 11.0045 20.4886 11.0045 21.0411V22.0055C11.0045 22.558 11.4447 23 11.995 23ZM4.25148 19.7753C4.64166 20.1671 5.27194 20.1671 5.66212 19.7753L6.0523 19.3836C6.44247 18.9918 6.43247 18.3589 6.0523 17.9772H6.04229C5.65211 17.5753 5.02183 17.5753 4.63165 17.9671L4.24147 18.3589C3.8613 18.7607 3.8613 19.3836 4.25148 19.7753ZM11.985 18.0274C8.67349 18.0274 5.98226 15.3251 5.98226 12C5.98226 8.67489 8.67349 5.9726 11.985 5.9726C15.2965 5.9726 17.9877 8.67489 17.9877 12C17.9877 15.3251 15.2965 18.0274 11.985 18.0274ZM11.985 7.98173C9.77399 7.98173 7.98317 9.77991 7.98317 12C7.98317 14.2201 9.77399 16.0183 11.985 16.0183C14.196 16.0183 15.9868 14.2201 15.9868 12C15.9868 9.77991 14.196 7.98173 11.985 7.98173Z" />
</svg>
