<svg class="fill-current stroke-current w-full h-full" style="color: inherit" stroke-width="0.2" width="24" height="24" viewBox="0 0 24 24" stroke="none" xmlns="http://www.w3.org/2000/svg">
<path d="M9.54134 19.0013C8.14134 19.0013 6.78134 18.6413 5.59134 17.9613C4.39134 17.2713 3.42134 16.2913 2.79134 15.1113C2.15134 13.9313 1.89134 12.6013 2.04134 11.2813C2.19134 9.96131 2.73134 8.72131 3.61134 7.68131C4.47134 6.65131 5.63134 5.87131 6.95134 5.43131C8.26134 4.98131 9.68134 4.88131 11.0513 5.14131C12.4313 5.40131 13.6913 6.01131 14.7113 6.90131C15.5413 7.63131 16.1813 8.51131 16.5913 9.50131H16.9113C18.2513 9.50131 19.5213 9.98131 20.4813 10.8613C21.4513 11.7513 22.0013 12.9813 22.0013 14.2513C22.0013 15.5213 21.4513 16.7513 20.4813 17.6413C19.5213 18.5213 18.2613 19.0013 16.9113 19.0013H9.54134ZM9.54134 7.00131C8.88134 7.00131 8.22134 7.11131 7.59134 7.32131C6.61134 7.65131 5.76134 8.22131 5.13134 8.97131C4.51134 9.71131 4.13134 10.5813 4.02134 11.5013C3.92134 12.4213 4.10134 13.3413 4.54134 14.1713C4.99134 15.0113 5.69134 15.7213 6.57134 16.2213C7.46134 16.7313 8.48134 16.9913 9.53134 16.9913H16.9013C17.7313 16.9913 18.5413 16.6913 19.1213 16.1513C19.6813 15.6313 19.9913 14.9513 19.9913 14.2413C19.9913 13.5313 19.6813 12.8413 19.1213 12.3313C18.5413 11.8013 17.7313 11.4913 16.9013 11.4913H15.8713C15.4213 11.4913 15.0313 11.1913 14.9113 10.7613C14.6613 9.86131 14.1313 9.04131 13.3913 8.40131C12.6413 7.74131 11.7013 7.29131 10.6713 7.10131C10.2913 7.03131 9.91134 6.99131 9.54134 6.99131V7.00131Z" />
</svg>
