<svg class="fill-current stroke-current w-full h-full" style="color: inherit" stroke-width="0.2" width="24" height="24" viewBox="0 0 24 24" stroke="none" xmlns="http://www.w3.org/2000/svg">
<path d="M7.75924 3.45459H20.9907C22.1059 3.45459 23 4.33765 23 5.41694V17.191C23 17.5246 22.9096 17.8386 22.7689 18.1133L20.9907 16.3766V7.37928H11.7779L7.75924 3.45459ZM20.7696 21.7142L18.1475 19.1534H4.91604C3.80086 19.1534 2.90671 18.2703 2.90671 17.191V5.41694C2.90671 5.08334 2.98708 4.76936 3.13778 4.49463L2.29386 3.67045C1.90205 3.28779 1.90205 2.66965 2.29386 2.28699C2.68568 1.90434 3.31862 1.90434 3.71044 2.28699L22.1762 20.321C22.568 20.7036 22.568 21.3218 22.1762 21.7044C21.7944 22.0969 21.1615 22.0969 20.7696 21.7142ZM16.1381 17.191L6.0915 7.37928H4.91604V17.191H16.1381Z" />
</svg>
