<svg class="fill-current stroke-current w-full h-full" style="color: inherit" stroke-width="0.2" width="24" height="24" viewBox="0 0 24 24" stroke="none" xmlns="http://www.w3.org/2000/svg">
<path d="M10.0361 2.89758H4.00516C3.45232 2.89758 3 3.35014 3 3.90327V9.93741C3 10.4905 3.45232 10.9431 4.00516 10.9431H10.0361C10.5286 10.9431 10.9508 10.5811 11.0312 10.0983C11.0312 10.048 11.0413 9.98769 11.0413 9.93741V3.90327C11.0413 3.35014 10.5889 2.89758 10.0361 2.89758V2.89758ZM9.03095 8.93172H5.01032V4.90896H9.03095V8.93172ZM10.0361 12.9545H4.00516C3.45232 12.9545 3 13.407 3 13.9602V19.9943C3 20.5474 3.45232 21 4.00516 21H10.0361C10.5889 21 11.0413 20.5474 11.0413 19.9943V13.9602C11.0413 13.407 10.5889 12.9545 10.0361 12.9545ZM9.03095 18.9886H5.01032V14.9659H9.03095V18.9886ZM20.0877 12.9545H14.0567C13.9964 12.9545 13.9462 12.9545 13.8959 12.9645C13.4235 13.045 13.0516 13.4573 13.0516 13.9602V19.9943C13.0516 20.5474 13.5039 21 14.0567 21H20.0877C20.6405 21 21.0928 20.5474 21.0928 19.9943V13.9602C21.0928 13.407 20.6405 12.9545 20.0877 12.9545ZM19.0825 18.9886H15.0619V14.9659H19.0825V18.9886ZM21.706 6.55829L17.4441 2.29416C17.0521 1.90195 16.4088 1.90195 16.0168 2.29416L17.4341 3.71219L16.0168 2.28411L11.7449 6.54823C11.3529 6.94045 11.3529 7.57404 11.7449 7.96626L16.0168 12.2404C16.4088 12.6327 17.0421 12.6327 17.4341 12.2404L21.706 7.96626C22.098 7.57404 22.098 6.94045 21.706 6.54823V6.55829ZM16.7305 10.1184L13.8859 7.27233L16.7305 4.42623L19.5751 7.27233L16.7305 10.1184V10.1184Z" />
</svg>
