<svg class="fill-current stroke-current w-full h-full" style="color: inherit" stroke-width="0.2" width="24" height="24" viewBox="0 0 24 24" stroke="none" xmlns="http://www.w3.org/2000/svg">
<path d="M1.44626 9.92661C1.98759 10.4661 2.84734 10.519 3.43112 10.0324C8.38796 5.97025 15.5844 5.97025 20.5519 10.0218C21.1462 10.5084 22.0166 10.4661 22.5579 9.92661C23.1842 9.30248 23.1417 8.26578 22.4518 7.70512C16.3911 2.76496 7.62373 2.76496 1.5524 7.70512C0.862478 8.25521 0.809407 9.2919 1.44626 9.92661V9.92661ZM9.68289 18.1355L11.2432 19.6906C11.6571 20.1031 12.3258 20.1031 12.7398 19.6906L14.3001 18.1355C14.7989 17.6383 14.6928 16.7815 14.056 16.4536C12.761 15.7871 11.2113 15.7871 9.90579 16.4536C9.30078 16.7815 9.18402 17.6383 9.68289 18.1355ZM5.72379 14.1898C6.24389 14.7081 7.06118 14.761 7.66619 14.3273C10.2561 12.4972 13.7375 12.4972 16.3274 14.3273C16.9324 14.7504 17.7497 14.7081 18.2698 14.1898L18.2804 14.1792C18.9173 13.5445 18.8748 12.4655 18.1424 11.9471C14.4911 9.31306 9.51307 9.31306 5.85116 11.9471C5.11878 12.476 5.07632 13.5445 5.72379 14.1898V14.1898Z" />
</svg>
