<svg class="fill-current stroke-current w-full h-full" style="color: inherit" stroke-width="0.2" width="24" height="24" viewBox="0 0 24 24" stroke="none" xmlns="http://www.w3.org/2000/svg">
<path d="M10.6602 7.13998C8.42016 7.61998 6.62016 9.43998 6.14016 11.68C5.77016 13.43 6.16016 15.06 7.03016 16.34C7.37016 16.85 8.11016 16.89 8.54016 16.45C8.89016 16.1 8.91016 15.57 8.64016 15.17C8.14016 14.41 7.89016 13.46 8.03016 12.44C8.26016 10.7 9.70016 9.26998 11.4402 9.03998C13.9002 8.70998 16.0002 10.61 16.0002 13C16.0002 13.8 15.7602 14.54 15.3602 15.16C15.0902 15.57 15.1102 16.11 15.4602 16.45C15.8902 16.88 16.6302 16.85 16.9702 16.34C17.6202 15.4 18.0002 14.25 18.0002 13C18.0002 9.24998 14.5502 6.29998 10.6602 7.13998ZM10.2502 3.14998C6.20016 3.83998 3.06016 6.83998 2.22016 10.87C1.56016 14.04 2.42016 17.03 4.19016 19.25C4.56016 19.71 5.26016 19.74 5.68016 19.32C6.04016 18.96 6.07016 18.39 5.75016 18C4.41016 16.33 3.72016 14.1 4.09016 11.72C4.64016 8.24998 7.51016 5.47998 11.0102 5.06998C13.7702 4.73998 16.2802 5.80998 17.9402 7.65998C18.1402 7.86998 18.4102 7.99998 18.7002 7.99998C19.5502 7.99998 20.0402 6.98998 19.4702 6.34998C17.2802 3.89998 13.9102 2.52998 10.2502 3.14998ZM12.0002 11C10.9002 11 10.0002 11.9 10.0002 13C10.0002 13.55 10.2302 14.05 10.5902 14.41C10.9502 14.77 11.4502 15 12.0002 15C12.5502 15 13.0502 14.77 13.4102 14.41C13.7702 14.05 14.0002 13.55 14.0002 13C14.0002 11.9 13.1002 11 12.0002 11ZM21.0002 9.99998C21.5502 9.99998 22.0002 10.45 22.0002 11V15C22.0002 15.55 21.5502 16 21.0002 16C20.4502 16 20.0002 15.55 20.0002 15V11C20.0002 10.45 20.4502 9.99998 21.0002 9.99998ZM21.0002 18C21.5502 18 22.0002 18.45 22.0002 19C22.0002 19.55 21.5502 20 21.0002 20C20.4502 20 20.0002 19.55 20.0002 19C20.0002 18.45 20.4502 18 21.0002 18Z" />
</svg>
