<svg class="fill-current stroke-current w-full h-full" style="color: inherit" stroke-width="0.2" width="24" height="24" viewBox="0 0 24 24" stroke="none" xmlns="http://www.w3.org/2000/svg">
<path d="M20.6627 11.3071C21.2302 11.7793 22.0611 11.7382 22.578 11.2147C23.1758 10.6091 23.1353 9.60308 22.4766 9.05902C18.8386 6.04106 14.167 4.92216 9.75884 5.71257L12.3835 8.37126C15.3121 8.34046 18.261 9.31565 20.6627 11.3071ZM18.3623 13.1856C17.5719 12.6005 16.7105 12.1591 15.8086 11.8512L18.7981 14.8794C19.0413 14.284 18.8994 13.5757 18.3623 13.1856ZM14.471 17.5586C13.2347 16.9119 11.7552 16.9119 10.5087 17.5586C9.91084 17.8768 9.79937 18.7083 10.2757 19.1908L11.7653 20.6997C12.1605 21.1001 12.7989 21.1001 13.1942 20.6997L14.6838 19.1908C15.1804 18.7083 15.079 17.8768 14.471 17.5586ZM20.2776 19.2729L4.50959 3.30026C4.11437 2.89991 3.47595 2.89991 3.08074 3.30026C2.68553 3.7006 2.68553 4.34731 3.08074 4.74765L5.45202 7.15997C4.42852 7.67322 3.43542 8.2994 2.52339 9.05902C1.8647 9.60308 1.82416 10.6091 2.42205 11.2147C2.93887 11.7382 3.7597 11.7896 4.31705 11.3174C5.33042 10.4756 6.44512 9.81865 7.6105 9.33618L9.87031 11.6253C8.7252 11.9333 7.63076 12.4465 6.63766 13.1754C5.93844 13.6886 5.8979 14.7254 6.50593 15.3413L6.51606 15.3516C7.01261 15.8546 7.7929 15.9059 8.37052 15.485C9.57643 14.6228 10.985 14.1916 12.3936 14.1608L18.8488 20.6997C19.244 21.1001 19.8824 21.1001 20.2776 20.6997C20.6728 20.3199 20.6728 19.6732 20.2776 19.2729Z" />
</svg>
