<svg class="fill-current stroke-current w-full h-full" style="color: inherit" stroke-width="0.2" width="24" height="24" viewBox="0 0 24 24" stroke="none" xmlns="http://www.w3.org/2000/svg">
<path d="M2.29841 2.50515C1.9022 2.89144 1.9022 3.52535 2.2885 3.91164L4.24975 5.8728C2.96206 7.54672 2.18945 9.63665 2.18945 11.9049C2.18945 14.2424 3.00168 16.3918 4.35871 18.0855C4.7252 18.551 5.41857 18.5807 5.8445 18.1647C6.20109 17.8082 6.2308 17.2535 5.92374 16.8573C4.82425 15.5003 4.17051 13.7769 4.17051 11.9049C4.17051 10.1715 4.73511 8.58673 5.6662 7.2892L7.08266 8.70559C6.49824 9.62674 6.15156 10.7262 6.15156 11.9049C6.15156 13.143 6.52796 14.282 7.1718 15.223C7.50858 15.7182 8.24157 15.7579 8.6675 15.3319C9.01418 14.9853 9.034 14.4603 8.76655 14.0542C8.37034 13.4302 8.13262 12.6973 8.13262 11.9049C8.13262 11.2809 8.28119 10.6866 8.53873 10.1616L10.1335 11.7563C10.1335 11.8058 10.1137 11.8553 10.1137 11.9049C10.1137 12.4496 10.3415 12.9449 10.6981 13.3014C11.0547 13.658 11.5499 13.8858 12.0947 13.8858C12.1443 13.8858 12.1938 13.8759 12.2532 13.866L19.0978 20.7103C19.4841 21.0966 20.1081 21.0966 20.4944 20.7103C20.8807 20.324 20.8807 19.7 20.4944 19.3137L3.68515 2.50515C3.29884 2.11886 2.67481 2.11886 2.29841 2.50515ZM17.7407 13.7571C17.9289 13.1727 18.0379 12.5487 18.0379 11.9049C18.0379 8.62635 15.3734 5.96194 12.0947 5.96194C11.4509 5.96194 10.8269 6.06099 10.2424 6.25909L11.9362 7.95282C11.9858 7.94292 12.0452 7.94292 12.0947 7.94292C14.2838 7.94292 16.0568 9.71589 16.0568 11.9049C16.0568 11.9544 16.0568 12.0138 16.0469 12.0633L17.7407 13.7571ZM12.0947 3.98097C16.4729 3.98097 20.0189 7.52691 20.0189 11.9049C20.0189 13.1133 19.7515 14.2523 19.2562 15.2725L20.7321 16.7483C21.5345 15.322 22 13.6679 22 11.9049C22 6.43738 17.5624 2 12.0947 2C10.3316 2 8.68731 2.45562 7.25105 3.26782L8.71703 4.73374C9.74718 4.2484 10.8863 3.98097 12.0947 3.98097Z" />
</svg>
