<svg class="fill-current stroke-current w-full h-full" style="color: inherit" stroke-width="0.2" width="24" height="24" viewBox="0 0 24 24" stroke="none" xmlns="http://www.w3.org/2000/svg">
<path d="M11.9961 10.8963C10.8961 10.8963 9.99615 11.785 9.99615 12.8711C9.99615 13.9572 10.8961 14.8458 11.9961 14.8458C13.0961 14.8458 13.9961 13.9572 13.9961 12.8711C13.9961 11.785 13.0961 10.8963 11.9961 10.8963ZM17.9961 12.8711C17.9961 9.35601 14.8861 6.55186 11.2461 6.99618C8.62615 7.31214 6.46615 9.37576 6.06615 11.9528C5.73615 14.0757 6.55615 16.0109 7.99615 17.2847C8.47615 17.7092 9.22615 17.6105 9.55615 17.0576L9.56615 17.0477C9.80615 16.633 9.70615 16.1294 9.34615 15.8036C8.31615 14.8853 7.75615 13.4635 8.12615 11.9133C8.45615 10.5112 9.60615 9.37576 11.0261 9.04005C13.6461 8.418 15.9961 10.373 15.9961 12.8711C15.9961 14.0362 15.4761 15.0729 14.6661 15.7937C14.3061 16.1097 14.1961 16.6231 14.4361 17.0378L14.4461 17.0477C14.7561 17.571 15.4761 17.729 15.9461 17.3242C17.1961 16.238 17.9961 14.6484 17.9961 12.8711ZM10.8261 3.06641C6.20615 3.57985 2.47615 7.34176 2.04615 11.9133C1.69615 15.5666 3.36615 18.8447 6.06615 20.8096C6.54615 21.1552 7.22615 21.0071 7.52615 20.5035C7.77615 20.0789 7.66615 19.526 7.26615 19.2298C4.98615 17.5611 3.61615 14.7372 4.10615 11.627C4.64615 8.17116 7.56615 5.41637 11.0861 5.0313C15.9061 4.48824 19.9961 8.21065 19.9961 12.8711C19.9961 15.4876 18.7061 17.7882 16.7261 19.2298C16.3261 19.526 16.2161 20.0691 16.4661 20.5035C16.7661 21.0169 17.4461 21.1552 17.9261 20.8096C20.3961 19.0126 21.9961 16.1294 21.9961 12.8711C21.9961 7.03567 16.8661 2.38512 10.8261 3.06641Z" />
</svg>
