<svg class="fill-current stroke-current w-full h-full" style="color: inherit" stroke-width="0.2" width="24" height="24" viewBox="0 0 24 24" stroke="none" xmlns="http://www.w3.org/2000/svg">
<path d="M18.5679 10.13C16.7737 8.79 14.5654 8 12.1697 8C9.7741 8 7.56578 8.79 5.77152 10.13C5.06171 10.66 5.02227 11.73 5.64336 12.37C6.16586 12.91 6.99398 12.94 7.59536 12.49C8.88683 11.55 10.4642 11 12.1697 11C13.8753 11 15.4526 11.55 16.7441 12.49C17.3553 12.93 18.1736 12.9 18.6961 12.37C19.327 11.73 19.2876 10.66 18.5679 10.13ZM22.817 5.89C19.9186 3.46 16.2117 2 12.1697 2C8.12772 2 4.4209 3.46 1.52248 5.89C0.861958 6.44 0.822524 7.47 1.43375 8.1C1.97598 8.65 2.83367 8.68 3.42518 8.19C5.81096 6.2 8.85725 5 12.1697 5C15.4822 5 18.5285 6.2 20.9143 8.19C21.5058 8.68 22.3635 8.65 22.9057 8.1C23.5169 7.47 23.4775 6.44 22.817 5.89ZM12.1697 14C11.0853 14 10.198 14.9 10.198 16C10.198 17.1 11.0853 18 12.1697 18C13.2542 18 14.1414 17.1 14.1414 16C14.1414 14.9 13.2542 14 12.1697 14ZM23.0141 17V16C23.0141 14.9 22.1269 14 21.0424 14C19.958 14 19.0707 14.9 19.0707 16V17C18.5285 17 18.0849 17.45 18.0849 18V21C18.0849 21.55 18.5285 22 19.0707 22H23.0141C23.5564 22 24 21.55 24 21V18C24 17.45 23.5564 17 23.0141 17ZM22.0283 17H20.0566V16C20.0566 15.45 20.5002 15 21.0424 15C21.5847 15 22.0283 15.45 22.0283 16V17Z" />
</svg>
