<svg class="fill-current stroke-current w-full h-full" style="color: inherit" stroke-width="0.2" width="24" height="24" viewBox="0 0 24 24" stroke="none" xmlns="http://www.w3.org/2000/svg">
<path d="M11.007 13.8979C11.007 10.5722 13.6286 7.95917 16.9652 7.95917C19.1499 7.95917 21.0168 9.07764 22.0595 10.79L22.417 10.4238C23.271 9.57253 23.1717 8.17693 22.2184 7.44448C19.3882 5.28673 15.8431 4 12 4C8.15695 4 4.6118 5.28673 1.78165 7.44448C0.828333 8.17693 0.729029 9.57253 1.58304 10.4238L10.5998 19.421C11.3744 20.193 12.6355 20.193 13.4101 19.421L13.857 18.9756C12.139 17.9462 11.007 16.0755 11.007 13.8979ZM20.3812 15.9072C20.7288 15.3232 20.9373 14.6403 20.9373 13.8979C20.9373 11.6808 19.1896 9.93876 16.9652 9.93876C14.7408 9.93876 12.993 11.6808 12.993 13.8979C12.993 16.1151 14.7408 17.8571 16.9652 17.8571C17.71 17.8571 18.3952 17.6492 18.9811 17.3028L20.8182 19.1339C21.2055 19.52 21.8311 19.52 22.2184 19.1339C22.6056 18.7479 22.6056 18.1243 22.2184 17.7383L20.3812 15.9072ZM16.9652 15.8775C15.853 15.8775 14.9791 15.0065 14.9791 13.8979C14.9791 12.7894 15.853 11.9183 16.9652 11.9183C18.0774 11.9183 18.9513 12.7894 18.9513 13.8979C18.9513 15.0065 18.0774 15.8775 16.9652 15.8775Z" />
</svg>
