<svg class="fill-current stroke-current w-full h-full" style="color: inherit" stroke-width="0.2" width="24" height="24" viewBox="0 0 24 24" stroke="none" xmlns="http://www.w3.org/2000/svg">
<path d="M10.2642 17.3267L11.7713 18.7223C12.1712 19.0926 12.817 19.0926 13.2169 18.7223L14.724 17.3267C15.2058 16.8805 15.1033 16.1115 14.4882 15.8172C13.2374 15.2191 11.7406 15.2191 10.4795 15.8172C9.89517 16.1115 9.78239 16.8805 10.2642 17.3267ZM6.44017 13.7856C6.94253 14.2508 7.73195 14.2983 8.31633 13.909C10.8179 12.2666 14.1806 12.2666 16.6821 13.909C17.2665 14.2888 18.0559 14.2508 18.5583 13.7856L18.5685 13.7761C19.1837 13.2065 19.1427 12.2381 18.4353 11.7729C14.9085 9.40902 10.1002 9.40902 6.5632 11.7729C5.8558 12.2476 5.81479 13.2065 6.44017 13.7856Z" />
</svg>
