<svg class="fill-current stroke-current w-full h-full" style="color: inherit" stroke-width="0.2" width="24" height="24" viewBox="0 0 24 24" stroke="none" xmlns="http://www.w3.org/2000/svg">
<path d="M2.42598 10.5562C2.94269 11.062 3.76337 11.1116 4.32061 10.6554C9.05214 6.84711 15.9215 6.84711 20.6631 10.6455C21.2305 11.1017 22.0613 11.062 22.578 10.5562C23.1758 9.97107 23.1353 8.99917 22.4767 8.47355C16.6915 3.84215 8.32266 3.84215 2.52729 8.47355C1.86873 8.98926 1.81807 9.96116 2.42598 10.5562ZM10.2882 18.2521L11.7776 19.7099C12.1727 20.0967 12.811 20.0967 13.2062 19.7099L14.6955 18.2521C15.1717 17.7859 15.0704 16.9826 14.4625 16.6752C13.2264 16.0504 11.7472 16.0504 10.501 16.6752C9.92347 16.9826 9.81202 17.7859 10.2882 18.2521ZM6.50907 14.5529C7.00553 15.0388 7.78567 15.0884 8.36318 14.6818C10.8353 12.9661 14.1585 12.9661 16.6307 14.6818C17.2082 15.0785 17.9883 15.0388 18.4848 14.5529L18.4949 14.543C19.1028 13.9479 19.0623 12.9364 18.3632 12.4504C14.8779 9.98099 10.1261 9.98099 6.63065 12.4504C5.93156 12.9463 5.89103 13.9479 6.50907 14.5529Z" />
</svg>
