<svg class="fill-current stroke-current w-full h-full" style="color: inherit" stroke-width="0.2" width="24" height="24" viewBox="0 0 24 24" stroke="none" xmlns="http://www.w3.org/2000/svg">
<path d="M13.8 7.57895V5.78947H10.2V7.57895H13.8ZM4.8 10.2632V18.3158C4.8 18.8079 5.205 19.2105 5.7 19.2105H18.3C18.795 19.2105 19.2 18.8079 19.2 18.3158V10.2632C19.2 9.77105 18.795 9.36842 18.3 9.36842H5.7C5.205 9.36842 4.8 9.77105 4.8 10.2632ZM19.2 7.57895C20.199 7.57895 21 8.37526 21 9.36842V19.2105C21 20.2037 20.199 21 19.2 21H4.8C3.801 21 3 20.2037 3 19.2105V9.36842C3 8.37526 3.801 7.57895 4.8 7.57895H8.4V5.78947C8.4 4.79632 9.201 4 10.2 4H13.8C14.799 4 15.6 4.79632 15.6 5.78947V7.57895H19.2Z" />
</svg>
