<svg class="fill-current stroke-current w-full h-full" style="color: inherit" stroke-width="0.2" width="24" height="24" viewBox="0 0 24 24" stroke="none" xmlns="http://www.w3.org/2000/svg">
<path d="M5 6.96086H19C19.55 6.96086 20 6.51967 20 5.98043C20 5.44119 19.55 5 19 5H5C4.45 5 4 5.44119 4 5.98043C4 6.51967 4.45 6.96086 5 6.96086ZM16.83 10.8826H5C4.45 10.8826 4 11.3238 4 11.863C4 12.4023 4.45 12.8434 5 12.8434H17.13C18.13 12.8434 19.06 13.5003 19.22 14.471C19.43 15.6965 18.46 16.7652 17.25 16.7652H15V15.9906C15 15.5494 14.46 15.3337 14.15 15.6475L12.36 17.4025C12.16 17.5985 12.16 17.9025 12.36 18.0986L14.15 19.8535C14.47 20.1673 15 19.9418 15 19.5104V18.726H17C19.34 18.726 21.21 16.7554 20.98 14.4219C20.78 12.3826 18.92 10.8826 16.83 10.8826ZM9 16.7652H5C4.45 16.7652 4 17.2064 4 17.7456C4 18.2848 4.45 18.726 5 18.726H9C9.55 18.726 10 18.2848 10 17.7456C10 17.2064 9.55 16.7652 9 16.7652Z" />
</svg>
