<svg class="fill-current stroke-current w-full h-full" style="color: inherit" stroke-width="0.2" width="24" height="24" viewBox="0 0 24 24" stroke="none" xmlns="http://www.w3.org/2000/svg">
<path d="M16.1695 12.9895L15.8539 13.4883L16.2814 13.9158C17.4521 12.5517 18.0731 10.7194 17.8186 8.73428C17.4725 6.04679 15.4263 3.78685 12.7796 3.17606C8.4633 2.17843 4.64584 5.56833 4.64584 9.60975H2.50806C2.02961 9.60975 1.81583 10.2104 2.19249 10.5158L5.65365 13.3152C5.84707 13.5188 6.17282 13.529 6.37642 13.3152L9.32859 10.475C9.65434 10.1595 9.43039 9.59957 8.97229 9.59957H6.68182C6.68182 7.06478 8.71779 5.03898 11.222 5.01862C13.7059 4.99826 15.8437 7.1055 15.8437 9.58939C15.8437 12.0733 13.7874 14.1805 11.2628 14.1805C10.8047 14.1805 10.3568 14.1093 9.93938 13.9871C9.59326 13.8853 9.21661 13.9871 8.96211 14.2518C8.42258 14.7913 8.63635 15.7279 9.35913 15.9416C9.95974 16.1147 10.6011 16.2165 11.2628 16.2165C12.9017 16.2165 14.3982 15.6159 15.5587 14.6183L15.182 14.2416L14.897 14.7608L20.1803 20.0238C20.5977 20.4411 21.2696 20.4411 21.687 20.0238C22.1043 19.6064 22.1043 18.9243 21.687 18.507L16.1796 12.9895H16.1695Z" />
</svg>
