<svg class="fill-current stroke-current w-full h-full" style="color: inherit" stroke-width="0.2" width="24" height="24" viewBox="0 0 24 24" stroke="none" xmlns="http://www.w3.org/2000/svg">
<path d="M11.998 5C3.15458 5 3 5.79471 3 12C3 18.2053 3.15458 19 11.998 19C20.8414 19 21 18.2012 21 12C21 5.79882 20.8414 5 11.998 5ZM14.8658 12.4735L10.798 14.4582C10.7231 14.4955 10.6401 14.5128 10.5568 14.5084C10.4735 14.504 10.3927 14.478 10.3221 14.433C10.2516 14.388 10.1936 14.3254 10.1537 14.2513C10.1138 14.1771 10.0933 14.0938 10.0942 14.0094V10.1265C10.094 10.0431 10.1145 9.96111 10.154 9.88799C10.1935 9.81487 10.2506 9.75304 10.32 9.70825C10.3894 9.66346 10.4689 9.63717 10.551 9.63182C10.6332 9.62647 10.7153 9.64223 10.7898 9.67765L14.8576 11.5718C14.929 11.6037 14.9913 11.6533 15.0389 11.7158C15.0865 11.7784 15.1179 11.852 15.1302 11.93C15.1462 11.971 15.1462 12.0167 15.1302 12.0576C15.1273 12.1447 15.1013 12.2293 15.0547 12.3026C15.0082 12.3758 14.9429 12.4349 14.8658 12.4735Z" />
</svg>
