<svg class="fill-current stroke-current w-full h-full" style="color: inherit" stroke-width="0.2" width="24" height="24" viewBox="0 0 24 24" stroke="none" xmlns="http://www.w3.org/2000/svg">
<path fill-rule="evenodd" clip-rule="evenodd" d="M13.2786 2.0833C13.6888 2.2633 13.9289 2.6833 13.8789 3.1233L13.1285 9.2033H20.0025C20.3927 9.2033 20.7429 9.4233 20.903 9.7733C21.0731 10.1233 21.0131 10.5333 20.7729 10.8333L11.8777 21.6333C11.5976 21.9733 11.1173 22.0933 10.7071 21.9133C10.2968 21.7333 10.0567 21.3133 10.1067 20.8733L10.8572 14.7933H3.99315C3.60292 14.7933 3.25271 14.5733 3.09262 14.2233C2.93253 13.8733 2.98256 13.4633 3.2227 13.1633L12.1179 2.3633C12.3981 2.0233 12.8783 1.9033 13.2886 2.0833H13.2786ZM6.11438 12.8033H11.9978C12.288 12.8033 12.5581 12.9233 12.7483 13.1433C12.9384 13.3633 13.0284 13.6433 12.9884 13.9233L12.5181 17.7133L17.8813 11.2033H11.9978C11.7076 11.2033 11.4375 11.0833 11.2474 10.8633C11.0573 10.6433 10.9672 10.3633 11.0072 10.0833L11.4775 6.2933L6.11438 12.8033Z" />
</svg>
