<svg class="fill-current stroke-current w-full h-full" style="color: inherit" stroke-width="0.2" width="24" height="24" viewBox="0 0 24 24" stroke="none" xmlns="http://www.w3.org/2000/svg">
<path d="M9.6325 6.15434C9.2125 5.80422 9.1525 5.17399 9.5025 4.74384L11.6025 2.22294C11.8825 1.88282 12.3625 1.76277 12.7725 1.94284C13.1825 2.1229 13.4225 2.54305 13.3725 2.98321L12.8625 7.08467C12.8025 7.59486 12.3725 7.96499 11.8725 7.96499C11.8325 7.96499 11.7925 7.96499 11.7525 7.96499C11.2025 7.89496 10.8125 7.39478 10.8825 6.84459L10.9725 6.11433C10.6125 6.45445 10.0425 6.48446 9.6425 6.15434H9.6325ZM14.6625 10.776H17.1325L16.4025 11.6463C16.0525 12.0665 16.1025 12.7067 16.5325 13.0568C16.7225 13.2169 16.9425 13.2869 17.1725 13.2869C17.4625 13.2869 17.7425 13.1668 17.9425 12.9268L20.0425 10.4159C20.2925 10.1158 20.3425 9.70561 20.1825 9.35548C20.0125 9.00536 19.6625 8.77528 19.2725 8.77528H14.6625C14.1125 8.77528 13.6625 9.22544 13.6625 9.77563C13.6625 10.3258 14.1125 10.776 14.6625 10.776ZM21.7125 21.7099C21.5125 21.91 21.2625 22 21.0025 22C20.7425 22 20.4925 21.9 20.2925 21.7099L15.0225 16.438L11.4025 20.7796C11.2125 21.0096 10.9225 21.1397 10.6325 21.1397C10.5025 21.1397 10.3625 21.1097 10.2325 21.0597C9.8225 20.8796 9.5825 20.4595 9.6425 20.0193L10.3625 14.2272H3.7325C3.3425 14.2272 2.9925 14.0071 2.8225 13.647C2.6625 13.2969 2.7125 12.8767 2.9625 12.5866L6.6925 8.10504L1.2925 2.71311C0.9025 2.32297 0.9025 1.68274 1.2925 1.2926C1.6825 0.902465 2.3225 0.902465 2.7125 1.2926L21.7125 20.2994C22.1025 20.6895 22.1025 21.3198 21.7125 21.7099ZM10.8125 12.2365L8.1125 9.53555L5.8625 12.2365H10.8125ZM13.6025 15.0275L12.4325 13.8571L12.0525 16.8882L13.6025 15.0275Z" />
</svg>
