<svg class="fill-current stroke-current w-full h-full" style="color: inherit" stroke-width="0.2" width="24" height="24" viewBox="0 0 24 24" stroke="none" xmlns="http://www.w3.org/2000/svg">
<path d="M3.08175 8.03633C3.08175 8.58134 3.52766 9.02725 4.07267 9.02725H8.03633C8.58134 9.02725 9.02725 8.58134 9.02725 8.03633V4.07267C9.02725 3.52766 8.58134 3.08175 8.03633 3.08175C7.49133 3.08175 7.04542 3.52766 7.04542 4.07267V5.64822L4.68704 3.28984C4.30058 2.90339 3.6763 2.90339 3.28984 3.28984C2.90339 3.6763 2.90339 4.30058 3.28984 4.68704L5.64822 7.04542H4.07267C3.52766 7.04542 3.08175 7.49133 3.08175 8.03633ZM19.9273 7.04542H18.3518L20.7102 4.68704C21.0966 4.30058 21.0966 3.6763 20.7102 3.28984C20.3237 2.90339 19.6994 2.90339 19.313 3.28984L16.9546 5.64822V4.07267C16.9546 3.52766 16.5087 3.08175 15.9637 3.08175C15.4187 3.08175 14.9727 3.52766 14.9727 4.07267V8.03633C14.9727 8.58134 15.4187 9.02725 15.9637 9.02725H19.9273C20.4723 9.02725 20.9182 8.58134 20.9182 8.03633C20.9182 7.49133 20.4723 7.04542 19.9273 7.04542ZM4.07267 16.9546H5.64822L3.28984 19.313C2.90339 19.6994 2.90339 20.3237 3.28984 20.7102C3.6763 21.0966 4.30058 21.0966 4.68704 20.7102L7.04542 18.3518V19.9273C7.04542 20.4723 7.49133 20.9182 8.03633 20.9182C8.58134 20.9182 9.02725 20.4723 9.02725 19.9273V15.9637C9.02725 15.4187 8.58134 14.9727 8.03633 14.9727H4.07267C3.52766 14.9727 3.08175 15.4187 3.08175 15.9637C3.08175 16.5087 3.52766 16.9546 4.07267 16.9546ZM20.9182 15.9637C20.9182 15.4187 20.4723 14.9727 19.9273 14.9727H15.9637C15.4187 14.9727 14.9727 15.4187 14.9727 15.9637V19.9273C14.9727 20.4723 15.4187 20.9182 15.9637 20.9182C16.5087 20.9182 16.9546 20.4723 16.9546 19.9273V18.3518L19.313 20.7102C19.6994 21.0966 20.3237 21.0966 20.7102 20.7102C21.0966 20.3237 21.0966 19.6994 20.7102 19.313L18.3518 16.9546H19.9273C20.4723 16.9546 20.9182 16.5087 20.9182 15.9637Z" />
</svg>
