<svg class="fill-current stroke-current w-full h-full" style="color: inherit" stroke-width="0.2" width="24" height="24" viewBox="0 0 24 24" stroke="none" xmlns="http://www.w3.org/2000/svg">
<path d="M14.4608 12.9659H13.6735L14.3911 13.6934C15.587 12.2982 16.2049 10.3947 15.866 8.37163C15.3976 5.6011 13.0855 3.38867 10.2951 3.04983C6.07948 2.5316 2.53161 6.07947 3.04984 10.2951C3.38868 13.0855 5.60112 15.3976 8.37165 15.866C10.3947 16.2048 12.2982 15.587 13.6934 14.3911L13.2867 13.6934L12.8962 14.3911L18.208 19.6929C18.6166 20.1015 19.2744 20.1015 19.683 19.6929L19.6929 19.683C20.1015 19.2744 20.1015 18.6166 19.6929 18.208L14.4608 12.9659ZM9.47786 13.9625C6.99635 13.9625 4.9932 11.9594 4.9932 9.47785C4.9932 6.99633 6.99635 4.99318 9.47786 4.99318C11.9594 4.99318 13.9625 6.99633 13.9625 9.47785C13.9625 11.9594 11.9594 13.9625 9.47786 13.9625ZM7.48468 8.97955H11.471C11.7501 8.97955 11.9693 9.1988 11.9693 9.47785C11.9693 9.75689 11.7501 9.97615 11.471 9.97615H7.48468C7.20563 9.97615 6.98638 9.75689 6.98638 9.47785C6.98638 9.1988 7.20563 8.97955 7.48468 8.97955Z" />
</svg>
