<svg class="fill-current stroke-current w-full h-full" style="color: inherit" stroke-width="0.2" width="24" height="24" viewBox="0 0 24 24" stroke="none" xmlns="http://www.w3.org/2000/svg">
<path d="M14.3922 12.8961L14 13.5L14.3922 13.6934C15.5882 12.2982 16.2062 10.3947 15.8673 8.37163C15.3989 5.6011 13.0865 3.38867 10.2958 3.04983C6.0798 2.5316 2.54154 6.07947 3.04986 10.2951C3.38873 13.0855 5.60139 15.3976 8.37219 15.866C10.3955 16.2048 12.2992 15.587 13.6945 14.3911L13.5 14L12.4687 13.9625L18.2095 19.6929C18.6182 20.1015 19.276 20.1015 19.6847 19.6929L19.6946 19.683C20.1033 19.2744 20.1033 18.6166 19.6946 18.208L14.3922 12.8961ZM9.47852 13.9625C6.99676 13.9625 4.99341 11.9594 4.99341 9.47785C4.99341 6.99633 6.99676 4.99318 9.47852 4.99318C11.9603 4.99318 13.9636 6.99633 13.9636 9.47785C13.9636 11.9594 11.9603 13.9625 9.47852 13.9625ZM9.47852 6.98637C9.19945 6.98637 8.98018 7.20562 8.98018 7.48466V8.97955H7.48514C7.20606 8.97955 6.98679 9.1988 6.98679 9.47785C6.98679 9.7569 7.20606 9.97615 7.48514 9.97615H8.98018V11.471C8.98018 11.7501 9.19945 11.9693 9.47852 11.9693C9.7576 11.9693 9.97687 11.7501 9.97687 11.471V9.97615H11.4719C11.751 9.97615 11.9703 9.7569 11.9703 9.47785C11.9703 9.1988 11.751 8.97955 11.4719 8.97955H9.97687V7.48466C9.97687 7.20562 9.7576 6.98637 9.47852 6.98637Z" />
</svg>
