<svg class="fill-current stroke-current w-full h-full" style="color: inherit" stroke-width="0.2" width="24" height="24" viewBox="0 0 24 24" stroke="none" xmlns="http://www.w3.org/2000/svg">
<path d="M11.16 4.5156C10.7878 4.36467 10.4432 4.43328 10.163 4.71226L6.80892 8.05095H3.91892C3.65703 8.05095 3.43649 8.13784 3.26189 8.31164C3.0873 8.48543 3 8.70496 3 8.96565V13.0818C3 13.3425 3.0873 13.5621 3.26189 13.7359C3.43649 13.9096 3.65703 13.9965 3.91892 13.9965H6.80892L10.163 17.3352C10.3468 17.5182 10.5581 17.6096 10.7878 17.6096C10.9073 17.6096 11.0314 17.5822 11.16 17.5319C11.5322 17.381 11.7297 17.0928 11.7297 16.6904V5.35256C11.7297 4.95466 11.5322 4.66195 11.16 4.51103V4.5156ZM9.89189 7.72165V14.3533L7.61757 12.1717H4.83784V9.88494H7.61757L9.89189 7.72165ZM20 11.0055C20 12.7983 19.4808 14.4402 18.4516 15.8808C17.427 17.3215 16.0532 18.3551 14.3762 18.9497C14.2705 18.9817 14.1649 19 14.0638 19C13.857 19 13.6686 18.9314 13.4941 18.7988C13.2414 18.6067 13.1081 18.3277 13.1081 17.9984C13.1081 17.8292 13.1586 17.6737 13.2505 17.5365C13.3516 17.3901 13.4941 17.2941 13.6686 17.2483C14.9919 16.7864 16.09 15.9723 16.917 14.8427C17.7395 13.713 18.1576 12.4187 18.1576 10.9963C18.1576 9.57394 17.7395 8.27505 16.9124 7.14081C16.0854 6.002 14.9873 5.19706 13.6457 4.7397C13.4849 4.69854 13.3424 4.59792 13.2414 4.44242C13.1495 4.29607 13.1035 4.14057 13.1035 3.97592C13.1035 3.64205 13.2459 3.36764 13.5124 3.1847C13.7789 2.99719 14.0776 2.95145 14.3716 3.05207C16.0532 3.64663 17.4224 4.68025 18.4516 6.12091C19.4762 7.56158 20 9.20348 20 10.9963V11.0055ZM12.9473 15.0896L12.6486 15.1857V6.84811L12.9473 6.93958C13.8203 7.21399 14.5324 7.73537 15.0654 8.49001C15.5984 9.24007 15.8649 10.0953 15.8649 11.0237C15.8649 11.9522 15.5938 12.8211 15.0654 13.5575C14.5324 14.2984 13.8203 14.8106 12.9473 15.085V15.0896Z" />
</svg>
